<svg id="pcb-stackup_top" version="1.1" xmlns:xlink="http://www.w3.org/1999/xlink" stroke-linecap="round" stroke-linejoin="round" stroke-width="0" fill-rule="evenodd" clip-rule="evenodd" viewBox="2151.6 2728.3 1336.6 574.8" width="1.3366in" height="0.5748in" xmlns="http://www.w3.org/2000/svg"><defs><style>.pcb-stackup_fr4 {color: #4D542C;}
.pcb-stackup_cu {color: lightgrey;}
.pcb-stackup_cf {color: goldenrod;}
.pcb-stackup_sm {color: #FFFF66; opacity: 0.5;}
.pcb-stackup_ss {color: black;}
.pcb-stackup_sp {color: #000000; opacity: 0;}
.pcb-stackup_out {color: black;}</style><rect x="-14" y="-18" width="28" height="36" id="TCe4WUZylyWO_pad-10"/><rect x="-18" y="-14" width="36" height="28" id="TCe4WUZylyWO_pad-11"/><rect x="-20" y="-20" width="40" height="40" id="TCe4WUZylyWO_pad-12"/><rect x="-8.85" y="-41.35" width="17.7" height="82.7" rx="8.85" ry="8.85" id="TCe4WUZylyWO_pad-13"/><rect x="-41.35" y="-9.85" width="82.7" height="19.7" id="TCe4WUZylyWO_pad-14"/><circle cx="0" cy="0" r="29.55" id="TCe4WUZylyWO_pad-17"/><rect x="-29.55" y="-29.55" width="59.1" height="59.1" id="TCe4WUZylyWO_pad-18"/><rect x="-29.55" y="-29.55" width="59.1" height="59.1" id="TCe4WUZylyWO_pad-19"/><circle cx="0" cy="0" r="15.75" id="TCe4WUZylyWO_pad-20"/><rect x="-78.75" y="-32.5" width="157.5" height="65" rx="32.5" ry="32.5" id="TCe4WUZylyWO_pad-21"/><circle cx="0" cy="0" r="35" id="TCe4WUZylyWO_pad-22"/><circle cx="0" cy="0" r="25" id="TCe4WUZylyWO_pad-23"/><rect x="-14" y="-18" width="28" height="36" id="TCe4WUZylyWO_pad-10"/><rect x="-18" y="-14" width="36" height="28" id="TCe4WUZylyWO_pad-11"/><rect x="-20" y="-20" width="40" height="40" id="TCe4WUZylyWO_pad-12"/><rect x="-8.85" y="-41.35" width="17.7" height="82.7" rx="8.85" ry="8.85" id="TCe4WUZylyWO_pad-13"/><rect x="-41.35" y="-9.85" width="82.7" height="19.7" id="TCe4WUZylyWO_pad-14"/><circle cx="0" cy="0" r="29.55" id="TCe4WUZylyWO_pad-17"/><rect x="-29.55" y="-29.55" width="59.1" height="59.1" id="TCe4WUZylyWO_pad-18"/><rect x="-29.55" y="-29.55" width="59.1" height="59.1" id="TCe4WUZylyWO_pad-19"/><circle cx="0" cy="0" r="15.75" id="TCe4WUZylyWO_pad-20"/><rect x="-78.75" y="-32.5" width="157.5" height="65" rx="32.5" ry="32.5" id="TCe4WUZylyWO_pad-21"/><circle cx="0" cy="0" r="35" id="TCe4WUZylyWO_pad-22"/><circle cx="0" cy="0" r="25" id="TCe4WUZylyWO_pad-23"/><rect x="-14" y="-18" width="28" height="36" id="TCe4WUZylyWO_pad-10"/><rect x="-18" y="-14" width="36" height="28" id="TCe4WUZylyWO_pad-11"/><rect x="-20" y="-20" width="40" height="40" id="TCe4WUZylyWO_pad-12"/><rect x="-8.85" y="-41.35" width="17.7" height="82.7" rx="8.85" ry="8.85" id="TCe4WUZylyWO_pad-13"/><rect x="-41.35" y="-9.85" width="82.7" height="19.7" id="TCe4WUZylyWO_pad-14"/><circle cx="0" cy="0" r="29.55" id="TCe4WUZylyWO_pad-17"/><rect x="-29.55" y="-29.55" width="59.1" height="59.1" id="TCe4WUZylyWO_pad-18"/><rect x="-29.55" y="-29.55" width="59.1" height="59.1" id="TCe4WUZylyWO_pad-19"/><circle cx="0" cy="0" r="15.75" id="TCe4WUZylyWO_pad-20"/><rect x="-78.75" y="-32.5" width="157.5" height="65" rx="32.5" ry="32.5" id="TCe4WUZylyWO_pad-21"/><circle cx="0" cy="0" r="35" id="TCe4WUZylyWO_pad-22"/><circle cx="0" cy="0" r="25" id="TCe4WUZylyWO_pad-23"/><rect x="-14" y="-18" width="28" height="36" id="TCe4WUZylyWO_pad-10"/><rect x="-18" y="-14" width="36" height="28" id="TCe4WUZylyWO_pad-11"/><rect x="-20" y="-20" width="40" height="40" id="TCe4WUZylyWO_pad-12"/><rect x="-8.85" y="-41.35" width="17.7" height="82.7" rx="8.85" ry="8.85" id="TCe4WUZylyWO_pad-13"/><rect x="-41.35" y="-9.85" width="82.7" height="19.7" id="TCe4WUZylyWO_pad-14"/><circle cx="0" cy="0" r="29.55" id="TCe4WUZylyWO_pad-17"/><rect x="-29.55" y="-29.55" width="59.1" height="59.1" id="TCe4WUZylyWO_pad-18"/><rect x="-29.55" y="-29.55" width="59.1" height="59.1" id="TCe4WUZylyWO_pad-19"/><circle cx="0" cy="0" r="15.75" id="TCe4WUZylyWO_pad-20"/><rect x="-78.75" y="-32.5" width="157.5" height="65" rx="32.5" ry="32.5" id="TCe4WUZylyWO_pad-21"/><circle cx="0" cy="0" r="35" id="TCe4WUZylyWO_pad-22"/><circle cx="0" cy="0" r="25" id="TCe4WUZylyWO_pad-23"/><rect x="-18" y="-22" width="36" height="44" id="rwF8M.qSzKI0_pad-29"/><rect x="-22" y="-18" width="44" height="36" id="rwF8M.qSzKI0_pad-30"/><rect x="-24" y="-24" width="48" height="48" id="rwF8M.qSzKI0_pad-31"/><rect x="-12.85" y="-45.35" width="25.7" height="90.7" rx="12.85" ry="12.85" id="rwF8M.qSzKI0_pad-32"/><rect x="-45.35" y="-13.85" width="90.7" height="27.7" id="rwF8M.qSzKI0_pad-33"/><circle cx="0" cy="0" r="33.55" id="rwF8M.qSzKI0_pad-34"/><rect x="-33.55" y="-33.55" width="67.1" height="67.1" id="rwF8M.qSzKI0_pad-35"/><rect x="-33.55" y="-33.55" width="67.1" height="67.1" id="rwF8M.qSzKI0_pad-36"/><circle cx="0" cy="0" r="19.75" id="rwF8M.qSzKI0_pad-37"/><rect x="-82.75" y="-36.5" width="165.5" height="73" rx="36.5" ry="36.5" id="rwF8M.qSzKI0_pad-38"/><circle cx="0" cy="0" r="39" id="rwF8M.qSzKI0_pad-39"/><circle cx="0" cy="0" r="29" id="rwF8M.qSzKI0_pad-40"/><rect x="-14" y="-18" width="28" height="36" id="TCe4WUZylyWO_pad-10"/><rect x="-18" y="-14" width="36" height="28" id="TCe4WUZylyWO_pad-11"/><rect x="-20" y="-20" width="40" height="40" id="TCe4WUZylyWO_pad-12"/><rect x="-8.85" y="-41.35" width="17.7" height="82.7" rx="8.85" ry="8.85" id="TCe4WUZylyWO_pad-13"/><rect x="-41.35" y="-9.85" width="82.7" height="19.7" id="TCe4WUZylyWO_pad-14"/><circle cx="0" cy="0" r="29.55" id="TCe4WUZylyWO_pad-17"/><rect x="-29.55" y="-29.55" width="59.1" height="59.1" id="TCe4WUZylyWO_pad-18"/><rect x="-29.55" y="-29.55" width="59.1" height="59.1" id="TCe4WUZylyWO_pad-19"/><circle cx="0" cy="0" r="15.75" id="TCe4WUZylyWO_pad-20"/><rect x="-78.75" y="-32.5" width="157.5" height="65" rx="32.5" ry="32.5" id="TCe4WUZylyWO_pad-21"/><circle cx="0" cy="0" r="35" id="TCe4WUZylyWO_pad-22"/><circle cx="0" cy="0" r="25" id="TCe4WUZylyWO_pad-23"/><rect x="-14" y="-18" width="28" height="36" id="TCe4WUZylyWO_pad-10"/><rect x="-18" y="-14" width="36" height="28" id="TCe4WUZylyWO_pad-11"/><rect x="-20" y="-20" width="40" height="40" id="TCe4WUZylyWO_pad-12"/><rect x="-8.85" y="-41.35" width="17.7" height="82.7" rx="8.85" ry="8.85" id="TCe4WUZylyWO_pad-13"/><rect x="-41.35" y="-9.85" width="82.7" height="19.7" id="TCe4WUZylyWO_pad-14"/><circle cx="0" cy="0" r="29.55" id="TCe4WUZylyWO_pad-17"/><rect x="-29.55" y="-29.55" width="59.1" height="59.1" id="TCe4WUZylyWO_pad-18"/><rect x="-29.55" y="-29.55" width="59.1" height="59.1" id="TCe4WUZylyWO_pad-19"/><circle cx="0" cy="0" r="15.75" id="TCe4WUZylyWO_pad-20"/><rect x="-78.75" y="-32.5" width="157.5" height="65" rx="32.5" ry="32.5" id="TCe4WUZylyWO_pad-21"/><circle cx="0" cy="0" r="35" id="TCe4WUZylyWO_pad-22"/><circle cx="0" cy="0" r="25" id="TCe4WUZylyWO_pad-23"/><rect x="-14" y="-18" width="28" height="36" id="TCe4WUZylyWO_pad-10"/><rect x="-18" y="-14" width="36" height="28" id="TCe4WUZylyWO_pad-11"/><rect x="-20" y="-20" width="40" height="40" id="TCe4WUZylyWO_pad-12"/><rect x="-8.85" y="-41.35" width="17.7" height="82.7" rx="8.85" ry="8.85" id="TCe4WUZylyWO_pad-13"/><rect x="-41.35" y="-9.85" width="82.7" height="19.7" id="TCe4WUZylyWO_pad-14"/><circle cx="0" cy="0" r="29.55" id="TCe4WUZylyWO_pad-17"/><rect x="-29.55" y="-29.55" width="59.1" height="59.1" id="TCe4WUZylyWO_pad-18"/><rect x="-29.55" y="-29.55" width="59.1" height="59.1" id="TCe4WUZylyWO_pad-19"/><circle cx="0" cy="0" r="15.75" id="TCe4WUZylyWO_pad-20"/><rect x="-78.75" y="-32.5" width="157.5" height="65" rx="32.5" ry="32.5" id="TCe4WUZylyWO_pad-21"/><circle cx="0" cy="0" r="35" id="TCe4WUZylyWO_pad-22"/><circle cx="0" cy="0" r="25" id="TCe4WUZylyWO_pad-23"/><rect x="-14" y="-18" width="28" height="36" id="TCe4WUZylyWO_pad-10"/><rect x="-18" y="-14" width="36" height="28" id="TCe4WUZylyWO_pad-11"/><rect x="-20" y="-20" width="40" height="40" id="TCe4WUZylyWO_pad-12"/><rect x="-8.85" y="-41.35" width="17.7" height="82.7" rx="8.85" ry="8.85" id="TCe4WUZylyWO_pad-13"/><rect x="-41.35" y="-9.85" width="82.7" height="19.7" id="TCe4WUZylyWO_pad-14"/><circle cx="0" cy="0" r="29.55" id="TCe4WUZylyWO_pad-17"/><rect x="-29.55" y="-29.55" width="59.1" height="59.1" id="TCe4WUZylyWO_pad-18"/><rect x="-29.55" y="-29.55" width="59.1" height="59.1" id="TCe4WUZylyWO_pad-19"/><circle cx="0" cy="0" r="15.75" id="TCe4WUZylyWO_pad-20"/><rect x="-78.75" y="-32.5" width="157.5" height="65" rx="32.5" ry="32.5" id="TCe4WUZylyWO_pad-21"/><circle cx="0" cy="0" r="35" id="TCe4WUZylyWO_pad-22"/><circle cx="0" cy="0" r="25" id="TCe4WUZylyWO_pad-23"/><rect x="-18" y="-22" width="36" height="44" id="rwF8M.qSzKI0_pad-29"/><rect x="-22" y="-18" width="44" height="36" id="rwF8M.qSzKI0_pad-30"/><rect x="-24" y="-24" width="48" height="48" id="rwF8M.qSzKI0_pad-31"/><rect x="-12.85" y="-45.35" width="25.7" height="90.7" rx="12.85" ry="12.85" id="rwF8M.qSzKI0_pad-32"/><rect x="-45.35" y="-13.85" width="90.7" height="27.7" id="rwF8M.qSzKI0_pad-33"/><circle cx="0" cy="0" r="33.55" id="rwF8M.qSzKI0_pad-34"/><rect x="-33.55" y="-33.55" width="67.1" height="67.1" id="rwF8M.qSzKI0_pad-35"/><rect x="-33.55" y="-33.55" width="67.1" height="67.1" id="rwF8M.qSzKI0_pad-36"/><circle cx="0" cy="0" r="19.75" id="rwF8M.qSzKI0_pad-37"/><rect x="-82.75" y="-36.5" width="165.5" height="73" rx="36.5" ry="36.5" id="rwF8M.qSzKI0_pad-38"/><circle cx="0" cy="0" r="39" id="rwF8M.qSzKI0_pad-39"/><circle cx="0" cy="0" r="29" id="rwF8M.qSzKI0_pad-40"/><circle cx="0" cy="0" r="14" id="_PWV9Rvyry.w_pad-1"/><circle cx="0" cy="0" r="17.7" id="_PWV9Rvyry.w_pad-2"/><circle cx="0" cy="0" r="20.65" id="_PWV9Rvyry.w_pad-3"/><circle cx="0" cy="0" r="32" id="_PWV9Rvyry.w_pad-4"/><circle cx="0" cy="0" r="21.65" id="_PWV9Rvyry.w_pad-5"/><rect x="-14" y="-18" width="28" height="36" id="TCe4WUZylyWO_pad-10"/><rect x="-18" y="-14" width="36" height="28" id="TCe4WUZylyWO_pad-11"/><rect x="-20" y="-20" width="40" height="40" id="TCe4WUZylyWO_pad-12"/><rect x="-8.85" y="-41.35" width="17.7" height="82.7" rx="8.85" ry="8.85" id="TCe4WUZylyWO_pad-13"/><rect x="-41.35" y="-9.85" width="82.7" height="19.7" id="TCe4WUZylyWO_pad-14"/><circle cx="0" cy="0" r="29.55" id="TCe4WUZylyWO_pad-17"/><rect x="-29.55" y="-29.55" width="59.1" height="59.1" id="TCe4WUZylyWO_pad-18"/><rect x="-29.55" y="-29.55" width="59.1" height="59.1" id="TCe4WUZylyWO_pad-19"/><circle cx="0" cy="0" r="15.75" id="TCe4WUZylyWO_pad-20"/><rect x="-78.75" y="-32.5" width="157.5" height="65" rx="32.5" ry="32.5" id="TCe4WUZylyWO_pad-21"/><circle cx="0" cy="0" r="35" id="TCe4WUZylyWO_pad-22"/><circle cx="0" cy="0" r="25" id="TCe4WUZylyWO_pad-23"/><rect x="-14" y="-18" width="28" height="36" id="TCe4WUZylyWO_pad-10"/><rect x="-18" y="-14" width="36" height="28" id="TCe4WUZylyWO_pad-11"/><rect x="-20" y="-20" width="40" height="40" id="TCe4WUZylyWO_pad-12"/><rect x="-8.85" y="-41.35" width="17.7" height="82.7" rx="8.85" ry="8.85" id="TCe4WUZylyWO_pad-13"/><rect x="-41.35" y="-9.85" width="82.7" height="19.7" id="TCe4WUZylyWO_pad-14"/><circle cx="0" cy="0" r="29.55" id="TCe4WUZylyWO_pad-17"/><rect x="-29.55" y="-29.55" width="59.1" height="59.1" id="TCe4WUZylyWO_pad-18"/><rect x="-29.55" y="-29.55" width="59.1" height="59.1" id="TCe4WUZylyWO_pad-19"/><circle cx="0" cy="0" r="15.75" id="TCe4WUZylyWO_pad-20"/><rect x="-78.75" y="-32.5" width="157.5" height="65" rx="32.5" ry="32.5" id="TCe4WUZylyWO_pad-21"/><circle cx="0" cy="0" r="35" id="TCe4WUZylyWO_pad-22"/><circle cx="0" cy="0" r="25" id="TCe4WUZylyWO_pad-23"/><rect x="-14" y="-18" width="28" height="36" id="TCe4WUZylyWO_pad-10"/><rect x="-18" y="-14" width="36" height="28" id="TCe4WUZylyWO_pad-11"/><rect x="-20" y="-20" width="40" height="40" id="TCe4WUZylyWO_pad-12"/><rect x="-8.85" y="-41.35" width="17.7" height="82.7" rx="8.85" ry="8.85" id="TCe4WUZylyWO_pad-13"/><rect x="-41.35" y="-9.85" width="82.7" height="19.7" id="TCe4WUZylyWO_pad-14"/><circle cx="0" cy="0" r="29.55" id="TCe4WUZylyWO_pad-17"/><rect x="-29.55" y="-29.55" width="59.1" height="59.1" id="TCe4WUZylyWO_pad-18"/><rect x="-29.55" y="-29.55" width="59.1" height="59.1" id="TCe4WUZylyWO_pad-19"/><circle cx="0" cy="0" r="15.75" id="TCe4WUZylyWO_pad-20"/><rect x="-78.75" y="-32.5" width="157.5" height="65" rx="32.5" ry="32.5" id="TCe4WUZylyWO_pad-21"/><circle cx="0" cy="0" r="35" id="TCe4WUZylyWO_pad-22"/><circle cx="0" cy="0" r="25" id="TCe4WUZylyWO_pad-23"/><rect x="-14" y="-18" width="28" height="36" id="TCe4WUZylyWO_pad-10"/><rect x="-18" y="-14" width="36" height="28" id="TCe4WUZylyWO_pad-11"/><rect x="-20" y="-20" width="40" height="40" id="TCe4WUZylyWO_pad-12"/><rect x="-8.85" y="-41.35" width="17.7" height="82.7" rx="8.85" ry="8.85" id="TCe4WUZylyWO_pad-13"/><rect x="-41.35" y="-9.85" width="82.7" height="19.7" id="TCe4WUZylyWO_pad-14"/><circle cx="0" cy="0" r="29.55" id="TCe4WUZylyWO_pad-17"/><rect x="-29.55" y="-29.55" width="59.1" height="59.1" id="TCe4WUZylyWO_pad-18"/><rect x="-29.55" y="-29.55" width="59.1" height="59.1" id="TCe4WUZylyWO_pad-19"/><circle cx="0" cy="0" r="15.75" id="TCe4WUZylyWO_pad-20"/><rect x="-78.75" y="-32.5" width="157.5" height="65" rx="32.5" ry="32.5" id="TCe4WUZylyWO_pad-21"/><circle cx="0" cy="0" r="35" id="TCe4WUZylyWO_pad-22"/><circle cx="0" cy="0" r="25" id="TCe4WUZylyWO_pad-23"/><rect x="-18" y="-22" width="36" height="44" id="rwF8M.qSzKI0_pad-29"/><rect x="-22" y="-18" width="44" height="36" id="rwF8M.qSzKI0_pad-30"/><rect x="-24" y="-24" width="48" height="48" id="rwF8M.qSzKI0_pad-31"/><rect x="-12.85" y="-45.35" width="25.7" height="90.7" rx="12.85" ry="12.85" id="rwF8M.qSzKI0_pad-32"/><rect x="-45.35" y="-13.85" width="90.7" height="27.7" id="rwF8M.qSzKI0_pad-33"/><circle cx="0" cy="0" r="33.55" id="rwF8M.qSzKI0_pad-34"/><rect x="-33.55" y="-33.55" width="67.1" height="67.1" id="rwF8M.qSzKI0_pad-35"/><rect x="-33.55" y="-33.55" width="67.1" height="67.1" id="rwF8M.qSzKI0_pad-36"/><circle cx="0" cy="0" r="19.75" id="rwF8M.qSzKI0_pad-37"/><rect x="-82.75" y="-36.5" width="165.5" height="73" rx="36.5" ry="36.5" id="rwF8M.qSzKI0_pad-38"/><circle cx="0" cy="0" r="39" id="rwF8M.qSzKI0_pad-39"/><circle cx="0" cy="0" r="29" id="rwF8M.qSzKI0_pad-40"/><rect x="-14" y="-18" width="28" height="36" id="TCe4WUZylyWO_pad-10"/><rect x="-18" y="-14" width="36" height="28" id="TCe4WUZylyWO_pad-11"/><rect x="-20" y="-20" width="40" height="40" id="TCe4WUZylyWO_pad-12"/><rect x="-8.85" y="-41.35" width="17.7" height="82.7" rx="8.85" ry="8.85" id="TCe4WUZylyWO_pad-13"/><rect x="-41.35" y="-9.85" width="82.7" height="19.7" id="TCe4WUZylyWO_pad-14"/><circle cx="0" cy="0" r="29.55" id="TCe4WUZylyWO_pad-17"/><rect x="-29.55" y="-29.55" width="59.1" height="59.1" id="TCe4WUZylyWO_pad-18"/><rect x="-29.55" y="-29.55" width="59.1" height="59.1" id="TCe4WUZylyWO_pad-19"/><circle cx="0" cy="0" r="15.75" id="TCe4WUZylyWO_pad-20"/><rect x="-78.75" y="-32.5" width="157.5" height="65" rx="32.5" ry="32.5" id="TCe4WUZylyWO_pad-21"/><circle cx="0" cy="0" r="35" id="TCe4WUZylyWO_pad-22"/><circle cx="0" cy="0" r="25" id="TCe4WUZylyWO_pad-23"/><rect x="-14" y="-18" width="28" height="36" id="TCe4WUZylyWO_pad-10"/><rect x="-18" y="-14" width="36" height="28" id="TCe4WUZylyWO_pad-11"/><rect x="-20" y="-20" width="40" height="40" id="TCe4WUZylyWO_pad-12"/><rect x="-8.85" y="-41.35" width="17.7" height="82.7" rx="8.85" ry="8.85" id="TCe4WUZylyWO_pad-13"/><rect x="-41.35" y="-9.85" width="82.7" height="19.7" id="TCe4WUZylyWO_pad-14"/><circle cx="0" cy="0" r="29.55" id="TCe4WUZylyWO_pad-17"/><rect x="-29.55" y="-29.55" width="59.1" height="59.1" id="TCe4WUZylyWO_pad-18"/><rect x="-29.55" y="-29.55" width="59.1" height="59.1" id="TCe4WUZylyWO_pad-19"/><circle cx="0" cy="0" r="15.75" id="TCe4WUZylyWO_pad-20"/><rect x="-78.75" y="-32.5" width="157.5" height="65" rx="32.5" ry="32.5" id="TCe4WUZylyWO_pad-21"/><circle cx="0" cy="0" r="35" id="TCe4WUZylyWO_pad-22"/><circle cx="0" cy="0" r="25" id="TCe4WUZylyWO_pad-23"/><rect x="-14" y="-18" width="28" height="36" id="TCe4WUZylyWO_pad-10"/><rect x="-18" y="-14" width="36" height="28" id="TCe4WUZylyWO_pad-11"/><rect x="-20" y="-20" width="40" height="40" id="TCe4WUZylyWO_pad-12"/><rect x="-8.85" y="-41.35" width="17.7" height="82.7" rx="8.85" ry="8.85" id="TCe4WUZylyWO_pad-13"/><rect x="-41.35" y="-9.85" width="82.7" height="19.7" id="TCe4WUZylyWO_pad-14"/><circle cx="0" cy="0" r="29.55" id="TCe4WUZylyWO_pad-17"/><rect x="-29.55" y="-29.55" width="59.1" height="59.1" id="TCe4WUZylyWO_pad-18"/><rect x="-29.55" y="-29.55" width="59.1" height="59.1" id="TCe4WUZylyWO_pad-19"/><circle cx="0" cy="0" r="15.75" id="TCe4WUZylyWO_pad-20"/><rect x="-78.75" y="-32.5" width="157.5" height="65" rx="32.5" ry="32.5" id="TCe4WUZylyWO_pad-21"/><circle cx="0" cy="0" r="35" id="TCe4WUZylyWO_pad-22"/><circle cx="0" cy="0" r="25" id="TCe4WUZylyWO_pad-23"/><rect x="-14" y="-18" width="28" height="36" id="TCe4WUZylyWO_pad-10"/><rect x="-18" y="-14" width="36" height="28" id="TCe4WUZylyWO_pad-11"/><rect x="-20" y="-20" width="40" height="40" id="TCe4WUZylyWO_pad-12"/><rect x="-8.85" y="-41.35" width="17.7" height="82.7" rx="8.85" ry="8.85" id="TCe4WUZylyWO_pad-13"/><rect x="-41.35" y="-9.85" width="82.7" height="19.7" id="TCe4WUZylyWO_pad-14"/><circle cx="0" cy="0" r="29.55" id="TCe4WUZylyWO_pad-17"/><rect x="-29.55" y="-29.55" width="59.1" height="59.1" id="TCe4WUZylyWO_pad-18"/><rect x="-29.55" y="-29.55" width="59.1" height="59.1" id="TCe4WUZylyWO_pad-19"/><circle cx="0" cy="0" r="15.75" id="TCe4WUZylyWO_pad-20"/><rect x="-78.75" y="-32.5" width="157.5" height="65" rx="32.5" ry="32.5" id="TCe4WUZylyWO_pad-21"/><circle cx="0" cy="0" r="35" id="TCe4WUZylyWO_pad-22"/><circle cx="0" cy="0" r="25" id="TCe4WUZylyWO_pad-23"/><rect x="-18" y="-22" width="36" height="44" id="rwF8M.qSzKI0_pad-29"/><rect x="-22" y="-18" width="44" height="36" id="rwF8M.qSzKI0_pad-30"/><rect x="-24" y="-24" width="48" height="48" id="rwF8M.qSzKI0_pad-31"/><rect x="-12.85" y="-45.35" width="25.7" height="90.7" rx="12.85" ry="12.85" id="rwF8M.qSzKI0_pad-32"/><rect x="-45.35" y="-13.85" width="90.7" height="27.7" id="rwF8M.qSzKI0_pad-33"/><circle cx="0" cy="0" r="33.55" id="rwF8M.qSzKI0_pad-34"/><rect x="-33.55" y="-33.55" width="67.1" height="67.1" id="rwF8M.qSzKI0_pad-35"/><rect x="-33.55" y="-33.55" width="67.1" height="67.1" id="rwF8M.qSzKI0_pad-36"/><circle cx="0" cy="0" r="19.75" id="rwF8M.qSzKI0_pad-37"/><rect x="-82.75" y="-36.5" width="165.5" height="73" rx="36.5" ry="36.5" id="rwF8M.qSzKI0_pad-38"/><circle cx="0" cy="0" r="39" id="rwF8M.qSzKI0_pad-39"/><circle cx="0" cy="0" r="29" id="rwF8M.qSzKI0_pad-40"/><circle cx="0" cy="0" r="14" id="_PWV9Rvyry.w_pad-1"/><circle cx="0" cy="0" r="17.7" id="_PWV9Rvyry.w_pad-2"/><circle cx="0" cy="0" r="20.65" id="_PWV9Rvyry.w_pad-3"/><circle cx="0" cy="0" r="32" id="_PWV9Rvyry.w_pad-4"/><circle cx="0" cy="0" r="21.65" id="_PWV9Rvyry.w_pad-5"/><g id="pcb-stackup_top_cu"><use xlink:href="#TCe4WUZylyWO_pad-10" x="2506.9" y="2925.2"/><use xlink:href="#TCe4WUZylyWO_pad-10" x="2570.9" y="2925.2"/><use xlink:href="#TCe4WUZylyWO_pad-10" x="2571.4" y="2866.1"/><use xlink:href="#TCe4WUZylyWO_pad-10" x="2507.4" y="2866.1"/><use xlink:href="#TCe4WUZylyWO_pad-10" x="2570.9" y="2807.1"/><use xlink:href="#TCe4WUZylyWO_pad-10" x="2506.9" y="2807.1"/><use xlink:href="#TCe4WUZylyWO_pad-10" x="3063.5" y="2921.3"/><use xlink:href="#TCe4WUZylyWO_pad-10" x="2999.5" y="2921.3"/><use xlink:href="#TCe4WUZylyWO_pad-10" x="3019.7" y="3004.4"/><use xlink:href="#TCe4WUZylyWO_pad-10" x="3083.7" y="3004.4"/><use xlink:href="#TCe4WUZylyWO_pad-10" x="2463.6" y="3066.9"/><use xlink:href="#TCe4WUZylyWO_pad-10" x="2527.6" y="3066.9"/><use xlink:href="#TCe4WUZylyWO_pad-10" x="2463.6" y="3126"/><use xlink:href="#TCe4WUZylyWO_pad-10" x="2527.6" y="3126"/><use xlink:href="#TCe4WUZylyWO_pad-11" x="3146.2" y="3123"/><use xlink:href="#TCe4WUZylyWO_pad-11" x="3146.2" y="3059"/><use xlink:href="#TCe4WUZylyWO_pad-12" x="3012.2" y="3058.6"/><use xlink:href="#TCe4WUZylyWO_pad-12" x="3090.2" y="3058.6"/><use xlink:href="#TCe4WUZylyWO_pad-12" x="3012.2" y="3114.6"/><use xlink:href="#TCe4WUZylyWO_pad-12" x="3090.2" y="3114.6"/><use xlink:href="#TCe4WUZylyWO_pad-13" x="2699.8" y="2824.8"/><use xlink:href="#TCe4WUZylyWO_pad-13" x="2725.4" y="2824.8"/><use xlink:href="#TCe4WUZylyWO_pad-13" x="2751" y="2824.8"/><use xlink:href="#TCe4WUZylyWO_pad-13" x="2776.6" y="2824.8"/><use xlink:href="#TCe4WUZylyWO_pad-13" x="2802.2" y="2824.8"/><use xlink:href="#TCe4WUZylyWO_pad-13" x="2827.8" y="2824.8"/><use xlink:href="#TCe4WUZylyWO_pad-13" x="2853.3" y="2824.8"/><use xlink:href="#TCe4WUZylyWO_pad-13" x="2878.9" y="2824.8"/><use xlink:href="#TCe4WUZylyWO_pad-13" x="2904.5" y="2824.8"/><use xlink:href="#TCe4WUZylyWO_pad-13" x="2930.1" y="2824.8"/><use xlink:href="#TCe4WUZylyWO_pad-13" x="2699.8" y="3096.5"/><use xlink:href="#TCe4WUZylyWO_pad-13" x="2725.4" y="3096.5"/><use xlink:href="#TCe4WUZylyWO_pad-13" x="2751" y="3096.5"/><use xlink:href="#TCe4WUZylyWO_pad-13" x="2776.6" y="3096.5"/><use xlink:href="#TCe4WUZylyWO_pad-13" x="2802.2" y="3096.5"/><use xlink:href="#TCe4WUZylyWO_pad-13" x="2827.8" y="3096.5"/><use xlink:href="#TCe4WUZylyWO_pad-13" x="2853.3" y="3096.5"/><use xlink:href="#TCe4WUZylyWO_pad-13" x="2878.9" y="3096.5"/><use xlink:href="#TCe4WUZylyWO_pad-13" x="2904.5" y="3096.5"/><use xlink:href="#TCe4WUZylyWO_pad-13" x="2930.1" y="3096.5"/><use xlink:href="#TCe4WUZylyWO_pad-14" x="2362.2" y="2883.9"/><use xlink:href="#TCe4WUZylyWO_pad-14" x="2362.2" y="2982.3"/><use xlink:href="#TCe4WUZylyWO_pad-14" x="2362.2" y="3061"/><use xlink:href="#TCe4WUZylyWO_pad-14" x="2362.2" y="3159.4"/><path d="M 2252 3118.1 2259.8 3110.2 M 2200.8 3118.1 2252 3118.1 M 2853.3 3044.3 2853.3 3096.5 M 2853.3 3044.3 2870.1 3027.6 2913.4 3027.6 2999.5 2941.4 M 2999.5 2921.3 2999.5 2941.4 M 3059.6 2925.2 3126 2925.2 M 3024.1 2960.6 3059.6 2925.2 M 3007.9 2960.6 3024.1 2960.6 M 3110.2 2881.9 3185 2807.1 M 2984.3 2881.9 3110.2 2881.9 M 2960.6 2905.5 2984.3 2881.9 M 2901.6 2905.5 2960.6 2905.5 M 2880.7 2884.6 2901.6 2905.5 M 2904.5 2824.8 2904.5 2869.1 2920.9 2885.5 2945.2 2885.5 2968.5 2862.2 3047.2 2862.2 3102.4 2807.1 M 2571.4 2866.1 2602.4 2866.1 2618.1 2881.9 2618.1 3043.3 2671.3 3096.5 2699.8 3096.5 M 2533.5 2990.2 2539.4 2996.1 M 2533.5 2990.2 2570.9 2952.8 M 2527.6 2999.1 2527.6 3066.9 M 2468.5 2940.1 2527.6 2999.1 M 2826.8 2933.1 2842.5 2948.8 M 2826.8 2825.8 2826.8 2933.1 M 2771.7 2940.9 2771.7 2960.6 M 2771.7 2940.9 2802.2 2910.4 M 2692.9 2937 2700.8 2944.9 M 2692.9 2921.3 2692.9 2937 M 2692.9 2921.3 2720.5 2893.7 M 2853.3 2896.7 2889.8 2933.1 2889.8 2948.2 M 2853.3 2824.8 2853.3 2896.7 M 3008.7 3063 3015.7 3056 M 3009.6 3056 3015.7 3056 M 2954 3111.6 3009.6 3056 M 3015.7 3056 3019.7 3052.1 M 2826.8 2825.8 2827.8 2824.8 M 3126 2925.2 3140.4 2925.2 M 2614.2 2807.1 2641.7 2834.6 M 3140.4 2925.2 3246.4 3031.2 M 2930.1 3038.4 3007.9 2960.6 M 2930.1 3038.4 2930.1 3096.5 M 3086.7 3063 3145.4 3004.4 M 3146.2 3004.4 3146.2 3059 M 3083.7 3004.4 3145.4 3004.4 M 3069.2 3079.6 3085.8 3063 3090.2 3058.6 M 3085.8 3063 3086.7 3063 M 3055.2 3079.6 3069.2 3079.6 M 3020.2 3114.6 3055.2 3079.6 M 3012.2 3114.6 3020.2 3114.6 M 2791.3 3283.5 2813.8 3261 M 2720.5 3283.5 2791.3 3283.5 M 2669.3 3232.3 2720.5 3283.5 M 2813.8 3190.1 2813.8 3261 M 2853.3 3096.5 2855.1 3098.2 2855.1 3144.2 2903.7 3192.8 2956.6 3192.8 2971.9 3177.5 3144.9 3177.5 M 2586.3 3181.4 2713 3181.4 M 2880.7 3141.5 2912 3172.8 M 2954 3111.6 2954 3138.8 M 2906.3 3098.2 2906.3 3138.8 M 2948.3 3172.8 2963.6 3157.5 M 2912 3172.8 2948.3 3172.8 M 2940 3152.8 2954 3138.8 M 2920.2 3152.8 2940 3152.8 M 2906.3 3138.8 2920.2 3152.8 M 3144.9 3177.5 3181.1 3141.3 M 3056.3 3157.5 3090.7 3123 M 2963.6 3157.5 3056.3 3157.5 M 3003.5 3063 3008.7 3063 M 3181.1 3077.4 3181.1 3141.3 M 3181.1 3077.4 3207.3 3051.2 3369.5 3051.2 M 2878.9 3096.5 2880.7 3098.2 2880.7 3141.5 M 2904.5 3096.5 2906.3 3098.2 M 2570.9 2925.2 2570.9 2952.8 M 2468.5 2841.9 2503.3 2807.1 2506.9 2807.1 M 2409.4 2933.1 2428.5 2914 M 2428.5 2825.4 2428.5 2914 M 2428.5 2825.4 2428.8 2825.1 M 2428.8 2784.5 2428.8 2825.1 M 2403.5 2982.3 2448.5 2937.3 M 2448.5 2833.7 2448.5 2937.3 M 2448.5 2833.7 2448.8 2833.3 M 2448.8 2792.7 2448.8 2833.3 M 2468.5 2841.9 2468.5 2940.1 M 2527.6 3066.9 2527.6 3126 M 2460.6 2996.1 2463.6 2999 2463.6 3066.9 M 2385.8 3183.1 2385.8 3200.8 M 2255.9 2929.1 2259.8 2933.1 M 2200.8 2929.1 2255.9 2929.1 M 2259.8 3212.6 2259.8 3246.1 M 2259.8 3212.6 2313 3159.4 2362.2 3159.4 M 2200.8 2929.1 2200.8 3118.1 M 2463.6 3066.9 2463.6 3126 M 2296.5 2947.6 2311 2933.1 M 2296.5 2947.6 2296.5 2948.3 M 2283.5 2961.3 2296.5 2948.3 M 2283.5 2961.3 2283.5 3043.3 M 2311 2933.1 2409.4 2933.1 M 2362.2 2982.3 2403.5 2982.3 M 2301.2 3061 2362.2 3061 M 2283.5 3043.3 2301.2 3061 M 2428.8 2784.5 2466.2 2747.1 2870.1 2747.1 2902.8 2779.7 2902.8 2823.1 2904.5 2824.8 M 2448.8 2792.7 2474.5 2767.1 2861.9 2767.1 2877.2 2782.4 2877.2 2823.1 2878.9 2824.8 M 2661.4 3011.8 2740.2 3011.8 2776.6 3048.2 2776.6 3096.5 M 2720.5 2893.7 2759.8 2893.7 2776.6 2877 M 2776.6 2824.8 2776.6 2877 M 2813.8 3190.1 2827.8 3176.2 M 2827.8 3096.5 2827.8 3176.2 M 2769.3 3187.4 2769.3 3232.3 M 2769.3 3187.4 2802.2 3154.5 M 2802.2 3096.5 2802.2 3154.5 M 2569.3 3198.4 2569.3 3232.3 M 2569.3 3198.4 2586.3 3181.4 M 2713 3181.4 2749.3 3145.2 M 2749.3 3098.2 2749.3 3145.2 M 2749.3 3098.2 2751 3096.5 M 2469.3 3200 2469.3 3232.3 M 2469.3 3200 2507.9 3161.4 2704.7 3161.4 2725.4 3140.7 M 2725.4 3096.5 2725.4 3140.7 M 2723.7 3098.2 2725.4 3096.5 M 2506.9 2866.1 2506.9 2925.2 M 2570.9 2807.1 2614.2 2807.1 M 2763.8 2968.5 2771.7 2960.6 M 2802.2 2824.8 2802.2 2910.4 M 2930.1 2824.8 2962.6 2824.8 M 2880.7 2826.5 2880.7 2884.6 M 2878.9 2824.8 2880.7 2826.5 M 3246.4 3031.2 3377.7 3031.2 3410.7 3064.1 3410.7 3090.2 3440.9 3120.5 M 3369.5 3051.2 3390.7 3072.4 3390.7 3170.2 3440.9 3220.5 M 3086.7 3119 3090.7 3123 3146.2 3123 M 3019.7 3004.4 3019.7 3052.1 M 3145.4 3004.4 3146.2 3004.4" fill="none" stroke-width="10"/><path d="M 2385.8 2826.8 2389.8 2830.7 2389.8 2856.3 M 2362.2 2883.9 2389.8 2856.3 M 2362.2 3159.4 2385.8 3183.1" fill="none" stroke-width="20"/><use xlink:href="#TCe4WUZylyWO_pad-17" x="3440.9" y="2820.5"/><use xlink:href="#TCe4WUZylyWO_pad-17" x="3440.9" y="2920.5"/><use xlink:href="#TCe4WUZylyWO_pad-17" x="3440.9" y="3020.5"/><use xlink:href="#TCe4WUZylyWO_pad-17" x="3440.9" y="3120.5"/><use xlink:href="#TCe4WUZylyWO_pad-17" x="3069.3" y="3236.2"/><use xlink:href="#TCe4WUZylyWO_pad-17" x="2969.3" y="3236.2"/><use xlink:href="#TCe4WUZylyWO_pad-17" x="2869.3" y="3236.2"/><use xlink:href="#TCe4WUZylyWO_pad-17" x="2769.3" y="3236.2"/><use xlink:href="#TCe4WUZylyWO_pad-17" x="2669.3" y="3236.2"/><use xlink:href="#TCe4WUZylyWO_pad-17" x="2569.3" y="3236.2"/><use xlink:href="#TCe4WUZylyWO_pad-17" x="2469.3" y="3236.2"/><use xlink:href="#TCe4WUZylyWO_pad-18" x="3440.9" y="3220.5"/><use xlink:href="#TCe4WUZylyWO_pad-19" x="3169.3" y="3236.2"/><use xlink:href="#TCe4WUZylyWO_pad-20" x="2259.8" y="2933.1"/><use xlink:href="#TCe4WUZylyWO_pad-20" x="2259.8" y="3110.2"/><use xlink:href="#TCe4WUZylyWO_pad-21" x="2259.8" y="2797.2"/><use xlink:href="#TCe4WUZylyWO_pad-21" x="2259.8" y="3246.1"/><use xlink:href="#TCe4WUZylyWO_pad-22" x="2307.1" y="3246.1"/><use xlink:href="#TCe4WUZylyWO_pad-22" x="2212.6" y="3246.1"/><use xlink:href="#TCe4WUZylyWO_pad-22" x="2259.8" y="3246.1"/><use xlink:href="#TCe4WUZylyWO_pad-22" x="2259.8" y="2795.3"/><use xlink:href="#TCe4WUZylyWO_pad-22" x="2212.6" y="2795.3"/><use xlink:href="#TCe4WUZylyWO_pad-22" x="2307.1" y="2795.3"/><use xlink:href="#TCe4WUZylyWO_pad-23" x="2539.4" y="2996.1"/><use xlink:href="#TCe4WUZylyWO_pad-23" x="2834.6" y="2948.8"/><use xlink:href="#TCe4WUZylyWO_pad-23" x="3126" y="2925.2"/><use xlink:href="#TCe4WUZylyWO_pad-23" x="2641.7" y="2834.6"/><use xlink:href="#TCe4WUZylyWO_pad-23" x="2460.6" y="2996.1"/><use xlink:href="#TCe4WUZylyWO_pad-23" x="2385.8" y="2826.8"/><use xlink:href="#TCe4WUZylyWO_pad-23" x="2385.8" y="3200.8"/><use xlink:href="#TCe4WUZylyWO_pad-23" x="2200.8" y="2929.1"/><use xlink:href="#TCe4WUZylyWO_pad-23" x="2200.8" y="3118.1"/><use xlink:href="#TCe4WUZylyWO_pad-23" x="2661.4" y="3011.8"/><use xlink:href="#TCe4WUZylyWO_pad-23" x="2905.5" y="2948.8"/><use xlink:href="#TCe4WUZylyWO_pad-23" x="2689" y="2948.8"/><use xlink:href="#TCe4WUZylyWO_pad-23" x="2763.8" y="2948.8"/><use xlink:href="#TCe4WUZylyWO_pad-23" x="2988.2" y="2818.9"/><use xlink:href="#TCe4WUZylyWO_pad-23" x="3102.4" y="2807.1"/><use xlink:href="#TCe4WUZylyWO_pad-23" x="3185" y="2807.1"/><use xlink:href="#TCe4WUZylyWO_pad-23" x="3137.8" y="3007.9"/><use xlink:href="#TCe4WUZylyWO_pad-23" x="3253.9" y="3228.3"/><use xlink:href="#TCe4WUZylyWO_pad-23" x="3253.9" y="2815"/></g><g id="pcb-stackup_top_ss"><path d="M 3041 2931.8 3022 2931.8 3022 2936.8 3041 2936.8 3041 2931.8"/><path d="M 2534.4 2928.7 2548.4 2928.7 2548.4 2921.7 2534.4 2921.7 2534.4 2909.7 2529.4 2909.7 2529.4 2940.7 2534.4 2940.7 2534.4 2928.7"/><path d="M 3047.2 2988.9 3042.2 2988.9 3042.2 3019.9 3047.2 3019.9 3047.2 2988.9"/><path d="M 3064.7 3042.1 3037.7 3042.1 3037.7 3047.1 3064.7 3047.1 3064.7 3042.1"/><path d="M 3061.2 2988.9 3056.2 2988.9 3056.2 3019.9 3061.2 3019.9 3061.2 2988.9"/><path d="M 2548.4 2791.6 2543.4 2791.6 2543.4 2822.6 2548.4 2822.6 2548.4 2791.6"/><path d="M 2534.4 2791.6 2529.4 2791.6 2529.4 2822.6 2534.4 2822.6 2534.4 2791.6"/><path d="M 2548.9 2850.6 2529.9 2850.6 2529.9 2855.6 2548.9 2855.6 2548.9 2850.6"/><path d="M 3041 2905.8 3022 2905.8 3022 2910.8 3041 2910.8 3041 2905.8"/><path d="M 2548.9 2876.6 2529.9 2876.6 2529.9 2881.6 2548.9 2881.6 2548.9 2876.6"/><path d="M 3161.7 3095.5 3130.7 3095.5 3130.7 3100.5 3161.7 3100.5 3161.7 3095.5"/><path d="M 3161.7 3081.5 3130.7 3081.5 3130.7 3086.5 3161.7 3086.5 3161.7 3081.5"/><path d="M 2491.1 3110.5 2486.1 3110.5 2486.1 3141.5 2491.1 3141.5 2491.1 3110.5"/><path d="M 3064.7 3126.1 3037.7 3126.1 3037.7 3131.1 3064.7 3131.1 3064.7 3126.1"/><path d="M 2505.1 3110.5 2500.1 3110.5 2500.1 3141.5 2505.1 3141.5 2505.1 3110.5"/><path d="M 2505.1 3051.4 2500.1 3051.4 2500.1 3082.4 2505.1 3082.4 2505.1 3051.4"/><path d="M 2491.1 3051.4 2486.1 3051.4 2486.1 3082.4 2491.1 3082.4 2491.1 3051.4"/><path d="M 3055.7 3064.1 3046.7 3064.1 3046.7 3109.1 3055.7 3109.1 3055.7 3064.1"/><path d="M 3064.7 3089.1 3080.7 3089.1 3080.7 3084.1 3064.7 3084.1 3064.7 3077.1 3064.7 3077.1 3060.2 3077.1 3060.2 3096.1 3060.2 3096.1 3064.7 3096.1 3064.7 3089.1"/><path d="M 3042.2 3077.1 3042.2 3077.1 3037.7 3077.1 3037.7 3084.1 3021.7 3084.1 3021.7 3089.1 3037.7 3089.1 3037.7 3096.1 3037.7 3096.1 3042.2 3096.1 3042.2 3077.1"/><path d="M 2599 3093.3 2589 3103.3 2569.1 3103.3 2559.1 3093.3 2559.1 3053.3 2569.1 3043.3 2589 3043.3 2599 3053.3 M 2619 3043.3 2639 3043.3 2629 3043.3 2629 3103.3 2619 3093.3 M 2595.1 3164.2 2585.1 3174.2 2565.1 3174.2 2555.1 3164.2 2555.1 3124.2 2565.1 3114.2 2585.1 3114.2 2595.1 3124.2 M 2655.1 3114.2 2615.1 3114.2 2655.1 3154.2 2655.1 3164.2 2645.1 3174.2 2625.1 3174.2 2615.1 3164.2 M 2748 3036.4 2748 2986.4 2758 2976.4 2778 2976.4 2788 2986.4 2788 3036.4 M 2808 2976.4 2828 2976.4 2818 2976.4 2818 3036.4 2808 3026.4 M 2181.1 2994.1 2181.1 3054.1 2211.1 3054.1 2221.1 3044.1 2221.1 3024.1 2211.1 3014.1 2181.1 3014.1 M 2241.1 2994.1 2261.1 2994.1 2251.1 2994.1 2251.1 3054.1 2241.1 3044.1" fill="none" stroke-width="10"/><path d="M 2935 3000 A 11.8 11.8 0 0 1 2911.4 3000 11.8 11.8 0 0 1 2935 3000" fill="none" stroke-width="23.6"/><path d="M 2965.6 3096.5 A 4.9 4.9 0 0 1 2955.8 3096.5 4.9 4.9 0 0 1 2965.6 3096.5" fill="none" stroke-width="9.8"/><path d="M 2534.4 2921.7 2548.4 2921.7 M 2534.4 2928.7 2548.4 2928.7 M 2534.4 2909.7 2534.4 2921.7 M 2534.4 2928.7 2534.4 2940.7 M 2529.4 2909.7 2534.4 2909.7 M 2529.4 2909.7 2529.4 2940.7 2534.4 2940.7 M 2548.4 2921.7 2548.4 2928.7 M 2529.9 2876.6 2529.9 2881.6 M 2529.9 2876.6 2548.9 2876.6 2548.9 2881.6 M 2529.9 2881.6 2548.9 2881.6 M 2529.9 2850.6 2548.9 2850.6 M 2529.9 2850.6 2529.9 2855.6 2548.9 2855.6 2548.9 2850.6 M 2548.4 2791.6 2548.4 2822.6 M 2543.4 2791.6 2543.4 2822.6 M 2543.4 2791.6 2548.4 2791.6 M 2529.4 2791.6 2534.4 2791.6 2534.4 2822.6 M 2529.4 2791.6 2529.4 2822.6 M 2543.4 2822.6 2548.4 2822.6 M 2529.4 2822.6 2534.4 2822.6 M 3130.7 3100.5 3161.7 3100.5 M 3130.7 3095.5 3161.7 3095.5 3161.7 3100.5 M 3161.7 3081.5 3161.7 3086.5 M 3130.7 3086.5 3161.7 3086.5 M 3130.7 3081.5 3161.7 3081.5 M 3130.7 3095.5 3130.7 3100.5 M 3130.7 3081.5 3130.7 3086.5 M 3022 2931.8 3022 2936.8 M 3022 2931.8 3041 2931.8 3041 2936.8 M 3022 2936.8 3041 2936.8 M 3022 2905.8 3041 2905.8 M 3022 2905.8 3022 2910.8 3041 2910.8 3041 2905.8 M 3042.2 2988.9 3042.2 3019.9 M 3047.2 2988.9 3047.2 3019.9 M 3042.2 3019.9 3047.2 3019.9 M 3056.2 3019.9 3061.2 3019.9 M 3056.2 2988.9 3056.2 3019.9 M 3061.2 2988.9 3061.2 3019.9 M 3042.2 2988.9 3047.2 2988.9 M 3056.2 2988.9 3061.2 2988.9 M 3037.7 3126.1 3064.7 3126.1 M 3037.7 3131.1 3064.7 3131.1 M 3037.7 3126.1 3037.7 3131.1 M 3064.7 3126.1 3064.7 3131.1 M 3037.7 3042.1 3037.7 3047.1 M 3064.7 3042.1 3064.7 3047.1 M 3021.7 3084.1 3021.7 3089.1 M 3021.7 3084.1 3037.7 3084.1 M 3042.2 3077.1 3042.2 3096.1 M 3021.7 3089.1 3037.7 3089.1 3037.7 3096.1 M 3064.7 3077.1 3064.7 3084.1 M 3046.7 3064.1 3046.7 3109.1 M 3037.7 3042.1 3064.7 3042.1 M 3037.7 3047.1 3064.7 3047.1 M 3064.7 3084.1 3080.7 3084.1 M 3060.2 3077.1 3060.2 3096.1 M 3064.7 3089.1 3080.7 3089.1 M 3080.7 3084.1 3080.7 3089.1 M 3064.7 3089.1 3064.7 3096.1 M 3046.7 3109.1 3055.7 3109.1 M 3055.7 3064.1 3055.7 3109.1 M 3046.7 3064.1 3055.7 3064.1 M 3037.7 3077.1 3037.7 3084.1 M 3037.7 3077.1 3042.2 3077.1 M 3037.7 3096.1 3042.2 3096.1 M 3060.2 3096.1 3064.7 3096.1 M 3060.2 3077.1 3064.7 3077.1 M 2486.1 3051.4 2486.1 3082.4 M 2491.1 3051.4 2491.1 3082.4 M 2486.1 3082.4 2491.1 3082.4 M 2500.1 3082.4 2505.1 3082.4 M 2500.1 3051.4 2500.1 3082.4 M 2505.1 3051.4 2505.1 3082.4 M 2486.1 3051.4 2491.1 3051.4 M 2500.1 3051.4 2505.1 3051.4 M 2486.1 3110.5 2486.1 3141.5 M 2491.1 3110.5 2491.1 3141.5 M 2486.1 3141.5 2491.1 3141.5 M 2500.1 3141.5 2505.1 3141.5 M 2500.1 3110.5 2500.1 3141.5 M 2505.1 3110.5 2505.1 3141.5 M 2486.1 3110.5 2491.1 3110.5 M 2500.1 3110.5 2505.1 3110.5" fill="none" stroke-width="1"/><path d="M 2419.3 3182.3 2419.3 3271.7 M 3219.3 3182.3 3219.3 3271.7 M 2419.3 3182.3 3219.3 3182.3 M 2667.3 2881.9 2667.3 3039.4 M 2962.6 2881.9 2962.6 3039.4 M 2667.3 2881.9 2962.6 2881.9 M 2667.3 3039.4 2962.6 3039.4" fill="none" stroke-width="7.9"/></g><g id="pcb-stackup_top_sm"><use xlink:href="#rwF8M.qSzKI0_pad-29" x="2506.9" y="2925.2"/><use xlink:href="#rwF8M.qSzKI0_pad-29" x="2570.9" y="2925.2"/><use xlink:href="#rwF8M.qSzKI0_pad-29" x="2571.4" y="2866.1"/><use xlink:href="#rwF8M.qSzKI0_pad-29" x="2507.4" y="2866.1"/><use xlink:href="#rwF8M.qSzKI0_pad-29" x="2570.9" y="2807.1"/><use xlink:href="#rwF8M.qSzKI0_pad-29" x="2506.9" y="2807.1"/><use xlink:href="#rwF8M.qSzKI0_pad-29" x="3063.5" y="2921.3"/><use xlink:href="#rwF8M.qSzKI0_pad-29" x="2999.5" y="2921.3"/><use xlink:href="#rwF8M.qSzKI0_pad-29" x="3019.7" y="3004.4"/><use xlink:href="#rwF8M.qSzKI0_pad-29" x="3083.7" y="3004.4"/><use xlink:href="#rwF8M.qSzKI0_pad-29" x="2463.6" y="3066.9"/><use xlink:href="#rwF8M.qSzKI0_pad-29" x="2527.6" y="3066.9"/><use xlink:href="#rwF8M.qSzKI0_pad-29" x="2463.6" y="3126"/><use xlink:href="#rwF8M.qSzKI0_pad-29" x="2527.6" y="3126"/><use xlink:href="#rwF8M.qSzKI0_pad-30" x="3146.2" y="3123"/><use xlink:href="#rwF8M.qSzKI0_pad-30" x="3146.2" y="3059"/><use xlink:href="#rwF8M.qSzKI0_pad-31" x="3012.2" y="3058.6"/><use xlink:href="#rwF8M.qSzKI0_pad-31" x="3090.2" y="3058.6"/><use xlink:href="#rwF8M.qSzKI0_pad-31" x="3012.2" y="3114.6"/><use xlink:href="#rwF8M.qSzKI0_pad-31" x="3090.2" y="3114.6"/><use xlink:href="#rwF8M.qSzKI0_pad-32" x="2699.8" y="2824.8"/><use xlink:href="#rwF8M.qSzKI0_pad-32" x="2725.4" y="2824.8"/><use xlink:href="#rwF8M.qSzKI0_pad-32" x="2751" y="2824.8"/><use xlink:href="#rwF8M.qSzKI0_pad-32" x="2776.6" y="2824.8"/><use xlink:href="#rwF8M.qSzKI0_pad-32" x="2802.2" y="2824.8"/><use xlink:href="#rwF8M.qSzKI0_pad-32" x="2827.8" y="2824.8"/><use xlink:href="#rwF8M.qSzKI0_pad-32" x="2853.3" y="2824.8"/><use xlink:href="#rwF8M.qSzKI0_pad-32" x="2878.9" y="2824.8"/><use xlink:href="#rwF8M.qSzKI0_pad-32" x="2904.5" y="2824.8"/><use xlink:href="#rwF8M.qSzKI0_pad-32" x="2930.1" y="2824.8"/><use xlink:href="#rwF8M.qSzKI0_pad-32" x="2699.8" y="3096.5"/><use xlink:href="#rwF8M.qSzKI0_pad-32" x="2725.4" y="3096.5"/><use xlink:href="#rwF8M.qSzKI0_pad-32" x="2751" y="3096.5"/><use xlink:href="#rwF8M.qSzKI0_pad-32" x="2776.6" y="3096.5"/><use xlink:href="#rwF8M.qSzKI0_pad-32" x="2802.2" y="3096.5"/><use xlink:href="#rwF8M.qSzKI0_pad-32" x="2827.8" y="3096.5"/><use xlink:href="#rwF8M.qSzKI0_pad-32" x="2853.3" y="3096.5"/><use xlink:href="#rwF8M.qSzKI0_pad-32" x="2878.9" y="3096.5"/><use xlink:href="#rwF8M.qSzKI0_pad-32" x="2904.5" y="3096.5"/><use xlink:href="#rwF8M.qSzKI0_pad-32" x="2930.1" y="3096.5"/><use xlink:href="#rwF8M.qSzKI0_pad-33" x="2362.2" y="2883.9"/><use xlink:href="#rwF8M.qSzKI0_pad-33" x="2362.2" y="2982.3"/><use xlink:href="#rwF8M.qSzKI0_pad-33" x="2362.2" y="3061"/><use xlink:href="#rwF8M.qSzKI0_pad-33" x="2362.2" y="3159.4"/><use xlink:href="#rwF8M.qSzKI0_pad-34" x="3440.9" y="2820.5"/><use xlink:href="#rwF8M.qSzKI0_pad-34" x="3440.9" y="2920.5"/><use xlink:href="#rwF8M.qSzKI0_pad-34" x="3440.9" y="3020.5"/><use xlink:href="#rwF8M.qSzKI0_pad-34" x="3440.9" y="3120.5"/><use xlink:href="#rwF8M.qSzKI0_pad-34" x="3069.3" y="3236.2"/><use xlink:href="#rwF8M.qSzKI0_pad-34" x="2969.3" y="3236.2"/><use xlink:href="#rwF8M.qSzKI0_pad-34" x="2869.3" y="3236.2"/><use xlink:href="#rwF8M.qSzKI0_pad-34" x="2769.3" y="3236.2"/><use xlink:href="#rwF8M.qSzKI0_pad-34" x="2669.3" y="3236.2"/><use xlink:href="#rwF8M.qSzKI0_pad-34" x="2569.3" y="3236.2"/><use xlink:href="#rwF8M.qSzKI0_pad-34" x="2469.3" y="3236.2"/><use xlink:href="#rwF8M.qSzKI0_pad-35" x="3440.9" y="3220.5"/><use xlink:href="#rwF8M.qSzKI0_pad-36" x="3169.3" y="3236.2"/><use xlink:href="#rwF8M.qSzKI0_pad-37" x="2259.8" y="2933.1"/><use xlink:href="#rwF8M.qSzKI0_pad-37" x="2259.8" y="3110.2"/><use xlink:href="#rwF8M.qSzKI0_pad-38" x="2259.8" y="2797.2"/><use xlink:href="#rwF8M.qSzKI0_pad-38" x="2259.8" y="3246.1"/><use xlink:href="#rwF8M.qSzKI0_pad-39" x="2307.1" y="3246.1"/><use xlink:href="#rwF8M.qSzKI0_pad-39" x="2212.6" y="3246.1"/><use xlink:href="#rwF8M.qSzKI0_pad-39" x="2259.8" y="3246.1"/><use xlink:href="#rwF8M.qSzKI0_pad-39" x="2259.8" y="2795.3"/><use xlink:href="#rwF8M.qSzKI0_pad-39" x="2212.6" y="2795.3"/><use xlink:href="#rwF8M.qSzKI0_pad-39" x="2307.1" y="2795.3"/><use xlink:href="#rwF8M.qSzKI0_pad-40" x="2539.4" y="2996.1"/><use xlink:href="#rwF8M.qSzKI0_pad-40" x="2834.6" y="2948.8"/><use xlink:href="#rwF8M.qSzKI0_pad-40" x="3126" y="2925.2"/><use xlink:href="#rwF8M.qSzKI0_pad-40" x="2641.7" y="2834.6"/><use xlink:href="#rwF8M.qSzKI0_pad-40" x="2460.6" y="2996.1"/><use xlink:href="#rwF8M.qSzKI0_pad-40" x="2385.8" y="2826.8"/><use xlink:href="#rwF8M.qSzKI0_pad-40" x="2385.8" y="3200.8"/><use xlink:href="#rwF8M.qSzKI0_pad-40" x="2200.8" y="2929.1"/><use xlink:href="#rwF8M.qSzKI0_pad-40" x="2200.8" y="3118.1"/><use xlink:href="#rwF8M.qSzKI0_pad-40" x="2661.4" y="3011.8"/><use xlink:href="#rwF8M.qSzKI0_pad-40" x="2905.5" y="2948.8"/><use xlink:href="#rwF8M.qSzKI0_pad-40" x="2689" y="2948.8"/><use xlink:href="#rwF8M.qSzKI0_pad-40" x="2763.8" y="2948.8"/><use xlink:href="#rwF8M.qSzKI0_pad-40" x="2988.2" y="2818.9"/><use xlink:href="#rwF8M.qSzKI0_pad-40" x="3102.4" y="2807.1"/><use xlink:href="#rwF8M.qSzKI0_pad-40" x="3185" y="2807.1"/><use xlink:href="#rwF8M.qSzKI0_pad-40" x="3137.8" y="3007.9"/><use xlink:href="#rwF8M.qSzKI0_pad-40" x="3253.9" y="3228.3"/><use xlink:href="#rwF8M.qSzKI0_pad-40" x="3253.9" y="2815"/></g><g id="pcb-stackup_top_drl1"><use xlink:href="#_PWV9Rvyry.w_pad-1" x="3185" y="2807.1"/><use xlink:href="#_PWV9Rvyry.w_pad-1" x="3126" y="2925.2"/><use xlink:href="#_PWV9Rvyry.w_pad-1" x="3137.8" y="3007.9"/><use xlink:href="#_PWV9Rvyry.w_pad-1" x="3102.4" y="2807.1"/><use xlink:href="#_PWV9Rvyry.w_pad-1" x="2988.2" y="2818.9"/><use xlink:href="#_PWV9Rvyry.w_pad-1" x="2905.5" y="2948.8"/><use xlink:href="#_PWV9Rvyry.w_pad-1" x="2834.6" y="2948.8"/><use xlink:href="#_PWV9Rvyry.w_pad-1" x="2763.8" y="2948.8"/><use xlink:href="#_PWV9Rvyry.w_pad-1" x="2689" y="2948.8"/><use xlink:href="#_PWV9Rvyry.w_pad-1" x="2661.4" y="3011.8"/><use xlink:href="#_PWV9Rvyry.w_pad-1" x="2539.4" y="2996.1"/><use xlink:href="#_PWV9Rvyry.w_pad-1" x="2460.6" y="2996.1"/><use xlink:href="#_PWV9Rvyry.w_pad-1" x="2385.8" y="2826.8"/><use xlink:href="#_PWV9Rvyry.w_pad-1" x="2641.7" y="2834.6"/><use xlink:href="#_PWV9Rvyry.w_pad-1" x="2200.8" y="2929.1"/><use xlink:href="#_PWV9Rvyry.w_pad-1" x="2200.8" y="3118.1"/><use xlink:href="#_PWV9Rvyry.w_pad-1" x="2385.8" y="3200.8"/><use xlink:href="#_PWV9Rvyry.w_pad-2" x="3440.9" y="2820.5"/><use xlink:href="#_PWV9Rvyry.w_pad-2" x="3440.9" y="2920.5"/><use xlink:href="#_PWV9Rvyry.w_pad-2" x="3440.9" y="3020.5"/><use xlink:href="#_PWV9Rvyry.w_pad-2" x="3440.9" y="3120.5"/><use xlink:href="#_PWV9Rvyry.w_pad-2" x="3069.3" y="3236.2"/><use xlink:href="#_PWV9Rvyry.w_pad-2" x="2969.3" y="3236.2"/><use xlink:href="#_PWV9Rvyry.w_pad-2" x="2869.3" y="3236.2"/><use xlink:href="#_PWV9Rvyry.w_pad-2" x="2769.3" y="3236.2"/><use xlink:href="#_PWV9Rvyry.w_pad-2" x="2669.3" y="3236.2"/><use xlink:href="#_PWV9Rvyry.w_pad-2" x="2569.3" y="3236.2"/><use xlink:href="#_PWV9Rvyry.w_pad-2" x="2469.3" y="3236.2"/><use xlink:href="#_PWV9Rvyry.w_pad-2" x="3169.3" y="3236.2"/><use xlink:href="#_PWV9Rvyry.w_pad-2" x="3440.9" y="3220.5"/><use xlink:href="#_PWV9Rvyry.w_pad-3" x="3253.9" y="2815"/><use xlink:href="#_PWV9Rvyry.w_pad-3" x="3253.9" y="3228.3"/><use xlink:href="#_PWV9Rvyry.w_pad-4" x="2212.6" y="2795.3"/><use xlink:href="#_PWV9Rvyry.w_pad-4" x="2259.8" y="2795.3"/><use xlink:href="#_PWV9Rvyry.w_pad-4" x="2307.1" y="2795.3"/><use xlink:href="#_PWV9Rvyry.w_pad-4" x="2307.1" y="3246.1"/><use xlink:href="#_PWV9Rvyry.w_pad-4" x="2259.8" y="3246.1"/><use xlink:href="#_PWV9Rvyry.w_pad-4" x="2212.6" y="3246.1"/><use xlink:href="#_PWV9Rvyry.w_pad-5" x="2259.8" y="2933.1"/><use xlink:href="#_PWV9Rvyry.w_pad-5" x="2259.8" y="3110.2"/></g><clipPath id="pcb-stackup_top_out"><path d="M 3372 2956.7 A 15.7 15.7 0 0 1 3356.3 2972.4 L 3220.5 2972.4 A 15.7 15.7 0 0 1 3204.7 2956.7 L 3204.7 2879.9 A 15.7 15.7 0 0 1 3220.5 2864.2 L 3332.7 2864.2 3332.7 2728.3 2151.6 2728.3 2151.6 3303.1 3332.7 3303.1 3332.7 3179.1 3220.5 3179.1 A 15.7 15.7 0 0 1 3204.7 3163.4 L 3204.7 3086.6 A 15.7 15.7 0 0 1 3220.5 3070.9 L 3356.3 3070.9 A 15.7 15.7 0 0 1 3372 3086.6 L 3372 3267.7 3488.2 3267.7 3488.2 2775.6 3372 2775.6 3372 2956.7" fill="none" stroke-width="5.9"/></clipPath><mask id="pcb-stackup_top_mech-mask"><g fill="#000" stroke="#000"><rect x="2151.6" y="2728.3" width="1336.6" height="574.8" fill="#fff"/><use xlink:href="#pcb-stackup_top_drl1"/></g></mask><mask id="pcb-stackup_top_cf-mask"><g fill="#fff" stroke="#fff"><use xlink:href="#pcb-stackup_top_sm"/></g></mask><mask id="pcb-stackup_top_sm-mask"><g fill="#000" stroke="#000"><rect x="2151.6" y="2728.3" width="1336.6" height="574.8" fill="#fff"/><use xlink:href="#pcb-stackup_top_sm"/></g></mask></defs><g transform="translate(0,6031.400000000001) scale(1,-1)"><g mask="url(#pcb-stackup_top_mech-mask)" clip-path="url(#pcb-stackup_top_out)"><rect x="2151.6" y="2728.3" width="1336.6" height="574.8" fill="currentColor" class="pcb-stackup_fr4"/><use xlink:href="#pcb-stackup_top_cu" fill="currentColor" stroke="currentColor" class="pcb-stackup_cu"/><use xlink:href="#pcb-stackup_top_cu" fill="currentColor" stroke="currentColor" class="pcb-stackup_cf" mask="url(#pcb-stackup_top_cf-mask)"/><g mask="url(#pcb-stackup_top_sm-mask)"><rect x="2151.6" y="2728.3" width="1336.6" height="574.8" fill="currentColor" class="pcb-stackup_sm"/><use xlink:href="#pcb-stackup_top_ss" fill="currentColor" stroke="currentColor" class="pcb-stackup_ss"/></g></g></g></svg>