<svg id="pcb-stackup_bottom" version="1.1" xmlns:xlink="http://www.w3.org/1999/xlink" stroke-linecap="round" stroke-linejoin="round" stroke-width="0" fill-rule="evenodd" clip-rule="evenodd" viewBox="312.1 115 1100 1050" width="1.1in" height="1.05in" xmlns="http://www.w3.org/2000/svg"><defs><style>.pcb-stackup_fr4 {color: #4D542C;}
.pcb-stackup_cu {color: lightgrey;}
.pcb-stackup_cf {color: goldenrod;}
.pcb-stackup_sm {color: #2E0051; opacity: 0.9;}
.pcb-stackup_ss {color: white;}
.pcb-stackup_sp {color: #000000; opacity: 0;}
.pcb-stackup_out {color: black;}</style><rect x="-79.9" y="-29.9" width="159.8" height="59.8" id="ZfKINCBTM-Jn_pad-10"/><circle cx="0" cy="0" r="9" id="ZfKINCBTM-Jn_pad-12"/><rect x="-79.9" y="-29.9" width="159.8" height="59.8" id="ZfKINCBTM-Jn_pad-10"/><circle cx="0" cy="0" r="9" id="ZfKINCBTM-Jn_pad-12"/><rect x="-79.9" y="-29.9" width="159.8" height="59.8" id="ZfKINCBTM-Jn_pad-10"/><circle cx="0" cy="0" r="9" id="ZfKINCBTM-Jn_pad-12"/><rect x="-79.9" y="-29.9" width="159.8" height="59.8" id="ZfKINCBTM-Jn_pad-10"/><circle cx="0" cy="0" r="9" id="ZfKINCBTM-Jn_pad-12"/><rect x="-83.9" y="-33.9" width="167.8" height="67.8" id="Adn9MDFZSRDs_pad-10"/><rect x="-79.9" y="-29.9" width="159.8" height="59.8" id="ZfKINCBTM-Jn_pad-10"/><circle cx="0" cy="0" r="9" id="ZfKINCBTM-Jn_pad-12"/><rect x="-79.9" y="-29.9" width="159.8" height="59.8" id="ZfKINCBTM-Jn_pad-10"/><circle cx="0" cy="0" r="9" id="ZfKINCBTM-Jn_pad-12"/><rect x="-79.9" y="-29.9" width="159.8" height="59.8" id="ZfKINCBTM-Jn_pad-10"/><circle cx="0" cy="0" r="9" id="ZfKINCBTM-Jn_pad-12"/><rect x="-79.9" y="-29.9" width="159.8" height="59.8" id="ZfKINCBTM-Jn_pad-10"/><circle cx="0" cy="0" r="9" id="ZfKINCBTM-Jn_pad-12"/><rect x="-83.9" y="-33.9" width="167.8" height="67.8" id="Adn9MDFZSRDs_pad-10"/><circle cx="0" cy="0" r="5" id="a9ekv3fSe.o9_pad-1"/><rect x="-79.9" y="-29.9" width="159.8" height="59.8" id="ZfKINCBTM-Jn_pad-10"/><circle cx="0" cy="0" r="9" id="ZfKINCBTM-Jn_pad-12"/><rect x="-79.9" y="-29.9" width="159.8" height="59.8" id="ZfKINCBTM-Jn_pad-10"/><circle cx="0" cy="0" r="9" id="ZfKINCBTM-Jn_pad-12"/><rect x="-79.9" y="-29.9" width="159.8" height="59.8" id="ZfKINCBTM-Jn_pad-10"/><circle cx="0" cy="0" r="9" id="ZfKINCBTM-Jn_pad-12"/><rect x="-79.9" y="-29.9" width="159.8" height="59.8" id="ZfKINCBTM-Jn_pad-10"/><circle cx="0" cy="0" r="9" id="ZfKINCBTM-Jn_pad-12"/><rect x="-83.9" y="-33.9" width="167.8" height="67.8" id="Adn9MDFZSRDs_pad-10"/><rect x="-79.9" y="-29.9" width="159.8" height="59.8" id="ZfKINCBTM-Jn_pad-10"/><circle cx="0" cy="0" r="9" id="ZfKINCBTM-Jn_pad-12"/><rect x="-79.9" y="-29.9" width="159.8" height="59.8" id="ZfKINCBTM-Jn_pad-10"/><circle cx="0" cy="0" r="9" id="ZfKINCBTM-Jn_pad-12"/><rect x="-79.9" y="-29.9" width="159.8" height="59.8" id="ZfKINCBTM-Jn_pad-10"/><circle cx="0" cy="0" r="9" id="ZfKINCBTM-Jn_pad-12"/><rect x="-79.9" y="-29.9" width="159.8" height="59.8" id="ZfKINCBTM-Jn_pad-10"/><circle cx="0" cy="0" r="9" id="ZfKINCBTM-Jn_pad-12"/><rect x="-83.9" y="-33.9" width="167.8" height="67.8" id="Adn9MDFZSRDs_pad-10"/><circle cx="0" cy="0" r="5" id="a9ekv3fSe.o9_pad-1"/><g id="pcb-stackup_bottom_cu"><use xlink:href="#ZfKINCBTM-Jn_pad-10" x="407" y="588.5"/><use xlink:href="#ZfKINCBTM-Jn_pad-10" x="407" y="781.5"/><use xlink:href="#ZfKINCBTM-Jn_pad-10" x="1317.2" y="781.5"/><use xlink:href="#ZfKINCBTM-Jn_pad-10" x="1317.2" y="588.5"/><path d="M 332.1 543.6 332.1 135 1392.1 135 1392.1 543.6 1322.2 543.6 1322.2 583.5 1312.2 583.5 1312.2 543.6 1235.3 543.6 1231.5 544.6 1228.1 546.6 1225.3 549.4 1223.3 552.8 1222.3 556.6 1222.3 583.5 1312.2 583.5 1312.2 593.5 1222.3 593.5 1222.3 620.4 1223.3 624.3 1225.3 627.7 1228.1 630.5 1231.5 632.4 1235.3 633.5 1312.2 633.5 1312.2 593.5 1322.2 593.5 1322.2 633.5 1392.1 633.5 1392.1 736.5 1322.2 736.5 1322.2 776.5 1312.2 776.5 1222.3 776.5 1222.3 749.6 1223.3 745.7 1225.3 742.3 1228.1 739.5 1231.5 737.6 1235.3 736.5 1312.2 736.5 1312.2 776.5 1312.2 786.5 1312.2 826.4 1235.3 826.4 1231.5 825.4 1228.1 823.4 1225.3 820.6 1223.3 817.2 1222.3 813.4 1222.3 786.5 1312.2 786.5 1322.2 786.5 1322.2 826.4 1392.1 826.4 1392.1 1145 332.1 1145 332.1 826.4 402 826.4 402 786.5 412 786.5 412 826.4 488.9 826.4 492.7 825.4 496.1 823.4 498.9 820.6 500.9 817.2 501.9 813.4 501.9 786.5 412 786.5 412 776.5 501.9 776.5 501.9 749.6 500.9 745.7 498.9 742.3 496.1 739.5 492.7 737.6 488.9 736.5 412 736.5 412 776.5 402 776.5 402 736.5 332.1 736.5 332.1 633.5 402 633.5 402 593.5 412 593.5 501.9 593.5 501.9 620.4 500.9 624.3 498.9 627.7 496.1 630.5 492.7 632.4 488.9 633.5 412 633.5 412 593.5 412 583.5 412 543.6 488.9 543.6 492.7 544.6 496.1 546.6 498.9 549.4 500.9 552.8 501.9 556.6 501.9 583.5 412 583.5 402 583.5 402 543.6 332.1 543.6 M 332.1 538.6 1392.1 538.6 M 1392.1 528.7 332.1 528.7 M 332.1 518.9 1392.1 518.9 M 1392.1 509 332.1 509 M 332.1 499.2 1392.1 499.2 M 1392.1 489.3 332.1 489.3 M 332.1 479.5 1392.1 479.5 M 1392.1 469.6 332.1 469.6 M 332.1 459.8 1392.1 459.8 M 1392.1 449.9 332.1 449.9 M 332.1 440.1 1392.1 440.1 M 1392.1 430.2 332.1 430.2 M 332.1 420.4 1392.1 420.4 M 1392.1 410.5 332.1 410.5 M 332.1 400.7 1392.1 400.7 M 1392.1 390.8 332.1 390.8 M 332.1 381 1392.1 381 M 1392.1 371.1 332.1 371.1 M 332.1 361.3 1392.1 361.3 M 1392.1 351.4 332.1 351.4 M 332.1 341.6 1392.1 341.6 M 1392.1 331.7 332.1 331.7 M 332.1 321.9 1392.1 321.9 M 1392.1 312 332.1 312 M 332.1 302.2 1392.1 302.2 M 1392.1 292.3 332.1 292.3 M 332.1 282.5 1392.1 282.5 M 1392.1 272.6 332.1 272.6 M 332.1 262.8 1392.1 262.8 M 1392.1 252.9 332.1 252.9 M 332.1 243.1 1392.1 243.1 M 1392.1 233.2 332.1 233.2 M 332.1 223.4 1392.1 223.4 M 1392.1 213.5 332.1 213.5 M 332.1 203.7 1392.1 203.7 M 1392.1 193.8 332.1 193.8 M 332.1 184 1392.1 184 M 1392.1 174.1 332.1 174.1 M 332.1 164.3 1392.1 164.3 M 1392.1 154.4 332.1 154.4 M 332.1 144.6 1392.1 144.6 M 1322.2 548.4 1312.2 548.4 M 1312.2 558.3 1322.2 558.3 M 1322.2 568.1 1312.2 568.1 M 1312.2 578 1322.2 578 M 1312.2 587.8 412 587.8 M 412 578 402 578 M 402 568.1 412 568.1 M 412 558.3 402 558.3 M 402 548.4 412 548.4 M 412 597.7 402 597.7 M 402 607.5 412 607.5 M 412 617.4 402 617.4 M 402 627.2 412 627.2 M 332.1 637.1 1392.1 637.1 M 1392.1 646.9 332.1 646.9 M 332.1 656.8 1392.1 656.8 M 1392.1 666.6 332.1 666.6 M 332.1 676.5 1392.1 676.5 M 1392.1 686.3 332.1 686.3 M 332.1 696.2 1392.1 696.2 M 1392.1 706 332.1 706 M 332.1 715.9 1392.1 715.9 M 1392.1 725.7 332.1 725.7 M 332.1 735.6 1392.1 735.6 M 1322.2 745.4 1312.2 745.4 M 1312.2 755.3 1322.2 755.3 M 1322.2 765.1 1312.2 765.1 M 1312.2 775 1322.2 775 M 1312.2 784.8 686.1 784.8 M 686.1 777.1 686.1 792.9 675 804 659.2 804 648.1 792.9 648.1 777.1 652.7 772.5 648.1 767.9 648.1 752.1 659.2 741 675 741 686.1 752.1 686.1 767.9 681.5 772.5 686.1 777.1 M 683.9 775 1222.3 775 M 1222.3 765.1 686.1 765.1 M 686.1 755.3 1222.3 755.3 M 1223.5 745.4 679.4 745.4 M 654.8 745.4 500.7 745.4 M 501.9 755.3 648.1 755.3 M 648.1 765.1 501.9 765.1 M 501.9 775 650.3 775 M 648.1 784.8 412 784.8 M 412 775 402 775 M 402 765.1 412 765.1 M 412 755.3 402 755.3 M 402 745.4 412 745.4 M 412 794.7 402 794.7 M 402 804.5 412 804.5 M 412 814.4 402 814.4 M 402 824.2 412 824.2 M 332.1 834.1 1392.1 834.1 M 1392.1 843.9 332.1 843.9 M 332.1 853.8 1392.1 853.8 M 1392.1 863.6 332.1 863.6 M 332.1 873.5 1392.1 873.5 M 1392.1 883.3 332.1 883.3 M 332.1 893.2 1392.1 893.2 M 1392.1 903 332.1 903 M 332.1 912.9 1392.1 912.9 M 1392.1 922.7 946.7 922.7 M 951.1 927.1 940 916 924.2 916 914.6 925.6 905 916 889.2 916 878.1 927.1 878.1 942.9 889.2 954 905 954 914.6 944.4 924.2 954 940 954 951.1 942.9 951.1 927.1 M 951.1 932.6 1392.1 932.6 M 1392.1 942.4 951.1 942.4 M 941.7 952.3 1392.1 952.3 M 1392.1 962.1 332.1 962.1 M 332.1 952.3 887.5 952.3 M 878.1 942.4 332.1 942.4 M 332.1 932.6 878.1 932.6 M 882.5 922.7 332.1 922.7 M 332.1 972 1392.1 972 M 1392.1 981.8 332.1 981.8 M 332.1 991.7 1392.1 991.7 M 1392.1 1001.5 332.1 1001.5 M 332.1 1011.4 1392.1 1011.4 M 1392.1 1021.2 332.1 1021.2 M 332.1 1031.1 1392.1 1031.1 M 1392.1 1040.9 332.1 1040.9 M 332.1 1050.8 1392.1 1050.8 M 1392.1 1060.6 332.1 1060.6 M 332.1 1070.5 1392.1 1070.5 M 1392.1 1080.3 332.1 1080.3 M 332.1 1090.2 1392.1 1090.2 M 1392.1 1100 332.1 1100 M 332.1 1109.9 1392.1 1109.9 M 1392.1 1119.7 332.1 1119.7 M 332.1 1129.6 1392.1 1129.6 M 1392.1 1139.4 332.1 1139.4 M 494.7 824.2 1229.5 824.2 M 1222.6 814.4 501.6 814.4 M 501.9 804.5 1222.3 804.5 M 1222.3 794.7 684.3 794.7 M 649.9 794.7 501.9 794.7 M 499.2 627.2 1225 627.2 M 1222.3 617.4 501.9 617.4 M 501.9 607.5 1222.3 607.5 M 1222.3 597.7 501.9 597.7 M 501.9 578 1222.3 578 M 1222.3 568.1 501.9 568.1 M 501.9 558.3 1222.3 558.3 M 1226.3 548.4 497.9 548.4 M 911.7 922.7 917.5 922.7 M 922.5 952.3 906.7 952.3 M 1312.2 824.2 1322.2 824.2 M 1322.2 814.4 1312.2 814.4 M 1312.2 804.5 1322.2 804.5 M 1322.2 794.7 1312.2 794.7 M 1312.2 627.2 1322.2 627.2 M 1322.2 617.4 1312.2 617.4 M 1312.2 607.5 1322.2 607.5 M 1322.2 597.7 1312.2 597.7" fill="none" stroke-width="10"/><use xlink:href="#ZfKINCBTM-Jn_pad-12" x="1312.1" y="515"/><use xlink:href="#ZfKINCBTM-Jn_pad-12" x="1362.1" y="515"/><use xlink:href="#ZfKINCBTM-Jn_pad-12" x="1362.1" y="465"/><use xlink:href="#ZfKINCBTM-Jn_pad-12" x="1362.1" y="415"/><use xlink:href="#ZfKINCBTM-Jn_pad-12" x="1362.1" y="365"/><use xlink:href="#ZfKINCBTM-Jn_pad-12" x="1362.1" y="315"/><use xlink:href="#ZfKINCBTM-Jn_pad-12" x="1362.1" y="265"/><use xlink:href="#ZfKINCBTM-Jn_pad-12" x="1362.1" y="215"/><use xlink:href="#ZfKINCBTM-Jn_pad-12" x="1362.1" y="165"/><use xlink:href="#ZfKINCBTM-Jn_pad-12" x="1312.1" y="165"/><use xlink:href="#ZfKINCBTM-Jn_pad-12" x="1262.1" y="165"/><use xlink:href="#ZfKINCBTM-Jn_pad-12" x="1212.1" y="165"/><use xlink:href="#ZfKINCBTM-Jn_pad-12" x="1162.1" y="165"/><use xlink:href="#ZfKINCBTM-Jn_pad-12" x="1112.1" y="165"/><use xlink:href="#ZfKINCBTM-Jn_pad-12" x="1062.1" y="165"/><use xlink:href="#ZfKINCBTM-Jn_pad-12" x="1012.1" y="165"/><use xlink:href="#ZfKINCBTM-Jn_pad-12" x="962.1" y="165"/><use xlink:href="#ZfKINCBTM-Jn_pad-12" x="912.1" y="165"/><use xlink:href="#ZfKINCBTM-Jn_pad-12" x="862.1" y="165"/><use xlink:href="#ZfKINCBTM-Jn_pad-12" x="812.1" y="165"/><use xlink:href="#ZfKINCBTM-Jn_pad-12" x="762.1" y="165"/><use xlink:href="#ZfKINCBTM-Jn_pad-12" x="712.1" y="165"/><use xlink:href="#ZfKINCBTM-Jn_pad-12" x="662.1" y="165"/><use xlink:href="#ZfKINCBTM-Jn_pad-12" x="612.1" y="165"/><use xlink:href="#ZfKINCBTM-Jn_pad-12" x="562.1" y="165"/><use xlink:href="#ZfKINCBTM-Jn_pad-12" x="512.1" y="165"/><use xlink:href="#ZfKINCBTM-Jn_pad-12" x="462.1" y="165"/><use xlink:href="#ZfKINCBTM-Jn_pad-12" x="412.1" y="165"/><use xlink:href="#ZfKINCBTM-Jn_pad-12" x="362.1" y="165"/><use xlink:href="#ZfKINCBTM-Jn_pad-12" x="362.1" y="215"/><use xlink:href="#ZfKINCBTM-Jn_pad-12" x="362.1" y="265"/><use xlink:href="#ZfKINCBTM-Jn_pad-12" x="362.1" y="315"/><use xlink:href="#ZfKINCBTM-Jn_pad-12" x="362.1" y="365"/><use xlink:href="#ZfKINCBTM-Jn_pad-12" x="362.1" y="415"/><use xlink:href="#ZfKINCBTM-Jn_pad-12" x="362.1" y="465"/><use xlink:href="#ZfKINCBTM-Jn_pad-12" x="362.1" y="515"/><use xlink:href="#ZfKINCBTM-Jn_pad-12" x="412.1" y="515"/><use xlink:href="#ZfKINCBTM-Jn_pad-12" x="462.1" y="515"/><use xlink:href="#ZfKINCBTM-Jn_pad-12" x="462.1" y="465"/><use xlink:href="#ZfKINCBTM-Jn_pad-12" x="462.1" y="415"/><use xlink:href="#ZfKINCBTM-Jn_pad-12" x="462.1" y="365"/><use xlink:href="#ZfKINCBTM-Jn_pad-12" x="462.1" y="315"/><use xlink:href="#ZfKINCBTM-Jn_pad-12" x="462.1" y="265"/><use xlink:href="#ZfKINCBTM-Jn_pad-12" x="587.1" y="290"/><use xlink:href="#ZfKINCBTM-Jn_pad-12" x="637.1" y="290"/><use xlink:href="#ZfKINCBTM-Jn_pad-12" x="687.1" y="290"/><use xlink:href="#ZfKINCBTM-Jn_pad-12" x="737.1" y="290"/><use xlink:href="#ZfKINCBTM-Jn_pad-12" x="787.1" y="290"/><use xlink:href="#ZfKINCBTM-Jn_pad-12" x="837.1" y="290"/><use xlink:href="#ZfKINCBTM-Jn_pad-12" x="887.1" y="290"/><use xlink:href="#ZfKINCBTM-Jn_pad-12" x="937.1" y="290"/><use xlink:href="#ZfKINCBTM-Jn_pad-12" x="987.1" y="290"/><use xlink:href="#ZfKINCBTM-Jn_pad-12" x="1037.1" y="290"/><use xlink:href="#ZfKINCBTM-Jn_pad-12" x="1087.1" y="290"/><use xlink:href="#ZfKINCBTM-Jn_pad-12" x="1137.1" y="290"/><use xlink:href="#ZfKINCBTM-Jn_pad-12" x="1137.1" y="340"/><use xlink:href="#ZfKINCBTM-Jn_pad-12" x="1137.1" y="390"/><use xlink:href="#ZfKINCBTM-Jn_pad-12" x="1137.1" y="440"/><use xlink:href="#ZfKINCBTM-Jn_pad-12" x="1137.1" y="490"/><use xlink:href="#ZfKINCBTM-Jn_pad-12" x="1137.1" y="540"/><use xlink:href="#ZfKINCBTM-Jn_pad-12" x="1112.1" y="560"/><use xlink:href="#ZfKINCBTM-Jn_pad-12" x="1137.1" y="590"/><use xlink:href="#ZfKINCBTM-Jn_pad-12" x="1112.1" y="615"/><use xlink:href="#ZfKINCBTM-Jn_pad-12" x="1137.1" y="640"/><use xlink:href="#ZfKINCBTM-Jn_pad-12" x="1182.1" y="660"/><use xlink:href="#ZfKINCBTM-Jn_pad-12" x="1217.1" y="660"/><use xlink:href="#ZfKINCBTM-Jn_pad-12" x="1217.1" y="710"/><use xlink:href="#ZfKINCBTM-Jn_pad-12" x="1182.1" y="710"/><use xlink:href="#ZfKINCBTM-Jn_pad-12" x="1137.1" y="710"/><use xlink:href="#ZfKINCBTM-Jn_pad-12" x="1137.1" y="740"/><use xlink:href="#ZfKINCBTM-Jn_pad-12" x="1102.1" y="695"/><use xlink:href="#ZfKINCBTM-Jn_pad-12" x="1072.1" y="665"/><use xlink:href="#ZfKINCBTM-Jn_pad-12" x="1062.1" y="620"/><use xlink:href="#ZfKINCBTM-Jn_pad-12" x="1062.1" y="560"/><use xlink:href="#ZfKINCBTM-Jn_pad-12" x="942.1" y="605"/><use xlink:href="#ZfKINCBTM-Jn_pad-12" x="792.1" y="605"/><use xlink:href="#ZfKINCBTM-Jn_pad-12" x="677.1" y="605"/><use xlink:href="#ZfKINCBTM-Jn_pad-12" x="667.1" y="640"/><use xlink:href="#ZfKINCBTM-Jn_pad-12" x="652.1" y="675"/><use xlink:href="#ZfKINCBTM-Jn_pad-12" x="622.1" y="700"/><use xlink:href="#ZfKINCBTM-Jn_pad-12" x="582.1" y="710"/><use xlink:href="#ZfKINCBTM-Jn_pad-12" x="587.1" y="740"/><use xlink:href="#ZfKINCBTM-Jn_pad-12" x="542.1" y="710"/><use xlink:href="#ZfKINCBTM-Jn_pad-12" x="502.1" y="710"/><use xlink:href="#ZfKINCBTM-Jn_pad-12" x="502.1" y="660"/><use xlink:href="#ZfKINCBTM-Jn_pad-12" x="542.1" y="660"/><use xlink:href="#ZfKINCBTM-Jn_pad-12" x="587.1" y="640"/><use xlink:href="#ZfKINCBTM-Jn_pad-12" x="612.1" y="615"/><use xlink:href="#ZfKINCBTM-Jn_pad-12" x="587.1" y="590"/><use xlink:href="#ZfKINCBTM-Jn_pad-12" x="622.1" y="585"/><use xlink:href="#ZfKINCBTM-Jn_pad-12" x="642.1" y="560"/><use xlink:href="#ZfKINCBTM-Jn_pad-12" x="677.1" y="545"/><use xlink:href="#ZfKINCBTM-Jn_pad-12" x="587.1" y="540"/><use xlink:href="#ZfKINCBTM-Jn_pad-12" x="587.1" y="490"/><use xlink:href="#ZfKINCBTM-Jn_pad-12" x="587.1" y="440"/><use xlink:href="#ZfKINCBTM-Jn_pad-12" x="587.1" y="390"/><use xlink:href="#ZfKINCBTM-Jn_pad-12" x="587.1" y="340"/><use xlink:href="#ZfKINCBTM-Jn_pad-12" x="667.1" y="760"/><use xlink:href="#ZfKINCBTM-Jn_pad-12" x="667.1" y="785"/><use xlink:href="#ZfKINCBTM-Jn_pad-12" x="687.1" y="840"/><use xlink:href="#ZfKINCBTM-Jn_pad-12" x="637.1" y="840"/><use xlink:href="#ZfKINCBTM-Jn_pad-12" x="587.1" y="840"/><use xlink:href="#ZfKINCBTM-Jn_pad-12" x="587.1" y="790"/><use xlink:href="#ZfKINCBTM-Jn_pad-12" x="462.1" y="865"/><use xlink:href="#ZfKINCBTM-Jn_pad-12" x="412.1" y="865"/><use xlink:href="#ZfKINCBTM-Jn_pad-12" x="362.1" y="865"/><use xlink:href="#ZfKINCBTM-Jn_pad-12" x="362.1" y="915"/><use xlink:href="#ZfKINCBTM-Jn_pad-12" x="362.1" y="965"/><use xlink:href="#ZfKINCBTM-Jn_pad-12" x="362.1" y="1015"/><use xlink:href="#ZfKINCBTM-Jn_pad-12" x="362.1" y="1065"/><use xlink:href="#ZfKINCBTM-Jn_pad-12" x="362.1" y="1115"/><use xlink:href="#ZfKINCBTM-Jn_pad-12" x="412.1" y="1115"/><use xlink:href="#ZfKINCBTM-Jn_pad-12" x="462.1" y="1115"/><use xlink:href="#ZfKINCBTM-Jn_pad-12" x="512.1" y="1115"/><use xlink:href="#ZfKINCBTM-Jn_pad-12" x="562.1" y="1115"/><use xlink:href="#ZfKINCBTM-Jn_pad-12" x="612.1" y="1115"/><use xlink:href="#ZfKINCBTM-Jn_pad-12" x="612.1" y="1065"/><use xlink:href="#ZfKINCBTM-Jn_pad-12" x="612.1" y="1015"/><use xlink:href="#ZfKINCBTM-Jn_pad-12" x="612.1" y="965"/><use xlink:href="#ZfKINCBTM-Jn_pad-12" x="562.1" y="965"/><use xlink:href="#ZfKINCBTM-Jn_pad-12" x="512.1" y="965"/><use xlink:href="#ZfKINCBTM-Jn_pad-12" x="462.1" y="965"/><use xlink:href="#ZfKINCBTM-Jn_pad-12" x="462.1" y="915"/><use xlink:href="#ZfKINCBTM-Jn_pad-12" x="737.1" y="840"/><use xlink:href="#ZfKINCBTM-Jn_pad-12" x="787.1" y="840"/><use xlink:href="#ZfKINCBTM-Jn_pad-12" x="837.1" y="840"/><use xlink:href="#ZfKINCBTM-Jn_pad-12" x="887.1" y="840"/><use xlink:href="#ZfKINCBTM-Jn_pad-12" x="937.1" y="840"/><use xlink:href="#ZfKINCBTM-Jn_pad-12" x="987.1" y="840"/><use xlink:href="#ZfKINCBTM-Jn_pad-12" x="1037.1" y="840"/><use xlink:href="#ZfKINCBTM-Jn_pad-12" x="1087.1" y="840"/><use xlink:href="#ZfKINCBTM-Jn_pad-12" x="1137.1" y="840"/><use xlink:href="#ZfKINCBTM-Jn_pad-12" x="1137.1" y="790"/><use xlink:href="#ZfKINCBTM-Jn_pad-12" x="1262.1" y="865"/><use xlink:href="#ZfKINCBTM-Jn_pad-12" x="1312.1" y="865"/><use xlink:href="#ZfKINCBTM-Jn_pad-12" x="1362.1" y="865"/><use xlink:href="#ZfKINCBTM-Jn_pad-12" x="1362.1" y="915"/><use xlink:href="#ZfKINCBTM-Jn_pad-12" x="1362.1" y="965"/><use xlink:href="#ZfKINCBTM-Jn_pad-12" x="1362.1" y="1015"/><use xlink:href="#ZfKINCBTM-Jn_pad-12" x="1362.1" y="1065"/><use xlink:href="#ZfKINCBTM-Jn_pad-12" x="1362.1" y="1115"/><use xlink:href="#ZfKINCBTM-Jn_pad-12" x="1312.1" y="1115"/><use xlink:href="#ZfKINCBTM-Jn_pad-12" x="1262.1" y="1115"/><use xlink:href="#ZfKINCBTM-Jn_pad-12" x="1212.1" y="1115"/><use xlink:href="#ZfKINCBTM-Jn_pad-12" x="1162.1" y="1115"/><use xlink:href="#ZfKINCBTM-Jn_pad-12" x="1112.1" y="1115"/><use xlink:href="#ZfKINCBTM-Jn_pad-12" x="1112.1" y="1065"/><use xlink:href="#ZfKINCBTM-Jn_pad-12" x="1112.1" y="1015"/><use xlink:href="#ZfKINCBTM-Jn_pad-12" x="1112.1" y="965"/><use xlink:href="#ZfKINCBTM-Jn_pad-12" x="1162.1" y="965"/><use xlink:href="#ZfKINCBTM-Jn_pad-12" x="1212.1" y="965"/><use xlink:href="#ZfKINCBTM-Jn_pad-12" x="1262.1" y="965"/><use xlink:href="#ZfKINCBTM-Jn_pad-12" x="1262.1" y="915"/><use xlink:href="#ZfKINCBTM-Jn_pad-12" x="932.1" y="935"/><use xlink:href="#ZfKINCBTM-Jn_pad-12" x="897.1" y="935"/><use xlink:href="#ZfKINCBTM-Jn_pad-12" x="1262.1" y="515"/><use xlink:href="#ZfKINCBTM-Jn_pad-12" x="1262.1" y="465"/><use xlink:href="#ZfKINCBTM-Jn_pad-12" x="1262.1" y="415"/><use xlink:href="#ZfKINCBTM-Jn_pad-12" x="1262.1" y="365"/><use xlink:href="#ZfKINCBTM-Jn_pad-12" x="1262.1" y="315"/><use xlink:href="#ZfKINCBTM-Jn_pad-12" x="1262.1" y="265"/></g><g id="pcb-stackup_bottom_ss" transform="scale(0.03937007874015748,0.03937007874015748)"/><g id="pcb-stackup_bottom_sm"><use xlink:href="#Adn9MDFZSRDs_pad-10" x="407" y="588.5"/><use xlink:href="#Adn9MDFZSRDs_pad-10" x="407" y="781.5"/><use xlink:href="#Adn9MDFZSRDs_pad-10" x="1317.2" y="781.5"/><use xlink:href="#Adn9MDFZSRDs_pad-10" x="1317.2" y="588.5"/></g><g id="pcb-stackup_bottom_drl1"><use xlink:href="#a9ekv3fSe.o9_pad-1" x="362.1" y="165"/><use xlink:href="#a9ekv3fSe.o9_pad-1" x="412.1" y="165"/><use xlink:href="#a9ekv3fSe.o9_pad-1" x="462.1" y="165"/><use xlink:href="#a9ekv3fSe.o9_pad-1" x="512.1" y="165"/><use xlink:href="#a9ekv3fSe.o9_pad-1" x="562.1" y="165"/><use xlink:href="#a9ekv3fSe.o9_pad-1" x="612.1" y="165"/><use xlink:href="#a9ekv3fSe.o9_pad-1" x="662.1" y="165"/><use xlink:href="#a9ekv3fSe.o9_pad-1" x="712.1" y="165"/><use xlink:href="#a9ekv3fSe.o9_pad-1" x="762.1" y="165"/><use xlink:href="#a9ekv3fSe.o9_pad-1" x="812.1" y="165"/><use xlink:href="#a9ekv3fSe.o9_pad-1" x="862.1" y="165"/><use xlink:href="#a9ekv3fSe.o9_pad-1" x="912.1" y="165"/><use xlink:href="#a9ekv3fSe.o9_pad-1" x="962.1" y="165"/><use xlink:href="#a9ekv3fSe.o9_pad-1" x="1012.1" y="165"/><use xlink:href="#a9ekv3fSe.o9_pad-1" x="1062.1" y="165"/><use xlink:href="#a9ekv3fSe.o9_pad-1" x="1112.1" y="165"/><use xlink:href="#a9ekv3fSe.o9_pad-1" x="1162.1" y="165"/><use xlink:href="#a9ekv3fSe.o9_pad-1" x="1212.1" y="165"/><use xlink:href="#a9ekv3fSe.o9_pad-1" x="1262.1" y="165"/><use xlink:href="#a9ekv3fSe.o9_pad-1" x="1312.1" y="165"/><use xlink:href="#a9ekv3fSe.o9_pad-1" x="1362.1" y="165"/><use xlink:href="#a9ekv3fSe.o9_pad-1" x="1362.1" y="215"/><use xlink:href="#a9ekv3fSe.o9_pad-1" x="1362.1" y="265"/><use xlink:href="#a9ekv3fSe.o9_pad-1" x="1362.1" y="315"/><use xlink:href="#a9ekv3fSe.o9_pad-1" x="1362.1" y="365"/><use xlink:href="#a9ekv3fSe.o9_pad-1" x="1362.1" y="415"/><use xlink:href="#a9ekv3fSe.o9_pad-1" x="1362.1" y="465"/><use xlink:href="#a9ekv3fSe.o9_pad-1" x="1362.1" y="515"/><use xlink:href="#a9ekv3fSe.o9_pad-1" x="1312.1" y="515"/><use xlink:href="#a9ekv3fSe.o9_pad-1" x="1262.1" y="515"/><use xlink:href="#a9ekv3fSe.o9_pad-1" x="1262.1" y="465"/><use xlink:href="#a9ekv3fSe.o9_pad-1" x="1262.1" y="415"/><use xlink:href="#a9ekv3fSe.o9_pad-1" x="1262.1" y="365"/><use xlink:href="#a9ekv3fSe.o9_pad-1" x="1262.1" y="315"/><use xlink:href="#a9ekv3fSe.o9_pad-1" x="1262.1" y="265"/><use xlink:href="#a9ekv3fSe.o9_pad-1" x="1137.1" y="290"/><use xlink:href="#a9ekv3fSe.o9_pad-1" x="1087.1" y="290"/><use xlink:href="#a9ekv3fSe.o9_pad-1" x="1037.1" y="290"/><use xlink:href="#a9ekv3fSe.o9_pad-1" x="987.1" y="290"/><use xlink:href="#a9ekv3fSe.o9_pad-1" x="937.1" y="290"/><use xlink:href="#a9ekv3fSe.o9_pad-1" x="887.1" y="290"/><use xlink:href="#a9ekv3fSe.o9_pad-1" x="837.1" y="290"/><use xlink:href="#a9ekv3fSe.o9_pad-1" x="787.1" y="290"/><use xlink:href="#a9ekv3fSe.o9_pad-1" x="737.1" y="290"/><use xlink:href="#a9ekv3fSe.o9_pad-1" x="687.1" y="290"/><use xlink:href="#a9ekv3fSe.o9_pad-1" x="637.1" y="290"/><use xlink:href="#a9ekv3fSe.o9_pad-1" x="587.1" y="290"/><use xlink:href="#a9ekv3fSe.o9_pad-1" x="587.1" y="340"/><use xlink:href="#a9ekv3fSe.o9_pad-1" x="587.1" y="390"/><use xlink:href="#a9ekv3fSe.o9_pad-1" x="587.1" y="440"/><use xlink:href="#a9ekv3fSe.o9_pad-1" x="587.1" y="490"/><use xlink:href="#a9ekv3fSe.o9_pad-1" x="587.1" y="540"/><use xlink:href="#a9ekv3fSe.o9_pad-1" x="622.1" y="585"/><use xlink:href="#a9ekv3fSe.o9_pad-1" x="642.1" y="560"/><use xlink:href="#a9ekv3fSe.o9_pad-1" x="677.1" y="545"/><use xlink:href="#a9ekv3fSe.o9_pad-1" x="677.1" y="605"/><use xlink:href="#a9ekv3fSe.o9_pad-1" x="667.1" y="640"/><use xlink:href="#a9ekv3fSe.o9_pad-1" x="652.1" y="675"/><use xlink:href="#a9ekv3fSe.o9_pad-1" x="622.1" y="700"/><use xlink:href="#a9ekv3fSe.o9_pad-1" x="582.1" y="710"/><use xlink:href="#a9ekv3fSe.o9_pad-1" x="587.1" y="740"/><use xlink:href="#a9ekv3fSe.o9_pad-1" x="542.1" y="710"/><use xlink:href="#a9ekv3fSe.o9_pad-1" x="502.1" y="710"/><use xlink:href="#a9ekv3fSe.o9_pad-1" x="502.1" y="660"/><use xlink:href="#a9ekv3fSe.o9_pad-1" x="542.1" y="660"/><use xlink:href="#a9ekv3fSe.o9_pad-1" x="587.1" y="640"/><use xlink:href="#a9ekv3fSe.o9_pad-1" x="612.1" y="615"/><use xlink:href="#a9ekv3fSe.o9_pad-1" x="587.1" y="590"/><use xlink:href="#a9ekv3fSe.o9_pad-1" x="462.1" y="515"/><use xlink:href="#a9ekv3fSe.o9_pad-1" x="412.1" y="515"/><use xlink:href="#a9ekv3fSe.o9_pad-1" x="362.1" y="515"/><use xlink:href="#a9ekv3fSe.o9_pad-1" x="362.1" y="465"/><use xlink:href="#a9ekv3fSe.o9_pad-1" x="362.1" y="415"/><use xlink:href="#a9ekv3fSe.o9_pad-1" x="362.1" y="365"/><use xlink:href="#a9ekv3fSe.o9_pad-1" x="362.1" y="315"/><use xlink:href="#a9ekv3fSe.o9_pad-1" x="362.1" y="265"/><use xlink:href="#a9ekv3fSe.o9_pad-1" x="362.1" y="215"/><use xlink:href="#a9ekv3fSe.o9_pad-1" x="462.1" y="265"/><use xlink:href="#a9ekv3fSe.o9_pad-1" x="462.1" y="315"/><use xlink:href="#a9ekv3fSe.o9_pad-1" x="462.1" y="365"/><use xlink:href="#a9ekv3fSe.o9_pad-1" x="462.1" y="415"/><use xlink:href="#a9ekv3fSe.o9_pad-1" x="462.1" y="465"/><use xlink:href="#a9ekv3fSe.o9_pad-1" x="792.1" y="605"/><use xlink:href="#a9ekv3fSe.o9_pad-1" x="942.1" y="605"/><use xlink:href="#a9ekv3fSe.o9_pad-1" x="1062.1" y="620"/><use xlink:href="#a9ekv3fSe.o9_pad-1" x="1072.1" y="665"/><use xlink:href="#a9ekv3fSe.o9_pad-1" x="1102.1" y="695"/><use xlink:href="#a9ekv3fSe.o9_pad-1" x="1137.1" y="710"/><use xlink:href="#a9ekv3fSe.o9_pad-1" x="1137.1" y="740"/><use xlink:href="#a9ekv3fSe.o9_pad-1" x="1182.1" y="710"/><use xlink:href="#a9ekv3fSe.o9_pad-1" x="1217.1" y="710"/><use xlink:href="#a9ekv3fSe.o9_pad-1" x="1217.1" y="660"/><use xlink:href="#a9ekv3fSe.o9_pad-1" x="1182.1" y="660"/><use xlink:href="#a9ekv3fSe.o9_pad-1" x="1137.1" y="640"/><use xlink:href="#a9ekv3fSe.o9_pad-1" x="1112.1" y="615"/><use xlink:href="#a9ekv3fSe.o9_pad-1" x="1137.1" y="590"/><use xlink:href="#a9ekv3fSe.o9_pad-1" x="1112.1" y="560"/><use xlink:href="#a9ekv3fSe.o9_pad-1" x="1137.1" y="540"/><use xlink:href="#a9ekv3fSe.o9_pad-1" x="1137.1" y="490"/><use xlink:href="#a9ekv3fSe.o9_pad-1" x="1137.1" y="440"/><use xlink:href="#a9ekv3fSe.o9_pad-1" x="1137.1" y="390"/><use xlink:href="#a9ekv3fSe.o9_pad-1" x="1137.1" y="340"/><use xlink:href="#a9ekv3fSe.o9_pad-1" x="1062.1" y="560"/><use xlink:href="#a9ekv3fSe.o9_pad-1" x="1137.1" y="790"/><use xlink:href="#a9ekv3fSe.o9_pad-1" x="1137.1" y="840"/><use xlink:href="#a9ekv3fSe.o9_pad-1" x="1087.1" y="840"/><use xlink:href="#a9ekv3fSe.o9_pad-1" x="1037.1" y="840"/><use xlink:href="#a9ekv3fSe.o9_pad-1" x="987.1" y="840"/><use xlink:href="#a9ekv3fSe.o9_pad-1" x="937.1" y="840"/><use xlink:href="#a9ekv3fSe.o9_pad-1" x="887.1" y="840"/><use xlink:href="#a9ekv3fSe.o9_pad-1" x="837.1" y="840"/><use xlink:href="#a9ekv3fSe.o9_pad-1" x="787.1" y="840"/><use xlink:href="#a9ekv3fSe.o9_pad-1" x="737.1" y="840"/><use xlink:href="#a9ekv3fSe.o9_pad-1" x="687.1" y="840"/><use xlink:href="#a9ekv3fSe.o9_pad-1" x="637.1" y="840"/><use xlink:href="#a9ekv3fSe.o9_pad-1" x="587.1" y="840"/><use xlink:href="#a9ekv3fSe.o9_pad-1" x="587.1" y="790"/><use xlink:href="#a9ekv3fSe.o9_pad-1" x="667.1" y="785"/><use xlink:href="#a9ekv3fSe.o9_pad-1" x="667.1" y="760"/><use xlink:href="#a9ekv3fSe.o9_pad-1" x="462.1" y="865"/><use xlink:href="#a9ekv3fSe.o9_pad-1" x="412.1" y="865"/><use xlink:href="#a9ekv3fSe.o9_pad-1" x="362.1" y="865"/><use xlink:href="#a9ekv3fSe.o9_pad-1" x="362.1" y="915"/><use xlink:href="#a9ekv3fSe.o9_pad-1" x="362.1" y="965"/><use xlink:href="#a9ekv3fSe.o9_pad-1" x="362.1" y="1015"/><use xlink:href="#a9ekv3fSe.o9_pad-1" x="362.1" y="1065"/><use xlink:href="#a9ekv3fSe.o9_pad-1" x="362.1" y="1115"/><use xlink:href="#a9ekv3fSe.o9_pad-1" x="412.1" y="1115"/><use xlink:href="#a9ekv3fSe.o9_pad-1" x="462.1" y="1115"/><use xlink:href="#a9ekv3fSe.o9_pad-1" x="512.1" y="1115"/><use xlink:href="#a9ekv3fSe.o9_pad-1" x="562.1" y="1115"/><use xlink:href="#a9ekv3fSe.o9_pad-1" x="612.1" y="1115"/><use xlink:href="#a9ekv3fSe.o9_pad-1" x="612.1" y="1065"/><use xlink:href="#a9ekv3fSe.o9_pad-1" x="612.1" y="1015"/><use xlink:href="#a9ekv3fSe.o9_pad-1" x="612.1" y="965"/><use xlink:href="#a9ekv3fSe.o9_pad-1" x="562.1" y="965"/><use xlink:href="#a9ekv3fSe.o9_pad-1" x="512.1" y="965"/><use xlink:href="#a9ekv3fSe.o9_pad-1" x="462.1" y="965"/><use xlink:href="#a9ekv3fSe.o9_pad-1" x="462.1" y="915"/><use xlink:href="#a9ekv3fSe.o9_pad-1" x="897.1" y="935"/><use xlink:href="#a9ekv3fSe.o9_pad-1" x="932.1" y="935"/><use xlink:href="#a9ekv3fSe.o9_pad-1" x="1112.1" y="965"/><use xlink:href="#a9ekv3fSe.o9_pad-1" x="1162.1" y="965"/><use xlink:href="#a9ekv3fSe.o9_pad-1" x="1212.1" y="965"/><use xlink:href="#a9ekv3fSe.o9_pad-1" x="1262.1" y="965"/><use xlink:href="#a9ekv3fSe.o9_pad-1" x="1262.1" y="915"/><use xlink:href="#a9ekv3fSe.o9_pad-1" x="1262.1" y="865"/><use xlink:href="#a9ekv3fSe.o9_pad-1" x="1312.1" y="865"/><use xlink:href="#a9ekv3fSe.o9_pad-1" x="1362.1" y="865"/><use xlink:href="#a9ekv3fSe.o9_pad-1" x="1362.1" y="915"/><use xlink:href="#a9ekv3fSe.o9_pad-1" x="1362.1" y="965"/><use xlink:href="#a9ekv3fSe.o9_pad-1" x="1362.1" y="1015"/><use xlink:href="#a9ekv3fSe.o9_pad-1" x="1362.1" y="1065"/><use xlink:href="#a9ekv3fSe.o9_pad-1" x="1362.1" y="1115"/><use xlink:href="#a9ekv3fSe.o9_pad-1" x="1312.1" y="1115"/><use xlink:href="#a9ekv3fSe.o9_pad-1" x="1262.1" y="1115"/><use xlink:href="#a9ekv3fSe.o9_pad-1" x="1212.1" y="1115"/><use xlink:href="#a9ekv3fSe.o9_pad-1" x="1162.1" y="1115"/><use xlink:href="#a9ekv3fSe.o9_pad-1" x="1112.1" y="1115"/><use xlink:href="#a9ekv3fSe.o9_pad-1" x="1112.1" y="1065"/><use xlink:href="#a9ekv3fSe.o9_pad-1" x="1112.1" y="1015"/></g><clipPath id="pcb-stackup_bottom_out"><path d="M 312.1 115 1412.1 115 1412.1 1165 312.1 1165 312.1 115" fill="none" stroke-width="0"/></clipPath><mask id="pcb-stackup_bottom_mech-mask"><g fill="#000" stroke="#000"><rect x="312.1" y="115" width="1100" height="1050" fill="#fff"/><use xlink:href="#pcb-stackup_bottom_drl1"/></g></mask><mask id="pcb-stackup_bottom_cf-mask"><g fill="#fff" stroke="#fff"><use xlink:href="#pcb-stackup_bottom_sm"/></g></mask><mask id="pcb-stackup_bottom_sm-mask"><g fill="#000" stroke="#000"><rect x="312.1" y="115" width="1100" height="1050" fill="#fff"/><use xlink:href="#pcb-stackup_bottom_sm"/></g></mask></defs><g transform="translate(0,1280) scale(1,-1)"><g mask="url(#pcb-stackup_bottom_mech-mask)" clip-path="url(#pcb-stackup_bottom_out)" transform="translate(1724.2,0) scale(-1,1)"><rect x="312.1" y="115" width="1100" height="1050" fill="currentColor" class="pcb-stackup_fr4"/><use xlink:href="#pcb-stackup_bottom_cu" fill="currentColor" stroke="currentColor" class="pcb-stackup_cu"/><use xlink:href="#pcb-stackup_bottom_cu" fill="currentColor" stroke="currentColor" class="pcb-stackup_cf" mask="url(#pcb-stackup_bottom_cf-mask)"/><g mask="url(#pcb-stackup_bottom_sm-mask)"><rect x="312.1" y="115" width="1100" height="1050" fill="currentColor" class="pcb-stackup_sm"/><use xlink:href="#pcb-stackup_bottom_ss" fill="currentColor" stroke="currentColor" class="pcb-stackup_ss"/></g></g></g></svg>