<svg id="pcb-stackup_bottom" version="1.1" xmlns:xlink="http://www.w3.org/1999/xlink" stroke-linecap="round" stroke-linejoin="round" stroke-width="0" fill-rule="evenodd" clip-rule="evenodd" viewBox="215900 -113030 22860 12700" width="22.86mm" height="12.7mm" xmlns="http://www.w3.org/2000/svg"><defs><style>.pcb-stackup_fr4 {color: #4D542C;}
.pcb-stackup_cu {color: lightgrey;}
.pcb-stackup_cf {color: goldenrod;}
.pcb-stackup_sm {color: #8B0000; opacity: 0.9;}
.pcb-stackup_ss {color: white;}
.pcb-stackup_sp {color: #000000; opacity: 0;}
.pcb-stackup_out {color: black;}</style><rect x="-1016" y="-863.6" width="2032" height="1727.2" id="J9ckP7gsh12a_pad-11"/><rect x="-1016" y="-863.6" width="2032" height="1727.2" rx="863.6" ry="863.6" id="J9ckP7gsh12a_pad-12"/><rect x="-1050" y="-700" width="2100" height="1400" id="J9ckP7gsh12a_pad-13"/><rect x="-600" y="-450" width="1200" height="900" id="J9ckP7gsh12a_pad-14"/><rect x="-500" y="-500" width="1000" height="1000" id="J9ckP7gsh12a_pad-15"/><circle cx="0" cy="0" r="350" id="J9ckP7gsh12a_pad-16"/><rect x="-1016" y="-863.6" width="2032" height="1727.2" id="J9ckP7gsh12a_pad-11"/><rect x="-1016" y="-863.6" width="2032" height="1727.2" rx="863.6" ry="863.6" id="J9ckP7gsh12a_pad-12"/><rect x="-1050" y="-700" width="2100" height="1400" id="J9ckP7gsh12a_pad-13"/><rect x="-600" y="-450" width="1200" height="900" id="J9ckP7gsh12a_pad-14"/><rect x="-500" y="-500" width="1000" height="1000" id="J9ckP7gsh12a_pad-15"/><circle cx="0" cy="0" r="350" id="J9ckP7gsh12a_pad-16"/><rect x="-1216" y="-1063.6" width="2432" height="2127.2" id="LaXLSjARXNQ0_pad-11"/><rect x="-1216" y="-1063.6" width="2432" height="2127.2" rx="1063.6" ry="1063.6" id="LaXLSjARXNQ0_pad-12"/><rect x="-1250" y="-900" width="2500" height="1800" id="LaXLSjARXNQ0_pad-13"/><rect x="-800" y="-650" width="1600" height="1300" id="LaXLSjARXNQ0_pad-14"/><rect x="-700" y="-700" width="1400" height="1400" id="LaXLSjARXNQ0_pad-15"/><rect x="-1016" y="-863.6" width="2032" height="1727.2" id="J9ckP7gsh12a_pad-11"/><rect x="-1016" y="-863.6" width="2032" height="1727.2" rx="863.6" ry="863.6" id="J9ckP7gsh12a_pad-12"/><rect x="-1050" y="-700" width="2100" height="1400" id="J9ckP7gsh12a_pad-13"/><rect x="-600" y="-450" width="1200" height="900" id="J9ckP7gsh12a_pad-14"/><rect x="-500" y="-500" width="1000" height="1000" id="J9ckP7gsh12a_pad-15"/><circle cx="0" cy="0" r="350" id="J9ckP7gsh12a_pad-16"/><rect x="-1016" y="-863.6" width="2032" height="1727.2" id="J9ckP7gsh12a_pad-11"/><rect x="-1016" y="-863.6" width="2032" height="1727.2" rx="863.6" ry="863.6" id="J9ckP7gsh12a_pad-12"/><rect x="-1050" y="-700" width="2100" height="1400" id="J9ckP7gsh12a_pad-13"/><rect x="-600" y="-450" width="1200" height="900" id="J9ckP7gsh12a_pad-14"/><rect x="-500" y="-500" width="1000" height="1000" id="J9ckP7gsh12a_pad-15"/><circle cx="0" cy="0" r="350" id="J9ckP7gsh12a_pad-16"/><rect x="-1216" y="-1063.6" width="2432" height="2127.2" id="LaXLSjARXNQ0_pad-11"/><rect x="-1216" y="-1063.6" width="2432" height="2127.2" rx="1063.6" ry="1063.6" id="LaXLSjARXNQ0_pad-12"/><rect x="-1250" y="-900" width="2500" height="1800" id="LaXLSjARXNQ0_pad-13"/><rect x="-800" y="-650" width="1600" height="1300" id="LaXLSjARXNQ0_pad-14"/><rect x="-700" y="-700" width="1400" height="1400" id="LaXLSjARXNQ0_pad-15"/><rect x="-1216" y="-1063.6" width="2432" height="2127.2" id="is6NKReC5-Fs_pad-16"/><rect x="-1216" y="-1063.6" width="2432" height="2127.2" rx="1063.6" ry="1063.6" id="is6NKReC5-Fs_pad-17"/><rect x="-1250" y="-900" width="2500" height="1800" id="is6NKReC5-Fs_pad-18"/><rect x="-800" y="-650" width="1600" height="1300" id="is6NKReC5-Fs_pad-19"/><rect x="-700" y="-700" width="1400" height="1400" id="is6NKReC5-Fs_pad-20"/><mask id="is6NKReC5-Fs_clear-1" fill="#000" stroke="#000"><rect x="219799.38" y="-112920" width="14824.786" height="12122.6" fill="#fff"/><use xlink:href="#is6NKReC5-Fs_pad-16" x="236220" y="-110490"/><use xlink:href="#is6NKReC5-Fs_pad-17" x="236220" y="-107950"/><use xlink:href="#is6NKReC5-Fs_pad-17" x="236220" y="-105410"/><use xlink:href="#is6NKReC5-Fs_pad-17" x="236220" y="-102870"/><use xlink:href="#is6NKReC5-Fs_pad-16" x="218440" y="-102870"/><use xlink:href="#is6NKReC5-Fs_pad-17" x="218440" y="-105410"/><use xlink:href="#is6NKReC5-Fs_pad-17" x="218440" y="-107950"/><use xlink:href="#is6NKReC5-Fs_pad-17" x="218440" y="-110490"/><use xlink:href="#is6NKReC5-Fs_pad-18" x="222625" y="-104595"/><use xlink:href="#is6NKReC5-Fs_pad-18" x="231725" y="-109095"/><use xlink:href="#is6NKReC5-Fs_pad-18" x="231725" y="-104595"/><use xlink:href="#is6NKReC5-Fs_pad-18" x="222625" y="-109095"/><use xlink:href="#is6NKReC5-Fs_pad-19" x="229365" y="-111605"/><use xlink:href="#is6NKReC5-Fs_pad-19" x="231565" y="-111605"/><use xlink:href="#is6NKReC5-Fs_pad-19" x="224535" y="-111585"/><use xlink:href="#is6NKReC5-Fs_pad-19" x="222335" y="-111585"/><use xlink:href="#is6NKReC5-Fs_pad-20" x="225785" y="-101915"/><use xlink:href="#is6NKReC5-Fs_pad-20" x="228485" y="-101915"/><use xlink:href="#is6NKReC5-Fs_pad-20" x="227135" y="-101915"/></mask><rect x="-1016" y="-863.6" width="2032" height="1727.2" id="J9ckP7gsh12a_pad-11"/><rect x="-1016" y="-863.6" width="2032" height="1727.2" rx="863.6" ry="863.6" id="J9ckP7gsh12a_pad-12"/><rect x="-1050" y="-700" width="2100" height="1400" id="J9ckP7gsh12a_pad-13"/><rect x="-600" y="-450" width="1200" height="900" id="J9ckP7gsh12a_pad-14"/><rect x="-500" y="-500" width="1000" height="1000" id="J9ckP7gsh12a_pad-15"/><circle cx="0" cy="0" r="350" id="J9ckP7gsh12a_pad-16"/><rect x="-1016" y="-863.6" width="2032" height="1727.2" id="J9ckP7gsh12a_pad-11"/><rect x="-1016" y="-863.6" width="2032" height="1727.2" rx="863.6" ry="863.6" id="J9ckP7gsh12a_pad-12"/><rect x="-1050" y="-700" width="2100" height="1400" id="J9ckP7gsh12a_pad-13"/><rect x="-600" y="-450" width="1200" height="900" id="J9ckP7gsh12a_pad-14"/><rect x="-500" y="-500" width="1000" height="1000" id="J9ckP7gsh12a_pad-15"/><circle cx="0" cy="0" r="350" id="J9ckP7gsh12a_pad-16"/><rect x="-1216" y="-1063.6" width="2432" height="2127.2" id="LaXLSjARXNQ0_pad-11"/><rect x="-1216" y="-1063.6" width="2432" height="2127.2" rx="1063.6" ry="1063.6" id="LaXLSjARXNQ0_pad-12"/><rect x="-1250" y="-900" width="2500" height="1800" id="LaXLSjARXNQ0_pad-13"/><rect x="-800" y="-650" width="1600" height="1300" id="LaXLSjARXNQ0_pad-14"/><rect x="-700" y="-700" width="1400" height="1400" id="LaXLSjARXNQ0_pad-15"/><rect x="-1016" y="-863.6" width="2032" height="1727.2" id="J9ckP7gsh12a_pad-11"/><rect x="-1016" y="-863.6" width="2032" height="1727.2" rx="863.6" ry="863.6" id="J9ckP7gsh12a_pad-12"/><rect x="-1050" y="-700" width="2100" height="1400" id="J9ckP7gsh12a_pad-13"/><rect x="-600" y="-450" width="1200" height="900" id="J9ckP7gsh12a_pad-14"/><rect x="-500" y="-500" width="1000" height="1000" id="J9ckP7gsh12a_pad-15"/><circle cx="0" cy="0" r="350" id="J9ckP7gsh12a_pad-16"/><rect x="-1016" y="-863.6" width="2032" height="1727.2" id="J9ckP7gsh12a_pad-11"/><rect x="-1016" y="-863.6" width="2032" height="1727.2" rx="863.6" ry="863.6" id="J9ckP7gsh12a_pad-12"/><rect x="-1050" y="-700" width="2100" height="1400" id="J9ckP7gsh12a_pad-13"/><rect x="-600" y="-450" width="1200" height="900" id="J9ckP7gsh12a_pad-14"/><rect x="-500" y="-500" width="1000" height="1000" id="J9ckP7gsh12a_pad-15"/><circle cx="0" cy="0" r="350" id="J9ckP7gsh12a_pad-16"/><rect x="-1216" y="-1063.6" width="2432" height="2127.2" id="LaXLSjARXNQ0_pad-11"/><rect x="-1216" y="-1063.6" width="2432" height="2127.2" rx="1063.6" ry="1063.6" id="LaXLSjARXNQ0_pad-12"/><rect x="-1250" y="-900" width="2500" height="1800" id="LaXLSjARXNQ0_pad-13"/><rect x="-800" y="-650" width="1600" height="1300" id="LaXLSjARXNQ0_pad-14"/><rect x="-700" y="-700" width="1400" height="1400" id="LaXLSjARXNQ0_pad-15"/><rect x="-1216" y="-1063.6" width="2432" height="2127.2" id="is6NKReC5-Fs_pad-16"/><rect x="-1216" y="-1063.6" width="2432" height="2127.2" rx="1063.6" ry="1063.6" id="is6NKReC5-Fs_pad-17"/><rect x="-1250" y="-900" width="2500" height="1800" id="is6NKReC5-Fs_pad-18"/><rect x="-800" y="-650" width="1600" height="1300" id="is6NKReC5-Fs_pad-19"/><rect x="-700" y="-700" width="1400" height="1400" id="is6NKReC5-Fs_pad-20"/><mask id="is6NKReC5-Fs_clear-1" fill="#000" stroke="#000"><rect x="219799.38" y="-112920" width="14824.786" height="12122.6" fill="#fff"/><use xlink:href="#is6NKReC5-Fs_pad-16" x="236220" y="-110490"/><use xlink:href="#is6NKReC5-Fs_pad-17" x="236220" y="-107950"/><use xlink:href="#is6NKReC5-Fs_pad-17" x="236220" y="-105410"/><use xlink:href="#is6NKReC5-Fs_pad-17" x="236220" y="-102870"/><use xlink:href="#is6NKReC5-Fs_pad-16" x="218440" y="-102870"/><use xlink:href="#is6NKReC5-Fs_pad-17" x="218440" y="-105410"/><use xlink:href="#is6NKReC5-Fs_pad-17" x="218440" y="-107950"/><use xlink:href="#is6NKReC5-Fs_pad-17" x="218440" y="-110490"/><use xlink:href="#is6NKReC5-Fs_pad-18" x="222625" y="-104595"/><use xlink:href="#is6NKReC5-Fs_pad-18" x="231725" y="-109095"/><use xlink:href="#is6NKReC5-Fs_pad-18" x="231725" y="-104595"/><use xlink:href="#is6NKReC5-Fs_pad-18" x="222625" y="-109095"/><use xlink:href="#is6NKReC5-Fs_pad-19" x="229365" y="-111605"/><use xlink:href="#is6NKReC5-Fs_pad-19" x="231565" y="-111605"/><use xlink:href="#is6NKReC5-Fs_pad-19" x="224535" y="-111585"/><use xlink:href="#is6NKReC5-Fs_pad-19" x="222335" y="-111585"/><use xlink:href="#is6NKReC5-Fs_pad-20" x="225785" y="-101915"/><use xlink:href="#is6NKReC5-Fs_pad-20" x="228485" y="-101915"/><use xlink:href="#is6NKReC5-Fs_pad-20" x="227135" y="-101915"/></mask><rect x="-1016" y="-863.6" width="2032" height="1727.2" id="J9ckP7gsh12a_pad-11"/><rect x="-1016" y="-863.6" width="2032" height="1727.2" rx="863.6" ry="863.6" id="J9ckP7gsh12a_pad-12"/><rect x="-1050" y="-700" width="2100" height="1400" id="J9ckP7gsh12a_pad-13"/><rect x="-600" y="-450" width="1200" height="900" id="J9ckP7gsh12a_pad-14"/><rect x="-500" y="-500" width="1000" height="1000" id="J9ckP7gsh12a_pad-15"/><circle cx="0" cy="0" r="350" id="J9ckP7gsh12a_pad-16"/><rect x="-1016" y="-863.6" width="2032" height="1727.2" id="J9ckP7gsh12a_pad-11"/><rect x="-1016" y="-863.6" width="2032" height="1727.2" rx="863.6" ry="863.6" id="J9ckP7gsh12a_pad-12"/><rect x="-1050" y="-700" width="2100" height="1400" id="J9ckP7gsh12a_pad-13"/><rect x="-600" y="-450" width="1200" height="900" id="J9ckP7gsh12a_pad-14"/><rect x="-500" y="-500" width="1000" height="1000" id="J9ckP7gsh12a_pad-15"/><circle cx="0" cy="0" r="350" id="J9ckP7gsh12a_pad-16"/><rect x="-1216" y="-1063.6" width="2432" height="2127.2" id="LaXLSjARXNQ0_pad-11"/><rect x="-1216" y="-1063.6" width="2432" height="2127.2" rx="1063.6" ry="1063.6" id="LaXLSjARXNQ0_pad-12"/><rect x="-1250" y="-900" width="2500" height="1800" id="LaXLSjARXNQ0_pad-13"/><rect x="-800" y="-650" width="1600" height="1300" id="LaXLSjARXNQ0_pad-14"/><rect x="-700" y="-700" width="1400" height="1400" id="LaXLSjARXNQ0_pad-15"/><rect x="-1016" y="-863.6" width="2032" height="1727.2" id="J9ckP7gsh12a_pad-11"/><rect x="-1016" y="-863.6" width="2032" height="1727.2" rx="863.6" ry="863.6" id="J9ckP7gsh12a_pad-12"/><rect x="-1050" y="-700" width="2100" height="1400" id="J9ckP7gsh12a_pad-13"/><rect x="-600" y="-450" width="1200" height="900" id="J9ckP7gsh12a_pad-14"/><rect x="-500" y="-500" width="1000" height="1000" id="J9ckP7gsh12a_pad-15"/><circle cx="0" cy="0" r="350" id="J9ckP7gsh12a_pad-16"/><rect x="-1016" y="-863.6" width="2032" height="1727.2" id="J9ckP7gsh12a_pad-11"/><rect x="-1016" y="-863.6" width="2032" height="1727.2" rx="863.6" ry="863.6" id="J9ckP7gsh12a_pad-12"/><rect x="-1050" y="-700" width="2100" height="1400" id="J9ckP7gsh12a_pad-13"/><rect x="-600" y="-450" width="1200" height="900" id="J9ckP7gsh12a_pad-14"/><rect x="-500" y="-500" width="1000" height="1000" id="J9ckP7gsh12a_pad-15"/><circle cx="0" cy="0" r="350" id="J9ckP7gsh12a_pad-16"/><rect x="-1216" y="-1063.6" width="2432" height="2127.2" id="LaXLSjARXNQ0_pad-11"/><rect x="-1216" y="-1063.6" width="2432" height="2127.2" rx="1063.6" ry="1063.6" id="LaXLSjARXNQ0_pad-12"/><rect x="-1250" y="-900" width="2500" height="1800" id="LaXLSjARXNQ0_pad-13"/><rect x="-800" y="-650" width="1600" height="1300" id="LaXLSjARXNQ0_pad-14"/><rect x="-700" y="-700" width="1400" height="1400" id="LaXLSjARXNQ0_pad-15"/><rect x="-1216" y="-1063.6" width="2432" height="2127.2" id="is6NKReC5-Fs_pad-16"/><rect x="-1216" y="-1063.6" width="2432" height="2127.2" rx="1063.6" ry="1063.6" id="is6NKReC5-Fs_pad-17"/><rect x="-1250" y="-900" width="2500" height="1800" id="is6NKReC5-Fs_pad-18"/><rect x="-800" y="-650" width="1600" height="1300" id="is6NKReC5-Fs_pad-19"/><rect x="-700" y="-700" width="1400" height="1400" id="is6NKReC5-Fs_pad-20"/><mask id="is6NKReC5-Fs_clear-1" fill="#000" stroke="#000"><rect x="219799.38" y="-112920" width="14824.786" height="12122.6" fill="#fff"/><use xlink:href="#is6NKReC5-Fs_pad-16" x="236220" y="-110490"/><use xlink:href="#is6NKReC5-Fs_pad-17" x="236220" y="-107950"/><use xlink:href="#is6NKReC5-Fs_pad-17" x="236220" y="-105410"/><use xlink:href="#is6NKReC5-Fs_pad-17" x="236220" y="-102870"/><use xlink:href="#is6NKReC5-Fs_pad-16" x="218440" y="-102870"/><use xlink:href="#is6NKReC5-Fs_pad-17" x="218440" y="-105410"/><use xlink:href="#is6NKReC5-Fs_pad-17" x="218440" y="-107950"/><use xlink:href="#is6NKReC5-Fs_pad-17" x="218440" y="-110490"/><use xlink:href="#is6NKReC5-Fs_pad-18" x="222625" y="-104595"/><use xlink:href="#is6NKReC5-Fs_pad-18" x="231725" y="-109095"/><use xlink:href="#is6NKReC5-Fs_pad-18" x="231725" y="-104595"/><use xlink:href="#is6NKReC5-Fs_pad-18" x="222625" y="-109095"/><use xlink:href="#is6NKReC5-Fs_pad-19" x="229365" y="-111605"/><use xlink:href="#is6NKReC5-Fs_pad-19" x="231565" y="-111605"/><use xlink:href="#is6NKReC5-Fs_pad-19" x="224535" y="-111585"/><use xlink:href="#is6NKReC5-Fs_pad-19" x="222335" y="-111585"/><use xlink:href="#is6NKReC5-Fs_pad-20" x="225785" y="-101915"/><use xlink:href="#is6NKReC5-Fs_pad-20" x="228485" y="-101915"/><use xlink:href="#is6NKReC5-Fs_pad-20" x="227135" y="-101915"/></mask><rect x="-1016" y="-863.6" width="2032" height="1727.2" id="J9ckP7gsh12a_pad-11"/><rect x="-1016" y="-863.6" width="2032" height="1727.2" rx="863.6" ry="863.6" id="J9ckP7gsh12a_pad-12"/><rect x="-1050" y="-700" width="2100" height="1400" id="J9ckP7gsh12a_pad-13"/><rect x="-600" y="-450" width="1200" height="900" id="J9ckP7gsh12a_pad-14"/><rect x="-500" y="-500" width="1000" height="1000" id="J9ckP7gsh12a_pad-15"/><circle cx="0" cy="0" r="350" id="J9ckP7gsh12a_pad-16"/><rect x="-1016" y="-863.6" width="2032" height="1727.2" id="J9ckP7gsh12a_pad-11"/><rect x="-1016" y="-863.6" width="2032" height="1727.2" rx="863.6" ry="863.6" id="J9ckP7gsh12a_pad-12"/><rect x="-1050" y="-700" width="2100" height="1400" id="J9ckP7gsh12a_pad-13"/><rect x="-600" y="-450" width="1200" height="900" id="J9ckP7gsh12a_pad-14"/><rect x="-500" y="-500" width="1000" height="1000" id="J9ckP7gsh12a_pad-15"/><circle cx="0" cy="0" r="350" id="J9ckP7gsh12a_pad-16"/><rect x="-1216" y="-1063.6" width="2432" height="2127.2" id="LaXLSjARXNQ0_pad-11"/><rect x="-1216" y="-1063.6" width="2432" height="2127.2" rx="1063.6" ry="1063.6" id="LaXLSjARXNQ0_pad-12"/><rect x="-1250" y="-900" width="2500" height="1800" id="LaXLSjARXNQ0_pad-13"/><rect x="-800" y="-650" width="1600" height="1300" id="LaXLSjARXNQ0_pad-14"/><rect x="-700" y="-700" width="1400" height="1400" id="LaXLSjARXNQ0_pad-15"/><rect x="-1016" y="-863.6" width="2032" height="1727.2" id="J9ckP7gsh12a_pad-11"/><rect x="-1016" y="-863.6" width="2032" height="1727.2" rx="863.6" ry="863.6" id="J9ckP7gsh12a_pad-12"/><rect x="-1050" y="-700" width="2100" height="1400" id="J9ckP7gsh12a_pad-13"/><rect x="-600" y="-450" width="1200" height="900" id="J9ckP7gsh12a_pad-14"/><rect x="-500" y="-500" width="1000" height="1000" id="J9ckP7gsh12a_pad-15"/><circle cx="0" cy="0" r="350" id="J9ckP7gsh12a_pad-16"/><rect x="-1016" y="-863.6" width="2032" height="1727.2" id="J9ckP7gsh12a_pad-11"/><rect x="-1016" y="-863.6" width="2032" height="1727.2" rx="863.6" ry="863.6" id="J9ckP7gsh12a_pad-12"/><rect x="-1050" y="-700" width="2100" height="1400" id="J9ckP7gsh12a_pad-13"/><rect x="-600" y="-450" width="1200" height="900" id="J9ckP7gsh12a_pad-14"/><rect x="-500" y="-500" width="1000" height="1000" id="J9ckP7gsh12a_pad-15"/><circle cx="0" cy="0" r="350" id="J9ckP7gsh12a_pad-16"/><rect x="-1216" y="-1063.6" width="2432" height="2127.2" id="LaXLSjARXNQ0_pad-11"/><rect x="-1216" y="-1063.6" width="2432" height="2127.2" rx="1063.6" ry="1063.6" id="LaXLSjARXNQ0_pad-12"/><rect x="-1250" y="-900" width="2500" height="1800" id="LaXLSjARXNQ0_pad-13"/><rect x="-800" y="-650" width="1600" height="1300" id="LaXLSjARXNQ0_pad-14"/><rect x="-700" y="-700" width="1400" height="1400" id="LaXLSjARXNQ0_pad-15"/><rect x="-1216" y="-1063.6" width="2432" height="2127.2" id="is6NKReC5-Fs_pad-16"/><rect x="-1216" y="-1063.6" width="2432" height="2127.2" rx="1063.6" ry="1063.6" id="is6NKReC5-Fs_pad-17"/><rect x="-1250" y="-900" width="2500" height="1800" id="is6NKReC5-Fs_pad-18"/><rect x="-800" y="-650" width="1600" height="1300" id="is6NKReC5-Fs_pad-19"/><rect x="-700" y="-700" width="1400" height="1400" id="is6NKReC5-Fs_pad-20"/><mask id="is6NKReC5-Fs_clear-1" fill="#000" stroke="#000"><rect x="219799.38" y="-112920" width="14824.786" height="12122.6" fill="#fff"/><use xlink:href="#is6NKReC5-Fs_pad-16" x="236220" y="-110490"/><use xlink:href="#is6NKReC5-Fs_pad-17" x="236220" y="-107950"/><use xlink:href="#is6NKReC5-Fs_pad-17" x="236220" y="-105410"/><use xlink:href="#is6NKReC5-Fs_pad-17" x="236220" y="-102870"/><use xlink:href="#is6NKReC5-Fs_pad-16" x="218440" y="-102870"/><use xlink:href="#is6NKReC5-Fs_pad-17" x="218440" y="-105410"/><use xlink:href="#is6NKReC5-Fs_pad-17" x="218440" y="-107950"/><use xlink:href="#is6NKReC5-Fs_pad-17" x="218440" y="-110490"/><use xlink:href="#is6NKReC5-Fs_pad-18" x="222625" y="-104595"/><use xlink:href="#is6NKReC5-Fs_pad-18" x="231725" y="-109095"/><use xlink:href="#is6NKReC5-Fs_pad-18" x="231725" y="-104595"/><use xlink:href="#is6NKReC5-Fs_pad-18" x="222625" y="-109095"/><use xlink:href="#is6NKReC5-Fs_pad-19" x="229365" y="-111605"/><use xlink:href="#is6NKReC5-Fs_pad-19" x="231565" y="-111605"/><use xlink:href="#is6NKReC5-Fs_pad-19" x="224535" y="-111585"/><use xlink:href="#is6NKReC5-Fs_pad-19" x="222335" y="-111585"/><use xlink:href="#is6NKReC5-Fs_pad-20" x="225785" y="-101915"/><use xlink:href="#is6NKReC5-Fs_pad-20" x="228485" y="-101915"/><use xlink:href="#is6NKReC5-Fs_pad-20" x="227135" y="-101915"/></mask><circle cx="0" cy="0" r="250" id="fOaxs_rJNK13_pad-1"/><circle cx="0" cy="0" r="508" id="fOaxs_rJNK13_pad-2"/><rect x="-1016" y="-863.6" width="2032" height="1727.2" id="J9ckP7gsh12a_pad-11"/><rect x="-1016" y="-863.6" width="2032" height="1727.2" rx="863.6" ry="863.6" id="J9ckP7gsh12a_pad-12"/><rect x="-1050" y="-700" width="2100" height="1400" id="J9ckP7gsh12a_pad-13"/><rect x="-600" y="-450" width="1200" height="900" id="J9ckP7gsh12a_pad-14"/><rect x="-500" y="-500" width="1000" height="1000" id="J9ckP7gsh12a_pad-15"/><circle cx="0" cy="0" r="350" id="J9ckP7gsh12a_pad-16"/><rect x="-1016" y="-863.6" width="2032" height="1727.2" id="J9ckP7gsh12a_pad-11"/><rect x="-1016" y="-863.6" width="2032" height="1727.2" rx="863.6" ry="863.6" id="J9ckP7gsh12a_pad-12"/><rect x="-1050" y="-700" width="2100" height="1400" id="J9ckP7gsh12a_pad-13"/><rect x="-600" y="-450" width="1200" height="900" id="J9ckP7gsh12a_pad-14"/><rect x="-500" y="-500" width="1000" height="1000" id="J9ckP7gsh12a_pad-15"/><circle cx="0" cy="0" r="350" id="J9ckP7gsh12a_pad-16"/><rect x="-1216" y="-1063.6" width="2432" height="2127.2" id="LaXLSjARXNQ0_pad-11"/><rect x="-1216" y="-1063.6" width="2432" height="2127.2" rx="1063.6" ry="1063.6" id="LaXLSjARXNQ0_pad-12"/><rect x="-1250" y="-900" width="2500" height="1800" id="LaXLSjARXNQ0_pad-13"/><rect x="-800" y="-650" width="1600" height="1300" id="LaXLSjARXNQ0_pad-14"/><rect x="-700" y="-700" width="1400" height="1400" id="LaXLSjARXNQ0_pad-15"/><rect x="-1016" y="-863.6" width="2032" height="1727.2" id="J9ckP7gsh12a_pad-11"/><rect x="-1016" y="-863.6" width="2032" height="1727.2" rx="863.6" ry="863.6" id="J9ckP7gsh12a_pad-12"/><rect x="-1050" y="-700" width="2100" height="1400" id="J9ckP7gsh12a_pad-13"/><rect x="-600" y="-450" width="1200" height="900" id="J9ckP7gsh12a_pad-14"/><rect x="-500" y="-500" width="1000" height="1000" id="J9ckP7gsh12a_pad-15"/><circle cx="0" cy="0" r="350" id="J9ckP7gsh12a_pad-16"/><rect x="-1016" y="-863.6" width="2032" height="1727.2" id="J9ckP7gsh12a_pad-11"/><rect x="-1016" y="-863.6" width="2032" height="1727.2" rx="863.6" ry="863.6" id="J9ckP7gsh12a_pad-12"/><rect x="-1050" y="-700" width="2100" height="1400" id="J9ckP7gsh12a_pad-13"/><rect x="-600" y="-450" width="1200" height="900" id="J9ckP7gsh12a_pad-14"/><rect x="-500" y="-500" width="1000" height="1000" id="J9ckP7gsh12a_pad-15"/><circle cx="0" cy="0" r="350" id="J9ckP7gsh12a_pad-16"/><rect x="-1216" y="-1063.6" width="2432" height="2127.2" id="LaXLSjARXNQ0_pad-11"/><rect x="-1216" y="-1063.6" width="2432" height="2127.2" rx="1063.6" ry="1063.6" id="LaXLSjARXNQ0_pad-12"/><rect x="-1250" y="-900" width="2500" height="1800" id="LaXLSjARXNQ0_pad-13"/><rect x="-800" y="-650" width="1600" height="1300" id="LaXLSjARXNQ0_pad-14"/><rect x="-700" y="-700" width="1400" height="1400" id="LaXLSjARXNQ0_pad-15"/><rect x="-1216" y="-1063.6" width="2432" height="2127.2" id="is6NKReC5-Fs_pad-16"/><rect x="-1216" y="-1063.6" width="2432" height="2127.2" rx="1063.6" ry="1063.6" id="is6NKReC5-Fs_pad-17"/><rect x="-1250" y="-900" width="2500" height="1800" id="is6NKReC5-Fs_pad-18"/><rect x="-800" y="-650" width="1600" height="1300" id="is6NKReC5-Fs_pad-19"/><rect x="-700" y="-700" width="1400" height="1400" id="is6NKReC5-Fs_pad-20"/><mask id="is6NKReC5-Fs_clear-1" fill="#000" stroke="#000"><rect x="219799.38" y="-112920" width="14824.786" height="12122.6" fill="#fff"/><use xlink:href="#is6NKReC5-Fs_pad-16" x="236220" y="-110490"/><use xlink:href="#is6NKReC5-Fs_pad-17" x="236220" y="-107950"/><use xlink:href="#is6NKReC5-Fs_pad-17" x="236220" y="-105410"/><use xlink:href="#is6NKReC5-Fs_pad-17" x="236220" y="-102870"/><use xlink:href="#is6NKReC5-Fs_pad-16" x="218440" y="-102870"/><use xlink:href="#is6NKReC5-Fs_pad-17" x="218440" y="-105410"/><use xlink:href="#is6NKReC5-Fs_pad-17" x="218440" y="-107950"/><use xlink:href="#is6NKReC5-Fs_pad-17" x="218440" y="-110490"/><use xlink:href="#is6NKReC5-Fs_pad-18" x="222625" y="-104595"/><use xlink:href="#is6NKReC5-Fs_pad-18" x="231725" y="-109095"/><use xlink:href="#is6NKReC5-Fs_pad-18" x="231725" y="-104595"/><use xlink:href="#is6NKReC5-Fs_pad-18" x="222625" y="-109095"/><use xlink:href="#is6NKReC5-Fs_pad-19" x="229365" y="-111605"/><use xlink:href="#is6NKReC5-Fs_pad-19" x="231565" y="-111605"/><use xlink:href="#is6NKReC5-Fs_pad-19" x="224535" y="-111585"/><use xlink:href="#is6NKReC5-Fs_pad-19" x="222335" y="-111585"/><use xlink:href="#is6NKReC5-Fs_pad-20" x="225785" y="-101915"/><use xlink:href="#is6NKReC5-Fs_pad-20" x="228485" y="-101915"/><use xlink:href="#is6NKReC5-Fs_pad-20" x="227135" y="-101915"/></mask><rect x="-1016" y="-863.6" width="2032" height="1727.2" id="J9ckP7gsh12a_pad-11"/><rect x="-1016" y="-863.6" width="2032" height="1727.2" rx="863.6" ry="863.6" id="J9ckP7gsh12a_pad-12"/><rect x="-1050" y="-700" width="2100" height="1400" id="J9ckP7gsh12a_pad-13"/><rect x="-600" y="-450" width="1200" height="900" id="J9ckP7gsh12a_pad-14"/><rect x="-500" y="-500" width="1000" height="1000" id="J9ckP7gsh12a_pad-15"/><circle cx="0" cy="0" r="350" id="J9ckP7gsh12a_pad-16"/><rect x="-1016" y="-863.6" width="2032" height="1727.2" id="J9ckP7gsh12a_pad-11"/><rect x="-1016" y="-863.6" width="2032" height="1727.2" rx="863.6" ry="863.6" id="J9ckP7gsh12a_pad-12"/><rect x="-1050" y="-700" width="2100" height="1400" id="J9ckP7gsh12a_pad-13"/><rect x="-600" y="-450" width="1200" height="900" id="J9ckP7gsh12a_pad-14"/><rect x="-500" y="-500" width="1000" height="1000" id="J9ckP7gsh12a_pad-15"/><circle cx="0" cy="0" r="350" id="J9ckP7gsh12a_pad-16"/><rect x="-1216" y="-1063.6" width="2432" height="2127.2" id="LaXLSjARXNQ0_pad-11"/><rect x="-1216" y="-1063.6" width="2432" height="2127.2" rx="1063.6" ry="1063.6" id="LaXLSjARXNQ0_pad-12"/><rect x="-1250" y="-900" width="2500" height="1800" id="LaXLSjARXNQ0_pad-13"/><rect x="-800" y="-650" width="1600" height="1300" id="LaXLSjARXNQ0_pad-14"/><rect x="-700" y="-700" width="1400" height="1400" id="LaXLSjARXNQ0_pad-15"/><rect x="-1016" y="-863.6" width="2032" height="1727.2" id="J9ckP7gsh12a_pad-11"/><rect x="-1016" y="-863.6" width="2032" height="1727.2" rx="863.6" ry="863.6" id="J9ckP7gsh12a_pad-12"/><rect x="-1050" y="-700" width="2100" height="1400" id="J9ckP7gsh12a_pad-13"/><rect x="-600" y="-450" width="1200" height="900" id="J9ckP7gsh12a_pad-14"/><rect x="-500" y="-500" width="1000" height="1000" id="J9ckP7gsh12a_pad-15"/><circle cx="0" cy="0" r="350" id="J9ckP7gsh12a_pad-16"/><rect x="-1016" y="-863.6" width="2032" height="1727.2" id="J9ckP7gsh12a_pad-11"/><rect x="-1016" y="-863.6" width="2032" height="1727.2" rx="863.6" ry="863.6" id="J9ckP7gsh12a_pad-12"/><rect x="-1050" y="-700" width="2100" height="1400" id="J9ckP7gsh12a_pad-13"/><rect x="-600" y="-450" width="1200" height="900" id="J9ckP7gsh12a_pad-14"/><rect x="-500" y="-500" width="1000" height="1000" id="J9ckP7gsh12a_pad-15"/><circle cx="0" cy="0" r="350" id="J9ckP7gsh12a_pad-16"/><rect x="-1216" y="-1063.6" width="2432" height="2127.2" id="LaXLSjARXNQ0_pad-11"/><rect x="-1216" y="-1063.6" width="2432" height="2127.2" rx="1063.6" ry="1063.6" id="LaXLSjARXNQ0_pad-12"/><rect x="-1250" y="-900" width="2500" height="1800" id="LaXLSjARXNQ0_pad-13"/><rect x="-800" y="-650" width="1600" height="1300" id="LaXLSjARXNQ0_pad-14"/><rect x="-700" y="-700" width="1400" height="1400" id="LaXLSjARXNQ0_pad-15"/><rect x="-1216" y="-1063.6" width="2432" height="2127.2" id="is6NKReC5-Fs_pad-16"/><rect x="-1216" y="-1063.6" width="2432" height="2127.2" rx="1063.6" ry="1063.6" id="is6NKReC5-Fs_pad-17"/><rect x="-1250" y="-900" width="2500" height="1800" id="is6NKReC5-Fs_pad-18"/><rect x="-800" y="-650" width="1600" height="1300" id="is6NKReC5-Fs_pad-19"/><rect x="-700" y="-700" width="1400" height="1400" id="is6NKReC5-Fs_pad-20"/><mask id="is6NKReC5-Fs_clear-1" fill="#000" stroke="#000"><rect x="219799.38" y="-112920" width="14824.786" height="12122.6" fill="#fff"/><use xlink:href="#is6NKReC5-Fs_pad-16" x="236220" y="-110490"/><use xlink:href="#is6NKReC5-Fs_pad-17" x="236220" y="-107950"/><use xlink:href="#is6NKReC5-Fs_pad-17" x="236220" y="-105410"/><use xlink:href="#is6NKReC5-Fs_pad-17" x="236220" y="-102870"/><use xlink:href="#is6NKReC5-Fs_pad-16" x="218440" y="-102870"/><use xlink:href="#is6NKReC5-Fs_pad-17" x="218440" y="-105410"/><use xlink:href="#is6NKReC5-Fs_pad-17" x="218440" y="-107950"/><use xlink:href="#is6NKReC5-Fs_pad-17" x="218440" y="-110490"/><use xlink:href="#is6NKReC5-Fs_pad-18" x="222625" y="-104595"/><use xlink:href="#is6NKReC5-Fs_pad-18" x="231725" y="-109095"/><use xlink:href="#is6NKReC5-Fs_pad-18" x="231725" y="-104595"/><use xlink:href="#is6NKReC5-Fs_pad-18" x="222625" y="-109095"/><use xlink:href="#is6NKReC5-Fs_pad-19" x="229365" y="-111605"/><use xlink:href="#is6NKReC5-Fs_pad-19" x="231565" y="-111605"/><use xlink:href="#is6NKReC5-Fs_pad-19" x="224535" y="-111585"/><use xlink:href="#is6NKReC5-Fs_pad-19" x="222335" y="-111585"/><use xlink:href="#is6NKReC5-Fs_pad-20" x="225785" y="-101915"/><use xlink:href="#is6NKReC5-Fs_pad-20" x="228485" y="-101915"/><use xlink:href="#is6NKReC5-Fs_pad-20" x="227135" y="-101915"/></mask><rect x="-1016" y="-863.6" width="2032" height="1727.2" id="J9ckP7gsh12a_pad-11"/><rect x="-1016" y="-863.6" width="2032" height="1727.2" rx="863.6" ry="863.6" id="J9ckP7gsh12a_pad-12"/><rect x="-1050" y="-700" width="2100" height="1400" id="J9ckP7gsh12a_pad-13"/><rect x="-600" y="-450" width="1200" height="900" id="J9ckP7gsh12a_pad-14"/><rect x="-500" y="-500" width="1000" height="1000" id="J9ckP7gsh12a_pad-15"/><circle cx="0" cy="0" r="350" id="J9ckP7gsh12a_pad-16"/><rect x="-1016" y="-863.6" width="2032" height="1727.2" id="J9ckP7gsh12a_pad-11"/><rect x="-1016" y="-863.6" width="2032" height="1727.2" rx="863.6" ry="863.6" id="J9ckP7gsh12a_pad-12"/><rect x="-1050" y="-700" width="2100" height="1400" id="J9ckP7gsh12a_pad-13"/><rect x="-600" y="-450" width="1200" height="900" id="J9ckP7gsh12a_pad-14"/><rect x="-500" y="-500" width="1000" height="1000" id="J9ckP7gsh12a_pad-15"/><circle cx="0" cy="0" r="350" id="J9ckP7gsh12a_pad-16"/><rect x="-1216" y="-1063.6" width="2432" height="2127.2" id="LaXLSjARXNQ0_pad-11"/><rect x="-1216" y="-1063.6" width="2432" height="2127.2" rx="1063.6" ry="1063.6" id="LaXLSjARXNQ0_pad-12"/><rect x="-1250" y="-900" width="2500" height="1800" id="LaXLSjARXNQ0_pad-13"/><rect x="-800" y="-650" width="1600" height="1300" id="LaXLSjARXNQ0_pad-14"/><rect x="-700" y="-700" width="1400" height="1400" id="LaXLSjARXNQ0_pad-15"/><rect x="-1016" y="-863.6" width="2032" height="1727.2" id="J9ckP7gsh12a_pad-11"/><rect x="-1016" y="-863.6" width="2032" height="1727.2" rx="863.6" ry="863.6" id="J9ckP7gsh12a_pad-12"/><rect x="-1050" y="-700" width="2100" height="1400" id="J9ckP7gsh12a_pad-13"/><rect x="-600" y="-450" width="1200" height="900" id="J9ckP7gsh12a_pad-14"/><rect x="-500" y="-500" width="1000" height="1000" id="J9ckP7gsh12a_pad-15"/><circle cx="0" cy="0" r="350" id="J9ckP7gsh12a_pad-16"/><rect x="-1016" y="-863.6" width="2032" height="1727.2" id="J9ckP7gsh12a_pad-11"/><rect x="-1016" y="-863.6" width="2032" height="1727.2" rx="863.6" ry="863.6" id="J9ckP7gsh12a_pad-12"/><rect x="-1050" y="-700" width="2100" height="1400" id="J9ckP7gsh12a_pad-13"/><rect x="-600" y="-450" width="1200" height="900" id="J9ckP7gsh12a_pad-14"/><rect x="-500" y="-500" width="1000" height="1000" id="J9ckP7gsh12a_pad-15"/><circle cx="0" cy="0" r="350" id="J9ckP7gsh12a_pad-16"/><rect x="-1216" y="-1063.6" width="2432" height="2127.2" id="LaXLSjARXNQ0_pad-11"/><rect x="-1216" y="-1063.6" width="2432" height="2127.2" rx="1063.6" ry="1063.6" id="LaXLSjARXNQ0_pad-12"/><rect x="-1250" y="-900" width="2500" height="1800" id="LaXLSjARXNQ0_pad-13"/><rect x="-800" y="-650" width="1600" height="1300" id="LaXLSjARXNQ0_pad-14"/><rect x="-700" y="-700" width="1400" height="1400" id="LaXLSjARXNQ0_pad-15"/><rect x="-1216" y="-1063.6" width="2432" height="2127.2" id="is6NKReC5-Fs_pad-16"/><rect x="-1216" y="-1063.6" width="2432" height="2127.2" rx="1063.6" ry="1063.6" id="is6NKReC5-Fs_pad-17"/><rect x="-1250" y="-900" width="2500" height="1800" id="is6NKReC5-Fs_pad-18"/><rect x="-800" y="-650" width="1600" height="1300" id="is6NKReC5-Fs_pad-19"/><rect x="-700" y="-700" width="1400" height="1400" id="is6NKReC5-Fs_pad-20"/><mask id="is6NKReC5-Fs_clear-1" fill="#000" stroke="#000"><rect x="219799.38" y="-112920" width="14824.786" height="12122.6" fill="#fff"/><use xlink:href="#is6NKReC5-Fs_pad-16" x="236220" y="-110490"/><use xlink:href="#is6NKReC5-Fs_pad-17" x="236220" y="-107950"/><use xlink:href="#is6NKReC5-Fs_pad-17" x="236220" y="-105410"/><use xlink:href="#is6NKReC5-Fs_pad-17" x="236220" y="-102870"/><use xlink:href="#is6NKReC5-Fs_pad-16" x="218440" y="-102870"/><use xlink:href="#is6NKReC5-Fs_pad-17" x="218440" y="-105410"/><use xlink:href="#is6NKReC5-Fs_pad-17" x="218440" y="-107950"/><use xlink:href="#is6NKReC5-Fs_pad-17" x="218440" y="-110490"/><use xlink:href="#is6NKReC5-Fs_pad-18" x="222625" y="-104595"/><use xlink:href="#is6NKReC5-Fs_pad-18" x="231725" y="-109095"/><use xlink:href="#is6NKReC5-Fs_pad-18" x="231725" y="-104595"/><use xlink:href="#is6NKReC5-Fs_pad-18" x="222625" y="-109095"/><use xlink:href="#is6NKReC5-Fs_pad-19" x="229365" y="-111605"/><use xlink:href="#is6NKReC5-Fs_pad-19" x="231565" y="-111605"/><use xlink:href="#is6NKReC5-Fs_pad-19" x="224535" y="-111585"/><use xlink:href="#is6NKReC5-Fs_pad-19" x="222335" y="-111585"/><use xlink:href="#is6NKReC5-Fs_pad-20" x="225785" y="-101915"/><use xlink:href="#is6NKReC5-Fs_pad-20" x="228485" y="-101915"/><use xlink:href="#is6NKReC5-Fs_pad-20" x="227135" y="-101915"/></mask><rect x="-1016" y="-863.6" width="2032" height="1727.2" id="J9ckP7gsh12a_pad-11"/><rect x="-1016" y="-863.6" width="2032" height="1727.2" rx="863.6" ry="863.6" id="J9ckP7gsh12a_pad-12"/><rect x="-1050" y="-700" width="2100" height="1400" id="J9ckP7gsh12a_pad-13"/><rect x="-600" y="-450" width="1200" height="900" id="J9ckP7gsh12a_pad-14"/><rect x="-500" y="-500" width="1000" height="1000" id="J9ckP7gsh12a_pad-15"/><circle cx="0" cy="0" r="350" id="J9ckP7gsh12a_pad-16"/><rect x="-1016" y="-863.6" width="2032" height="1727.2" id="J9ckP7gsh12a_pad-11"/><rect x="-1016" y="-863.6" width="2032" height="1727.2" rx="863.6" ry="863.6" id="J9ckP7gsh12a_pad-12"/><rect x="-1050" y="-700" width="2100" height="1400" id="J9ckP7gsh12a_pad-13"/><rect x="-600" y="-450" width="1200" height="900" id="J9ckP7gsh12a_pad-14"/><rect x="-500" y="-500" width="1000" height="1000" id="J9ckP7gsh12a_pad-15"/><circle cx="0" cy="0" r="350" id="J9ckP7gsh12a_pad-16"/><rect x="-1216" y="-1063.6" width="2432" height="2127.2" id="LaXLSjARXNQ0_pad-11"/><rect x="-1216" y="-1063.6" width="2432" height="2127.2" rx="1063.6" ry="1063.6" id="LaXLSjARXNQ0_pad-12"/><rect x="-1250" y="-900" width="2500" height="1800" id="LaXLSjARXNQ0_pad-13"/><rect x="-800" y="-650" width="1600" height="1300" id="LaXLSjARXNQ0_pad-14"/><rect x="-700" y="-700" width="1400" height="1400" id="LaXLSjARXNQ0_pad-15"/><rect x="-1016" y="-863.6" width="2032" height="1727.2" id="J9ckP7gsh12a_pad-11"/><rect x="-1016" y="-863.6" width="2032" height="1727.2" rx="863.6" ry="863.6" id="J9ckP7gsh12a_pad-12"/><rect x="-1050" y="-700" width="2100" height="1400" id="J9ckP7gsh12a_pad-13"/><rect x="-600" y="-450" width="1200" height="900" id="J9ckP7gsh12a_pad-14"/><rect x="-500" y="-500" width="1000" height="1000" id="J9ckP7gsh12a_pad-15"/><circle cx="0" cy="0" r="350" id="J9ckP7gsh12a_pad-16"/><rect x="-1016" y="-863.6" width="2032" height="1727.2" id="J9ckP7gsh12a_pad-11"/><rect x="-1016" y="-863.6" width="2032" height="1727.2" rx="863.6" ry="863.6" id="J9ckP7gsh12a_pad-12"/><rect x="-1050" y="-700" width="2100" height="1400" id="J9ckP7gsh12a_pad-13"/><rect x="-600" y="-450" width="1200" height="900" id="J9ckP7gsh12a_pad-14"/><rect x="-500" y="-500" width="1000" height="1000" id="J9ckP7gsh12a_pad-15"/><circle cx="0" cy="0" r="350" id="J9ckP7gsh12a_pad-16"/><rect x="-1216" y="-1063.6" width="2432" height="2127.2" id="LaXLSjARXNQ0_pad-11"/><rect x="-1216" y="-1063.6" width="2432" height="2127.2" rx="1063.6" ry="1063.6" id="LaXLSjARXNQ0_pad-12"/><rect x="-1250" y="-900" width="2500" height="1800" id="LaXLSjARXNQ0_pad-13"/><rect x="-800" y="-650" width="1600" height="1300" id="LaXLSjARXNQ0_pad-14"/><rect x="-700" y="-700" width="1400" height="1400" id="LaXLSjARXNQ0_pad-15"/><rect x="-1216" y="-1063.6" width="2432" height="2127.2" id="is6NKReC5-Fs_pad-16"/><rect x="-1216" y="-1063.6" width="2432" height="2127.2" rx="1063.6" ry="1063.6" id="is6NKReC5-Fs_pad-17"/><rect x="-1250" y="-900" width="2500" height="1800" id="is6NKReC5-Fs_pad-18"/><rect x="-800" y="-650" width="1600" height="1300" id="is6NKReC5-Fs_pad-19"/><rect x="-700" y="-700" width="1400" height="1400" id="is6NKReC5-Fs_pad-20"/><mask id="is6NKReC5-Fs_clear-1" fill="#000" stroke="#000"><rect x="219799.38" y="-112920" width="14824.786" height="12122.6" fill="#fff"/><use xlink:href="#is6NKReC5-Fs_pad-16" x="236220" y="-110490"/><use xlink:href="#is6NKReC5-Fs_pad-17" x="236220" y="-107950"/><use xlink:href="#is6NKReC5-Fs_pad-17" x="236220" y="-105410"/><use xlink:href="#is6NKReC5-Fs_pad-17" x="236220" y="-102870"/><use xlink:href="#is6NKReC5-Fs_pad-16" x="218440" y="-102870"/><use xlink:href="#is6NKReC5-Fs_pad-17" x="218440" y="-105410"/><use xlink:href="#is6NKReC5-Fs_pad-17" x="218440" y="-107950"/><use xlink:href="#is6NKReC5-Fs_pad-17" x="218440" y="-110490"/><use xlink:href="#is6NKReC5-Fs_pad-18" x="222625" y="-104595"/><use xlink:href="#is6NKReC5-Fs_pad-18" x="231725" y="-109095"/><use xlink:href="#is6NKReC5-Fs_pad-18" x="231725" y="-104595"/><use xlink:href="#is6NKReC5-Fs_pad-18" x="222625" y="-109095"/><use xlink:href="#is6NKReC5-Fs_pad-19" x="229365" y="-111605"/><use xlink:href="#is6NKReC5-Fs_pad-19" x="231565" y="-111605"/><use xlink:href="#is6NKReC5-Fs_pad-19" x="224535" y="-111585"/><use xlink:href="#is6NKReC5-Fs_pad-19" x="222335" y="-111585"/><use xlink:href="#is6NKReC5-Fs_pad-20" x="225785" y="-101915"/><use xlink:href="#is6NKReC5-Fs_pad-20" x="228485" y="-101915"/><use xlink:href="#is6NKReC5-Fs_pad-20" x="227135" y="-101915"/></mask><circle cx="0" cy="0" r="250" id="fOaxs_rJNK13_pad-1"/><circle cx="0" cy="0" r="508" id="fOaxs_rJNK13_pad-2"/><g id="pcb-stackup_bottom_cu"><use xlink:href="#J9ckP7gsh12a_pad-11" x="236220" y="-110490"/><use xlink:href="#J9ckP7gsh12a_pad-12" x="236220" y="-107950"/><use xlink:href="#J9ckP7gsh12a_pad-12" x="236220" y="-105410"/><use xlink:href="#J9ckP7gsh12a_pad-12" x="236220" y="-102870"/><use xlink:href="#J9ckP7gsh12a_pad-11" x="218440" y="-102870"/><use xlink:href="#J9ckP7gsh12a_pad-12" x="218440" y="-105410"/><use xlink:href="#J9ckP7gsh12a_pad-12" x="218440" y="-107950"/><use xlink:href="#J9ckP7gsh12a_pad-12" x="218440" y="-110490"/><use xlink:href="#J9ckP7gsh12a_pad-13" x="222625" y="-104595"/><use xlink:href="#J9ckP7gsh12a_pad-13" x="231725" y="-109095"/><use xlink:href="#J9ckP7gsh12a_pad-13" x="231725" y="-104595"/><use xlink:href="#J9ckP7gsh12a_pad-13" x="222625" y="-109095"/><use xlink:href="#J9ckP7gsh12a_pad-14" x="229365" y="-111605"/><use xlink:href="#J9ckP7gsh12a_pad-14" x="231565" y="-111605"/><use xlink:href="#J9ckP7gsh12a_pad-14" x="224535" y="-111585"/><use xlink:href="#J9ckP7gsh12a_pad-14" x="222335" y="-111585"/><use xlink:href="#J9ckP7gsh12a_pad-15" x="225785" y="-101915"/><use xlink:href="#J9ckP7gsh12a_pad-15" x="228485" y="-101915"/><use xlink:href="#J9ckP7gsh12a_pad-15" x="227135" y="-101915"/><use xlink:href="#J9ckP7gsh12a_pad-16" x="226796.251" y="-108879.14"/><use xlink:href="#J9ckP7gsh12a_pad-16" x="223789.989" y="-107294.991"/><use xlink:href="#J9ckP7gsh12a_pad-16" x="228228.165" y="-109356.445"/><use xlink:href="#J9ckP7gsh12a_pad-16" x="229528.749" y="-108778.898"/><use xlink:href="#J9ckP7gsh12a_pad-16" x="232723.938" y="-107326.43"/><use xlink:href="#J9ckP7gsh12a_pad-16" x="228106.428" y="-107328.182"/><use xlink:href="#J9ckP7gsh12a_pad-16" x="227055" y="-105325"/><use xlink:href="#J9ckP7gsh12a_pad-16" x="228295" y="-105355.011"/><use xlink:href="#J9ckP7gsh12a_pad-16" x="228465" y="-104005"/><use xlink:href="#J9ckP7gsh12a_pad-16" x="227055" y="-107425"/><use xlink:href="#J9ckP7gsh12a_pad-16" x="224225.002" y="-104925"/><use xlink:href="#J9ckP7gsh12a_pad-16" x="232705" y="-112425"/><use xlink:href="#J9ckP7gsh12a_pad-16" x="220735" y="-112255"/><path d="M 226301.277 -108879.14 226796.251 -108879.14 M 223789.989 -107294.991 225374.138 -108879.14 226301.277 -108879.14 M 231725 -109095 234965 -109095 236065 -107995 236065 -107935 236220 -107950 M 222625 -109095 219645 -109095 218495 -107945 218440 -107950 M 232723.938 -107326.43 230981.217 -107326.43 M 228106.428 -107328.182 228106.428 -109234.708 228228.165 -109356.445 M 230981.217 -107326.43 229878.748 -108428.899 229528.749 -108778.898 M 225445 -102395 225445 -102035 225785 -101915 M 236220 -105410 236220 -104296.4 236220 -102870 M 229375 -110735 228903.166 -110263.166 M 228739.998 -108869.276 228739.998 -108500.998 M 229185 -108055.996 229185 -104595 M 228739.998 -108500.998 229185 -108055.996 M 229375 -111435 229375 -110735 M 228903.166 -110263.166 228903.166 -109032.444 228739.998 -108869.276 M 229099.999 -104680.001 229185 -104595 M 227420.001 -104680.001 229099.999 -104680.001 M 227335 -104595 227420.001 -104680.001 M 224535 -111585 229255 -111585 229375 -111465 229375 -111435 M 227055 -105325 227055 -104875 227335 -104595 M 229185 -104595 231765 -104595 231835 -104665 231835 -104685 231725 -104595 M 222385 -104485 222625 -104595 M 218440 -102870 218440 -105380 218525 -105465 218440 -105410 M 227055 -105325 227195 -105465 227195 -105665" fill="none" stroke-width="250"/><path d="M 227135 -101915 228445 -101915 228465 -101935 228485 -101915" fill="none" stroke-width="100"/><path d="M 228465 -104005 228465 -101935 228485 -101915 M 228295 -105849.985 228295 -105355.011 M 227055 -107425 228295 -106185 228295 -105849.985" fill="none" stroke-width="250"/><path d="M 228445 -101915 228465 -101895 228485 -101915" fill="none" stroke-width="200"/><path d="M 224225.002 -104925 224615 -104925 225465 -104075 M 227135 -102665 225725 -104075 225465 -104075 M 227135 -101915 227135 -102665 M 231565 -111605 231885 -111605 232705 -112425 M 231575 -111435 232005 -111435 M 221355 -111635 222325 -111635 M 220735 -112255 221355 -111635 M 222325 -111635 222335 -111585" fill="none" stroke-width="250"/><path d="M 224746.673 -101055.301 224650 -101288.69 224650 -101629.25 224808.75 -101788 225658 -101788 225658 -101768 225912 -101768 225912 -101788 225932 -101788 225932 -102042 225912 -102042 225912 -102062 225658 -102062 225658 -102042 224808.75 -102042 224650 -102200.75 224650 -102541.31 224746.673 -102774.699 224925.302 -102953.327 225158.691 -103050 225499.25 -103050 225657.998 -102891.252 225657.998 -103050 225675.198 -103050 225396.59 -103328.608 225174.161 -103372.852 224927.599 -103537.599 224494.736 -103970.462 224421.79 -103940.172 224310 -103940.074 224310 -103768.691 224213.327 -103535.302 224034.699 -103356.673 223801.31 -103260 222910.75 -103260 222752 -103418.75 222752 -104468 222772 -104468 222772 -104722 222752 -104722 222752 -105771.25 222910.75 -105930 223801.31 -105930 223939.221 -105872.875 224028.214 -105909.828 224420.071 -105910.17 224782.231 -105760.529 224936.099 -105606.929 225152.401 -105462.401 225793.41 -104821.392 226015.839 -104777.148 226262.401 -104612.401 227672.401 -103202.401 227705 -103153.613 227705 -103371.889 227630.445 -103446.314 227480.172 -103808.212 227479.83 -104200.069 227629.471 -104562.229 227662.153 -104594.968 227460.445 -104796.325 227310.172 -105158.223 227309.83 -105550.08 227459.471 -105912.24 227476.2 -105928.998 226965.276 -106439.922 226859.931 -106439.83 226497.771 -106589.471 226220.445 -106866.314 226070.172 -107228.212 226069.83 -107620.069 226219.471 -107982.229 226268.562 -108031.405 226239.022 -108043.611 226163.361 -108119.14 225688.94 -108119.14 224775.067 -107205.267 224775.159 -107099.922 224625.518 -106737.762 224348.675 -106460.436 223986.777 -106310.163 223594.92 -106309.821 223232.76 -106459.462 222955.434 -106736.305 222805.161 -107098.203 222804.819 -107490.06 222911.216 -107747.56 221575 -107747.56 221327.235 -107796.843 221117.191 -107937.191 220976.843 -108147.235 220939.495 -108335 220046.764 -108335 220123.345 -107950 220009.271 -107376.511 219684.415 -106890.33 219374.931 -106683.539 219790.732 -106312.036 220044.709 -105784.791 220047.358 -105769.026 219926.217 -105537 218567 -105537 218567 -105557 218313 -105557 218313 -105537 216953.783 -105537 216832.642 -105769.026 216835.291 -105784.791 217089.268 -106312.036 217505.069 -106683.539 217195.585 -106890.33 216870.729 -107376.511 216756.655 -107950 216870.729 -108523.489 217195.585 -109009.67 217510.366 -109220 217195.585 -109430.33 216870.729 -109916.511 216756.655 -110490 216870.729 -111063.489 217195.585 -111549.67 217681.766 -111874.526 218255.255 -111988.6 218624.745 -111988.6 219198.234 -111874.526 219684.415 -111549.67 220009.271 -111063.489 220123.345 -110490 220009.271 -109916.511 219968.171 -109855 220939.495 -109855 220976.843 -110042.765 221117.191 -110252.809 221327.235 -110393.157 221575 -110442.44 223675 -110442.44 223922.765 -110393.157 224132.809 -110252.809 224273.157 -110042.765 224322.44 -109795 224322.44 -108902.244 224836.737 -109416.541 225083.299 -109581.288 225374.138 -109639.14 226163.14 -109639.14 226237.565 -109713.695 226599.463 -109863.968 226991.32 -109864.31 227316.69 -109729.87 227392.636 -109913.674 227669.479 -110191 228031.377 -110341.273 228423.234 -110341.615 228785.394 -110191.974 229062.72 -109915.131 229155.939 -109690.635 229331.961 -109763.726 229723.818 -109764.068 230027.56 -109638.565 230027.56 -109795 230076.843 -110042.765 230217.191 -110252.809 230427.235 -110393.157 230675 -110442.44 232775 -110442.44 233022.765 -110393.157 233232.809 -110252.809 233373.157 -110042.765 233410.505 -109855 234556.56 -109855 234556.56 -111353.6 234605.843 -111601.365 234746.191 -111811.409 234956.235 -111951.757 235204 -112001.04 237236 -112001.04 237483.765 -111951.757 237693.809 -111811.409 237834.157 -111601.365 237883.44 -111353.6 237883.44 -109626.4 237834.157 -109378.635 237693.809 -109168.591 237483.765 -109028.243 237447.434 -109021.016 237464.415 -109009.67 237789.271 -108523.489 237903.345 -107950 237789.271 -107376.511 237464.415 -106890.33 237154.931 -106683.539 237570.732 -106312.036 237824.709 -105784.791 237827.358 -105769.026 237706.217 -105537 236347 -105537 236347 -105557 236093 -105557 236093 -105537 234733.783 -105537 234612.642 -105769.026 234615.291 -105784.791 234869.268 -106312.036 235285.069 -106683.539 234975.585 -106890.33 234650.729 -107376.511 234536.655 -107950 234613.236 -108335 233410.505 -108335 233373.157 -108147.235 233342.251 -108100.981 233558.493 -107885.116 233708.766 -107523.218 233709.108 -107131.361 233559.467 -106769.201 233282.624 -106491.875 232920.726 -106341.602 232528.869 -106341.26 232166.709 -106490.901 232091.048 -106566.43 230981.217 -106566.43 230690.378 -106624.282 230443.816 -106789.029 229439.025 -107793.82 229333.68 -107793.728 228971.52 -107943.369 228866.428 -108048.278 228866.428 -107961.293 228940.983 -107886.868 229091.256 -107524.97 229091.598 -107133.113 228941.957 -106770.953 228856.895 -106685.743 228997.148 -106475.839 229055 -106185 229055 -105988.122 229129.555 -105913.697 229279.828 -105551.799 229280.17 -105159.942 229164.811 -104880.75 230040 -104880.75 230040 -105421.309 230136.673 -105654.698 230315.301 -105833.327 230548.69 -105930 231439.25 -105930 231598 -105771.25 231598 -104722 231852 -104722 231852 -105771.25 232010.75 -105930 232901.31 -105930 233134.699 -105833.327 233313.327 -105654.698 233410 -105421.309 233410 -104880.75 233251.25 -104722 231852 -104722 231598 -104722 230198.75 -104722 230040 -104880.75 229164.811 -104880.75 229130.529 -104797.782 229097.847 -104765.043 229299.555 -104563.686 229449.828 -104201.788 229450.17 -103809.931 229433.131 -103768.691 230040 -103768.691 230040 -104309.25 230198.75 -104468 231598 -104468 231598 -103418.75 231852 -103418.75 231852 -104468 233251.25 -104468 233410 -104309.25 233410 -103768.691 233313.327 -103535.302 233134.699 -103356.673 232901.31 -103260 232010.75 -103260 231852 -103418.75 231598 -103418.75 231439.25 -103260 230548.69 -103260 230315.301 -103356.673 230136.673 -103535.302 230040 -103768.691 229433.131 -103768.691 229300.529 -103447.771 229225 -103372.11 229225 -103229.026 234612.642 -103229.026 234615.291 -103244.791 234869.268 -103772.036 235281.108 -104140 234869.268 -104507.964 234615.291 -105035.209 234612.642 -105050.974 234733.783 -105283 236093 -105283 236093 -102997 236347 -102997 236347 -105283 237706.217 -105283 237827.358 -105050.974 237824.709 -105035.209 237570.732 -104507.964 237158.892 -104140 237570.732 -103772.036 237824.709 -103244.791 237827.358 -103229.026 237706.217 -102997 236347 -102997 236093 -102997 234733.783 -102997 234612.642 -103229.026 229225 -103229.026 229225 -103014.702 229232.765 -103013.157 229442.809 -102872.809 229583.157 -102662.765 229613.349 -102510.974 234612.642 -102510.974 234733.783 -102743 236093 -102743 236093 -101529.076 236347 -101529.076 236347 -102743 237706.217 -102743 237827.358 -102510.974 237824.709 -102495.209 237570.732 -101967.964 237134.32 -101578.046 236581.913 -101384.816 236347 -101529.076 236093 -101529.076 235858.087 -101384.816 235305.68 -101578.046 234869.268 -101967.964 234615.291 -102495.209 234612.642 -102510.974 229613.349 -102510.974 229632.44 -102415 229632.44 -101415 229583.157 -101167.235 229498.141 -101040 237195.908 -101040 238050 -101894.092 238050 -111465.908 237195.908 -112320 233690.091 -112320 233690.17 -112229.931 233540.529 -111867.771 233263.686 -111590.445 232901.788 -111440.172 232812.44 -111440.094 232812.44 -111155 232763.157 -110907.235 232622.809 -110697.191 232412.765 -110556.843 232165 -110507.56 230965 -110507.56 230717.235 -110556.843 230507.191 -110697.191 230466.346 -110758.32 230324.698 -110616.673 230091.309 -110520 229650.75 -110520 229492 -110678.75 229492 -111478 229512 -111478 229512 -111732 229492 -111732 229492 -111752 229238 -111752 229238 -111732 228288.75 -111732 228130 -111890.75 228130 -112181.31 228187.447 -112320 225704.268 -112320 225770 -112161.31 225770 -111870.75 225611.25 -111712 224662 -111712 224662 -111732 224408 -111732 224408 -111712 224388 -111712 224388 -111458 224408 -111458 224408 -110658.75 224662 -110658.75 224662 -111458 225611.25 -111458 225770 -111299.25 225770 -111028.69 228130 -111028.69 228130 -111319.25 228288.75 -111478 229238 -111478 229238 -110678.75 229079.25 -110520 228638.691 -110520 228405.302 -110616.673 228226.673 -110795.301 228130 -111028.69 225770 -111028.69 225770 -111008.69 225673.327 -110775.301 225494.698 -110596.673 225261.309 -110500 224820.75 -110500 224662 -110658.75 224408 -110658.75 224249.25 -110500 223808.691 -110500 223575.302 -110596.673 223433.654 -110738.32 223392.809 -110677.191 223182.765 -110536.843 222935 -110487.56 221735 -110487.56 221487.235 -110536.843 221277.191 -110677.191 221136.843 -110887.235 221130.39 -110919.678 221112.414 -110923.254 221064.16 -110932.852 220817.599 -111097.599 220645.276 -111269.922 220539.931 -111269.83 220177.771 -111419.471 219900.445 -111696.314 219750.172 -112058.212 219749.944 -112320 217464.092 -112320 216610 -111465.908 216610 -103155.75 216789 -103155.75 216789 -103859.91 216885.673 -104093.299 217064.302 -104271.927 217261.861 -104353.759 217089.268 -104507.964 216835.291 -105035.209 216832.642 -105050.974 216953.783 -105283 218313 -105283 218313 -102997 218567 -102997 218567 -105283 219926.217 -105283 220047.358 -105050.974 220044.709 -105035.209 219970.306 -104880.75 220940 -104880.75 220940 -105421.309 221036.673 -105654.698 221215.301 -105833.327 221448.69 -105930 222339.25 -105930 222498 -105771.25 222498 -104722 221098.75 -104722 220940 -104880.75 219970.306 -104880.75 219790.732 -104507.964 219618.139 -104353.759 219815.698 -104271.927 219994.327 -104093.299 220091 -103859.91 220091 -103768.691 220940 -103768.691 220940 -104309.25 221098.75 -104468 222498 -104468 222498 -103418.75 222339.25 -103260 221448.69 -103260 221215.301 -103356.673 221036.673 -103535.302 220940 -103768.691 220091 -103768.691 220091 -103155.75 219932.25 -102997 218567 -102997 218313 -102997 216947.75 -102997 216789 -103155.75 216610 -103155.75 216610 -101894.092 216624.002 -101880.09 216789 -101880.09 216789 -102584.25 216947.75 -102743 218313 -102743 218313 -101530.15 218567 -101530.15 218567 -102743 219932.25 -102743 220091 -102584.25 220091 -101880.09 219994.327 -101646.701 219815.698 -101468.073 219582.309 -101371.4 218725.75 -101371.4 218567 -101530.15 218313 -101530.15 218154.25 -101371.4 217297.691 -101371.4 217064.302 -101468.073 216885.673 -101646.701 216789 -101880.09 216624.002 -101880.09 217464.092 -101040 224761.974 -101040 224746.673 -101055.301 224746.673 -101055.301"/><path d="M 224746.673 -101055.301 224650 -101288.69 224650 -101629.25 224808.75 -101788 225658 -101788 225658 -101768 225912 -101768 225912 -101788 225932 -101788 225932 -102042 225912 -102042 225912 -102062 225658 -102062 225658 -102042 224808.75 -102042 224650 -102200.75 224650 -102541.31 224746.673 -102774.699 224925.302 -102953.327 225158.691 -103050 225499.25 -103050 225657.998 -102891.252 225657.998 -103050 225675.198 -103050 225396.59 -103328.608 225174.161 -103372.852 224927.599 -103537.599 224494.736 -103970.462 224421.79 -103940.172 224310 -103940.074 224310 -103768.691 224213.327 -103535.302 224034.699 -103356.673 223801.31 -103260 222910.75 -103260 222752 -103418.75 222752 -104468 222772 -104468 222772 -104722 222752 -104722 222752 -105771.25 222910.75 -105930 223801.31 -105930 223939.221 -105872.875 224028.214 -105909.828 224420.071 -105910.17 224782.231 -105760.529 224936.099 -105606.929 225152.401 -105462.401 225793.41 -104821.392 226015.839 -104777.148 226262.401 -104612.401 227672.401 -103202.401 227705 -103153.613 227705 -103371.889 227630.445 -103446.314 227480.172 -103808.212 227479.83 -104200.069 227629.471 -104562.229 227662.153 -104594.968 227460.445 -104796.325 227310.172 -105158.223 227309.83 -105550.08 227459.471 -105912.24 227476.2 -105928.998 226965.276 -106439.922 226859.931 -106439.83 226497.771 -106589.471 226220.445 -106866.314 226070.172 -107228.212 226069.83 -107620.069 226219.471 -107982.229 226268.562 -108031.405 226239.022 -108043.611 226163.361 -108119.14 225688.94 -108119.14 224775.067 -107205.267 224775.159 -107099.922 224625.518 -106737.762 224348.675 -106460.436 223986.777 -106310.163 223594.92 -106309.821 223232.76 -106459.462 222955.434 -106736.305 222805.161 -107098.203 222804.819 -107490.06 222911.216 -107747.56 221575 -107747.56 221327.235 -107796.843 221117.191 -107937.191 220976.843 -108147.235 220939.495 -108335 220046.764 -108335 220123.345 -107950 220009.271 -107376.511 219684.415 -106890.33 219374.931 -106683.539 219790.732 -106312.036 220044.709 -105784.791 220047.358 -105769.026 219926.217 -105537 218567 -105537 218567 -105557 218313 -105557 218313 -105537 216953.783 -105537 216832.642 -105769.026 216835.291 -105784.791 217089.268 -106312.036 217505.069 -106683.539 217195.585 -106890.33 216870.729 -107376.511 216756.655 -107950 216870.729 -108523.489 217195.585 -109009.67 217510.366 -109220 217195.585 -109430.33 216870.729 -109916.511 216756.655 -110490 216870.729 -111063.489 217195.585 -111549.67 217681.766 -111874.526 218255.255 -111988.6 218624.745 -111988.6 219198.234 -111874.526 219684.415 -111549.67 220009.271 -111063.489 220123.345 -110490 220009.271 -109916.511 219968.171 -109855 220939.495 -109855 220976.843 -110042.765 221117.191 -110252.809 221327.235 -110393.157 221575 -110442.44 223675 -110442.44 223922.765 -110393.157 224132.809 -110252.809 224273.157 -110042.765 224322.44 -109795 224322.44 -108902.244 224836.737 -109416.541 225083.299 -109581.288 225374.138 -109639.14 226163.14 -109639.14 226237.565 -109713.695 226599.463 -109863.968 226991.32 -109864.31 227316.69 -109729.87 227392.636 -109913.674 227669.479 -110191 228031.377 -110341.273 228423.234 -110341.615 228785.394 -110191.974 229062.72 -109915.131 229155.939 -109690.635 229331.961 -109763.726 229723.818 -109764.068 230027.56 -109638.565 230027.56 -109795 230076.843 -110042.765 230217.191 -110252.809 230427.235 -110393.157 230675 -110442.44 232775 -110442.44 233022.765 -110393.157 233232.809 -110252.809 233373.157 -110042.765 233410.505 -109855 234556.56 -109855 234556.56 -111353.6 234605.843 -111601.365 234746.191 -111811.409 234956.235 -111951.757 235204 -112001.04 237236 -112001.04 237483.765 -111951.757 237693.809 -111811.409 237834.157 -111601.365 237883.44 -111353.6 237883.44 -109626.4 237834.157 -109378.635 237693.809 -109168.591 237483.765 -109028.243 237447.434 -109021.016 237464.415 -109009.67 237789.271 -108523.489 237903.345 -107950 237789.271 -107376.511 237464.415 -106890.33 237154.931 -106683.539 237570.732 -106312.036 237824.709 -105784.791 237827.358 -105769.026 237706.217 -105537 236347 -105537 236347 -105557 236093 -105557 236093 -105537 234733.783 -105537 234612.642 -105769.026 234615.291 -105784.791 234869.268 -106312.036 235285.069 -106683.539 234975.585 -106890.33 234650.729 -107376.511 234536.655 -107950 234613.236 -108335 233410.505 -108335 233373.157 -108147.235 233342.251 -108100.981 233558.493 -107885.116 233708.766 -107523.218 233709.108 -107131.361 233559.467 -106769.201 233282.624 -106491.875 232920.726 -106341.602 232528.869 -106341.26 232166.709 -106490.901 232091.048 -106566.43 230981.217 -106566.43 230690.378 -106624.282 230443.816 -106789.029 229439.025 -107793.82 229333.68 -107793.728 228971.52 -107943.369 228866.428 -108048.278 228866.428 -107961.293 228940.983 -107886.868 229091.256 -107524.97 229091.598 -107133.113 228941.957 -106770.953 228856.895 -106685.743 228997.148 -106475.839 229055 -106185 229055 -105988.122 229129.555 -105913.697 229279.828 -105551.799 229280.17 -105159.942 229164.811 -104880.75 230040 -104880.75 230040 -105421.309 230136.673 -105654.698 230315.301 -105833.327 230548.69 -105930 231439.25 -105930 231598 -105771.25 231598 -104722 231852 -104722 231852 -105771.25 232010.75 -105930 232901.31 -105930 233134.699 -105833.327 233313.327 -105654.698 233410 -105421.309 233410 -104880.75 233251.25 -104722 231852 -104722 231598 -104722 230198.75 -104722 230040 -104880.75 229164.811 -104880.75 229130.529 -104797.782 229097.847 -104765.043 229299.555 -104563.686 229449.828 -104201.788 229450.17 -103809.931 229433.131 -103768.691 230040 -103768.691 230040 -104309.25 230198.75 -104468 231598 -104468 231598 -103418.75 231852 -103418.75 231852 -104468 233251.25 -104468 233410 -104309.25 233410 -103768.691 233313.327 -103535.302 233134.699 -103356.673 232901.31 -103260 232010.75 -103260 231852 -103418.75 231598 -103418.75 231439.25 -103260 230548.69 -103260 230315.301 -103356.673 230136.673 -103535.302 230040 -103768.691 229433.131 -103768.691 229300.529 -103447.771 229225 -103372.11 229225 -103229.026 234612.642 -103229.026 234615.291 -103244.791 234869.268 -103772.036 235281.108 -104140 234869.268 -104507.964 234615.291 -105035.209 234612.642 -105050.974 234733.783 -105283 236093 -105283 236093 -102997 236347 -102997 236347 -105283 237706.217 -105283 237827.358 -105050.974 237824.709 -105035.209 237570.732 -104507.964 237158.892 -104140 237570.732 -103772.036 237824.709 -103244.791 237827.358 -103229.026 237706.217 -102997 236347 -102997 236093 -102997 234733.783 -102997 234612.642 -103229.026 229225 -103229.026 229225 -103014.702 229232.765 -103013.157 229442.809 -102872.809 229583.157 -102662.765 229613.349 -102510.974 234612.642 -102510.974 234733.783 -102743 236093 -102743 236093 -101529.076 236347 -101529.076 236347 -102743 237706.217 -102743 237827.358 -102510.974 237824.709 -102495.209 237570.732 -101967.964 237134.32 -101578.046 236581.913 -101384.816 236347 -101529.076 236093 -101529.076 235858.087 -101384.816 235305.68 -101578.046 234869.268 -101967.964 234615.291 -102495.209 234612.642 -102510.974 229613.349 -102510.974 229632.44 -102415 229632.44 -101415 229583.157 -101167.235 229498.141 -101040 237195.908 -101040 238050 -101894.092 238050 -111465.908 237195.908 -112320 233690.091 -112320 233690.17 -112229.931 233540.529 -111867.771 233263.686 -111590.445 232901.788 -111440.172 232812.44 -111440.094 232812.44 -111155 232763.157 -110907.235 232622.809 -110697.191 232412.765 -110556.843 232165 -110507.56 230965 -110507.56 230717.235 -110556.843 230507.191 -110697.191 230466.346 -110758.32 230324.698 -110616.673 230091.309 -110520 229650.75 -110520 229492 -110678.75 229492 -111478 229512 -111478 229512 -111732 229492 -111732 229492 -111752 229238 -111752 229238 -111732 228288.75 -111732 228130 -111890.75 228130 -112181.31 228187.447 -112320 225704.268 -112320 225770 -112161.31 225770 -111870.75 225611.25 -111712 224662 -111712 224662 -111732 224408 -111732 224408 -111712 224388 -111712 224388 -111458 224408 -111458 224408 -110658.75 224662 -110658.75 224662 -111458 225611.25 -111458 225770 -111299.25 225770 -111028.69 228130 -111028.69 228130 -111319.25 228288.75 -111478 229238 -111478 229238 -110678.75 229079.25 -110520 228638.691 -110520 228405.302 -110616.673 228226.673 -110795.301 228130 -111028.69 225770 -111028.69 225770 -111008.69 225673.327 -110775.301 225494.698 -110596.673 225261.309 -110500 224820.75 -110500 224662 -110658.75 224408 -110658.75 224249.25 -110500 223808.691 -110500 223575.302 -110596.673 223433.654 -110738.32 223392.809 -110677.191 223182.765 -110536.843 222935 -110487.56 221735 -110487.56 221487.235 -110536.843 221277.191 -110677.191 221136.843 -110887.235 221130.39 -110919.678 221112.414 -110923.254 221064.16 -110932.852 220817.599 -111097.599 220645.276 -111269.922 220539.931 -111269.83 220177.771 -111419.471 219900.445 -111696.314 219750.172 -112058.212 219749.944 -112320 217464.092 -112320 216610 -111465.908 216610 -103155.75 216789 -103155.75 216789 -103859.91 216885.673 -104093.299 217064.302 -104271.927 217261.861 -104353.759 217089.268 -104507.964 216835.291 -105035.209 216832.642 -105050.974 216953.783 -105283 218313 -105283 218313 -102997 218567 -102997 218567 -105283 219926.217 -105283 220047.358 -105050.974 220044.709 -105035.209 219970.306 -104880.75 220940 -104880.75 220940 -105421.309 221036.673 -105654.698 221215.301 -105833.327 221448.69 -105930 222339.25 -105930 222498 -105771.25 222498 -104722 221098.75 -104722 220940 -104880.75 219970.306 -104880.75 219790.732 -104507.964 219618.139 -104353.759 219815.698 -104271.927 219994.327 -104093.299 220091 -103859.91 220091 -103768.691 220940 -103768.691 220940 -104309.25 221098.75 -104468 222498 -104468 222498 -103418.75 222339.25 -103260 221448.69 -103260 221215.301 -103356.673 221036.673 -103535.302 220940 -103768.691 220091 -103768.691 220091 -103155.75 219932.25 -102997 218567 -102997 218313 -102997 216947.75 -102997 216789 -103155.75 216610 -103155.75 216610 -101894.092 216624.002 -101880.09 216789 -101880.09 216789 -102584.25 216947.75 -102743 218313 -102743 218313 -101530.15 218567 -101530.15 218567 -102743 219932.25 -102743 220091 -102584.25 220091 -101880.09 219994.327 -101646.701 219815.698 -101468.073 219582.309 -101371.4 218725.75 -101371.4 218567 -101530.15 218313 -101530.15 218154.25 -101371.4 217297.691 -101371.4 217064.302 -101468.073 216885.673 -101646.701 216789 -101880.09 216624.002 -101880.09 217464.092 -101040 224761.974 -101040 224746.673 -101055.301" fill="none" stroke-width="254"/></g><g id="pcb-stackup_bottom_sm"><use xlink:href="#LaXLSjARXNQ0_pad-11" x="236220" y="-110490"/><use xlink:href="#LaXLSjARXNQ0_pad-12" x="236220" y="-107950"/><use xlink:href="#LaXLSjARXNQ0_pad-12" x="236220" y="-105410"/><use xlink:href="#LaXLSjARXNQ0_pad-12" x="236220" y="-102870"/><use xlink:href="#LaXLSjARXNQ0_pad-11" x="218440" y="-102870"/><use xlink:href="#LaXLSjARXNQ0_pad-12" x="218440" y="-105410"/><use xlink:href="#LaXLSjARXNQ0_pad-12" x="218440" y="-107950"/><use xlink:href="#LaXLSjARXNQ0_pad-12" x="218440" y="-110490"/><use xlink:href="#LaXLSjARXNQ0_pad-13" x="222625" y="-104595"/><use xlink:href="#LaXLSjARXNQ0_pad-13" x="231725" y="-109095"/><use xlink:href="#LaXLSjARXNQ0_pad-13" x="231725" y="-104595"/><use xlink:href="#LaXLSjARXNQ0_pad-13" x="222625" y="-109095"/><use xlink:href="#LaXLSjARXNQ0_pad-14" x="229365" y="-111605"/><use xlink:href="#LaXLSjARXNQ0_pad-14" x="231565" y="-111605"/><use xlink:href="#LaXLSjARXNQ0_pad-14" x="224535" y="-111585"/><use xlink:href="#LaXLSjARXNQ0_pad-14" x="222335" y="-111585"/><use xlink:href="#LaXLSjARXNQ0_pad-15" x="225785" y="-101915"/><use xlink:href="#LaXLSjARXNQ0_pad-15" x="228485" y="-101915"/><use xlink:href="#LaXLSjARXNQ0_pad-15" x="227135" y="-101915"/></g><g id="pcb-stackup_bottom_ss"><g mask="url(#is6NKReC5-Fs_clear-1)"><path d="M 229950.769 -102273.525 229950.769 -102587.811 229922.198 -102644.954 229865.055 -102673.525 229750.769 -102673.525 229693.626 -102644.954 M 229950.769 -102302.096 229893.626 -102273.525 229750.769 -102273.525 229693.626 -102302.096 229665.055 -102359.239 229665.055 -102416.382 229693.626 -102473.525 229750.769 -102502.096 229893.626 -102502.096 229950.769 -102530.668 M 230493.626 -102673.525 230493.626 -102273.525 M 230236.484 -102673.525 230236.484 -102359.239 230265.055 -102302.096 230322.198 -102273.525 230407.912 -102273.525 230465.055 -102302.096 230493.626 -102330.668 M 230693.626 -102673.525 230922.198 -102673.525 M 230779.341 -102873.525 230779.341 -102359.239 230807.912 -102302.096 230865.055 -102273.525 230922.198 -102273.525 M 231207.912 -102273.525 231150.769 -102302.096 231122.198 -102330.668 231093.626 -102387.811 231093.626 -102559.239 231122.198 -102616.382 231150.769 -102644.954 231207.912 -102673.525 231293.626 -102673.525 231350.769 -102644.954 231379.341 -102616.382 231407.912 -102559.239 231407.912 -102387.811 231379.341 -102330.668 231350.769 -102302.096 231293.626 -102273.525 231207.912 -102273.525 M 223378.653 -102273.525 223378.653 -102587.811 223350.082 -102644.954 223292.939 -102673.525 223178.653 -102673.525 223121.51 -102644.954 M 223378.653 -102302.096 223321.51 -102273.525 223178.653 -102273.525 223121.51 -102302.096 223092.939 -102359.239 223092.939 -102416.382 223121.51 -102473.525 223178.653 -102502.096 223321.51 -102502.096 223378.653 -102530.668 M 223921.51 -102673.525 223921.51 -102273.525 M 223664.368 -102673.525 223664.368 -102359.239 223692.939 -102302.096 223750.082 -102273.525 223835.796 -102273.525 223892.939 -102302.096 223921.51 -102330.668 M 224121.51 -102673.525 224350.082 -102673.525 M 224207.225 -102873.525 224207.225 -102359.239 224235.796 -102302.096 224292.939 -102273.525 224350.082 -102273.525 M 224635.796 -102273.525 224578.653 -102302.096 224550.082 -102330.668 224521.51 -102387.811 224521.51 -102559.239 224550.082 -102616.382 224578.653 -102644.954 224635.796 -102673.525 224721.51 -102673.525 224778.653 -102644.954 224807.225 -102616.382 224835.796 -102559.239 224835.796 -102387.811 224807.225 -102330.668 224778.653 -102302.096 224721.51 -102273.525 224635.796 -102273.525" fill="none" stroke-width="150"/><path d="M 233407.13 -109191.19 234407.13 -109524.523 233407.13 -109857.857 M 234407.13 -110334.047 234359.511 -110238.809 234311.892 -110191.19 234216.654 -110143.571 233930.94 -110143.571 233835.702 -110191.19 233788.083 -110238.809 233740.464 -110334.047 233740.464 -110476.904 233788.083 -110572.142 233835.702 -110619.761 233930.94 -110667.38 234216.654 -110667.38 234311.892 -110619.761 234359.511 -110572.142 234407.13 -110476.904 234407.13 -110334.047 M 233740.464 -111524.523 234407.13 -111524.523 M 233740.464 -111095.952 234264.273 -111095.952 234359.511 -111143.571 234407.13 -111238.809 234407.13 -111381.666 234359.511 -111476.904 234311.892 -111524.523 M 233740.464 -111857.857 233740.464 -112238.809 M 233407.13 -112000.714 234264.273 -112000.714 234359.511 -112048.333 234407.13 -112143.571 234407.13 -112238.809" fill="none" stroke-width="200"/><path d="M 234195 -107491.666 234228.333 -107591.666 234261.666 -107625 234328.333 -107658.333 234428.333 -107658.333 234495 -107625 234528.333 -107591.666 234561.666 -107525 234561.666 -107258.333 233861.666 -107258.333 233861.666 -107491.666 233895 -107558.333 233928.333 -107591.666 233995 -107625 234061.666 -107625 234128.333 -107591.666 234161.666 -107558.333 234195 -107491.666 234195 -107258.333 M 233861.666 -107858.333 233861.666 -108258.333 M 234561.666 -108058.333 233861.666 -108058.333 M 234561.666 -108491.666 233861.666 -108491.666 234561.666 -108891.666 233861.666 -108891.666 M 233895 -104901.666 233861.666 -104835 233861.666 -104735 233895 -104635 233961.666 -104568.333 234028.333 -104535 234161.666 -104501.666 234261.666 -104501.666 234395 -104535 234461.666 -104568.333 234528.333 -104635 234561.666 -104735 234561.666 -104801.666 234528.333 -104901.666 234495 -104935 234261.666 -104935 234261.666 -104801.666 M 234561.666 -105235 233861.666 -105235 234561.666 -105635 233861.666 -105635 M 234561.666 -105968.333 233861.666 -105968.333 233861.666 -106135 233895 -106235 233961.666 -106301.666 234028.333 -106335 234161.666 -106368.333 234261.666 -106368.333 234395 -106335 234461.666 -106301.666 234528.333 -106235 234561.666 -106135 234561.666 -105968.333 M 233895 -102261.666 233861.666 -102195 233861.666 -102095 233895 -101995 233961.666 -101928.333 234028.333 -101895 234161.666 -101861.666 234261.666 -101861.666 234395 -101895 234461.666 -101928.333 234528.333 -101995 234561.666 -102095 234561.666 -102161.666 234528.333 -102261.666 234495 -102295 234261.666 -102295 234261.666 -102161.666 M 234561.666 -102595 233861.666 -102595 234561.666 -102995 233861.666 -102995 M 234561.666 -103328.333 233861.666 -103328.333 233861.666 -103495 233895 -103595 233961.666 -103661.666 234028.333 -103695 234161.666 -103728.333 234261.666 -103728.333 234395 -103695 234461.666 -103661.666 234528.333 -103595 234561.666 -103495 234561.666 -103328.333" fill="none" stroke-width="125"/><path d="M 219899.38 -109735.188 220899.38 -110068.521 219899.38 -110401.855 M 220899.38 -110735.188 220232.714 -110735.188 M 219899.38 -110735.188 219947 -110687.569 219994.619 -110735.188 219947 -110782.807 219899.38 -110735.188 219994.619 -110735.188 M 220232.714 -111211.378 220899.38 -111211.378 M 220327.952 -111211.378 220280.333 -111258.998 220232.714 -111354.236 220232.714 -111497.093 220280.333 -111592.331 220375.571 -111639.95 220899.38 -111639.95" fill="none" stroke-width="200"/><path d="M 220687.25 -107550.998 220720.583 -107650.998 220753.916 -107684.332 220820.583 -107717.665 220920.583 -107717.665 220987.25 -107684.332 221020.583 -107650.998 221053.916 -107584.332 221053.916 -107317.665 220353.916 -107317.665 220353.916 -107550.998 220387.25 -107617.665 220420.583 -107650.998 220487.25 -107684.332 220553.916 -107684.332 220620.583 -107650.998 220653.916 -107617.665 220687.25 -107550.998 220687.25 -107317.665 M 220353.916 -107917.665 220353.916 -108317.665 M 221053.916 -108117.665 220353.916 -108117.665 M 221053.916 -108550.998 220353.916 -108550.998 221053.916 -108950.998 220353.916 -108950.998 M 220387.25 -104976.332 220353.916 -104909.666 220353.916 -104809.666 220387.25 -104709.666 220453.916 -104642.999 220520.583 -104609.666 220653.916 -104576.332 220753.916 -104576.332 220887.25 -104609.666 220953.916 -104642.999 221020.583 -104709.666 221053.916 -104809.666 221053.916 -104876.332 221020.583 -104976.332 220987.25 -105009.666 220753.916 -105009.666 220753.916 -104876.332 M 221053.916 -105309.666 220353.916 -105309.666 221053.916 -105709.666 220353.916 -105709.666 M 221053.916 -106042.999 220353.916 -106042.999 220353.916 -106209.666 220387.25 -106309.666 220453.916 -106376.332 220520.583 -106409.666 220653.916 -106442.999 220753.916 -106442.999 220887.25 -106409.666 220953.916 -106376.332 221020.583 -106309.666 221053.916 -106209.666 221053.916 -106042.999" fill="none" stroke-width="125"/><path d="M 223490.558 -101002.573 223395.32 -101050.192 223347.701 -101097.811 223300.082 -101193.049 223300.082 -101478.763 223347.701 -101574.001 223395.32 -101621.62 223490.558 -101669.239 223633.415 -101669.239 223728.653 -101621.62 223776.272 -101574.001 223823.891 -101478.763 223823.891 -101193.049 223776.272 -101097.811 223728.653 -101050.192 223633.415 -101002.573 223490.558 -101002.573 M 224252.463 -101669.239 224252.463 -101002.573 M 224252.463 -101574.001 224300.082 -101621.62 224395.32 -101669.239 224538.177 -101669.239 224633.415 -101621.62 224681.034 -101526.382 224681.034 -101002.573 M 229693.626 -101002.573 229598.388 -101050.192 229550.769 -101097.811 229503.15 -101193.049 229503.15 -101478.763 229550.769 -101574.001 229598.388 -101621.62 229693.626 -101669.239 229836.484 -101669.239 229931.722 -101621.62 229979.341 -101574.001 230026.96 -101478.763 230026.96 -101193.049 229979.341 -101097.811 229931.722 -101050.192 229836.484 -101002.573 229693.626 -101002.573 M 230312.674 -101669.239 230693.626 -101669.239 M 230455.531 -101002.573 230455.531 -101859.715 230503.15 -101954.954 230598.388 -102002.573 230693.626 -102002.573 M 230884.103 -101669.239 231265.055 -101669.239 M 231026.96 -101002.573 231026.96 -101859.715 231074.579 -101954.954 231169.817 -102002.573 231265.055 -102002.573" fill="none" stroke-width="250"/><path d="M 220387.25 -102351.666 220353.916 -102285 220353.916 -102185 220387.25 -102085 220453.916 -102018.333 220520.583 -101985 220653.916 -101951.666 220753.916 -101951.666 220887.25 -101985 220953.916 -102018.333 221020.583 -102085 221053.916 -102185 221053.916 -102251.666 221020.583 -102351.666 220987.25 -102385 220753.916 -102385 220753.916 -102251.666 M 221053.916 -102685 220353.916 -102685 221053.916 -103085 220353.916 -103085 M 221053.916 -103418.333 220353.916 -103418.333 220353.916 -103585 220387.25 -103685 220453.916 -103751.666 220520.583 -103785 220653.916 -103818.333 220753.916 -103818.333 220887.25 -103785 220953.916 -103751.666 221020.583 -103685 221053.916 -103585 221053.916 -103418.333" fill="none" stroke-width="125"/><path d="M 228977.776 -106845 A 1802.776 1802.776 0 0 1 225372.224 -106845 1802.776 1802.776 0 0 1 228977.776 -106845 M 224175 -110345 224175 -103345 M 230175 -110345 224175 -110345 M 230175 -103345 230175 -110345 M 224175 -103345 230175 -103345 M 230965 -110930 229965 -110930 M 229965 -112280 230965 -112280 M 222935 -112260 223935 -112260 M 223935 -110910 222935 -110910" fill="none" stroke-width="150"/><path d="M 226735 -102915 226735 -100915 227535 -100915 227535 -102915 226735 -102915 M 228089 -100899 228089 -102931 M 226181 -102931 226181 -100899 M 228089 -100899 A 1016 1016 0 0 0 229105 -101915 1016 1016 0 0 0 228089 -102931 M 226181 -102931 A 1016 1016 0 0 0 225165 -101915 1016 1016 0 0 0 226181 -100899" fill="none" stroke-width="203.2"/><path d="M 231438.333 -105971.666 231471.666 -106071.666 231471.666 -106238.333 231438.333 -106305 231405 -106338.333 231338.333 -106371.666 231271.666 -106371.666 231205 -106338.333 231171.666 -106305 231138.333 -106238.333 231105 -106105 231071.666 -106038.333 231038.333 -106005 230971.666 -105971.666 230905 -105971.666 230838.333 -106005 230805 -106038.333 230771.666 -106105 230771.666 -106271.666 230805 -106371.666 M 230771.666 -106605 231471.666 -106771.666 230971.666 -106905 231471.666 -107038.333 230771.666 -107205 M 231471.666 -107838.333 231471.666 -107438.333 M 231471.666 -107638.333 230771.666 -107638.333 230871.666 -107571.666 230938.333 -107505 230971.666 -107438.333 M 228201.666 -110881.666 228201.666 -110548.333 227501.666 -110548.333 M 227835 -111115 227835 -111348.333 M 228201.666 -111448.333 228201.666 -111115 227501.666 -111115 227501.666 -111448.333 M 228201.666 -111748.333 227501.666 -111748.333 227501.666 -111915 227535 -112015 227601.666 -112081.666 227668.333 -112115 227801.666 -112148.333 227901.666 -112148.333 228035 -112115 228101.666 -112081.666 228168.333 -112015 228201.666 -111915 228201.666 -111748.333 M 227568.333 -112415 227535 -112448.333 227501.666 -112515 227501.666 -112681.666 227535 -112748.333 227568.333 -112781.666 227635 -112815 227701.666 -112815 227801.666 -112781.666 228201.666 -112381.666 228201.666 -112815 M 226421.666 -110911.666 226421.666 -110578.333 225721.666 -110578.333 M 226055 -111145 226055 -111378.333 M 226421.666 -111478.333 226421.666 -111145 225721.666 -111145 225721.666 -111478.333 M 226421.666 -111778.333 225721.666 -111778.333 225721.666 -111945 225755 -112045 225821.666 -112111.666 225888.333 -112145 226021.666 -112178.333 226121.666 -112178.333 226255 -112145 226321.666 -112111.666 226388.333 -112045 226421.666 -111945 226421.666 -111778.333 M 226421.666 -112845 226421.666 -112445 M 226421.666 -112645 225721.666 -112645 225821.666 -112578.333 225888.333 -112511.666 225921.666 -112445 M 221961.666 -101301.666 222461.666 -101301.666 222561.666 -101268.333 222628.333 -101201.666 222661.666 -101101.666 222661.666 -101035 M 222661.666 -101635 221961.666 -101635 221961.666 -101901.666 221995 -101968.333 222028.333 -102001.666 222095 -102035 222195 -102035 222261.666 -102001.666 222295 -101968.333 222328.333 -101901.666 222328.333 -101635 M 222661.666 -102701.666 222661.666 -102301.666 M 222661.666 -102501.666 221961.666 -102501.666 222061.666 -102435 222128.333 -102368.333 222161.666 -102301.666" fill="none" stroke-width="150"/></g></g><g id="pcb-stackup_bottom_drl1" transform="scale(25.4,25.4)"/><g id="pcb-stackup_bottom_drl2"><use xlink:href="#fOaxs_rJNK13_pad-1" x="220735" y="-112255"/><use xlink:href="#fOaxs_rJNK13_pad-1" x="223790" y="-107295"/><use xlink:href="#fOaxs_rJNK13_pad-1" x="224225" y="-104925"/><use xlink:href="#fOaxs_rJNK13_pad-1" x="226796" y="-108879"/><use xlink:href="#fOaxs_rJNK13_pad-1" x="227055" y="-105325"/><use xlink:href="#fOaxs_rJNK13_pad-1" x="227055" y="-107425"/><use xlink:href="#fOaxs_rJNK13_pad-1" x="228106" y="-107328"/><use xlink:href="#fOaxs_rJNK13_pad-1" x="228228" y="-109356"/><use xlink:href="#fOaxs_rJNK13_pad-1" x="228295" y="-105355"/><use xlink:href="#fOaxs_rJNK13_pad-1" x="228465" y="-104005"/><use xlink:href="#fOaxs_rJNK13_pad-1" x="229529" y="-108779"/><use xlink:href="#fOaxs_rJNK13_pad-1" x="232705" y="-112425"/><use xlink:href="#fOaxs_rJNK13_pad-1" x="232724" y="-107326"/><use xlink:href="#fOaxs_rJNK13_pad-2" x="218440" y="-102870"/><use xlink:href="#fOaxs_rJNK13_pad-2" x="218440" y="-105410"/><use xlink:href="#fOaxs_rJNK13_pad-2" x="218440" y="-107950"/><use xlink:href="#fOaxs_rJNK13_pad-2" x="218440" y="-110490"/><use xlink:href="#fOaxs_rJNK13_pad-2" x="236220" y="-102870"/><use xlink:href="#fOaxs_rJNK13_pad-2" x="236220" y="-105410"/><use xlink:href="#fOaxs_rJNK13_pad-2" x="236220" y="-107950"/><use xlink:href="#fOaxs_rJNK13_pad-2" x="236220" y="-110490"/></g><clipPath id="pcb-stackup_bottom_out"><path d="M 237490 -100330 217170 -100330 215900 -101600 215900 -111760 217170 -113030 237490 -113030 238760 -111760 238760 -101600 237490 -100330" fill="none" stroke-width="150"/></clipPath><mask id="pcb-stackup_bottom_mech-mask"><g fill="#000" stroke="#000"><rect x="215900" y="-113030" width="22860" height="12700" fill="#fff"/><use xlink:href="#pcb-stackup_bottom_drl1"/><use xlink:href="#pcb-stackup_bottom_drl2"/></g></mask><mask id="pcb-stackup_bottom_cf-mask"><g fill="#fff" stroke="#fff"><use xlink:href="#pcb-stackup_bottom_sm"/></g></mask><mask id="pcb-stackup_bottom_sm-mask"><g fill="#000" stroke="#000"><rect x="215900" y="-113030" width="22860" height="12700" fill="#fff"/><use xlink:href="#pcb-stackup_bottom_sm"/></g></mask></defs><g transform="translate(0,-213360) scale(1,-1)"><g mask="url(#pcb-stackup_bottom_mech-mask)" clip-path="url(#pcb-stackup_bottom_out)" transform="translate(454660,0) scale(-1,1)"><rect x="215900" y="-113030" width="22860" height="12700" fill="currentColor" class="pcb-stackup_fr4"/><use xlink:href="#pcb-stackup_bottom_cu" fill="currentColor" stroke="currentColor" class="pcb-stackup_cu"/><use xlink:href="#pcb-stackup_bottom_cu" fill="currentColor" stroke="currentColor" class="pcb-stackup_cf" mask="url(#pcb-stackup_bottom_cf-mask)"/><g mask="url(#pcb-stackup_bottom_sm-mask)"><rect x="215900" y="-113030" width="22860" height="12700" fill="currentColor" class="pcb-stackup_sm"/><use xlink:href="#pcb-stackup_bottom_ss" fill="currentColor" stroke="currentColor" class="pcb-stackup_ss"/></g></g></g></svg>