<svg id="pcb-stackup_top" version="1.1" xmlns:xlink="http://www.w3.org/1999/xlink" stroke-linecap="round" stroke-linejoin="round" stroke-width="0" fill-rule="evenodd" clip-rule="evenodd" viewBox="215900 -113030 22860 12700" width="22.86mm" height="12.7mm" xmlns="http://www.w3.org/2000/svg"><defs><style>.pcb-stackup_fr4 {color: #4D542C;}
.pcb-stackup_cu {color: lightgrey;}
.pcb-stackup_cf {color: goldenrod;}
.pcb-stackup_sm {color: #8B0000; opacity: 0.9;}
.pcb-stackup_ss {color: white;}
.pcb-stackup_sp {color: #000000; opacity: 0;}
.pcb-stackup_out {color: black;}</style><rect x="-450" y="-600" width="900" height="1200" id="zIWDCsT0DkAU_pad-11"/><rect x="-600" y="-450" width="1200" height="900" id="zIWDCsT0DkAU_pad-12"/><rect x="-1016" y="-863.6" width="2032" height="1727.2" id="zIWDCsT0DkAU_pad-13"/><rect x="-1016" y="-863.6" width="2032" height="1727.2" rx="863.6" ry="863.6" id="zIWDCsT0DkAU_pad-14"/><rect x="-600" y="-375" width="1200" height="750" id="zIWDCsT0DkAU_pad-15"/><rect x="-775" y="-300" width="1550" height="600" id="zIWDCsT0DkAU_pad-16"/><rect x="-1649.73" y="-849.63" width="3299.46" height="1699.26" id="zIWDCsT0DkAU_pad-17"/><circle cx="0" cy="0" r="350" id="zIWDCsT0DkAU_pad-18"/><rect x="-450" y="-600" width="900" height="1200" id="zIWDCsT0DkAU_pad-11"/><rect x="-600" y="-450" width="1200" height="900" id="zIWDCsT0DkAU_pad-12"/><rect x="-1016" y="-863.6" width="2032" height="1727.2" id="zIWDCsT0DkAU_pad-13"/><rect x="-1016" y="-863.6" width="2032" height="1727.2" rx="863.6" ry="863.6" id="zIWDCsT0DkAU_pad-14"/><rect x="-600" y="-375" width="1200" height="750" id="zIWDCsT0DkAU_pad-15"/><rect x="-775" y="-300" width="1550" height="600" id="zIWDCsT0DkAU_pad-16"/><rect x="-1649.73" y="-849.63" width="3299.46" height="1699.26" id="zIWDCsT0DkAU_pad-17"/><circle cx="0" cy="0" r="350" id="zIWDCsT0DkAU_pad-18"/><rect x="-650" y="-800" width="1300" height="1600" id="uIrBbRzonfry_pad-11"/><rect x="-800" y="-650" width="1600" height="1300" id="uIrBbRzonfry_pad-12"/><rect x="-1216" y="-1063.6" width="2432" height="2127.2" id="uIrBbRzonfry_pad-13"/><rect x="-1216" y="-1063.6" width="2432" height="2127.2" rx="1063.6" ry="1063.6" id="uIrBbRzonfry_pad-14"/><rect x="-800" y="-575" width="1600" height="1150" id="uIrBbRzonfry_pad-15"/><rect x="-975" y="-500" width="1950" height="1000" id="uIrBbRzonfry_pad-16"/><rect x="-1849.73" y="-1049.63" width="3699.46" height="2099.26" id="uIrBbRzonfry_pad-17"/><rect x="-450" y="-600" width="900" height="1200" id="zIWDCsT0DkAU_pad-11"/><rect x="-600" y="-450" width="1200" height="900" id="zIWDCsT0DkAU_pad-12"/><rect x="-1016" y="-863.6" width="2032" height="1727.2" id="zIWDCsT0DkAU_pad-13"/><rect x="-1016" y="-863.6" width="2032" height="1727.2" rx="863.6" ry="863.6" id="zIWDCsT0DkAU_pad-14"/><rect x="-600" y="-375" width="1200" height="750" id="zIWDCsT0DkAU_pad-15"/><rect x="-775" y="-300" width="1550" height="600" id="zIWDCsT0DkAU_pad-16"/><rect x="-1649.73" y="-849.63" width="3299.46" height="1699.26" id="zIWDCsT0DkAU_pad-17"/><circle cx="0" cy="0" r="350" id="zIWDCsT0DkAU_pad-18"/><rect x="-450" y="-600" width="900" height="1200" id="zIWDCsT0DkAU_pad-11"/><rect x="-600" y="-450" width="1200" height="900" id="zIWDCsT0DkAU_pad-12"/><rect x="-1016" y="-863.6" width="2032" height="1727.2" id="zIWDCsT0DkAU_pad-13"/><rect x="-1016" y="-863.6" width="2032" height="1727.2" rx="863.6" ry="863.6" id="zIWDCsT0DkAU_pad-14"/><rect x="-600" y="-375" width="1200" height="750" id="zIWDCsT0DkAU_pad-15"/><rect x="-775" y="-300" width="1550" height="600" id="zIWDCsT0DkAU_pad-16"/><rect x="-1649.73" y="-849.63" width="3299.46" height="1699.26" id="zIWDCsT0DkAU_pad-17"/><circle cx="0" cy="0" r="350" id="zIWDCsT0DkAU_pad-18"/><rect x="-650" y="-800" width="1300" height="1600" id="uIrBbRzonfry_pad-11"/><rect x="-800" y="-650" width="1600" height="1300" id="uIrBbRzonfry_pad-12"/><rect x="-1216" y="-1063.6" width="2432" height="2127.2" id="uIrBbRzonfry_pad-13"/><rect x="-1216" y="-1063.6" width="2432" height="2127.2" rx="1063.6" ry="1063.6" id="uIrBbRzonfry_pad-14"/><rect x="-800" y="-575" width="1600" height="1150" id="uIrBbRzonfry_pad-15"/><rect x="-975" y="-500" width="1950" height="1000" id="uIrBbRzonfry_pad-16"/><rect x="-1849.73" y="-1049.63" width="3699.46" height="2099.26" id="uIrBbRzonfry_pad-17"/><rect x="-650" y="-800" width="1300" height="1600" id="B729m0sUTyV9_pad-12"/><rect x="-800" y="-650" width="1600" height="1300" id="B729m0sUTyV9_pad-13"/><rect x="-1216" y="-1063.6" width="2432" height="2127.2" id="B729m0sUTyV9_pad-14"/><rect x="-1216" y="-1063.6" width="2432" height="2127.2" rx="1063.6" ry="1063.6" id="B729m0sUTyV9_pad-15"/><rect x="-800" y="-575" width="1600" height="1150" id="B729m0sUTyV9_pad-16"/><rect x="-975" y="-500" width="1950" height="1000" id="B729m0sUTyV9_pad-17"/><rect x="-1849.73" y="-1049.63" width="3699.46" height="2099.26" id="B729m0sUTyV9_pad-18"/><mask id="B729m0sUTyV9_clear-1" fill="#000" stroke="#000"><rect x="216815" y="-112886.666" width="21030" height="12460" fill="#fff"/><use xlink:href="#B729m0sUTyV9_pad-12" x="233485" y="-108835"/><use xlink:href="#B729m0sUTyV9_pad-12" x="233485" y="-111035"/><use xlink:href="#B729m0sUTyV9_pad-13" x="223325" y="-111155"/><use xlink:href="#B729m0sUTyV9_pad-13" x="221125" y="-111155"/><use xlink:href="#B729m0sUTyV9_pad-13" x="227530" y="-111150"/><use xlink:href="#B729m0sUTyV9_pad-13" x="225330" y="-111150"/><use xlink:href="#B729m0sUTyV9_pad-12" x="221075" y="-108995"/><use xlink:href="#B729m0sUTyV9_pad-12" x="221075" y="-106795"/><use xlink:href="#B729m0sUTyV9_pad-12" x="223015" y="-108985"/><use xlink:href="#B729m0sUTyV9_pad-12" x="223015" y="-106785"/><use xlink:href="#B729m0sUTyV9_pad-12" x="233365" y="-104415"/><use xlink:href="#B729m0sUTyV9_pad-12" x="233365" y="-106615"/><use xlink:href="#B729m0sUTyV9_pad-14" x="236220" y="-110490"/><use xlink:href="#B729m0sUTyV9_pad-15" x="236220" y="-107950"/><use xlink:href="#B729m0sUTyV9_pad-15" x="236220" y="-105410"/><use xlink:href="#B729m0sUTyV9_pad-15" x="236220" y="-102870"/><use xlink:href="#B729m0sUTyV9_pad-14" x="218440" y="-102870"/><use xlink:href="#B729m0sUTyV9_pad-15" x="218440" y="-105410"/><use xlink:href="#B729m0sUTyV9_pad-15" x="218440" y="-107950"/><use xlink:href="#B729m0sUTyV9_pad-15" x="218440" y="-110490"/><use xlink:href="#B729m0sUTyV9_pad-16" x="229575" y="-111195"/><use xlink:href="#B729m0sUTyV9_pad-16" x="231475" y="-111195"/><use xlink:href="#B729m0sUTyV9_pad-16" x="221125" y="-104355"/><use xlink:href="#B729m0sUTyV9_pad-16" x="223025" y="-104355"/><use xlink:href="#B729m0sUTyV9_pad-16" x="223085" y="-102585"/><use xlink:href="#B729m0sUTyV9_pad-16" x="221185" y="-102585"/><use xlink:href="#B729m0sUTyV9_pad-17" x="225565" y="-105350"/><use xlink:href="#B729m0sUTyV9_pad-17" x="225565" y="-106620"/><use xlink:href="#B729m0sUTyV9_pad-17" x="225565" y="-107890"/><use xlink:href="#B729m0sUTyV9_pad-17" x="225565" y="-109160"/><use xlink:href="#B729m0sUTyV9_pad-17" x="230965" y="-109160"/><use xlink:href="#B729m0sUTyV9_pad-17" x="230965" y="-107890"/><use xlink:href="#B729m0sUTyV9_pad-17" x="230965" y="-106620"/><use xlink:href="#B729m0sUTyV9_pad-17" x="230965" y="-105350"/><use xlink:href="#B729m0sUTyV9_pad-18" x="226354.18" y="-101955"/><use xlink:href="#B729m0sUTyV9_pad-18" x="231855.82" y="-101955"/></mask><rect x="-450" y="-600" width="900" height="1200" id="zIWDCsT0DkAU_pad-11"/><rect x="-600" y="-450" width="1200" height="900" id="zIWDCsT0DkAU_pad-12"/><rect x="-1016" y="-863.6" width="2032" height="1727.2" id="zIWDCsT0DkAU_pad-13"/><rect x="-1016" y="-863.6" width="2032" height="1727.2" rx="863.6" ry="863.6" id="zIWDCsT0DkAU_pad-14"/><rect x="-600" y="-375" width="1200" height="750" id="zIWDCsT0DkAU_pad-15"/><rect x="-775" y="-300" width="1550" height="600" id="zIWDCsT0DkAU_pad-16"/><rect x="-1649.73" y="-849.63" width="3299.46" height="1699.26" id="zIWDCsT0DkAU_pad-17"/><circle cx="0" cy="0" r="350" id="zIWDCsT0DkAU_pad-18"/><rect x="-450" y="-600" width="900" height="1200" id="zIWDCsT0DkAU_pad-11"/><rect x="-600" y="-450" width="1200" height="900" id="zIWDCsT0DkAU_pad-12"/><rect x="-1016" y="-863.6" width="2032" height="1727.2" id="zIWDCsT0DkAU_pad-13"/><rect x="-1016" y="-863.6" width="2032" height="1727.2" rx="863.6" ry="863.6" id="zIWDCsT0DkAU_pad-14"/><rect x="-600" y="-375" width="1200" height="750" id="zIWDCsT0DkAU_pad-15"/><rect x="-775" y="-300" width="1550" height="600" id="zIWDCsT0DkAU_pad-16"/><rect x="-1649.73" y="-849.63" width="3299.46" height="1699.26" id="zIWDCsT0DkAU_pad-17"/><circle cx="0" cy="0" r="350" id="zIWDCsT0DkAU_pad-18"/><rect x="-650" y="-800" width="1300" height="1600" id="uIrBbRzonfry_pad-11"/><rect x="-800" y="-650" width="1600" height="1300" id="uIrBbRzonfry_pad-12"/><rect x="-1216" y="-1063.6" width="2432" height="2127.2" id="uIrBbRzonfry_pad-13"/><rect x="-1216" y="-1063.6" width="2432" height="2127.2" rx="1063.6" ry="1063.6" id="uIrBbRzonfry_pad-14"/><rect x="-800" y="-575" width="1600" height="1150" id="uIrBbRzonfry_pad-15"/><rect x="-975" y="-500" width="1950" height="1000" id="uIrBbRzonfry_pad-16"/><rect x="-1849.73" y="-1049.63" width="3699.46" height="2099.26" id="uIrBbRzonfry_pad-17"/><rect x="-450" y="-600" width="900" height="1200" id="zIWDCsT0DkAU_pad-11"/><rect x="-600" y="-450" width="1200" height="900" id="zIWDCsT0DkAU_pad-12"/><rect x="-1016" y="-863.6" width="2032" height="1727.2" id="zIWDCsT0DkAU_pad-13"/><rect x="-1016" y="-863.6" width="2032" height="1727.2" rx="863.6" ry="863.6" id="zIWDCsT0DkAU_pad-14"/><rect x="-600" y="-375" width="1200" height="750" id="zIWDCsT0DkAU_pad-15"/><rect x="-775" y="-300" width="1550" height="600" id="zIWDCsT0DkAU_pad-16"/><rect x="-1649.73" y="-849.63" width="3299.46" height="1699.26" id="zIWDCsT0DkAU_pad-17"/><circle cx="0" cy="0" r="350" id="zIWDCsT0DkAU_pad-18"/><rect x="-450" y="-600" width="900" height="1200" id="zIWDCsT0DkAU_pad-11"/><rect x="-600" y="-450" width="1200" height="900" id="zIWDCsT0DkAU_pad-12"/><rect x="-1016" y="-863.6" width="2032" height="1727.2" id="zIWDCsT0DkAU_pad-13"/><rect x="-1016" y="-863.6" width="2032" height="1727.2" rx="863.6" ry="863.6" id="zIWDCsT0DkAU_pad-14"/><rect x="-600" y="-375" width="1200" height="750" id="zIWDCsT0DkAU_pad-15"/><rect x="-775" y="-300" width="1550" height="600" id="zIWDCsT0DkAU_pad-16"/><rect x="-1649.73" y="-849.63" width="3299.46" height="1699.26" id="zIWDCsT0DkAU_pad-17"/><circle cx="0" cy="0" r="350" id="zIWDCsT0DkAU_pad-18"/><rect x="-650" y="-800" width="1300" height="1600" id="uIrBbRzonfry_pad-11"/><rect x="-800" y="-650" width="1600" height="1300" id="uIrBbRzonfry_pad-12"/><rect x="-1216" y="-1063.6" width="2432" height="2127.2" id="uIrBbRzonfry_pad-13"/><rect x="-1216" y="-1063.6" width="2432" height="2127.2" rx="1063.6" ry="1063.6" id="uIrBbRzonfry_pad-14"/><rect x="-800" y="-575" width="1600" height="1150" id="uIrBbRzonfry_pad-15"/><rect x="-975" y="-500" width="1950" height="1000" id="uIrBbRzonfry_pad-16"/><rect x="-1849.73" y="-1049.63" width="3699.46" height="2099.26" id="uIrBbRzonfry_pad-17"/><rect x="-650" y="-800" width="1300" height="1600" id="B729m0sUTyV9_pad-12"/><rect x="-800" y="-650" width="1600" height="1300" id="B729m0sUTyV9_pad-13"/><rect x="-1216" y="-1063.6" width="2432" height="2127.2" id="B729m0sUTyV9_pad-14"/><rect x="-1216" y="-1063.6" width="2432" height="2127.2" rx="1063.6" ry="1063.6" id="B729m0sUTyV9_pad-15"/><rect x="-800" y="-575" width="1600" height="1150" id="B729m0sUTyV9_pad-16"/><rect x="-975" y="-500" width="1950" height="1000" id="B729m0sUTyV9_pad-17"/><rect x="-1849.73" y="-1049.63" width="3699.46" height="2099.26" id="B729m0sUTyV9_pad-18"/><mask id="B729m0sUTyV9_clear-1" fill="#000" stroke="#000"><rect x="216815" y="-112886.666" width="21030" height="12460" fill="#fff"/><use xlink:href="#B729m0sUTyV9_pad-12" x="233485" y="-108835"/><use xlink:href="#B729m0sUTyV9_pad-12" x="233485" y="-111035"/><use xlink:href="#B729m0sUTyV9_pad-13" x="223325" y="-111155"/><use xlink:href="#B729m0sUTyV9_pad-13" x="221125" y="-111155"/><use xlink:href="#B729m0sUTyV9_pad-13" x="227530" y="-111150"/><use xlink:href="#B729m0sUTyV9_pad-13" x="225330" y="-111150"/><use xlink:href="#B729m0sUTyV9_pad-12" x="221075" y="-108995"/><use xlink:href="#B729m0sUTyV9_pad-12" x="221075" y="-106795"/><use xlink:href="#B729m0sUTyV9_pad-12" x="223015" y="-108985"/><use xlink:href="#B729m0sUTyV9_pad-12" x="223015" y="-106785"/><use xlink:href="#B729m0sUTyV9_pad-12" x="233365" y="-104415"/><use xlink:href="#B729m0sUTyV9_pad-12" x="233365" y="-106615"/><use xlink:href="#B729m0sUTyV9_pad-14" x="236220" y="-110490"/><use xlink:href="#B729m0sUTyV9_pad-15" x="236220" y="-107950"/><use xlink:href="#B729m0sUTyV9_pad-15" x="236220" y="-105410"/><use xlink:href="#B729m0sUTyV9_pad-15" x="236220" y="-102870"/><use xlink:href="#B729m0sUTyV9_pad-14" x="218440" y="-102870"/><use xlink:href="#B729m0sUTyV9_pad-15" x="218440" y="-105410"/><use xlink:href="#B729m0sUTyV9_pad-15" x="218440" y="-107950"/><use xlink:href="#B729m0sUTyV9_pad-15" x="218440" y="-110490"/><use xlink:href="#B729m0sUTyV9_pad-16" x="229575" y="-111195"/><use xlink:href="#B729m0sUTyV9_pad-16" x="231475" y="-111195"/><use xlink:href="#B729m0sUTyV9_pad-16" x="221125" y="-104355"/><use xlink:href="#B729m0sUTyV9_pad-16" x="223025" y="-104355"/><use xlink:href="#B729m0sUTyV9_pad-16" x="223085" y="-102585"/><use xlink:href="#B729m0sUTyV9_pad-16" x="221185" y="-102585"/><use xlink:href="#B729m0sUTyV9_pad-17" x="225565" y="-105350"/><use xlink:href="#B729m0sUTyV9_pad-17" x="225565" y="-106620"/><use xlink:href="#B729m0sUTyV9_pad-17" x="225565" y="-107890"/><use xlink:href="#B729m0sUTyV9_pad-17" x="225565" y="-109160"/><use xlink:href="#B729m0sUTyV9_pad-17" x="230965" y="-109160"/><use xlink:href="#B729m0sUTyV9_pad-17" x="230965" y="-107890"/><use xlink:href="#B729m0sUTyV9_pad-17" x="230965" y="-106620"/><use xlink:href="#B729m0sUTyV9_pad-17" x="230965" y="-105350"/><use xlink:href="#B729m0sUTyV9_pad-18" x="226354.18" y="-101955"/><use xlink:href="#B729m0sUTyV9_pad-18" x="231855.82" y="-101955"/></mask><rect x="-450" y="-600" width="900" height="1200" id="zIWDCsT0DkAU_pad-11"/><rect x="-600" y="-450" width="1200" height="900" id="zIWDCsT0DkAU_pad-12"/><rect x="-1016" y="-863.6" width="2032" height="1727.2" id="zIWDCsT0DkAU_pad-13"/><rect x="-1016" y="-863.6" width="2032" height="1727.2" rx="863.6" ry="863.6" id="zIWDCsT0DkAU_pad-14"/><rect x="-600" y="-375" width="1200" height="750" id="zIWDCsT0DkAU_pad-15"/><rect x="-775" y="-300" width="1550" height="600" id="zIWDCsT0DkAU_pad-16"/><rect x="-1649.73" y="-849.63" width="3299.46" height="1699.26" id="zIWDCsT0DkAU_pad-17"/><circle cx="0" cy="0" r="350" id="zIWDCsT0DkAU_pad-18"/><rect x="-450" y="-600" width="900" height="1200" id="zIWDCsT0DkAU_pad-11"/><rect x="-600" y="-450" width="1200" height="900" id="zIWDCsT0DkAU_pad-12"/><rect x="-1016" y="-863.6" width="2032" height="1727.2" id="zIWDCsT0DkAU_pad-13"/><rect x="-1016" y="-863.6" width="2032" height="1727.2" rx="863.6" ry="863.6" id="zIWDCsT0DkAU_pad-14"/><rect x="-600" y="-375" width="1200" height="750" id="zIWDCsT0DkAU_pad-15"/><rect x="-775" y="-300" width="1550" height="600" id="zIWDCsT0DkAU_pad-16"/><rect x="-1649.73" y="-849.63" width="3299.46" height="1699.26" id="zIWDCsT0DkAU_pad-17"/><circle cx="0" cy="0" r="350" id="zIWDCsT0DkAU_pad-18"/><rect x="-650" y="-800" width="1300" height="1600" id="uIrBbRzonfry_pad-11"/><rect x="-800" y="-650" width="1600" height="1300" id="uIrBbRzonfry_pad-12"/><rect x="-1216" y="-1063.6" width="2432" height="2127.2" id="uIrBbRzonfry_pad-13"/><rect x="-1216" y="-1063.6" width="2432" height="2127.2" rx="1063.6" ry="1063.6" id="uIrBbRzonfry_pad-14"/><rect x="-800" y="-575" width="1600" height="1150" id="uIrBbRzonfry_pad-15"/><rect x="-975" y="-500" width="1950" height="1000" id="uIrBbRzonfry_pad-16"/><rect x="-1849.73" y="-1049.63" width="3699.46" height="2099.26" id="uIrBbRzonfry_pad-17"/><rect x="-450" y="-600" width="900" height="1200" id="zIWDCsT0DkAU_pad-11"/><rect x="-600" y="-450" width="1200" height="900" id="zIWDCsT0DkAU_pad-12"/><rect x="-1016" y="-863.6" width="2032" height="1727.2" id="zIWDCsT0DkAU_pad-13"/><rect x="-1016" y="-863.6" width="2032" height="1727.2" rx="863.6" ry="863.6" id="zIWDCsT0DkAU_pad-14"/><rect x="-600" y="-375" width="1200" height="750" id="zIWDCsT0DkAU_pad-15"/><rect x="-775" y="-300" width="1550" height="600" id="zIWDCsT0DkAU_pad-16"/><rect x="-1649.73" y="-849.63" width="3299.46" height="1699.26" id="zIWDCsT0DkAU_pad-17"/><circle cx="0" cy="0" r="350" id="zIWDCsT0DkAU_pad-18"/><rect x="-450" y="-600" width="900" height="1200" id="zIWDCsT0DkAU_pad-11"/><rect x="-600" y="-450" width="1200" height="900" id="zIWDCsT0DkAU_pad-12"/><rect x="-1016" y="-863.6" width="2032" height="1727.2" id="zIWDCsT0DkAU_pad-13"/><rect x="-1016" y="-863.6" width="2032" height="1727.2" rx="863.6" ry="863.6" id="zIWDCsT0DkAU_pad-14"/><rect x="-600" y="-375" width="1200" height="750" id="zIWDCsT0DkAU_pad-15"/><rect x="-775" y="-300" width="1550" height="600" id="zIWDCsT0DkAU_pad-16"/><rect x="-1649.73" y="-849.63" width="3299.46" height="1699.26" id="zIWDCsT0DkAU_pad-17"/><circle cx="0" cy="0" r="350" id="zIWDCsT0DkAU_pad-18"/><rect x="-650" y="-800" width="1300" height="1600" id="uIrBbRzonfry_pad-11"/><rect x="-800" y="-650" width="1600" height="1300" id="uIrBbRzonfry_pad-12"/><rect x="-1216" y="-1063.6" width="2432" height="2127.2" id="uIrBbRzonfry_pad-13"/><rect x="-1216" y="-1063.6" width="2432" height="2127.2" rx="1063.6" ry="1063.6" id="uIrBbRzonfry_pad-14"/><rect x="-800" y="-575" width="1600" height="1150" id="uIrBbRzonfry_pad-15"/><rect x="-975" y="-500" width="1950" height="1000" id="uIrBbRzonfry_pad-16"/><rect x="-1849.73" y="-1049.63" width="3699.46" height="2099.26" id="uIrBbRzonfry_pad-17"/><rect x="-650" y="-800" width="1300" height="1600" id="B729m0sUTyV9_pad-12"/><rect x="-800" y="-650" width="1600" height="1300" id="B729m0sUTyV9_pad-13"/><rect x="-1216" y="-1063.6" width="2432" height="2127.2" id="B729m0sUTyV9_pad-14"/><rect x="-1216" y="-1063.6" width="2432" height="2127.2" rx="1063.6" ry="1063.6" id="B729m0sUTyV9_pad-15"/><rect x="-800" y="-575" width="1600" height="1150" id="B729m0sUTyV9_pad-16"/><rect x="-975" y="-500" width="1950" height="1000" id="B729m0sUTyV9_pad-17"/><rect x="-1849.73" y="-1049.63" width="3699.46" height="2099.26" id="B729m0sUTyV9_pad-18"/><mask id="B729m0sUTyV9_clear-1" fill="#000" stroke="#000"><rect x="216815" y="-112886.666" width="21030" height="12460" fill="#fff"/><use xlink:href="#B729m0sUTyV9_pad-12" x="233485" y="-108835"/><use xlink:href="#B729m0sUTyV9_pad-12" x="233485" y="-111035"/><use xlink:href="#B729m0sUTyV9_pad-13" x="223325" y="-111155"/><use xlink:href="#B729m0sUTyV9_pad-13" x="221125" y="-111155"/><use xlink:href="#B729m0sUTyV9_pad-13" x="227530" y="-111150"/><use xlink:href="#B729m0sUTyV9_pad-13" x="225330" y="-111150"/><use xlink:href="#B729m0sUTyV9_pad-12" x="221075" y="-108995"/><use xlink:href="#B729m0sUTyV9_pad-12" x="221075" y="-106795"/><use xlink:href="#B729m0sUTyV9_pad-12" x="223015" y="-108985"/><use xlink:href="#B729m0sUTyV9_pad-12" x="223015" y="-106785"/><use xlink:href="#B729m0sUTyV9_pad-12" x="233365" y="-104415"/><use xlink:href="#B729m0sUTyV9_pad-12" x="233365" y="-106615"/><use xlink:href="#B729m0sUTyV9_pad-14" x="236220" y="-110490"/><use xlink:href="#B729m0sUTyV9_pad-15" x="236220" y="-107950"/><use xlink:href="#B729m0sUTyV9_pad-15" x="236220" y="-105410"/><use xlink:href="#B729m0sUTyV9_pad-15" x="236220" y="-102870"/><use xlink:href="#B729m0sUTyV9_pad-14" x="218440" y="-102870"/><use xlink:href="#B729m0sUTyV9_pad-15" x="218440" y="-105410"/><use xlink:href="#B729m0sUTyV9_pad-15" x="218440" y="-107950"/><use xlink:href="#B729m0sUTyV9_pad-15" x="218440" y="-110490"/><use xlink:href="#B729m0sUTyV9_pad-16" x="229575" y="-111195"/><use xlink:href="#B729m0sUTyV9_pad-16" x="231475" y="-111195"/><use xlink:href="#B729m0sUTyV9_pad-16" x="221125" y="-104355"/><use xlink:href="#B729m0sUTyV9_pad-16" x="223025" y="-104355"/><use xlink:href="#B729m0sUTyV9_pad-16" x="223085" y="-102585"/><use xlink:href="#B729m0sUTyV9_pad-16" x="221185" y="-102585"/><use xlink:href="#B729m0sUTyV9_pad-17" x="225565" y="-105350"/><use xlink:href="#B729m0sUTyV9_pad-17" x="225565" y="-106620"/><use xlink:href="#B729m0sUTyV9_pad-17" x="225565" y="-107890"/><use xlink:href="#B729m0sUTyV9_pad-17" x="225565" y="-109160"/><use xlink:href="#B729m0sUTyV9_pad-17" x="230965" y="-109160"/><use xlink:href="#B729m0sUTyV9_pad-17" x="230965" y="-107890"/><use xlink:href="#B729m0sUTyV9_pad-17" x="230965" y="-106620"/><use xlink:href="#B729m0sUTyV9_pad-17" x="230965" y="-105350"/><use xlink:href="#B729m0sUTyV9_pad-18" x="226354.18" y="-101955"/><use xlink:href="#B729m0sUTyV9_pad-18" x="231855.82" y="-101955"/></mask><rect x="-450" y="-600" width="900" height="1200" id="zIWDCsT0DkAU_pad-11"/><rect x="-600" y="-450" width="1200" height="900" id="zIWDCsT0DkAU_pad-12"/><rect x="-1016" y="-863.6" width="2032" height="1727.2" id="zIWDCsT0DkAU_pad-13"/><rect x="-1016" y="-863.6" width="2032" height="1727.2" rx="863.6" ry="863.6" id="zIWDCsT0DkAU_pad-14"/><rect x="-600" y="-375" width="1200" height="750" id="zIWDCsT0DkAU_pad-15"/><rect x="-775" y="-300" width="1550" height="600" id="zIWDCsT0DkAU_pad-16"/><rect x="-1649.73" y="-849.63" width="3299.46" height="1699.26" id="zIWDCsT0DkAU_pad-17"/><circle cx="0" cy="0" r="350" id="zIWDCsT0DkAU_pad-18"/><rect x="-450" y="-600" width="900" height="1200" id="zIWDCsT0DkAU_pad-11"/><rect x="-600" y="-450" width="1200" height="900" id="zIWDCsT0DkAU_pad-12"/><rect x="-1016" y="-863.6" width="2032" height="1727.2" id="zIWDCsT0DkAU_pad-13"/><rect x="-1016" y="-863.6" width="2032" height="1727.2" rx="863.6" ry="863.6" id="zIWDCsT0DkAU_pad-14"/><rect x="-600" y="-375" width="1200" height="750" id="zIWDCsT0DkAU_pad-15"/><rect x="-775" y="-300" width="1550" height="600" id="zIWDCsT0DkAU_pad-16"/><rect x="-1649.73" y="-849.63" width="3299.46" height="1699.26" id="zIWDCsT0DkAU_pad-17"/><circle cx="0" cy="0" r="350" id="zIWDCsT0DkAU_pad-18"/><rect x="-650" y="-800" width="1300" height="1600" id="uIrBbRzonfry_pad-11"/><rect x="-800" y="-650" width="1600" height="1300" id="uIrBbRzonfry_pad-12"/><rect x="-1216" y="-1063.6" width="2432" height="2127.2" id="uIrBbRzonfry_pad-13"/><rect x="-1216" y="-1063.6" width="2432" height="2127.2" rx="1063.6" ry="1063.6" id="uIrBbRzonfry_pad-14"/><rect x="-800" y="-575" width="1600" height="1150" id="uIrBbRzonfry_pad-15"/><rect x="-975" y="-500" width="1950" height="1000" id="uIrBbRzonfry_pad-16"/><rect x="-1849.73" y="-1049.63" width="3699.46" height="2099.26" id="uIrBbRzonfry_pad-17"/><rect x="-450" y="-600" width="900" height="1200" id="zIWDCsT0DkAU_pad-11"/><rect x="-600" y="-450" width="1200" height="900" id="zIWDCsT0DkAU_pad-12"/><rect x="-1016" y="-863.6" width="2032" height="1727.2" id="zIWDCsT0DkAU_pad-13"/><rect x="-1016" y="-863.6" width="2032" height="1727.2" rx="863.6" ry="863.6" id="zIWDCsT0DkAU_pad-14"/><rect x="-600" y="-375" width="1200" height="750" id="zIWDCsT0DkAU_pad-15"/><rect x="-775" y="-300" width="1550" height="600" id="zIWDCsT0DkAU_pad-16"/><rect x="-1649.73" y="-849.63" width="3299.46" height="1699.26" id="zIWDCsT0DkAU_pad-17"/><circle cx="0" cy="0" r="350" id="zIWDCsT0DkAU_pad-18"/><rect x="-450" y="-600" width="900" height="1200" id="zIWDCsT0DkAU_pad-11"/><rect x="-600" y="-450" width="1200" height="900" id="zIWDCsT0DkAU_pad-12"/><rect x="-1016" y="-863.6" width="2032" height="1727.2" id="zIWDCsT0DkAU_pad-13"/><rect x="-1016" y="-863.6" width="2032" height="1727.2" rx="863.6" ry="863.6" id="zIWDCsT0DkAU_pad-14"/><rect x="-600" y="-375" width="1200" height="750" id="zIWDCsT0DkAU_pad-15"/><rect x="-775" y="-300" width="1550" height="600" id="zIWDCsT0DkAU_pad-16"/><rect x="-1649.73" y="-849.63" width="3299.46" height="1699.26" id="zIWDCsT0DkAU_pad-17"/><circle cx="0" cy="0" r="350" id="zIWDCsT0DkAU_pad-18"/><rect x="-650" y="-800" width="1300" height="1600" id="uIrBbRzonfry_pad-11"/><rect x="-800" y="-650" width="1600" height="1300" id="uIrBbRzonfry_pad-12"/><rect x="-1216" y="-1063.6" width="2432" height="2127.2" id="uIrBbRzonfry_pad-13"/><rect x="-1216" y="-1063.6" width="2432" height="2127.2" rx="1063.6" ry="1063.6" id="uIrBbRzonfry_pad-14"/><rect x="-800" y="-575" width="1600" height="1150" id="uIrBbRzonfry_pad-15"/><rect x="-975" y="-500" width="1950" height="1000" id="uIrBbRzonfry_pad-16"/><rect x="-1849.73" y="-1049.63" width="3699.46" height="2099.26" id="uIrBbRzonfry_pad-17"/><rect x="-650" y="-800" width="1300" height="1600" id="B729m0sUTyV9_pad-12"/><rect x="-800" y="-650" width="1600" height="1300" id="B729m0sUTyV9_pad-13"/><rect x="-1216" y="-1063.6" width="2432" height="2127.2" id="B729m0sUTyV9_pad-14"/><rect x="-1216" y="-1063.6" width="2432" height="2127.2" rx="1063.6" ry="1063.6" id="B729m0sUTyV9_pad-15"/><rect x="-800" y="-575" width="1600" height="1150" id="B729m0sUTyV9_pad-16"/><rect x="-975" y="-500" width="1950" height="1000" id="B729m0sUTyV9_pad-17"/><rect x="-1849.73" y="-1049.63" width="3699.46" height="2099.26" id="B729m0sUTyV9_pad-18"/><mask id="B729m0sUTyV9_clear-1" fill="#000" stroke="#000"><rect x="216815" y="-112886.666" width="21030" height="12460" fill="#fff"/><use xlink:href="#B729m0sUTyV9_pad-12" x="233485" y="-108835"/><use xlink:href="#B729m0sUTyV9_pad-12" x="233485" y="-111035"/><use xlink:href="#B729m0sUTyV9_pad-13" x="223325" y="-111155"/><use xlink:href="#B729m0sUTyV9_pad-13" x="221125" y="-111155"/><use xlink:href="#B729m0sUTyV9_pad-13" x="227530" y="-111150"/><use xlink:href="#B729m0sUTyV9_pad-13" x="225330" y="-111150"/><use xlink:href="#B729m0sUTyV9_pad-12" x="221075" y="-108995"/><use xlink:href="#B729m0sUTyV9_pad-12" x="221075" y="-106795"/><use xlink:href="#B729m0sUTyV9_pad-12" x="223015" y="-108985"/><use xlink:href="#B729m0sUTyV9_pad-12" x="223015" y="-106785"/><use xlink:href="#B729m0sUTyV9_pad-12" x="233365" y="-104415"/><use xlink:href="#B729m0sUTyV9_pad-12" x="233365" y="-106615"/><use xlink:href="#B729m0sUTyV9_pad-14" x="236220" y="-110490"/><use xlink:href="#B729m0sUTyV9_pad-15" x="236220" y="-107950"/><use xlink:href="#B729m0sUTyV9_pad-15" x="236220" y="-105410"/><use xlink:href="#B729m0sUTyV9_pad-15" x="236220" y="-102870"/><use xlink:href="#B729m0sUTyV9_pad-14" x="218440" y="-102870"/><use xlink:href="#B729m0sUTyV9_pad-15" x="218440" y="-105410"/><use xlink:href="#B729m0sUTyV9_pad-15" x="218440" y="-107950"/><use xlink:href="#B729m0sUTyV9_pad-15" x="218440" y="-110490"/><use xlink:href="#B729m0sUTyV9_pad-16" x="229575" y="-111195"/><use xlink:href="#B729m0sUTyV9_pad-16" x="231475" y="-111195"/><use xlink:href="#B729m0sUTyV9_pad-16" x="221125" y="-104355"/><use xlink:href="#B729m0sUTyV9_pad-16" x="223025" y="-104355"/><use xlink:href="#B729m0sUTyV9_pad-16" x="223085" y="-102585"/><use xlink:href="#B729m0sUTyV9_pad-16" x="221185" y="-102585"/><use xlink:href="#B729m0sUTyV9_pad-17" x="225565" y="-105350"/><use xlink:href="#B729m0sUTyV9_pad-17" x="225565" y="-106620"/><use xlink:href="#B729m0sUTyV9_pad-17" x="225565" y="-107890"/><use xlink:href="#B729m0sUTyV9_pad-17" x="225565" y="-109160"/><use xlink:href="#B729m0sUTyV9_pad-17" x="230965" y="-109160"/><use xlink:href="#B729m0sUTyV9_pad-17" x="230965" y="-107890"/><use xlink:href="#B729m0sUTyV9_pad-17" x="230965" y="-106620"/><use xlink:href="#B729m0sUTyV9_pad-17" x="230965" y="-105350"/><use xlink:href="#B729m0sUTyV9_pad-18" x="226354.18" y="-101955"/><use xlink:href="#B729m0sUTyV9_pad-18" x="231855.82" y="-101955"/></mask><circle cx="0" cy="0" r="250" id="fOaxs_rJNK13_pad-1"/><circle cx="0" cy="0" r="508" id="fOaxs_rJNK13_pad-2"/><rect x="-450" y="-600" width="900" height="1200" id="zIWDCsT0DkAU_pad-11"/><rect x="-600" y="-450" width="1200" height="900" id="zIWDCsT0DkAU_pad-12"/><rect x="-1016" y="-863.6" width="2032" height="1727.2" id="zIWDCsT0DkAU_pad-13"/><rect x="-1016" y="-863.6" width="2032" height="1727.2" rx="863.6" ry="863.6" id="zIWDCsT0DkAU_pad-14"/><rect x="-600" y="-375" width="1200" height="750" id="zIWDCsT0DkAU_pad-15"/><rect x="-775" y="-300" width="1550" height="600" id="zIWDCsT0DkAU_pad-16"/><rect x="-1649.73" y="-849.63" width="3299.46" height="1699.26" id="zIWDCsT0DkAU_pad-17"/><circle cx="0" cy="0" r="350" id="zIWDCsT0DkAU_pad-18"/><rect x="-450" y="-600" width="900" height="1200" id="zIWDCsT0DkAU_pad-11"/><rect x="-600" y="-450" width="1200" height="900" id="zIWDCsT0DkAU_pad-12"/><rect x="-1016" y="-863.6" width="2032" height="1727.2" id="zIWDCsT0DkAU_pad-13"/><rect x="-1016" y="-863.6" width="2032" height="1727.2" rx="863.6" ry="863.6" id="zIWDCsT0DkAU_pad-14"/><rect x="-600" y="-375" width="1200" height="750" id="zIWDCsT0DkAU_pad-15"/><rect x="-775" y="-300" width="1550" height="600" id="zIWDCsT0DkAU_pad-16"/><rect x="-1649.73" y="-849.63" width="3299.46" height="1699.26" id="zIWDCsT0DkAU_pad-17"/><circle cx="0" cy="0" r="350" id="zIWDCsT0DkAU_pad-18"/><rect x="-650" y="-800" width="1300" height="1600" id="uIrBbRzonfry_pad-11"/><rect x="-800" y="-650" width="1600" height="1300" id="uIrBbRzonfry_pad-12"/><rect x="-1216" y="-1063.6" width="2432" height="2127.2" id="uIrBbRzonfry_pad-13"/><rect x="-1216" y="-1063.6" width="2432" height="2127.2" rx="1063.6" ry="1063.6" id="uIrBbRzonfry_pad-14"/><rect x="-800" y="-575" width="1600" height="1150" id="uIrBbRzonfry_pad-15"/><rect x="-975" y="-500" width="1950" height="1000" id="uIrBbRzonfry_pad-16"/><rect x="-1849.73" y="-1049.63" width="3699.46" height="2099.26" id="uIrBbRzonfry_pad-17"/><rect x="-450" y="-600" width="900" height="1200" id="zIWDCsT0DkAU_pad-11"/><rect x="-600" y="-450" width="1200" height="900" id="zIWDCsT0DkAU_pad-12"/><rect x="-1016" y="-863.6" width="2032" height="1727.2" id="zIWDCsT0DkAU_pad-13"/><rect x="-1016" y="-863.6" width="2032" height="1727.2" rx="863.6" ry="863.6" id="zIWDCsT0DkAU_pad-14"/><rect x="-600" y="-375" width="1200" height="750" id="zIWDCsT0DkAU_pad-15"/><rect x="-775" y="-300" width="1550" height="600" id="zIWDCsT0DkAU_pad-16"/><rect x="-1649.73" y="-849.63" width="3299.46" height="1699.26" id="zIWDCsT0DkAU_pad-17"/><circle cx="0" cy="0" r="350" id="zIWDCsT0DkAU_pad-18"/><rect x="-450" y="-600" width="900" height="1200" id="zIWDCsT0DkAU_pad-11"/><rect x="-600" y="-450" width="1200" height="900" id="zIWDCsT0DkAU_pad-12"/><rect x="-1016" y="-863.6" width="2032" height="1727.2" id="zIWDCsT0DkAU_pad-13"/><rect x="-1016" y="-863.6" width="2032" height="1727.2" rx="863.6" ry="863.6" id="zIWDCsT0DkAU_pad-14"/><rect x="-600" y="-375" width="1200" height="750" id="zIWDCsT0DkAU_pad-15"/><rect x="-775" y="-300" width="1550" height="600" id="zIWDCsT0DkAU_pad-16"/><rect x="-1649.73" y="-849.63" width="3299.46" height="1699.26" id="zIWDCsT0DkAU_pad-17"/><circle cx="0" cy="0" r="350" id="zIWDCsT0DkAU_pad-18"/><rect x="-650" y="-800" width="1300" height="1600" id="uIrBbRzonfry_pad-11"/><rect x="-800" y="-650" width="1600" height="1300" id="uIrBbRzonfry_pad-12"/><rect x="-1216" y="-1063.6" width="2432" height="2127.2" id="uIrBbRzonfry_pad-13"/><rect x="-1216" y="-1063.6" width="2432" height="2127.2" rx="1063.6" ry="1063.6" id="uIrBbRzonfry_pad-14"/><rect x="-800" y="-575" width="1600" height="1150" id="uIrBbRzonfry_pad-15"/><rect x="-975" y="-500" width="1950" height="1000" id="uIrBbRzonfry_pad-16"/><rect x="-1849.73" y="-1049.63" width="3699.46" height="2099.26" id="uIrBbRzonfry_pad-17"/><rect x="-650" y="-800" width="1300" height="1600" id="B729m0sUTyV9_pad-12"/><rect x="-800" y="-650" width="1600" height="1300" id="B729m0sUTyV9_pad-13"/><rect x="-1216" y="-1063.6" width="2432" height="2127.2" id="B729m0sUTyV9_pad-14"/><rect x="-1216" y="-1063.6" width="2432" height="2127.2" rx="1063.6" ry="1063.6" id="B729m0sUTyV9_pad-15"/><rect x="-800" y="-575" width="1600" height="1150" id="B729m0sUTyV9_pad-16"/><rect x="-975" y="-500" width="1950" height="1000" id="B729m0sUTyV9_pad-17"/><rect x="-1849.73" y="-1049.63" width="3699.46" height="2099.26" id="B729m0sUTyV9_pad-18"/><mask id="B729m0sUTyV9_clear-1" fill="#000" stroke="#000"><rect x="216815" y="-112886.666" width="21030" height="12460" fill="#fff"/><use xlink:href="#B729m0sUTyV9_pad-12" x="233485" y="-108835"/><use xlink:href="#B729m0sUTyV9_pad-12" x="233485" y="-111035"/><use xlink:href="#B729m0sUTyV9_pad-13" x="223325" y="-111155"/><use xlink:href="#B729m0sUTyV9_pad-13" x="221125" y="-111155"/><use xlink:href="#B729m0sUTyV9_pad-13" x="227530" y="-111150"/><use xlink:href="#B729m0sUTyV9_pad-13" x="225330" y="-111150"/><use xlink:href="#B729m0sUTyV9_pad-12" x="221075" y="-108995"/><use xlink:href="#B729m0sUTyV9_pad-12" x="221075" y="-106795"/><use xlink:href="#B729m0sUTyV9_pad-12" x="223015" y="-108985"/><use xlink:href="#B729m0sUTyV9_pad-12" x="223015" y="-106785"/><use xlink:href="#B729m0sUTyV9_pad-12" x="233365" y="-104415"/><use xlink:href="#B729m0sUTyV9_pad-12" x="233365" y="-106615"/><use xlink:href="#B729m0sUTyV9_pad-14" x="236220" y="-110490"/><use xlink:href="#B729m0sUTyV9_pad-15" x="236220" y="-107950"/><use xlink:href="#B729m0sUTyV9_pad-15" x="236220" y="-105410"/><use xlink:href="#B729m0sUTyV9_pad-15" x="236220" y="-102870"/><use xlink:href="#B729m0sUTyV9_pad-14" x="218440" y="-102870"/><use xlink:href="#B729m0sUTyV9_pad-15" x="218440" y="-105410"/><use xlink:href="#B729m0sUTyV9_pad-15" x="218440" y="-107950"/><use xlink:href="#B729m0sUTyV9_pad-15" x="218440" y="-110490"/><use xlink:href="#B729m0sUTyV9_pad-16" x="229575" y="-111195"/><use xlink:href="#B729m0sUTyV9_pad-16" x="231475" y="-111195"/><use xlink:href="#B729m0sUTyV9_pad-16" x="221125" y="-104355"/><use xlink:href="#B729m0sUTyV9_pad-16" x="223025" y="-104355"/><use xlink:href="#B729m0sUTyV9_pad-16" x="223085" y="-102585"/><use xlink:href="#B729m0sUTyV9_pad-16" x="221185" y="-102585"/><use xlink:href="#B729m0sUTyV9_pad-17" x="225565" y="-105350"/><use xlink:href="#B729m0sUTyV9_pad-17" x="225565" y="-106620"/><use xlink:href="#B729m0sUTyV9_pad-17" x="225565" y="-107890"/><use xlink:href="#B729m0sUTyV9_pad-17" x="225565" y="-109160"/><use xlink:href="#B729m0sUTyV9_pad-17" x="230965" y="-109160"/><use xlink:href="#B729m0sUTyV9_pad-17" x="230965" y="-107890"/><use xlink:href="#B729m0sUTyV9_pad-17" x="230965" y="-106620"/><use xlink:href="#B729m0sUTyV9_pad-17" x="230965" y="-105350"/><use xlink:href="#B729m0sUTyV9_pad-18" x="226354.18" y="-101955"/><use xlink:href="#B729m0sUTyV9_pad-18" x="231855.82" y="-101955"/></mask><rect x="-450" y="-600" width="900" height="1200" id="zIWDCsT0DkAU_pad-11"/><rect x="-600" y="-450" width="1200" height="900" id="zIWDCsT0DkAU_pad-12"/><rect x="-1016" y="-863.6" width="2032" height="1727.2" id="zIWDCsT0DkAU_pad-13"/><rect x="-1016" y="-863.6" width="2032" height="1727.2" rx="863.6" ry="863.6" id="zIWDCsT0DkAU_pad-14"/><rect x="-600" y="-375" width="1200" height="750" id="zIWDCsT0DkAU_pad-15"/><rect x="-775" y="-300" width="1550" height="600" id="zIWDCsT0DkAU_pad-16"/><rect x="-1649.73" y="-849.63" width="3299.46" height="1699.26" id="zIWDCsT0DkAU_pad-17"/><circle cx="0" cy="0" r="350" id="zIWDCsT0DkAU_pad-18"/><rect x="-450" y="-600" width="900" height="1200" id="zIWDCsT0DkAU_pad-11"/><rect x="-600" y="-450" width="1200" height="900" id="zIWDCsT0DkAU_pad-12"/><rect x="-1016" y="-863.6" width="2032" height="1727.2" id="zIWDCsT0DkAU_pad-13"/><rect x="-1016" y="-863.6" width="2032" height="1727.2" rx="863.6" ry="863.6" id="zIWDCsT0DkAU_pad-14"/><rect x="-600" y="-375" width="1200" height="750" id="zIWDCsT0DkAU_pad-15"/><rect x="-775" y="-300" width="1550" height="600" id="zIWDCsT0DkAU_pad-16"/><rect x="-1649.73" y="-849.63" width="3299.46" height="1699.26" id="zIWDCsT0DkAU_pad-17"/><circle cx="0" cy="0" r="350" id="zIWDCsT0DkAU_pad-18"/><rect x="-650" y="-800" width="1300" height="1600" id="uIrBbRzonfry_pad-11"/><rect x="-800" y="-650" width="1600" height="1300" id="uIrBbRzonfry_pad-12"/><rect x="-1216" y="-1063.6" width="2432" height="2127.2" id="uIrBbRzonfry_pad-13"/><rect x="-1216" y="-1063.6" width="2432" height="2127.2" rx="1063.6" ry="1063.6" id="uIrBbRzonfry_pad-14"/><rect x="-800" y="-575" width="1600" height="1150" id="uIrBbRzonfry_pad-15"/><rect x="-975" y="-500" width="1950" height="1000" id="uIrBbRzonfry_pad-16"/><rect x="-1849.73" y="-1049.63" width="3699.46" height="2099.26" id="uIrBbRzonfry_pad-17"/><rect x="-450" y="-600" width="900" height="1200" id="zIWDCsT0DkAU_pad-11"/><rect x="-600" y="-450" width="1200" height="900" id="zIWDCsT0DkAU_pad-12"/><rect x="-1016" y="-863.6" width="2032" height="1727.2" id="zIWDCsT0DkAU_pad-13"/><rect x="-1016" y="-863.6" width="2032" height="1727.2" rx="863.6" ry="863.6" id="zIWDCsT0DkAU_pad-14"/><rect x="-600" y="-375" width="1200" height="750" id="zIWDCsT0DkAU_pad-15"/><rect x="-775" y="-300" width="1550" height="600" id="zIWDCsT0DkAU_pad-16"/><rect x="-1649.73" y="-849.63" width="3299.46" height="1699.26" id="zIWDCsT0DkAU_pad-17"/><circle cx="0" cy="0" r="350" id="zIWDCsT0DkAU_pad-18"/><rect x="-450" y="-600" width="900" height="1200" id="zIWDCsT0DkAU_pad-11"/><rect x="-600" y="-450" width="1200" height="900" id="zIWDCsT0DkAU_pad-12"/><rect x="-1016" y="-863.6" width="2032" height="1727.2" id="zIWDCsT0DkAU_pad-13"/><rect x="-1016" y="-863.6" width="2032" height="1727.2" rx="863.6" ry="863.6" id="zIWDCsT0DkAU_pad-14"/><rect x="-600" y="-375" width="1200" height="750" id="zIWDCsT0DkAU_pad-15"/><rect x="-775" y="-300" width="1550" height="600" id="zIWDCsT0DkAU_pad-16"/><rect x="-1649.73" y="-849.63" width="3299.46" height="1699.26" id="zIWDCsT0DkAU_pad-17"/><circle cx="0" cy="0" r="350" id="zIWDCsT0DkAU_pad-18"/><rect x="-650" y="-800" width="1300" height="1600" id="uIrBbRzonfry_pad-11"/><rect x="-800" y="-650" width="1600" height="1300" id="uIrBbRzonfry_pad-12"/><rect x="-1216" y="-1063.6" width="2432" height="2127.2" id="uIrBbRzonfry_pad-13"/><rect x="-1216" y="-1063.6" width="2432" height="2127.2" rx="1063.6" ry="1063.6" id="uIrBbRzonfry_pad-14"/><rect x="-800" y="-575" width="1600" height="1150" id="uIrBbRzonfry_pad-15"/><rect x="-975" y="-500" width="1950" height="1000" id="uIrBbRzonfry_pad-16"/><rect x="-1849.73" y="-1049.63" width="3699.46" height="2099.26" id="uIrBbRzonfry_pad-17"/><rect x="-650" y="-800" width="1300" height="1600" id="B729m0sUTyV9_pad-12"/><rect x="-800" y="-650" width="1600" height="1300" id="B729m0sUTyV9_pad-13"/><rect x="-1216" y="-1063.6" width="2432" height="2127.2" id="B729m0sUTyV9_pad-14"/><rect x="-1216" y="-1063.6" width="2432" height="2127.2" rx="1063.6" ry="1063.6" id="B729m0sUTyV9_pad-15"/><rect x="-800" y="-575" width="1600" height="1150" id="B729m0sUTyV9_pad-16"/><rect x="-975" y="-500" width="1950" height="1000" id="B729m0sUTyV9_pad-17"/><rect x="-1849.73" y="-1049.63" width="3699.46" height="2099.26" id="B729m0sUTyV9_pad-18"/><mask id="B729m0sUTyV9_clear-1" fill="#000" stroke="#000"><rect x="216815" y="-112886.666" width="21030" height="12460" fill="#fff"/><use xlink:href="#B729m0sUTyV9_pad-12" x="233485" y="-108835"/><use xlink:href="#B729m0sUTyV9_pad-12" x="233485" y="-111035"/><use xlink:href="#B729m0sUTyV9_pad-13" x="223325" y="-111155"/><use xlink:href="#B729m0sUTyV9_pad-13" x="221125" y="-111155"/><use xlink:href="#B729m0sUTyV9_pad-13" x="227530" y="-111150"/><use xlink:href="#B729m0sUTyV9_pad-13" x="225330" y="-111150"/><use xlink:href="#B729m0sUTyV9_pad-12" x="221075" y="-108995"/><use xlink:href="#B729m0sUTyV9_pad-12" x="221075" y="-106795"/><use xlink:href="#B729m0sUTyV9_pad-12" x="223015" y="-108985"/><use xlink:href="#B729m0sUTyV9_pad-12" x="223015" y="-106785"/><use xlink:href="#B729m0sUTyV9_pad-12" x="233365" y="-104415"/><use xlink:href="#B729m0sUTyV9_pad-12" x="233365" y="-106615"/><use xlink:href="#B729m0sUTyV9_pad-14" x="236220" y="-110490"/><use xlink:href="#B729m0sUTyV9_pad-15" x="236220" y="-107950"/><use xlink:href="#B729m0sUTyV9_pad-15" x="236220" y="-105410"/><use xlink:href="#B729m0sUTyV9_pad-15" x="236220" y="-102870"/><use xlink:href="#B729m0sUTyV9_pad-14" x="218440" y="-102870"/><use xlink:href="#B729m0sUTyV9_pad-15" x="218440" y="-105410"/><use xlink:href="#B729m0sUTyV9_pad-15" x="218440" y="-107950"/><use xlink:href="#B729m0sUTyV9_pad-15" x="218440" y="-110490"/><use xlink:href="#B729m0sUTyV9_pad-16" x="229575" y="-111195"/><use xlink:href="#B729m0sUTyV9_pad-16" x="231475" y="-111195"/><use xlink:href="#B729m0sUTyV9_pad-16" x="221125" y="-104355"/><use xlink:href="#B729m0sUTyV9_pad-16" x="223025" y="-104355"/><use xlink:href="#B729m0sUTyV9_pad-16" x="223085" y="-102585"/><use xlink:href="#B729m0sUTyV9_pad-16" x="221185" y="-102585"/><use xlink:href="#B729m0sUTyV9_pad-17" x="225565" y="-105350"/><use xlink:href="#B729m0sUTyV9_pad-17" x="225565" y="-106620"/><use xlink:href="#B729m0sUTyV9_pad-17" x="225565" y="-107890"/><use xlink:href="#B729m0sUTyV9_pad-17" x="225565" y="-109160"/><use xlink:href="#B729m0sUTyV9_pad-17" x="230965" y="-109160"/><use xlink:href="#B729m0sUTyV9_pad-17" x="230965" y="-107890"/><use xlink:href="#B729m0sUTyV9_pad-17" x="230965" y="-106620"/><use xlink:href="#B729m0sUTyV9_pad-17" x="230965" y="-105350"/><use xlink:href="#B729m0sUTyV9_pad-18" x="226354.18" y="-101955"/><use xlink:href="#B729m0sUTyV9_pad-18" x="231855.82" y="-101955"/></mask><rect x="-450" y="-600" width="900" height="1200" id="zIWDCsT0DkAU_pad-11"/><rect x="-600" y="-450" width="1200" height="900" id="zIWDCsT0DkAU_pad-12"/><rect x="-1016" y="-863.6" width="2032" height="1727.2" id="zIWDCsT0DkAU_pad-13"/><rect x="-1016" y="-863.6" width="2032" height="1727.2" rx="863.6" ry="863.6" id="zIWDCsT0DkAU_pad-14"/><rect x="-600" y="-375" width="1200" height="750" id="zIWDCsT0DkAU_pad-15"/><rect x="-775" y="-300" width="1550" height="600" id="zIWDCsT0DkAU_pad-16"/><rect x="-1649.73" y="-849.63" width="3299.46" height="1699.26" id="zIWDCsT0DkAU_pad-17"/><circle cx="0" cy="0" r="350" id="zIWDCsT0DkAU_pad-18"/><rect x="-450" y="-600" width="900" height="1200" id="zIWDCsT0DkAU_pad-11"/><rect x="-600" y="-450" width="1200" height="900" id="zIWDCsT0DkAU_pad-12"/><rect x="-1016" y="-863.6" width="2032" height="1727.2" id="zIWDCsT0DkAU_pad-13"/><rect x="-1016" y="-863.6" width="2032" height="1727.2" rx="863.6" ry="863.6" id="zIWDCsT0DkAU_pad-14"/><rect x="-600" y="-375" width="1200" height="750" id="zIWDCsT0DkAU_pad-15"/><rect x="-775" y="-300" width="1550" height="600" id="zIWDCsT0DkAU_pad-16"/><rect x="-1649.73" y="-849.63" width="3299.46" height="1699.26" id="zIWDCsT0DkAU_pad-17"/><circle cx="0" cy="0" r="350" id="zIWDCsT0DkAU_pad-18"/><rect x="-650" y="-800" width="1300" height="1600" id="uIrBbRzonfry_pad-11"/><rect x="-800" y="-650" width="1600" height="1300" id="uIrBbRzonfry_pad-12"/><rect x="-1216" y="-1063.6" width="2432" height="2127.2" id="uIrBbRzonfry_pad-13"/><rect x="-1216" y="-1063.6" width="2432" height="2127.2" rx="1063.6" ry="1063.6" id="uIrBbRzonfry_pad-14"/><rect x="-800" y="-575" width="1600" height="1150" id="uIrBbRzonfry_pad-15"/><rect x="-975" y="-500" width="1950" height="1000" id="uIrBbRzonfry_pad-16"/><rect x="-1849.73" y="-1049.63" width="3699.46" height="2099.26" id="uIrBbRzonfry_pad-17"/><rect x="-450" y="-600" width="900" height="1200" id="zIWDCsT0DkAU_pad-11"/><rect x="-600" y="-450" width="1200" height="900" id="zIWDCsT0DkAU_pad-12"/><rect x="-1016" y="-863.6" width="2032" height="1727.2" id="zIWDCsT0DkAU_pad-13"/><rect x="-1016" y="-863.6" width="2032" height="1727.2" rx="863.6" ry="863.6" id="zIWDCsT0DkAU_pad-14"/><rect x="-600" y="-375" width="1200" height="750" id="zIWDCsT0DkAU_pad-15"/><rect x="-775" y="-300" width="1550" height="600" id="zIWDCsT0DkAU_pad-16"/><rect x="-1649.73" y="-849.63" width="3299.46" height="1699.26" id="zIWDCsT0DkAU_pad-17"/><circle cx="0" cy="0" r="350" id="zIWDCsT0DkAU_pad-18"/><rect x="-450" y="-600" width="900" height="1200" id="zIWDCsT0DkAU_pad-11"/><rect x="-600" y="-450" width="1200" height="900" id="zIWDCsT0DkAU_pad-12"/><rect x="-1016" y="-863.6" width="2032" height="1727.2" id="zIWDCsT0DkAU_pad-13"/><rect x="-1016" y="-863.6" width="2032" height="1727.2" rx="863.6" ry="863.6" id="zIWDCsT0DkAU_pad-14"/><rect x="-600" y="-375" width="1200" height="750" id="zIWDCsT0DkAU_pad-15"/><rect x="-775" y="-300" width="1550" height="600" id="zIWDCsT0DkAU_pad-16"/><rect x="-1649.73" y="-849.63" width="3299.46" height="1699.26" id="zIWDCsT0DkAU_pad-17"/><circle cx="0" cy="0" r="350" id="zIWDCsT0DkAU_pad-18"/><rect x="-650" y="-800" width="1300" height="1600" id="uIrBbRzonfry_pad-11"/><rect x="-800" y="-650" width="1600" height="1300" id="uIrBbRzonfry_pad-12"/><rect x="-1216" y="-1063.6" width="2432" height="2127.2" id="uIrBbRzonfry_pad-13"/><rect x="-1216" y="-1063.6" width="2432" height="2127.2" rx="1063.6" ry="1063.6" id="uIrBbRzonfry_pad-14"/><rect x="-800" y="-575" width="1600" height="1150" id="uIrBbRzonfry_pad-15"/><rect x="-975" y="-500" width="1950" height="1000" id="uIrBbRzonfry_pad-16"/><rect x="-1849.73" y="-1049.63" width="3699.46" height="2099.26" id="uIrBbRzonfry_pad-17"/><rect x="-650" y="-800" width="1300" height="1600" id="B729m0sUTyV9_pad-12"/><rect x="-800" y="-650" width="1600" height="1300" id="B729m0sUTyV9_pad-13"/><rect x="-1216" y="-1063.6" width="2432" height="2127.2" id="B729m0sUTyV9_pad-14"/><rect x="-1216" y="-1063.6" width="2432" height="2127.2" rx="1063.6" ry="1063.6" id="B729m0sUTyV9_pad-15"/><rect x="-800" y="-575" width="1600" height="1150" id="B729m0sUTyV9_pad-16"/><rect x="-975" y="-500" width="1950" height="1000" id="B729m0sUTyV9_pad-17"/><rect x="-1849.73" y="-1049.63" width="3699.46" height="2099.26" id="B729m0sUTyV9_pad-18"/><mask id="B729m0sUTyV9_clear-1" fill="#000" stroke="#000"><rect x="216815" y="-112886.666" width="21030" height="12460" fill="#fff"/><use xlink:href="#B729m0sUTyV9_pad-12" x="233485" y="-108835"/><use xlink:href="#B729m0sUTyV9_pad-12" x="233485" y="-111035"/><use xlink:href="#B729m0sUTyV9_pad-13" x="223325" y="-111155"/><use xlink:href="#B729m0sUTyV9_pad-13" x="221125" y="-111155"/><use xlink:href="#B729m0sUTyV9_pad-13" x="227530" y="-111150"/><use xlink:href="#B729m0sUTyV9_pad-13" x="225330" y="-111150"/><use xlink:href="#B729m0sUTyV9_pad-12" x="221075" y="-108995"/><use xlink:href="#B729m0sUTyV9_pad-12" x="221075" y="-106795"/><use xlink:href="#B729m0sUTyV9_pad-12" x="223015" y="-108985"/><use xlink:href="#B729m0sUTyV9_pad-12" x="223015" y="-106785"/><use xlink:href="#B729m0sUTyV9_pad-12" x="233365" y="-104415"/><use xlink:href="#B729m0sUTyV9_pad-12" x="233365" y="-106615"/><use xlink:href="#B729m0sUTyV9_pad-14" x="236220" y="-110490"/><use xlink:href="#B729m0sUTyV9_pad-15" x="236220" y="-107950"/><use xlink:href="#B729m0sUTyV9_pad-15" x="236220" y="-105410"/><use xlink:href="#B729m0sUTyV9_pad-15" x="236220" y="-102870"/><use xlink:href="#B729m0sUTyV9_pad-14" x="218440" y="-102870"/><use xlink:href="#B729m0sUTyV9_pad-15" x="218440" y="-105410"/><use xlink:href="#B729m0sUTyV9_pad-15" x="218440" y="-107950"/><use xlink:href="#B729m0sUTyV9_pad-15" x="218440" y="-110490"/><use xlink:href="#B729m0sUTyV9_pad-16" x="229575" y="-111195"/><use xlink:href="#B729m0sUTyV9_pad-16" x="231475" y="-111195"/><use xlink:href="#B729m0sUTyV9_pad-16" x="221125" y="-104355"/><use xlink:href="#B729m0sUTyV9_pad-16" x="223025" y="-104355"/><use xlink:href="#B729m0sUTyV9_pad-16" x="223085" y="-102585"/><use xlink:href="#B729m0sUTyV9_pad-16" x="221185" y="-102585"/><use xlink:href="#B729m0sUTyV9_pad-17" x="225565" y="-105350"/><use xlink:href="#B729m0sUTyV9_pad-17" x="225565" y="-106620"/><use xlink:href="#B729m0sUTyV9_pad-17" x="225565" y="-107890"/><use xlink:href="#B729m0sUTyV9_pad-17" x="225565" y="-109160"/><use xlink:href="#B729m0sUTyV9_pad-17" x="230965" y="-109160"/><use xlink:href="#B729m0sUTyV9_pad-17" x="230965" y="-107890"/><use xlink:href="#B729m0sUTyV9_pad-17" x="230965" y="-106620"/><use xlink:href="#B729m0sUTyV9_pad-17" x="230965" y="-105350"/><use xlink:href="#B729m0sUTyV9_pad-18" x="226354.18" y="-101955"/><use xlink:href="#B729m0sUTyV9_pad-18" x="231855.82" y="-101955"/></mask><rect x="-450" y="-600" width="900" height="1200" id="zIWDCsT0DkAU_pad-11"/><rect x="-600" y="-450" width="1200" height="900" id="zIWDCsT0DkAU_pad-12"/><rect x="-1016" y="-863.6" width="2032" height="1727.2" id="zIWDCsT0DkAU_pad-13"/><rect x="-1016" y="-863.6" width="2032" height="1727.2" rx="863.6" ry="863.6" id="zIWDCsT0DkAU_pad-14"/><rect x="-600" y="-375" width="1200" height="750" id="zIWDCsT0DkAU_pad-15"/><rect x="-775" y="-300" width="1550" height="600" id="zIWDCsT0DkAU_pad-16"/><rect x="-1649.73" y="-849.63" width="3299.46" height="1699.26" id="zIWDCsT0DkAU_pad-17"/><circle cx="0" cy="0" r="350" id="zIWDCsT0DkAU_pad-18"/><rect x="-450" y="-600" width="900" height="1200" id="zIWDCsT0DkAU_pad-11"/><rect x="-600" y="-450" width="1200" height="900" id="zIWDCsT0DkAU_pad-12"/><rect x="-1016" y="-863.6" width="2032" height="1727.2" id="zIWDCsT0DkAU_pad-13"/><rect x="-1016" y="-863.6" width="2032" height="1727.2" rx="863.6" ry="863.6" id="zIWDCsT0DkAU_pad-14"/><rect x="-600" y="-375" width="1200" height="750" id="zIWDCsT0DkAU_pad-15"/><rect x="-775" y="-300" width="1550" height="600" id="zIWDCsT0DkAU_pad-16"/><rect x="-1649.73" y="-849.63" width="3299.46" height="1699.26" id="zIWDCsT0DkAU_pad-17"/><circle cx="0" cy="0" r="350" id="zIWDCsT0DkAU_pad-18"/><rect x="-650" y="-800" width="1300" height="1600" id="uIrBbRzonfry_pad-11"/><rect x="-800" y="-650" width="1600" height="1300" id="uIrBbRzonfry_pad-12"/><rect x="-1216" y="-1063.6" width="2432" height="2127.2" id="uIrBbRzonfry_pad-13"/><rect x="-1216" y="-1063.6" width="2432" height="2127.2" rx="1063.6" ry="1063.6" id="uIrBbRzonfry_pad-14"/><rect x="-800" y="-575" width="1600" height="1150" id="uIrBbRzonfry_pad-15"/><rect x="-975" y="-500" width="1950" height="1000" id="uIrBbRzonfry_pad-16"/><rect x="-1849.73" y="-1049.63" width="3699.46" height="2099.26" id="uIrBbRzonfry_pad-17"/><rect x="-450" y="-600" width="900" height="1200" id="zIWDCsT0DkAU_pad-11"/><rect x="-600" y="-450" width="1200" height="900" id="zIWDCsT0DkAU_pad-12"/><rect x="-1016" y="-863.6" width="2032" height="1727.2" id="zIWDCsT0DkAU_pad-13"/><rect x="-1016" y="-863.6" width="2032" height="1727.2" rx="863.6" ry="863.6" id="zIWDCsT0DkAU_pad-14"/><rect x="-600" y="-375" width="1200" height="750" id="zIWDCsT0DkAU_pad-15"/><rect x="-775" y="-300" width="1550" height="600" id="zIWDCsT0DkAU_pad-16"/><rect x="-1649.73" y="-849.63" width="3299.46" height="1699.26" id="zIWDCsT0DkAU_pad-17"/><circle cx="0" cy="0" r="350" id="zIWDCsT0DkAU_pad-18"/><rect x="-450" y="-600" width="900" height="1200" id="zIWDCsT0DkAU_pad-11"/><rect x="-600" y="-450" width="1200" height="900" id="zIWDCsT0DkAU_pad-12"/><rect x="-1016" y="-863.6" width="2032" height="1727.2" id="zIWDCsT0DkAU_pad-13"/><rect x="-1016" y="-863.6" width="2032" height="1727.2" rx="863.6" ry="863.6" id="zIWDCsT0DkAU_pad-14"/><rect x="-600" y="-375" width="1200" height="750" id="zIWDCsT0DkAU_pad-15"/><rect x="-775" y="-300" width="1550" height="600" id="zIWDCsT0DkAU_pad-16"/><rect x="-1649.73" y="-849.63" width="3299.46" height="1699.26" id="zIWDCsT0DkAU_pad-17"/><circle cx="0" cy="0" r="350" id="zIWDCsT0DkAU_pad-18"/><rect x="-650" y="-800" width="1300" height="1600" id="uIrBbRzonfry_pad-11"/><rect x="-800" y="-650" width="1600" height="1300" id="uIrBbRzonfry_pad-12"/><rect x="-1216" y="-1063.6" width="2432" height="2127.2" id="uIrBbRzonfry_pad-13"/><rect x="-1216" y="-1063.6" width="2432" height="2127.2" rx="1063.6" ry="1063.6" id="uIrBbRzonfry_pad-14"/><rect x="-800" y="-575" width="1600" height="1150" id="uIrBbRzonfry_pad-15"/><rect x="-975" y="-500" width="1950" height="1000" id="uIrBbRzonfry_pad-16"/><rect x="-1849.73" y="-1049.63" width="3699.46" height="2099.26" id="uIrBbRzonfry_pad-17"/><rect x="-650" y="-800" width="1300" height="1600" id="B729m0sUTyV9_pad-12"/><rect x="-800" y="-650" width="1600" height="1300" id="B729m0sUTyV9_pad-13"/><rect x="-1216" y="-1063.6" width="2432" height="2127.2" id="B729m0sUTyV9_pad-14"/><rect x="-1216" y="-1063.6" width="2432" height="2127.2" rx="1063.6" ry="1063.6" id="B729m0sUTyV9_pad-15"/><rect x="-800" y="-575" width="1600" height="1150" id="B729m0sUTyV9_pad-16"/><rect x="-975" y="-500" width="1950" height="1000" id="B729m0sUTyV9_pad-17"/><rect x="-1849.73" y="-1049.63" width="3699.46" height="2099.26" id="B729m0sUTyV9_pad-18"/><mask id="B729m0sUTyV9_clear-1" fill="#000" stroke="#000"><rect x="216815" y="-112886.666" width="21030" height="12460" fill="#fff"/><use xlink:href="#B729m0sUTyV9_pad-12" x="233485" y="-108835"/><use xlink:href="#B729m0sUTyV9_pad-12" x="233485" y="-111035"/><use xlink:href="#B729m0sUTyV9_pad-13" x="223325" y="-111155"/><use xlink:href="#B729m0sUTyV9_pad-13" x="221125" y="-111155"/><use xlink:href="#B729m0sUTyV9_pad-13" x="227530" y="-111150"/><use xlink:href="#B729m0sUTyV9_pad-13" x="225330" y="-111150"/><use xlink:href="#B729m0sUTyV9_pad-12" x="221075" y="-108995"/><use xlink:href="#B729m0sUTyV9_pad-12" x="221075" y="-106795"/><use xlink:href="#B729m0sUTyV9_pad-12" x="223015" y="-108985"/><use xlink:href="#B729m0sUTyV9_pad-12" x="223015" y="-106785"/><use xlink:href="#B729m0sUTyV9_pad-12" x="233365" y="-104415"/><use xlink:href="#B729m0sUTyV9_pad-12" x="233365" y="-106615"/><use xlink:href="#B729m0sUTyV9_pad-14" x="236220" y="-110490"/><use xlink:href="#B729m0sUTyV9_pad-15" x="236220" y="-107950"/><use xlink:href="#B729m0sUTyV9_pad-15" x="236220" y="-105410"/><use xlink:href="#B729m0sUTyV9_pad-15" x="236220" y="-102870"/><use xlink:href="#B729m0sUTyV9_pad-14" x="218440" y="-102870"/><use xlink:href="#B729m0sUTyV9_pad-15" x="218440" y="-105410"/><use xlink:href="#B729m0sUTyV9_pad-15" x="218440" y="-107950"/><use xlink:href="#B729m0sUTyV9_pad-15" x="218440" y="-110490"/><use xlink:href="#B729m0sUTyV9_pad-16" x="229575" y="-111195"/><use xlink:href="#B729m0sUTyV9_pad-16" x="231475" y="-111195"/><use xlink:href="#B729m0sUTyV9_pad-16" x="221125" y="-104355"/><use xlink:href="#B729m0sUTyV9_pad-16" x="223025" y="-104355"/><use xlink:href="#B729m0sUTyV9_pad-16" x="223085" y="-102585"/><use xlink:href="#B729m0sUTyV9_pad-16" x="221185" y="-102585"/><use xlink:href="#B729m0sUTyV9_pad-17" x="225565" y="-105350"/><use xlink:href="#B729m0sUTyV9_pad-17" x="225565" y="-106620"/><use xlink:href="#B729m0sUTyV9_pad-17" x="225565" y="-107890"/><use xlink:href="#B729m0sUTyV9_pad-17" x="225565" y="-109160"/><use xlink:href="#B729m0sUTyV9_pad-17" x="230965" y="-109160"/><use xlink:href="#B729m0sUTyV9_pad-17" x="230965" y="-107890"/><use xlink:href="#B729m0sUTyV9_pad-17" x="230965" y="-106620"/><use xlink:href="#B729m0sUTyV9_pad-17" x="230965" y="-105350"/><use xlink:href="#B729m0sUTyV9_pad-18" x="226354.18" y="-101955"/><use xlink:href="#B729m0sUTyV9_pad-18" x="231855.82" y="-101955"/></mask><circle cx="0" cy="0" r="250" id="fOaxs_rJNK13_pad-1"/><circle cx="0" cy="0" r="508" id="fOaxs_rJNK13_pad-2"/><g id="pcb-stackup_top_cu"><use xlink:href="#zIWDCsT0DkAU_pad-11" x="233485" y="-108835"/><use xlink:href="#zIWDCsT0DkAU_pad-11" x="233485" y="-111035"/><use xlink:href="#zIWDCsT0DkAU_pad-12" x="223325" y="-111155"/><use xlink:href="#zIWDCsT0DkAU_pad-12" x="221125" y="-111155"/><use xlink:href="#zIWDCsT0DkAU_pad-12" x="227530" y="-111150"/><use xlink:href="#zIWDCsT0DkAU_pad-12" x="225330" y="-111150"/><use xlink:href="#zIWDCsT0DkAU_pad-11" x="221075" y="-108995"/><use xlink:href="#zIWDCsT0DkAU_pad-11" x="221075" y="-106795"/><use xlink:href="#zIWDCsT0DkAU_pad-11" x="223015" y="-108985"/><use xlink:href="#zIWDCsT0DkAU_pad-11" x="223015" y="-106785"/><use xlink:href="#zIWDCsT0DkAU_pad-11" x="233365" y="-104415"/><use xlink:href="#zIWDCsT0DkAU_pad-11" x="233365" y="-106615"/><use xlink:href="#zIWDCsT0DkAU_pad-13" x="236220" y="-110490"/><use xlink:href="#zIWDCsT0DkAU_pad-14" x="236220" y="-107950"/><use xlink:href="#zIWDCsT0DkAU_pad-14" x="236220" y="-105410"/><use xlink:href="#zIWDCsT0DkAU_pad-14" x="236220" y="-102870"/><use xlink:href="#zIWDCsT0DkAU_pad-13" x="218440" y="-102870"/><use xlink:href="#zIWDCsT0DkAU_pad-14" x="218440" y="-105410"/><use xlink:href="#zIWDCsT0DkAU_pad-14" x="218440" y="-107950"/><use xlink:href="#zIWDCsT0DkAU_pad-14" x="218440" y="-110490"/><use xlink:href="#zIWDCsT0DkAU_pad-15" x="229575" y="-111195"/><use xlink:href="#zIWDCsT0DkAU_pad-15" x="231475" y="-111195"/><use xlink:href="#zIWDCsT0DkAU_pad-15" x="221125" y="-104355"/><use xlink:href="#zIWDCsT0DkAU_pad-15" x="223025" y="-104355"/><use xlink:href="#zIWDCsT0DkAU_pad-15" x="223085" y="-102585"/><use xlink:href="#zIWDCsT0DkAU_pad-15" x="221185" y="-102585"/><use xlink:href="#zIWDCsT0DkAU_pad-16" x="225565" y="-105350"/><use xlink:href="#zIWDCsT0DkAU_pad-16" x="225565" y="-106620"/><use xlink:href="#zIWDCsT0DkAU_pad-16" x="225565" y="-107890"/><use xlink:href="#zIWDCsT0DkAU_pad-16" x="225565" y="-109160"/><use xlink:href="#zIWDCsT0DkAU_pad-16" x="230965" y="-109160"/><use xlink:href="#zIWDCsT0DkAU_pad-16" x="230965" y="-107890"/><use xlink:href="#zIWDCsT0DkAU_pad-16" x="230965" y="-106620"/><use xlink:href="#zIWDCsT0DkAU_pad-16" x="230965" y="-105350"/><use xlink:href="#zIWDCsT0DkAU_pad-17" x="226354.18" y="-101955"/><use xlink:href="#zIWDCsT0DkAU_pad-17" x="231855.82" y="-101955"/><use xlink:href="#zIWDCsT0DkAU_pad-18" x="226796.251" y="-108879.14"/><use xlink:href="#zIWDCsT0DkAU_pad-18" x="223789.989" y="-107294.991"/><use xlink:href="#zIWDCsT0DkAU_pad-18" x="228228.165" y="-109356.445"/><use xlink:href="#zIWDCsT0DkAU_pad-18" x="229528.749" y="-108778.898"/><use xlink:href="#zIWDCsT0DkAU_pad-18" x="232723.938" y="-107326.43"/><use xlink:href="#zIWDCsT0DkAU_pad-18" x="228106.428" y="-107328.182"/><use xlink:href="#zIWDCsT0DkAU_pad-18" x="227055" y="-105325"/><use xlink:href="#zIWDCsT0DkAU_pad-18" x="228295" y="-105355.011"/><use xlink:href="#zIWDCsT0DkAU_pad-18" x="228465" y="-104005"/><use xlink:href="#zIWDCsT0DkAU_pad-18" x="227055" y="-107425"/><use xlink:href="#zIWDCsT0DkAU_pad-18" x="224225.002" y="-104925"/><use xlink:href="#zIWDCsT0DkAU_pad-18" x="232705" y="-112425"/><use xlink:href="#zIWDCsT0DkAU_pad-18" x="220735" y="-112255"/><path d="M 230965 -106620 229813.614 -106620 M 228430.43 -108003.184 227817.467 -108003.184 M 226941.511 -108879.14 226796.251 -108879.14 M 227817.467 -108003.184 226941.511 -108879.14 M 229813.614 -106620 228430.43 -108003.184 M 226590 -109160 226796.251 -108953.749 226796.251 -108879.14 M 225565 -109160 226590 -109160 M 223789.989 -106859.989 223789.989 -107294.991 M 223715 -106785 223789.989 -106859.989 M 223015 -106785 223715 -106785 M 229940 -104800 230490 -105350 M 229940 -104325 229940 -104800 M 228760.001 -103145.001 229940 -104325 M 224345 -103495 224694.999 -103145.001 228760.001 -103145.001 M 230490 -105350 230965 -105350 230965 -106620 M 223085 -102585 223435 -102585 224345 -103495 M 223025 -104355 223025 -106775 223015 -106785 M 223085 -102585 223085 -104295 223025 -104355 M 219965 -102955 219965 -104835 221075 -105945 221075 -106795 M 221185 -102585 220335 -102585 219965 -102955 M 218440 -107950 220070 -107950 M 221075 -106945 221075 -106795 M 220070 -107950 221075 -106945 M 223854.45 -101355 222640 -101355 221410 -102585 221185 -102585 M 226354.18 -101955 224454.45 -101955 223854.45 -101355 M 229178.75 -109128.897 229528.749 -108778.898 M 229575 -111195 229575 -110570 M 233073.937 -106976.431 232723.938 -107326.43 M 228361.445 -109356.445 228228.165 -109356.445 M 233365 -106685.368 233073.937 -106976.431 M 233365 -106615 233365 -106685.368 M 229575 -110570 228361.445 -109356.445 M 228228.165 -109356.445 228951.202 -109356.445 229178.75 -109128.897 M 227398.246 -106620 227756.429 -106978.183 228106.428 -107328.182 M 225565 -106620 227398.246 -106620" fill="none" stroke-width="250"/><path d="M 230965 -107890 230965 -109160 M 231475 -111195 231475 -110845 233485 -108835 M 230965 -109160 233160 -109160 233485 -108835 M 230120 -112325 228005 -112325 227815 -112135 M 230120 -112325 231250 -111195 231475 -111195 M 227530 -111150 227530 -111790 M 227815 -112075 227815 -112135 M 227530 -111790 227815 -112075 M 231475 -111195 231685 -111195 M 233485 -108835 234412.6 -108835 236067.6 -110490 236220 -110490" fill="none" stroke-width="500"/><path d="M 236220 -110490 236067.6 -110490 M 231250 -111195 231475 -111195 M 227815 -112135 228005 -112325 M 233115 -108985 233105 -108975 233485 -108835 M 225330 -111150 225480 -111150 M 232065.001 -105864.999 233365 -104565 233365 -104415 M 225480 -111150 228176.806 -108453.194 228616.831 -108453.193 229825.023 -107245.001 232000.001 -107245.001 232065.001 -107180.001 232065.001 -105864.999 M 232046.19 -103245 232345 -103245 233365 -104265 233365 -104415 M 231855.82 -101955 231855.82 -103054.63 232046.19 -103245 M 225565 -105350 227030 -105350 227055 -105325" fill="none" stroke-width="250"/><path d="M 223015 -108985 221085 -108985 221075 -108995 M 223995 -108985 225090 -107890 M 223015 -108985 223995 -108985 M 225090 -107890 225565 -107890 M 218440 -110490 219800 -110490 221075 -109215 221075 -108845 221075 -108995" fill="none" stroke-width="500"/><path d="M 228465 -104005 228465 -105185.011 228295 -105355.011 M 225565 -107890 226590 -107890 227055 -107425 M 221075 -108845 221075 -108995 M 223315 -111255 223315 -109285 223015 -108985 M 219800 -110490 219800 -110420 221075 -109145 221075 -108995 M 218440 -110490 218592.4 -110490 M 224225.002 -105419.974 224225.002 -104925 M 224464.999 -105659.971 224225.002 -105419.974 M 224196.811 -107970.001 224464.999 -107701.813 M 222564.999 -107970.001 224196.811 -107970.001 M 224464.999 -107701.813 224464.999 -105659.971 M 222239.999 -107645.001 222564.999 -107970.001 M 222239.999 -106094.999 222239.999 -107645.001 M 221125 -104980 222239.999 -106094.999 M 221125 -104355 221125 -104980 M 232705 -112425 232705 -111815 233485 -111035 M 221115 -111255 221115 -111875 220735 -112255" fill="none" stroke-width="250"/><path d="M 221357.638 -101562.56 220585 -101562.56 220337.235 -101611.843 220127.191 -101752.191 220072.146 -101834.572 219994.327 -101646.701 219815.698 -101468.073 219582.309 -101371.4 218725.75 -101371.4 218567 -101530.15 218567 -102743 218587 -102743 218587 -102997 218567 -102997 218567 -105283 218587 -105283 218587 -105537 218567 -105537 218567 -105557 218313 -105557 218313 -105537 216953.783 -105537 216832.642 -105769.026 216835.291 -105784.791 217089.268 -106312.036 217505.069 -106683.539 217195.585 -106890.33 216870.729 -107376.511 216756.655 -107950 216870.729 -108523.489 217195.585 -109009.67 217510.366 -109220 217195.585 -109430.33 216870.729 -109916.511 216756.655 -110490 216870.729 -111063.489 217195.585 -111549.67 217681.766 -111874.526 218255.255 -111988.6 218624.745 -111988.6 219198.234 -111874.526 219684.415 -111549.67 219801.298 -111374.743 219877.56 -111359.573 219877.56 -111605 219897.253 -111704.002 219750.172 -112058.212 219749.944 -112320 217464.092 -112320 216610 -111465.908 216610 -103155.75 216789 -103155.75 216789 -103859.91 216885.673 -104093.299 217064.302 -104271.927 217261.861 -104353.759 217089.268 -104507.964 216835.291 -105035.209 216832.642 -105050.974 216953.783 -105283 218313 -105283 218313 -102997 216947.75 -102997 216789 -103155.75 216610 -103155.75 216610 -101894.092 216624.002 -101880.09 216789 -101880.09 216789 -102584.25 216947.75 -102743 218313 -102743 218313 -101530.15 218154.25 -101371.4 217297.691 -101371.4 217064.302 -101468.073 216885.673 -101646.701 216789 -101880.09 216624.002 -101880.09 217464.092 -101040 221880.198 -101040 221357.638 -101562.56 221357.638 -101562.56"/><path d="M 221357.638 -101562.56 220585 -101562.56 220337.235 -101611.843 220127.191 -101752.191 220072.146 -101834.572 219994.327 -101646.701 219815.698 -101468.073 219582.309 -101371.4 218725.75 -101371.4 218567 -101530.15 218567 -102743 218587 -102743 218587 -102997 218567 -102997 218567 -105283 218587 -105283 218587 -105537 218567 -105537 218567 -105557 218313 -105557 218313 -105537 216953.783 -105537 216832.642 -105769.026 216835.291 -105784.791 217089.268 -106312.036 217505.069 -106683.539 217195.585 -106890.33 216870.729 -107376.511 216756.655 -107950 216870.729 -108523.489 217195.585 -109009.67 217510.366 -109220 217195.585 -109430.33 216870.729 -109916.511 216756.655 -110490 216870.729 -111063.489 217195.585 -111549.67 217681.766 -111874.526 218255.255 -111988.6 218624.745 -111988.6 219198.234 -111874.526 219684.415 -111549.67 219801.298 -111374.743 219877.56 -111359.573 219877.56 -111605 219897.253 -111704.002 219750.172 -112058.212 219749.944 -112320 217464.092 -112320 216610 -111465.908 216610 -103155.75 216789 -103155.75 216789 -103859.91 216885.673 -104093.299 217064.302 -104271.927 217261.861 -104353.759 217089.268 -104507.964 216835.291 -105035.209 216832.642 -105050.974 216953.783 -105283 218313 -105283 218313 -102997 216947.75 -102997 216789 -103155.75 216610 -103155.75 216610 -101894.092 216624.002 -101880.09 216789 -101880.09 216789 -102584.25 216947.75 -102743 218313 -102743 218313 -101530.15 218154.25 -101371.4 217297.691 -101371.4 217064.302 -101468.073 216885.673 -101646.701 216789 -101880.09 216624.002 -101880.09 217464.092 -101040 221880.198 -101040 221357.638 -101562.56" fill="none" stroke-width="254"/><path d="M 238050 -101894.092 238050 -111465.908 237195.908 -112320 233690.091 -112320 233690.124 -112282.44 233935 -112282.44 234182.765 -112233.157 234392.809 -112092.809 234533.157 -111882.765 234582.44 -111635 234582.44 -111483.709 234605.843 -111601.365 234746.191 -111811.409 234956.235 -111951.757 235204 -112001.04 237236 -112001.04 237483.765 -111951.757 237693.809 -111811.409 237834.157 -111601.365 237883.44 -111353.6 237883.44 -109626.4 237834.157 -109378.635 237693.809 -109168.591 237483.765 -109028.243 237447.434 -109021.016 237464.415 -109009.67 237789.271 -108523.489 237903.345 -107950 237789.271 -107376.511 237464.415 -106890.33 237154.931 -106683.539 237570.732 -106312.036 237824.709 -105784.791 237827.358 -105769.026 237706.217 -105537 236347 -105537 236347 -105557 236093 -105557 236093 -105537 234733.783 -105537 234612.642 -105769.026 234615.291 -105784.791 234869.268 -106312.036 235285.069 -106683.539 234975.585 -106890.33 234650.729 -107376.511 234536.655 -107950 234541.765 -107975.692 234522.942 -107971.948 234392.809 -107777.191 234254.7 -107684.909 234272.809 -107672.809 234413.157 -107462.765 234462.44 -107215 234462.44 -106015 234413.157 -105767.235 234272.809 -105557.191 234209.666 -105515 234272.809 -105472.809 234413.157 -105262.765 234462.44 -105015 234462.44 -103815 234413.157 -103567.235 234272.809 -103357.191 234080.999 -103229.026 234612.642 -103229.026 234615.291 -103244.791 234869.268 -103772.036 235281.108 -104140 234869.268 -104507.964 234615.291 -105035.209 234612.642 -105050.974 234733.783 -105283 236093 -105283 236093 -102997 236347 -102997 236347 -105283 237706.217 -105283 237827.358 -105050.974 237824.709 -105035.209 237570.732 -104507.964 237158.892 -104140 237570.732 -103772.036 237824.709 -103244.791 237827.358 -103229.026 237706.217 -102997 236347 -102997 236093 -102997 234733.783 -102997 234612.642 -103229.026 234080.999 -103229.026 234062.765 -103216.843 234001.913 -103204.739 234103.707 -103052.395 234152.99 -102804.63 234152.99 -102510.974 234612.642 -102510.974 234733.783 -102743 236093 -102743 236093 -101529.076 236347 -101529.076 236347 -102743 237706.217 -102743 237827.358 -102510.974 237824.709 -102495.209 237570.732 -101967.964 237134.32 -101578.046 236581.913 -101384.816 236347 -101529.076 236093 -101529.076 235858.087 -101384.816 235305.68 -101578.046 234869.268 -101967.964 234615.291 -102495.209 234612.642 -102510.974 234152.99 -102510.974 234152.99 -101105.37 234139.987 -101040 237195.908 -101040 238050 -101894.092 238050 -101894.092"/><path d="M 238050 -101894.092 238050 -111465.908 237195.908 -112320 233690.091 -112320 233690.124 -112282.44 233935 -112282.44 234182.765 -112233.157 234392.809 -112092.809 234533.157 -111882.765 234582.44 -111635 234582.44 -111483.709 234605.843 -111601.365 234746.191 -111811.409 234956.235 -111951.757 235204 -112001.04 237236 -112001.04 237483.765 -111951.757 237693.809 -111811.409 237834.157 -111601.365 237883.44 -111353.6 237883.44 -109626.4 237834.157 -109378.635 237693.809 -109168.591 237483.765 -109028.243 237447.434 -109021.016 237464.415 -109009.67 237789.271 -108523.489 237903.345 -107950 237789.271 -107376.511 237464.415 -106890.33 237154.931 -106683.539 237570.732 -106312.036 237824.709 -105784.791 237827.358 -105769.026 237706.217 -105537 236347 -105537 236347 -105557 236093 -105557 236093 -105537 234733.783 -105537 234612.642 -105769.026 234615.291 -105784.791 234869.268 -106312.036 235285.069 -106683.539 234975.585 -106890.33 234650.729 -107376.511 234536.655 -107950 234541.765 -107975.692 234522.942 -107971.948 234392.809 -107777.191 234254.7 -107684.909 234272.809 -107672.809 234413.157 -107462.765 234462.44 -107215 234462.44 -106015 234413.157 -105767.235 234272.809 -105557.191 234209.666 -105515 234272.809 -105472.809 234413.157 -105262.765 234462.44 -105015 234462.44 -103815 234413.157 -103567.235 234272.809 -103357.191 234080.999 -103229.026 234612.642 -103229.026 234615.291 -103244.791 234869.268 -103772.036 235281.108 -104140 234869.268 -104507.964 234615.291 -105035.209 234612.642 -105050.974 234733.783 -105283 236093 -105283 236093 -102997 236347 -102997 236347 -105283 237706.217 -105283 237827.358 -105050.974 237824.709 -105035.209 237570.732 -104507.964 237158.892 -104140 237570.732 -103772.036 237824.709 -103244.791 237827.358 -103229.026 237706.217 -102997 236347 -102997 236093 -102997 234733.783 -102997 234612.642 -103229.026 234080.999 -103229.026 234062.765 -103216.843 234001.913 -103204.739 234103.707 -103052.395 234152.99 -102804.63 234152.99 -102510.974 234612.642 -102510.974 234733.783 -102743 236093 -102743 236093 -101529.076 236347 -101529.076 236347 -102743 237706.217 -102743 237827.358 -102510.974 237824.709 -102495.209 237570.732 -101967.964 237134.32 -101578.046 236581.913 -101384.816 236347 -101529.076 236093 -101529.076 235858.087 -101384.816 235305.68 -101578.046 234869.268 -101967.964 234615.291 -102495.209 234612.642 -102510.974 234152.99 -102510.974 234152.99 -101105.37 234139.987 -101040 237195.908 -101040 238050 -101894.092" fill="none" stroke-width="254"/><path d="M 227479.83 -104200.069 227629.471 -104562.229 227662.153 -104594.968 227460.445 -104796.325 227310.172 -105158.223 227309.83 -105550.08 227441.436 -105868.591 227398.246 -105860 226940.334 -105860 226975 -105776.31 226975 -105635.75 226816.25 -105477 225692 -105477 225692 -105497 225438 -105497 225438 -105477 225418 -105477 225418 -105223 225438 -105223 225438 -104573.75 225692 -104573.75 225692 -105223 226816.25 -105223 226975 -105064.25 226975 -104923.69 226878.327 -104690.301 226699.698 -104511.673 226466.309 -104415 225850.75 -104415 225692 -104573.75 225438 -104573.75 225279.25 -104415 225080.046 -104415 225060.531 -104367.771 224788.427 -104095.192 224882.401 -104032.401 225009.801 -103905.001 227480.088 -103905.001 227479.83 -104200.069 227479.83 -104200.069"/><path d="M 227479.83 -104200.069 227629.471 -104562.229 227662.153 -104594.968 227460.445 -104796.325 227310.172 -105158.223 227309.83 -105550.08 227441.436 -105868.591 227398.246 -105860 226940.334 -105860 226975 -105776.31 226975 -105635.75 226816.25 -105477 225692 -105477 225692 -105497 225438 -105497 225438 -105477 225418 -105477 225418 -105223 225438 -105223 225438 -104573.75 225692 -104573.75 225692 -105223 226816.25 -105223 226975 -105064.25 226975 -104923.69 226878.327 -104690.301 226699.698 -104511.673 226466.309 -104415 225850.75 -104415 225692 -104573.75 225438 -104573.75 225279.25 -104415 225080.046 -104415 225060.531 -104367.771 224788.427 -104095.192 224882.401 -104032.401 225009.801 -103905.001 227480.088 -103905.001 227479.83 -104200.069" fill="none" stroke-width="254"/></g><g id="pcb-stackup_top_sm"><use xlink:href="#uIrBbRzonfry_pad-11" x="233485" y="-108835"/><use xlink:href="#uIrBbRzonfry_pad-11" x="233485" y="-111035"/><use xlink:href="#uIrBbRzonfry_pad-12" x="223325" y="-111155"/><use xlink:href="#uIrBbRzonfry_pad-12" x="221125" y="-111155"/><use xlink:href="#uIrBbRzonfry_pad-12" x="227530" y="-111150"/><use xlink:href="#uIrBbRzonfry_pad-12" x="225330" y="-111150"/><use xlink:href="#uIrBbRzonfry_pad-11" x="221075" y="-108995"/><use xlink:href="#uIrBbRzonfry_pad-11" x="221075" y="-106795"/><use xlink:href="#uIrBbRzonfry_pad-11" x="223015" y="-108985"/><use xlink:href="#uIrBbRzonfry_pad-11" x="223015" y="-106785"/><use xlink:href="#uIrBbRzonfry_pad-11" x="233365" y="-104415"/><use xlink:href="#uIrBbRzonfry_pad-11" x="233365" y="-106615"/><use xlink:href="#uIrBbRzonfry_pad-13" x="236220" y="-110490"/><use xlink:href="#uIrBbRzonfry_pad-14" x="236220" y="-107950"/><use xlink:href="#uIrBbRzonfry_pad-14" x="236220" y="-105410"/><use xlink:href="#uIrBbRzonfry_pad-14" x="236220" y="-102870"/><use xlink:href="#uIrBbRzonfry_pad-13" x="218440" y="-102870"/><use xlink:href="#uIrBbRzonfry_pad-14" x="218440" y="-105410"/><use xlink:href="#uIrBbRzonfry_pad-14" x="218440" y="-107950"/><use xlink:href="#uIrBbRzonfry_pad-14" x="218440" y="-110490"/><use xlink:href="#uIrBbRzonfry_pad-15" x="229575" y="-111195"/><use xlink:href="#uIrBbRzonfry_pad-15" x="231475" y="-111195"/><use xlink:href="#uIrBbRzonfry_pad-15" x="221125" y="-104355"/><use xlink:href="#uIrBbRzonfry_pad-15" x="223025" y="-104355"/><use xlink:href="#uIrBbRzonfry_pad-15" x="223085" y="-102585"/><use xlink:href="#uIrBbRzonfry_pad-15" x="221185" y="-102585"/><use xlink:href="#uIrBbRzonfry_pad-16" x="225565" y="-105350"/><use xlink:href="#uIrBbRzonfry_pad-16" x="225565" y="-106620"/><use xlink:href="#uIrBbRzonfry_pad-16" x="225565" y="-107890"/><use xlink:href="#uIrBbRzonfry_pad-16" x="225565" y="-109160"/><use xlink:href="#uIrBbRzonfry_pad-16" x="230965" y="-109160"/><use xlink:href="#uIrBbRzonfry_pad-16" x="230965" y="-107890"/><use xlink:href="#uIrBbRzonfry_pad-16" x="230965" y="-106620"/><use xlink:href="#uIrBbRzonfry_pad-16" x="230965" y="-105350"/><use xlink:href="#uIrBbRzonfry_pad-17" x="226354.18" y="-101955"/><use xlink:href="#uIrBbRzonfry_pad-17" x="231855.82" y="-101955"/></g><g id="pcb-stackup_top_ss"><g mask="url(#B729m0sUTyV9_clear-1)"><path d="M 232810 -110435 232810 -109435 M 234160 -109435 234160 -110435 M 221725 -110480 222725 -110480 M 222725 -111830 221725 -111830 M 225930 -110475 226930 -110475 M 226930 -111825 225930 -111825 M 221750 -107395 221750 -108395 M 220400 -108395 220400 -107395 M 223690 -107385 223690 -108385 M 222340 -108385 222340 -107385 M 232690 -106015 232690 -105015 M 234040 -105015 234040 -106015 M 237490 -109220 237490 -101600 M 234950 -109220 234950 -101600 M 234670 -112040 234670 -110490 M 237490 -101600 234950 -101600 M 234950 -109220 237490 -109220 M 237770 -110490 237770 -112040 234670 -112040 M 217170 -104140 217170 -111760 M 219710 -104140 219710 -111760 M 219990 -101320 219990 -102870 M 217170 -111760 219710 -111760 M 219710 -104140 217170 -104140 M 216890 -102870 216890 -101320 219990 -101320 M 230175 -110595 230875 -110595 M 230875 -111795 230175 -111795 M 221725 -103755 222425 -103755 M 222425 -104955 221725 -104955 M 222485 -103185 221785 -103185 M 221785 -101985 222485 -101985 M 226190 -104680 226190 -104825 M 230340 -104680 230340 -104825 M 230340 -109830 230340 -109685 M 226190 -109830 226190 -109685 M 226190 -104680 230340 -104680 M 226190 -109830 230340 -109830 M 226190 -104825 224790 -104825 M 228605.42 -101955 228455.56 -101955 M 229453.78 -101955 229654.44 -101955 M 228605.42 -101955 228605.42 -102704.3 M 228605.42 -101955 228605.42 -101253.96 M 228605.42 -101955 229453.78 -101253.96 229453.78 -102656.04 228605.42 -101955 M 232601.666 -109871.666 232268.333 -110105 M 232601.666 -110271.666 231901.666 -110271.666 231901.666 -110005 231935 -109938.333 231968.333 -109905 232035 -109871.666 232135 -109871.666 232201.666 -109905 232235 -109938.333 232268.333 -110005 232268.333 -110271.666 M 231901.666 -109271.666 231901.666 -109405 231935 -109471.666 231968.333 -109505 232068.333 -109571.666 232201.666 -109605 232468.333 -109605 232535 -109571.666 232568.333 -109538.333 232601.666 -109471.666 232601.666 -109338.333 232568.333 -109271.666 232535 -109238.333 232468.333 -109205 232301.666 -109205 232235 -109238.333 232201.666 -109271.666 232168.333 -109338.333 232168.333 -109471.666 232201.666 -109538.333 232235 -109571.666 232301.666 -109605 M 222138.333 -112801.666 221905 -112468.333 M 221738.333 -112801.666 221738.333 -112101.666 222005 -112101.666 222071.666 -112135 222105 -112168.333 222138.333 -112235 222138.333 -112335 222105 -112401.666 222071.666 -112435 222005 -112468.333 221738.333 -112468.333 M 222771.666 -112101.666 222438.333 -112101.666 222405 -112435 222438.333 -112401.666 222505 -112368.333 222671.666 -112368.333 222738.333 -112401.666 222771.666 -112435 222805 -112501.666 222805 -112668.333 222771.666 -112735 222738.333 -112768.333 222671.666 -112801.666 222505 -112801.666 222438.333 -112768.333 222405 -112735 M 226328.333 -112811.666 226095 -112478.333 M 225928.333 -112811.666 225928.333 -112111.666 226195 -112111.666 226261.666 -112145 226295 -112178.333 226328.333 -112245 226328.333 -112345 226295 -112411.666 226261.666 -112445 226195 -112478.333 225928.333 -112478.333 M 226928.333 -112345 226928.333 -112811.666 M 226761.666 -112078.333 226595 -112578.333 227028.333 -112578.333 M 222361.666 -109841.666 222028.333 -110075 M 222361.666 -110241.666 221661.666 -110241.666 221661.666 -109975 221695 -109908.333 221728.333 -109875 221795 -109841.666 221895 -109841.666 221961.666 -109875 221995 -109908.333 222028.333 -109975 222028.333 -110241.666 M 222361.666 -109175 222361.666 -109575 M 222361.666 -109375 221661.666 -109375 221761.666 -109441.666 221828.333 -109508.333 221861.666 -109575 M 224401.666 -109621.666 224068.333 -109855 M 224401.666 -110021.666 223701.666 -110021.666 223701.666 -109755 223735 -109688.333 223768.333 -109655 223835 -109621.666 223935 -109621.666 224001.666 -109655 224035 -109688.333 224068.333 -109755 224068.333 -110021.666 M 223768.333 -109355 223735 -109321.666 223701.666 -109255 223701.666 -109088.333 223735 -109021.666 223768.333 -108988.333 223835 -108955 223901.666 -108955 224001.666 -108988.333 224401.666 -109388.333 224401.666 -108955 M 231648.333 -104251.666 231415 -103918.333 M 231248.333 -104251.666 231248.333 -103551.666 231515 -103551.666 231581.666 -103585 231615 -103618.333 231648.333 -103685 231648.333 -103785 231615 -103851.666 231581.666 -103885 231515 -103918.333 231248.333 -103918.333 M 231881.666 -103551.666 232315 -103551.666 232081.666 -103818.333 232181.666 -103818.333 232248.333 -103851.666 232281.666 -103885 232315 -103951.666 232315 -104118.333 232281.666 -104185 232248.333 -104218.333 232181.666 -104251.666 231981.666 -104251.666 231915 -104218.333 231881.666 -104185 M 235218.333 -101201.666 235218.333 -100501.666 235485 -100501.666 235551.666 -100535 235585 -100568.333 235618.333 -100635 235618.333 -100735 235585 -100801.666 235551.666 -100835 235485 -100868.333 235218.333 -100868.333 M 235885 -100568.333 235918.333 -100535 235985 -100501.666 236151.666 -100501.666 236218.333 -100535 236251.666 -100568.333 236285 -100635 236285 -100701.666 236251.666 -100801.666 235851.666 -101201.666 236285 -101201.666 M 217918.333 -101211.666 217918.333 -100511.666 218185 -100511.666 218251.666 -100545 218285 -100578.333 218318.333 -100645 218318.333 -100745 218285 -100811.666 218251.666 -100845 218185 -100878.333 217918.333 -100878.333 M 218985 -101211.666 218585 -101211.666 M 218785 -101211.666 218785 -100511.666 218718.333 -100611.666 218651.666 -100678.333 218585 -100711.666 M 230368.333 -112695 230335 -112728.333 230235 -112761.666 230168.333 -112761.666 230068.333 -112728.333 230001.666 -112661.666 229968.333 -112595 229935 -112461.666 229935 -112361.666 229968.333 -112228.333 230001.666 -112161.666 230068.333 -112095 230168.333 -112061.666 230235 -112061.666 230335 -112095 230368.333 -112128.333 M 230635 -112128.333 230668.333 -112095 230735 -112061.666 230901.666 -112061.666 230968.333 -112095 231001.666 -112128.333 231035 -112195 231035 -112261.666 231001.666 -112361.666 230601.666 -112761.666 231035 -112761.666 M 221928.333 -105785 221895 -105818.333 221795 -105851.666 221728.333 -105851.666 221628.333 -105818.333 221561.666 -105751.666 221528.333 -105685 221495 -105551.666 221495 -105451.666 221528.333 -105318.333 221561.666 -105251.666 221628.333 -105185 221728.333 -105151.666 221795 -105151.666 221895 -105185 221928.333 -105218.333 M 222528.333 -105385 222528.333 -105851.666 M 222361.666 -105118.333 222195 -105618.333 222628.333 -105618.333 M 222108.333 -101515 222075 -101548.333 221975 -101581.666 221908.333 -101581.666 221808.333 -101548.333 221741.666 -101481.666 221708.333 -101415 221675 -101281.666 221675 -101181.666 221708.333 -101048.333 221741.666 -100981.666 221808.333 -100915 221908.333 -100881.666 221975 -100881.666 222075 -100915 222108.333 -100948.333 M 222775 -101581.666 222375 -101581.666 M 222575 -101581.666 222575 -100881.666 222508.333 -100981.666 222441.666 -101048.333 222375 -101081.666 M 225368.333 -104568.333 225301.666 -104535 225235 -104468.333 225135 -104368.333 225068.333 -104335 225001.666 -104335 M 225035 -104501.666 224968.333 -104468.333 224901.666 -104401.666 224868.333 -104268.333 224868.333 -104035 224901.666 -103901.666 224968.333 -103835 225035 -103801.666 225168.333 -103801.666 225235 -103835 225301.666 -103901.666 225335 -104035 225335 -104268.333 225301.666 -104401.666 225235 -104468.333 225168.333 -104501.666 225035 -104501.666 M 226001.666 -104501.666 225601.666 -104501.666 M 225801.666 -104501.666 225801.666 -103801.666 225735 -103901.666 225668.333 -103968.333 225601.666 -104001.666 M 228648.333 -103751.666 228648.333 -103051.666 228815 -103051.666 228915 -103085 228981.666 -103151.666 229015 -103218.333 229048.333 -103351.666 229048.333 -103451.666 229015 -103585 228981.666 -103651.666 228915 -103718.333 228815 -103751.666 228648.333 -103751.666 M 229715 -103751.666 229315 -103751.666 M 229515 -103751.666 229515 -103051.666 229448.333 -103151.666 229381.666 -103218.333 229315 -103251.666 M 223871.666 -101631.666 223871.666 -100931.666 M 224271.666 -101631.666 223971.666 -101231.666 M 224271.666 -100931.666 223871.666 -101331.666 M 233908.333 -101421.666 234241.666 -101421.666 M 233841.666 -101621.666 234075 -100921.666 234308.333 -101621.666" fill="none" stroke-width="150"/></g></g><g id="pcb-stackup_top_drl1" transform="scale(25.4,25.4)"/><g id="pcb-stackup_top_drl2"><use xlink:href="#fOaxs_rJNK13_pad-1" x="220735" y="-112255"/><use xlink:href="#fOaxs_rJNK13_pad-1" x="223790" y="-107295"/><use xlink:href="#fOaxs_rJNK13_pad-1" x="224225" y="-104925"/><use xlink:href="#fOaxs_rJNK13_pad-1" x="226796" y="-108879"/><use xlink:href="#fOaxs_rJNK13_pad-1" x="227055" y="-105325"/><use xlink:href="#fOaxs_rJNK13_pad-1" x="227055" y="-107425"/><use xlink:href="#fOaxs_rJNK13_pad-1" x="228106" y="-107328"/><use xlink:href="#fOaxs_rJNK13_pad-1" x="228228" y="-109356"/><use xlink:href="#fOaxs_rJNK13_pad-1" x="228295" y="-105355"/><use xlink:href="#fOaxs_rJNK13_pad-1" x="228465" y="-104005"/><use xlink:href="#fOaxs_rJNK13_pad-1" x="229529" y="-108779"/><use xlink:href="#fOaxs_rJNK13_pad-1" x="232705" y="-112425"/><use xlink:href="#fOaxs_rJNK13_pad-1" x="232724" y="-107326"/><use xlink:href="#fOaxs_rJNK13_pad-2" x="218440" y="-102870"/><use xlink:href="#fOaxs_rJNK13_pad-2" x="218440" y="-105410"/><use xlink:href="#fOaxs_rJNK13_pad-2" x="218440" y="-107950"/><use xlink:href="#fOaxs_rJNK13_pad-2" x="218440" y="-110490"/><use xlink:href="#fOaxs_rJNK13_pad-2" x="236220" y="-102870"/><use xlink:href="#fOaxs_rJNK13_pad-2" x="236220" y="-105410"/><use xlink:href="#fOaxs_rJNK13_pad-2" x="236220" y="-107950"/><use xlink:href="#fOaxs_rJNK13_pad-2" x="236220" y="-110490"/></g><clipPath id="pcb-stackup_top_out"><path d="M 237490 -100330 217170 -100330 215900 -101600 215900 -111760 217170 -113030 237490 -113030 238760 -111760 238760 -101600 237490 -100330" fill="none" stroke-width="150"/></clipPath><mask id="pcb-stackup_top_mech-mask"><g fill="#000" stroke="#000"><rect x="215900" y="-113030" width="22860" height="12700" fill="#fff"/><use xlink:href="#pcb-stackup_top_drl1"/><use xlink:href="#pcb-stackup_top_drl2"/></g></mask><mask id="pcb-stackup_top_cf-mask"><g fill="#fff" stroke="#fff"><use xlink:href="#pcb-stackup_top_sm"/></g></mask><mask id="pcb-stackup_top_sm-mask"><g fill="#000" stroke="#000"><rect x="215900" y="-113030" width="22860" height="12700" fill="#fff"/><use xlink:href="#pcb-stackup_top_sm"/></g></mask></defs><g transform="translate(0,-213360) scale(1,-1)"><g mask="url(#pcb-stackup_top_mech-mask)" clip-path="url(#pcb-stackup_top_out)"><rect x="215900" y="-113030" width="22860" height="12700" fill="currentColor" class="pcb-stackup_fr4"/><use xlink:href="#pcb-stackup_top_cu" fill="currentColor" stroke="currentColor" class="pcb-stackup_cu"/><use xlink:href="#pcb-stackup_top_cu" fill="currentColor" stroke="currentColor" class="pcb-stackup_cf" mask="url(#pcb-stackup_top_cf-mask)"/><g mask="url(#pcb-stackup_top_sm-mask)"><rect x="215900" y="-113030" width="22860" height="12700" fill="currentColor" class="pcb-stackup_sm"/><use xlink:href="#pcb-stackup_top_ss" fill="currentColor" stroke="currentColor" class="pcb-stackup_ss"/></g></g></g></svg>