<svg id="pcb-stackup_bottom" version="1.1" xmlns:xlink="http://www.w3.org/1999/xlink" stroke-linecap="round" stroke-linejoin="round" stroke-width="0" fill-rule="evenodd" clip-rule="evenodd" viewBox="5080 1270 96190 78730" width="96.19mm" height="78.73mm" xmlns="http://www.w3.org/2000/svg"><defs><style>.pcb-stackup_fr4 {color: #4D542C;}
.pcb-stackup_cu {color: lightgrey;}
.pcb-stackup_cf {color: goldenrod;}
.pcb-stackup_sm {color: #004400; opacity: 0.9;}
.pcb-stackup_ss {color: white;}
.pcb-stackup_sp {color: #000000; opacity: 0;}
.pcb-stackup_out {color: black;}</style><circle cx="0" cy="0" r="1580" id="sSKt26I9KUTd_pad-10"/><circle cx="0" cy="0" r="2475" id="sSKt26I9KUTd_pad-11"/><polygon points="-347.19318,838.19848 -838.19848,347.19318 -838.19848,-347.19318 -347.19318,-838.19848 347.19318,-838.19848 838.19848,-347.19318 838.19848,347.19318 347.19318,838.19848" id="sSKt26I9KUTd_pad-12"/><polygon points="-273.54614,660.39879 -660.39879,273.54614 -660.39879,-273.54614 -273.54614,-660.39879 273.54614,-660.39879 660.39879,-273.54614 660.39879,273.54614 273.54614,660.39879" id="sSKt26I9KUTd_pad-13"/><polygon points="273.54614,-660.39879 660.39879,-273.54614 660.39879,273.54614 273.54614,660.39879 -273.54614,660.39879 -660.39879,273.54614 -660.39879,-273.54614 -273.54614,-660.39879" id="sSKt26I9KUTd_pad-14"/><circle cx="0" cy="0" r="654" id="sSKt26I9KUTd_pad-16"/><circle cx="0" cy="0" r="971.55" id="sSKt26I9KUTd_pad-17"/><circle cx="0" cy="0" r="838.2" id="sSKt26I9KUTd_pad-18"/><rect x="-1400" y="-1400" width="2800" height="2800" id="sSKt26I9KUTd_pad-19"/><polygon points="1079.4978,447.14263 447.14263,1079.4978 -447.14263,1079.4978 -1079.4978,447.14263 -1079.4978,-447.14263 -447.14263,-1079.4978 447.14263,-1079.4978 1079.4978,-447.14263" id="sSKt26I9KUTd_pad-20"/><circle cx="0" cy="0" r="1580" id="sSKt26I9KUTd_pad-10"/><circle cx="0" cy="0" r="2475" id="sSKt26I9KUTd_pad-11"/><polygon points="-347.19318,838.19848 -838.19848,347.19318 -838.19848,-347.19318 -347.19318,-838.19848 347.19318,-838.19848 838.19848,-347.19318 838.19848,347.19318 347.19318,838.19848" id="sSKt26I9KUTd_pad-12"/><polygon points="-273.54614,660.39879 -660.39879,273.54614 -660.39879,-273.54614 -273.54614,-660.39879 273.54614,-660.39879 660.39879,-273.54614 660.39879,273.54614 273.54614,660.39879" id="sSKt26I9KUTd_pad-13"/><polygon points="273.54614,-660.39879 660.39879,-273.54614 660.39879,273.54614 273.54614,660.39879 -273.54614,660.39879 -660.39879,273.54614 -660.39879,-273.54614 -273.54614,-660.39879" id="sSKt26I9KUTd_pad-14"/><circle cx="0" cy="0" r="654" id="sSKt26I9KUTd_pad-16"/><circle cx="0" cy="0" r="971.55" id="sSKt26I9KUTd_pad-17"/><circle cx="0" cy="0" r="838.2" id="sSKt26I9KUTd_pad-18"/><rect x="-1400" y="-1400" width="2800" height="2800" id="sSKt26I9KUTd_pad-19"/><polygon points="1079.4978,447.14263 447.14263,1079.4978 -447.14263,1079.4978 -1079.4978,447.14263 -1079.4978,-447.14263 -447.14263,-1079.4978 447.14263,-1079.4978 1079.4978,-447.14263" id="sSKt26I9KUTd_pad-20"/><circle cx="0" cy="0" r="1681.6" id="_ME0COxi5Gxc_pad-10"/><circle cx="0" cy="0" r="2576.6" id="_ME0COxi5Gxc_pad-11"/><polygon points="-389.27707,939.79798 -939.79798,389.27707 -939.79798,-389.27707 -389.27707,-939.79798 389.27707,-939.79798 939.79798,-389.27707 939.79798,389.27707 389.27707,939.79798" id="_ME0COxi5Gxc_pad-12"/><polygon points="-315.63002,761.99828 -761.99828,315.63002 -761.99828,-315.63002 -315.63002,-761.99828 315.63002,-761.99828 761.99828,-315.63002 761.99828,315.63002 315.63002,761.99828" id="_ME0COxi5Gxc_pad-13"/><polygon points="315.63002,-761.99828 761.99828,-315.63002 761.99828,315.63002 315.63002,761.99828 -315.63002,761.99828 -761.99828,315.63002 -761.99828,-315.63002 -315.63002,-761.99828" id="_ME0COxi5Gxc_pad-14"/><circle cx="0" cy="0" r="755.6" id="_ME0COxi5Gxc_pad-16"/><circle cx="0" cy="0" r="1073.15" id="_ME0COxi5Gxc_pad-17"/><circle cx="0" cy="0" r="939.8" id="_ME0COxi5Gxc_pad-18"/><rect x="-1501.6" y="-1501.6" width="3003.2" height="3003.2" id="_ME0COxi5Gxc_pad-19"/><polygon points="1181.09776,489.22671 489.22671,1181.09776 -489.22671,1181.09776 -1181.09776,489.22671 -1181.09776,-489.22671 -489.22671,-1181.09776 489.22671,-1181.09776 1181.09776,-489.22671" id="_ME0COxi5Gxc_pad-20"/><circle cx="0" cy="0" r="1580" id="sSKt26I9KUTd_pad-10"/><circle cx="0" cy="0" r="2475" id="sSKt26I9KUTd_pad-11"/><polygon points="-347.19318,838.19848 -838.19848,347.19318 -838.19848,-347.19318 -347.19318,-838.19848 347.19318,-838.19848 838.19848,-347.19318 838.19848,347.19318 347.19318,838.19848" id="sSKt26I9KUTd_pad-12"/><polygon points="-273.54614,660.39879 -660.39879,273.54614 -660.39879,-273.54614 -273.54614,-660.39879 273.54614,-660.39879 660.39879,-273.54614 660.39879,273.54614 273.54614,660.39879" id="sSKt26I9KUTd_pad-13"/><polygon points="273.54614,-660.39879 660.39879,-273.54614 660.39879,273.54614 273.54614,660.39879 -273.54614,660.39879 -660.39879,273.54614 -660.39879,-273.54614 -273.54614,-660.39879" id="sSKt26I9KUTd_pad-14"/><circle cx="0" cy="0" r="654" id="sSKt26I9KUTd_pad-16"/><circle cx="0" cy="0" r="971.55" id="sSKt26I9KUTd_pad-17"/><circle cx="0" cy="0" r="838.2" id="sSKt26I9KUTd_pad-18"/><rect x="-1400" y="-1400" width="2800" height="2800" id="sSKt26I9KUTd_pad-19"/><polygon points="1079.4978,447.14263 447.14263,1079.4978 -447.14263,1079.4978 -1079.4978,447.14263 -1079.4978,-447.14263 -447.14263,-1079.4978 447.14263,-1079.4978 1079.4978,-447.14263" id="sSKt26I9KUTd_pad-20"/><circle cx="0" cy="0" r="1580" id="sSKt26I9KUTd_pad-10"/><circle cx="0" cy="0" r="2475" id="sSKt26I9KUTd_pad-11"/><polygon points="-347.19318,838.19848 -838.19848,347.19318 -838.19848,-347.19318 -347.19318,-838.19848 347.19318,-838.19848 838.19848,-347.19318 838.19848,347.19318 347.19318,838.19848" id="sSKt26I9KUTd_pad-12"/><polygon points="-273.54614,660.39879 -660.39879,273.54614 -660.39879,-273.54614 -273.54614,-660.39879 273.54614,-660.39879 660.39879,-273.54614 660.39879,273.54614 273.54614,660.39879" id="sSKt26I9KUTd_pad-13"/><polygon points="273.54614,-660.39879 660.39879,-273.54614 660.39879,273.54614 273.54614,660.39879 -273.54614,660.39879 -660.39879,273.54614 -660.39879,-273.54614 -273.54614,-660.39879" id="sSKt26I9KUTd_pad-14"/><circle cx="0" cy="0" r="654" id="sSKt26I9KUTd_pad-16"/><circle cx="0" cy="0" r="971.55" id="sSKt26I9KUTd_pad-17"/><circle cx="0" cy="0" r="838.2" id="sSKt26I9KUTd_pad-18"/><rect x="-1400" y="-1400" width="2800" height="2800" id="sSKt26I9KUTd_pad-19"/><polygon points="1079.4978,447.14263 447.14263,1079.4978 -447.14263,1079.4978 -1079.4978,447.14263 -1079.4978,-447.14263 -447.14263,-1079.4978 447.14263,-1079.4978 1079.4978,-447.14263" id="sSKt26I9KUTd_pad-20"/><circle cx="0" cy="0" r="1681.6" id="_ME0COxi5Gxc_pad-10"/><circle cx="0" cy="0" r="2576.6" id="_ME0COxi5Gxc_pad-11"/><polygon points="-389.27707,939.79798 -939.79798,389.27707 -939.79798,-389.27707 -389.27707,-939.79798 389.27707,-939.79798 939.79798,-389.27707 939.79798,389.27707 389.27707,939.79798" id="_ME0COxi5Gxc_pad-12"/><polygon points="-315.63002,761.99828 -761.99828,315.63002 -761.99828,-315.63002 -315.63002,-761.99828 315.63002,-761.99828 761.99828,-315.63002 761.99828,315.63002 315.63002,761.99828" id="_ME0COxi5Gxc_pad-13"/><polygon points="315.63002,-761.99828 761.99828,-315.63002 761.99828,315.63002 315.63002,761.99828 -315.63002,761.99828 -761.99828,315.63002 -761.99828,-315.63002 -315.63002,-761.99828" id="_ME0COxi5Gxc_pad-14"/><circle cx="0" cy="0" r="755.6" id="_ME0COxi5Gxc_pad-16"/><circle cx="0" cy="0" r="1073.15" id="_ME0COxi5Gxc_pad-17"/><circle cx="0" cy="0" r="939.8" id="_ME0COxi5Gxc_pad-18"/><rect x="-1501.6" y="-1501.6" width="3003.2" height="3003.2" id="_ME0COxi5Gxc_pad-19"/><polygon points="1181.09776,489.22671 489.22671,1181.09776 -489.22671,1181.09776 -1181.09776,489.22671 -1181.09776,-489.22671 -489.22671,-1181.09776 489.22671,-1181.09776 1181.09776,-489.22671" id="_ME0COxi5Gxc_pad-20"/><circle cx="0" cy="0" r="1580" id="sSKt26I9KUTd_pad-10"/><circle cx="0" cy="0" r="2475" id="sSKt26I9KUTd_pad-11"/><polygon points="-347.19318,838.19848 -838.19848,347.19318 -838.19848,-347.19318 -347.19318,-838.19848 347.19318,-838.19848 838.19848,-347.19318 838.19848,347.19318 347.19318,838.19848" id="sSKt26I9KUTd_pad-12"/><polygon points="-273.54614,660.39879 -660.39879,273.54614 -660.39879,-273.54614 -273.54614,-660.39879 273.54614,-660.39879 660.39879,-273.54614 660.39879,273.54614 273.54614,660.39879" id="sSKt26I9KUTd_pad-13"/><polygon points="273.54614,-660.39879 660.39879,-273.54614 660.39879,273.54614 273.54614,660.39879 -273.54614,660.39879 -660.39879,273.54614 -660.39879,-273.54614 -273.54614,-660.39879" id="sSKt26I9KUTd_pad-14"/><circle cx="0" cy="0" r="654" id="sSKt26I9KUTd_pad-16"/><circle cx="0" cy="0" r="971.55" id="sSKt26I9KUTd_pad-17"/><circle cx="0" cy="0" r="838.2" id="sSKt26I9KUTd_pad-18"/><rect x="-1400" y="-1400" width="2800" height="2800" id="sSKt26I9KUTd_pad-19"/><polygon points="1079.4978,447.14263 447.14263,1079.4978 -447.14263,1079.4978 -1079.4978,447.14263 -1079.4978,-447.14263 -447.14263,-1079.4978 447.14263,-1079.4978 1079.4978,-447.14263" id="sSKt26I9KUTd_pad-20"/><circle cx="0" cy="0" r="1580" id="sSKt26I9KUTd_pad-10"/><circle cx="0" cy="0" r="2475" id="sSKt26I9KUTd_pad-11"/><polygon points="-347.19318,838.19848 -838.19848,347.19318 -838.19848,-347.19318 -347.19318,-838.19848 347.19318,-838.19848 838.19848,-347.19318 838.19848,347.19318 347.19318,838.19848" id="sSKt26I9KUTd_pad-12"/><polygon points="-273.54614,660.39879 -660.39879,273.54614 -660.39879,-273.54614 -273.54614,-660.39879 273.54614,-660.39879 660.39879,-273.54614 660.39879,273.54614 273.54614,660.39879" id="sSKt26I9KUTd_pad-13"/><polygon points="273.54614,-660.39879 660.39879,-273.54614 660.39879,273.54614 273.54614,660.39879 -273.54614,660.39879 -660.39879,273.54614 -660.39879,-273.54614 -273.54614,-660.39879" id="sSKt26I9KUTd_pad-14"/><circle cx="0" cy="0" r="654" id="sSKt26I9KUTd_pad-16"/><circle cx="0" cy="0" r="971.55" id="sSKt26I9KUTd_pad-17"/><circle cx="0" cy="0" r="838.2" id="sSKt26I9KUTd_pad-18"/><rect x="-1400" y="-1400" width="2800" height="2800" id="sSKt26I9KUTd_pad-19"/><polygon points="1079.4978,447.14263 447.14263,1079.4978 -447.14263,1079.4978 -1079.4978,447.14263 -1079.4978,-447.14263 -447.14263,-1079.4978 447.14263,-1079.4978 1079.4978,-447.14263" id="sSKt26I9KUTd_pad-20"/><circle cx="0" cy="0" r="1681.6" id="_ME0COxi5Gxc_pad-10"/><circle cx="0" cy="0" r="2576.6" id="_ME0COxi5Gxc_pad-11"/><polygon points="-389.27707,939.79798 -939.79798,389.27707 -939.79798,-389.27707 -389.27707,-939.79798 389.27707,-939.79798 939.79798,-389.27707 939.79798,389.27707 389.27707,939.79798" id="_ME0COxi5Gxc_pad-12"/><polygon points="-315.63002,761.99828 -761.99828,315.63002 -761.99828,-315.63002 -315.63002,-761.99828 315.63002,-761.99828 761.99828,-315.63002 761.99828,315.63002 315.63002,761.99828" id="_ME0COxi5Gxc_pad-13"/><polygon points="315.63002,-761.99828 761.99828,-315.63002 761.99828,315.63002 315.63002,761.99828 -315.63002,761.99828 -761.99828,315.63002 -761.99828,-315.63002 -315.63002,-761.99828" id="_ME0COxi5Gxc_pad-14"/><circle cx="0" cy="0" r="755.6" id="_ME0COxi5Gxc_pad-16"/><circle cx="0" cy="0" r="1073.15" id="_ME0COxi5Gxc_pad-17"/><circle cx="0" cy="0" r="939.8" id="_ME0COxi5Gxc_pad-18"/><rect x="-1501.6" y="-1501.6" width="3003.2" height="3003.2" id="_ME0COxi5Gxc_pad-19"/><polygon points="1181.09776,489.22671 489.22671,1181.09776 -489.22671,1181.09776 -1181.09776,489.22671 -1181.09776,-489.22671 -489.22671,-1181.09776 489.22671,-1181.09776 1181.09776,-489.22671" id="_ME0COxi5Gxc_pad-20"/><circle cx="0" cy="0" r="1580" id="sSKt26I9KUTd_pad-10"/><circle cx="0" cy="0" r="2475" id="sSKt26I9KUTd_pad-11"/><polygon points="-347.19318,838.19848 -838.19848,347.19318 -838.19848,-347.19318 -347.19318,-838.19848 347.19318,-838.19848 838.19848,-347.19318 838.19848,347.19318 347.19318,838.19848" id="sSKt26I9KUTd_pad-12"/><polygon points="-273.54614,660.39879 -660.39879,273.54614 -660.39879,-273.54614 -273.54614,-660.39879 273.54614,-660.39879 660.39879,-273.54614 660.39879,273.54614 273.54614,660.39879" id="sSKt26I9KUTd_pad-13"/><polygon points="273.54614,-660.39879 660.39879,-273.54614 660.39879,273.54614 273.54614,660.39879 -273.54614,660.39879 -660.39879,273.54614 -660.39879,-273.54614 -273.54614,-660.39879" id="sSKt26I9KUTd_pad-14"/><circle cx="0" cy="0" r="654" id="sSKt26I9KUTd_pad-16"/><circle cx="0" cy="0" r="971.55" id="sSKt26I9KUTd_pad-17"/><circle cx="0" cy="0" r="838.2" id="sSKt26I9KUTd_pad-18"/><rect x="-1400" y="-1400" width="2800" height="2800" id="sSKt26I9KUTd_pad-19"/><polygon points="1079.4978,447.14263 447.14263,1079.4978 -447.14263,1079.4978 -1079.4978,447.14263 -1079.4978,-447.14263 -447.14263,-1079.4978 447.14263,-1079.4978 1079.4978,-447.14263" id="sSKt26I9KUTd_pad-20"/><circle cx="0" cy="0" r="1580" id="sSKt26I9KUTd_pad-10"/><circle cx="0" cy="0" r="2475" id="sSKt26I9KUTd_pad-11"/><polygon points="-347.19318,838.19848 -838.19848,347.19318 -838.19848,-347.19318 -347.19318,-838.19848 347.19318,-838.19848 838.19848,-347.19318 838.19848,347.19318 347.19318,838.19848" id="sSKt26I9KUTd_pad-12"/><polygon points="-273.54614,660.39879 -660.39879,273.54614 -660.39879,-273.54614 -273.54614,-660.39879 273.54614,-660.39879 660.39879,-273.54614 660.39879,273.54614 273.54614,660.39879" id="sSKt26I9KUTd_pad-13"/><polygon points="273.54614,-660.39879 660.39879,-273.54614 660.39879,273.54614 273.54614,660.39879 -273.54614,660.39879 -660.39879,273.54614 -660.39879,-273.54614 -273.54614,-660.39879" id="sSKt26I9KUTd_pad-14"/><circle cx="0" cy="0" r="654" id="sSKt26I9KUTd_pad-16"/><circle cx="0" cy="0" r="971.55" id="sSKt26I9KUTd_pad-17"/><circle cx="0" cy="0" r="838.2" id="sSKt26I9KUTd_pad-18"/><rect x="-1400" y="-1400" width="2800" height="2800" id="sSKt26I9KUTd_pad-19"/><polygon points="1079.4978,447.14263 447.14263,1079.4978 -447.14263,1079.4978 -1079.4978,447.14263 -1079.4978,-447.14263 -447.14263,-1079.4978 447.14263,-1079.4978 1079.4978,-447.14263" id="sSKt26I9KUTd_pad-20"/><circle cx="0" cy="0" r="1681.6" id="_ME0COxi5Gxc_pad-10"/><circle cx="0" cy="0" r="2576.6" id="_ME0COxi5Gxc_pad-11"/><polygon points="-389.27707,939.79798 -939.79798,389.27707 -939.79798,-389.27707 -389.27707,-939.79798 389.27707,-939.79798 939.79798,-389.27707 939.79798,389.27707 389.27707,939.79798" id="_ME0COxi5Gxc_pad-12"/><polygon points="-315.63002,761.99828 -761.99828,315.63002 -761.99828,-315.63002 -315.63002,-761.99828 315.63002,-761.99828 761.99828,-315.63002 761.99828,315.63002 315.63002,761.99828" id="_ME0COxi5Gxc_pad-13"/><polygon points="315.63002,-761.99828 761.99828,-315.63002 761.99828,315.63002 315.63002,761.99828 -315.63002,761.99828 -761.99828,315.63002 -761.99828,-315.63002 -315.63002,-761.99828" id="_ME0COxi5Gxc_pad-14"/><circle cx="0" cy="0" r="755.6" id="_ME0COxi5Gxc_pad-16"/><circle cx="0" cy="0" r="1073.15" id="_ME0COxi5Gxc_pad-17"/><circle cx="0" cy="0" r="939.8" id="_ME0COxi5Gxc_pad-18"/><rect x="-1501.6" y="-1501.6" width="3003.2" height="3003.2" id="_ME0COxi5Gxc_pad-19"/><polygon points="1181.09776,489.22671 489.22671,1181.09776 -489.22671,1181.09776 -1181.09776,489.22671 -1181.09776,-489.22671 -489.22671,-1181.09776 489.22671,-1181.09776 1181.09776,-489.22671" id="_ME0COxi5Gxc_pad-20"/><circle cx="0" cy="0" r="1580" id="sSKt26I9KUTd_pad-10"/><circle cx="0" cy="0" r="2475" id="sSKt26I9KUTd_pad-11"/><polygon points="-347.19318,838.19848 -838.19848,347.19318 -838.19848,-347.19318 -347.19318,-838.19848 347.19318,-838.19848 838.19848,-347.19318 838.19848,347.19318 347.19318,838.19848" id="sSKt26I9KUTd_pad-12"/><polygon points="-273.54614,660.39879 -660.39879,273.54614 -660.39879,-273.54614 -273.54614,-660.39879 273.54614,-660.39879 660.39879,-273.54614 660.39879,273.54614 273.54614,660.39879" id="sSKt26I9KUTd_pad-13"/><polygon points="273.54614,-660.39879 660.39879,-273.54614 660.39879,273.54614 273.54614,660.39879 -273.54614,660.39879 -660.39879,273.54614 -660.39879,-273.54614 -273.54614,-660.39879" id="sSKt26I9KUTd_pad-14"/><circle cx="0" cy="0" r="654" id="sSKt26I9KUTd_pad-16"/><circle cx="0" cy="0" r="971.55" id="sSKt26I9KUTd_pad-17"/><circle cx="0" cy="0" r="838.2" id="sSKt26I9KUTd_pad-18"/><rect x="-1400" y="-1400" width="2800" height="2800" id="sSKt26I9KUTd_pad-19"/><polygon points="1079.4978,447.14263 447.14263,1079.4978 -447.14263,1079.4978 -1079.4978,447.14263 -1079.4978,-447.14263 -447.14263,-1079.4978 447.14263,-1079.4978 1079.4978,-447.14263" id="sSKt26I9KUTd_pad-20"/><circle cx="0" cy="0" r="1580" id="sSKt26I9KUTd_pad-10"/><circle cx="0" cy="0" r="2475" id="sSKt26I9KUTd_pad-11"/><polygon points="-347.19318,838.19848 -838.19848,347.19318 -838.19848,-347.19318 -347.19318,-838.19848 347.19318,-838.19848 838.19848,-347.19318 838.19848,347.19318 347.19318,838.19848" id="sSKt26I9KUTd_pad-12"/><polygon points="-273.54614,660.39879 -660.39879,273.54614 -660.39879,-273.54614 -273.54614,-660.39879 273.54614,-660.39879 660.39879,-273.54614 660.39879,273.54614 273.54614,660.39879" id="sSKt26I9KUTd_pad-13"/><polygon points="273.54614,-660.39879 660.39879,-273.54614 660.39879,273.54614 273.54614,660.39879 -273.54614,660.39879 -660.39879,273.54614 -660.39879,-273.54614 -273.54614,-660.39879" id="sSKt26I9KUTd_pad-14"/><circle cx="0" cy="0" r="654" id="sSKt26I9KUTd_pad-16"/><circle cx="0" cy="0" r="971.55" id="sSKt26I9KUTd_pad-17"/><circle cx="0" cy="0" r="838.2" id="sSKt26I9KUTd_pad-18"/><rect x="-1400" y="-1400" width="2800" height="2800" id="sSKt26I9KUTd_pad-19"/><polygon points="1079.4978,447.14263 447.14263,1079.4978 -447.14263,1079.4978 -1079.4978,447.14263 -1079.4978,-447.14263 -447.14263,-1079.4978 447.14263,-1079.4978 1079.4978,-447.14263" id="sSKt26I9KUTd_pad-20"/><circle cx="0" cy="0" r="1681.6" id="_ME0COxi5Gxc_pad-10"/><circle cx="0" cy="0" r="2576.6" id="_ME0COxi5Gxc_pad-11"/><polygon points="-389.27707,939.79798 -939.79798,389.27707 -939.79798,-389.27707 -389.27707,-939.79798 389.27707,-939.79798 939.79798,-389.27707 939.79798,389.27707 389.27707,939.79798" id="_ME0COxi5Gxc_pad-12"/><polygon points="-315.63002,761.99828 -761.99828,315.63002 -761.99828,-315.63002 -315.63002,-761.99828 315.63002,-761.99828 761.99828,-315.63002 761.99828,315.63002 315.63002,761.99828" id="_ME0COxi5Gxc_pad-13"/><polygon points="315.63002,-761.99828 761.99828,-315.63002 761.99828,315.63002 315.63002,761.99828 -315.63002,761.99828 -761.99828,315.63002 -761.99828,-315.63002 -315.63002,-761.99828" id="_ME0COxi5Gxc_pad-14"/><circle cx="0" cy="0" r="755.6" id="_ME0COxi5Gxc_pad-16"/><circle cx="0" cy="0" r="1073.15" id="_ME0COxi5Gxc_pad-17"/><circle cx="0" cy="0" r="939.8" id="_ME0COxi5Gxc_pad-18"/><rect x="-1501.6" y="-1501.6" width="3003.2" height="3003.2" id="_ME0COxi5Gxc_pad-19"/><polygon points="1181.09776,489.22671 489.22671,1181.09776 -489.22671,1181.09776 -1181.09776,489.22671 -1181.09776,-489.22671 -489.22671,-1181.09776 489.22671,-1181.09776 1181.09776,-489.22671" id="_ME0COxi5Gxc_pad-20"/><circle cx="0" cy="0" r="1580" id="sSKt26I9KUTd_pad-10"/><circle cx="0" cy="0" r="2475" id="sSKt26I9KUTd_pad-11"/><polygon points="-347.19318,838.19848 -838.19848,347.19318 -838.19848,-347.19318 -347.19318,-838.19848 347.19318,-838.19848 838.19848,-347.19318 838.19848,347.19318 347.19318,838.19848" id="sSKt26I9KUTd_pad-12"/><polygon points="-273.54614,660.39879 -660.39879,273.54614 -660.39879,-273.54614 -273.54614,-660.39879 273.54614,-660.39879 660.39879,-273.54614 660.39879,273.54614 273.54614,660.39879" id="sSKt26I9KUTd_pad-13"/><polygon points="273.54614,-660.39879 660.39879,-273.54614 660.39879,273.54614 273.54614,660.39879 -273.54614,660.39879 -660.39879,273.54614 -660.39879,-273.54614 -273.54614,-660.39879" id="sSKt26I9KUTd_pad-14"/><circle cx="0" cy="0" r="654" id="sSKt26I9KUTd_pad-16"/><circle cx="0" cy="0" r="971.55" id="sSKt26I9KUTd_pad-17"/><circle cx="0" cy="0" r="838.2" id="sSKt26I9KUTd_pad-18"/><rect x="-1400" y="-1400" width="2800" height="2800" id="sSKt26I9KUTd_pad-19"/><polygon points="1079.4978,447.14263 447.14263,1079.4978 -447.14263,1079.4978 -1079.4978,447.14263 -1079.4978,-447.14263 -447.14263,-1079.4978 447.14263,-1079.4978 1079.4978,-447.14263" id="sSKt26I9KUTd_pad-20"/><circle cx="0" cy="0" r="1580" id="sSKt26I9KUTd_pad-10"/><circle cx="0" cy="0" r="2475" id="sSKt26I9KUTd_pad-11"/><polygon points="-347.19318,838.19848 -838.19848,347.19318 -838.19848,-347.19318 -347.19318,-838.19848 347.19318,-838.19848 838.19848,-347.19318 838.19848,347.19318 347.19318,838.19848" id="sSKt26I9KUTd_pad-12"/><polygon points="-273.54614,660.39879 -660.39879,273.54614 -660.39879,-273.54614 -273.54614,-660.39879 273.54614,-660.39879 660.39879,-273.54614 660.39879,273.54614 273.54614,660.39879" id="sSKt26I9KUTd_pad-13"/><polygon points="273.54614,-660.39879 660.39879,-273.54614 660.39879,273.54614 273.54614,660.39879 -273.54614,660.39879 -660.39879,273.54614 -660.39879,-273.54614 -273.54614,-660.39879" id="sSKt26I9KUTd_pad-14"/><circle cx="0" cy="0" r="654" id="sSKt26I9KUTd_pad-16"/><circle cx="0" cy="0" r="971.55" id="sSKt26I9KUTd_pad-17"/><circle cx="0" cy="0" r="838.2" id="sSKt26I9KUTd_pad-18"/><rect x="-1400" y="-1400" width="2800" height="2800" id="sSKt26I9KUTd_pad-19"/><polygon points="1079.4978,447.14263 447.14263,1079.4978 -447.14263,1079.4978 -1079.4978,447.14263 -1079.4978,-447.14263 -447.14263,-1079.4978 447.14263,-1079.4978 1079.4978,-447.14263" id="sSKt26I9KUTd_pad-20"/><circle cx="0" cy="0" r="1681.6" id="_ME0COxi5Gxc_pad-10"/><circle cx="0" cy="0" r="2576.6" id="_ME0COxi5Gxc_pad-11"/><polygon points="-389.27707,939.79798 -939.79798,389.27707 -939.79798,-389.27707 -389.27707,-939.79798 389.27707,-939.79798 939.79798,-389.27707 939.79798,389.27707 389.27707,939.79798" id="_ME0COxi5Gxc_pad-12"/><polygon points="-315.63002,761.99828 -761.99828,315.63002 -761.99828,-315.63002 -315.63002,-761.99828 315.63002,-761.99828 761.99828,-315.63002 761.99828,315.63002 315.63002,761.99828" id="_ME0COxi5Gxc_pad-13"/><polygon points="315.63002,-761.99828 761.99828,-315.63002 761.99828,315.63002 315.63002,761.99828 -315.63002,761.99828 -761.99828,315.63002 -761.99828,-315.63002 -315.63002,-761.99828" id="_ME0COxi5Gxc_pad-14"/><circle cx="0" cy="0" r="755.6" id="_ME0COxi5Gxc_pad-16"/><circle cx="0" cy="0" r="1073.15" id="_ME0COxi5Gxc_pad-17"/><circle cx="0" cy="0" r="939.8" id="_ME0COxi5Gxc_pad-18"/><rect x="-1501.6" y="-1501.6" width="3003.2" height="3003.2" id="_ME0COxi5Gxc_pad-19"/><polygon points="1181.09776,489.22671 489.22671,1181.09776 -489.22671,1181.09776 -1181.09776,489.22671 -1181.09776,-489.22671 -489.22671,-1181.09776 489.22671,-1181.09776 1181.09776,-489.22671" id="_ME0COxi5Gxc_pad-20"/><circle cx="0" cy="0" r="1580" id="sSKt26I9KUTd_pad-10"/><circle cx="0" cy="0" r="2475" id="sSKt26I9KUTd_pad-11"/><polygon points="-347.19318,838.19848 -838.19848,347.19318 -838.19848,-347.19318 -347.19318,-838.19848 347.19318,-838.19848 838.19848,-347.19318 838.19848,347.19318 347.19318,838.19848" id="sSKt26I9KUTd_pad-12"/><polygon points="-273.54614,660.39879 -660.39879,273.54614 -660.39879,-273.54614 -273.54614,-660.39879 273.54614,-660.39879 660.39879,-273.54614 660.39879,273.54614 273.54614,660.39879" id="sSKt26I9KUTd_pad-13"/><polygon points="273.54614,-660.39879 660.39879,-273.54614 660.39879,273.54614 273.54614,660.39879 -273.54614,660.39879 -660.39879,273.54614 -660.39879,-273.54614 -273.54614,-660.39879" id="sSKt26I9KUTd_pad-14"/><circle cx="0" cy="0" r="654" id="sSKt26I9KUTd_pad-16"/><circle cx="0" cy="0" r="971.55" id="sSKt26I9KUTd_pad-17"/><circle cx="0" cy="0" r="838.2" id="sSKt26I9KUTd_pad-18"/><rect x="-1400" y="-1400" width="2800" height="2800" id="sSKt26I9KUTd_pad-19"/><polygon points="1079.4978,447.14263 447.14263,1079.4978 -447.14263,1079.4978 -1079.4978,447.14263 -1079.4978,-447.14263 -447.14263,-1079.4978 447.14263,-1079.4978 1079.4978,-447.14263" id="sSKt26I9KUTd_pad-20"/><circle cx="0" cy="0" r="1580" id="sSKt26I9KUTd_pad-10"/><circle cx="0" cy="0" r="2475" id="sSKt26I9KUTd_pad-11"/><polygon points="-347.19318,838.19848 -838.19848,347.19318 -838.19848,-347.19318 -347.19318,-838.19848 347.19318,-838.19848 838.19848,-347.19318 838.19848,347.19318 347.19318,838.19848" id="sSKt26I9KUTd_pad-12"/><polygon points="-273.54614,660.39879 -660.39879,273.54614 -660.39879,-273.54614 -273.54614,-660.39879 273.54614,-660.39879 660.39879,-273.54614 660.39879,273.54614 273.54614,660.39879" id="sSKt26I9KUTd_pad-13"/><polygon points="273.54614,-660.39879 660.39879,-273.54614 660.39879,273.54614 273.54614,660.39879 -273.54614,660.39879 -660.39879,273.54614 -660.39879,-273.54614 -273.54614,-660.39879" id="sSKt26I9KUTd_pad-14"/><circle cx="0" cy="0" r="654" id="sSKt26I9KUTd_pad-16"/><circle cx="0" cy="0" r="971.55" id="sSKt26I9KUTd_pad-17"/><circle cx="0" cy="0" r="838.2" id="sSKt26I9KUTd_pad-18"/><rect x="-1400" y="-1400" width="2800" height="2800" id="sSKt26I9KUTd_pad-19"/><polygon points="1079.4978,447.14263 447.14263,1079.4978 -447.14263,1079.4978 -1079.4978,447.14263 -1079.4978,-447.14263 -447.14263,-1079.4978 447.14263,-1079.4978 1079.4978,-447.14263" id="sSKt26I9KUTd_pad-20"/><circle cx="0" cy="0" r="1681.6" id="_ME0COxi5Gxc_pad-10"/><circle cx="0" cy="0" r="2576.6" id="_ME0COxi5Gxc_pad-11"/><polygon points="-389.27707,939.79798 -939.79798,389.27707 -939.79798,-389.27707 -389.27707,-939.79798 389.27707,-939.79798 939.79798,-389.27707 939.79798,389.27707 389.27707,939.79798" id="_ME0COxi5Gxc_pad-12"/><polygon points="-315.63002,761.99828 -761.99828,315.63002 -761.99828,-315.63002 -315.63002,-761.99828 315.63002,-761.99828 761.99828,-315.63002 761.99828,315.63002 315.63002,761.99828" id="_ME0COxi5Gxc_pad-13"/><polygon points="315.63002,-761.99828 761.99828,-315.63002 761.99828,315.63002 315.63002,761.99828 -315.63002,761.99828 -761.99828,315.63002 -761.99828,-315.63002 -315.63002,-761.99828" id="_ME0COxi5Gxc_pad-14"/><circle cx="0" cy="0" r="755.6" id="_ME0COxi5Gxc_pad-16"/><circle cx="0" cy="0" r="1073.15" id="_ME0COxi5Gxc_pad-17"/><circle cx="0" cy="0" r="939.8" id="_ME0COxi5Gxc_pad-18"/><rect x="-1501.6" y="-1501.6" width="3003.2" height="3003.2" id="_ME0COxi5Gxc_pad-19"/><polygon points="1181.09776,489.22671 489.22671,1181.09776 -489.22671,1181.09776 -1181.09776,489.22671 -1181.09776,-489.22671 -489.22671,-1181.09776 489.22671,-1181.09776 1181.09776,-489.22671" id="_ME0COxi5Gxc_pad-20"/><circle cx="0" cy="0" r="1580" id="sSKt26I9KUTd_pad-10"/><circle cx="0" cy="0" r="2475" id="sSKt26I9KUTd_pad-11"/><polygon points="-347.19318,838.19848 -838.19848,347.19318 -838.19848,-347.19318 -347.19318,-838.19848 347.19318,-838.19848 838.19848,-347.19318 838.19848,347.19318 347.19318,838.19848" id="sSKt26I9KUTd_pad-12"/><polygon points="-273.54614,660.39879 -660.39879,273.54614 -660.39879,-273.54614 -273.54614,-660.39879 273.54614,-660.39879 660.39879,-273.54614 660.39879,273.54614 273.54614,660.39879" id="sSKt26I9KUTd_pad-13"/><polygon points="273.54614,-660.39879 660.39879,-273.54614 660.39879,273.54614 273.54614,660.39879 -273.54614,660.39879 -660.39879,273.54614 -660.39879,-273.54614 -273.54614,-660.39879" id="sSKt26I9KUTd_pad-14"/><circle cx="0" cy="0" r="654" id="sSKt26I9KUTd_pad-16"/><circle cx="0" cy="0" r="971.55" id="sSKt26I9KUTd_pad-17"/><circle cx="0" cy="0" r="838.2" id="sSKt26I9KUTd_pad-18"/><rect x="-1400" y="-1400" width="2800" height="2800" id="sSKt26I9KUTd_pad-19"/><polygon points="1079.4978,447.14263 447.14263,1079.4978 -447.14263,1079.4978 -1079.4978,447.14263 -1079.4978,-447.14263 -447.14263,-1079.4978 447.14263,-1079.4978 1079.4978,-447.14263" id="sSKt26I9KUTd_pad-20"/><circle cx="0" cy="0" r="1580" id="sSKt26I9KUTd_pad-10"/><circle cx="0" cy="0" r="2475" id="sSKt26I9KUTd_pad-11"/><polygon points="-347.19318,838.19848 -838.19848,347.19318 -838.19848,-347.19318 -347.19318,-838.19848 347.19318,-838.19848 838.19848,-347.19318 838.19848,347.19318 347.19318,838.19848" id="sSKt26I9KUTd_pad-12"/><polygon points="-273.54614,660.39879 -660.39879,273.54614 -660.39879,-273.54614 -273.54614,-660.39879 273.54614,-660.39879 660.39879,-273.54614 660.39879,273.54614 273.54614,660.39879" id="sSKt26I9KUTd_pad-13"/><polygon points="273.54614,-660.39879 660.39879,-273.54614 660.39879,273.54614 273.54614,660.39879 -273.54614,660.39879 -660.39879,273.54614 -660.39879,-273.54614 -273.54614,-660.39879" id="sSKt26I9KUTd_pad-14"/><circle cx="0" cy="0" r="654" id="sSKt26I9KUTd_pad-16"/><circle cx="0" cy="0" r="971.55" id="sSKt26I9KUTd_pad-17"/><circle cx="0" cy="0" r="838.2" id="sSKt26I9KUTd_pad-18"/><rect x="-1400" y="-1400" width="2800" height="2800" id="sSKt26I9KUTd_pad-19"/><polygon points="1079.4978,447.14263 447.14263,1079.4978 -447.14263,1079.4978 -1079.4978,447.14263 -1079.4978,-447.14263 -447.14263,-1079.4978 447.14263,-1079.4978 1079.4978,-447.14263" id="sSKt26I9KUTd_pad-20"/><circle cx="0" cy="0" r="1681.6" id="_ME0COxi5Gxc_pad-10"/><circle cx="0" cy="0" r="2576.6" id="_ME0COxi5Gxc_pad-11"/><polygon points="-389.27707,939.79798 -939.79798,389.27707 -939.79798,-389.27707 -389.27707,-939.79798 389.27707,-939.79798 939.79798,-389.27707 939.79798,389.27707 389.27707,939.79798" id="_ME0COxi5Gxc_pad-12"/><polygon points="-315.63002,761.99828 -761.99828,315.63002 -761.99828,-315.63002 -315.63002,-761.99828 315.63002,-761.99828 761.99828,-315.63002 761.99828,315.63002 315.63002,761.99828" id="_ME0COxi5Gxc_pad-13"/><polygon points="315.63002,-761.99828 761.99828,-315.63002 761.99828,315.63002 315.63002,761.99828 -315.63002,761.99828 -761.99828,315.63002 -761.99828,-315.63002 -315.63002,-761.99828" id="_ME0COxi5Gxc_pad-14"/><circle cx="0" cy="0" r="755.6" id="_ME0COxi5Gxc_pad-16"/><circle cx="0" cy="0" r="1073.15" id="_ME0COxi5Gxc_pad-17"/><circle cx="0" cy="0" r="939.8" id="_ME0COxi5Gxc_pad-18"/><rect x="-1501.6" y="-1501.6" width="3003.2" height="3003.2" id="_ME0COxi5Gxc_pad-19"/><polygon points="1181.09776,489.22671 489.22671,1181.09776 -489.22671,1181.09776 -1181.09776,489.22671 -1181.09776,-489.22671 -489.22671,-1181.09776 489.22671,-1181.09776 1181.09776,-489.22671" id="_ME0COxi5Gxc_pad-20"/><circle cx="0" cy="0" r="1650" id="oK0kS0MmwiXY_pad-1"/><circle cx="0" cy="0" r="1055" id="oK0kS0MmwiXY_pad-2"/><circle cx="0" cy="0" r="800" id="oK0kS0MmwiXY_pad-3"/><circle cx="0" cy="0" r="647.5" id="oK0kS0MmwiXY_pad-4"/><circle cx="0" cy="0" r="550" id="oK0kS0MmwiXY_pad-5"/><circle cx="0" cy="0" r="508" id="oK0kS0MmwiXY_pad-6"/><circle cx="0" cy="0" r="406.5" id="oK0kS0MmwiXY_pad-7"/><circle cx="0" cy="0" r="400" id="oK0kS0MmwiXY_pad-8"/><circle cx="0" cy="0" r="1580" id="sSKt26I9KUTd_pad-10"/><circle cx="0" cy="0" r="2475" id="sSKt26I9KUTd_pad-11"/><polygon points="-347.19318,838.19848 -838.19848,347.19318 -838.19848,-347.19318 -347.19318,-838.19848 347.19318,-838.19848 838.19848,-347.19318 838.19848,347.19318 347.19318,838.19848" id="sSKt26I9KUTd_pad-12"/><polygon points="-273.54614,660.39879 -660.39879,273.54614 -660.39879,-273.54614 -273.54614,-660.39879 273.54614,-660.39879 660.39879,-273.54614 660.39879,273.54614 273.54614,660.39879" id="sSKt26I9KUTd_pad-13"/><polygon points="273.54614,-660.39879 660.39879,-273.54614 660.39879,273.54614 273.54614,660.39879 -273.54614,660.39879 -660.39879,273.54614 -660.39879,-273.54614 -273.54614,-660.39879" id="sSKt26I9KUTd_pad-14"/><circle cx="0" cy="0" r="654" id="sSKt26I9KUTd_pad-16"/><circle cx="0" cy="0" r="971.55" id="sSKt26I9KUTd_pad-17"/><circle cx="0" cy="0" r="838.2" id="sSKt26I9KUTd_pad-18"/><rect x="-1400" y="-1400" width="2800" height="2800" id="sSKt26I9KUTd_pad-19"/><polygon points="1079.4978,447.14263 447.14263,1079.4978 -447.14263,1079.4978 -1079.4978,447.14263 -1079.4978,-447.14263 -447.14263,-1079.4978 447.14263,-1079.4978 1079.4978,-447.14263" id="sSKt26I9KUTd_pad-20"/><circle cx="0" cy="0" r="1580" id="sSKt26I9KUTd_pad-10"/><circle cx="0" cy="0" r="2475" id="sSKt26I9KUTd_pad-11"/><polygon points="-347.19318,838.19848 -838.19848,347.19318 -838.19848,-347.19318 -347.19318,-838.19848 347.19318,-838.19848 838.19848,-347.19318 838.19848,347.19318 347.19318,838.19848" id="sSKt26I9KUTd_pad-12"/><polygon points="-273.54614,660.39879 -660.39879,273.54614 -660.39879,-273.54614 -273.54614,-660.39879 273.54614,-660.39879 660.39879,-273.54614 660.39879,273.54614 273.54614,660.39879" id="sSKt26I9KUTd_pad-13"/><polygon points="273.54614,-660.39879 660.39879,-273.54614 660.39879,273.54614 273.54614,660.39879 -273.54614,660.39879 -660.39879,273.54614 -660.39879,-273.54614 -273.54614,-660.39879" id="sSKt26I9KUTd_pad-14"/><circle cx="0" cy="0" r="654" id="sSKt26I9KUTd_pad-16"/><circle cx="0" cy="0" r="971.55" id="sSKt26I9KUTd_pad-17"/><circle cx="0" cy="0" r="838.2" id="sSKt26I9KUTd_pad-18"/><rect x="-1400" y="-1400" width="2800" height="2800" id="sSKt26I9KUTd_pad-19"/><polygon points="1079.4978,447.14263 447.14263,1079.4978 -447.14263,1079.4978 -1079.4978,447.14263 -1079.4978,-447.14263 -447.14263,-1079.4978 447.14263,-1079.4978 1079.4978,-447.14263" id="sSKt26I9KUTd_pad-20"/><circle cx="0" cy="0" r="1681.6" id="_ME0COxi5Gxc_pad-10"/><circle cx="0" cy="0" r="2576.6" id="_ME0COxi5Gxc_pad-11"/><polygon points="-389.27707,939.79798 -939.79798,389.27707 -939.79798,-389.27707 -389.27707,-939.79798 389.27707,-939.79798 939.79798,-389.27707 939.79798,389.27707 389.27707,939.79798" id="_ME0COxi5Gxc_pad-12"/><polygon points="-315.63002,761.99828 -761.99828,315.63002 -761.99828,-315.63002 -315.63002,-761.99828 315.63002,-761.99828 761.99828,-315.63002 761.99828,315.63002 315.63002,761.99828" id="_ME0COxi5Gxc_pad-13"/><polygon points="315.63002,-761.99828 761.99828,-315.63002 761.99828,315.63002 315.63002,761.99828 -315.63002,761.99828 -761.99828,315.63002 -761.99828,-315.63002 -315.63002,-761.99828" id="_ME0COxi5Gxc_pad-14"/><circle cx="0" cy="0" r="755.6" id="_ME0COxi5Gxc_pad-16"/><circle cx="0" cy="0" r="1073.15" id="_ME0COxi5Gxc_pad-17"/><circle cx="0" cy="0" r="939.8" id="_ME0COxi5Gxc_pad-18"/><rect x="-1501.6" y="-1501.6" width="3003.2" height="3003.2" id="_ME0COxi5Gxc_pad-19"/><polygon points="1181.09776,489.22671 489.22671,1181.09776 -489.22671,1181.09776 -1181.09776,489.22671 -1181.09776,-489.22671 -489.22671,-1181.09776 489.22671,-1181.09776 1181.09776,-489.22671" id="_ME0COxi5Gxc_pad-20"/><circle cx="0" cy="0" r="1580" id="sSKt26I9KUTd_pad-10"/><circle cx="0" cy="0" r="2475" id="sSKt26I9KUTd_pad-11"/><polygon points="-347.19318,838.19848 -838.19848,347.19318 -838.19848,-347.19318 -347.19318,-838.19848 347.19318,-838.19848 838.19848,-347.19318 838.19848,347.19318 347.19318,838.19848" id="sSKt26I9KUTd_pad-12"/><polygon points="-273.54614,660.39879 -660.39879,273.54614 -660.39879,-273.54614 -273.54614,-660.39879 273.54614,-660.39879 660.39879,-273.54614 660.39879,273.54614 273.54614,660.39879" id="sSKt26I9KUTd_pad-13"/><polygon points="273.54614,-660.39879 660.39879,-273.54614 660.39879,273.54614 273.54614,660.39879 -273.54614,660.39879 -660.39879,273.54614 -660.39879,-273.54614 -273.54614,-660.39879" id="sSKt26I9KUTd_pad-14"/><circle cx="0" cy="0" r="654" id="sSKt26I9KUTd_pad-16"/><circle cx="0" cy="0" r="971.55" id="sSKt26I9KUTd_pad-17"/><circle cx="0" cy="0" r="838.2" id="sSKt26I9KUTd_pad-18"/><rect x="-1400" y="-1400" width="2800" height="2800" id="sSKt26I9KUTd_pad-19"/><polygon points="1079.4978,447.14263 447.14263,1079.4978 -447.14263,1079.4978 -1079.4978,447.14263 -1079.4978,-447.14263 -447.14263,-1079.4978 447.14263,-1079.4978 1079.4978,-447.14263" id="sSKt26I9KUTd_pad-20"/><circle cx="0" cy="0" r="1580" id="sSKt26I9KUTd_pad-10"/><circle cx="0" cy="0" r="2475" id="sSKt26I9KUTd_pad-11"/><polygon points="-347.19318,838.19848 -838.19848,347.19318 -838.19848,-347.19318 -347.19318,-838.19848 347.19318,-838.19848 838.19848,-347.19318 838.19848,347.19318 347.19318,838.19848" id="sSKt26I9KUTd_pad-12"/><polygon points="-273.54614,660.39879 -660.39879,273.54614 -660.39879,-273.54614 -273.54614,-660.39879 273.54614,-660.39879 660.39879,-273.54614 660.39879,273.54614 273.54614,660.39879" id="sSKt26I9KUTd_pad-13"/><polygon points="273.54614,-660.39879 660.39879,-273.54614 660.39879,273.54614 273.54614,660.39879 -273.54614,660.39879 -660.39879,273.54614 -660.39879,-273.54614 -273.54614,-660.39879" id="sSKt26I9KUTd_pad-14"/><circle cx="0" cy="0" r="654" id="sSKt26I9KUTd_pad-16"/><circle cx="0" cy="0" r="971.55" id="sSKt26I9KUTd_pad-17"/><circle cx="0" cy="0" r="838.2" id="sSKt26I9KUTd_pad-18"/><rect x="-1400" y="-1400" width="2800" height="2800" id="sSKt26I9KUTd_pad-19"/><polygon points="1079.4978,447.14263 447.14263,1079.4978 -447.14263,1079.4978 -1079.4978,447.14263 -1079.4978,-447.14263 -447.14263,-1079.4978 447.14263,-1079.4978 1079.4978,-447.14263" id="sSKt26I9KUTd_pad-20"/><circle cx="0" cy="0" r="1681.6" id="_ME0COxi5Gxc_pad-10"/><circle cx="0" cy="0" r="2576.6" id="_ME0COxi5Gxc_pad-11"/><polygon points="-389.27707,939.79798 -939.79798,389.27707 -939.79798,-389.27707 -389.27707,-939.79798 389.27707,-939.79798 939.79798,-389.27707 939.79798,389.27707 389.27707,939.79798" id="_ME0COxi5Gxc_pad-12"/><polygon points="-315.63002,761.99828 -761.99828,315.63002 -761.99828,-315.63002 -315.63002,-761.99828 315.63002,-761.99828 761.99828,-315.63002 761.99828,315.63002 315.63002,761.99828" id="_ME0COxi5Gxc_pad-13"/><polygon points="315.63002,-761.99828 761.99828,-315.63002 761.99828,315.63002 315.63002,761.99828 -315.63002,761.99828 -761.99828,315.63002 -761.99828,-315.63002 -315.63002,-761.99828" id="_ME0COxi5Gxc_pad-14"/><circle cx="0" cy="0" r="755.6" id="_ME0COxi5Gxc_pad-16"/><circle cx="0" cy="0" r="1073.15" id="_ME0COxi5Gxc_pad-17"/><circle cx="0" cy="0" r="939.8" id="_ME0COxi5Gxc_pad-18"/><rect x="-1501.6" y="-1501.6" width="3003.2" height="3003.2" id="_ME0COxi5Gxc_pad-19"/><polygon points="1181.09776,489.22671 489.22671,1181.09776 -489.22671,1181.09776 -1181.09776,489.22671 -1181.09776,-489.22671 -489.22671,-1181.09776 489.22671,-1181.09776 1181.09776,-489.22671" id="_ME0COxi5Gxc_pad-20"/><circle cx="0" cy="0" r="1580" id="sSKt26I9KUTd_pad-10"/><circle cx="0" cy="0" r="2475" id="sSKt26I9KUTd_pad-11"/><polygon points="-347.19318,838.19848 -838.19848,347.19318 -838.19848,-347.19318 -347.19318,-838.19848 347.19318,-838.19848 838.19848,-347.19318 838.19848,347.19318 347.19318,838.19848" id="sSKt26I9KUTd_pad-12"/><polygon points="-273.54614,660.39879 -660.39879,273.54614 -660.39879,-273.54614 -273.54614,-660.39879 273.54614,-660.39879 660.39879,-273.54614 660.39879,273.54614 273.54614,660.39879" id="sSKt26I9KUTd_pad-13"/><polygon points="273.54614,-660.39879 660.39879,-273.54614 660.39879,273.54614 273.54614,660.39879 -273.54614,660.39879 -660.39879,273.54614 -660.39879,-273.54614 -273.54614,-660.39879" id="sSKt26I9KUTd_pad-14"/><circle cx="0" cy="0" r="654" id="sSKt26I9KUTd_pad-16"/><circle cx="0" cy="0" r="971.55" id="sSKt26I9KUTd_pad-17"/><circle cx="0" cy="0" r="838.2" id="sSKt26I9KUTd_pad-18"/><rect x="-1400" y="-1400" width="2800" height="2800" id="sSKt26I9KUTd_pad-19"/><polygon points="1079.4978,447.14263 447.14263,1079.4978 -447.14263,1079.4978 -1079.4978,447.14263 -1079.4978,-447.14263 -447.14263,-1079.4978 447.14263,-1079.4978 1079.4978,-447.14263" id="sSKt26I9KUTd_pad-20"/><circle cx="0" cy="0" r="1580" id="sSKt26I9KUTd_pad-10"/><circle cx="0" cy="0" r="2475" id="sSKt26I9KUTd_pad-11"/><polygon points="-347.19318,838.19848 -838.19848,347.19318 -838.19848,-347.19318 -347.19318,-838.19848 347.19318,-838.19848 838.19848,-347.19318 838.19848,347.19318 347.19318,838.19848" id="sSKt26I9KUTd_pad-12"/><polygon points="-273.54614,660.39879 -660.39879,273.54614 -660.39879,-273.54614 -273.54614,-660.39879 273.54614,-660.39879 660.39879,-273.54614 660.39879,273.54614 273.54614,660.39879" id="sSKt26I9KUTd_pad-13"/><polygon points="273.54614,-660.39879 660.39879,-273.54614 660.39879,273.54614 273.54614,660.39879 -273.54614,660.39879 -660.39879,273.54614 -660.39879,-273.54614 -273.54614,-660.39879" id="sSKt26I9KUTd_pad-14"/><circle cx="0" cy="0" r="654" id="sSKt26I9KUTd_pad-16"/><circle cx="0" cy="0" r="971.55" id="sSKt26I9KUTd_pad-17"/><circle cx="0" cy="0" r="838.2" id="sSKt26I9KUTd_pad-18"/><rect x="-1400" y="-1400" width="2800" height="2800" id="sSKt26I9KUTd_pad-19"/><polygon points="1079.4978,447.14263 447.14263,1079.4978 -447.14263,1079.4978 -1079.4978,447.14263 -1079.4978,-447.14263 -447.14263,-1079.4978 447.14263,-1079.4978 1079.4978,-447.14263" id="sSKt26I9KUTd_pad-20"/><circle cx="0" cy="0" r="1681.6" id="_ME0COxi5Gxc_pad-10"/><circle cx="0" cy="0" r="2576.6" id="_ME0COxi5Gxc_pad-11"/><polygon points="-389.27707,939.79798 -939.79798,389.27707 -939.79798,-389.27707 -389.27707,-939.79798 389.27707,-939.79798 939.79798,-389.27707 939.79798,389.27707 389.27707,939.79798" id="_ME0COxi5Gxc_pad-12"/><polygon points="-315.63002,761.99828 -761.99828,315.63002 -761.99828,-315.63002 -315.63002,-761.99828 315.63002,-761.99828 761.99828,-315.63002 761.99828,315.63002 315.63002,761.99828" id="_ME0COxi5Gxc_pad-13"/><polygon points="315.63002,-761.99828 761.99828,-315.63002 761.99828,315.63002 315.63002,761.99828 -315.63002,761.99828 -761.99828,315.63002 -761.99828,-315.63002 -315.63002,-761.99828" id="_ME0COxi5Gxc_pad-14"/><circle cx="0" cy="0" r="755.6" id="_ME0COxi5Gxc_pad-16"/><circle cx="0" cy="0" r="1073.15" id="_ME0COxi5Gxc_pad-17"/><circle cx="0" cy="0" r="939.8" id="_ME0COxi5Gxc_pad-18"/><rect x="-1501.6" y="-1501.6" width="3003.2" height="3003.2" id="_ME0COxi5Gxc_pad-19"/><polygon points="1181.09776,489.22671 489.22671,1181.09776 -489.22671,1181.09776 -1181.09776,489.22671 -1181.09776,-489.22671 -489.22671,-1181.09776 489.22671,-1181.09776 1181.09776,-489.22671" id="_ME0COxi5Gxc_pad-20"/><circle cx="0" cy="0" r="1580" id="sSKt26I9KUTd_pad-10"/><circle cx="0" cy="0" r="2475" id="sSKt26I9KUTd_pad-11"/><polygon points="-347.19318,838.19848 -838.19848,347.19318 -838.19848,-347.19318 -347.19318,-838.19848 347.19318,-838.19848 838.19848,-347.19318 838.19848,347.19318 347.19318,838.19848" id="sSKt26I9KUTd_pad-12"/><polygon points="-273.54614,660.39879 -660.39879,273.54614 -660.39879,-273.54614 -273.54614,-660.39879 273.54614,-660.39879 660.39879,-273.54614 660.39879,273.54614 273.54614,660.39879" id="sSKt26I9KUTd_pad-13"/><polygon points="273.54614,-660.39879 660.39879,-273.54614 660.39879,273.54614 273.54614,660.39879 -273.54614,660.39879 -660.39879,273.54614 -660.39879,-273.54614 -273.54614,-660.39879" id="sSKt26I9KUTd_pad-14"/><circle cx="0" cy="0" r="654" id="sSKt26I9KUTd_pad-16"/><circle cx="0" cy="0" r="971.55" id="sSKt26I9KUTd_pad-17"/><circle cx="0" cy="0" r="838.2" id="sSKt26I9KUTd_pad-18"/><rect x="-1400" y="-1400" width="2800" height="2800" id="sSKt26I9KUTd_pad-19"/><polygon points="1079.4978,447.14263 447.14263,1079.4978 -447.14263,1079.4978 -1079.4978,447.14263 -1079.4978,-447.14263 -447.14263,-1079.4978 447.14263,-1079.4978 1079.4978,-447.14263" id="sSKt26I9KUTd_pad-20"/><circle cx="0" cy="0" r="1580" id="sSKt26I9KUTd_pad-10"/><circle cx="0" cy="0" r="2475" id="sSKt26I9KUTd_pad-11"/><polygon points="-347.19318,838.19848 -838.19848,347.19318 -838.19848,-347.19318 -347.19318,-838.19848 347.19318,-838.19848 838.19848,-347.19318 838.19848,347.19318 347.19318,838.19848" id="sSKt26I9KUTd_pad-12"/><polygon points="-273.54614,660.39879 -660.39879,273.54614 -660.39879,-273.54614 -273.54614,-660.39879 273.54614,-660.39879 660.39879,-273.54614 660.39879,273.54614 273.54614,660.39879" id="sSKt26I9KUTd_pad-13"/><polygon points="273.54614,-660.39879 660.39879,-273.54614 660.39879,273.54614 273.54614,660.39879 -273.54614,660.39879 -660.39879,273.54614 -660.39879,-273.54614 -273.54614,-660.39879" id="sSKt26I9KUTd_pad-14"/><circle cx="0" cy="0" r="654" id="sSKt26I9KUTd_pad-16"/><circle cx="0" cy="0" r="971.55" id="sSKt26I9KUTd_pad-17"/><circle cx="0" cy="0" r="838.2" id="sSKt26I9KUTd_pad-18"/><rect x="-1400" y="-1400" width="2800" height="2800" id="sSKt26I9KUTd_pad-19"/><polygon points="1079.4978,447.14263 447.14263,1079.4978 -447.14263,1079.4978 -1079.4978,447.14263 -1079.4978,-447.14263 -447.14263,-1079.4978 447.14263,-1079.4978 1079.4978,-447.14263" id="sSKt26I9KUTd_pad-20"/><circle cx="0" cy="0" r="1681.6" id="_ME0COxi5Gxc_pad-10"/><circle cx="0" cy="0" r="2576.6" id="_ME0COxi5Gxc_pad-11"/><polygon points="-389.27707,939.79798 -939.79798,389.27707 -939.79798,-389.27707 -389.27707,-939.79798 389.27707,-939.79798 939.79798,-389.27707 939.79798,389.27707 389.27707,939.79798" id="_ME0COxi5Gxc_pad-12"/><polygon points="-315.63002,761.99828 -761.99828,315.63002 -761.99828,-315.63002 -315.63002,-761.99828 315.63002,-761.99828 761.99828,-315.63002 761.99828,315.63002 315.63002,761.99828" id="_ME0COxi5Gxc_pad-13"/><polygon points="315.63002,-761.99828 761.99828,-315.63002 761.99828,315.63002 315.63002,761.99828 -315.63002,761.99828 -761.99828,315.63002 -761.99828,-315.63002 -315.63002,-761.99828" id="_ME0COxi5Gxc_pad-14"/><circle cx="0" cy="0" r="755.6" id="_ME0COxi5Gxc_pad-16"/><circle cx="0" cy="0" r="1073.15" id="_ME0COxi5Gxc_pad-17"/><circle cx="0" cy="0" r="939.8" id="_ME0COxi5Gxc_pad-18"/><rect x="-1501.6" y="-1501.6" width="3003.2" height="3003.2" id="_ME0COxi5Gxc_pad-19"/><polygon points="1181.09776,489.22671 489.22671,1181.09776 -489.22671,1181.09776 -1181.09776,489.22671 -1181.09776,-489.22671 -489.22671,-1181.09776 489.22671,-1181.09776 1181.09776,-489.22671" id="_ME0COxi5Gxc_pad-20"/><circle cx="0" cy="0" r="1580" id="sSKt26I9KUTd_pad-10"/><circle cx="0" cy="0" r="2475" id="sSKt26I9KUTd_pad-11"/><polygon points="-347.19318,838.19848 -838.19848,347.19318 -838.19848,-347.19318 -347.19318,-838.19848 347.19318,-838.19848 838.19848,-347.19318 838.19848,347.19318 347.19318,838.19848" id="sSKt26I9KUTd_pad-12"/><polygon points="-273.54614,660.39879 -660.39879,273.54614 -660.39879,-273.54614 -273.54614,-660.39879 273.54614,-660.39879 660.39879,-273.54614 660.39879,273.54614 273.54614,660.39879" id="sSKt26I9KUTd_pad-13"/><polygon points="273.54614,-660.39879 660.39879,-273.54614 660.39879,273.54614 273.54614,660.39879 -273.54614,660.39879 -660.39879,273.54614 -660.39879,-273.54614 -273.54614,-660.39879" id="sSKt26I9KUTd_pad-14"/><circle cx="0" cy="0" r="654" id="sSKt26I9KUTd_pad-16"/><circle cx="0" cy="0" r="971.55" id="sSKt26I9KUTd_pad-17"/><circle cx="0" cy="0" r="838.2" id="sSKt26I9KUTd_pad-18"/><rect x="-1400" y="-1400" width="2800" height="2800" id="sSKt26I9KUTd_pad-19"/><polygon points="1079.4978,447.14263 447.14263,1079.4978 -447.14263,1079.4978 -1079.4978,447.14263 -1079.4978,-447.14263 -447.14263,-1079.4978 447.14263,-1079.4978 1079.4978,-447.14263" id="sSKt26I9KUTd_pad-20"/><circle cx="0" cy="0" r="1580" id="sSKt26I9KUTd_pad-10"/><circle cx="0" cy="0" r="2475" id="sSKt26I9KUTd_pad-11"/><polygon points="-347.19318,838.19848 -838.19848,347.19318 -838.19848,-347.19318 -347.19318,-838.19848 347.19318,-838.19848 838.19848,-347.19318 838.19848,347.19318 347.19318,838.19848" id="sSKt26I9KUTd_pad-12"/><polygon points="-273.54614,660.39879 -660.39879,273.54614 -660.39879,-273.54614 -273.54614,-660.39879 273.54614,-660.39879 660.39879,-273.54614 660.39879,273.54614 273.54614,660.39879" id="sSKt26I9KUTd_pad-13"/><polygon points="273.54614,-660.39879 660.39879,-273.54614 660.39879,273.54614 273.54614,660.39879 -273.54614,660.39879 -660.39879,273.54614 -660.39879,-273.54614 -273.54614,-660.39879" id="sSKt26I9KUTd_pad-14"/><circle cx="0" cy="0" r="654" id="sSKt26I9KUTd_pad-16"/><circle cx="0" cy="0" r="971.55" id="sSKt26I9KUTd_pad-17"/><circle cx="0" cy="0" r="838.2" id="sSKt26I9KUTd_pad-18"/><rect x="-1400" y="-1400" width="2800" height="2800" id="sSKt26I9KUTd_pad-19"/><polygon points="1079.4978,447.14263 447.14263,1079.4978 -447.14263,1079.4978 -1079.4978,447.14263 -1079.4978,-447.14263 -447.14263,-1079.4978 447.14263,-1079.4978 1079.4978,-447.14263" id="sSKt26I9KUTd_pad-20"/><circle cx="0" cy="0" r="1681.6" id="_ME0COxi5Gxc_pad-10"/><circle cx="0" cy="0" r="2576.6" id="_ME0COxi5Gxc_pad-11"/><polygon points="-389.27707,939.79798 -939.79798,389.27707 -939.79798,-389.27707 -389.27707,-939.79798 389.27707,-939.79798 939.79798,-389.27707 939.79798,389.27707 389.27707,939.79798" id="_ME0COxi5Gxc_pad-12"/><polygon points="-315.63002,761.99828 -761.99828,315.63002 -761.99828,-315.63002 -315.63002,-761.99828 315.63002,-761.99828 761.99828,-315.63002 761.99828,315.63002 315.63002,761.99828" id="_ME0COxi5Gxc_pad-13"/><polygon points="315.63002,-761.99828 761.99828,-315.63002 761.99828,315.63002 315.63002,761.99828 -315.63002,761.99828 -761.99828,315.63002 -761.99828,-315.63002 -315.63002,-761.99828" id="_ME0COxi5Gxc_pad-14"/><circle cx="0" cy="0" r="755.6" id="_ME0COxi5Gxc_pad-16"/><circle cx="0" cy="0" r="1073.15" id="_ME0COxi5Gxc_pad-17"/><circle cx="0" cy="0" r="939.8" id="_ME0COxi5Gxc_pad-18"/><rect x="-1501.6" y="-1501.6" width="3003.2" height="3003.2" id="_ME0COxi5Gxc_pad-19"/><polygon points="1181.09776,489.22671 489.22671,1181.09776 -489.22671,1181.09776 -1181.09776,489.22671 -1181.09776,-489.22671 -489.22671,-1181.09776 489.22671,-1181.09776 1181.09776,-489.22671" id="_ME0COxi5Gxc_pad-20"/><circle cx="0" cy="0" r="1580" id="sSKt26I9KUTd_pad-10"/><circle cx="0" cy="0" r="2475" id="sSKt26I9KUTd_pad-11"/><polygon points="-347.19318,838.19848 -838.19848,347.19318 -838.19848,-347.19318 -347.19318,-838.19848 347.19318,-838.19848 838.19848,-347.19318 838.19848,347.19318 347.19318,838.19848" id="sSKt26I9KUTd_pad-12"/><polygon points="-273.54614,660.39879 -660.39879,273.54614 -660.39879,-273.54614 -273.54614,-660.39879 273.54614,-660.39879 660.39879,-273.54614 660.39879,273.54614 273.54614,660.39879" id="sSKt26I9KUTd_pad-13"/><polygon points="273.54614,-660.39879 660.39879,-273.54614 660.39879,273.54614 273.54614,660.39879 -273.54614,660.39879 -660.39879,273.54614 -660.39879,-273.54614 -273.54614,-660.39879" id="sSKt26I9KUTd_pad-14"/><circle cx="0" cy="0" r="654" id="sSKt26I9KUTd_pad-16"/><circle cx="0" cy="0" r="971.55" id="sSKt26I9KUTd_pad-17"/><circle cx="0" cy="0" r="838.2" id="sSKt26I9KUTd_pad-18"/><rect x="-1400" y="-1400" width="2800" height="2800" id="sSKt26I9KUTd_pad-19"/><polygon points="1079.4978,447.14263 447.14263,1079.4978 -447.14263,1079.4978 -1079.4978,447.14263 -1079.4978,-447.14263 -447.14263,-1079.4978 447.14263,-1079.4978 1079.4978,-447.14263" id="sSKt26I9KUTd_pad-20"/><circle cx="0" cy="0" r="1580" id="sSKt26I9KUTd_pad-10"/><circle cx="0" cy="0" r="2475" id="sSKt26I9KUTd_pad-11"/><polygon points="-347.19318,838.19848 -838.19848,347.19318 -838.19848,-347.19318 -347.19318,-838.19848 347.19318,-838.19848 838.19848,-347.19318 838.19848,347.19318 347.19318,838.19848" id="sSKt26I9KUTd_pad-12"/><polygon points="-273.54614,660.39879 -660.39879,273.54614 -660.39879,-273.54614 -273.54614,-660.39879 273.54614,-660.39879 660.39879,-273.54614 660.39879,273.54614 273.54614,660.39879" id="sSKt26I9KUTd_pad-13"/><polygon points="273.54614,-660.39879 660.39879,-273.54614 660.39879,273.54614 273.54614,660.39879 -273.54614,660.39879 -660.39879,273.54614 -660.39879,-273.54614 -273.54614,-660.39879" id="sSKt26I9KUTd_pad-14"/><circle cx="0" cy="0" r="654" id="sSKt26I9KUTd_pad-16"/><circle cx="0" cy="0" r="971.55" id="sSKt26I9KUTd_pad-17"/><circle cx="0" cy="0" r="838.2" id="sSKt26I9KUTd_pad-18"/><rect x="-1400" y="-1400" width="2800" height="2800" id="sSKt26I9KUTd_pad-19"/><polygon points="1079.4978,447.14263 447.14263,1079.4978 -447.14263,1079.4978 -1079.4978,447.14263 -1079.4978,-447.14263 -447.14263,-1079.4978 447.14263,-1079.4978 1079.4978,-447.14263" id="sSKt26I9KUTd_pad-20"/><circle cx="0" cy="0" r="1681.6" id="_ME0COxi5Gxc_pad-10"/><circle cx="0" cy="0" r="2576.6" id="_ME0COxi5Gxc_pad-11"/><polygon points="-389.27707,939.79798 -939.79798,389.27707 -939.79798,-389.27707 -389.27707,-939.79798 389.27707,-939.79798 939.79798,-389.27707 939.79798,389.27707 389.27707,939.79798" id="_ME0COxi5Gxc_pad-12"/><polygon points="-315.63002,761.99828 -761.99828,315.63002 -761.99828,-315.63002 -315.63002,-761.99828 315.63002,-761.99828 761.99828,-315.63002 761.99828,315.63002 315.63002,761.99828" id="_ME0COxi5Gxc_pad-13"/><polygon points="315.63002,-761.99828 761.99828,-315.63002 761.99828,315.63002 315.63002,761.99828 -315.63002,761.99828 -761.99828,315.63002 -761.99828,-315.63002 -315.63002,-761.99828" id="_ME0COxi5Gxc_pad-14"/><circle cx="0" cy="0" r="755.6" id="_ME0COxi5Gxc_pad-16"/><circle cx="0" cy="0" r="1073.15" id="_ME0COxi5Gxc_pad-17"/><circle cx="0" cy="0" r="939.8" id="_ME0COxi5Gxc_pad-18"/><rect x="-1501.6" y="-1501.6" width="3003.2" height="3003.2" id="_ME0COxi5Gxc_pad-19"/><polygon points="1181.09776,489.22671 489.22671,1181.09776 -489.22671,1181.09776 -1181.09776,489.22671 -1181.09776,-489.22671 -489.22671,-1181.09776 489.22671,-1181.09776 1181.09776,-489.22671" id="_ME0COxi5Gxc_pad-20"/><circle cx="0" cy="0" r="1580" id="sSKt26I9KUTd_pad-10"/><circle cx="0" cy="0" r="2475" id="sSKt26I9KUTd_pad-11"/><polygon points="-347.19318,838.19848 -838.19848,347.19318 -838.19848,-347.19318 -347.19318,-838.19848 347.19318,-838.19848 838.19848,-347.19318 838.19848,347.19318 347.19318,838.19848" id="sSKt26I9KUTd_pad-12"/><polygon points="-273.54614,660.39879 -660.39879,273.54614 -660.39879,-273.54614 -273.54614,-660.39879 273.54614,-660.39879 660.39879,-273.54614 660.39879,273.54614 273.54614,660.39879" id="sSKt26I9KUTd_pad-13"/><polygon points="273.54614,-660.39879 660.39879,-273.54614 660.39879,273.54614 273.54614,660.39879 -273.54614,660.39879 -660.39879,273.54614 -660.39879,-273.54614 -273.54614,-660.39879" id="sSKt26I9KUTd_pad-14"/><circle cx="0" cy="0" r="654" id="sSKt26I9KUTd_pad-16"/><circle cx="0" cy="0" r="971.55" id="sSKt26I9KUTd_pad-17"/><circle cx="0" cy="0" r="838.2" id="sSKt26I9KUTd_pad-18"/><rect x="-1400" y="-1400" width="2800" height="2800" id="sSKt26I9KUTd_pad-19"/><polygon points="1079.4978,447.14263 447.14263,1079.4978 -447.14263,1079.4978 -1079.4978,447.14263 -1079.4978,-447.14263 -447.14263,-1079.4978 447.14263,-1079.4978 1079.4978,-447.14263" id="sSKt26I9KUTd_pad-20"/><circle cx="0" cy="0" r="1580" id="sSKt26I9KUTd_pad-10"/><circle cx="0" cy="0" r="2475" id="sSKt26I9KUTd_pad-11"/><polygon points="-347.19318,838.19848 -838.19848,347.19318 -838.19848,-347.19318 -347.19318,-838.19848 347.19318,-838.19848 838.19848,-347.19318 838.19848,347.19318 347.19318,838.19848" id="sSKt26I9KUTd_pad-12"/><polygon points="-273.54614,660.39879 -660.39879,273.54614 -660.39879,-273.54614 -273.54614,-660.39879 273.54614,-660.39879 660.39879,-273.54614 660.39879,273.54614 273.54614,660.39879" id="sSKt26I9KUTd_pad-13"/><polygon points="273.54614,-660.39879 660.39879,-273.54614 660.39879,273.54614 273.54614,660.39879 -273.54614,660.39879 -660.39879,273.54614 -660.39879,-273.54614 -273.54614,-660.39879" id="sSKt26I9KUTd_pad-14"/><circle cx="0" cy="0" r="654" id="sSKt26I9KUTd_pad-16"/><circle cx="0" cy="0" r="971.55" id="sSKt26I9KUTd_pad-17"/><circle cx="0" cy="0" r="838.2" id="sSKt26I9KUTd_pad-18"/><rect x="-1400" y="-1400" width="2800" height="2800" id="sSKt26I9KUTd_pad-19"/><polygon points="1079.4978,447.14263 447.14263,1079.4978 -447.14263,1079.4978 -1079.4978,447.14263 -1079.4978,-447.14263 -447.14263,-1079.4978 447.14263,-1079.4978 1079.4978,-447.14263" id="sSKt26I9KUTd_pad-20"/><circle cx="0" cy="0" r="1681.6" id="_ME0COxi5Gxc_pad-10"/><circle cx="0" cy="0" r="2576.6" id="_ME0COxi5Gxc_pad-11"/><polygon points="-389.27707,939.79798 -939.79798,389.27707 -939.79798,-389.27707 -389.27707,-939.79798 389.27707,-939.79798 939.79798,-389.27707 939.79798,389.27707 389.27707,939.79798" id="_ME0COxi5Gxc_pad-12"/><polygon points="-315.63002,761.99828 -761.99828,315.63002 -761.99828,-315.63002 -315.63002,-761.99828 315.63002,-761.99828 761.99828,-315.63002 761.99828,315.63002 315.63002,761.99828" id="_ME0COxi5Gxc_pad-13"/><polygon points="315.63002,-761.99828 761.99828,-315.63002 761.99828,315.63002 315.63002,761.99828 -315.63002,761.99828 -761.99828,315.63002 -761.99828,-315.63002 -315.63002,-761.99828" id="_ME0COxi5Gxc_pad-14"/><circle cx="0" cy="0" r="755.6" id="_ME0COxi5Gxc_pad-16"/><circle cx="0" cy="0" r="1073.15" id="_ME0COxi5Gxc_pad-17"/><circle cx="0" cy="0" r="939.8" id="_ME0COxi5Gxc_pad-18"/><rect x="-1501.6" y="-1501.6" width="3003.2" height="3003.2" id="_ME0COxi5Gxc_pad-19"/><polygon points="1181.09776,489.22671 489.22671,1181.09776 -489.22671,1181.09776 -1181.09776,489.22671 -1181.09776,-489.22671 -489.22671,-1181.09776 489.22671,-1181.09776 1181.09776,-489.22671" id="_ME0COxi5Gxc_pad-20"/><circle cx="0" cy="0" r="1580" id="sSKt26I9KUTd_pad-10"/><circle cx="0" cy="0" r="2475" id="sSKt26I9KUTd_pad-11"/><polygon points="-347.19318,838.19848 -838.19848,347.19318 -838.19848,-347.19318 -347.19318,-838.19848 347.19318,-838.19848 838.19848,-347.19318 838.19848,347.19318 347.19318,838.19848" id="sSKt26I9KUTd_pad-12"/><polygon points="-273.54614,660.39879 -660.39879,273.54614 -660.39879,-273.54614 -273.54614,-660.39879 273.54614,-660.39879 660.39879,-273.54614 660.39879,273.54614 273.54614,660.39879" id="sSKt26I9KUTd_pad-13"/><polygon points="273.54614,-660.39879 660.39879,-273.54614 660.39879,273.54614 273.54614,660.39879 -273.54614,660.39879 -660.39879,273.54614 -660.39879,-273.54614 -273.54614,-660.39879" id="sSKt26I9KUTd_pad-14"/><circle cx="0" cy="0" r="654" id="sSKt26I9KUTd_pad-16"/><circle cx="0" cy="0" r="971.55" id="sSKt26I9KUTd_pad-17"/><circle cx="0" cy="0" r="838.2" id="sSKt26I9KUTd_pad-18"/><rect x="-1400" y="-1400" width="2800" height="2800" id="sSKt26I9KUTd_pad-19"/><polygon points="1079.4978,447.14263 447.14263,1079.4978 -447.14263,1079.4978 -1079.4978,447.14263 -1079.4978,-447.14263 -447.14263,-1079.4978 447.14263,-1079.4978 1079.4978,-447.14263" id="sSKt26I9KUTd_pad-20"/><circle cx="0" cy="0" r="1580" id="sSKt26I9KUTd_pad-10"/><circle cx="0" cy="0" r="2475" id="sSKt26I9KUTd_pad-11"/><polygon points="-347.19318,838.19848 -838.19848,347.19318 -838.19848,-347.19318 -347.19318,-838.19848 347.19318,-838.19848 838.19848,-347.19318 838.19848,347.19318 347.19318,838.19848" id="sSKt26I9KUTd_pad-12"/><polygon points="-273.54614,660.39879 -660.39879,273.54614 -660.39879,-273.54614 -273.54614,-660.39879 273.54614,-660.39879 660.39879,-273.54614 660.39879,273.54614 273.54614,660.39879" id="sSKt26I9KUTd_pad-13"/><polygon points="273.54614,-660.39879 660.39879,-273.54614 660.39879,273.54614 273.54614,660.39879 -273.54614,660.39879 -660.39879,273.54614 -660.39879,-273.54614 -273.54614,-660.39879" id="sSKt26I9KUTd_pad-14"/><circle cx="0" cy="0" r="654" id="sSKt26I9KUTd_pad-16"/><circle cx="0" cy="0" r="971.55" id="sSKt26I9KUTd_pad-17"/><circle cx="0" cy="0" r="838.2" id="sSKt26I9KUTd_pad-18"/><rect x="-1400" y="-1400" width="2800" height="2800" id="sSKt26I9KUTd_pad-19"/><polygon points="1079.4978,447.14263 447.14263,1079.4978 -447.14263,1079.4978 -1079.4978,447.14263 -1079.4978,-447.14263 -447.14263,-1079.4978 447.14263,-1079.4978 1079.4978,-447.14263" id="sSKt26I9KUTd_pad-20"/><circle cx="0" cy="0" r="1681.6" id="_ME0COxi5Gxc_pad-10"/><circle cx="0" cy="0" r="2576.6" id="_ME0COxi5Gxc_pad-11"/><polygon points="-389.27707,939.79798 -939.79798,389.27707 -939.79798,-389.27707 -389.27707,-939.79798 389.27707,-939.79798 939.79798,-389.27707 939.79798,389.27707 389.27707,939.79798" id="_ME0COxi5Gxc_pad-12"/><polygon points="-315.63002,761.99828 -761.99828,315.63002 -761.99828,-315.63002 -315.63002,-761.99828 315.63002,-761.99828 761.99828,-315.63002 761.99828,315.63002 315.63002,761.99828" id="_ME0COxi5Gxc_pad-13"/><polygon points="315.63002,-761.99828 761.99828,-315.63002 761.99828,315.63002 315.63002,761.99828 -315.63002,761.99828 -761.99828,315.63002 -761.99828,-315.63002 -315.63002,-761.99828" id="_ME0COxi5Gxc_pad-14"/><circle cx="0" cy="0" r="755.6" id="_ME0COxi5Gxc_pad-16"/><circle cx="0" cy="0" r="1073.15" id="_ME0COxi5Gxc_pad-17"/><circle cx="0" cy="0" r="939.8" id="_ME0COxi5Gxc_pad-18"/><rect x="-1501.6" y="-1501.6" width="3003.2" height="3003.2" id="_ME0COxi5Gxc_pad-19"/><polygon points="1181.09776,489.22671 489.22671,1181.09776 -489.22671,1181.09776 -1181.09776,489.22671 -1181.09776,-489.22671 -489.22671,-1181.09776 489.22671,-1181.09776 1181.09776,-489.22671" id="_ME0COxi5Gxc_pad-20"/><circle cx="0" cy="0" r="1650" id="oK0kS0MmwiXY_pad-1"/><circle cx="0" cy="0" r="1055" id="oK0kS0MmwiXY_pad-2"/><circle cx="0" cy="0" r="800" id="oK0kS0MmwiXY_pad-3"/><circle cx="0" cy="0" r="647.5" id="oK0kS0MmwiXY_pad-4"/><circle cx="0" cy="0" r="550" id="oK0kS0MmwiXY_pad-5"/><circle cx="0" cy="0" r="508" id="oK0kS0MmwiXY_pad-6"/><circle cx="0" cy="0" r="406.5" id="oK0kS0MmwiXY_pad-7"/><circle cx="0" cy="0" r="400" id="oK0kS0MmwiXY_pad-8"/><g id="pcb-stackup_bottom_cu"><use xlink:href="#sSKt26I9KUTd_pad-10" x="47475" y="77155"/><use xlink:href="#sSKt26I9KUTd_pad-10" x="34775" y="77155"/><use xlink:href="#sSKt26I9KUTd_pad-11" x="53040" y="61915"/><use xlink:href="#sSKt26I9KUTd_pad-11" x="29210" y="61915"/><use xlink:href="#sSKt26I9KUTd_pad-11" x="53040" y="39685"/><use xlink:href="#sSKt26I9KUTd_pad-11" x="29210" y="39685"/><use xlink:href="#sSKt26I9KUTd_pad-12" x="77470" y="8890"/><use xlink:href="#sSKt26I9KUTd_pad-12" x="77470" y="11430"/><use xlink:href="#sSKt26I9KUTd_pad-13" x="39370" y="6350"/><use xlink:href="#sSKt26I9KUTd_pad-13" x="39370" y="16510"/><use xlink:href="#sSKt26I9KUTd_pad-14" x="44450" y="16510"/><use xlink:href="#sSKt26I9KUTd_pad-14" x="44450" y="6350"/><use xlink:href="#sSKt26I9KUTd_pad-14" x="49530" y="16510"/><use xlink:href="#sSKt26I9KUTd_pad-14" x="49530" y="6350"/><use xlink:href="#sSKt26I9KUTd_pad-14" x="54610" y="16510"/><use xlink:href="#sSKt26I9KUTd_pad-14" x="54610" y="6350"/><path d="M 76816 40640 78124 40640 M 78124 43180 76816 43180 M 76816 45720 78124 45720 M 78124 48260 76816 48260 M 76816 50800 78124 50800 M 78124 53340 76816 53340 M 76816 55880 78124 55880 M 78124 58420 76816 58420 M 76816 60960 78124 60960 M 78124 63500 76816 63500 M 76816 66040 78124 66040 M 78124 68580 76816 68580 M 62884 40640 61576 40640 M 61576 43180 62884 43180 M 62884 45720 61576 45720 M 61576 60960 62884 60960 M 62884 63500 61576 63500 M 61576 66040 62884 66040 M 62884 68580 61576 68580 M 61576 76200 62884 76200 M 76816 76200 78124 76200 M 78124 73660 76816 73660 M 76816 71120 78124 71120 M 62884 73660 61576 73660 M 61576 71120 62884 71120 M 62884 48260 61576 48260" fill="none" stroke-width="1308"/><use xlink:href="#sSKt26I9KUTd_pad-16" x="67310" y="41910"/><use xlink:href="#sSKt26I9KUTd_pad-16" x="69850" y="41910"/><use xlink:href="#sSKt26I9KUTd_pad-16" x="72390" y="41910"/><path d="M 62884 58420 61576 58420 M 61576 55880 62884 55880 M 62884 53340 61576 53340 M 61576 50800 62884 50800" fill="none" stroke-width="1308"/><use xlink:href="#sSKt26I9KUTd_pad-16" x="67310" y="39370"/><use xlink:href="#sSKt26I9KUTd_pad-16" x="69850" y="39370"/><use xlink:href="#sSKt26I9KUTd_pad-16" x="72390" y="39370"/><use xlink:href="#sSKt26I9KUTd_pad-17" x="91440" y="71120"/><use xlink:href="#sSKt26I9KUTd_pad-17" x="96520" y="76200"/><use xlink:href="#sSKt26I9KUTd_pad-17" x="86360" y="76200"/><use xlink:href="#sSKt26I9KUTd_pad-17" x="86360" y="66040"/><use xlink:href="#sSKt26I9KUTd_pad-17" x="96520" y="66040"/><use xlink:href="#sSKt26I9KUTd_pad-17" x="91440" y="55880"/><use xlink:href="#sSKt26I9KUTd_pad-17" x="96520" y="60960"/><use xlink:href="#sSKt26I9KUTd_pad-17" x="86360" y="60960"/><use xlink:href="#sSKt26I9KUTd_pad-17" x="86360" y="50800"/><use xlink:href="#sSKt26I9KUTd_pad-17" x="96520" y="50800"/><use xlink:href="#sSKt26I9KUTd_pad-17" x="91440" y="25400"/><use xlink:href="#sSKt26I9KUTd_pad-17" x="96520" y="30480"/><use xlink:href="#sSKt26I9KUTd_pad-17" x="86360" y="30480"/><use xlink:href="#sSKt26I9KUTd_pad-17" x="86360" y="20320"/><use xlink:href="#sSKt26I9KUTd_pad-17" x="96520" y="20320"/><use xlink:href="#sSKt26I9KUTd_pad-17" x="91440" y="10160"/><use xlink:href="#sSKt26I9KUTd_pad-17" x="96520" y="15240"/><use xlink:href="#sSKt26I9KUTd_pad-17" x="86360" y="15240"/><use xlink:href="#sSKt26I9KUTd_pad-17" x="86360" y="5080"/><use xlink:href="#sSKt26I9KUTd_pad-17" x="96520" y="5080"/><use xlink:href="#sSKt26I9KUTd_pad-17" x="91440" y="40640"/><use xlink:href="#sSKt26I9KUTd_pad-17" x="96520" y="45720"/><use xlink:href="#sSKt26I9KUTd_pad-17" x="86360" y="45720"/><use xlink:href="#sSKt26I9KUTd_pad-17" x="86360" y="35560"/><use xlink:href="#sSKt26I9KUTd_pad-17" x="96520" y="35560"/><use xlink:href="#sSKt26I9KUTd_pad-18" x="20970" y="26710"/><use xlink:href="#sSKt26I9KUTd_pad-18" x="20970" y="29210"/><use xlink:href="#sSKt26I9KUTd_pad-18" x="20970" y="31710"/><use xlink:href="#sSKt26I9KUTd_pad-19" x="13970" y="33710"/><use xlink:href="#sSKt26I9KUTd_pad-19" x="13970" y="24710"/><use xlink:href="#sSKt26I9KUTd_pad-18" x="20970" y="68620"/><use xlink:href="#sSKt26I9KUTd_pad-18" x="20970" y="71120"/><use xlink:href="#sSKt26I9KUTd_pad-18" x="20970" y="73620"/><use xlink:href="#sSKt26I9KUTd_pad-19" x="13970" y="75620"/><use xlink:href="#sSKt26I9KUTd_pad-19" x="13970" y="66620"/><use xlink:href="#sSKt26I9KUTd_pad-18" x="20970" y="54650"/><use xlink:href="#sSKt26I9KUTd_pad-18" x="20970" y="57150"/><use xlink:href="#sSKt26I9KUTd_pad-18" x="20970" y="59650"/><use xlink:href="#sSKt26I9KUTd_pad-19" x="13970" y="61650"/><use xlink:href="#sSKt26I9KUTd_pad-19" x="13970" y="52650"/><use xlink:href="#sSKt26I9KUTd_pad-18" x="20970" y="40680"/><use xlink:href="#sSKt26I9KUTd_pad-18" x="20970" y="43180"/><use xlink:href="#sSKt26I9KUTd_pad-18" x="20970" y="45680"/><use xlink:href="#sSKt26I9KUTd_pad-19" x="13970" y="47680"/><use xlink:href="#sSKt26I9KUTd_pad-19" x="13970" y="38680"/><use xlink:href="#sSKt26I9KUTd_pad-20" x="64770" y="25400"/><use xlink:href="#sSKt26I9KUTd_pad-20" x="74930" y="25400"/><use xlink:href="#sSKt26I9KUTd_pad-20" x="31750" y="13970"/><use xlink:href="#sSKt26I9KUTd_pad-20" x="31750" y="8890"/><use xlink:href="#sSKt26I9KUTd_pad-20" x="59690" y="13970"/><use xlink:href="#sSKt26I9KUTd_pad-20" x="59690" y="8890"/><use xlink:href="#sSKt26I9KUTd_pad-20" x="13970" y="12700"/><use xlink:href="#sSKt26I9KUTd_pad-20" x="13970" y="10160"/><use xlink:href="#sSKt26I9KUTd_pad-20" x="26670" y="8890"/><use xlink:href="#sSKt26I9KUTd_pad-20" x="26670" y="13970"/><path d="M 77377.1 73088.3 77377.1 73624.4 M 77377.1 73088.3 64332 60043.2 64332 31272.5 49678.6 16619.1 M 77377.1 73624.4 77470 73660 M 49678.6 16619.1 49530 16510 M 61115.4 10185.9 91315.7 10185.9 M 61115.4 10185.9 59864.5 8935 M 91315.7 10185.9 91440 10160 M 59864.5 8935 59690 8890 M 21086.6 45747.2 21086.6 53073.9 22158.8 54146.1 22158.8 58434.9 21086.6 59507.1 M 21086.6 45747.2 20970 45680 M 21086.6 59507.1 20970 59650 M 21086.6 72730.9 21086.6 73445.7 M 21086.6 72730.9 22158.8 71658.7 22158.8 60758 21086.6 59685.8 M 21086.6 73445.7 20970 73620 M 21086.6 59685.8 20970 59650 M 27519.8 77019.7 34667.8 77019.7 M 27519.8 77019.7 22158.8 71658.7 M 34667.8 77019.7 34775 77155 M 14117.3 21622.7 14117.3 12866.4 M 14117.3 21622.7 19835.7 27341.1 19835.7 30557.7 20907.9 31629.9 M 14117.3 12866.4 13970 12700 M 20907.9 31629.9 20970 31710 M 21086.6 44675 21086.6 45568.5 M 21086.6 44675 22158.8 43602.8 22158.8 32880.8 21086.6 31808.6 M 21086.6 45568.5 20970 45680 M 21086.6 31808.6 20970 31710 M 39492.7 6433.2 43066.7 6433.2 43960.2 7326.7 53610 7326.7 54503.5 6433.2 M 39492.7 6433.2 39370 6350 M 54503.5 6433.2 54610 6350 M 59685.8 13402.5 59685.8 13938.6 M 59685.8 13402.5 53610 7326.7 M 59685.8 13938.6 59690 13970 M 86312.1 50929.5 86312.1 60936.7 86360 60960 M 86312.1 50929.5 86360 50800 M 86312.1 30379 86312.1 20371.8 M 86312.1 30379 86360 30480 M 86312.1 20371.8 86360 20320 M 86312.1 35561.3 86312.1 45568.5 86360 45720 M 86312.1 35561.3 86360 35560 M 25911.5 12687.7 14117.3 12687.7 M 25911.5 12687.7 32166 6433.2 39314 6433.2 M 14117.3 12687.7 13970 12700 M 39314 6433.2 39370 6350 M 77377.1 68084.7 77377.1 68442.1 M 77377.1 68084.7 64689.4 55397 64689.4 30200.3 50036 15546.9 45389.8 15546.9 44496.3 16440.4 M 77377.1 68442.1 77470 68580 M 44450 16510 44496.3 16440.4 M 77377.1 50214.7 77377.1 50750.8 M 77377.1 50214.7 70943.9 43781.5 70943.9 33595.6 54682.2 17333.9 54682.2 16619.1 M 77377.1 50750.8 77470 50800 M 54682.2 16619.1 54610 16510 M 77555.8 55933.1 78091.9 55933.1 91315.7 69156.9 91315.7 70943.9 M 77555.8 55933.1 77470 55880 M 91315.7 70943.9 91440 71120 M 77555.8 53252.6 77555.8 52716.5 79164.1 51108.2 79164.1 29664.2 75054 25554.1 M 77555.8 53252.6 77470 53340 M 75054 25554.1 74930 25400 M 62187.6 40743.6 62187.6 41101 47534.2 55754.4 47534.2 77019.7 M 62187.6 40743.6 62230 40640 M 47534.2 77019.7 47475 77155 M 62366.3 60936.7 62366.3 60400.6 63974.6 58792.3 63974.6 40386.2 52895.2 29306.8 21086.6 29306.8 M 62230 60960 62366.3 60936.7 M 21086.6 29306.8 20970 29210" fill="none" stroke-width="152.4"/></g><g id="pcb-stackup_bottom_sm"><use xlink:href="#_ME0COxi5Gxc_pad-10" x="47475" y="77155"/><use xlink:href="#_ME0COxi5Gxc_pad-10" x="34775" y="77155"/><use xlink:href="#_ME0COxi5Gxc_pad-11" x="53040" y="61915"/><use xlink:href="#_ME0COxi5Gxc_pad-11" x="29210" y="61915"/><use xlink:href="#_ME0COxi5Gxc_pad-11" x="53040" y="39685"/><use xlink:href="#_ME0COxi5Gxc_pad-11" x="29210" y="39685"/><use xlink:href="#_ME0COxi5Gxc_pad-12" x="77470" y="8890"/><use xlink:href="#_ME0COxi5Gxc_pad-12" x="77470" y="11430"/><use xlink:href="#_ME0COxi5Gxc_pad-13" x="39370" y="6350"/><use xlink:href="#_ME0COxi5Gxc_pad-13" x="39370" y="16510"/><use xlink:href="#_ME0COxi5Gxc_pad-14" x="44450" y="16510"/><use xlink:href="#_ME0COxi5Gxc_pad-14" x="44450" y="6350"/><use xlink:href="#_ME0COxi5Gxc_pad-14" x="49530" y="16510"/><use xlink:href="#_ME0COxi5Gxc_pad-14" x="49530" y="6350"/><use xlink:href="#_ME0COxi5Gxc_pad-14" x="54610" y="16510"/><use xlink:href="#_ME0COxi5Gxc_pad-14" x="54610" y="6350"/><path d="M 76816 40640 78124 40640 M 78124 43180 76816 43180 M 76816 45720 78124 45720 M 78124 48260 76816 48260 M 76816 50800 78124 50800 M 78124 53340 76816 53340 M 76816 55880 78124 55880 M 78124 58420 76816 58420 M 76816 60960 78124 60960 M 78124 63500 76816 63500 M 76816 66040 78124 66040 M 78124 68580 76816 68580 M 62884 40640 61576 40640 M 61576 43180 62884 43180 M 62884 45720 61576 45720 M 61576 60960 62884 60960 M 62884 63500 61576 63500 M 61576 66040 62884 66040 M 62884 68580 61576 68580 M 61576 76200 62884 76200 M 76816 76200 78124 76200 M 78124 73660 76816 73660 M 76816 71120 78124 71120 M 62884 73660 61576 73660 M 61576 71120 62884 71120 M 62884 48260 61576 48260" fill="none" stroke-width="1511.2"/><use xlink:href="#_ME0COxi5Gxc_pad-16" x="67310" y="41910"/><use xlink:href="#_ME0COxi5Gxc_pad-16" x="69850" y="41910"/><use xlink:href="#_ME0COxi5Gxc_pad-16" x="72390" y="41910"/><path d="M 62884 58420 61576 58420 M 61576 55880 62884 55880 M 62884 53340 61576 53340 M 61576 50800 62884 50800" fill="none" stroke-width="1511.2"/><use xlink:href="#_ME0COxi5Gxc_pad-16" x="67310" y="39370"/><use xlink:href="#_ME0COxi5Gxc_pad-16" x="69850" y="39370"/><use xlink:href="#_ME0COxi5Gxc_pad-16" x="72390" y="39370"/><use xlink:href="#_ME0COxi5Gxc_pad-17" x="91440" y="71120"/><use xlink:href="#_ME0COxi5Gxc_pad-17" x="96520" y="76200"/><use xlink:href="#_ME0COxi5Gxc_pad-17" x="86360" y="76200"/><use xlink:href="#_ME0COxi5Gxc_pad-17" x="86360" y="66040"/><use xlink:href="#_ME0COxi5Gxc_pad-17" x="96520" y="66040"/><use xlink:href="#_ME0COxi5Gxc_pad-17" x="91440" y="55880"/><use xlink:href="#_ME0COxi5Gxc_pad-17" x="96520" y="60960"/><use xlink:href="#_ME0COxi5Gxc_pad-17" x="86360" y="60960"/><use xlink:href="#_ME0COxi5Gxc_pad-17" x="86360" y="50800"/><use xlink:href="#_ME0COxi5Gxc_pad-17" x="96520" y="50800"/><use xlink:href="#_ME0COxi5Gxc_pad-17" x="91440" y="25400"/><use xlink:href="#_ME0COxi5Gxc_pad-17" x="96520" y="30480"/><use xlink:href="#_ME0COxi5Gxc_pad-17" x="86360" y="30480"/><use xlink:href="#_ME0COxi5Gxc_pad-17" x="86360" y="20320"/><use xlink:href="#_ME0COxi5Gxc_pad-17" x="96520" y="20320"/><use xlink:href="#_ME0COxi5Gxc_pad-17" x="91440" y="10160"/><use xlink:href="#_ME0COxi5Gxc_pad-17" x="96520" y="15240"/><use xlink:href="#_ME0COxi5Gxc_pad-17" x="86360" y="15240"/><use xlink:href="#_ME0COxi5Gxc_pad-17" x="86360" y="5080"/><use xlink:href="#_ME0COxi5Gxc_pad-17" x="96520" y="5080"/><use xlink:href="#_ME0COxi5Gxc_pad-17" x="91440" y="40640"/><use xlink:href="#_ME0COxi5Gxc_pad-17" x="96520" y="45720"/><use xlink:href="#_ME0COxi5Gxc_pad-17" x="86360" y="45720"/><use xlink:href="#_ME0COxi5Gxc_pad-17" x="86360" y="35560"/><use xlink:href="#_ME0COxi5Gxc_pad-17" x="96520" y="35560"/><use xlink:href="#_ME0COxi5Gxc_pad-18" x="20970" y="26710"/><use xlink:href="#_ME0COxi5Gxc_pad-18" x="20970" y="29210"/><use xlink:href="#_ME0COxi5Gxc_pad-18" x="20970" y="31710"/><use xlink:href="#_ME0COxi5Gxc_pad-19" x="13970" y="33710"/><use xlink:href="#_ME0COxi5Gxc_pad-19" x="13970" y="24710"/><use xlink:href="#_ME0COxi5Gxc_pad-18" x="20970" y="68620"/><use xlink:href="#_ME0COxi5Gxc_pad-18" x="20970" y="71120"/><use xlink:href="#_ME0COxi5Gxc_pad-18" x="20970" y="73620"/><use xlink:href="#_ME0COxi5Gxc_pad-19" x="13970" y="75620"/><use xlink:href="#_ME0COxi5Gxc_pad-19" x="13970" y="66620"/><use xlink:href="#_ME0COxi5Gxc_pad-18" x="20970" y="54650"/><use xlink:href="#_ME0COxi5Gxc_pad-18" x="20970" y="57150"/><use xlink:href="#_ME0COxi5Gxc_pad-18" x="20970" y="59650"/><use xlink:href="#_ME0COxi5Gxc_pad-19" x="13970" y="61650"/><use xlink:href="#_ME0COxi5Gxc_pad-19" x="13970" y="52650"/><use xlink:href="#_ME0COxi5Gxc_pad-18" x="20970" y="40680"/><use xlink:href="#_ME0COxi5Gxc_pad-18" x="20970" y="43180"/><use xlink:href="#_ME0COxi5Gxc_pad-18" x="20970" y="45680"/><use xlink:href="#_ME0COxi5Gxc_pad-19" x="13970" y="47680"/><use xlink:href="#_ME0COxi5Gxc_pad-19" x="13970" y="38680"/><use xlink:href="#_ME0COxi5Gxc_pad-20" x="64770" y="25400"/><use xlink:href="#_ME0COxi5Gxc_pad-20" x="74930" y="25400"/><use xlink:href="#_ME0COxi5Gxc_pad-20" x="31750" y="13970"/><use xlink:href="#_ME0COxi5Gxc_pad-20" x="31750" y="8890"/><use xlink:href="#_ME0COxi5Gxc_pad-20" x="59690" y="13970"/><use xlink:href="#_ME0COxi5Gxc_pad-20" x="59690" y="8890"/><use xlink:href="#_ME0COxi5Gxc_pad-20" x="13970" y="12700"/><use xlink:href="#_ME0COxi5Gxc_pad-20" x="13970" y="10160"/><use xlink:href="#_ME0COxi5Gxc_pad-20" x="26670" y="8890"/><use xlink:href="#_ME0COxi5Gxc_pad-20" x="26670" y="13970"/></g><g id="pcb-stackup_bottom_sp" transform="scale(25.4,25.4)"/><g id="pcb-stackup_bottom_ss" transform="scale(25.4,25.4)"/><g id="pcb-stackup_bottom_drl1"><use xlink:href="#oK0kS0MmwiXY_pad-1" x="53040" y="61915"/><use xlink:href="#oK0kS0MmwiXY_pad-1" x="29210" y="61915"/><use xlink:href="#oK0kS0MmwiXY_pad-1" x="53040" y="39685"/><use xlink:href="#oK0kS0MmwiXY_pad-1" x="29210" y="39685"/><use xlink:href="#oK0kS0MmwiXY_pad-2" x="47475" y="77155"/><use xlink:href="#oK0kS0MmwiXY_pad-2" x="34775" y="77155"/><use xlink:href="#oK0kS0MmwiXY_pad-3" x="13970" y="38680"/><use xlink:href="#oK0kS0MmwiXY_pad-3" x="13970" y="47680"/><use xlink:href="#oK0kS0MmwiXY_pad-3" x="13970" y="52650"/><use xlink:href="#oK0kS0MmwiXY_pad-3" x="13970" y="61650"/><use xlink:href="#oK0kS0MmwiXY_pad-3" x="13970" y="66620"/><use xlink:href="#oK0kS0MmwiXY_pad-3" x="13970" y="75620"/><use xlink:href="#oK0kS0MmwiXY_pad-3" x="13970" y="24710"/><use xlink:href="#oK0kS0MmwiXY_pad-3" x="13970" y="33710"/><use xlink:href="#oK0kS0MmwiXY_pad-4" x="86360" y="60960"/><use xlink:href="#oK0kS0MmwiXY_pad-4" x="96520" y="60960"/><use xlink:href="#oK0kS0MmwiXY_pad-4" x="91440" y="55880"/><use xlink:href="#oK0kS0MmwiXY_pad-4" x="96520" y="66040"/><use xlink:href="#oK0kS0MmwiXY_pad-4" x="86360" y="66040"/><use xlink:href="#oK0kS0MmwiXY_pad-4" x="86360" y="76200"/><use xlink:href="#oK0kS0MmwiXY_pad-4" x="91440" y="71120"/><use xlink:href="#oK0kS0MmwiXY_pad-4" x="86360" y="20320"/><use xlink:href="#oK0kS0MmwiXY_pad-4" x="96520" y="76200"/><use xlink:href="#oK0kS0MmwiXY_pad-4" x="86360" y="30480"/><use xlink:href="#oK0kS0MmwiXY_pad-4" x="96520" y="30480"/><use xlink:href="#oK0kS0MmwiXY_pad-4" x="91440" y="25400"/><use xlink:href="#oK0kS0MmwiXY_pad-4" x="96520" y="50800"/><use xlink:href="#oK0kS0MmwiXY_pad-4" x="86360" y="50800"/><use xlink:href="#oK0kS0MmwiXY_pad-4" x="96520" y="20320"/><use xlink:href="#oK0kS0MmwiXY_pad-4" x="96520" y="35560"/><use xlink:href="#oK0kS0MmwiXY_pad-4" x="86360" y="35560"/><use xlink:href="#oK0kS0MmwiXY_pad-4" x="86360" y="45720"/><use xlink:href="#oK0kS0MmwiXY_pad-4" x="96520" y="45720"/><use xlink:href="#oK0kS0MmwiXY_pad-4" x="91440" y="40640"/><use xlink:href="#oK0kS0MmwiXY_pad-4" x="96520" y="5080"/><use xlink:href="#oK0kS0MmwiXY_pad-4" x="86360" y="5080"/><use xlink:href="#oK0kS0MmwiXY_pad-4" x="86360" y="15240"/><use xlink:href="#oK0kS0MmwiXY_pad-4" x="96520" y="15240"/><use xlink:href="#oK0kS0MmwiXY_pad-4" x="91440" y="10160"/><use xlink:href="#oK0kS0MmwiXY_pad-5" x="20970" y="40680"/><use xlink:href="#oK0kS0MmwiXY_pad-5" x="20970" y="45680"/><use xlink:href="#oK0kS0MmwiXY_pad-5" x="20970" y="43180"/><use xlink:href="#oK0kS0MmwiXY_pad-5" x="20970" y="26710"/><use xlink:href="#oK0kS0MmwiXY_pad-5" x="20970" y="29210"/><use xlink:href="#oK0kS0MmwiXY_pad-5" x="20970" y="31710"/><use xlink:href="#oK0kS0MmwiXY_pad-5" x="20970" y="68620"/><use xlink:href="#oK0kS0MmwiXY_pad-5" x="20970" y="71120"/><use xlink:href="#oK0kS0MmwiXY_pad-5" x="20970" y="73620"/><use xlink:href="#oK0kS0MmwiXY_pad-5" x="20970" y="54650"/><use xlink:href="#oK0kS0MmwiXY_pad-5" x="20970" y="57150"/><use xlink:href="#oK0kS0MmwiXY_pad-5" x="20970" y="59650"/><use xlink:href="#oK0kS0MmwiXY_pad-6" x="26670" y="8890"/><use xlink:href="#oK0kS0MmwiXY_pad-6" x="13970" y="10160"/><use xlink:href="#oK0kS0MmwiXY_pad-6" x="13970" y="12700"/><use xlink:href="#oK0kS0MmwiXY_pad-6" x="59690" y="8890"/><use xlink:href="#oK0kS0MmwiXY_pad-6" x="59690" y="13970"/><use xlink:href="#oK0kS0MmwiXY_pad-6" x="31750" y="8890"/><use xlink:href="#oK0kS0MmwiXY_pad-6" x="74930" y="25400"/><use xlink:href="#oK0kS0MmwiXY_pad-6" x="26670" y="13970"/><use xlink:href="#oK0kS0MmwiXY_pad-6" x="64770" y="25400"/><use xlink:href="#oK0kS0MmwiXY_pad-6" x="31750" y="13970"/><use xlink:href="#oK0kS0MmwiXY_pad-7" x="77470" y="8890"/><use xlink:href="#oK0kS0MmwiXY_pad-7" x="77470" y="11430"/><use xlink:href="#oK0kS0MmwiXY_pad-7" x="39370" y="6350"/><use xlink:href="#oK0kS0MmwiXY_pad-7" x="39370" y="16510"/><use xlink:href="#oK0kS0MmwiXY_pad-7" x="44450" y="16510"/><use xlink:href="#oK0kS0MmwiXY_pad-7" x="44450" y="6350"/><use xlink:href="#oK0kS0MmwiXY_pad-7" x="49530" y="16510"/><use xlink:href="#oK0kS0MmwiXY_pad-7" x="54610" y="6350"/><use xlink:href="#oK0kS0MmwiXY_pad-7" x="54610" y="16510"/><use xlink:href="#oK0kS0MmwiXY_pad-7" x="49530" y="6350"/><use xlink:href="#oK0kS0MmwiXY_pad-8" x="77470" y="40640"/><use xlink:href="#oK0kS0MmwiXY_pad-8" x="77470" y="43180"/><use xlink:href="#oK0kS0MmwiXY_pad-8" x="77470" y="45720"/><use xlink:href="#oK0kS0MmwiXY_pad-8" x="77470" y="48260"/><use xlink:href="#oK0kS0MmwiXY_pad-8" x="77470" y="50800"/><use xlink:href="#oK0kS0MmwiXY_pad-8" x="62230" y="73660"/><use xlink:href="#oK0kS0MmwiXY_pad-8" x="62230" y="71120"/><use xlink:href="#oK0kS0MmwiXY_pad-8" x="77470" y="71120"/><use xlink:href="#oK0kS0MmwiXY_pad-8" x="77470" y="73660"/><use xlink:href="#oK0kS0MmwiXY_pad-8" x="77470" y="76200"/><use xlink:href="#oK0kS0MmwiXY_pad-8" x="77470" y="68580"/><use xlink:href="#oK0kS0MmwiXY_pad-8" x="62230" y="50800"/><use xlink:href="#oK0kS0MmwiXY_pad-8" x="62230" y="53340"/><use xlink:href="#oK0kS0MmwiXY_pad-8" x="62230" y="55880"/><use xlink:href="#oK0kS0MmwiXY_pad-8" x="77470" y="66040"/><use xlink:href="#oK0kS0MmwiXY_pad-8" x="77470" y="63500"/><use xlink:href="#oK0kS0MmwiXY_pad-8" x="62230" y="58420"/><use xlink:href="#oK0kS0MmwiXY_pad-8" x="72390" y="41910"/><use xlink:href="#oK0kS0MmwiXY_pad-8" x="69850" y="41910"/><use xlink:href="#oK0kS0MmwiXY_pad-8" x="77470" y="60960"/><use xlink:href="#oK0kS0MmwiXY_pad-8" x="77470" y="58420"/><use xlink:href="#oK0kS0MmwiXY_pad-8" x="69850" y="39370"/><use xlink:href="#oK0kS0MmwiXY_pad-8" x="62230" y="40640"/><use xlink:href="#oK0kS0MmwiXY_pad-8" x="62230" y="48260"/><use xlink:href="#oK0kS0MmwiXY_pad-8" x="77470" y="55880"/><use xlink:href="#oK0kS0MmwiXY_pad-8" x="77470" y="53340"/><use xlink:href="#oK0kS0MmwiXY_pad-8" x="72390" y="39370"/><use xlink:href="#oK0kS0MmwiXY_pad-8" x="62230" y="43180"/><use xlink:href="#oK0kS0MmwiXY_pad-8" x="67310" y="39370"/><use xlink:href="#oK0kS0MmwiXY_pad-8" x="62230" y="45720"/><use xlink:href="#oK0kS0MmwiXY_pad-8" x="62230" y="60960"/><use xlink:href="#oK0kS0MmwiXY_pad-8" x="62230" y="63500"/><use xlink:href="#oK0kS0MmwiXY_pad-8" x="62230" y="66040"/><use xlink:href="#oK0kS0MmwiXY_pad-8" x="62230" y="68580"/><use xlink:href="#oK0kS0MmwiXY_pad-8" x="62230" y="76200"/><use xlink:href="#oK0kS0MmwiXY_pad-8" x="67310" y="41910"/></g><clipPath id="pcb-stackup_bottom_out"><path d="M 5080 1270 101270 1270 101270 80000 5080 80000 5080 1270 M 12920 37880 15020 37880 15020 39480 12920 39480 12920 37880 M 12920 46880 15020 46880 15020 48480 12920 48480 12920 46880 M 12920 51850 15020 51850 15020 53450 12920 53450 12920 51850 M 12920 60850 15020 60850 15020 62450 12920 62450 12920 60850 M 12920 65820 15020 65820 15020 67420 12920 67420 12920 65820 M 12920 74820 15020 74820 15020 76420 12920 76420 12920 74820 M 12920 32910 15020 32910 15020 34510 12920 34510 12920 32910 M 12920 23910 15020 23910 15020 25510 12920 25510 12920 23910" fill="none" stroke-width="254"/></clipPath><mask id="pcb-stackup_bottom_mech-mask"><g fill="#000" stroke="#000"><rect x="5080" y="1270" width="96190" height="78730" fill="#fff"/><use xlink:href="#pcb-stackup_bottom_drl1"/></g></mask><mask id="pcb-stackup_bottom_cf-mask"><g fill="#fff" stroke="#fff"><use xlink:href="#pcb-stackup_bottom_sm"/></g></mask><mask id="pcb-stackup_bottom_sm-mask"><g fill="#000" stroke="#000"><rect x="5080" y="1270" width="96190" height="78730" fill="#fff"/><use xlink:href="#pcb-stackup_bottom_sm"/></g></mask></defs><g transform="translate(0,81270) scale(1,-1)"><g mask="url(#pcb-stackup_bottom_mech-mask)" clip-path="url(#pcb-stackup_bottom_out)" transform="translate(106350,0) scale(-1,1)"><rect x="5080" y="1270" width="96190" height="78730" fill="currentColor" class="pcb-stackup_fr4"/><use xlink:href="#pcb-stackup_bottom_cu" fill="currentColor" stroke="currentColor" class="pcb-stackup_cu"/><use xlink:href="#pcb-stackup_bottom_cu" fill="currentColor" stroke="currentColor" class="pcb-stackup_cf" mask="url(#pcb-stackup_bottom_cf-mask)"/><g mask="url(#pcb-stackup_bottom_sm-mask)"><rect x="5080" y="1270" width="96190" height="78730" fill="currentColor" class="pcb-stackup_sm"/><use xlink:href="#pcb-stackup_bottom_ss" fill="currentColor" stroke="currentColor" class="pcb-stackup_ss"/></g><use xlink:href="#pcb-stackup_bottom_sp" fill="currentColor" stroke="currentColor" class="pcb-stackup_sp"/></g></g></svg>