<svg id="pcb-stackup_bottom" version="1.1" xmlns:xlink="http://www.w3.org/1999/xlink" stroke-linecap="round" stroke-linejoin="round" stroke-width="0" fill-rule="evenodd" clip-rule="evenodd" viewBox="394 394 1960 1960" width="1.96in" height="1.96in" xmlns="http://www.w3.org/2000/svg"><defs><style>.pcb-stackup_fr4 {color: #4D542C;}
.pcb-stackup_cu {color: lightgrey;}
.pcb-stackup_cf {color: goldenrod;}
.pcb-stackup_sm {color: #004400; opacity: 0.9;}
.pcb-stackup_ss {color: white;}
.pcb-stackup_sp {color: #000000; opacity: 0;}
.pcb-stackup_out {color: black;}</style><circle cx="0" cy="0" r="20" id="D1vrS744HYtt_pad-33"/><rect x="-33.4645" y="-33.4645" width="66.929" height="66.929" id="D1vrS744HYtt_pad-16"/><circle cx="0" cy="0" r="33.4645" id="D1vrS744HYtt_pad-17"/><rect x="-33.2675" y="-33.2675" width="66.535" height="66.535" id="D1vrS744HYtt_pad-26"/><circle cx="0" cy="0" r="33.2675" id="D1vrS744HYtt_pad-28"/><circle cx="0" cy="0" r="93.701" id="D1vrS744HYtt_pad-29"/><circle cx="0" cy="0" r="20" id="D1vrS744HYtt_pad-33"/><rect x="-33.4645" y="-33.4645" width="66.929" height="66.929" id="D1vrS744HYtt_pad-16"/><circle cx="0" cy="0" r="33.4645" id="D1vrS744HYtt_pad-17"/><rect x="-33.2675" y="-33.2675" width="66.535" height="66.535" id="D1vrS744HYtt_pad-26"/><circle cx="0" cy="0" r="33.2675" id="D1vrS744HYtt_pad-28"/><circle cx="0" cy="0" r="93.701" id="D1vrS744HYtt_pad-29"/><rect x="-37.4645" y="-37.4645" width="74.929" height="74.929" id="rqC.KmSucrlQ_pad-70"/><circle cx="0" cy="0" r="37.4645" id="rqC.KmSucrlQ_pad-68"/><circle cx="0" cy="0" r="63" id="rqC.KmSucrlQ_pad-35"/><rect x="-37.2675" y="-37.2675" width="74.535" height="74.535" id="rqC.KmSucrlQ_pad-54"/><circle cx="0" cy="0" r="37.2675" id="rqC.KmSucrlQ_pad-50"/><circle cx="0" cy="0" r="97.701" id="rqC.KmSucrlQ_pad-48"/><circle cx="0" cy="0" r="20" id="D1vrS744HYtt_pad-33"/><rect x="-33.4645" y="-33.4645" width="66.929" height="66.929" id="D1vrS744HYtt_pad-16"/><circle cx="0" cy="0" r="33.4645" id="D1vrS744HYtt_pad-17"/><rect x="-33.2675" y="-33.2675" width="66.535" height="66.535" id="D1vrS744HYtt_pad-26"/><circle cx="0" cy="0" r="33.2675" id="D1vrS744HYtt_pad-28"/><circle cx="0" cy="0" r="93.701" id="D1vrS744HYtt_pad-29"/><circle cx="0" cy="0" r="20" id="D1vrS744HYtt_pad-33"/><rect x="-33.4645" y="-33.4645" width="66.929" height="66.929" id="D1vrS744HYtt_pad-16"/><circle cx="0" cy="0" r="33.4645" id="D1vrS744HYtt_pad-17"/><rect x="-33.2675" y="-33.2675" width="66.535" height="66.535" id="D1vrS744HYtt_pad-26"/><circle cx="0" cy="0" r="33.2675" id="D1vrS744HYtt_pad-28"/><circle cx="0" cy="0" r="93.701" id="D1vrS744HYtt_pad-29"/><rect x="-37.4645" y="-37.4645" width="74.929" height="74.929" id="rqC.KmSucrlQ_pad-70"/><circle cx="0" cy="0" r="37.4645" id="rqC.KmSucrlQ_pad-68"/><circle cx="0" cy="0" r="63" id="rqC.KmSucrlQ_pad-35"/><rect x="-37.2675" y="-37.2675" width="74.535" height="74.535" id="rqC.KmSucrlQ_pad-54"/><circle cx="0" cy="0" r="37.2675" id="rqC.KmSucrlQ_pad-50"/><circle cx="0" cy="0" r="97.701" id="rqC.KmSucrlQ_pad-48"/><circle cx="0" cy="0" r="9.55" id="c7fu9.6G8AZQ_pad-1"/><circle cx="0" cy="0" r="21.45" id="c7fu9.6G8AZQ_pad-2"/><circle cx="0" cy="0" r="21.65" id="c7fu9.6G8AZQ_pad-3"/><circle cx="0" cy="0" r="63" id="c7fu9.6G8AZQ_pad-4"/><circle cx="0" cy="0" r="64.15" id="c7fu9.6G8AZQ_pad-5"/><circle cx="0" cy="0" r="20" id="D1vrS744HYtt_pad-33"/><rect x="-33.4645" y="-33.4645" width="66.929" height="66.929" id="D1vrS744HYtt_pad-16"/><circle cx="0" cy="0" r="33.4645" id="D1vrS744HYtt_pad-17"/><rect x="-33.2675" y="-33.2675" width="66.535" height="66.535" id="D1vrS744HYtt_pad-26"/><circle cx="0" cy="0" r="33.2675" id="D1vrS744HYtt_pad-28"/><circle cx="0" cy="0" r="93.701" id="D1vrS744HYtt_pad-29"/><circle cx="0" cy="0" r="20" id="D1vrS744HYtt_pad-33"/><rect x="-33.4645" y="-33.4645" width="66.929" height="66.929" id="D1vrS744HYtt_pad-16"/><circle cx="0" cy="0" r="33.4645" id="D1vrS744HYtt_pad-17"/><rect x="-33.2675" y="-33.2675" width="66.535" height="66.535" id="D1vrS744HYtt_pad-26"/><circle cx="0" cy="0" r="33.2675" id="D1vrS744HYtt_pad-28"/><circle cx="0" cy="0" r="93.701" id="D1vrS744HYtt_pad-29"/><rect x="-37.4645" y="-37.4645" width="74.929" height="74.929" id="rqC.KmSucrlQ_pad-70"/><circle cx="0" cy="0" r="37.4645" id="rqC.KmSucrlQ_pad-68"/><circle cx="0" cy="0" r="63" id="rqC.KmSucrlQ_pad-35"/><rect x="-37.2675" y="-37.2675" width="74.535" height="74.535" id="rqC.KmSucrlQ_pad-54"/><circle cx="0" cy="0" r="37.2675" id="rqC.KmSucrlQ_pad-50"/><circle cx="0" cy="0" r="97.701" id="rqC.KmSucrlQ_pad-48"/><circle cx="0" cy="0" r="20" id="D1vrS744HYtt_pad-33"/><rect x="-33.4645" y="-33.4645" width="66.929" height="66.929" id="D1vrS744HYtt_pad-16"/><circle cx="0" cy="0" r="33.4645" id="D1vrS744HYtt_pad-17"/><rect x="-33.2675" y="-33.2675" width="66.535" height="66.535" id="D1vrS744HYtt_pad-26"/><circle cx="0" cy="0" r="33.2675" id="D1vrS744HYtt_pad-28"/><circle cx="0" cy="0" r="93.701" id="D1vrS744HYtt_pad-29"/><circle cx="0" cy="0" r="20" id="D1vrS744HYtt_pad-33"/><rect x="-33.4645" y="-33.4645" width="66.929" height="66.929" id="D1vrS744HYtt_pad-16"/><circle cx="0" cy="0" r="33.4645" id="D1vrS744HYtt_pad-17"/><rect x="-33.2675" y="-33.2675" width="66.535" height="66.535" id="D1vrS744HYtt_pad-26"/><circle cx="0" cy="0" r="33.2675" id="D1vrS744HYtt_pad-28"/><circle cx="0" cy="0" r="93.701" id="D1vrS744HYtt_pad-29"/><rect x="-37.4645" y="-37.4645" width="74.929" height="74.929" id="rqC.KmSucrlQ_pad-70"/><circle cx="0" cy="0" r="37.4645" id="rqC.KmSucrlQ_pad-68"/><circle cx="0" cy="0" r="63" id="rqC.KmSucrlQ_pad-35"/><rect x="-37.2675" y="-37.2675" width="74.535" height="74.535" id="rqC.KmSucrlQ_pad-54"/><circle cx="0" cy="0" r="37.2675" id="rqC.KmSucrlQ_pad-50"/><circle cx="0" cy="0" r="97.701" id="rqC.KmSucrlQ_pad-48"/><circle cx="0" cy="0" r="9.55" id="c7fu9.6G8AZQ_pad-1"/><circle cx="0" cy="0" r="21.45" id="c7fu9.6G8AZQ_pad-2"/><circle cx="0" cy="0" r="21.65" id="c7fu9.6G8AZQ_pad-3"/><circle cx="0" cy="0" r="63" id="c7fu9.6G8AZQ_pad-4"/><circle cx="0" cy="0" r="64.15" id="c7fu9.6G8AZQ_pad-5"/><g id="pcb-stackup_bottom_cu"><path d="M 1531.619 1981.656 1583.154 1930.122 1836.65 1930.122 1864.635 1902.136 1884.638 1902.136 1968.815 1902.136 1968.815 2230.483 M 1968.815 1246.625 1968.815 967.232 M 1968.815 1902.136 2024.72 1902.136 M 775.641 2230.483 775.641 1958.042 719.735 1902.136 M 2024.72 1574.971 1961.177 1638.514 1961.177 1766.823 1941.177 1786.823 1884.638 1786.823 1864.638 1806.823 1864.638 1882.136 1884.638 1902.136 M 1968.815 967.232 1812.37 1123.677 1494.185 1123.677 1417.528 1200.335 M 1893.98 647.78 1368.925 647.78 M 1968.815 967.232 1968.815 722.614 1893.98 647.78 M 719.735 1902.136 879.815 1902.136 899.815 1882.136 899.815 1806.823 879.815 1786.823 795.642 1786.823 775.641 1766.822 775.641 1246.625 M 1631.619 1881.656 1531.619 1881.656 M 806.533 819.045 666.937 958.64 666.937 1522.173 719.735 1574.971 M 1301.409 1250.02 1301.409 1411.428 1144.089 1568.748 1144.089 1837.902 M 2107.748 791.366 2107.748 1335.327 2087.748 1355.327 1727.657 1355.327 1594.346 1222.016 M 1144.089 1837.902 1192.555 1886.367 1192.555 1986.367 1244.089 2037.902 M 1106.533 819.045 1765.765 819.045 1785.764 839.045 1785.764 1028.669 M 1645.528 993.669 1081.157 993.669 906.533 819.045 M 1750.764 867.512 1055 867.512 1006.533 819.045 M 1912.909 844.217 1781.157 712.465 1550.689 712.465 M 1445.937 747.465 1737.571 747.465 M 1244.089 1837.902 1336.409 1745.581 1336.409 1180.803 1316.409 1160.803 1036.724 1160.803 M 1244.089 1937.902 1312.555 2006.367 1312.555 2066.366 1292.555 2086.366 961.248 2086.366 831.546 1956.664 M 601.465 735.579 601.465 1827.606 621.467 1847.609 831.546 1847.609 M 1071.724 1110.803 1001.366 1110.803 981.366 1130.803 981.366 1588.734 831.546 1738.554 M 1071.366 1285.335 1251.409 1285.335 M 719.735 1684.026 656.465 1684.028 M 1558.169 1033.669 924.343 1033.669 904.343 1053.669 904.343 1556.702 831.546 1629.499 M 1495.937 782.465 1380.642 782.465 1368.756 770.579 875 770.579 855 790.579 855 1101.957 884.343 1131.299 884.343 1467.647 831.546 1520.444 M 1524.343 1222.016 1729.085 1426.759 2052.988 1426.759 2072.988 1446.759 2072.988 1827.606 2052.986 1847.609 1912.909 1847.609 M 1508.169 1074.039 1402.528 1074.039 1382.528 1094.039 1382.528 1718.552 1402.53 1738.554 1912.909 1738.554 M 1474.343 1250.335 1853.507 1629.499 1912.909 1629.499" fill="none" stroke-width="10"/><use xlink:href="#D1vrS744HYtt_pad-33" x="1368.925" y="647.78"/><use xlink:href="#D1vrS744HYtt_pad-33" x="1417.528" y="1200.335"/><use xlink:href="#D1vrS744HYtt_pad-33" x="1893.98" y="647.78"/><use xlink:href="#D1vrS744HYtt_pad-33" x="1968.815" y="967.232"/><use xlink:href="#D1vrS744HYtt_pad-33" x="1301.409" y="1250.02"/><use xlink:href="#D1vrS744HYtt_pad-33" x="1594.346" y="1222.016"/><use xlink:href="#D1vrS744HYtt_pad-33" x="2107.748" y="791.366"/><use xlink:href="#D1vrS744HYtt_pad-33" x="1785.764" y="1028.669"/><use xlink:href="#D1vrS744HYtt_pad-33" x="1645.528" y="993.669"/><use xlink:href="#D1vrS744HYtt_pad-33" x="1750.764" y="867.512"/><use xlink:href="#D1vrS744HYtt_pad-33" x="1550.689" y="712.465"/><use xlink:href="#D1vrS744HYtt_pad-33" x="1912.909" y="844.217"/><use xlink:href="#D1vrS744HYtt_pad-33" x="1737.571" y="747.465"/><use xlink:href="#D1vrS744HYtt_pad-33" x="1445.937" y="747.465"/><use xlink:href="#D1vrS744HYtt_pad-33" x="1036.724" y="1160.803"/><use xlink:href="#D1vrS744HYtt_pad-33" x="601.465" y="735.579"/><use xlink:href="#D1vrS744HYtt_pad-33" x="1071.724" y="1110.803"/><use xlink:href="#D1vrS744HYtt_pad-33" x="1251.409" y="1285.335"/><use xlink:href="#D1vrS744HYtt_pad-33" x="1071.366" y="1285.335"/><use xlink:href="#D1vrS744HYtt_pad-33" x="656.465" y="1684.028"/><use xlink:href="#D1vrS744HYtt_pad-33" x="1558.169" y="1033.669"/><use xlink:href="#D1vrS744HYtt_pad-33" x="1495.937" y="782.465"/><use xlink:href="#D1vrS744HYtt_pad-33" x="1524.343" y="1222.016"/><use xlink:href="#D1vrS744HYtt_pad-33" x="1508.169" y="1074.039"/><use xlink:href="#D1vrS744HYtt_pad-33" x="1474.343" y="1250.335"/><path d="M 435 2290.631 669.087 2290.631 M 882.193 2290.631 1257.759 2290.631 M 1467.983 2290.631 1862.251 2290.631 M 2075.406 2290.631 2312.983 2290.631 M 435 2265.762 658.247 2265.762 M 893.033 2265.762 1249.799 2265.762 M 1475.894 2265.762 1851.411 2265.762 M 2086.245 2265.762 2312.983 2265.762 M 435 2240.894 653.413 2240.894 M 897.866 2240.894 1247.749 2240.894 M 1477.945 2240.894 1846.577 2240.894 M 2091.079 2240.894 2312.983 2240.894 M 435 2216.025 653.803 2216.025 M 897.475 2216.025 1251.314 2216.025 M 1474.379 2216.025 1846.967 2216.025 M 2090.639 2216.025 2312.983 2216.025 M 435 2191.156 659.566 2191.156 M 891.714 2191.156 1260.982 2191.156 M 1464.711 2191.156 1852.73 2191.156 M 2084.878 2191.156 2312.983 2191.156 M 435 2166.287 671.529 2166.287 M 879.751 2166.287 1278.999 2166.287 M 1446.694 2166.287 1864.693 2166.287 M 2072.915 2166.287 2312.983 2166.287 M 435 2141.419 692.427 2141.419 M 858.853 2141.419 1314.253 2141.419 M 1411.441 2141.419 1885.591 2141.419 M 2052.017 2141.419 2312.983 2141.419 M 435 2116.55 734.81 2116.55 M 816.47 2116.55 949.751 2116.55 M 1304.067 2116.55 1928.022 2116.55 M 2009.634 2116.55 2312.983 2116.55 M 435 2091.681 741.646 2091.681 M 809.634 2091.681 919.526 2091.681 M 1334.291 2091.681 1934.81 2091.681 M 2002.798 2091.681 2312.983 2091.681 M 435 2066.812 741.646 2066.812 M 809.634 2066.812 894.625 2066.812 M 1346.547 2066.812 1934.81 2066.812 M 2002.798 2066.812 2312.983 2066.812 M 435 2041.944 741.646 2041.944 M 809.634 2041.944 869.77 2041.944 M 963.882 2041.944 1081.782 2041.944 M 1346.547 2041.944 1934.81 2041.944 M 2002.798 2041.944 2312.983 2041.944 M 435 2017.075 741.646 2017.075 M 809.634 2017.075 844.917 2017.075 M 939.029 2017.075 1085.346 2017.075 M 1346.547 2017.075 1480.757 2017.075 M 1682.486 2017.075 1934.81 2017.075 M 2002.798 2017.075 2312.983 2017.075 M 435 1992.206 741.646 1992.206 M 914.126 1992.206 1102.778 1992.206 M 1343.178 1992.206 1470.113 1992.206 M 1693.13 1992.206 1850.63 1992.206 M 2002.798 1992.206 2312.983 1992.206 M 435 1967.337 737.886 1967.337 M 893.814 1967.337 1089.35 1967.337 M 1320.571 1967.337 1470.894 1967.337 M 1692.349 1967.337 1850.63 1967.337 M 2002.798 1967.337 2312.983 1967.337 M 435 1942.469 673.139 1942.469 M 893.814 1942.469 1081.782 1942.469 M 1306.362 1942.469 1483.735 1942.469 M 2071.303 1942.469 2312.983 1942.469 M 435 1917.6 659.517 1917.6 M 911.391 1917.6 1085.151 1917.6 M 1302.993 1917.6 1469.135 1917.6 M 2084.975 1917.6 2312.983 1917.6 M 435 1892.731 658.198 1892.731 M 931.997 1892.731 1102.143 1892.731 M 1306.558 1892.731 1469.135 1892.731 M 1693.033 1892.731 1826.997 1892.731 M 2086.245 1892.731 2312.983 1892.731 M 435 1867.862 594.673 1867.862 M 933.803 1867.862 1089.643 1867.862 M 1306.558 1867.862 1469.135 1867.862 M 1692.495 1867.862 1830.659 1867.862 M 2079.799 1867.862 2312.983 1867.862 M 435 1842.993 571.479 1842.993 M 933.803 1842.993 1081.831 1842.993 M 1306.558 1842.993 1469.135 1842.993 M 1679.946 1842.993 1830.659 1842.993 M 2102.993 1842.993 2312.983 1842.993 M 435 1818.125 567.475 1818.125 M 933.803 1818.125 1084.957 1818.125 M 1310.903 1818.125 1830.659 1818.125 M 2106.997 1818.125 2312.983 1818.125 M 435 1793.256 567.475 1793.256 M 635.463 1793.256 657.466 1793.256 M 930.727 1793.256 1101.558 1793.256 M 1335.806 1793.256 1833.686 1793.256 M 2106.997 1793.256 2312.983 1793.256 M 435 1768.387 567.475 1768.387 M 635.463 1768.387 662.789 1768.387 M 908.413 1768.387 1110.102 1768.387 M 1178.091 1768.387 1266.547 1768.387 M 1360.659 1768.387 1389.937 1768.387 M 2106.997 1768.387 2312.983 1768.387 M 435 1743.518 567.475 1743.518 M 635.463 1743.518 683.833 1743.518 M 893.618 1743.518 1110.102 1743.518 M 1178.091 1743.518 1291.402 1743.518 M 2106.997 1743.518 2312.983 1743.518 M 435 1718.65 567.475 1718.65 M 898.501 1718.65 1110.102 1718.65 M 1178.091 1718.65 1302.387 1718.65 M 2106.997 1718.65 2312.983 1718.65 M 435 1693.781 567.475 1693.781 M 923.354 1693.781 1110.102 1693.781 M 1178.091 1693.781 1302.387 1693.781 M 1416.518 1693.781 1870.795 1693.781 M 2106.997 1693.781 2312.983 1693.781 M 435 1668.912 567.475 1668.912 M 948.257 1668.912 1110.102 1668.912 M 1178.091 1668.912 1302.387 1668.912 M 1416.518 1668.912 1865.474 1668.912 M 2106.997 1668.912 2312.983 1668.912 M 435 1644.043 567.475 1644.043 M 973.11 1644.043 1110.102 1644.043 M 1178.091 1644.043 1302.387 1644.043 M 1416.518 1644.043 1820.991 1644.043 M 2106.997 1644.043 2312.983 1644.043 M 435 1619.175 567.475 1619.175 M 635.463 1619.175 676.997 1619.175 M 892.934 1619.175 903.9 1619.175 M 997.963 1619.175 1110.102 1619.175 M 1178.091 1619.175 1302.387 1619.175 M 1416.518 1619.175 1796.138 1619.175 M 2106.997 1619.175 2312.983 1619.175 M 435 1594.306 567.475 1594.306 M 635.463 1594.306 660.689 1594.306 M 913.785 1594.306 928.715 1594.306 M 1014.858 1594.306 1110.102 1594.306 M 1178.091 1594.306 1302.387 1594.306 M 1416.518 1594.306 1771.285 1594.306 M 2106.997 1594.306 2312.983 1594.306 M 435 1569.437 567.475 1569.437 M 635.463 1569.437 657.71 1569.437 M 935.659 1569.437 947.346 1569.437 M 1015.346 1569.437 1110.102 1569.437 M 1190.445 1569.437 1302.387 1569.437 M 1416.518 1569.437 1746.382 1569.437 M 1840.493 1569.437 1876.167 1569.437 M 1949.625 1569.437 1962.719 1569.437 M 2106.997 1569.437 2312.983 1569.437 M 435 1544.568 567.475 1544.568 M 938.345 1544.568 947.345 1544.568 M 1015.346 1544.568 1121.235 1544.568 M 1215.298 1544.568 1302.387 1544.568 M 1416.518 1544.568 1721.529 1544.568 M 1815.639 1544.568 1855.709 1544.568 M 2106.997 1544.568 2312.983 1544.568 M 435 1519.699 567.475 1519.699 M 938.345 1519.699 947.345 1519.699 M 1015.346 1519.699 1146.089 1519.699 M 1240.201 1519.699 1302.387 1519.699 M 1416.518 1519.699 1696.675 1519.699 M 1790.738 1519.699 1850.63 1519.699 M 1975.161 1519.699 1999.458 1519.699 M 2106.997 1519.699 2312.983 1519.699 M 435 1494.831 567.475 1494.831 M 700.942 1494.831 741.646 1494.831 M 938.345 1494.831 947.345 1494.831 M 1015.346 1494.831 1170.942 1494.831 M 1265.054 1494.831 1302.387 1494.831 M 1416.518 1494.831 1671.773 1494.831 M 1765.883 1494.831 1856.391 1494.831 M 1969.399 1494.831 2039.009 1494.831 M 2106.997 1494.831 2312.983 1494.831 M 435 1469.962 567.475 1469.962 M 700.942 1469.962 741.646 1469.962 M 938.345 1469.962 947.345 1469.962 M 1015.346 1469.962 1195.845 1469.962 M 1289.907 1469.962 1302.37 1469.962 M 1416.518 1469.962 1646.919 1469.962 M 1741.03 1469.962 1878.413 1469.962 M 1947.427 1469.962 2039.009 1469.962 M 2106.997 1469.962 2312.983 1469.962 M 435 1445.093 567.475 1445.093 M 700.942 1445.093 741.646 1445.093 M 809.634 1445.093 850.337 1445.093 M 938.345 1445.093 947.345 1445.093 M 1015.346 1445.093 1220.698 1445.093 M 1416.518 1445.093 1622.066 1445.093 M 2106.949 1445.093 2312.983 1445.093 M 435 1420.224 567.475 1420.224 M 700.942 1420.224 741.646 1420.224 M 809.634 1420.224 850.337 1420.224 M 938.345 1420.224 947.345 1420.224 M 1015.346 1420.224 1245.551 1420.224 M 1416.518 1420.224 1597.163 1420.224 M 2093.521 1420.224 2312.983 1420.224 M 435 1395.356 567.475 1395.356 M 700.942 1395.356 741.646 1395.356 M 809.634 1395.356 850.337 1395.356 M 938.345 1395.356 947.345 1395.356 M 1015.346 1395.356 1267.427 1395.356 M 1416.518 1395.356 1572.31 1395.356 M 2057.974 1395.356 2312.983 1395.356 M 435 1370.487 567.475 1370.487 M 700.942 1370.487 741.646 1370.487 M 809.634 1370.487 850.337 1370.487 M 938.345 1370.487 947.345 1370.487 M 1015.346 1370.487 1267.427 1370.487 M 1416.518 1370.487 1547.457 1370.487 M 2119.643 1370.487 2312.983 1370.487 M 435 1345.618 567.475 1345.618 M 938.345 1345.618 947.345 1345.618 M 1015.346 1345.618 1267.427 1345.618 M 1416.518 1345.618 1522.602 1345.618 M 2140.005 1345.618 2312.983 1345.618 M 435 1320.749 567.475 1320.749 M 938.345 1320.749 947.345 1320.749 M 1015.346 1320.749 1038.715 1320.749 M 1104.018 1320.749 1218.794 1320.749 M 1416.518 1320.749 1497.701 1320.749 M 1740.151 1320.749 1871.675 1320.749 M 2141.762 1320.749 2312.983 1320.749 M 435 1295.881 567.475 1295.881 M 938.345 1295.881 947.345 1295.881 M 1015.346 1295.881 1023.589 1295.881 M 1416.518 1295.881 1462.446 1295.881 M 1715.249 1295.881 1856.685 1295.881 M 2141.762 1295.881 2312.983 1295.881 M 435 1271.012 567.475 1271.012 M 938.345 1271.012 947.345 1271.012 M 1015.346 1271.012 1024.664 1271.012 M 1416.518 1271.012 1430.171 1271.012 M 1690.395 1271.012 1848.627 1271.012 M 2141.762 1271.012 2312.983 1271.012 M 435 1246.143 567.475 1246.143 M 938.345 1246.143 947.345 1246.143 M 1015.346 1246.143 1043.843 1246.143 M 1098.891 1246.143 1223.873 1246.143 M 1665.542 1246.143 1846.138 1246.143 M 2141.762 1246.143 2312.983 1246.143 M 435 1221.274 567.475 1221.274 M 938.345 1221.274 947.345 1221.274 M 1015.346 1221.274 1262.349 1221.274 M 1643.325 1221.274 1848.823 1221.274 M 2141.762 1221.274 2312.983 1221.274 M 435 1196.406 567.475 1196.406 M 938.345 1196.406 947.345 1196.406 M 1069.155 1196.406 1302.387 1196.406 M 1468.521 1196.406 1483.051 1196.406 M 1635.659 1196.406 1857.125 1196.406 M 2141.762 1196.406 2312.983 1196.406 M 435 1171.537 567.475 1171.537 M 938.345 1171.537 947.345 1171.537 M 1493.374 1171.537 1872.457 1171.537 M 2065.201 1171.537 2073.774 1171.537 M 2141.762 1171.537 2312.983 1171.537 M 435 1146.668 567.475 1146.668 M 938.345 1146.668 947.345 1146.668 M 1416.518 1146.668 1424.117 1146.668 M 1836.391 1146.668 1899.555 1146.668 M 2038.051 1146.668 2073.726 1146.668 M 2141.762 1146.668 2312.983 1146.668 M 435 1121.799 567.475 1121.799 M 700.942 1121.799 828.022 1121.799 M 938.345 1121.799 948.698 1121.799 M 1119.399 1121.799 1348.53 1121.799 M 1416.518 1121.799 1449.018 1121.799 M 1861.294 1121.799 1934.81 1121.799 M 2002.798 1121.799 2073.726 1121.799 M 2141.762 1121.799 2312.983 1121.799 M 435 1096.93 567.475 1096.93 M 700.942 1096.93 820.991 1096.93 M 938.345 1096.93 968.209 1096.93 M 1118.618 1096.93 1348.53 1096.93 M 1886.147 1096.93 1934.81 1096.93 M 2002.798 1096.93 2073.726 1096.93 M 2141.762 1096.93 2312.983 1096.93 M 435 1072.062 567.475 1072.062 M 700.942 1072.062 820.991 1072.062 M 938.345 1072.062 1043.501 1072.062 M 1099.917 1072.062 1357.466 1072.062 M 1586.879 1072.062 1766.547 1072.062 M 1804.995 1072.062 1816.919 1072.062 M 1911.05 1072.062 1934.81 1072.062 M 2002.798 1072.062 2073.726 1072.062 M 2141.762 1072.062 2312.983 1072.062 M 435 1047.193 567.475 1047.193 M 700.942 1047.193 820.991 1047.193 M 1605.142 1047.193 1740.621 1047.193 M 1830.923 1047.193 1841.82 1047.193 M 2002.798 1047.193 2073.726 1047.193 M 2141.762 1047.193 2312.983 1047.193 M 435 1022.324 567.475 1022.324 M 700.942 1022.324 820.991 1022.324 M 1684.634 1022.324 1737.202 1022.324 M 1834.341 1022.324 1866.694 1022.324 M 2002.798 1022.324 2073.726 1022.324 M 2141.762 1022.324 2312.983 1022.324 M 435 997.455 567.475 997.455 M 700.942 997.455 820.991 997.455 M 888.979 997.455 1037.886 997.455 M 1694.35 997.455 1748.774 997.455 M 1822.719 997.455 1891.547 997.455 M 2006.655 997.455 2073.726 997.455 M 2141.762 997.455 2312.983 997.455 M 435 972.587 567.475 972.587 M 700.942 972.587 820.991 972.587 M 888.979 972.587 1013.033 972.587 M 1689.467 972.587 1751.753 972.587 M 1819.741 972.587 1916.402 972.587 M 2017.495 972.587 2073.726 972.587 M 2141.762 972.587 2312.983 972.587 M 435 947.718 567.475 947.718 M 724.917 947.718 820.991 947.718 M 888.979 947.718 988.178 947.718 M 1082.241 947.718 1635.883 947.718 M 1655.184 947.718 1751.753 947.718 M 1819.741 947.718 1924.117 947.718 M 2013.541 947.718 2073.726 947.718 M 2141.762 947.718 2312.983 947.718 M 435 922.849 567.475 922.849 M 635.463 922.849 655.659 922.849 M 749.77 922.849 820.991 922.849 M 888.979 922.849 963.277 922.849 M 1057.387 922.849 1751.753 922.849 M 1819.741 922.849 1934.81 922.849 M 2002.798 922.849 2073.726 922.849 M 2141.762 922.849 2312.983 922.849 M 435 897.98 567.475 897.98 M 635.463 897.98 680.562 897.98 M 774.625 897.98 820.991 897.98 M 888.979 897.98 938.423 897.98 M 1032.534 897.98 1044.526 897.98 M 1819.741 897.98 1934.81 897.98 M 2002.798 897.98 2073.726 897.98 M 2141.762 897.98 2312.983 897.98 M 435 873.112 567.475 873.112 M 635.463 873.112 644.026 873.112 M 1819.741 873.112 1873.97 873.112 M 2002.798 873.112 2073.726 873.112 M 2141.762 873.112 2312.983 873.112 M 435 848.243 567.475 848.243 M 635.463 848.243 644.026 848.243 M 1819.741 848.243 1864.106 848.243 M 2002.798 848.243 2073.726 848.243 M 2141.762 848.243 2312.983 848.243 M 435 823.374 567.475 823.374 M 635.463 823.374 644.026 823.374 M 1815.591 823.374 1845.014 823.374 M 2002.798 823.374 2071.529 823.374 M 2143.959 823.374 2312.983 823.374 M 435 798.505 567.475 798.505 M 635.463 798.505 644.026 798.505 M 1792.251 798.505 1820.161 798.505 M 1923.941 798.505 1934.815 798.505 M 2002.798 798.505 2059.322 798.505 M 2156.215 798.505 2312.983 798.505 M 435 773.636 567.475 773.636 M 635.463 773.636 644.026 773.636 M 1778.53 773.636 1795.259 773.636 M 1889.37 773.636 1934.81 773.636 M 2002.798 773.636 2062.251 773.636 M 2153.238 773.636 2312.983 773.636 M 435 748.768 554.39 748.768 M 648.55 748.768 849.751 748.768 M 1864.517 748.768 1934.81 748.768 M 2002.798 748.768 2086.617 748.768 M 2128.873 748.768 2312.983 748.768 M 435 723.899 553.95 723.899 M 648.99 723.899 1403.365 723.899 M 1839.663 723.899 1923.042 723.899 M 2002.798 723.899 2312.983 723.899 M 435 699.03 570.21 699.03 M 632.73 699.03 1503.657 699.03 M 1814.761 699.03 1898.189 699.03 M 1992.299 699.03 2312.983 699.03 M 435 674.161 1328.121 674.161 M 1967.398 674.161 2312.983 674.161 M 435 649.293 1319.966 649.293 M 1942.934 649.293 2312.983 649.293 M 435 624.424 1326.215 624.424 M 1936.685 624.424 2312.983 624.424 M 566.226 599.555 2178.218 599.555 M 592.398 574.686 2152.046 574.686 M 606.753 549.818 2137.739 549.818 M 613.882 524.949 2130.562 524.949 M 615.201 500.08 2129.243 500.08 M 610.953 475.211 2133.491 475.211 M 600.406 450.343 2144.087 450.343 M 1484.155 1941.621 1486.938 1941.621 1480.491 1950.324 1476.219 1958.709 1473.312 1967.657 1471.84 1976.951 1471.84 1986.361 1473.312 1995.655 1476.219 2004.604 1480.491 2012.988 1486.022 2020.6 1492.676 2027.253 1500.287 2032.785 1508.672 2037.056 1517.621 2039.963 1526.915 2041.436 1536.324 2041.436 1545.618 2039.963 1554.567 2037.056 1562.951 2032.785 1570.563 2027.253 1577.217 2020.6 1581.593 2014.715 1586.022 2020.6 1592.676 2027.253 1600.287 2032.785 1608.672 2037.056 1617.621 2039.963 1626.915 2041.436 1636.324 2041.436 1645.618 2039.963 1654.567 2037.056 1662.951 2032.785 1670.563 2027.253 1677.217 2020.6 1682.748 2012.988 1687.02 2004.604 1689.927 1995.655 1691.399 1986.361 1691.399 1976.951 1689.927 1967.657 1688.096 1961.625 1839.122 1961.525 1846.385 1960.08 1853.117 1956.975 1853.142 2016.432 1937.272 2016.432 1937.315 2114.491 1922.816 2119.432 1914.244 2123.383 1906.01 2127.995 1898.163 2133.239 1890.751 2139.081 1883.82 2145.488 1877.413 2152.419 1871.57 2159.831 1866.327 2167.678 1861.715 2175.913 1857.764 2184.484 1854.497 2193.339 1851.934 2202.423 1850.093 2211.68 1848.984 2221.052 1848.614 2230.483 1848.984 2239.913 1850.093 2249.286 1851.934 2258.543 1854.497 2267.627 1857.764 2276.482 1861.715 2285.052 1866.327 2293.287 1871.57 2301.135 1877.413 2308.547 1883.846 2315.503 1450.021 2315.5 1458.886 2303.043 1463.207 2295.328 1466.909 2287.297 1469.97 2278.999 1472.371 2270.487 1474.096 2261.814 1475.135 2253.031 1475.483 2244.194 1475.135 2235.357 1474.096 2226.575 1472.371 2217.902 1469.97 2209.39 1466.909 2201.092 1463.207 2193.06 1458.886 2185.345 1453.972 2177.991 1448.497 2171.046 1442.493 2164.552 1436 2158.549 1429.055 2153.073 1421.701 2148.16 1413.986 2143.839 1405.954 2140.136 1397.656 2137.076 1389.144 2134.675 1380.471 2132.95 1371.689 2131.911 1362.852 2131.563 1354.014 2131.911 1345.232 2132.95 1336.559 2134.675 1328.047 2137.076 1319.749 2140.136 1311.718 2143.839 1304.003 2148.16 1296.648 2153.073 1289.703 2158.549 1283.21 2164.552 1277.206 2171.046 1271.731 2177.991 1266.818 2185.345 1262.496 2193.06 1258.794 2201.092 1255.734 2209.39 1253.332 2217.902 1251.608 2226.575 1250.568 2235.357 1250.22 2244.194 1250.568 2253.031 1251.608 2261.814 1253.332 2270.487 1255.734 2278.999 1258.794 2287.297 1262.496 2295.328 1266.818 2303.043 1275.773 2315.525 860.635 2315.478 867.042 2308.547 872.886 2301.135 878.129 2293.287 882.74 2285.052 886.692 2276.482 889.958 2267.627 892.521 2258.543 894.362 2249.286 895.471 2239.913 895.841 2230.483 895.471 2221.052 894.362 2211.68 892.521 2202.423 889.958 2193.339 886.692 2184.484 882.74 2175.913 878.129 2167.678 872.886 2159.831 867.042 2152.419 860.635 2145.488 853.705 2139.081 846.293 2133.239 838.445 2127.995 830.211 2123.383 821.639 2119.432 807.143 2114.573 807.14 2016.47 846.73 2016.432 940.79 2110.319 946.948 2114.433 953.895 2116.996 961.248 2117.866 1295.026 2117.769 1302.289 2116.324 1309.013 2113.224 1314.829 2108.64 1336.508 2086.824 1340.622 2080.667 1343.185 2073.719 1344.055 2066.366 1343.958 2003.896 1342.513 1996.634 1339.413 1989.908 1334.829 1984.093 1302.478 1951.741 1303.869 1942.606 1303.869 1933.197 1302.396 1923.903 1299.49 1914.954 1295.218 1906.57 1289.686 1898.958 1288.676 1897.864 1304.054 1897.866 1304.054 1822.525 1360.362 1766.039 1364.476 1759.883 1367.039 1752.936 1367.522 1750.5 1369.093 1749.665 1382.072 1762.507 1388.23 1766.621 1395.176 1769.184 1402.53 1770.054 1856.875 1770.054 1840.685 1786.365 1836.571 1792.522 1834.008 1799.47 1833.138 1806.832 1833.235 1884.609 1833.525 1888.699 1823.615 1898.608 1689.14 1898.622 1690.845 1891.037 1691.584 1881.656 1690.845 1872.276 1688.65 1863.126 1685.049 1854.433 1680.131 1846.409 1674.021 1839.255 1666.866 1833.144 1658.843 1828.227 1650.15 1824.626 1641 1822.43 1631.619 1821.692 1622.239 1822.43 1613.089 1824.626 1604.396 1828.227 1596.373 1833.144 1591.581 1837.07 1591.584 1821.692 1471.655 1821.692 1471.655 1941.621 1484.155 1941.621 M 659.068 879.009 701.988 879.009 642.984 938.182 638.87 944.34 636.307 951.287 635.437 958.64 635.534 1524.644 636.979 1531.907 640.079 1538.631 644.663 1544.446 661.547 1561.331 660.152 1570.282 660.152 1579.66 661.619 1588.924 664.517 1597.844 668.774 1606.199 674.287 1613.787 680.919 1620.419 688.507 1625.932 695.315 1629.475 688.507 1633.066 680.919 1638.579 676.988 1642.289 670.835 1639.804 663.739 1638.101 656.465 1637.528 649.19 1638.101 642.096 1639.804 635.354 1642.596 632.953 1643.941 632.965 769.745 636.824 765.778 641.113 759.875 644.425 753.374 646.68 746.434 647.822 739.227 647.822 731.93 646.68 724.724 644.425 717.785 641.113 711.283 636.824 705.379 631.664 700.22 625.761 695.932 619.26 692.618 612.32 690.364 605.113 689.222 597.816 689.222 590.61 690.364 583.671 692.618 577.169 695.932 571.265 700.22 566.106 705.379 561.818 711.283 558.505 717.785 556.249 724.724 555.109 731.93 555.109 739.227 556.249 746.434 558.505 753.374 561.818 759.875 566.106 765.778 569.957 769.728 570.062 1830.079 571.507 1837.341 574.606 1844.066 579.192 1849.881 601.009 1871.562 607.167 1875.676 614.113 1878.239 621.467 1879.109 664.517 1879.264 661.619 1888.184 660.152 1897.448 660.152 1906.825 661.619 1916.089 664.517 1925.009 668.774 1933.365 674.287 1940.953 680.919 1947.584 688.507 1953.097 696.864 1957.354 705.782 1960.253 715.046 1961.72 724.425 1961.72 733.382 1960.314 744.106 1971.056 744.14 2114.438 729.642 2119.432 721.071 2123.383 712.836 2127.995 704.988 2133.239 697.576 2139.081 690.646 2145.488 684.239 2152.419 678.396 2159.831 673.152 2167.678 668.541 2175.913 664.589 2184.484 661.323 2193.339 658.761 2202.423 656.92 2211.68 655.811 2221.052 655.44 2230.483 655.811 2239.913 656.92 2249.286 658.761 2258.543 661.323 2267.627 664.589 2276.482 668.541 2285.052 673.152 2293.287 678.396 2301.135 684.239 2308.547 690.5 2315.5 432.5 2315.5 432.5 596.505 441.412 602.546 449.127 606.867 457.159 610.57 465.457 613.63 473.969 616.031 482.642 617.756 491.424 618.795 500.261 619.143 509.098 618.795 517.881 617.756 526.554 616.031 535.066 613.63 543.364 610.57 551.395 606.867 559.11 602.546 566.465 597.633 573.409 592.157 579.903 586.154 585.907 579.66 591.382 572.715 596.295 565.361 600.617 557.646 604.319 549.614 607.379 541.316 609.781 532.804 611.505 524.131 612.545 515.349 612.892 506.512 612.545 497.675 611.505 488.892 609.781 480.219 607.379 471.707 604.319 463.409 600.617 455.378 596.295 447.663 591.382 440.308 585.085 432.476 2159.307 432.5 2153.073 440.308 2148.16 447.663 2143.839 455.378 2140.136 463.409 2137.076 471.707 2134.675 480.219 2132.95 488.892 2131.911 497.675 2131.563 506.512 2131.911 515.349 2132.95 524.131 2134.675 532.804 2137.076 541.316 2140.136 549.614 2143.839 557.646 2148.16 565.361 2153.073 572.715 2158.549 579.66 2164.552 586.154 2171.046 592.157 2177.991 597.633 2185.345 602.546 2193.06 606.867 2201.092 610.57 2209.39 613.63 2217.902 616.031 2226.575 617.756 2235.357 618.795 2244.194 619.143 2253.031 618.795 2261.814 617.756 2270.487 616.031 2278.999 613.63 2287.297 610.57 2295.328 606.867 2303.043 602.546 2315.525 593.591 2315.5 2315.459 2053.81 2315.478 2060.217 2308.547 2066.059 2301.135 2071.303 2293.287 2075.915 2285.052 2079.866 2276.482 2083.133 2267.627 2085.694 2258.543 2087.535 2249.286 2088.644 2239.913 2089.016 2230.483 2088.644 2221.052 2087.535 2211.68 2085.694 2202.423 2083.133 2193.339 2079.866 2184.484 2075.915 2175.913 2071.303 2167.678 2066.059 2159.831 2060.217 2152.419 2053.81 2145.488 2046.879 2139.081 2039.467 2133.239 2031.619 2127.995 2023.385 2123.383 2014.814 2119.432 2000.316 2114.573 2000.315 1956.703 2010.768 1960.253 2020.03 1961.72 2029.409 1961.72 2038.673 1960.253 2047.592 1957.354 2055.949 1953.097 2063.537 1947.584 2070.168 1940.953 2075.681 1933.365 2079.938 1925.009 2082.836 1916.089 2084.303 1906.825 2084.303 1897.448 2082.836 1888.184 2079.938 1879.264 2075.1 1870.039 2096.941 1848.064 2101.055 1841.907 2103.618 1834.959 2104.488 1827.606 2104.391 1444.286 2102.946 1437.024 2099.846 1430.299 2095.262 1424.484 2073.446 1402.806 2067.289 1398.692 2060.341 1396.129 2052.988 1395.259 1742.1 1395.259 1740.157 1386.827 2090.219 1386.73 2097.482 1385.285 2104.207 1382.185 2110.022 1377.601 2131.701 1355.785 2135.815 1349.627 2138.378 1342.681 2139.248 1335.327 2139.248 825.61 2145.367 818.698 2149.18 812.476 2151.972 805.735 2153.676 798.64 2154.248 791.366 2153.676 784.092 2151.972 776.996 2149.18 770.256 2145.367 764.034 2140.629 758.486 2135.08 753.747 2128.858 749.934 2122.117 747.142 2115.022 745.438 2107.748 744.866 2100.474 745.438 2093.379 747.142 2086.638 749.934 2080.416 753.747 2074.867 758.486 2070.129 764.034 2066.316 770.256 2063.524 776.996 2061.82 784.092 2061.248 791.366 2061.82 798.64 2063.524 805.735 2066.316 812.476 2070.129 818.698 2074.867 824.247 2076.24 825.514 2076.248 1192.684 2071.303 1183.82 2066.059 1175.972 2060.217 1168.56 2053.81 1161.63 2046.879 1155.223 2039.467 1149.381 2031.619 1144.136 2023.385 1139.525 2014.814 1135.573 2000.316 1130.715 2000.315 1001.459 2006.434 994.564 2010.247 988.343 2013.039 981.601 2014.743 974.507 2015.315 967.232 2014.743 959.958 2013.039 952.862 2010.247 946.122 2006.434 939.9 2001.696 934.352 2000.323 933.083 2000.218 720.143 1998.773 712.881 1995.673 706.156 1991.089 700.341 1940.438 649.69 1939.908 640.505 1938.205 633.411 1935.412 626.669 1931.6 620.448 1926.861 614.899 1921.312 610.16 1915.091 606.348 1908.349 603.556 1901.255 601.853 1893.98 601.28 1886.706 601.853 1879.61 603.556 1872.87 606.348 1866.648 610.16 1861.1 614.899 1859.831 616.272 1403.11 616.28 1396.257 610.16 1390.035 606.348 1383.294 603.556 1376.199 601.853 1368.925 601.28 1361.651 601.853 1354.555 603.556 1347.815 606.348 1341.593 610.16 1336.045 614.899 1331.306 620.448 1327.493 626.669 1324.701 633.411 1322.997 640.505 1322.425 647.78 1322.997 655.054 1324.701 662.15 1327.493 668.891 1331.306 675.112 1336.045 680.66 1341.593 685.399 1347.815 689.211 1354.555 692.004 1361.651 693.707 1368.925 694.28 1376.199 693.707 1383.294 692.004 1390.035 689.211 1396.257 685.399 1401.806 680.66 1403.073 679.289 1518.094 679.28 1513.07 685.133 1509.257 691.354 1506.465 698.096 1504.761 705.19 1504.189 712.465 1504.327 715.957 1480.1 715.965 1476.136 712.106 1470.234 707.818 1463.732 704.505 1456.793 702.249 1449.585 701.109 1442.289 701.109 1435.081 702.249 1428.142 704.505 1421.64 707.818 1415.738 712.106 1410.579 717.265 1406.289 723.169 1402.976 729.671 1400.722 736.61 1399.58 743.816 1399.575 750.957 1393.642 750.965 1387.272 745.094 1380.811 741.476 1373.684 739.467 1368.747 739.079 872.529 739.176 865.266 740.621 858.541 743.72 852.726 748.306 834.84 766.192 825.063 762.014 815.913 759.819 806.533 759.08 797.152 759.819 788.003 762.014 779.31 765.615 771.286 770.533 766.495 774.458 766.497 759.08 646.568 759.08 646.568 879.009 659.068 879.009 M 792.732 877.392 801.828 878.824 811.238 878.824 820.531 877.352 823.487 876.518 823.597 1104.428 825.042 1111.69 828.142 1118.415 832.726 1124.23 852.856 1144.36 846.293 1149.381 838.445 1144.136 830.211 1139.525 821.639 1135.573 812.785 1132.307 803.701 1129.745 794.445 1127.904 785.072 1126.794 775.64 1126.424 766.21 1126.794 756.837 1127.904 747.58 1129.745 738.496 1132.307 729.642 1135.573 721.071 1139.525 712.836 1144.136 704.988 1149.381 698.416 1154.562 698.437 971.734 792.756 877.369 M 886.501 875.521 892.534 877.352 901.828 878.824 911.238 878.824 920.333 877.392 1045.118 1002.178 921.871 1002.266 914.609 1003.71 907.885 1006.811 902.07 1011.395 886.5 1026.955 886.5 875.539 M 1259.474 1777.937 1184.125 1777.937 1184.125 1793.22 1175.589 1786.886 1175.589 1581.798 1304.919 1452.466 1304.909 1732.512 1259.479 1777.963 M 1112.589 1786.886 1105.146 1792.304 1098.492 1798.958 1092.961 1806.57 1088.689 1814.954 1085.782 1823.903 1084.31 1833.197 1084.31 1842.606 1085.782 1851.9 1088.689 1860.849 1092.961 1869.234 1098.492 1876.845 1105.146 1883.499 1111.03 1887.875 1105.146 1892.304 1098.492 1898.958 1092.961 1906.57 1088.689 1914.954 1085.782 1923.903 1084.31 1933.197 1084.31 1942.606 1085.782 1951.9 1088.689 1960.849 1092.961 1969.234 1098.492 1976.845 1105.146 1983.499 1111.03 1987.875 1105.146 1992.304 1098.492 1998.958 1092.961 2006.57 1088.689 2014.954 1085.782 2023.903 1084.31 2033.197 1084.31 2042.606 1085.782 2051.9 1086.615 2054.856 974.343 2054.866 891.302 1971.871 891.314 1931.423 896.274 1928.995 902.089 1924.411 923.768 1902.594 927.882 1896.438 930.445 1889.491 931.315 1882.136 931.218 1804.352 929.773 1797.089 926.673 1790.365 922.089 1784.549 900.273 1762.87 894.115 1758.756 889.539 1756.862 889.663 1752.507 891.13 1743.243 891.13 1733.865 889.723 1724.907 1005.319 1609.192 1009.433 1603.035 1011.996 1596.088 1012.866 1588.734 1012.866 1200.697 1018.929 1203.764 1025.869 1206.018 1033.076 1207.16 1040.373 1207.16 1047.579 1206.018 1054.518 1203.764 1061.02 1200.45 1066.924 1196.161 1070.873 1192.311 1303.374 1192.303 1301.409 1203.52 1294.135 1204.092 1287.039 1205.795 1280.298 1208.588 1274.077 1212.4 1268.529 1217.139 1263.79 1222.688 1259.978 1228.909 1257.185 1235.651 1256.213 1239.096 1247.761 1238.978 1240.554 1240.119 1233.614 1242.374 1227.113 1245.688 1221.21 1249.976 1217.26 1253.827 1105.559 1253.835 1098.698 1247.715 1092.476 1243.903 1085.735 1241.11 1078.64 1239.408 1071.366 1238.835 1064.092 1239.408 1056.996 1241.11 1050.256 1243.903 1044.034 1247.715 1038.486 1252.454 1033.747 1258.003 1029.934 1264.224 1027.142 1270.966 1025.438 1278.06 1024.866 1285.335 1025.438 1292.609 1027.142 1299.705 1029.934 1306.446 1033.747 1312.667 1038.486 1318.215 1044.034 1322.954 1050.256 1326.766 1056.996 1329.559 1064.092 1331.262 1071.366 1331.835 1078.64 1331.262 1085.735 1329.559 1092.476 1326.766 1098.698 1322.954 1104.247 1318.215 1105.514 1316.844 1217.215 1316.835 1224.077 1322.954 1230.298 1326.766 1237.039 1329.559 1244.135 1331.262 1251.409 1331.835 1258.684 1331.262 1265.778 1329.559 1269.916 1327.967 1269.909 1398.408 1120.136 1548.29 1116.022 1554.448 1113.459 1561.394 1112.589 1568.757 1112.589 1786.864 M 891.13 1624.81 889.723 1615.852 928.295 1577.16 932.409 1571.003 934.972 1564.055 935.843 1556.702 935.843 1066.711 949.343 1065.169 1062.77 1065.169 1053.929 1067.843 1047.428 1071.155 1041.525 1075.444 1037.575 1079.294 998.895 1079.4 991.633 1080.845 984.907 1083.945 979.092 1088.529 957.413 1110.345 953.299 1116.503 950.736 1123.449 949.866 1130.803 949.866 1575.676 891.13 1634.188 891.13 1624.81 M 845.193 1462.266 836.236 1460.86 826.857 1460.86 817.593 1462.327 808.675 1465.226 807.126 1465.94 807.14 1362.672 821.639 1357.676 830.211 1353.724 838.445 1349.113 846.293 1343.869 852.865 1338.688 852.843 1454.591 M 695.315 1738.577 688.507 1742.121 680.919 1747.634 674.287 1754.265 668.774 1761.853 664.517 1770.209 661.619 1779.129 660.152 1788.392 660.152 1797.77 661.619 1807.034 664.587 1816.104 634.525 1816.109 632.965 1802.608 632.965 1724.14 638.671 1726.988 645.61 1729.243 652.816 1730.385 660.113 1730.385 667.32 1729.243 674.26 1726.988 676.941 1725.752 684.605 1732.379 692.601 1737.28 695.315 1738.53 M 698.416 1338.688 704.988 1343.869 712.836 1349.113 721.071 1353.724 729.642 1357.676 744.139 1362.534 744.156 1520.467 738.205 1518.129 729.085 1515.94 719.735 1515.203 710.386 1515.94 706.088 1516.794 698.437 1509.135 698.437 1338.726 M 1888.488 1684.05 1881.681 1687.593 1874.093 1693.106 1867.462 1699.738 1862.122 1707.066 1415.594 1707.054 1414.028 1693.552 1414.028 1246.726 1421.176 1246.692 1428.089 1245.609 1427.987 1253.983 1429.127 1261.19 1431.383 1268.13 1434.696 1274.631 1438.984 1280.534 1444.143 1285.694 1450.047 1289.983 1456.549 1293.295 1463.488 1295.55 1470.694 1296.692 1476.21 1296.761 1833.049 1653.451 1839.206 1657.566 1846.154 1660.129 1853.507 1660.999 1862.15 1660.999 1867.462 1668.315 1874.093 1674.946 1881.681 1680.459 1888.488 1684.003 M 1961.046 1594.094 1955.171 1587.236 1948.039 1581.146 1940.043 1576.245 1937.329 1574.995 1944.138 1571.404 1951.726 1565.891 1958.357 1559.26 1963.87 1551.672 1968.127 1543.316 1971.025 1534.396 1972.492 1525.133 1972.492 1515.755 1971.025 1506.491 1968.127 1497.571 1963.87 1489.215 1958.357 1481.627 1951.726 1474.996 1944.138 1469.483 1935.781 1465.226 1926.862 1462.327 1917.598 1460.86 1908.219 1460.86 1898.957 1462.327 1890.037 1465.226 1881.681 1469.483 1874.093 1474.996 1867.462 1481.627 1861.949 1489.215 1857.69 1497.571 1854.793 1506.491 1853.325 1515.755 1853.325 1525.133 1854.793 1534.396 1857.69 1543.316 1861.949 1551.672 1867.462 1559.26 1874.093 1565.891 1881.681 1571.404 1888.488 1574.948 1881.681 1578.538 1874.093 1584.051 1867.462 1590.682 1863.894 1595.358 1726.728 1458.173 2039.974 1458.259 2041.488 1471.759 2041.488 1517.608 2034.07 1515.94 2024.72 1515.203 2015.37 1515.94 2006.251 1518.129 1997.587 1521.718 1989.589 1526.618 1982.458 1532.709 1976.367 1539.84 1971.467 1547.837 1967.878 1556.501 1965.688 1565.622 1964.953 1574.971 1965.688 1584.32 1966.543 1588.618 M 1937.312 1130.715 1922.816 1135.573 1914.244 1139.525 1906.01 1144.136 1898.163 1149.381 1890.751 1155.223 1883.82 1161.63 1877.413 1168.56 1871.57 1175.972 1866.327 1183.82 1861.715 1192.055 1857.764 1200.626 1854.497 1209.48 1851.934 1218.564 1850.093 1227.822 1848.984 1237.194 1848.614 1246.625 1848.984 1256.055 1850.093 1265.428 1851.934 1274.685 1854.497 1283.769 1857.764 1292.623 1861.715 1301.194 1866.327 1309.429 1871.57 1317.277 1876.751 1323.849 1740.727 1323.827 1640.791 1223.915 1640.273 1214.741 1638.57 1207.647 1635.778 1200.906 1631.966 1194.684 1627.227 1189.135 1621.678 1184.396 1615.457 1180.584 1608.715 1177.791 1601.621 1176.088 1594.346 1175.516 1587.072 1176.088 1579.976 1177.791 1573.235 1180.584 1567.014 1184.396 1561.466 1189.135 1559.365 1191.408 1554.542 1186.657 1548.639 1182.369 1542.138 1179.055 1535.198 1176.801 1527.991 1175.659 1520.694 1175.659 1513.488 1176.801 1506.549 1179.055 1500.047 1182.369 1494.143 1186.657 1488.984 1191.816 1484.696 1197.72 1481.328 1204.369 1474.343 1203.835 1467.068 1204.408 1463.782 1205.062 1463.954 1198.469 1507.232 1155.178 1814.841 1155.08 1822.104 1153.635 1828.828 1150.535 1834.644 1145.951 1937.291 1043.303 1937.315 1130.66 M 1419.395 1153.908 1414.037 1153.972 1414.028 1107.077 1427.528 1105.539 1467.811 1105.539 1419.466 1153.849 M 1859.831 679.289 1863.781 683.139 1869.684 687.428 1876.185 690.74 1883.125 692.995 1890.332 694.136 1895.846 694.206 1937.341 735.689 1937.205 804.57 1930.703 801.257 1923.764 799.001 1916.558 797.861 1911.042 797.79 1801.614 688.512 1795.458 684.398 1788.51 681.835 1781.157 680.965 1584.917 680.965 1583.245 679.285 1859.794 679.28 M 1703.423 778.974 1707.371 782.824 1714.034 787.538 1542.181 787.545 1542.299 778.974 1703.408 778.965 M 1118.08 1107.155 1116.94 1099.948 1114.685 1093.008 1111.371 1086.507 1107.083 1080.604 1101.924 1075.444 1096.02 1071.155 1089.518 1067.843 1082.579 1065.588 1080.467 1065.168 1366.873 1065.169 1357.043 1075.524 1353.425 1081.984 1351.416 1089.112 1351.028 1094.039 1351.028 1150.825 1336.866 1136.85 1330.71 1132.736 1323.762 1130.173 1316.399 1129.303 1114.407 1129.303 1116.94 1121.659 1118.08 1114.451 1118.08 1107.155 M 1020.34 877.399 1034.542 891.465 1040.699 895.579 1047.647 898.142 1055 899.012 1716.615 899.021 1720.564 902.871 1726.467 907.16 1732.97 910.472 1739.908 912.727 1747.115 913.869 1754.264 914.045 1754.256 994.52 1750.406 998.47 1746.117 1004.373 1742.803 1010.874 1740.549 1017.814 1739.407 1025.021 1739.407 1032.318 1740.549 1039.524 1742.803 1046.463 1746.117 1052.965 1750.406 1058.869 1755.564 1064.028 1761.467 1068.316 1767.97 1071.63 1774.908 1073.885 1782.115 1075.026 1789.412 1075.026 1796.619 1073.885 1803.559 1071.63 1810.06 1068.316 1815.963 1064.028 1821.123 1058.869 1825.412 1052.965 1828.724 1046.463 1830.979 1039.524 1832.121 1032.318 1832.121 1025.021 1830.979 1017.814 1828.724 1010.874 1825.412 1004.373 1821.123 998.47 1817.273 994.52 1817.167 836.572 1815.722 829.31 1812.622 822.585 1808.038 816.77 1786.222 795.092 1780.066 790.978 1773.118 788.415 1765.765 787.545 1761.126 787.545 1767.77 782.824 1772.93 777.664 1777.219 771.761 1780.531 765.26 1782.713 758.581 1866.433 842.29 1866.982 851.491 1868.685 858.587 1871.478 865.328 1875.29 871.549 1880.029 877.097 1885.577 881.836 1891.798 885.648 1898.539 888.441 1905.635 890.144 1912.909 890.717 1920.184 890.144 1927.278 888.441 1934.02 885.648 1937.312 883.794 1937.307 933.083 1933.457 937.033 1929.167 942.936 1925.854 949.437 1923.6 956.377 1922.458 963.584 1922.388 969.098 1799.354 1092.146 1550.993 1092.177 1553.385 1084.894 1554.252 1079.996 1561.818 1080.026 1569.024 1078.885 1575.963 1076.63 1582.465 1073.316 1588.369 1069.028 1593.528 1063.869 1597.816 1057.965 1601.13 1051.463 1603.385 1044.524 1604.526 1037.318 1604.526 1030.021 1603.854 1025.177 1611.285 1025.169 1618.196 1031.289 1624.417 1035.101 1631.159 1037.894 1638.253 1039.597 1645.528 1040.169 1652.802 1039.597 1659.898 1037.894 1666.639 1035.101 1672.86 1031.289 1678.408 1026.55 1683.147 1021.001 1686.959 1014.78 1689.752 1008.038 1691.455 1000.944 1692.028 993.669 1691.455 986.395 1689.752 979.299 1686.959 972.559 1683.147 966.337 1678.408 960.789 1672.86 956.05 1666.639 952.238 1659.898 949.445 1652.802 947.741 1645.528 947.169 1638.253 947.741 1631.159 949.445 1624.417 952.238 1618.196 956.05 1612.647 960.789 1611.379 962.16 1094.21 962.169 1011.238 878.824 1020.333 877.392 1015.043 883.007 1010.865 878.829" fill="none" stroke-width="25"/><use xlink:href="#D1vrS744HYtt_pad-16" x="1244.089" y="1837.902"/><use xlink:href="#D1vrS744HYtt_pad-17" x="1144.089" y="1837.902"/><use xlink:href="#D1vrS744HYtt_pad-17" x="1244.089" y="1937.902"/><use xlink:href="#D1vrS744HYtt_pad-17" x="1144.089" y="1937.902"/><use xlink:href="#D1vrS744HYtt_pad-17" x="1244.089" y="2037.902"/><use xlink:href="#D1vrS744HYtt_pad-17" x="1144.089" y="2037.902"/><use xlink:href="#D1vrS744HYtt_pad-16" x="1531.619" y="1881.656"/><use xlink:href="#D1vrS744HYtt_pad-17" x="1531.619" y="1981.656"/><use xlink:href="#D1vrS744HYtt_pad-17" x="1631.619" y="1881.656"/><use xlink:href="#D1vrS744HYtt_pad-17" x="1631.619" y="1981.656"/><use xlink:href="#D1vrS744HYtt_pad-26" x="1912.909" y="1956.664"/><use xlink:href="#D1vrS744HYtt_pad-16" x="706.533" y="819.045"/><use xlink:href="#D1vrS744HYtt_pad-26" x="831.546" y="1956.664"/><use xlink:href="#D1vrS744HYtt_pad-28" x="831.546" y="1847.609"/><use xlink:href="#D1vrS744HYtt_pad-28" x="831.546" y="1738.554"/><use xlink:href="#D1vrS744HYtt_pad-28" x="831.546" y="1629.499"/><use xlink:href="#D1vrS744HYtt_pad-28" x="831.546" y="1520.444"/><use xlink:href="#D1vrS744HYtt_pad-28" x="719.735" y="1902.136"/><use xlink:href="#D1vrS744HYtt_pad-28" x="719.735" y="1793.081"/><use xlink:href="#D1vrS744HYtt_pad-28" x="719.735" y="1684.026"/><use xlink:href="#D1vrS744HYtt_pad-28" x="719.735" y="1574.971"/><use xlink:href="#D1vrS744HYtt_pad-29" x="775.641" y="1246.625"/><use xlink:href="#D1vrS744HYtt_pad-29" x="775.641" y="2230.483"/><use xlink:href="#D1vrS744HYtt_pad-28" x="1912.909" y="1847.609"/><use xlink:href="#D1vrS744HYtt_pad-28" x="1912.909" y="1738.554"/><use xlink:href="#D1vrS744HYtt_pad-28" x="1912.909" y="1629.499"/><use xlink:href="#D1vrS744HYtt_pad-28" x="1912.909" y="1520.444"/><use xlink:href="#D1vrS744HYtt_pad-28" x="2024.72" y="1902.136"/><use xlink:href="#D1vrS744HYtt_pad-28" x="2024.72" y="1793.081"/><use xlink:href="#D1vrS744HYtt_pad-28" x="2024.72" y="1684.026"/><use xlink:href="#D1vrS744HYtt_pad-28" x="2024.72" y="1574.971"/><use xlink:href="#D1vrS744HYtt_pad-29" x="1968.815" y="2230.483"/><use xlink:href="#D1vrS744HYtt_pad-29" x="1968.815" y="1246.625"/><use xlink:href="#D1vrS744HYtt_pad-17" x="806.533" y="819.045"/><use xlink:href="#D1vrS744HYtt_pad-17" x="906.533" y="819.045"/><use xlink:href="#D1vrS744HYtt_pad-17" x="1006.533" y="819.045"/><use xlink:href="#D1vrS744HYtt_pad-17" x="1106.533" y="819.045"/></g><g id="pcb-stackup_bottom_sm"><use xlink:href="#rqC.KmSucrlQ_pad-70" x="1244.089" y="1837.902"/><use xlink:href="#rqC.KmSucrlQ_pad-68" x="1144.089" y="1837.902"/><use xlink:href="#rqC.KmSucrlQ_pad-68" x="1244.089" y="1937.902"/><use xlink:href="#rqC.KmSucrlQ_pad-68" x="1144.089" y="1937.902"/><use xlink:href="#rqC.KmSucrlQ_pad-68" x="1244.089" y="2037.902"/><use xlink:href="#rqC.KmSucrlQ_pad-68" x="1144.089" y="2037.902"/><use xlink:href="#rqC.KmSucrlQ_pad-70" x="1531.619" y="1881.656"/><use xlink:href="#rqC.KmSucrlQ_pad-68" x="1531.619" y="1981.656"/><use xlink:href="#rqC.KmSucrlQ_pad-68" x="1631.619" y="1881.656"/><use xlink:href="#rqC.KmSucrlQ_pad-68" x="1631.619" y="1981.656"/><use xlink:href="#rqC.KmSucrlQ_pad-35" x="2244.194" y="506.512"/><use xlink:href="#rqC.KmSucrlQ_pad-35" x="500.261" y="506.512"/><use xlink:href="#rqC.KmSucrlQ_pad-35" x="1362.852" y="2244.194"/><use xlink:href="#rqC.KmSucrlQ_pad-54" x="1912.909" y="1956.664"/><use xlink:href="#rqC.KmSucrlQ_pad-70" x="706.533" y="819.045"/><use xlink:href="#rqC.KmSucrlQ_pad-54" x="831.546" y="1956.664"/><use xlink:href="#rqC.KmSucrlQ_pad-50" x="831.546" y="1847.609"/><use xlink:href="#rqC.KmSucrlQ_pad-50" x="831.546" y="1738.554"/><use xlink:href="#rqC.KmSucrlQ_pad-50" x="831.546" y="1629.499"/><use xlink:href="#rqC.KmSucrlQ_pad-50" x="831.546" y="1520.444"/><use xlink:href="#rqC.KmSucrlQ_pad-50" x="719.735" y="1902.136"/><use xlink:href="#rqC.KmSucrlQ_pad-50" x="719.735" y="1793.081"/><use xlink:href="#rqC.KmSucrlQ_pad-50" x="719.735" y="1684.026"/><use xlink:href="#rqC.KmSucrlQ_pad-50" x="719.735" y="1574.971"/><use xlink:href="#rqC.KmSucrlQ_pad-48" x="775.641" y="1246.625"/><use xlink:href="#rqC.KmSucrlQ_pad-48" x="775.641" y="2230.483"/><use xlink:href="#rqC.KmSucrlQ_pad-50" x="1912.909" y="1847.609"/><use xlink:href="#rqC.KmSucrlQ_pad-50" x="1912.909" y="1738.554"/><use xlink:href="#rqC.KmSucrlQ_pad-50" x="1912.909" y="1629.499"/><use xlink:href="#rqC.KmSucrlQ_pad-50" x="1912.909" y="1520.444"/><use xlink:href="#rqC.KmSucrlQ_pad-50" x="2024.72" y="1902.136"/><use xlink:href="#rqC.KmSucrlQ_pad-50" x="2024.72" y="1793.081"/><use xlink:href="#rqC.KmSucrlQ_pad-50" x="2024.72" y="1684.026"/><use xlink:href="#rqC.KmSucrlQ_pad-50" x="2024.72" y="1574.971"/><use xlink:href="#rqC.KmSucrlQ_pad-48" x="1968.815" y="2230.483"/><use xlink:href="#rqC.KmSucrlQ_pad-48" x="1968.815" y="1246.625"/><use xlink:href="#rqC.KmSucrlQ_pad-68" x="806.533" y="819.045"/><use xlink:href="#rqC.KmSucrlQ_pad-68" x="906.533" y="819.045"/><use xlink:href="#rqC.KmSucrlQ_pad-68" x="1006.533" y="819.045"/><use xlink:href="#rqC.KmSucrlQ_pad-68" x="1106.533" y="819.045"/></g><g id="pcb-stackup_bottom_drl1"><use xlink:href="#c7fu9.6G8AZQ_pad-1" x="1368.9" y="647.8"/><use xlink:href="#c7fu9.6G8AZQ_pad-1" x="1445.9" y="747.5"/><use xlink:href="#c7fu9.6G8AZQ_pad-1" x="1495.9" y="782.5"/><use xlink:href="#c7fu9.6G8AZQ_pad-1" x="1550.7" y="712.5"/><use xlink:href="#c7fu9.6G8AZQ_pad-1" x="1737.6" y="747.5"/><use xlink:href="#c7fu9.6G8AZQ_pad-1" x="1750.8" y="867.5"/><use xlink:href="#c7fu9.6G8AZQ_pad-1" x="1912.9" y="844.2"/><use xlink:href="#c7fu9.6G8AZQ_pad-1" x="1968.8" y="967.2"/><use xlink:href="#c7fu9.6G8AZQ_pad-1" x="1785.8" y="1028.7"/><use xlink:href="#c7fu9.6G8AZQ_pad-1" x="1645.5" y="993.7"/><use xlink:href="#c7fu9.6G8AZQ_pad-1" x="1558.2" y="1033.7"/><use xlink:href="#c7fu9.6G8AZQ_pad-1" x="1508.2" y="1074"/><use xlink:href="#c7fu9.6G8AZQ_pad-1" x="1524.3" y="1222"/><use xlink:href="#c7fu9.6G8AZQ_pad-1" x="1474.3" y="1250.3"/><use xlink:href="#c7fu9.6G8AZQ_pad-1" x="1417.5" y="1200.3"/><use xlink:href="#c7fu9.6G8AZQ_pad-1" x="1301.4" y="1250"/><use xlink:href="#c7fu9.6G8AZQ_pad-1" x="1251.4" y="1285.3"/><use xlink:href="#c7fu9.6G8AZQ_pad-1" x="1071.4" y="1285.3"/><use xlink:href="#c7fu9.6G8AZQ_pad-1" x="1036.7" y="1160.8"/><use xlink:href="#c7fu9.6G8AZQ_pad-1" x="1071.7" y="1110.8"/><use xlink:href="#c7fu9.6G8AZQ_pad-1" x="1594.3" y="1222"/><use xlink:href="#c7fu9.6G8AZQ_pad-1" x="1894" y="647.8"/><use xlink:href="#c7fu9.6G8AZQ_pad-1" x="2107.7" y="791.4"/><use xlink:href="#c7fu9.6G8AZQ_pad-1" x="601.5" y="735.6"/><use xlink:href="#c7fu9.6G8AZQ_pad-1" x="656.5" y="1684"/><use xlink:href="#c7fu9.6G8AZQ_pad-2" x="1912.9" y="1956.7"/><use xlink:href="#c7fu9.6G8AZQ_pad-2" x="1912.9" y="1847.6"/><use xlink:href="#c7fu9.6G8AZQ_pad-2" x="1912.9" y="1738.6"/><use xlink:href="#c7fu9.6G8AZQ_pad-2" x="1912.9" y="1629.5"/><use xlink:href="#c7fu9.6G8AZQ_pad-2" x="1912.9" y="1520.4"/><use xlink:href="#c7fu9.6G8AZQ_pad-2" x="2024.7" y="1575"/><use xlink:href="#c7fu9.6G8AZQ_pad-2" x="2024.7" y="1684"/><use xlink:href="#c7fu9.6G8AZQ_pad-2" x="2024.7" y="1793.1"/><use xlink:href="#c7fu9.6G8AZQ_pad-2" x="2024.7" y="1902.1"/><use xlink:href="#c7fu9.6G8AZQ_pad-2" x="831.5" y="1956.7"/><use xlink:href="#c7fu9.6G8AZQ_pad-2" x="831.5" y="1847.6"/><use xlink:href="#c7fu9.6G8AZQ_pad-2" x="831.5" y="1738.6"/><use xlink:href="#c7fu9.6G8AZQ_pad-2" x="831.5" y="1629.5"/><use xlink:href="#c7fu9.6G8AZQ_pad-2" x="831.5" y="1520.4"/><use xlink:href="#c7fu9.6G8AZQ_pad-2" x="719.7" y="1575"/><use xlink:href="#c7fu9.6G8AZQ_pad-2" x="719.7" y="1684"/><use xlink:href="#c7fu9.6G8AZQ_pad-2" x="719.7" y="1793.1"/><use xlink:href="#c7fu9.6G8AZQ_pad-2" x="719.7" y="1902.1"/><use xlink:href="#c7fu9.6G8AZQ_pad-3" x="1244.1" y="1837.9"/><use xlink:href="#c7fu9.6G8AZQ_pad-3" x="1144.1" y="1837.9"/><use xlink:href="#c7fu9.6G8AZQ_pad-3" x="1144.1" y="1937.9"/><use xlink:href="#c7fu9.6G8AZQ_pad-3" x="1244.1" y="1937.9"/><use xlink:href="#c7fu9.6G8AZQ_pad-3" x="1244.1" y="2037.9"/><use xlink:href="#c7fu9.6G8AZQ_pad-3" x="1144.1" y="2037.9"/><use xlink:href="#c7fu9.6G8AZQ_pad-3" x="1531.6" y="1981.7"/><use xlink:href="#c7fu9.6G8AZQ_pad-3" x="1531.6" y="1881.7"/><use xlink:href="#c7fu9.6G8AZQ_pad-3" x="1631.6" y="1881.7"/><use xlink:href="#c7fu9.6G8AZQ_pad-3" x="1631.6" y="1981.7"/><use xlink:href="#c7fu9.6G8AZQ_pad-3" x="1106.5" y="819"/><use xlink:href="#c7fu9.6G8AZQ_pad-3" x="1006.5" y="819"/><use xlink:href="#c7fu9.6G8AZQ_pad-3" x="906.5" y="819"/><use xlink:href="#c7fu9.6G8AZQ_pad-3" x="806.5" y="819"/><use xlink:href="#c7fu9.6G8AZQ_pad-3" x="706.5" y="819"/><use xlink:href="#c7fu9.6G8AZQ_pad-4" x="2244.2" y="506.5"/><use xlink:href="#c7fu9.6G8AZQ_pad-4" x="500.3" y="506.5"/><use xlink:href="#c7fu9.6G8AZQ_pad-4" x="1362.9" y="2244.2"/><use xlink:href="#c7fu9.6G8AZQ_pad-5" x="775.6" y="1246.6"/><use xlink:href="#c7fu9.6G8AZQ_pad-5" x="775.6" y="2230.5"/><use xlink:href="#c7fu9.6G8AZQ_pad-5" x="1968.8" y="2230.5"/><use xlink:href="#c7fu9.6G8AZQ_pad-5" x="1968.8" y="1246.6"/></g><clipPath id="pcb-stackup_bottom_out"><path d="M 394 394 2354 394 2354 2354 394 2354 394 394" fill="none" stroke-width="6"/></clipPath><mask id="pcb-stackup_bottom_mech-mask"><g fill="#000" stroke="#000"><rect x="394" y="394" width="1960" height="1960" fill="#fff"/><use xlink:href="#pcb-stackup_bottom_drl1"/></g></mask><mask id="pcb-stackup_bottom_cf-mask"><g fill="#fff" stroke="#fff"><use xlink:href="#pcb-stackup_bottom_sm"/></g></mask><mask id="pcb-stackup_bottom_sm-mask"><g fill="#000" stroke="#000"><rect x="394" y="394" width="1960" height="1960" fill="#fff"/><use xlink:href="#pcb-stackup_bottom_sm"/></g></mask></defs><g transform="translate(0,2748) scale(1,-1)"><g mask="url(#pcb-stackup_bottom_mech-mask)" clip-path="url(#pcb-stackup_bottom_out)" transform="translate(2748,0) scale(-1,1)"><rect x="394" y="394" width="1960" height="1960" fill="currentColor" class="pcb-stackup_fr4"/><use xlink:href="#pcb-stackup_bottom_cu" fill="currentColor" stroke="currentColor" class="pcb-stackup_cu"/><use xlink:href="#pcb-stackup_bottom_cu" fill="currentColor" stroke="currentColor" class="pcb-stackup_cf" mask="url(#pcb-stackup_bottom_cf-mask)"/><g mask="url(#pcb-stackup_bottom_sm-mask)"><rect x="394" y="394" width="1960" height="1960" fill="currentColor" class="pcb-stackup_sm"/></g></g></g></svg>