<svg id="pcb-stackup_bottom" version="1.1" xmlns:xlink="http://www.w3.org/1999/xlink" stroke-linecap="round" stroke-linejoin="round" stroke-width="0" fill-rule="evenodd" clip-rule="evenodd" viewBox="109855 -140970 32395 39370" width="32.395mm" height="39.37mm" xmlns="http://www.w3.org/2000/svg"><defs><style>.pcb-stackup_fr4 {color: #4D542C;}
.pcb-stackup_cu {color: lightgrey;}
.pcb-stackup_cf {color: goldenrod;}
.pcb-stackup_sm {color: #2E0051; opacity: 0.9;}
.pcb-stackup_ss {color: white;}
.pcb-stackup_sp {color: #000000; opacity: 0;}
.pcb-stackup_out {color: black;}</style><rect x="-863.6" y="-1016" width="1727.2" height="2032" id="_RqKOK.x3APA_pad-11"/><rect x="-863.6" y="-1016" width="1727.2" height="2032" rx="863.6" ry="863.6" id="_RqKOK.x3APA_pad-12"/><rect x="-1016" y="-863.6" width="2032" height="1727.2" id="_RqKOK.x3APA_pad-13"/><rect x="-1016" y="-863.6" width="2032" height="1727.2" rx="863.6" ry="863.6" id="_RqKOK.x3APA_pad-14"/><circle cx="0" cy="0" r="750" id="_RqKOK.x3APA_pad-15"/><circle cx="0" cy="0" r="300" id="_RqKOK.x3APA_pad-16"/><rect x="-863.6" y="-1016" width="1727.2" height="2032" id="_RqKOK.x3APA_pad-11"/><rect x="-863.6" y="-1016" width="1727.2" height="2032" rx="863.6" ry="863.6" id="_RqKOK.x3APA_pad-12"/><rect x="-1016" y="-863.6" width="2032" height="1727.2" id="_RqKOK.x3APA_pad-13"/><rect x="-1016" y="-863.6" width="2032" height="1727.2" rx="863.6" ry="863.6" id="_RqKOK.x3APA_pad-14"/><circle cx="0" cy="0" r="750" id="_RqKOK.x3APA_pad-15"/><circle cx="0" cy="0" r="300" id="_RqKOK.x3APA_pad-16"/><rect x="-863.6" y="-1016" width="1727.2" height="2032" id="WkxtVnrg.3Oq_pad-11"/><rect x="-863.6" y="-1016" width="1727.2" height="2032" rx="863.6" ry="863.6" id="WkxtVnrg.3Oq_pad-12"/><rect x="-1016" y="-863.6" width="2032" height="1727.2" id="WkxtVnrg.3Oq_pad-13"/><rect x="-1016" y="-863.6" width="2032" height="1727.2" rx="863.6" ry="863.6" id="WkxtVnrg.3Oq_pad-14"/><rect x="-863.6" y="-1016" width="1727.2" height="2032" id="_RqKOK.x3APA_pad-11"/><rect x="-863.6" y="-1016" width="1727.2" height="2032" rx="863.6" ry="863.6" id="_RqKOK.x3APA_pad-12"/><rect x="-1016" y="-863.6" width="2032" height="1727.2" id="_RqKOK.x3APA_pad-13"/><rect x="-1016" y="-863.6" width="2032" height="1727.2" rx="863.6" ry="863.6" id="_RqKOK.x3APA_pad-14"/><circle cx="0" cy="0" r="750" id="_RqKOK.x3APA_pad-15"/><circle cx="0" cy="0" r="300" id="_RqKOK.x3APA_pad-16"/><rect x="-863.6" y="-1016" width="1727.2" height="2032" id="_RqKOK.x3APA_pad-11"/><rect x="-863.6" y="-1016" width="1727.2" height="2032" rx="863.6" ry="863.6" id="_RqKOK.x3APA_pad-12"/><rect x="-1016" y="-863.6" width="2032" height="1727.2" id="_RqKOK.x3APA_pad-13"/><rect x="-1016" y="-863.6" width="2032" height="1727.2" rx="863.6" ry="863.6" id="_RqKOK.x3APA_pad-14"/><circle cx="0" cy="0" r="750" id="_RqKOK.x3APA_pad-15"/><circle cx="0" cy="0" r="300" id="_RqKOK.x3APA_pad-16"/><rect x="-863.6" y="-1016" width="1727.2" height="2032" id="WkxtVnrg.3Oq_pad-11"/><rect x="-863.6" y="-1016" width="1727.2" height="2032" rx="863.6" ry="863.6" id="WkxtVnrg.3Oq_pad-12"/><rect x="-1016" y="-863.6" width="2032" height="1727.2" id="WkxtVnrg.3Oq_pad-13"/><rect x="-1016" y="-863.6" width="2032" height="1727.2" rx="863.6" ry="863.6" id="WkxtVnrg.3Oq_pad-14"/><rect x="-863.6" y="-1016" width="1727.2" height="2032" id="_RqKOK.x3APA_pad-11"/><rect x="-863.6" y="-1016" width="1727.2" height="2032" rx="863.6" ry="863.6" id="_RqKOK.x3APA_pad-12"/><rect x="-1016" y="-863.6" width="2032" height="1727.2" id="_RqKOK.x3APA_pad-13"/><rect x="-1016" y="-863.6" width="2032" height="1727.2" rx="863.6" ry="863.6" id="_RqKOK.x3APA_pad-14"/><circle cx="0" cy="0" r="750" id="_RqKOK.x3APA_pad-15"/><circle cx="0" cy="0" r="300" id="_RqKOK.x3APA_pad-16"/><rect x="-863.6" y="-1016" width="1727.2" height="2032" id="_RqKOK.x3APA_pad-11"/><rect x="-863.6" y="-1016" width="1727.2" height="2032" rx="863.6" ry="863.6" id="_RqKOK.x3APA_pad-12"/><rect x="-1016" y="-863.6" width="2032" height="1727.2" id="_RqKOK.x3APA_pad-13"/><rect x="-1016" y="-863.6" width="2032" height="1727.2" rx="863.6" ry="863.6" id="_RqKOK.x3APA_pad-14"/><circle cx="0" cy="0" r="750" id="_RqKOK.x3APA_pad-15"/><circle cx="0" cy="0" r="300" id="_RqKOK.x3APA_pad-16"/><rect x="-863.6" y="-1016" width="1727.2" height="2032" id="WkxtVnrg.3Oq_pad-11"/><rect x="-863.6" y="-1016" width="1727.2" height="2032" rx="863.6" ry="863.6" id="WkxtVnrg.3Oq_pad-12"/><rect x="-1016" y="-863.6" width="2032" height="1727.2" id="WkxtVnrg.3Oq_pad-13"/><rect x="-1016" y="-863.6" width="2032" height="1727.2" rx="863.6" ry="863.6" id="WkxtVnrg.3Oq_pad-14"/><rect x="-863.6" y="-1016" width="1727.2" height="2032" id="_RqKOK.x3APA_pad-11"/><rect x="-863.6" y="-1016" width="1727.2" height="2032" rx="863.6" ry="863.6" id="_RqKOK.x3APA_pad-12"/><rect x="-1016" y="-863.6" width="2032" height="1727.2" id="_RqKOK.x3APA_pad-13"/><rect x="-1016" y="-863.6" width="2032" height="1727.2" rx="863.6" ry="863.6" id="_RqKOK.x3APA_pad-14"/><circle cx="0" cy="0" r="750" id="_RqKOK.x3APA_pad-15"/><circle cx="0" cy="0" r="300" id="_RqKOK.x3APA_pad-16"/><rect x="-863.6" y="-1016" width="1727.2" height="2032" id="_RqKOK.x3APA_pad-11"/><rect x="-863.6" y="-1016" width="1727.2" height="2032" rx="863.6" ry="863.6" id="_RqKOK.x3APA_pad-12"/><rect x="-1016" y="-863.6" width="2032" height="1727.2" id="_RqKOK.x3APA_pad-13"/><rect x="-1016" y="-863.6" width="2032" height="1727.2" rx="863.6" ry="863.6" id="_RqKOK.x3APA_pad-14"/><circle cx="0" cy="0" r="750" id="_RqKOK.x3APA_pad-15"/><circle cx="0" cy="0" r="300" id="_RqKOK.x3APA_pad-16"/><rect x="-863.6" y="-1016" width="1727.2" height="2032" id="WkxtVnrg.3Oq_pad-11"/><rect x="-863.6" y="-1016" width="1727.2" height="2032" rx="863.6" ry="863.6" id="WkxtVnrg.3Oq_pad-12"/><rect x="-1016" y="-863.6" width="2032" height="1727.2" id="WkxtVnrg.3Oq_pad-13"/><rect x="-1016" y="-863.6" width="2032" height="1727.2" rx="863.6" ry="863.6" id="WkxtVnrg.3Oq_pad-14"/><rect x="-863.6" y="-1016" width="1727.2" height="2032" id="_RqKOK.x3APA_pad-11"/><rect x="-863.6" y="-1016" width="1727.2" height="2032" rx="863.6" ry="863.6" id="_RqKOK.x3APA_pad-12"/><rect x="-1016" y="-863.6" width="2032" height="1727.2" id="_RqKOK.x3APA_pad-13"/><rect x="-1016" y="-863.6" width="2032" height="1727.2" rx="863.6" ry="863.6" id="_RqKOK.x3APA_pad-14"/><circle cx="0" cy="0" r="750" id="_RqKOK.x3APA_pad-15"/><circle cx="0" cy="0" r="300" id="_RqKOK.x3APA_pad-16"/><rect x="-863.6" y="-1016" width="1727.2" height="2032" id="_RqKOK.x3APA_pad-11"/><rect x="-863.6" y="-1016" width="1727.2" height="2032" rx="863.6" ry="863.6" id="_RqKOK.x3APA_pad-12"/><rect x="-1016" y="-863.6" width="2032" height="1727.2" id="_RqKOK.x3APA_pad-13"/><rect x="-1016" y="-863.6" width="2032" height="1727.2" rx="863.6" ry="863.6" id="_RqKOK.x3APA_pad-14"/><circle cx="0" cy="0" r="750" id="_RqKOK.x3APA_pad-15"/><circle cx="0" cy="0" r="300" id="_RqKOK.x3APA_pad-16"/><rect x="-863.6" y="-1016" width="1727.2" height="2032" id="WkxtVnrg.3Oq_pad-11"/><rect x="-863.6" y="-1016" width="1727.2" height="2032" rx="863.6" ry="863.6" id="WkxtVnrg.3Oq_pad-12"/><rect x="-1016" y="-863.6" width="2032" height="1727.2" id="WkxtVnrg.3Oq_pad-13"/><rect x="-1016" y="-863.6" width="2032" height="1727.2" rx="863.6" ry="863.6" id="WkxtVnrg.3Oq_pad-14"/><rect x="-863.6" y="-1016" width="1727.2" height="2032" id="_RqKOK.x3APA_pad-11"/><rect x="-863.6" y="-1016" width="1727.2" height="2032" rx="863.6" ry="863.6" id="_RqKOK.x3APA_pad-12"/><rect x="-1016" y="-863.6" width="2032" height="1727.2" id="_RqKOK.x3APA_pad-13"/><rect x="-1016" y="-863.6" width="2032" height="1727.2" rx="863.6" ry="863.6" id="_RqKOK.x3APA_pad-14"/><circle cx="0" cy="0" r="750" id="_RqKOK.x3APA_pad-15"/><circle cx="0" cy="0" r="300" id="_RqKOK.x3APA_pad-16"/><rect x="-863.6" y="-1016" width="1727.2" height="2032" id="_RqKOK.x3APA_pad-11"/><rect x="-863.6" y="-1016" width="1727.2" height="2032" rx="863.6" ry="863.6" id="_RqKOK.x3APA_pad-12"/><rect x="-1016" y="-863.6" width="2032" height="1727.2" id="_RqKOK.x3APA_pad-13"/><rect x="-1016" y="-863.6" width="2032" height="1727.2" rx="863.6" ry="863.6" id="_RqKOK.x3APA_pad-14"/><circle cx="0" cy="0" r="750" id="_RqKOK.x3APA_pad-15"/><circle cx="0" cy="0" r="300" id="_RqKOK.x3APA_pad-16"/><rect x="-863.6" y="-1016" width="1727.2" height="2032" id="WkxtVnrg.3Oq_pad-11"/><rect x="-863.6" y="-1016" width="1727.2" height="2032" rx="863.6" ry="863.6" id="WkxtVnrg.3Oq_pad-12"/><rect x="-1016" y="-863.6" width="2032" height="1727.2" id="WkxtVnrg.3Oq_pad-13"/><rect x="-1016" y="-863.6" width="2032" height="1727.2" rx="863.6" ry="863.6" id="WkxtVnrg.3Oq_pad-14"/><rect x="-863.6" y="-1016" width="1727.2" height="2032" id="_RqKOK.x3APA_pad-11"/><rect x="-863.6" y="-1016" width="1727.2" height="2032" rx="863.6" ry="863.6" id="_RqKOK.x3APA_pad-12"/><rect x="-1016" y="-863.6" width="2032" height="1727.2" id="_RqKOK.x3APA_pad-13"/><rect x="-1016" y="-863.6" width="2032" height="1727.2" rx="863.6" ry="863.6" id="_RqKOK.x3APA_pad-14"/><circle cx="0" cy="0" r="750" id="_RqKOK.x3APA_pad-15"/><circle cx="0" cy="0" r="300" id="_RqKOK.x3APA_pad-16"/><rect x="-863.6" y="-1016" width="1727.2" height="2032" id="_RqKOK.x3APA_pad-11"/><rect x="-863.6" y="-1016" width="1727.2" height="2032" rx="863.6" ry="863.6" id="_RqKOK.x3APA_pad-12"/><rect x="-1016" y="-863.6" width="2032" height="1727.2" id="_RqKOK.x3APA_pad-13"/><rect x="-1016" y="-863.6" width="2032" height="1727.2" rx="863.6" ry="863.6" id="_RqKOK.x3APA_pad-14"/><circle cx="0" cy="0" r="750" id="_RqKOK.x3APA_pad-15"/><circle cx="0" cy="0" r="300" id="_RqKOK.x3APA_pad-16"/><rect x="-863.6" y="-1016" width="1727.2" height="2032" id="WkxtVnrg.3Oq_pad-11"/><rect x="-863.6" y="-1016" width="1727.2" height="2032" rx="863.6" ry="863.6" id="WkxtVnrg.3Oq_pad-12"/><rect x="-1016" y="-863.6" width="2032" height="1727.2" id="WkxtVnrg.3Oq_pad-13"/><rect x="-1016" y="-863.6" width="2032" height="1727.2" rx="863.6" ry="863.6" id="WkxtVnrg.3Oq_pad-14"/><rect x="-863.6" y="-1016" width="1727.2" height="2032" id="_RqKOK.x3APA_pad-11"/><rect x="-863.6" y="-1016" width="1727.2" height="2032" rx="863.6" ry="863.6" id="_RqKOK.x3APA_pad-12"/><rect x="-1016" y="-863.6" width="2032" height="1727.2" id="_RqKOK.x3APA_pad-13"/><rect x="-1016" y="-863.6" width="2032" height="1727.2" rx="863.6" ry="863.6" id="_RqKOK.x3APA_pad-14"/><circle cx="0" cy="0" r="750" id="_RqKOK.x3APA_pad-15"/><circle cx="0" cy="0" r="300" id="_RqKOK.x3APA_pad-16"/><rect x="-863.6" y="-1016" width="1727.2" height="2032" id="_RqKOK.x3APA_pad-11"/><rect x="-863.6" y="-1016" width="1727.2" height="2032" rx="863.6" ry="863.6" id="_RqKOK.x3APA_pad-12"/><rect x="-1016" y="-863.6" width="2032" height="1727.2" id="_RqKOK.x3APA_pad-13"/><rect x="-1016" y="-863.6" width="2032" height="1727.2" rx="863.6" ry="863.6" id="_RqKOK.x3APA_pad-14"/><circle cx="0" cy="0" r="750" id="_RqKOK.x3APA_pad-15"/><circle cx="0" cy="0" r="300" id="_RqKOK.x3APA_pad-16"/><rect x="-863.6" y="-1016" width="1727.2" height="2032" id="WkxtVnrg.3Oq_pad-11"/><rect x="-863.6" y="-1016" width="1727.2" height="2032" rx="863.6" ry="863.6" id="WkxtVnrg.3Oq_pad-12"/><rect x="-1016" y="-863.6" width="2032" height="1727.2" id="WkxtVnrg.3Oq_pad-13"/><rect x="-1016" y="-863.6" width="2032" height="1727.2" rx="863.6" ry="863.6" id="WkxtVnrg.3Oq_pad-14"/><circle cx="0" cy="0" r="200" id="UhTnpMJkxXQK_pad-1"/><circle cx="0" cy="0" r="400" id="UhTnpMJkxXQK_pad-2"/><circle cx="0" cy="0" r="508" id="UhTnpMJkxXQK_pad-3"/><rect x="-863.6" y="-1016" width="1727.2" height="2032" id="_RqKOK.x3APA_pad-11"/><rect x="-863.6" y="-1016" width="1727.2" height="2032" rx="863.6" ry="863.6" id="_RqKOK.x3APA_pad-12"/><rect x="-1016" y="-863.6" width="2032" height="1727.2" id="_RqKOK.x3APA_pad-13"/><rect x="-1016" y="-863.6" width="2032" height="1727.2" rx="863.6" ry="863.6" id="_RqKOK.x3APA_pad-14"/><circle cx="0" cy="0" r="750" id="_RqKOK.x3APA_pad-15"/><circle cx="0" cy="0" r="300" id="_RqKOK.x3APA_pad-16"/><rect x="-863.6" y="-1016" width="1727.2" height="2032" id="_RqKOK.x3APA_pad-11"/><rect x="-863.6" y="-1016" width="1727.2" height="2032" rx="863.6" ry="863.6" id="_RqKOK.x3APA_pad-12"/><rect x="-1016" y="-863.6" width="2032" height="1727.2" id="_RqKOK.x3APA_pad-13"/><rect x="-1016" y="-863.6" width="2032" height="1727.2" rx="863.6" ry="863.6" id="_RqKOK.x3APA_pad-14"/><circle cx="0" cy="0" r="750" id="_RqKOK.x3APA_pad-15"/><circle cx="0" cy="0" r="300" id="_RqKOK.x3APA_pad-16"/><rect x="-863.6" y="-1016" width="1727.2" height="2032" id="WkxtVnrg.3Oq_pad-11"/><rect x="-863.6" y="-1016" width="1727.2" height="2032" rx="863.6" ry="863.6" id="WkxtVnrg.3Oq_pad-12"/><rect x="-1016" y="-863.6" width="2032" height="1727.2" id="WkxtVnrg.3Oq_pad-13"/><rect x="-1016" y="-863.6" width="2032" height="1727.2" rx="863.6" ry="863.6" id="WkxtVnrg.3Oq_pad-14"/><rect x="-863.6" y="-1016" width="1727.2" height="2032" id="_RqKOK.x3APA_pad-11"/><rect x="-863.6" y="-1016" width="1727.2" height="2032" rx="863.6" ry="863.6" id="_RqKOK.x3APA_pad-12"/><rect x="-1016" y="-863.6" width="2032" height="1727.2" id="_RqKOK.x3APA_pad-13"/><rect x="-1016" y="-863.6" width="2032" height="1727.2" rx="863.6" ry="863.6" id="_RqKOK.x3APA_pad-14"/><circle cx="0" cy="0" r="750" id="_RqKOK.x3APA_pad-15"/><circle cx="0" cy="0" r="300" id="_RqKOK.x3APA_pad-16"/><rect x="-863.6" y="-1016" width="1727.2" height="2032" id="_RqKOK.x3APA_pad-11"/><rect x="-863.6" y="-1016" width="1727.2" height="2032" rx="863.6" ry="863.6" id="_RqKOK.x3APA_pad-12"/><rect x="-1016" y="-863.6" width="2032" height="1727.2" id="_RqKOK.x3APA_pad-13"/><rect x="-1016" y="-863.6" width="2032" height="1727.2" rx="863.6" ry="863.6" id="_RqKOK.x3APA_pad-14"/><circle cx="0" cy="0" r="750" id="_RqKOK.x3APA_pad-15"/><circle cx="0" cy="0" r="300" id="_RqKOK.x3APA_pad-16"/><rect x="-863.6" y="-1016" width="1727.2" height="2032" id="WkxtVnrg.3Oq_pad-11"/><rect x="-863.6" y="-1016" width="1727.2" height="2032" rx="863.6" ry="863.6" id="WkxtVnrg.3Oq_pad-12"/><rect x="-1016" y="-863.6" width="2032" height="1727.2" id="WkxtVnrg.3Oq_pad-13"/><rect x="-1016" y="-863.6" width="2032" height="1727.2" rx="863.6" ry="863.6" id="WkxtVnrg.3Oq_pad-14"/><rect x="-863.6" y="-1016" width="1727.2" height="2032" id="_RqKOK.x3APA_pad-11"/><rect x="-863.6" y="-1016" width="1727.2" height="2032" rx="863.6" ry="863.6" id="_RqKOK.x3APA_pad-12"/><rect x="-1016" y="-863.6" width="2032" height="1727.2" id="_RqKOK.x3APA_pad-13"/><rect x="-1016" y="-863.6" width="2032" height="1727.2" rx="863.6" ry="863.6" id="_RqKOK.x3APA_pad-14"/><circle cx="0" cy="0" r="750" id="_RqKOK.x3APA_pad-15"/><circle cx="0" cy="0" r="300" id="_RqKOK.x3APA_pad-16"/><rect x="-863.6" y="-1016" width="1727.2" height="2032" id="_RqKOK.x3APA_pad-11"/><rect x="-863.6" y="-1016" width="1727.2" height="2032" rx="863.6" ry="863.6" id="_RqKOK.x3APA_pad-12"/><rect x="-1016" y="-863.6" width="2032" height="1727.2" id="_RqKOK.x3APA_pad-13"/><rect x="-1016" y="-863.6" width="2032" height="1727.2" rx="863.6" ry="863.6" id="_RqKOK.x3APA_pad-14"/><circle cx="0" cy="0" r="750" id="_RqKOK.x3APA_pad-15"/><circle cx="0" cy="0" r="300" id="_RqKOK.x3APA_pad-16"/><rect x="-863.6" y="-1016" width="1727.2" height="2032" id="WkxtVnrg.3Oq_pad-11"/><rect x="-863.6" y="-1016" width="1727.2" height="2032" rx="863.6" ry="863.6" id="WkxtVnrg.3Oq_pad-12"/><rect x="-1016" y="-863.6" width="2032" height="1727.2" id="WkxtVnrg.3Oq_pad-13"/><rect x="-1016" y="-863.6" width="2032" height="1727.2" rx="863.6" ry="863.6" id="WkxtVnrg.3Oq_pad-14"/><rect x="-863.6" y="-1016" width="1727.2" height="2032" id="_RqKOK.x3APA_pad-11"/><rect x="-863.6" y="-1016" width="1727.2" height="2032" rx="863.6" ry="863.6" id="_RqKOK.x3APA_pad-12"/><rect x="-1016" y="-863.6" width="2032" height="1727.2" id="_RqKOK.x3APA_pad-13"/><rect x="-1016" y="-863.6" width="2032" height="1727.2" rx="863.6" ry="863.6" id="_RqKOK.x3APA_pad-14"/><circle cx="0" cy="0" r="750" id="_RqKOK.x3APA_pad-15"/><circle cx="0" cy="0" r="300" id="_RqKOK.x3APA_pad-16"/><rect x="-863.6" y="-1016" width="1727.2" height="2032" id="_RqKOK.x3APA_pad-11"/><rect x="-863.6" y="-1016" width="1727.2" height="2032" rx="863.6" ry="863.6" id="_RqKOK.x3APA_pad-12"/><rect x="-1016" y="-863.6" width="2032" height="1727.2" id="_RqKOK.x3APA_pad-13"/><rect x="-1016" y="-863.6" width="2032" height="1727.2" rx="863.6" ry="863.6" id="_RqKOK.x3APA_pad-14"/><circle cx="0" cy="0" r="750" id="_RqKOK.x3APA_pad-15"/><circle cx="0" cy="0" r="300" id="_RqKOK.x3APA_pad-16"/><rect x="-863.6" y="-1016" width="1727.2" height="2032" id="WkxtVnrg.3Oq_pad-11"/><rect x="-863.6" y="-1016" width="1727.2" height="2032" rx="863.6" ry="863.6" id="WkxtVnrg.3Oq_pad-12"/><rect x="-1016" y="-863.6" width="2032" height="1727.2" id="WkxtVnrg.3Oq_pad-13"/><rect x="-1016" y="-863.6" width="2032" height="1727.2" rx="863.6" ry="863.6" id="WkxtVnrg.3Oq_pad-14"/><rect x="-863.6" y="-1016" width="1727.2" height="2032" id="_RqKOK.x3APA_pad-11"/><rect x="-863.6" y="-1016" width="1727.2" height="2032" rx="863.6" ry="863.6" id="_RqKOK.x3APA_pad-12"/><rect x="-1016" y="-863.6" width="2032" height="1727.2" id="_RqKOK.x3APA_pad-13"/><rect x="-1016" y="-863.6" width="2032" height="1727.2" rx="863.6" ry="863.6" id="_RqKOK.x3APA_pad-14"/><circle cx="0" cy="0" r="750" id="_RqKOK.x3APA_pad-15"/><circle cx="0" cy="0" r="300" id="_RqKOK.x3APA_pad-16"/><rect x="-863.6" y="-1016" width="1727.2" height="2032" id="_RqKOK.x3APA_pad-11"/><rect x="-863.6" y="-1016" width="1727.2" height="2032" rx="863.6" ry="863.6" id="_RqKOK.x3APA_pad-12"/><rect x="-1016" y="-863.6" width="2032" height="1727.2" id="_RqKOK.x3APA_pad-13"/><rect x="-1016" y="-863.6" width="2032" height="1727.2" rx="863.6" ry="863.6" id="_RqKOK.x3APA_pad-14"/><circle cx="0" cy="0" r="750" id="_RqKOK.x3APA_pad-15"/><circle cx="0" cy="0" r="300" id="_RqKOK.x3APA_pad-16"/><rect x="-863.6" y="-1016" width="1727.2" height="2032" id="WkxtVnrg.3Oq_pad-11"/><rect x="-863.6" y="-1016" width="1727.2" height="2032" rx="863.6" ry="863.6" id="WkxtVnrg.3Oq_pad-12"/><rect x="-1016" y="-863.6" width="2032" height="1727.2" id="WkxtVnrg.3Oq_pad-13"/><rect x="-1016" y="-863.6" width="2032" height="1727.2" rx="863.6" ry="863.6" id="WkxtVnrg.3Oq_pad-14"/><rect x="-863.6" y="-1016" width="1727.2" height="2032" id="_RqKOK.x3APA_pad-11"/><rect x="-863.6" y="-1016" width="1727.2" height="2032" rx="863.6" ry="863.6" id="_RqKOK.x3APA_pad-12"/><rect x="-1016" y="-863.6" width="2032" height="1727.2" id="_RqKOK.x3APA_pad-13"/><rect x="-1016" y="-863.6" width="2032" height="1727.2" rx="863.6" ry="863.6" id="_RqKOK.x3APA_pad-14"/><circle cx="0" cy="0" r="750" id="_RqKOK.x3APA_pad-15"/><circle cx="0" cy="0" r="300" id="_RqKOK.x3APA_pad-16"/><rect x="-863.6" y="-1016" width="1727.2" height="2032" id="_RqKOK.x3APA_pad-11"/><rect x="-863.6" y="-1016" width="1727.2" height="2032" rx="863.6" ry="863.6" id="_RqKOK.x3APA_pad-12"/><rect x="-1016" y="-863.6" width="2032" height="1727.2" id="_RqKOK.x3APA_pad-13"/><rect x="-1016" y="-863.6" width="2032" height="1727.2" rx="863.6" ry="863.6" id="_RqKOK.x3APA_pad-14"/><circle cx="0" cy="0" r="750" id="_RqKOK.x3APA_pad-15"/><circle cx="0" cy="0" r="300" id="_RqKOK.x3APA_pad-16"/><rect x="-863.6" y="-1016" width="1727.2" height="2032" id="WkxtVnrg.3Oq_pad-11"/><rect x="-863.6" y="-1016" width="1727.2" height="2032" rx="863.6" ry="863.6" id="WkxtVnrg.3Oq_pad-12"/><rect x="-1016" y="-863.6" width="2032" height="1727.2" id="WkxtVnrg.3Oq_pad-13"/><rect x="-1016" y="-863.6" width="2032" height="1727.2" rx="863.6" ry="863.6" id="WkxtVnrg.3Oq_pad-14"/><rect x="-863.6" y="-1016" width="1727.2" height="2032" id="_RqKOK.x3APA_pad-11"/><rect x="-863.6" y="-1016" width="1727.2" height="2032" rx="863.6" ry="863.6" id="_RqKOK.x3APA_pad-12"/><rect x="-1016" y="-863.6" width="2032" height="1727.2" id="_RqKOK.x3APA_pad-13"/><rect x="-1016" y="-863.6" width="2032" height="1727.2" rx="863.6" ry="863.6" id="_RqKOK.x3APA_pad-14"/><circle cx="0" cy="0" r="750" id="_RqKOK.x3APA_pad-15"/><circle cx="0" cy="0" r="300" id="_RqKOK.x3APA_pad-16"/><rect x="-863.6" y="-1016" width="1727.2" height="2032" id="_RqKOK.x3APA_pad-11"/><rect x="-863.6" y="-1016" width="1727.2" height="2032" rx="863.6" ry="863.6" id="_RqKOK.x3APA_pad-12"/><rect x="-1016" y="-863.6" width="2032" height="1727.2" id="_RqKOK.x3APA_pad-13"/><rect x="-1016" y="-863.6" width="2032" height="1727.2" rx="863.6" ry="863.6" id="_RqKOK.x3APA_pad-14"/><circle cx="0" cy="0" r="750" id="_RqKOK.x3APA_pad-15"/><circle cx="0" cy="0" r="300" id="_RqKOK.x3APA_pad-16"/><rect x="-863.6" y="-1016" width="1727.2" height="2032" id="WkxtVnrg.3Oq_pad-11"/><rect x="-863.6" y="-1016" width="1727.2" height="2032" rx="863.6" ry="863.6" id="WkxtVnrg.3Oq_pad-12"/><rect x="-1016" y="-863.6" width="2032" height="1727.2" id="WkxtVnrg.3Oq_pad-13"/><rect x="-1016" y="-863.6" width="2032" height="1727.2" rx="863.6" ry="863.6" id="WkxtVnrg.3Oq_pad-14"/><rect x="-863.6" y="-1016" width="1727.2" height="2032" id="_RqKOK.x3APA_pad-11"/><rect x="-863.6" y="-1016" width="1727.2" height="2032" rx="863.6" ry="863.6" id="_RqKOK.x3APA_pad-12"/><rect x="-1016" y="-863.6" width="2032" height="1727.2" id="_RqKOK.x3APA_pad-13"/><rect x="-1016" y="-863.6" width="2032" height="1727.2" rx="863.6" ry="863.6" id="_RqKOK.x3APA_pad-14"/><circle cx="0" cy="0" r="750" id="_RqKOK.x3APA_pad-15"/><circle cx="0" cy="0" r="300" id="_RqKOK.x3APA_pad-16"/><rect x="-863.6" y="-1016" width="1727.2" height="2032" id="_RqKOK.x3APA_pad-11"/><rect x="-863.6" y="-1016" width="1727.2" height="2032" rx="863.6" ry="863.6" id="_RqKOK.x3APA_pad-12"/><rect x="-1016" y="-863.6" width="2032" height="1727.2" id="_RqKOK.x3APA_pad-13"/><rect x="-1016" y="-863.6" width="2032" height="1727.2" rx="863.6" ry="863.6" id="_RqKOK.x3APA_pad-14"/><circle cx="0" cy="0" r="750" id="_RqKOK.x3APA_pad-15"/><circle cx="0" cy="0" r="300" id="_RqKOK.x3APA_pad-16"/><rect x="-863.6" y="-1016" width="1727.2" height="2032" id="WkxtVnrg.3Oq_pad-11"/><rect x="-863.6" y="-1016" width="1727.2" height="2032" rx="863.6" ry="863.6" id="WkxtVnrg.3Oq_pad-12"/><rect x="-1016" y="-863.6" width="2032" height="1727.2" id="WkxtVnrg.3Oq_pad-13"/><rect x="-1016" y="-863.6" width="2032" height="1727.2" rx="863.6" ry="863.6" id="WkxtVnrg.3Oq_pad-14"/><circle cx="0" cy="0" r="200" id="UhTnpMJkxXQK_pad-1"/><circle cx="0" cy="0" r="400" id="UhTnpMJkxXQK_pad-2"/><circle cx="0" cy="0" r="508" id="UhTnpMJkxXQK_pad-3"/><g id="pcb-stackup_bottom_cu"><use xlink:href="#_RqKOK.x3APA_pad-11" x="135359" y="-137850"/><use xlink:href="#_RqKOK.x3APA_pad-12" x="132819" y="-137850"/><use xlink:href="#_RqKOK.x3APA_pad-12" x="130279" y="-137850"/><use xlink:href="#_RqKOK.x3APA_pad-12" x="127739" y="-137850"/><use xlink:href="#_RqKOK.x3APA_pad-12" x="125199" y="-137850"/><use xlink:href="#_RqKOK.x3APA_pad-12" x="122659" y="-137850"/><use xlink:href="#_RqKOK.x3APA_pad-13" x="112395" y="-105410"/><use xlink:href="#_RqKOK.x3APA_pad-14" x="112395" y="-107950"/><use xlink:href="#_RqKOK.x3APA_pad-14" x="112395" y="-110490"/><use xlink:href="#_RqKOK.x3APA_pad-14" x="112395" y="-113030"/><use xlink:href="#_RqKOK.x3APA_pad-14" x="112395" y="-115570"/><use xlink:href="#_RqKOK.x3APA_pad-14" x="112395" y="-118110"/><use xlink:href="#_RqKOK.x3APA_pad-14" x="112395" y="-120650"/><use xlink:href="#_RqKOK.x3APA_pad-14" x="112395" y="-123190"/><use xlink:href="#_RqKOK.x3APA_pad-14" x="112395" y="-125730"/><use xlink:href="#_RqKOK.x3APA_pad-14" x="112395" y="-128270"/><use xlink:href="#_RqKOK.x3APA_pad-14" x="112395" y="-130810"/><use xlink:href="#_RqKOK.x3APA_pad-14" x="112395" y="-133350"/><use xlink:href="#_RqKOK.x3APA_pad-14" x="112395" y="-135890"/><use xlink:href="#_RqKOK.x3APA_pad-14" x="112395" y="-138430"/><use xlink:href="#_RqKOK.x3APA_pad-15" x="117359" y="-114600"/><use xlink:href="#_RqKOK.x3APA_pad-16" x="116859" y="-137350"/><use xlink:href="#_RqKOK.x3APA_pad-16" x="128905" y="-126111"/><use xlink:href="#_RqKOK.x3APA_pad-16" x="136779" y="-131445"/><use xlink:href="#_RqKOK.x3APA_pad-16" x="123571" y="-125349"/><use xlink:href="#_RqKOK.x3APA_pad-16" x="118359" y="-131350"/><use xlink:href="#_RqKOK.x3APA_pad-16" x="121018.011" y="-131600"/><use xlink:href="#_RqKOK.x3APA_pad-16" x="131699" y="-115189"/><use xlink:href="#_RqKOK.x3APA_pad-16" x="129859" y="-130350"/><use xlink:href="#_RqKOK.x3APA_pad-16" x="129109" y="-131100"/><use xlink:href="#_RqKOK.x3APA_pad-16" x="124390.696" y="-123513.306"/><use xlink:href="#_RqKOK.x3APA_pad-16" x="123571" y="-124079"/><use xlink:href="#_RqKOK.x3APA_pad-16" x="121793" y="-126111"/><use xlink:href="#_RqKOK.x3APA_pad-16" x="119327.895" y="-126457.122"/><use xlink:href="#_RqKOK.x3APA_pad-16" x="132521.259" y="-124437.741"/><use xlink:href="#_RqKOK.x3APA_pad-16" x="125859" y="-116600"/><path d="M 117359 -114600 118108.999 -115349.999 M 122090.001 -115349.999 137729.001 -130988.999 M 118108.999 -115349.999 122090.001 -115349.999 M 137729.001 -138529.601 136742.592 -139516.01 131792.61 -139516.01 M 137729.001 -130988.999 137729.001 -138529.601 M 131792.61 -139516.01 130279 -138002.4 130279 -137850" fill="none" stroke-width="500"/><path d="M 122659 -137850 117359 -137850 116859 -137350 M 129329.264 -126111 128905 -126111 M 136779 -131445 133477 -131445 129329.264 -127297.264 129329.264 -126111 M 112395 -120650 118872 -120650 123571 -125349 M 121018.011 -131600 118609 -131600 118359 -131350 M 112395 -113030 129540 -113030 131699 -115189 M 129859 -130774.264 129859 -130350 M 129859 -135577.6 129859 -130774.264 M 127739 -137697.6 129859 -135577.6 M 127739 -137850 127739 -137697.6 M 128809.001 -131399.999 129109 -131100 M 125199 -137850 125199 -135010 128809.001 -131399.999 M 116447.39 -115570 124090.697 -123213.307 124390.696 -123513.306 M 112395 -115570 116447.39 -115570 M 117602 -118110 123271.001 -123779.001 M 112395 -118110 117602 -118110 M 123271.001 -123779.001 123571 -124079 M 113661 -123190 112395 -123190 M 116985.775 -123190 113661 -123190 M 119906.775 -126111 116985.775 -123190 M 121793 -126111 119906.775 -126111 M 119327.895 -126457.122 113122.122 -126457.122 112395 -125730 M 125859 -116600 125859 -117775.482 132521.259 -124437.741" fill="none" stroke-width="250"/><path d="M 133483.623 -127995.201 133477.001 -129412.407 133477.058 -129412.704 133477 -129413 133481.764 -129436.951 133486.441 -129461.052 133486.608 -129461.304 133486.667 -129461.601 133500.262 -129481.948 133513.778 -129502.382 133514.028 -129502.551 133514.197 -129502.803 133534.526 -129516.386 133554.851 -129530.105 133555.148 -129530.165 133555.399 -129530.333 133579.339 -129535.094 133603.407 -129539.999 133603.704 -129539.941 133604 -129540 135028.423 -129540 136173.423 -130685 133791.803 -130685 130089.264 -126982.462 130089.264 -126111 130031.412 -125820.161 129866.665 -125573.599 129620.103 -125408.852 129501.704 -125385.301 129435.327 -125318.808 129091.799 -125176.162 128719.833 -125175.838 128376.057 -125317.883 128112.808 -125580.673 127970.162 -125924.201 127969.838 -126296.167 128111.883 -126639.943 128374.673 -126903.192 128569.264 -126983.994 128569.264 -127297.264 128627.116 -127588.103 128791.863 -127834.665 132939.599 -131982.402 133186.161 -132147.148 133477 -132205 136216.537 -132205 136248.673 -132237.192 136592.201 -132379.838 136844.001 -132380.057 136844.001 -136674.86 136760.927 -136474.302 136582.299 -136295.673 136348.91 -136199 135644.75 -136199 135486 -136357.75 135486 -137723 135506 -137723 135506 -137977 135486 -137977 135486 -137997 135232 -137997 135232 -137977 135212 -137977 135212 -137723 135232 -137723 135232 -136357.75 135073.25 -136199 134369.09 -136199 134135.701 -136295.673 133957.073 -136474.302 133893.5 -136627.78 133878.67 -136605.585 133392.489 -136280.729 132819 -136166.655 132245.511 -136280.729 131759.33 -136605.585 131549 -136920.366 131338.67 -136605.585 130852.489 -136280.729 130333.839 -136177.563 130396.401 -136115.001 130561.148 -135868.439 130619 -135577.6 130619 -130912.463 130651.192 -130880.327 130793.838 -130536.799 130794.162 -130164.833 130652.117 -129821.057 130389.327 -129557.808 130045.799 -129415.162 129673.833 -129414.838 129330.057 -129556.883 129066.808 -129819.673 128924.162 -130163.201 128924.161 -130164.838 128923.833 -130164.838 128580.057 -130306.883 128316.808 -130569.673 128174.162 -130913.201 128174.121 -130960.077 124661.599 -134472.599 124496.852 -134719.161 124439 -135010 124439 -136405.352 124139.33 -136605.585 123929 -136920.366 123718.67 -136605.585 123232.489 -136280.729 122659 -136166.655 122085.511 -136280.729 121599.33 -136605.585 121275.654 -137090 117763.242 -137090 117652.117 -136821.057 117389.327 -136557.808 117045.799 -136415.162 116673.833 -136414.838 116330.057 -136556.883 116066.808 -136819.673 115924.162 -137163.201 115923.838 -137535.167 116065.883 -137878.943 116328.673 -138142.192 116672.201 -138284.838 116719.077 -138284.879 116821.599 -138387.401 117068.161 -138552.148 117359 -138610 121275.654 -138610 121599.33 -139094.415 122085.511 -139419.271 122659 -139533.345 123232.489 -139419.271 123718.67 -139094.415 123929 -138779.634 124139.33 -139094.415 124625.511 -139419.271 125199 -139533.345 125772.489 -139419.271 126258.67 -139094.415 126469 -138779.634 126679.33 -139094.415 127165.511 -139419.271 127739 -139533.345 128312.489 -139419.271 128798.67 -139094.415 129009 -138779.634 129219.33 -139094.415 129705.511 -139419.271 130279 -139533.345 130512.016 -139486.995 131166.818 -140141.797 131166.82 -140141.8 131381.135 -140285 110889.801 -140285 110885.26 -139092.583 111150.585 -139489.67 111636.766 -139814.526 112210.255 -139928.6 112579.745 -139928.6 113153.234 -139814.526 113639.415 -139489.67 113964.271 -139003.489 114078.345 -138430 113964.271 -137856.511 113639.415 -137370.33 113324.634 -137160 113639.415 -136949.67 113964.271 -136463.489 114078.345 -135890 113964.271 -135316.511 113639.415 -134830.33 113324.634 -134620 113639.415 -134409.67 113964.271 -133923.489 114078.345 -133350 113964.271 -132776.511 113639.415 -132290.33 113324.634 -132080 113639.415 -131869.67 113964.271 -131383.489 114078.345 -130810 114027.997 -130556.883 117830.057 -130556.883 117566.808 -130819.673 117424.162 -131163.201 117423.838 -131535.167 117565.883 -131878.943 117828.673 -132142.192 118172.201 -132284.838 118292.41 -132284.943 118318.16 -132302.148 118609 -132360 120455.548 -132360 120487.684 -132392.192 120831.212 -132534.838 121203.178 -132535.162 121546.954 -132393.117 121810.203 -132130.327 121952.849 -131786.799 121953.173 -131414.833 121811.128 -131071.057 121548.338 -130807.808 121204.81 -130665.162 120832.844 -130664.838 120489.068 -130806.883 120455.893 -130840 119159.944 -130840 119152.117 -130821.057 118889.327 -130557.808 118545.799 -130415.162 118173.833 -130414.838 117830.057 -130556.883 114027.997 -130556.883 113964.271 -130236.511 113639.415 -129750.33 113324.634 -129540 113639.415 -129329.67 113964.271 -128843.489 114078.345 -128270 113964.271 -127696.511 113643.953 -127217.122 118765.432 -127217.122 118797.568 -127249.314 119141.096 -127391.96 119513.062 -127392.284 119856.838 -127250.239 120120.087 -126987.449 120168.441 -126871 121230.537 -126871 121262.673 -126903.192 121606.201 -127045.838 121978.167 -127046.162 122321.943 -126904.117 122585.192 -126641.327 122727.838 -126297.799 122728.162 -125925.833 122586.117 -125582.057 122323.327 -125318.808 121979.799 -125176.162 121607.833 -125175.838 121264.057 -125317.883 121230.882 -125351 120221.577 -125351 117523.176 -122652.599 117276.614 -122487.852 116985.775 -122430 113839.648 -122430 113639.415 -122130.33 113324.634 -121920 113639.415 -121709.67 113839.648 -121410 118557.198 -121410 122635.878 -125488.68 122635.838 -125534.167 122777.883 -125877.943 123040.673 -126141.192 123384.201 -126283.838 123756.167 -126284.162 124099.943 -126142.117 124363.192 -125879.327 124505.838 -125535.799 124506.162 -125163.833 124364.117 -124820.057 124258.29 -124714.046 124363.192 -124609.327 124430.04 -124448.341 124575.863 -124448.468 124919.639 -124306.423 125182.888 -124043.633 125325.534 -123700.105 125325.858 -123328.139 125183.813 -122984.363 124921.023 -122721.114 124577.495 -122578.468 124530.619 -122578.427 118187.191 -116234.999 121723.421 -116234.999 133483.623 -127995.201 133483.623 -127995.201"/><path d="M 133483.623 -127995.201 133477.001 -129412.407 133477.058 -129412.704 133477 -129413 133481.764 -129436.951 133486.441 -129461.052 133486.608 -129461.304 133486.667 -129461.601 133500.262 -129481.948 133513.778 -129502.382 133514.028 -129502.551 133514.197 -129502.803 133534.526 -129516.386 133554.851 -129530.105 133555.148 -129530.165 133555.399 -129530.333 133579.339 -129535.094 133603.407 -129539.999 133603.704 -129539.941 133604 -129540 135028.423 -129540 136173.423 -130685 133791.803 -130685 130089.264 -126982.462 130089.264 -126111 130031.412 -125820.161 129866.665 -125573.599 129620.103 -125408.852 129501.704 -125385.301 129435.327 -125318.808 129091.799 -125176.162 128719.833 -125175.838 128376.057 -125317.883 128112.808 -125580.673 127970.162 -125924.201 127969.838 -126296.167 128111.883 -126639.943 128374.673 -126903.192 128569.264 -126983.994 128569.264 -127297.264 128627.116 -127588.103 128791.863 -127834.665 132939.599 -131982.402 133186.161 -132147.148 133477 -132205 136216.537 -132205 136248.673 -132237.192 136592.201 -132379.838 136844.001 -132380.057 136844.001 -136674.86 136760.927 -136474.302 136582.299 -136295.673 136348.91 -136199 135644.75 -136199 135486 -136357.75 135486 -137723 135506 -137723 135506 -137977 135486 -137977 135486 -137997 135232 -137997 135232 -137977 135212 -137977 135212 -137723 135232 -137723 135232 -136357.75 135073.25 -136199 134369.09 -136199 134135.701 -136295.673 133957.073 -136474.302 133893.5 -136627.78 133878.67 -136605.585 133392.489 -136280.729 132819 -136166.655 132245.511 -136280.729 131759.33 -136605.585 131549 -136920.366 131338.67 -136605.585 130852.489 -136280.729 130333.839 -136177.563 130396.401 -136115.001 130561.148 -135868.439 130619 -135577.6 130619 -130912.463 130651.192 -130880.327 130793.838 -130536.799 130794.162 -130164.833 130652.117 -129821.057 130389.327 -129557.808 130045.799 -129415.162 129673.833 -129414.838 129330.057 -129556.883 129066.808 -129819.673 128924.162 -130163.201 128924.161 -130164.838 128923.833 -130164.838 128580.057 -130306.883 128316.808 -130569.673 128174.162 -130913.201 128174.121 -130960.077 124661.599 -134472.599 124496.852 -134719.161 124439 -135010 124439 -136405.352 124139.33 -136605.585 123929 -136920.366 123718.67 -136605.585 123232.489 -136280.729 122659 -136166.655 122085.511 -136280.729 121599.33 -136605.585 121275.654 -137090 117763.242 -137090 117652.117 -136821.057 117389.327 -136557.808 117045.799 -136415.162 116673.833 -136414.838 116330.057 -136556.883 116066.808 -136819.673 115924.162 -137163.201 115923.838 -137535.167 116065.883 -137878.943 116328.673 -138142.192 116672.201 -138284.838 116719.077 -138284.879 116821.599 -138387.401 117068.161 -138552.148 117359 -138610 121275.654 -138610 121599.33 -139094.415 122085.511 -139419.271 122659 -139533.345 123232.489 -139419.271 123718.67 -139094.415 123929 -138779.634 124139.33 -139094.415 124625.511 -139419.271 125199 -139533.345 125772.489 -139419.271 126258.67 -139094.415 126469 -138779.634 126679.33 -139094.415 127165.511 -139419.271 127739 -139533.345 128312.489 -139419.271 128798.67 -139094.415 129009 -138779.634 129219.33 -139094.415 129705.511 -139419.271 130279 -139533.345 130512.016 -139486.995 131166.818 -140141.797 131166.82 -140141.8 131381.135 -140285 110889.801 -140285 110885.26 -139092.583 111150.585 -139489.67 111636.766 -139814.526 112210.255 -139928.6 112579.745 -139928.6 113153.234 -139814.526 113639.415 -139489.67 113964.271 -139003.489 114078.345 -138430 113964.271 -137856.511 113639.415 -137370.33 113324.634 -137160 113639.415 -136949.67 113964.271 -136463.489 114078.345 -135890 113964.271 -135316.511 113639.415 -134830.33 113324.634 -134620 113639.415 -134409.67 113964.271 -133923.489 114078.345 -133350 113964.271 -132776.511 113639.415 -132290.33 113324.634 -132080 113639.415 -131869.67 113964.271 -131383.489 114078.345 -130810 114027.997 -130556.883 117830.057 -130556.883 117566.808 -130819.673 117424.162 -131163.201 117423.838 -131535.167 117565.883 -131878.943 117828.673 -132142.192 118172.201 -132284.838 118292.41 -132284.943 118318.16 -132302.148 118609 -132360 120455.548 -132360 120487.684 -132392.192 120831.212 -132534.838 121203.178 -132535.162 121546.954 -132393.117 121810.203 -132130.327 121952.849 -131786.799 121953.173 -131414.833 121811.128 -131071.057 121548.338 -130807.808 121204.81 -130665.162 120832.844 -130664.838 120489.068 -130806.883 120455.893 -130840 119159.944 -130840 119152.117 -130821.057 118889.327 -130557.808 118545.799 -130415.162 118173.833 -130414.838 117830.057 -130556.883 114027.997 -130556.883 113964.271 -130236.511 113639.415 -129750.33 113324.634 -129540 113639.415 -129329.67 113964.271 -128843.489 114078.345 -128270 113964.271 -127696.511 113643.953 -127217.122 118765.432 -127217.122 118797.568 -127249.314 119141.096 -127391.96 119513.062 -127392.284 119856.838 -127250.239 120120.087 -126987.449 120168.441 -126871 121230.537 -126871 121262.673 -126903.192 121606.201 -127045.838 121978.167 -127046.162 122321.943 -126904.117 122585.192 -126641.327 122727.838 -126297.799 122728.162 -125925.833 122586.117 -125582.057 122323.327 -125318.808 121979.799 -125176.162 121607.833 -125175.838 121264.057 -125317.883 121230.882 -125351 120221.577 -125351 117523.176 -122652.599 117276.614 -122487.852 116985.775 -122430 113839.648 -122430 113639.415 -122130.33 113324.634 -121920 113639.415 -121709.67 113839.648 -121410 118557.198 -121410 122635.878 -125488.68 122635.838 -125534.167 122777.883 -125877.943 123040.673 -126141.192 123384.201 -126283.838 123756.167 -126284.162 124099.943 -126142.117 124363.192 -125879.327 124505.838 -125535.799 124506.162 -125163.833 124364.117 -124820.057 124258.29 -124714.046 124363.192 -124609.327 124430.04 -124448.341 124575.863 -124448.468 124919.639 -124306.423 125182.888 -124043.633 125325.534 -123700.105 125325.858 -123328.139 125183.813 -122984.363 124921.023 -122721.114 124577.495 -122578.468 124530.619 -122578.427 118187.191 -116234.999 121723.421 -116234.999 133483.623 -127995.201" fill="none" stroke-width="254"/><path d="M 133495.266 -125503.685 133136.396 -125144.814 133313.451 -124968.068 133456.097 -124624.54 133456.421 -124252.574 133314.376 -123908.798 133051.586 -123645.549 132708.058 -123502.903 132661.182 -123502.862 126619 -117460.68 126619 -117162.463 126651.192 -117130.327 126793.838 -116786.799 126794.162 -116414.833 126652.117 -116071.057 126389.327 -115807.808 126045.799 -115665.162 125673.833 -115664.838 125330.057 -115806.883 125066.808 -116069.673 124924.162 -116413.201 124923.838 -116785.167 125027.408 -117035.826 122715.791 -114724.209 122617.709 -114658.673 122428.676 -114532.366 122372.485 -114521.189 122090.001 -114464.998 122089.996 -114464.999 118744.118 -114464.999 118744.24 -114325.715 118533.831 -113816.485 118507.392 -113790 129225.198 -113790 130763.878 -115328.68 130763.838 -115374.167 130905.883 -115717.943 131168.673 -115981.192 131512.201 -116123.838 131884.167 -116124.162 132227.943 -115982.117 132491.192 -115719.327 132633.838 -115375.799 132634.162 -115003.833 132492.117 -114660.057 132229.327 -114396.808 131885.799 -114254.162 131838.923 -114254.121 130077.401 -112492.599 129830.839 -112327.852 129540 -112270 113839.648 -112270 113639.415 -111970.33 113324.634 -111760 113639.415 -111549.67 113964.271 -111063.489 114078.345 -110490 113964.271 -109916.511 113639.415 -109430.33 113324.634 -109220 113639.415 -109009.67 113964.271 -108523.489 114078.345 -107950 113964.271 -107376.511 113639.415 -106890.33 113617.22 -106875.5 113770.698 -106811.927 113949.327 -106633.299 114046 -106399.91 114046 -105695.75 113887.25 -105537 112522 -105537 112522 -105557 112268 -105557 112268 -105537 112248 -105537 112248 -105283 112268 -105283 112268 -104070.15 112109.25 -103911.4 112680.75 -103911.4 112522 -104070.15 112522 -105283 113887.25 -105283 114046 -105124.25 114046 -104420.09 113949.327 -104186.701 113770.698 -104008.073 113537.309 -103911.4 112680.75 -103911.4 112109.25 -103911.4 111252.691 -103911.4 111019.302 -104008.073 110840.673 -104186.701 110753.133 -104398.041 110745.086 -102285 133603.765 -102285 133495.266 -125503.685 133495.266 -125503.685"/><path d="M 133495.266 -125503.685 133136.396 -125144.814 133313.451 -124968.068 133456.097 -124624.54 133456.421 -124252.574 133314.376 -123908.798 133051.586 -123645.549 132708.058 -123502.903 132661.182 -123502.862 126619 -117460.68 126619 -117162.463 126651.192 -117130.327 126793.838 -116786.799 126794.162 -116414.833 126652.117 -116071.057 126389.327 -115807.808 126045.799 -115665.162 125673.833 -115664.838 125330.057 -115806.883 125066.808 -116069.673 124924.162 -116413.201 124923.838 -116785.167 125027.408 -117035.826 122715.791 -114724.209 122617.709 -114658.673 122428.676 -114532.366 122372.485 -114521.189 122090.001 -114464.998 122089.996 -114464.999 118744.118 -114464.999 118744.24 -114325.715 118533.831 -113816.485 118507.392 -113790 129225.198 -113790 130763.878 -115328.68 130763.838 -115374.167 130905.883 -115717.943 131168.673 -115981.192 131512.201 -116123.838 131884.167 -116124.162 132227.943 -115982.117 132491.192 -115719.327 132633.838 -115375.799 132634.162 -115003.833 132492.117 -114660.057 132229.327 -114396.808 131885.799 -114254.162 131838.923 -114254.121 130077.401 -112492.599 129830.839 -112327.852 129540 -112270 113839.648 -112270 113639.415 -111970.33 113324.634 -111760 113639.415 -111549.67 113964.271 -111063.489 114078.345 -110490 113964.271 -109916.511 113639.415 -109430.33 113324.634 -109220 113639.415 -109009.67 113964.271 -108523.489 114078.345 -107950 113964.271 -107376.511 113639.415 -106890.33 113617.22 -106875.5 113770.698 -106811.927 113949.327 -106633.299 114046 -106399.91 114046 -105695.75 113887.25 -105537 112522 -105537 112522 -105557 112268 -105557 112268 -105537 112248 -105537 112248 -105283 112268 -105283 112268 -104070.15 112109.25 -103911.4 112680.75 -103911.4 112522 -104070.15 112522 -105283 113887.25 -105283 114046 -105124.25 114046 -104420.09 113949.327 -104186.701 113770.698 -104008.073 113537.309 -103911.4 112680.75 -103911.4 112109.25 -103911.4 111252.691 -103911.4 111019.302 -104008.073 110840.673 -104186.701 110753.133 -104398.041 110745.086 -102285 133603.765 -102285 133495.266 -125503.685" fill="none" stroke-width="254"/></g><g id="pcb-stackup_bottom_sm"><use xlink:href="#WkxtVnrg.3Oq_pad-11" x="135359" y="-137850"/><use xlink:href="#WkxtVnrg.3Oq_pad-12" x="132819" y="-137850"/><use xlink:href="#WkxtVnrg.3Oq_pad-12" x="130279" y="-137850"/><use xlink:href="#WkxtVnrg.3Oq_pad-12" x="127739" y="-137850"/><use xlink:href="#WkxtVnrg.3Oq_pad-12" x="125199" y="-137850"/><use xlink:href="#WkxtVnrg.3Oq_pad-12" x="122659" y="-137850"/><use xlink:href="#WkxtVnrg.3Oq_pad-13" x="112395" y="-105410"/><use xlink:href="#WkxtVnrg.3Oq_pad-14" x="112395" y="-107950"/><use xlink:href="#WkxtVnrg.3Oq_pad-14" x="112395" y="-110490"/><use xlink:href="#WkxtVnrg.3Oq_pad-14" x="112395" y="-113030"/><use xlink:href="#WkxtVnrg.3Oq_pad-14" x="112395" y="-115570"/><use xlink:href="#WkxtVnrg.3Oq_pad-14" x="112395" y="-118110"/><use xlink:href="#WkxtVnrg.3Oq_pad-14" x="112395" y="-120650"/><use xlink:href="#WkxtVnrg.3Oq_pad-14" x="112395" y="-123190"/><use xlink:href="#WkxtVnrg.3Oq_pad-14" x="112395" y="-125730"/><use xlink:href="#WkxtVnrg.3Oq_pad-14" x="112395" y="-128270"/><use xlink:href="#WkxtVnrg.3Oq_pad-14" x="112395" y="-130810"/><use xlink:href="#WkxtVnrg.3Oq_pad-14" x="112395" y="-133350"/><use xlink:href="#WkxtVnrg.3Oq_pad-14" x="112395" y="-135890"/><use xlink:href="#WkxtVnrg.3Oq_pad-14" x="112395" y="-138430"/></g><g id="pcb-stackup_bottom_ss"><path d="M 139195.5 -103457.907 139406.23 -103585.675 M 139494.45 -105165.43 139417.03 -105062.23 139334.78 -104974.83 M 138771.46 -104809.53 138737.45 -104809.9 M 139132.03 -104852.6 138999.6 -104820.48 M 138838.52 -104809.53 138771.46 -104809.53 M 138999.6 -104820.48 138838.52 -104809.53 M 139241.78 -104904.53 139132.03 -104852.6 M 139334.78 -104974.83 139241.78 -104904.53 M 138544.31 -104826.18 138535.13 -104825.21 M 138360.66 -104955.96 138309.34 -105010.21 M 138396.09 -104889.44 138360.66 -104955.96 M 138412.36 -104813.71 138396.09 -104889.44 M 138508.88 -104822.6 138467.32 -104818.69 138412.36 -104813.71 M 138535.13 -104825.21 138508.88 -104822.6 M 137467.21 -106679.32 138544.31 -106679.32 M 138544.31 -104826.18 138544.31 -104826.18 M 138244.99 -105292.87 137578.32 -105959.54 M 138544.31 -106492.85 138544.31 -104826.18 M 138309.34 -105010.21 138244.99 -105049.11 138244.99 -105292.87 M 137467.21 -106492.85 138544.31 -106492.85 M 139499.27 -105665.1 139510.93 -105585.19 M 139521.14 -105773.23 139499.27 -105665.1 M 137980.67 -104829.05 137996.61 -104858.46 M 138283.72 -104858.46 138299.61 -104829.05 M 138072.89 -104921.07 138105.39 -104931.17 M 138175.16 -104931.17 138207.66 -104921.07 138237.02 -104905.18 M 138262.61 -104884.07 138283.72 -104858.46 M 138237.02 -104905.18 138262.61 -104884.07 M 135076.475 -108158.11 135113.15 -108216.26 M 134983.539 -108900.35 134855.771 -108689.62 M 135130.403 -109097.01 134983.539 -108900.35 M 135295.171 -109278.33 135130.403 -109097.01 M 135169.519 -108255.54 135234.243 -108269.71 M 135673.15 -109589.96 135476.486 -109443.1 M 136107.45 -109825.1 135883.87 -109717.72 M 138244.99 -107879.29 137578.32 -107212.62 M 135065.299 -108092.68 135076.475 -108158.11 M 134548.1 -107469.3 134548.1 -105706.39 M 134599.858 -107985.68 134561.284 -107731.35 M 134662.683 -108231.03 134599.858 -107985.68 M 134855.771 -108689.62 134748.404 -108466.04 M 134561.284 -107731.35 134548.1 -107469.3 M 134748.404 -108466.04 134662.683 -108231.03 M 137200.56 -107879.29 137000.52 -107679.32 M 135299.565 -108258.53 135357.617 -108221.79 M 135113.15 -108216.26 135169.519 -108255.54 M 135411.11 -108102 135838.19 -107694.01 M 135396.679 -108166.08 135411.11 -108102 M 135357.617 -108221.79 135396.679 -108166.08 M 135118.737 -107971.47 135079.458 -108027.85 135065.299 -108092.68 M 135883.87 -109717.72 135673.15 -109589.96 M 134548.1 -105706.39 134561.284 -105444.29 M 135476.486 -109443.1 135295.171 -109278.33 M 135234.243 -108269.71 135299.565 -108258.53 M 138971.93 -103350.54 139195.5 -103457.907 M 137975.13 -103150.29 138237.23 -103163.419 M 138247.92 -104036.032 138284.49 -103981.344 M 138491.57 -103201.994 138736.91 -103264.819 M 138237.23 -103163.419 138491.57 -103201.994 M 138736.91 -103264.819 138971.93 -103350.54 M 138297.88 -103914.504 138294.41 -103879.565 M 138284.49 -103981.344 138297.88 -103914.504 M 138294.41 -103879.565 138284.27 -103847.068 138268.31 -103817.662 M 134855.771 -104486.01 134983.539 -104275.29 135130.403 -104078.621 M 134748.404 -104709.6 134855.771 -104486.01 M 136587.81 -103201.994 136842.16 -103163.419 M 134599.858 -105189.94 134662.683 -104944.61 134748.404 -104709.6 M 136342.48 -103264.819 136587.81 -103201.994 M 138295.5 -104685.33 138274.93 -104653.11 M 138308.63 -104721.85 138295.5 -104685.33 M 138247.92 -104626.3 138247.92 -104036.032 M 138274.93 -104653.11 138247.92 -104626.3 M 138313.18 -104761.72 138308.63 -104721.85 M 138299.61 -104829.05 138309.71 -104796.61 M 138313.18 -104761.72 138313.18 -104761.72 M 134561.284 -105444.29 134599.858 -105189.94 M 137104.2 -103150.29 137975.13 -103150.29 M 136842.16 -103163.419 137104.2 -103150.29 M 136575.34 -103807.246 136540.45 -103810.718 M 136402.04 -103980.476 136407.36 -104022.957 136422.28 -104061.586 M 136107.45 -103350.54 136342.48 -103264.819 M 136610.23 -103810.718 136575.34 -103807.246 M 135295.171 -103897.307 135476.486 -103732.539 M 135883.87 -103457.907 136107.45 -103350.54 M 135130.403 -104078.621 135295.171 -103897.307 M 135673.15 -103585.675 135883.87 -103457.907 M 135476.486 -103732.539 135673.15 -103585.675 M 135065.299 -105079.39 135079.458 -105144.22 M 135231.639 -105248.33 135272.221 -105245.07 M 135076.475 -105013.96 135065.299 -105079.39 M 135113.15 -104955.85 135076.475 -105013.96 M 135153.135 -105226.19 135191.329 -105242.08 M 135118.737 -105200.64 135153.135 -105226.19 M 135191.329 -105242.08 135231.639 -105248.33 M 135079.458 -105144.22 135118.737 -105200.64 M 139512.95 -107734.93 139486.42 -107670.21 139477.03 -107598.43 139498.89 -107490.25 M 138544.31 -106679.32 138544.31 -108345.98 M 138737.45 -104809.9 138737.45 -108365.79 M 138309.71 -104796.61 138313.18 -104761.72 M 136217.86 -105017.32 136123.89 -105123 M 136323.43 -104936.64 136322.09 -104937.29 M 136123.89 -105123 136039.79 -105249.08 M 136419.91 -105069.01 136379.32 -105031.8 136346.77 -104987.26 136323.43 -104936.64 M 136322.09 -104937.29 136217.86 -105017.32 M 137133.88 -105959.54 136833.85 -105659.51 M 137244.99 -106181.76 136800.54 -106181.76 136800.54 -105959.54 137133.88 -105959.54 M 137244.99 -106181.76 137244.99 -106181.76 M 137911.66 -105959.54 137911.66 -106181.76 M 137244.99 -106492.85 137244.99 -106181.76 M 137467.21 -106181.76 137467.21 -106492.85 M 137911.66 -106181.76 137467.21 -106181.76 M 137578.32 -105959.54 137911.66 -105959.54 M 137902.16 -104947.76 137867.71 -104875.33 M 137356.1 -105848.43 138022.77 -105181.76 M 138022.77 -105048.78 138022.77 -105048.78 M 137000.52 -105492.85 137356.1 -105848.43 M 138022.77 -105181.76 138022.77 -105048.78 137955.06 -105006.73 137902.16 -104947.76 M 136760.61 -105064.51 136689.43 -105105.69 M 136852.79 -104930.83 136816.38 -105004.89 136760.61 -105064.51 M 136467.21 -105097.72 136419.91 -105069.01 M 136689.43 -105105.69 136689.43 -105181.76 M 136467.21 -105292.87 136467.21 -105097.72 M 136689.43 -105181.76 136800.54 -105292.87 137200.56 -105292.87 137000.52 -105492.85 M 136645 -105848.43 136645 -105470.65 136467.21 -105292.87 M 136833.85 -105659.51 136645 -105848.43 M 137357.84 -104768.89 137104.03 -104776.91 136861.31 -104796.35 M 137855.77 -104777.25 137612.02 -104769.8 M 137855.39 -104793.19 137855.77 -104777.25 M 137612.02 -104769.8 137357.84 -104768.89 M 136417.35 -104827.69 136420.88 -104862.58 M 136861.31 -104796.35 136865.81 -104846.36 136852.79 -104930.83 M 138002.31 -103792 137981.21 -103817.662 M 138089.77 -103744.746 138057.32 -103754.891 M 138027.92 -103770.841 138002.31 -103792 M 138057.32 -103754.891 138027.92 -103770.841 M 137965.31 -103847.068 137955.23 -103879.565 M 137981.21 -103817.662 137965.31 -103847.068 M 138268.31 -103817.662 138247.16 -103792 138221.49 -103770.841 M 138159.59 -103744.746 138124.66 -103741.273 M 138221.49 -103770.841 138192.09 -103754.891 138159.59 -103744.746 M 138124.66 -103741.273 138089.77 -103744.746 M 138043.43 -104905.18 138072.89 -104921.07 M 138105.39 -104931.17 138140.28 -104934.69 138175.16 -104931.17 M 138017.77 -104884.07 138043.43 -104905.18 M 137971.17 -104724.18 137966.99 -104761.72 M 137996.61 -104858.46 138017.77 -104884.07 M 137970.52 -104796.61 137980.67 -104829.05 M 137867.71 -104875.33 137855.39 -104793.19 M 137966.99 -104761.72 137970.52 -104796.61 M 138001.45 -104658.6 137982.95 -104689.51 M 138025.7 -104632.22 138001.45 -104658.6 M 138025.7 -104056.215 138025.7 -104632.22 M 137982.95 -104689.51 137971.17 -104724.18 M 137995.31 -104029.087 138025.7 -104056.215 M 137957 -103956.984 137971.93 -103995.614 M 137951.7 -103914.504 137957 -103956.984 M 137971.93 -103995.614 137995.31 -104029.087 M 137955.23 -103879.565 137951.7 -103914.504 M 135688.51 -105643.03 135700.39 -105713.55 M 136034.38 -105645.79 136034.38 -105645.79 M 136023.2 -105711.22 136034.38 -105645.79 M 135986.42 -105769.37 136023.2 -105711.22 M 135700.39 -105713.55 135741.62 -105774.97 M 136034.38 -105645.79 136020.21 -105580.96 M 136132.46 -105646.33 136110.6 -105754.83 M 135741.62 -105774.97 135799.78 -105811.64 M 135962.21 -105903.22 135853.66 -105925.14 M 135799.78 -105811.64 135865.21 -105822.82 M 135776.94 -105914.4 135746.99 -106029.53 M 135865.21 -105822.82 135930.04 -105808.65 M 135746.99 -106029.53 135721.66 -106137.43 M 135980.88 -105524.58 135913.44 -105484.5 M 136085.81 -105491.54 136120.2 -105564.08 M 135965.14 -105390.42 136032.91 -105432.42 M 135913.44 -105484.5 135837.81 -105478.1 M 136032.91 -105432.42 136085.81 -105491.54 M 136020.21 -105580.96 135980.88 -105524.58 M 136110.6 -105754.83 136050.81 -105843.43 M 135853.66 -105925.14 135776.94 -105914.4 M 135930.04 -105808.65 135986.42 -105769.37 M 136050.81 -105843.43 135962.21 -105903.22 M 135683.9 -106321.51 135671.2 -106392.69 M 135657.15 -106480.86 135655.41 -106492.85 M 135721.66 -106137.43 135700.66 -106235.64 M 135662.3 -106446.68 135657.15 -106480.86 M 135671.2 -106392.69 135662.3 -106446.68 M 135700.66 -106235.64 135683.9 -106321.51 M 136672.07 -103836.814 136642.73 -103820.864 M 136718.78 -103883.634 136697.68 -103857.972 M 136734.68 -103913.04 136718.78 -103883.634 M 136697.68 -103857.972 136672.07 -103836.814 M 136642.73 -103820.864 136610.23 -103810.718 M 136748.24 -103980.476 136744.77 -103945.537 136734.68 -103913.04 M 136734.84 -104047.316 136748.24 -103980.476 M 136725.24 -104719.08 136698.23 -104692.28 M 136433.29 -104755.48 136421.53 -104790.15 M 136745.85 -104751.3 136725.24 -104719.08 M 136421.53 -104790.15 136417.35 -104827.69 M 136758.99 -104787.82 136745.85 -104751.3 M 136476 -104698.19 136451.79 -104724.57 M 136431.73 -103883.634 136415.72 -103913.04 M 136540.45 -103810.718 136507.95 -103820.864 M 136405.57 -103945.537 136402.04 -103980.476 M 136507.95 -103820.864 136478.54 -103836.814 136452.89 -103857.972 136431.73 -103883.634 M 136415.72 -103913.04 136405.57 -103945.537 M 136476 -104122.187 136476 -104698.19 M 136451.79 -104724.57 136433.29 -104755.48 M 136422.28 -104061.586 136445.61 -104095.059 136476 -104122.187 M 136698.23 -104692.28 136698.23 -104102.004 136734.84 -104047.316 M 136110.6 -107417.28 136050.81 -107328.68 M 136645 -107323.73 136645 -107701.55 M 136800.54 -107212.62 137133.88 -107212.62 M 136833.85 -107512.65 136645 -107323.73 M 136645 -107701.55 136467.21 -107879.29 M 135272.547 -107927.04 135231.911 -107923.68 M 135688.51 -107529.08 135272.547 -107927.04 M 135191.492 -107929.91 135153.189 -107945.8 M 135700.44 -107458.55 135688.51 -107529.08 M 135231.911 -107923.68 135191.492 -107929.91 M 135741.62 -107397.14 135700.44 -107458.55 M 135153.189 -107945.8 135118.737 -107971.47 M 136034.38 -107526.32 136034.38 -107526.32 M 136132.46 -107525.83 136110.6 -107417.28 M 136034.38 -107526.32 136023.2 -107460.83 M 136120.2 -107608.03 136132.46 -107525.83 M 136020.21 -107591.15 136034.38 -107526.32 M 136085.81 -107680.57 136120.2 -107608.03 M 135913.61 -107687.51 135980.88 -107647.53 136020.21 -107591.15 M 136032.91 -107739.71 136085.81 -107680.57 M 135838.19 -107694.01 135913.61 -107687.51 M 137356.1 -107323.73 138022.77 -107990.4 M 137578.32 -107212.62 137911.66 -107212.62 137911.66 -106990.4 137467.21 -106990.4 M 135930.04 -107363.4 135865.21 -107349.23 M 136023.2 -107460.83 135986.42 -107402.73 135930.04 -107363.4 M 135799.78 -107360.42 135741.62 -107397.14 M 135865.21 -107349.23 135799.78 -107360.42 M 137133.88 -107212.62 136833.85 -107512.65 M 137244.99 -106990.4 136800.54 -106990.4 M 137244.99 -106990.4 137244.99 -106990.4 M 137467.21 -106990.4 137467.21 -106679.32 M 137000.52 -107679.32 137356.1 -107323.73 M 137244.99 -106679.32 137244.99 -106990.46 M 136800.54 -106990.4 136800.54 -107212.62 M 135655.41 -106679.32 137244.99 -106679.32 M 137244.99 -106990.46 137244.99 -106990.4 M 135655.41 -106492.85 137244.99 -106492.85 M 136446.97 -104924.43 136468.13 -104950.04 M 136493.79 -104971.15 136523.2 -104987.04 M 136420.88 -104862.58 136431.02 -104895.03 M 136555.7 -104997.14 136590.59 -105000.67 M 136523.2 -104987.04 136555.7 -104997.14 M 136468.13 -104950.04 136493.79 -104971.15 M 136431.02 -104895.03 136446.97 -104924.43 M 136763.54 -104827.69 136763.54 -104827.69 M 136760.07 -104862.58 136763.54 -104827.69 M 136749.98 -104895.03 136760.07 -104862.58 M 136763.54 -104827.69 136758.99 -104787.82 M 136625.52 -104997.14 136657.96 -104987.04 M 136590.59 -105000.67 136625.52 -104997.14 M 136712.98 -104950.04 136734.09 -104924.43 M 136687.36 -104971.15 136712.98 -104950.04 M 136734.09 -104924.43 136749.98 -104895.03 M 136657.96 -104987.04 136687.36 -104971.15 M 135234.243 -104902.35 135169.519 -104916.51 135113.15 -104955.85 M 135396.679 -105005.97 135357.617 -104950.32 135299.565 -104913.53 135234.243 -104902.35 M 135411.11 -105070.11 135396.679 -105005.97 M 135272.221 -105245.07 135688.51 -105643.03 M 135837.81 -105478.1 135411.11 -105070.11 M 136039.79 -105249.08 135965.14 -105390.42 M 136120.2 -105564.08 136132.46 -105646.33 M 135700.66 -106936.53 135683.9 -106850.6 135671.2 -106779.41 135662.3 -106725.43 M 135657.15 -106691.25 135655.41 -106679.32 M 135662.3 -106725.43 135657.15 -106691.25 M 135721.66 -107034.68 135700.66 -106936.53 M 135962.21 -107268.89 135853.66 -107247.03 M 136050.81 -107328.68 135962.21 -107268.89 M 135853.66 -107247.03 135776.94 -107257.82 M 135746.99 -107142.64 135721.66 -107034.68 M 135776.94 -107257.82 135746.99 -107142.64 M 139110.06 -108328.46 139210.48 -108283.11 M 138737.45 -108365.79 138771.46 -108366.11 M 139295.6 -108221.47 139371.67 -108144.65 M 139210.48 -108283.11 139295.6 -108221.47 M 138988.16 -108356.51 139110.06 -108328.46 M 138771.46 -108366.11 138838.52 -108366.11 138988.16 -108356.51 M 138412.36 -108358.46 138396.09 -108282.72 M 138244.99 -108123.05 138244.99 -107879.29 M 138544.31 -108345.98 138544.31 -108345.98 M 138467.32 -108353.42 138412.36 -108358.46 M 138535.13 -108346.9 138508.88 -108349.51 M 138544.31 -108345.98 138535.13 -108346.9 M 138508.88 -108349.51 138467.32 -108353.42 M 139371.67 -108144.65 139444.91 -108053.67 139521.52 -107949.72 M 136758.99 -108384.23 136763.54 -108344.41 M 136861.31 -108375.82 136865.81 -108325.86 M 136763.54 -108344.41 136760.07 -108309.47 M 136763.54 -108344.41 136763.54 -108344.41 M 137104.03 -108395.19 136861.31 -108375.82 M 136800.54 -107879.29 137200.56 -107879.29 M 136865.81 -108325.86 136852.79 -108241.33 M 137855.77 -108394.92 137612.02 -108402.3 M 137867.71 -108296.83 137855.39 -108378.97 M 137612.02 -108402.3 137357.84 -108403.22 137104.03 -108395.19 M 137855.39 -108378.97 137855.77 -108394.92 M 136467.21 -108074.44 136419.91 -108103.14 M 136689.43 -108066.47 136689.43 -107990.4 M 136816.38 -108167.28 136760.61 -108107.6 M 136467.21 -107879.29 136467.21 -108074.44 M 136689.43 -107990.4 136800.54 -107879.29 M 136419.91 -108103.14 136379.32 -108140.36 M 136760.61 -108107.6 136689.43 -108066.47 M 136420.88 -108309.47 136417.35 -108344.41 136421.53 -108381.9 M 136446.97 -108247.62 136431.02 -108277.03 136420.88 -108309.47 M 136468.13 -108222.01 136446.97 -108247.62 M 136346.77 -108184.85 136323.43 -108235.58 M 136322.09 -108234.87 136217.86 -108154.79 M 136379.32 -108140.36 136346.77 -108184.85 M 136217.86 -108154.79 136123.89 -108049.16 M 136323.43 -108235.58 136322.09 -108234.87 M 135965.14 -107781.75 136032.91 -107739.71 M 136039.79 -107923.03 135965.14 -107781.75 M 136123.89 -108049.16 136039.79 -107923.03 M 136657.96 -108185.01 136625.52 -108174.92 M 136555.7 -108174.92 136523.2 -108185.01 136493.79 -108200.91 136468.13 -108222.01 M 136590.59 -108171.44 136555.7 -108174.92 M 136625.52 -108174.92 136590.59 -108171.44 M 136852.79 -108241.33 136816.38 -108167.28 M 136687.36 -108200.91 136657.96 -108185.01 M 136734.09 -108247.62 136712.98 -108222.01 M 136749.98 -108277.03 136734.09 -108247.62 M 136712.98 -108222.01 136687.36 -108200.91 M 136760.07 -108309.47 136749.98 -108277.03 M 136540.45 -109361.33 136575.34 -109364.86 136610.23 -109361.33 M 136478.54 -109335.23 136507.95 -109351.19 M 136342.48 -109910.82 136107.45 -109825.1 M 136507.95 -109351.19 136540.45 -109361.33 M 136725.24 -108452.97 136745.85 -108420.75 M 136421.53 -108381.9 136433.29 -108416.57 136451.79 -108447.48 M 136698.23 -108479.83 136725.24 -108452.97 M 136451.79 -108447.48 136476 -108473.91 M 136745.85 -108420.75 136758.99 -108384.23 M 137955.23 -109292.76 137965.31 -109325.26 M 136642.73 -109351.19 136672.07 -109335.23 M 136610.23 -109361.33 136642.73 -109351.19 M 137951.7 -109257.93 137955.23 -109292.76 M 136734.68 -109259.01 136744.77 -109226.51 M 136748.24 -109191.64 136734.84 -109124.73 M 136672.07 -109335.23 136697.68 -109314.08 M 136718.78 -109288.42 136734.68 -109259.01 M 136744.77 -109226.51 136748.24 -109191.64 M 136697.68 -109314.08 136718.78 -109288.42 M 136445.61 -109077 136422.28 -109110.47 M 136734.84 -109124.73 136698.23 -109070.11 M 136422.28 -109110.47 136407.36 -109149.1 M 136476 -109049.92 136445.61 -109077 M 136698.23 -109070.11 136698.23 -108479.83 M 136476 -108473.91 136476 -109049.92 M 136452.89 -109314.08 136478.54 -109335.23 M 136431.73 -109288.42 136452.89 -109314.08 M 136415.72 -109259.01 136431.73 -109288.42 M 136402.04 -109191.64 136405.57 -109226.51 136415.72 -109259.01 M 136407.36 -109149.1 136402.04 -109191.64 M 138299.61 -108343.28 138283.72 -108313.86 M 138309.71 -108375.76 138299.61 -108343.28 M 138283.72 -108313.86 138262.61 -108288.21 M 138309.34 -108161.9 138244.99 -108123.05 M 138396.09 -108282.72 138360.66 -108216.15 138309.34 -108161.9 M 138313.18 -108410.71 138313.18 -108410.71 M 138274.93 -108519 138295.5 -108486.87 138308.63 -108450.47 138313.18 -108410.71 138309.71 -108375.76 M 137996.61 -108313.86 137980.67 -108343.28 M 137970.52 -108375.76 137966.99 -108410.71 137982.95 -108482.71 M 137980.67 -108343.28 137970.52 -108375.76 M 138262.61 -108288.21 138237.02 -108267.04 138207.66 -108251.04 M 138140.28 -108237.42 138105.39 -108240.89 M 138175.16 -108240.89 138140.28 -108237.42 M 138207.66 -108251.04 138175.16 -108240.89 M 138105.39 -108240.89 138072.89 -108251.04 M 138043.43 -108267.04 138017.77 -108288.21 M 137902.16 -108224.4 137867.71 -108296.83 M 138022.77 -107990.4 138022.77 -108123.43 138022.77 -108123.43 M 138072.89 -108251.04 138043.43 -108267.04 M 137955.06 -108165.37 137902.16 -108224.4 M 138022.77 -108123.43 137955.06 -108165.37 M 138017.77 -108288.21 137996.61 -108313.86 M 139406.23 -109589.96 139195.5 -109717.72 138971.93 -109825.1 138736.91 -109910.82 M 138002.31 -109380.22 138027.92 -109401.32 138057.32 -109417.22 M 137981.21 -109354.61 138002.31 -109380.22 M 138247.16 -109380.22 138268.31 -109354.61 M 138159.59 -109427.3 138192.09 -109417.22 M 138057.32 -109417.22 138089.77 -109427.3 M 138025.7 -109115.89 137995.31 -109143.03 M 137982.95 -108482.71 138025.7 -108539.89 138025.7 -109115.89 M 137995.31 -109143.03 137971.93 -109176.61 M 138247.92 -109136.08 138247.92 -108545.8 138274.93 -108519 M 138284.49 -109190.87 138247.92 -109136.08 M 138268.31 -109354.61 138284.27 -109325.26 M 137965.31 -109325.26 137981.21 -109354.61 M 138294.41 -109292.76 138297.88 -109257.93 138284.49 -109190.87 M 138284.27 -109325.26 138294.41 -109292.76 M 137957 -109215.35 137951.7 -109257.93 M 137971.93 -109176.61 137957 -109215.35 M 138192.09 -109417.22 138221.49 -109401.32 138247.16 -109380.22 M 138089.77 -109427.3 138124.66 -109430.83 138159.59 -109427.3" fill="none" stroke-width="100"/><path d="M 136750.001 -139452.381 136130.953 -139452.381 136464.287 -139833.333 136321.429 -139833.333 136226.191 -139880.952 136178.572 -139928.571 136130.953 -140023.81 136130.953 -140261.905 136178.572 -140357.143 136226.191 -140404.762 136321.429 -140452.381 136607.144 -140452.381 136702.382 -140404.762 136750.001 -140357.143 M 135702.382 -140357.143 135654.763 -140404.762 135702.382 -140452.381 135750.001 -140404.762 135702.382 -140357.143 135702.382 -140452.381 M 135321.43 -139452.381 134702.382 -139452.381 135035.716 -139833.333 134892.858 -139833.333 134797.62 -139880.952 134750.001 -139928.571 134702.382 -140023.81 134702.382 -140261.905 134750.001 -140357.143 134797.62 -140404.762 134892.858 -140452.381 135178.573 -140452.381 135273.811 -140404.762 135321.43 -140357.143 M 134369.049 -139785.714 134130.954 -140452.381 133892.858 -139785.714 M 132797.62 -140404.762 132702.382 -140452.381 132511.906 -140452.381 132416.667 -140404.762 132369.048 -140309.524 132369.048 -140261.905 132416.667 -140166.667 132511.906 -140119.048 132654.763 -140119.048 132750.001 -140071.429 132797.62 -139976.19 132797.62 -139928.571 132750.001 -139833.333 132654.763 -139785.714 132511.906 -139785.714 132416.667 -139833.333 M 131559.524 -140404.762 131654.762 -140452.381 131845.239 -140452.381 131940.477 -140404.762 131988.096 -140309.524 131988.096 -139928.571 131940.477 -139833.333 131845.239 -139785.714 131654.762 -139785.714 131559.524 -139833.333 131511.905 -139928.571 131511.905 -140023.81 131988.096 -140119.048 M 131083.334 -140452.381 131083.334 -139785.714 M 131083.334 -139976.19 131035.715 -139880.952 130988.096 -139833.333 130892.858 -139785.714 130797.619 -139785.714 M 130464.286 -140452.381 130464.286 -139785.714 M 130464.286 -139452.381 130511.905 -139500 130464.286 -139547.619 130416.667 -139500 130464.286 -139452.381 130464.286 -139547.619 M 129559.524 -140452.381 129559.524 -139928.571 129607.143 -139833.333 129702.381 -139785.714 129892.858 -139785.714 129988.096 -139833.333 M 129559.524 -140404.762 129654.762 -140452.381 129892.858 -140452.381 129988.096 -140404.762 130035.715 -140309.524 130035.715 -140214.286 129988.096 -140119.048 129892.858 -140071.429 129654.762 -140071.429 129559.524 -140023.81 M 128940.477 -140452.381 129035.715 -140404.762 129083.334 -140309.524 129083.334 -139452.381 M 127369.047 -139785.714 127369.047 -140452.381 M 127797.619 -139785.714 127797.619 -140309.524 127750 -140404.762 127654.762 -140452.381 127511.904 -140452.381 127416.666 -140404.762 127369.047 -140357.143 M 126940.476 -140404.762 126845.238 -140452.381 126654.762 -140452.381 126559.523 -140404.762 126511.904 -140309.524 126511.904 -140261.905 126559.523 -140166.667 126654.762 -140119.048 126797.619 -140119.048 126892.857 -140071.429 126940.476 -139976.19 126940.476 -139928.571 126892.857 -139833.333 126797.619 -139785.714 126654.762 -139785.714 126559.523 -139833.333 M 126083.333 -140452.381 126083.333 -139452.381 M 126083.333 -139833.333 125988.095 -139785.714 125797.618 -139785.714 125702.38 -139833.333 125654.761 -139880.952 125607.142 -139976.19 125607.142 -140261.905 125654.761 -140357.143 125702.38 -140404.762 125797.618 -140452.381 125988.095 -140452.381 126083.333 -140404.762 M 123988.094 -140404.762 124083.332 -140452.381 124273.809 -140452.381 124369.047 -140404.762 124416.666 -140357.143 124464.285 -140261.905 124464.285 -139976.19 124416.666 -139880.952 124369.047 -139833.333 124273.809 -139785.714 124083.332 -139785.714 123988.094 -139833.333 M 123130.951 -140452.381 123130.951 -139928.571 123178.57 -139833.333 123273.808 -139785.714 123464.285 -139785.714 123559.523 -139833.333 M 123130.951 -140404.762 123226.189 -140452.381 123464.285 -140452.381 123559.523 -140404.762 123607.142 -140309.524 123607.142 -140214.286 123559.523 -140119.048 123464.285 -140071.429 123226.189 -140071.429 123130.951 -140023.81 M 122654.761 -140452.381 122654.761 -139452.381 M 122654.761 -139833.333 122559.523 -139785.714 122369.046 -139785.714 122273.808 -139833.333 122226.189 -139880.952 122178.57 -139976.19 122178.57 -140261.905 122226.189 -140357.143 122273.808 -140404.762 122369.046 -140452.381 122559.523 -140452.381 122654.761 -140404.762 M 121607.142 -140452.381 121702.38 -140404.762 121749.999 -140309.524 121749.999 -139452.381 M 120845.236 -140404.762 120940.474 -140452.381 121130.951 -140452.381 121226.189 -140404.762 121273.808 -140309.524 121273.808 -139928.571 121226.189 -139833.333 121130.951 -139785.714 120940.474 -139785.714 120845.236 -139833.333 120797.617 -139928.571 120797.617 -140023.81 121273.808 -140119.048 M 133705 -123915 133705 -102415 M 134705 -123915 133705 -123915 M 141205 -123915 134705 -123915 M 141205 -102415 141205 -123915 M 133705 -102415 141205 -102415" fill="none" stroke-width="200"/><path d="M 139680.27 -107736.78 139654.66 -107715.61 M 140095.85 -104275.29 140223.61 -104486.01 M 139865.59 -105928.29 139777.04 -105942.87 M 140416.7 -104944.61 140479.53 -105189.94 M 140330.98 -108466.04 140223.61 -108689.62 M 139580.66 -105861.5 139521.14 -105773.23 M 139617.54 -107525.83 139633.49 -107496.43 M 139899.45 -107470.82 139920.6 -107496.43 M 139777.04 -107420.15 139811.93 -107423.62 M 139873.84 -107736.78 139844.43 -107752.72 M 140095.85 -108900.35 139948.98 -109097.01 M 139799.24 -105833.01 139799.24 -105833.01 M 139607.45 -107558.33 139617.54 -107525.83 M 139896.03 -105803.39 139866.63 -105819.4 M 139846.49 -107336.28 139876.23 -107174.92 M 138237.23 -110012.22 137975.13 -110025.4 M 139968.89 -105694.78 139958.79 -105727.22 M 139811.93 -107423.62 139844.43 -107433.71 M 139948.98 -109097.01 139784.21 -109278.33 M 139607.61 -107833.83 139554.18 -107790.26 M 140479.53 -105189.94 140518.1 -105444.29 M 139406.23 -103585.675 139602.89 -103732.539 M 140518.1 -107731.35 140479.53 -107985.68 M 139676.85 -105537.44 139702.5 -105516.33 M 139784.21 -109278.33 139602.89 -109443.1 M 139886.42 -107007.44 139886.42 -106168.57 M 139950.11 -107593.22 139946.64 -107628.1 M 139777.04 -107766.33 139777.04 -107766.33 M 139633.49 -107690 139617.54 -107660.6 M 139709.67 -107433.71 139742.17 -107423.62 M 139876.23 -107174.92 139886.42 -107007.44 M 139873.84 -107449.66 139899.45 -107470.82 M 139676.85 -105782.29 139655.74 -105756.62 M 139834.13 -105829.48 139799.24 -105833.01 M 139866.63 -105819.4 139834.13 -105829.48 M 139958.79 -105592.51 139968.89 -105625.01 M 139948.98 -104078.621 140095.85 -104275.29 M 139742.17 -107762.82 139709.67 -107752.72 M 139764.35 -105829.48 139731.91 -105819.4 M 139633.49 -107496.43 139654.66 -107470.82 M 139629.64 -105694.78 139626.11 -105659.89 M 139602.89 -103732.539 139784.21 -103897.307 M 139958.79 -105727.22 139942.79 -105756.62 M 139844.43 -107752.72 139811.93 -107762.82 M 137975.13 -110025.4 137104.2 -110025.4 M 139709.67 -107752.72 139680.27 -107736.78 M 139811.93 -107762.82 139777.04 -107766.33 M 139920.6 -107496.43 139936.56 -107525.83 M 139972.36 -105659.89 139968.89 -105694.78 M 139777.04 -107766.33 139742.17 -107762.82 M 139899.45 -107715.61 139873.84 -107736.78 M 139558.41 -107401.97 139646.68 -107342.46 M 139658.61 -105413.69 139573 -105283 M 139844.43 -107433.71 139873.84 -107449.66 M 139946.64 -107628.1 139936.56 -107660.6 M 139543.66 -105514.39 139594 -105456.07 M 139942.79 -105756.62 139921.68 -105782.29 M 139936.56 -107660.6 139920.6 -107690 M 139617.54 -107660.6 139607.45 -107628.1 M 139936.56 -107525.83 139946.64 -107558.33 M 139896.03 -105516.33 139921.68 -105537.44 M 140531.23 -105706.39 140531.23 -105706.39 M 139920.6 -107690 139899.45 -107715.61 M 139742.17 -107423.62 139777.04 -107420.15 M 140479.53 -107985.68 140416.7 -108231.03 M 139866.63 -105500.33 139896.03 -105516.33 M 140223.61 -104486.01 140330.98 -104709.6 M 139784.21 -103897.307 139948.98 -104078.621 M 139639.74 -105592.51 139655.74 -105563.11 M 139603.93 -107593.22 139607.45 -107558.33 M 139921.68 -105537.44 139942.79 -105563.11 M 139921.68 -105782.29 139896.03 -105803.39 M 139799.24 -105486.78 139834.13 -105490.25 M 139602.89 -109443.1 139406.23 -109589.96 M 136842.16 -110012.22 136587.81 -109973.64 M 139654.66 -107715.61 139633.49 -107690 M 139607.45 -107628.1 139603.93 -107593.22 M 139668.92 -105921.01 139580.66 -105861.5 M 139654.66 -107470.82 139680.27 -107449.66 M 139629.64 -105625.01 139639.74 -105592.51 M 139754.81 -107320.65 139846.49 -107336.28 M 139554.18 -107790.26 139512.95 -107734.93 M 139680.27 -107449.66 139709.67 -107433.71 M 138736.91 -109910.82 138491.57 -109973.64 M 140416.7 -108231.03 140330.98 -108466.04 M 139510.93 -105585.19 139543.66 -105514.39 M 137104.2 -110025.4 136842.16 -110012.22 M 136587.81 -109973.64 136342.48 -109910.82 M 139498.89 -107490.25 139558.41 -107401.97 M 140531.23 -105706.39 140531.23 -107469.3 M 139799.24 -105833.01 139764.35 -105829.48 M 139655.74 -105563.11 139676.85 -105537.44 M 139777.04 -105942.87 139668.92 -105921.01 M 139702.5 -105516.33 139731.91 -105500.33 M 138491.57 -109973.64 138237.23 -110012.22 M 139968.89 -105625.01 139972.36 -105659.89 M 139764.35 -105490.25 139799.24 -105486.78 M 140518.1 -105444.29 140531.23 -105706.39 M 139886.42 -106168.57 139865.59 -105928.29 M 139626.11 -105659.89 139629.64 -105625.01 M 139731.91 -105819.4 139702.5 -105803.39 M 140223.61 -108689.62 140095.85 -108900.35 M 139942.79 -105563.11 139958.79 -105592.51 M 139639.74 -105727.22 139629.64 -105694.78 M 139731.91 -105500.33 139764.35 -105490.25 M 139946.64 -107558.33 139950.11 -107593.22 M 139702.5 -105803.39 139676.85 -105782.29 M 139886.42 -106168.57 139886.42 -106168.57 M 139834.13 -105490.25 139866.63 -105500.33 M 139521.52 -107949.72 139607.61 -107833.83 M 140330.98 -104709.6 140416.7 -104944.61 M 139646.68 -107342.46 139754.81 -107320.65 M 139594 -105456.07 139658.61 -105413.69 M 140531.23 -107469.3 140518.1 -107731.35 M 139655.74 -105756.62 139639.74 -105727.22 M 139573 -105283 139494.45 -105165.43" fill="none" stroke-width="100"/><path d="M 138963.238 -122380.952 138915.619 -122476.19 138915.619 -122666.667 138963.238 -122761.905 139058.476 -122809.524 139439.429 -122809.524 139534.667 -122761.905 139582.286 -122666.667 139582.286 -122476.19 139534.667 -122380.952 139439.429 -122333.333 139344.19 -122333.333 139248.952 -122809.524 M 138963.238 -121952.381 138915.619 -121857.143 138915.619 -121666.667 138963.238 -121571.428 139058.476 -121523.809 139106.095 -121523.809 139201.333 -121571.428 139248.952 -121666.667 139248.952 -121809.524 139296.571 -121904.762 139391.81 -121952.381 139439.429 -121952.381 139534.667 -121904.762 139582.286 -121809.524 139582.286 -121666.667 139534.667 -121571.428 M 139582.286 -121095.238 138582.286 -121095.238 M 139534.667 -121095.238 139582.286 -121000 139582.286 -120809.523 139534.667 -120714.285 139487.048 -120666.666 139391.81 -120619.047 139106.095 -120619.047 139010.857 -120666.666 138963.238 -120714.285 138915.619 -120809.523 138915.619 -121000 138963.238 -121095.238 M 139487.048 -120047.619 139534.667 -120142.857 139582.286 -120190.476 139677.524 -120238.095 139725.143 -120238.095 139820.381 -120190.476 139868 -120142.857 139915.619 -120047.619 139915.619 -119857.142 139868 -119761.904 139820.381 -119714.285 139725.143 -119666.666 139677.524 -119666.666 139582.286 -119714.285 139534.667 -119761.904 139487.048 -119857.142 139487.048 -120047.619 139439.429 -120142.857 139391.81 -120190.476 139296.571 -120238.095 139106.095 -120238.095 139010.857 -120190.476 138963.238 -120142.857 138915.619 -120047.619 138915.619 -119857.142 138963.238 -119761.904 139010.857 -119714.285 139106.095 -119666.666 139296.571 -119666.666 139391.81 -119714.285 139439.429 -119761.904 139487.048 -119857.142 M 139820.381 -119285.714 139868 -119238.095 139915.619 -119142.857 139915.619 -118904.761 139868 -118809.523 139820.381 -118761.904 139725.143 -118714.285 139629.905 -118714.285 139487.048 -118761.904 138915.619 -119333.333 138915.619 -118714.285 M 139915.619 -117857.142 139915.619 -118047.619 139868 -118142.857 139820.381 -118190.476 139677.524 -118285.714 139487.048 -118333.333 139106.095 -118333.333 139010.857 -118285.714 138963.238 -118238.095 138915.619 -118142.857 138915.619 -117952.38 138963.238 -117857.142 139010.857 -117809.523 139106.095 -117761.904 139344.19 -117761.904 139439.429 -117809.523 139487.048 -117857.142 139534.667 -117952.38 139534.667 -118142.857 139487.048 -118238.095 139439.429 -118285.714 139344.19 -118333.333 M 139915.619 -116904.761 139915.619 -117095.238 139868 -117190.476 139820.381 -117238.095 139677.524 -117333.333 139487.048 -117380.952 139106.095 -117380.952 139010.857 -117333.333 138963.238 -117285.714 138915.619 -117190.476 138915.619 -116999.999 138963.238 -116904.761 139010.857 -116857.142 139106.095 -116809.523 139344.19 -116809.523 139439.429 -116857.142 139487.048 -116904.761 139534.667 -116999.999 139534.667 -117190.476 139487.048 -117285.714 139439.429 -117333.333 139344.19 -117380.952 M 139296.571 -116380.952 139296.571 -115619.047 M 138915.619 -114619.047 138915.619 -115190.476 M 138915.619 -114904.762 139915.619 -114904.762 139772.762 -115000 139677.524 -115095.238 139629.905 -115190.476 M 139820.381 -114238.095 139868 -114190.476 139915.619 -114095.238 139915.619 -113857.142 139868 -113761.904 139820.381 -113714.285 139725.143 -113666.666 139629.905 -113666.666 139487.048 -113714.285 138915.619 -114285.714 138915.619 -113666.666 M 139582.286 -112571.428 138915.619 -112333.333 139582.286 -112095.237 M 139915.619 -111809.523 139915.619 -111190.475 139534.667 -111523.809 139534.667 -111380.951 139487.048 -111285.713 139439.429 -111238.094 139344.19 -111190.475 139106.095 -111190.475 139010.857 -111238.094 138963.238 -111285.713 138915.619 -111380.951 138915.619 -111666.666 138963.238 -111761.904 139010.857 -111809.523 M 137215.619 -122761.905 138215.619 -122761.905 M 137834.667 -122761.905 137882.286 -122666.667 137882.286 -122476.19 137834.667 -122380.952 137787.048 -122333.333 137691.81 -122285.714 137406.095 -122285.714 137310.857 -122333.333 137263.238 -122380.952 137215.619 -122476.19 137215.619 -122666.667 137263.238 -122761.905 M 137215.619 -121857.143 137882.286 -121857.143 M 137691.81 -121857.143 137787.048 -121809.524 137834.667 -121761.905 137882.286 -121666.667 137882.286 -121571.428 M 137263.238 -120857.142 137215.619 -120952.38 137215.619 -121142.857 137263.238 -121238.095 137358.476 -121285.714 137739.429 -121285.714 137834.667 -121238.095 137882.286 -121142.857 137882.286 -120952.38 137834.667 -120857.142 137739.429 -120809.523 137644.19 -120809.523 137548.952 -121285.714 M 137215.619 -119952.38 137739.429 -119952.38 137834.667 -119999.999 137882.286 -120095.237 137882.286 -120285.714 137834.667 -120380.952 M 137263.238 -119952.38 137215.619 -120047.618 137215.619 -120285.714 137263.238 -120380.952 137358.476 -120428.571 137453.714 -120428.571 137548.952 -120380.952 137596.571 -120285.714 137596.571 -120047.618 137644.19 -119952.38 M 137215.619 -119476.19 138215.619 -119476.19 M 137596.571 -119380.952 137215.619 -119095.237 M 137882.286 -119095.237 137501.333 -119476.19 M 137215.619 -118523.809 137263.238 -118619.047 137310.857 -118666.666 137406.095 -118714.285 137691.81 -118714.285 137787.048 -118666.666 137834.667 -118619.047 137882.286 -118523.809 137882.286 -118380.951 137834.667 -118285.713 137787.048 -118238.094 137691.81 -118190.475 137406.095 -118190.475 137310.857 -118238.094 137263.238 -118285.713 137215.619 -118380.951 137215.619 -118523.809 M 137882.286 -117333.332 137215.619 -117333.332 M 137882.286 -117761.904 137358.476 -117761.904 137263.238 -117714.285 137215.619 -117619.047 137215.619 -117476.189 137263.238 -117380.951 137310.857 -117333.332 M 137882.286 -116999.999 137882.286 -116619.047 M 138215.619 -116857.142 137358.476 -116857.142 137263.238 -116809.523 137215.619 -116714.285 137215.619 -116619.047 M 137215.619 -115523.808 138215.619 -115523.808 M 137834.667 -115523.808 137882.286 -115428.57 137882.286 -115238.093 137834.667 -115142.855 137787.048 -115095.236 137691.81 -115047.617 137406.095 -115047.617 137310.857 -115095.236 137263.238 -115142.855 137215.619 -115238.093 137215.619 -115428.57 137263.238 -115523.808 M 137215.619 -114476.189 137263.238 -114571.427 137310.857 -114619.046 137406.095 -114666.665 137691.81 -114666.665 137787.048 -114619.046 137834.667 -114571.427 137882.286 -114476.189 137882.286 -114333.331 137834.667 -114238.093 137787.048 -114190.474 137691.81 -114142.855 137406.095 -114142.855 137310.857 -114190.474 137263.238 -114238.093 137215.619 -114333.331 137215.619 -114476.189 M 137215.619 -113285.712 137739.429 -113285.712 137834.667 -113333.331 137882.286 -113428.569 137882.286 -113619.046 137834.667 -113714.284 M 137263.238 -113285.712 137215.619 -113380.95 137215.619 -113619.046 137263.238 -113714.284 137358.476 -113761.903 137453.714 -113761.903 137548.952 -113714.284 137596.571 -113619.046 137596.571 -113380.95 137644.19 -113285.712 M 137215.619 -112809.522 137882.286 -112809.522 M 137691.81 -112809.522 137787.048 -112761.903 137834.667 -112714.284 137882.286 -112619.046 137882.286 -112523.807 M 137215.619 -111761.902 138215.619 -111761.902 M 137263.238 -111761.902 137215.619 -111857.14 137215.619 -112047.617 137263.238 -112142.855 137310.857 -112190.474 137406.095 -112238.093 137691.81 -112238.093 137787.048 -112190.474 137834.667 -112142.855 137882.286 -112047.617 137882.286 -111857.14 137834.667 -111761.902 M 135515.619 -122761.905 136515.619 -122761.905 135801.333 -122428.571 136515.619 -122095.238 135515.619 -122095.238 M 135515.619 -121190.476 136039.429 -121190.476 136134.667 -121238.095 136182.286 -121333.333 136182.286 -121523.81 136134.667 -121619.048 M 135563.238 -121190.476 135515.619 -121285.714 135515.619 -121523.81 135563.238 -121619.048 135658.476 -121666.667 135753.714 -121666.667 135848.952 -121619.048 135896.571 -121523.81 135896.571 -121285.714 135944.19 -121190.476 M 136182.286 -120857.143 136182.286 -120476.191 M 136515.619 -120714.286 135658.476 -120714.286 135563.238 -120666.667 135515.619 -120571.429 135515.619 -120476.191 M 136182.286 -120285.714 136182.286 -119904.762 M 136515.619 -120142.857 135658.476 -120142.857 135563.238 -120095.238 135515.619 -120000 135515.619 -119904.762 M 136515.619 -118952.38 135515.619 -118619.047 136515.619 -118285.713 M 135563.238 -117571.427 135515.619 -117666.665 135515.619 -117857.142 135563.238 -117952.38 135658.476 -117999.999 136039.429 -117999.999 136134.667 -117952.38 136182.286 -117857.142 136182.286 -117666.665 136134.667 -117571.427 136039.429 -117523.808 135944.19 -117523.808 135848.952 -117999.999 M 136182.286 -117095.237 135515.619 -117095.237 M 136087.048 -117095.237 136134.667 -117047.618 136182.286 -116952.38 136182.286 -116809.522 136134.667 -116714.284 136039.429 -116666.665 135515.619 -116666.665 M 136182.286 -116190.475 135515.619 -116190.475 M 136087.048 -116190.475 136134.667 -116142.856 136182.286 -116047.618 136182.286 -115904.76 136134.667 -115809.522 136039.429 -115761.903 135515.619 -115761.903 M 136420.381 -114571.427 136468 -114523.808 136515.619 -114428.57 136515.619 -114190.474 136468 -114095.236 136420.381 -114047.617 136325.143 -113999.998 136229.905 -113999.998 136087.048 -114047.617 135515.619 -114619.046 135515.619 -113999.998 M 136515.619 -113380.951 136515.619 -113285.712 136468 -113190.474 136420.381 -113142.855 136325.143 -113095.236 136134.667 -113047.617 135896.571 -113047.617 135706.095 -113095.236 135610.857 -113142.855 135563.238 -113190.474 135515.619 -113285.712 135515.619 -113380.951 135563.238 -113476.189 135610.857 -113523.808 135706.095 -113571.427 135896.571 -113619.046 136134.667 -113619.046 136325.143 -113571.427 136420.381 -113523.808 136468 -113476.189 136515.619 -113380.951 M 135515.619 -112095.236 135515.619 -112666.665 M 135515.619 -112380.951 136515.619 -112380.951 136372.762 -112476.189 136277.524 -112571.427 136229.905 -112666.665 M 136515.619 -111238.093 136515.619 -111428.57 136468 -111523.808 136420.381 -111571.427 136277.524 -111666.665 136087.048 -111714.284 135706.095 -111714.284 135610.857 -111666.665 135563.238 -111619.046 135515.619 -111523.808 135515.619 -111333.331 135563.238 -111238.093 135610.857 -111190.474 135706.095 -111142.855 135944.19 -111142.855 136039.429 -111190.474 136087.048 -111238.093 136134.667 -111333.331 136134.667 -111523.808 136087.048 -111619.046 136039.429 -111666.665 135944.19 -111714.284" fill="none" stroke-width="200"/><path d="M 113665 -106680 113665 -139700 111125 -139700 111125 -106680 M 110845 -103860 110845 -105410 M 111125 -106680 113665 -106680 M 113945 -105410 113945 -103860 110845 -103860 M 113006.095 -103322.381 113006.095 -102322.381 112625.142 -102322.381 112529.904 -102370 112482.285 -102417.619 112434.666 -102512.857 112434.666 -102655.714 112482.285 -102750.952 112529.904 -102798.571 112625.142 -102846.19 113006.095 -102846.19 M 112053.714 -102417.619 112006.095 -102370 111910.857 -102322.381 111672.761 -102322.381 111577.523 -102370 111529.904 -102417.619 111482.285 -102512.857 111482.285 -102608.095 111529.904 -102750.952 112101.333 -103322.381 111482.285 -103322.381" fill="none" stroke-width="150"/></g><g id="pcb-stackup_bottom_drl1" transform="scale(25.4,25.4)"/><g id="pcb-stackup_bottom_drl2"><use xlink:href="#UhTnpMJkxXQK_pad-1" x="116859" y="-137350"/><use xlink:href="#UhTnpMJkxXQK_pad-1" x="118359" y="-131350"/><use xlink:href="#UhTnpMJkxXQK_pad-1" x="119328" y="-126457"/><use xlink:href="#UhTnpMJkxXQK_pad-1" x="121018" y="-131600"/><use xlink:href="#UhTnpMJkxXQK_pad-1" x="121793" y="-126111"/><use xlink:href="#UhTnpMJkxXQK_pad-1" x="123571" y="-124079"/><use xlink:href="#UhTnpMJkxXQK_pad-1" x="123571" y="-125349"/><use xlink:href="#UhTnpMJkxXQK_pad-1" x="124391" y="-123513"/><use xlink:href="#UhTnpMJkxXQK_pad-1" x="125859" y="-116600"/><use xlink:href="#UhTnpMJkxXQK_pad-1" x="128905" y="-126111"/><use xlink:href="#UhTnpMJkxXQK_pad-1" x="129109" y="-131100"/><use xlink:href="#UhTnpMJkxXQK_pad-1" x="129859" y="-130350"/><use xlink:href="#UhTnpMJkxXQK_pad-1" x="131699" y="-115189"/><use xlink:href="#UhTnpMJkxXQK_pad-1" x="132521" y="-124438"/><use xlink:href="#UhTnpMJkxXQK_pad-1" x="136779" y="-131445"/><use xlink:href="#UhTnpMJkxXQK_pad-2" x="117359" y="-114600"/><use xlink:href="#UhTnpMJkxXQK_pad-3" x="112395" y="-105410"/><use xlink:href="#UhTnpMJkxXQK_pad-3" x="112395" y="-107950"/><use xlink:href="#UhTnpMJkxXQK_pad-3" x="112395" y="-110490"/><use xlink:href="#UhTnpMJkxXQK_pad-3" x="112395" y="-113030"/><use xlink:href="#UhTnpMJkxXQK_pad-3" x="112395" y="-115570"/><use xlink:href="#UhTnpMJkxXQK_pad-3" x="112395" y="-118110"/><use xlink:href="#UhTnpMJkxXQK_pad-3" x="112395" y="-120650"/><use xlink:href="#UhTnpMJkxXQK_pad-3" x="112395" y="-123190"/><use xlink:href="#UhTnpMJkxXQK_pad-3" x="112395" y="-125730"/><use xlink:href="#UhTnpMJkxXQK_pad-3" x="112395" y="-128270"/><use xlink:href="#UhTnpMJkxXQK_pad-3" x="112395" y="-130810"/><use xlink:href="#UhTnpMJkxXQK_pad-3" x="112395" y="-133350"/><use xlink:href="#UhTnpMJkxXQK_pad-3" x="112395" y="-135890"/><use xlink:href="#UhTnpMJkxXQK_pad-3" x="112395" y="-138430"/><use xlink:href="#UhTnpMJkxXQK_pad-3" x="122659" y="-137850"/><use xlink:href="#UhTnpMJkxXQK_pad-3" x="125199" y="-137850"/><use xlink:href="#UhTnpMJkxXQK_pad-3" x="127739" y="-137850"/><use xlink:href="#UhTnpMJkxXQK_pad-3" x="130279" y="-137850"/><use xlink:href="#UhTnpMJkxXQK_pad-3" x="132819" y="-137850"/><use xlink:href="#UhTnpMJkxXQK_pad-3" x="135359" y="-137850"/></g><clipPath id="pcb-stackup_bottom_out"><path d="M 142240 -101600 109855 -101600 109855 -140970 142240 -140970 142240 -101600" fill="none" stroke-width="100"/></clipPath><mask id="pcb-stackup_bottom_mech-mask"><g fill="#000" stroke="#000"><rect x="109855" y="-140970" width="32395" height="39370" fill="#fff"/><use xlink:href="#pcb-stackup_bottom_drl1"/><use xlink:href="#pcb-stackup_bottom_drl2"/></g></mask><mask id="pcb-stackup_bottom_cf-mask"><g fill="#fff" stroke="#fff"><use xlink:href="#pcb-stackup_bottom_sm"/></g></mask><mask id="pcb-stackup_bottom_sm-mask"><g fill="#000" stroke="#000"><rect x="109855" y="-140970" width="32395" height="39370" fill="#fff"/><use xlink:href="#pcb-stackup_bottom_sm"/></g></mask></defs><g transform="translate(0,-242570) scale(1,-1)"><g mask="url(#pcb-stackup_bottom_mech-mask)" clip-path="url(#pcb-stackup_bottom_out)" transform="translate(252105,0) scale(-1,1)"><rect x="109855" y="-140970" width="32395" height="39370" fill="currentColor" class="pcb-stackup_fr4"/><use xlink:href="#pcb-stackup_bottom_cu" fill="currentColor" stroke="currentColor" class="pcb-stackup_cu"/><use xlink:href="#pcb-stackup_bottom_cu" fill="currentColor" stroke="currentColor" class="pcb-stackup_cf" mask="url(#pcb-stackup_bottom_cf-mask)"/><g mask="url(#pcb-stackup_bottom_sm-mask)"><rect x="109855" y="-140970" width="32395" height="39370" fill="currentColor" class="pcb-stackup_sm"/><use xlink:href="#pcb-stackup_bottom_ss" fill="currentColor" stroke="currentColor" class="pcb-stackup_ss"/></g></g></g></svg>