<svg id="pcb-stackup_bottom" version="1.1" xmlns:xlink="http://www.w3.org/1999/xlink" stroke-linecap="round" stroke-linejoin="round" stroke-width="0" fill-rule="evenodd" clip-rule="evenodd" viewBox="514 614 1400 600" width="1.4in" height="0.6in" xmlns="http://www.w3.org/2000/svg"><defs><style>.pcb-stackup_fr4 {color: #4D542C;}
.pcb-stackup_cu {color: lightgrey;}
.pcb-stackup_cf {color: goldenrod;}
.pcb-stackup_sm {color: #2E0051; opacity: 0.9;}
.pcb-stackup_ss {color: white;}
.pcb-stackup_sp {color: #000000; opacity: 0;}
.pcb-stackup_out {color: black;}</style><circle cx="0" cy="0" r="75" id="eIZssqHHmWOA_pad-10"/><circle cx="0" cy="0" r="33" id="eIZssqHHmWOA_pad-12"/><circle cx="0" cy="0" r="13.5" id="eIZssqHHmWOA_pad-14"/><circle cx="0" cy="0" r="75" id="eIZssqHHmWOA_pad-10"/><circle cx="0" cy="0" r="33" id="eIZssqHHmWOA_pad-12"/><circle cx="0" cy="0" r="13.5" id="eIZssqHHmWOA_pad-14"/><circle cx="0" cy="0" r="75" id="eIZssqHHmWOA_pad-10"/><circle cx="0" cy="0" r="33" id="eIZssqHHmWOA_pad-12"/><circle cx="0" cy="0" r="13.5" id="eIZssqHHmWOA_pad-14"/><circle cx="0" cy="0" r="75" id="eIZssqHHmWOA_pad-10"/><circle cx="0" cy="0" r="33" id="eIZssqHHmWOA_pad-12"/><circle cx="0" cy="0" r="13.5" id="eIZssqHHmWOA_pad-14"/><circle cx="0" cy="0" r="78" id="OtYkevemlHcK_pad-10"/><circle cx="0" cy="0" r="36" id="OtYkevemlHcK_pad-12"/><circle cx="0" cy="0" r="16.5" id="OtYkevemlHcK_pad-13"/><circle cx="0" cy="0" r="75" id="eIZssqHHmWOA_pad-10"/><circle cx="0" cy="0" r="33" id="eIZssqHHmWOA_pad-12"/><circle cx="0" cy="0" r="13.5" id="eIZssqHHmWOA_pad-14"/><circle cx="0" cy="0" r="75" id="eIZssqHHmWOA_pad-10"/><circle cx="0" cy="0" r="33" id="eIZssqHHmWOA_pad-12"/><circle cx="0" cy="0" r="13.5" id="eIZssqHHmWOA_pad-14"/><circle cx="0" cy="0" r="75" id="eIZssqHHmWOA_pad-10"/><circle cx="0" cy="0" r="33" id="eIZssqHHmWOA_pad-12"/><circle cx="0" cy="0" r="13.5" id="eIZssqHHmWOA_pad-14"/><circle cx="0" cy="0" r="75" id="eIZssqHHmWOA_pad-10"/><circle cx="0" cy="0" r="33" id="eIZssqHHmWOA_pad-12"/><circle cx="0" cy="0" r="13.5" id="eIZssqHHmWOA_pad-14"/><circle cx="0" cy="0" r="78" id="OtYkevemlHcK_pad-10"/><circle cx="0" cy="0" r="36" id="OtYkevemlHcK_pad-12"/><circle cx="0" cy="0" r="16.5" id="OtYkevemlHcK_pad-13"/><circle cx="0" cy="0" r="6.5" id="k1K2kjxpqBRZ_pad-1"/><circle cx="0" cy="0" r="13.8" id="k1K2kjxpqBRZ_pad-2"/><circle cx="0" cy="0" r="19.7" id="k1K2kjxpqBRZ_pad-3"/><circle cx="0" cy="0" r="39.35" id="k1K2kjxpqBRZ_pad-4"/><circle cx="0" cy="0" r="75" id="eIZssqHHmWOA_pad-10"/><circle cx="0" cy="0" r="33" id="eIZssqHHmWOA_pad-12"/><circle cx="0" cy="0" r="13.5" id="eIZssqHHmWOA_pad-14"/><circle cx="0" cy="0" r="75" id="eIZssqHHmWOA_pad-10"/><circle cx="0" cy="0" r="33" id="eIZssqHHmWOA_pad-12"/><circle cx="0" cy="0" r="13.5" id="eIZssqHHmWOA_pad-14"/><circle cx="0" cy="0" r="75" id="eIZssqHHmWOA_pad-10"/><circle cx="0" cy="0" r="33" id="eIZssqHHmWOA_pad-12"/><circle cx="0" cy="0" r="13.5" id="eIZssqHHmWOA_pad-14"/><circle cx="0" cy="0" r="75" id="eIZssqHHmWOA_pad-10"/><circle cx="0" cy="0" r="33" id="eIZssqHHmWOA_pad-12"/><circle cx="0" cy="0" r="13.5" id="eIZssqHHmWOA_pad-14"/><circle cx="0" cy="0" r="78" id="OtYkevemlHcK_pad-10"/><circle cx="0" cy="0" r="36" id="OtYkevemlHcK_pad-12"/><circle cx="0" cy="0" r="16.5" id="OtYkevemlHcK_pad-13"/><circle cx="0" cy="0" r="75" id="eIZssqHHmWOA_pad-10"/><circle cx="0" cy="0" r="33" id="eIZssqHHmWOA_pad-12"/><circle cx="0" cy="0" r="13.5" id="eIZssqHHmWOA_pad-14"/><circle cx="0" cy="0" r="75" id="eIZssqHHmWOA_pad-10"/><circle cx="0" cy="0" r="33" id="eIZssqHHmWOA_pad-12"/><circle cx="0" cy="0" r="13.5" id="eIZssqHHmWOA_pad-14"/><circle cx="0" cy="0" r="75" id="eIZssqHHmWOA_pad-10"/><circle cx="0" cy="0" r="33" id="eIZssqHHmWOA_pad-12"/><circle cx="0" cy="0" r="13.5" id="eIZssqHHmWOA_pad-14"/><circle cx="0" cy="0" r="75" id="eIZssqHHmWOA_pad-10"/><circle cx="0" cy="0" r="33" id="eIZssqHHmWOA_pad-12"/><circle cx="0" cy="0" r="13.5" id="eIZssqHHmWOA_pad-14"/><circle cx="0" cy="0" r="78" id="OtYkevemlHcK_pad-10"/><circle cx="0" cy="0" r="36" id="OtYkevemlHcK_pad-12"/><circle cx="0" cy="0" r="16.5" id="OtYkevemlHcK_pad-13"/><circle cx="0" cy="0" r="6.5" id="k1K2kjxpqBRZ_pad-1"/><circle cx="0" cy="0" r="13.8" id="k1K2kjxpqBRZ_pad-2"/><circle cx="0" cy="0" r="19.7" id="k1K2kjxpqBRZ_pad-3"/><circle cx="0" cy="0" r="39.35" id="k1K2kjxpqBRZ_pad-4"/><g id="pcb-stackup_bottom_sp" transform="scale(0.03937007874015748,0.03937007874015748)"/><g id="pcb-stackup_bottom_cu"><use xlink:href="#eIZssqHHmWOA_pad-10" x="693.92" y="770.3"/><use xlink:href="#eIZssqHHmWOA_pad-10" x="693.92" y="1057.7"/><path d="M 803.94 945.5 845.5 945.5 M 896.68 976.99 938.24 976.99 M 938.24 914 896.68 914 M 845.5 882.5 803.94 882.5 M 896.68 851.01 938.24 851.01" fill="none" stroke-width="41.56"/><use xlink:href="#eIZssqHHmWOA_pad-12" x="964" y="664"/><use xlink:href="#eIZssqHHmWOA_pad-12" x="1064" y="664"/><use xlink:href="#eIZssqHHmWOA_pad-12" x="1164" y="664"/><use xlink:href="#eIZssqHHmWOA_pad-12" x="1264" y="664"/><use xlink:href="#eIZssqHHmWOA_pad-12" x="1364" y="664"/><use xlink:href="#eIZssqHHmWOA_pad-12" x="1464" y="664"/><use xlink:href="#eIZssqHHmWOA_pad-12" x="1564" y="664"/><use xlink:href="#eIZssqHHmWOA_pad-12" x="1664" y="664"/><use xlink:href="#eIZssqHHmWOA_pad-12" x="1764" y="664"/><use xlink:href="#eIZssqHHmWOA_pad-12" x="1864" y="664"/><use xlink:href="#eIZssqHHmWOA_pad-12" x="1864" y="1164"/><use xlink:href="#eIZssqHHmWOA_pad-12" x="1764" y="1164"/><use xlink:href="#eIZssqHHmWOA_pad-12" x="1664" y="1164"/><use xlink:href="#eIZssqHHmWOA_pad-12" x="1564" y="1164"/><use xlink:href="#eIZssqHHmWOA_pad-12" x="1464" y="1164"/><use xlink:href="#eIZssqHHmWOA_pad-12" x="1364" y="1164"/><use xlink:href="#eIZssqHHmWOA_pad-12" x="1264" y="1164"/><use xlink:href="#eIZssqHHmWOA_pad-12" x="1164" y="1164"/><use xlink:href="#eIZssqHHmWOA_pad-12" x="1064" y="1164"/><use xlink:href="#eIZssqHHmWOA_pad-12" x="964" y="1164"/><path d="M 533 1195 533 633 934.19 633 927.55 639.64 921 655.45 921 672.55 927.55 688.36 939.64 700.45 955.45 707 972.55 707 988.36 700.45 1000.45 688.36 1007 672.55 1007 655.45 1000.45 639.64 993.81 633 1034.19 633 1027.55 639.64 1021 655.45 1021 672.55 1027.55 688.36 1039.64 700.45 1055.45 707 1072.55 707 1088.36 700.45 1100.45 688.36 1107 672.55 1107 655.45 1100.45 639.64 1093.81 633 1134.19 633 1127.55 639.64 1121 655.45 1121 672.55 1127.55 688.36 1139.64 700.45 1155.45 707 1172.55 707 1182.91 702.71 1235 754.8 1243.2 763 1346.77 763 1335.5 774.27 1335.5 793.73 1349.27 807.5 1368.73 807.5 1382.5 793.73 1382.5 780.3 1399.8 763 1604.77 763 1614.27 772.5 1633.73 772.5 1647.5 758.73 1647.5 739.27 1633.73 725.5 1614.27 725.5 1604.77 735 1254.8 735 1202.71 682.91 1207 672.55 1207 655.45 1200.45 639.64 1193.81 633 1234.19 633 1227.55 639.64 1221 655.45 1221 672.55 1227.55 688.36 1239.64 700.45 1255.45 707 1272.55 707 1288.36 700.45 1300.45 688.36 1307 672.55 1307 655.45 1300.45 639.64 1293.81 633 1334.19 633 1327.55 639.64 1321 655.45 1321 672.55 1327.55 688.36 1339.64 700.45 1355.45 707 1372.55 707 1388.36 700.45 1400.45 688.36 1407 672.55 1407 655.45 1400.45 639.64 1393.81 633 1434.19 633 1427.55 639.64 1421 655.45 1421 672.55 1427.55 688.36 1439.64 700.45 1455.45 707 1472.55 707 1488.36 700.45 1500.45 688.36 1507 672.55 1507 655.45 1500.45 639.64 1493.81 633 1534.19 633 1527.55 639.64 1521 655.45 1521 672.55 1527.55 688.36 1539.64 700.45 1555.45 707 1572.55 707 1588.36 700.45 1600.45 688.36 1607 672.55 1607 655.45 1600.45 639.64 1593.81 633 1634.19 633 1627.55 639.64 1621 655.45 1621 672.55 1627.55 688.36 1639.64 700.45 1655.45 707 1672.55 707 1688.36 700.45 1697.01 691.8 1755.66 750.46 1755.66 768.58 1769.42 782.34 1788.89 782.34 1802.66 768.58 1802.66 749.11 1788.89 735.34 1780.14 735.34 1749.22 704.42 1755.45 707 1772.55 707 1788.36 700.45 1800.45 688.36 1807 672.55 1807 655.45 1800.45 639.64 1793.81 633 1834.19 633 1827.55 639.64 1821 655.45 1821 672.55 1827.55 688.36 1839.64 700.45 1855.45 707 1872.55 707 1888.36 700.45 1895 693.81 1895 1128.53 1894.62 1128.15 1888.63 1123.8 1882.04 1120.44 1875.01 1118.16 1868 1117.05 1868 1160 1860 1160 1860 1117.05 1852.99 1118.16 1845.96 1120.44 1839.37 1123.8 1833.38 1128.15 1828.15 1133.38 1823.8 1139.37 1820.44 1145.96 1818.16 1152.99 1817.05 1160 1860 1160 1860 1168 1817.05 1168 1818.16 1175.01 1820.44 1182.04 1823.8 1188.63 1828.15 1194.62 1828.53 1195 1793.81 1195 1800.45 1188.36 1807 1172.55 1807 1155.45 1800.45 1139.64 1788.36 1127.55 1772.55 1121 1755.45 1121 1739.64 1127.55 1727.55 1139.64 1721 1155.45 1721 1172.55 1727.55 1188.36 1734.19 1195 1693.81 1195 1700.45 1188.36 1707 1172.55 1707 1155.45 1700.45 1139.64 1688.36 1127.55 1672.55 1121 1655.45 1121 1639.64 1127.55 1627.55 1139.64 1621 1155.45 1621 1172.55 1627.55 1188.36 1634.19 1195 1593.81 1195 1600.45 1188.36 1607 1172.55 1607 1155.45 1600.45 1139.64 1588.36 1127.55 1572.55 1121 1555.45 1121 1539.64 1127.55 1527.55 1139.64 1521 1155.45 1521 1172.55 1527.55 1188.36 1534.19 1195 1493.81 1195 1500.45 1188.36 1507 1172.55 1507 1155.45 1500.45 1139.64 1488.36 1127.55 1472.55 1121 1455.45 1121 1439.64 1127.55 1427.55 1139.64 1421 1155.45 1421 1172.55 1427.55 1188.36 1434.19 1195 1393.81 1195 1400.45 1188.36 1407 1172.55 1407 1155.45 1400.45 1139.64 1388.36 1127.55 1372.55 1121 1355.45 1121 1339.64 1127.55 1327.55 1139.64 1321 1155.45 1321 1172.55 1327.55 1188.36 1334.19 1195 1293.81 1195 1300.45 1188.36 1307 1172.55 1307 1155.45 1300.45 1139.64 1288.36 1127.55 1272.55 1121 1255.45 1121 1239.64 1127.55 1227.55 1139.64 1221 1155.45 1221 1172.55 1227.55 1188.36 1234.19 1195 1193.81 1195 1200.45 1188.36 1207 1172.55 1207 1155.45 1200.45 1139.64 1188.36 1127.55 1172.55 1121 1155.45 1121 1139.64 1127.55 1127.55 1139.64 1121 1155.45 1121 1172.55 1127.55 1188.36 1134.19 1195 1099.47 1195 1099.85 1194.62 1104.2 1188.63 1107.56 1182.04 1109.84 1175.01 1110.95 1168 1068 1168 1068 1160 1110.95 1160 1109.84 1152.99 1107.56 1145.96 1104.2 1139.37 1099.85 1133.38 1094.62 1128.15 1088.63 1123.8 1082.04 1120.44 1075.01 1118.16 1068 1117.05 1068 1160 1060 1160 1060 1117.05 1052.99 1118.16 1045.96 1120.44 1039.37 1123.8 1033.38 1128.15 1028.15 1133.38 1023.8 1139.37 1020.44 1145.96 1018.16 1152.99 1017.05 1160 1060 1160 1060 1168 1017.05 1168 1018.16 1175.01 1020.44 1182.04 1023.8 1188.63 1028.15 1194.62 1028.53 1195 993.81 1195 1000.45 1188.36 1007 1172.55 1007 1155.45 1000.45 1139.64 988.36 1127.55 972.55 1121 955.45 1121 939.64 1127.55 927.55 1139.64 921 1155.45 921 1172.55 927.55 1188.36 934.19 1195 533 1195 M 533 1188.93 928.12 1188.93 M 924.48 1180.94 533 1180.94 M 533 1172.96 921.17 1172.96 M 921 1164.97 533 1164.97 M 533 1156.99 921 1156.99 M 923.67 1149 533 1149 M 533 1141.02 672.95 1141.02 M 677.01 1142.7 645.77 1129.76 621.86 1105.85 608.92 1074.61 608.92 1040.79 621.86 1009.55 645.77 985.64 677.01 972.7 710.83 972.7 742.07 985.64 765.98 1009.55 778.92 1040.79 778.92 1074.61 765.98 1105.85 742.07 1129.76 710.83 1142.7 677.01 1142.7 M 653.67 1133.03 533 1133.03 M 533 1125.05 641.06 1125.05 M 633.07 1117.06 533 1117.06 M 533 1109.08 625.09 1109.08 M 619.89 1101.09 533 1101.09 M 533 1093.11 616.58 1093.11 M 613.28 1085.12 533 1085.12 M 533 1077.14 609.97 1077.14 M 608.92 1069.15 533 1069.15 M 533 1061.17 608.92 1061.17 M 608.92 1053.18 533 1053.18 M 533 1045.2 608.92 1045.2 M 610.41 1037.21 533 1037.21 M 533 1029.23 613.71 1029.23 M 617.02 1021.24 533 1021.24 M 533 1013.26 620.33 1013.26 M 626.14 1005.27 533 1005.27 M 533 997.29 634.13 997.29 M 642.11 989.3 533 989.3 M 533 981.32 656.22 981.32 M 675.49 973.33 533 973.33 M 533 965.34 780.26 965.34 M 777.84 962.93 773.16 951.62 773.16 939.37 777.84 928.06 786.5 919.4 797.81 914.72 851.62 914.72 862.93 919.4 867.49 923.96 865.9 920.12 865.9 907.88 867.49 904.04 862.93 908.6 851.62 913.28 797.81 913.28 786.5 908.6 777.84 899.94 773.16 888.63 773.16 876.38 777.84 865.07 786.5 856.41 797.81 851.72 851.62 851.72 862.23 856.12 861.9 854.43 861.9 853.9 893.79 853.9 893.79 848.12 899.57 848.12 899.57 853.9 973.02 853.9 973.02 854.43 971.68 861.15 969.06 867.48 965.25 873.18 960.41 878.02 954.71 881.83 948.38 884.45 947.67 884.59 955.67 887.91 964.33 896.56 969.02 907.88 969.02 920.12 964.33 931.44 955.67 940.09 944.36 944.78 890.55 944.78 879.24 940.09 874.69 935.54 876.28 939.37 876.28 951.62 874.69 955.45 879.24 950.9 890.55 946.21 944.36 946.21 955.67 950.9 964.33 959.56 969.02 970.87 969.02 983.11 964.33 994.43 955.67 1003.09 944.36 1007.77 890.55 1007.77 879.24 1003.09 870.58 994.43 865.9 983.11 865.9 970.87 867.49 967.03 862.93 971.59 851.62 976.28 797.81 976.28 786.5 971.59 777.84 962.93 M 775.54 957.36 533 957.36 M 533 949.37 773.16 949.37 M 773.16 941.39 533 941.39 M 533 933.4 775.63 933.4 M 780.48 925.42 533 925.42 M 533 917.43 791.25 917.43 M 788.56 909.45 533 909.45 M 533 901.46 779.37 901.46 M 775.17 893.48 533 893.48 M 533 885.49 773.16 885.49 M 773.16 877.51 533 877.51 M 533 869.52 776 869.52 M 781.37 861.54 533 861.54 M 533 853.55 672.8 853.55 M 677.01 855.3 645.77 842.36 621.86 818.45 608.92 787.21 608.92 753.39 621.86 722.15 645.77 698.24 677.01 685.3 710.83 685.3 742.07 698.24 765.98 722.15 778.92 753.39 778.92 787.21 765.98 818.45 742.07 842.36 710.83 855.3 677.01 855.3 M 653.52 845.57 533 845.57 M 533 837.58 641 837.58 M 633.01 829.6 533 829.6 M 533 821.61 625.03 821.61 M 619.87 813.63 533 813.63 M 533 805.64 616.56 805.64 M 613.25 797.66 533 797.66 M 533 789.67 609.94 789.67 M 608.92 781.69 533 781.69 M 533 773.7 608.92 773.7 M 608.92 765.72 533 765.72 M 533 757.73 608.92 757.73 M 610.43 749.75 533 749.75 M 533 741.76 613.74 741.76 M 617.05 733.78 533 733.78 M 533 725.79 620.35 725.79 M 626.21 717.81 533 717.81 M 533 709.82 634.19 709.82 M 642.18 701.84 533 701.84 M 533 693.85 656.37 693.85 M 675.65 685.87 533 685.87 M 533 677.88 923.21 677.88 M 921 669.9 533 669.9 M 533 661.91 921 661.91 M 921.63 653.93 533 653.93 M 533 645.94 924.94 645.94 M 929.23 637.96 533 637.96 M 712.2 685.87 926.51 685.87 M 933.04 693.85 731.47 693.85 M 745.67 701.84 942.98 701.84 M 985.02 701.84 1042.98 701.84 M 1033.04 693.85 994.96 693.85 M 1001.49 685.87 1026.51 685.87 M 1023.21 677.88 1004.79 677.88 M 1007 669.9 1021 669.9 M 1021 661.91 1007 661.91 M 1006.37 653.93 1021.63 653.93 M 1024.94 645.94 1003.06 645.94 M 998.77 637.96 1029.23 637.96 M 1098.77 637.96 1129.23 637.96 M 1124.94 645.94 1103.06 645.94 M 1106.37 653.93 1121.63 653.93 M 1121 661.91 1107 661.91 M 1107 669.9 1121 669.9 M 1123.21 677.88 1104.79 677.88 M 1101.49 685.87 1126.51 685.87 M 1133.04 693.85 1094.96 693.85 M 1085.02 701.84 1142.98 701.84 M 1164 664 1249 749 1394 749 1359 784 M 1382.5 781.69 1768.77 781.69 M 1760.78 773.7 1389.1 773.7 M 1397.08 765.72 1607.48 765.72 M 1624 749 1404 749 1394 749 M 1385.02 701.84 1442.98 701.84 M 1433.04 693.85 1394.96 693.85 M 1401.49 685.87 1426.51 685.87 M 1423.21 677.88 1404.79 677.88 M 1407 669.9 1421 669.9 M 1421 661.91 1407 661.91 M 1406.37 653.93 1421.63 653.93 M 1424.94 645.94 1403.06 645.94 M 1398.77 637.96 1429.23 637.96 M 1498.77 637.96 1529.23 637.96 M 1524.94 645.94 1503.06 645.94 M 1506.37 653.93 1521.63 653.93 M 1521 661.91 1507 661.91 M 1507 669.9 1521 669.9 M 1523.21 677.88 1504.79 677.88 M 1501.49 685.87 1526.51 685.87 M 1533.04 693.85 1494.96 693.85 M 1485.02 701.84 1542.98 701.84 M 1585.02 701.84 1642.98 701.84 M 1633.04 693.85 1594.96 693.85 M 1601.49 685.87 1626.51 685.87 M 1623.21 677.88 1604.79 677.88 M 1607 669.9 1621 669.9 M 1621 661.91 1607 661.91 M 1606.37 653.93 1621.63 653.93 M 1624.94 645.94 1603.06 645.94 M 1598.77 637.96 1629.23 637.96 M 1664 664 1689 664 1779.16 754.16 1779.16 758.84 M 1795.31 741.76 1895 741.76 M 1895 733.78 1778.58 733.78 M 1770.59 725.79 1895 725.79 M 1895 717.81 1762.61 717.81 M 1754.62 709.82 1895 709.82 M 1895 701.84 1885.02 701.84 M 1894.96 693.85 1895 693.85 M 1842.98 701.84 1785.02 701.84 M 1794.96 693.85 1833.04 693.85 M 1826.51 685.87 1801.49 685.87 M 1804.79 677.88 1823.21 677.88 M 1821 669.9 1807 669.9 M 1807 661.91 1821 661.91 M 1821.63 653.93 1806.37 653.93 M 1803.06 645.94 1824.94 645.94 M 1829.23 637.96 1798.77 637.96 M 1715.02 709.82 1229.62 709.82 M 1221.64 701.84 1242.98 701.84 M 1233.04 693.85 1213.65 693.85 M 1205.66 685.87 1226.51 685.87 M 1223.21 677.88 1204.79 677.88 M 1207 669.9 1221 669.9 M 1221 661.91 1207 661.91 M 1206.37 653.93 1221.63 653.93 M 1224.94 645.94 1203.06 645.94 M 1198.77 637.96 1229.23 637.96 M 1298.77 637.96 1329.23 637.96 M 1324.94 645.94 1303.06 645.94 M 1306.37 653.93 1321.63 653.93 M 1321 661.91 1307 661.91 M 1307 669.9 1321 669.9 M 1323.21 677.88 1304.79 677.88 M 1301.49 685.87 1326.51 685.87 M 1333.04 693.85 1294.96 693.85 M 1285.02 701.84 1342.98 701.84 M 1344.05 765.72 778.92 765.72 M 778.92 773.7 1336.06 773.7 M 1335.5 781.69 778.92 781.69 M 777.9 789.67 1335.5 789.67 M 1339.42 797.66 774.59 797.66 M 771.28 805.64 1347.41 805.64 M 1370.59 805.64 1895 805.64 M 1895 797.66 1378.58 797.66 M 1382.5 789.67 1895 789.67 M 1895 781.69 1789.55 781.69 M 1797.53 773.7 1895 773.7 M 1895 765.72 1802.66 765.72 M 1802.66 757.73 1895 757.73 M 1895 749.75 1802.66 749.75 M 1755.66 757.73 1647.5 757.73 M 1647.5 749.75 1754.95 749.75 M 1746.96 741.76 1647.5 741.76 M 1642.01 733.78 1738.98 733.78 M 1730.99 725.79 1634.03 725.79 M 1613.97 725.79 1245.59 725.79 M 1237.61 717.81 1723.01 717.81 M 1707.04 701.84 1685.02 701.84 M 1694.96 693.85 1699.05 693.85 M 1605.99 733.78 1253.58 733.78 M 1229.95 749.75 777.41 749.75 M 778.92 757.73 1237.93 757.73 M 1221.96 741.76 774.1 741.76 M 770.8 733.78 1213.98 733.78 M 1205.99 725.79 767.49 725.79 M 761.64 717.81 1198.01 717.81 M 1190.02 709.82 753.65 709.82 M 767.98 813.63 1895 813.63 M 1895 821.61 956.84 821.61 M 954.71 820.19 960.41 823.99 965.25 828.84 969.06 834.53 971.68 840.86 973.02 847.58 973.02 848.12 899.57 848.12 899.57 816.23 941.66 816.23 948.38 817.56 954.71 820.19 M 965.76 829.6 1895 829.6 M 1895 837.58 970.32 837.58 M 972.61 845.57 1895 845.57 M 1895 853.55 899.57 853.55 M 893.79 853.55 856.03 853.55 M 861.9 848.12 861.9 847.58 863.23 840.86 865.86 834.53 869.66 828.84 874.51 823.99 880.2 820.19 886.53 817.56 893.25 816.23 893.79 816.23 893.79 848.12 861.9 848.12 M 862.3 845.57 734.32 845.57 M 746.85 837.58 864.59 837.58 M 869.15 829.6 754.83 829.6 M 762.82 821.61 878.07 821.61 M 893.79 821.61 899.57 821.61 M 899.57 829.6 893.79 829.6 M 893.79 837.58 899.57 837.58 M 899.57 845.57 893.79 845.57 M 949.85 885.49 1895 885.49 M 1895 877.51 960.92 877.51 M 967.69 869.52 1895 869.52 M 1895 861.54 971.52 861.54 M 961.24 893.48 1016.29 893.48 M 1019.27 890.5 1038.73 890.5 1048.23 900 1249.8 900 1300.3 950.5 1313.73 950.5 1327.5 964.27 1327.5 983.73 1313.73 997.5 1294.27 997.5 1280.5 983.73 1280.5 970.3 1257.5 947.3 1257.5 953.73 1243.73 967.5 1224.27 967.5 1214.77 958 1028.23 958 1018.73 967.5 999.27 967.5 985.5 953.73 985.5 934.27 999.27 920.5 1005.5 920.5 1005.5 904.27 1019.27 890.5 M 1008.3 901.46 966.36 901.46 M 969.02 909.45 1005.5 909.45 M 1005.5 917.43 969.02 917.43 M 966.82 925.42 994.35 925.42 M 986.36 933.4 962.36 933.4 M 952.54 941.39 985.5 941.39 M 985.5 949.37 951.99 949.37 M 962.13 957.36 989.13 957.36 M 997.11 965.34 966.73 965.34 M 969.02 973.33 1280.5 973.33 M 1280.5 981.32 969.02 981.32 M 966.45 989.3 1286.07 989.3 M 1294.05 997.29 961.47 997.29 M 950.4 1005.27 1895 1005.27 M 1895 997.29 1313.95 997.29 M 1321.93 989.3 1895 989.3 M 1895 981.32 1327.5 981.32 M 1327.5 973.33 1895 973.33 M 1895 965.34 1327.5 965.34 M 1320.59 957.36 1895 957.36 M 1895 949.37 1299.17 949.37 M 1291.19 941.39 1895 941.39 M 1895 933.4 1283.2 933.4 M 1275.22 925.42 1895 925.42 M 1895 917.43 1267.23 917.43 M 1259.25 909.45 1895 909.45 M 1895 901.46 1251.26 901.46 M 1244 914 1304 974 M 1275.55 965.34 1245.89 965.34 M 1253.87 957.36 1267.56 957.36 M 1259.58 949.37 1257.5 949.37 M 1234 944 1009 944 M 1020.89 965.34 1222.11 965.34 M 1244 914 1029 914 M 1041.71 893.48 1895 893.48 M 1895 1013.26 767.51 1013.26 M 770.82 1021.24 1895 1021.24 M 1895 1029.23 774.13 1029.23 M 777.44 1037.21 1895 1037.21 M 1895 1045.2 778.92 1045.2 M 778.92 1053.18 1895 1053.18 M 1895 1061.17 778.92 1061.17 M 778.92 1069.15 1895 1069.15 M 1895 1077.14 777.87 1077.14 M 774.57 1085.12 1895 1085.12 M 1895 1093.11 771.26 1093.11 M 767.95 1101.09 1895 1101.09 M 1895 1109.08 762.75 1109.08 M 754.77 1117.06 1059.91 1117.06 M 1060 1117.06 1068 1117.06 M 1068.09 1117.06 1859.91 1117.06 M 1860 1117.06 1868 1117.06 M 1868.09 1117.06 1895 1117.06 M 1895 1125.05 1890.35 1125.05 M 1868 1125.05 1860 1125.05 M 1860 1133.03 1868 1133.03 M 1868 1141.02 1860 1141.02 M 1860 1149 1868 1149 M 1868 1156.99 1860 1156.99 M 1860 1164.97 1807 1164.97 M 1807 1156.99 1817.52 1156.99 M 1819.45 1149 1804.33 1149 M 1801.02 1141.02 1822.96 1141.02 M 1828.5 1133.03 1793.84 1133.03 M 1782.32 1125.05 1837.65 1125.05 M 1817.83 1172.96 1806.83 1172.96 M 1803.52 1180.94 1820.09 1180.94 M 1824.02 1188.93 1799.88 1188.93 M 1728.12 1188.93 1699.88 1188.93 M 1703.52 1180.94 1724.48 1180.94 M 1721.17 1172.96 1706.83 1172.96 M 1707 1164.97 1721 1164.97 M 1721 1156.99 1707 1156.99 M 1704.33 1149 1723.67 1149 M 1726.98 1141.02 1701.02 1141.02 M 1693.84 1133.03 1734.16 1133.03 M 1745.68 1125.05 1682.32 1125.05 M 1645.68 1125.05 1582.32 1125.05 M 1593.84 1133.03 1634.16 1133.03 M 1626.98 1141.02 1601.02 1141.02 M 1604.33 1149 1623.67 1149 M 1621 1156.99 1607 1156.99 M 1607 1164.97 1621 1164.97 M 1621.17 1172.96 1606.83 1172.96 M 1603.52 1180.94 1624.48 1180.94 M 1628.12 1188.93 1599.88 1188.93 M 1528.12 1188.93 1499.88 1188.93 M 1503.52 1180.94 1524.48 1180.94 M 1521.17 1172.96 1506.83 1172.96 M 1507 1164.97 1521 1164.97 M 1521 1156.99 1507 1156.99 M 1504.33 1149 1523.67 1149 M 1526.98 1141.02 1501.02 1141.02 M 1493.84 1133.03 1534.16 1133.03 M 1545.68 1125.05 1482.32 1125.05 M 1445.68 1125.05 1382.32 1125.05 M 1393.84 1133.03 1434.16 1133.03 M 1426.98 1141.02 1401.02 1141.02 M 1404.33 1149 1423.67 1149 M 1421 1156.99 1407 1156.99 M 1407 1164.97 1421 1164.97 M 1421.17 1172.96 1406.83 1172.96 M 1403.52 1180.94 1424.48 1180.94 M 1428.12 1188.93 1399.88 1188.93 M 1328.12 1188.93 1299.88 1188.93 M 1303.52 1180.94 1324.48 1180.94 M 1321.17 1172.96 1306.83 1172.96 M 1307 1164.97 1321 1164.97 M 1321 1156.99 1307 1156.99 M 1304.33 1149 1323.67 1149 M 1326.98 1141.02 1301.02 1141.02 M 1293.84 1133.03 1334.16 1133.03 M 1345.68 1125.05 1282.32 1125.05 M 1245.68 1125.05 1182.32 1125.05 M 1193.84 1133.03 1234.16 1133.03 M 1226.98 1141.02 1201.02 1141.02 M 1204.33 1149 1223.67 1149 M 1221 1156.99 1207 1156.99 M 1207 1164.97 1221 1164.97 M 1221.17 1172.96 1206.83 1172.96 M 1203.52 1180.94 1224.48 1180.94 M 1228.12 1188.93 1199.88 1188.93 M 1128.12 1188.93 1103.98 1188.93 M 1107.91 1180.94 1124.48 1180.94 M 1121.17 1172.96 1110.17 1172.96 M 1121 1164.97 1068 1164.97 M 1068 1156.99 1060 1156.99 M 1060 1164.97 1007 1164.97 M 1007 1156.99 1017.52 1156.99 M 1019.45 1149 1004.33 1149 M 1001.02 1141.02 1022.96 1141.02 M 1028.5 1133.03 993.84 1133.03 M 982.32 1125.05 1037.65 1125.05 M 1060 1125.05 1068 1125.05 M 1068 1133.03 1060 1133.03 M 1060 1141.02 1068 1141.02 M 1068 1149 1060 1149 M 1090.35 1125.05 1145.68 1125.05 M 1134.16 1133.03 1099.5 1133.03 M 1105.04 1141.02 1126.98 1141.02 M 1123.67 1149 1108.55 1149 M 1110.48 1156.99 1121 1156.99 M 1024.02 1188.93 999.88 1188.93 M 1003.52 1180.94 1020.09 1180.94 M 1017.83 1172.96 1006.83 1172.96 M 945.68 1125.05 746.78 1125.05 M 734.17 1133.03 934.16 1133.03 M 926.98 1141.02 714.89 1141.02 M 761.7 1005.27 884.52 1005.27 M 873.44 997.29 753.71 997.29 M 745.73 989.3 868.46 989.3 M 865.9 981.32 731.63 981.32 M 712.35 973.33 790.7 973.33 M 858.73 973.33 865.9 973.33 M 876.28 949.37 882.92 949.37 M 882.37 941.39 876.28 941.39 M 865.9 917.43 858.18 917.43 M 860.88 909.45 865.9 909.45 M 793.4 853.55 715.04 853.55 M 1640.52 765.72 1755.66 765.72" fill="none" stroke-width="8"/><use xlink:href="#eIZssqHHmWOA_pad-14" x="1779.16" y="758.84"/><use xlink:href="#eIZssqHHmWOA_pad-14" x="1854" y="829"/><use xlink:href="#eIZssqHHmWOA_pad-14" x="1684" y="979"/><use xlink:href="#eIZssqHHmWOA_pad-14" x="1624" y="749"/><use xlink:href="#eIZssqHHmWOA_pad-14" x="1359" y="784"/><use xlink:href="#eIZssqHHmWOA_pad-14" x="1359" y="849"/><use xlink:href="#eIZssqHHmWOA_pad-14" x="1244" y="779"/><use xlink:href="#eIZssqHHmWOA_pad-14" x="1029" y="914"/><use xlink:href="#eIZssqHHmWOA_pad-14" x="1009" y="944"/><use xlink:href="#eIZssqHHmWOA_pad-14" x="1014" y="1029"/><use xlink:href="#eIZssqHHmWOA_pad-14" x="1234" y="944"/><use xlink:href="#eIZssqHHmWOA_pad-14" x="1304" y="974"/><use xlink:href="#eIZssqHHmWOA_pad-14" x="1024" y="799"/></g><g id="pcb-stackup_bottom_ss"><path d="M 535.5 635.5 554.85 635.5 M 554.85 645.17 554.85 650.01 M 554.85 645.17 545.17 635.5 M 545.17 660.05 545.17 679.4 550.01 679.4 554.85 674.57 554.85 664.89 550.01 660.05 540.34 660.05 535.5 664.89 535.5 674.57 M 554.85 689.52 535.5 699.19 554.85 708.87 M 559.69 748.45 540.34 748.45 559.69 767.8 540.34 767.8 535.5 762.96 535.5 753.29 540.34 748.45 M 559.69 748.45 564.52 753.29 564.52 762.96 559.69 767.8 M 559.69 807.38 564.52 812.22 564.52 821.89 559.69 826.73 554.85 826.73 535.5 807.38 535.5 826.73 M 540.34 836.85 559.69 856.2 540.34 856.2 535.5 851.36 535.5 841.68 540.34 836.85 559.69 836.85 564.52 841.68 564.52 851.36 559.69 856.2 M 554.85 866.31 564.52 875.99 535.5 875.99 M 535.5 885.66 535.5 866.31 M 540.34 895.78 535.5 900.61 535.5 910.29 540.34 915.13 545.17 915.13 550.01 910.29 550.01 895.78 540.34 895.78 M 550.01 895.78 559.69 905.45 564.52 915.13 M 550.01 925.24 550.01 944.59 M 540.34 954.71 559.69 974.06 540.34 974.06 535.5 969.22 535.5 959.54 540.34 954.71 559.69 954.71 564.52 959.54 564.52 969.22 559.69 974.06 M 564.52 984.17 564.52 1003.52 559.69 1003.52 540.34 984.17 535.5 984.17 M 550.01 1013.64 550.01 1032.99 M 559.69 1043.1 564.52 1047.94 564.52 1057.61 559.69 1062.45 554.85 1062.45 535.5 1043.1 535.5 1062.45 M 535.5 1072.57 540.34 1072.57 559.69 1091.92 564.52 1091.92 564.52 1072.57" fill="none" stroke-width="3"/></g><g id="pcb-stackup_bottom_sm"><use xlink:href="#OtYkevemlHcK_pad-10" x="693.92" y="770.3"/><use xlink:href="#OtYkevemlHcK_pad-10" x="693.92" y="1057.7"/><path d="M 803.94 945.5 845.5 945.5 M 896.68 976.99 938.24 976.99 M 938.24 914 896.68 914 M 845.5 882.5 803.94 882.5 M 896.68 851.01 938.24 851.01" fill="none" stroke-width="47.56"/><use xlink:href="#OtYkevemlHcK_pad-12" x="964" y="664"/><use xlink:href="#OtYkevemlHcK_pad-12" x="1064" y="664"/><use xlink:href="#OtYkevemlHcK_pad-12" x="1164" y="664"/><use xlink:href="#OtYkevemlHcK_pad-12" x="1264" y="664"/><use xlink:href="#OtYkevemlHcK_pad-12" x="1364" y="664"/><use xlink:href="#OtYkevemlHcK_pad-12" x="1464" y="664"/><use xlink:href="#OtYkevemlHcK_pad-12" x="1564" y="664"/><use xlink:href="#OtYkevemlHcK_pad-12" x="1664" y="664"/><use xlink:href="#OtYkevemlHcK_pad-12" x="1764" y="664"/><use xlink:href="#OtYkevemlHcK_pad-12" x="1864" y="664"/><use xlink:href="#OtYkevemlHcK_pad-12" x="1864" y="1164"/><use xlink:href="#OtYkevemlHcK_pad-12" x="1764" y="1164"/><use xlink:href="#OtYkevemlHcK_pad-12" x="1664" y="1164"/><use xlink:href="#OtYkevemlHcK_pad-12" x="1564" y="1164"/><use xlink:href="#OtYkevemlHcK_pad-12" x="1464" y="1164"/><use xlink:href="#OtYkevemlHcK_pad-12" x="1364" y="1164"/><use xlink:href="#OtYkevemlHcK_pad-12" x="1264" y="1164"/><use xlink:href="#OtYkevemlHcK_pad-12" x="1164" y="1164"/><use xlink:href="#OtYkevemlHcK_pad-12" x="1064" y="1164"/><use xlink:href="#OtYkevemlHcK_pad-12" x="964" y="1164"/><use xlink:href="#OtYkevemlHcK_pad-13" x="1014" y="1029"/><use xlink:href="#OtYkevemlHcK_pad-13" x="1009" y="944"/><use xlink:href="#OtYkevemlHcK_pad-13" x="1029" y="914"/><use xlink:href="#OtYkevemlHcK_pad-13" x="1024" y="799"/><use xlink:href="#OtYkevemlHcK_pad-13" x="1234" y="944"/><use xlink:href="#OtYkevemlHcK_pad-13" x="1304" y="974"/><use xlink:href="#OtYkevemlHcK_pad-13" x="1359" y="849"/><use xlink:href="#OtYkevemlHcK_pad-13" x="1359" y="784"/><use xlink:href="#OtYkevemlHcK_pad-13" x="1244" y="779"/><use xlink:href="#OtYkevemlHcK_pad-13" x="1624" y="749"/><use xlink:href="#OtYkevemlHcK_pad-13" x="1779.16" y="758.84"/><use xlink:href="#OtYkevemlHcK_pad-13" x="1854" y="829"/><use xlink:href="#OtYkevemlHcK_pad-13" x="1684" y="979"/></g><g id="pcb-stackup_bottom_drl1"><use xlink:href="#k1K2kjxpqBRZ_pad-1" x="1024" y="799"/><use xlink:href="#k1K2kjxpqBRZ_pad-1" x="1029" y="914"/><use xlink:href="#k1K2kjxpqBRZ_pad-1" x="1009" y="944"/><use xlink:href="#k1K2kjxpqBRZ_pad-1" x="1014" y="1029"/><use xlink:href="#k1K2kjxpqBRZ_pad-1" x="1234" y="944"/><use xlink:href="#k1K2kjxpqBRZ_pad-1" x="1304" y="974"/><use xlink:href="#k1K2kjxpqBRZ_pad-1" x="1359" y="849"/><use xlink:href="#k1K2kjxpqBRZ_pad-1" x="1359" y="784"/><use xlink:href="#k1K2kjxpqBRZ_pad-1" x="1244" y="779"/><use xlink:href="#k1K2kjxpqBRZ_pad-1" x="1624" y="749"/><use xlink:href="#k1K2kjxpqBRZ_pad-1" x="1779.2" y="758.8"/><use xlink:href="#k1K2kjxpqBRZ_pad-1" x="1854" y="829"/><use xlink:href="#k1K2kjxpqBRZ_pad-1" x="1684" y="979"/><use xlink:href="#k1K2kjxpqBRZ_pad-2" x="896.7" y="977"/><use xlink:href="#k1K2kjxpqBRZ_pad-2" x="845.5" y="945.5"/><use xlink:href="#k1K2kjxpqBRZ_pad-2" x="896.7" y="914"/><use xlink:href="#k1K2kjxpqBRZ_pad-2" x="845.5" y="882.5"/><use xlink:href="#k1K2kjxpqBRZ_pad-2" x="896.7" y="851"/><use xlink:href="#k1K2kjxpqBRZ_pad-3" x="964" y="664"/><use xlink:href="#k1K2kjxpqBRZ_pad-3" x="1064" y="664"/><use xlink:href="#k1K2kjxpqBRZ_pad-3" x="1164" y="664"/><use xlink:href="#k1K2kjxpqBRZ_pad-3" x="1264" y="664"/><use xlink:href="#k1K2kjxpqBRZ_pad-3" x="1364" y="664"/><use xlink:href="#k1K2kjxpqBRZ_pad-3" x="1464" y="664"/><use xlink:href="#k1K2kjxpqBRZ_pad-3" x="1564" y="664"/><use xlink:href="#k1K2kjxpqBRZ_pad-3" x="1664" y="664"/><use xlink:href="#k1K2kjxpqBRZ_pad-3" x="1764" y="664"/><use xlink:href="#k1K2kjxpqBRZ_pad-3" x="1864" y="664"/><use xlink:href="#k1K2kjxpqBRZ_pad-3" x="1864" y="1164"/><use xlink:href="#k1K2kjxpqBRZ_pad-3" x="1764" y="1164"/><use xlink:href="#k1K2kjxpqBRZ_pad-3" x="1664" y="1164"/><use xlink:href="#k1K2kjxpqBRZ_pad-3" x="1564" y="1164"/><use xlink:href="#k1K2kjxpqBRZ_pad-3" x="1464" y="1164"/><use xlink:href="#k1K2kjxpqBRZ_pad-3" x="1364" y="1164"/><use xlink:href="#k1K2kjxpqBRZ_pad-3" x="1264" y="1164"/><use xlink:href="#k1K2kjxpqBRZ_pad-3" x="1164" y="1164"/><use xlink:href="#k1K2kjxpqBRZ_pad-3" x="1064" y="1164"/><use xlink:href="#k1K2kjxpqBRZ_pad-3" x="964" y="1164"/><use xlink:href="#k1K2kjxpqBRZ_pad-4" x="693.9" y="1057.7"/><use xlink:href="#k1K2kjxpqBRZ_pad-4" x="693.9" y="770.3"/></g><clipPath id="pcb-stackup_bottom_out"><path d="M 514 614 514 1214 1914 1214 1914 614 514 614" fill="none" stroke-width="0"/></clipPath><mask id="pcb-stackup_bottom_mech-mask"><g fill="#000" stroke="#000"><rect x="514" y="614" width="1400" height="600" fill="#fff"/><use xlink:href="#pcb-stackup_bottom_drl1"/></g></mask><mask id="pcb-stackup_bottom_cf-mask"><g fill="#fff" stroke="#fff"><use xlink:href="#pcb-stackup_bottom_sm"/></g></mask><mask id="pcb-stackup_bottom_sm-mask"><g fill="#000" stroke="#000"><rect x="514" y="614" width="1400" height="600" fill="#fff"/><use xlink:href="#pcb-stackup_bottom_sm"/></g></mask></defs><g transform="translate(0,1828) scale(1,-1)"><g mask="url(#pcb-stackup_bottom_mech-mask)" clip-path="url(#pcb-stackup_bottom_out)" transform="translate(2428,0) scale(-1,1)"><rect x="514" y="614" width="1400" height="600" fill="currentColor" class="pcb-stackup_fr4"/><use xlink:href="#pcb-stackup_bottom_cu" fill="currentColor" stroke="currentColor" class="pcb-stackup_cu"/><use xlink:href="#pcb-stackup_bottom_cu" fill="currentColor" stroke="currentColor" class="pcb-stackup_cf" mask="url(#pcb-stackup_bottom_cf-mask)"/><g mask="url(#pcb-stackup_bottom_sm-mask)"><rect x="514" y="614" width="1400" height="600" fill="currentColor" class="pcb-stackup_sm"/><use xlink:href="#pcb-stackup_bottom_ss" fill="currentColor" stroke="currentColor" class="pcb-stackup_ss"/></g><use xlink:href="#pcb-stackup_bottom_sp" fill="currentColor" stroke="currentColor" class="pcb-stackup_sp"/></g></g></svg>