<svg id="pcb-stackup_top" version="1.1" xmlns:xlink="http://www.w3.org/1999/xlink" stroke-linecap="round" stroke-linejoin="round" stroke-width="0" fill-rule="evenodd" clip-rule="evenodd" viewBox="514 614 1400 600" width="1.4in" height="0.6in" xmlns="http://www.w3.org/2000/svg"><defs><style>.pcb-stackup_fr4 {color: #4D542C;}
.pcb-stackup_cu {color: lightgrey;}
.pcb-stackup_cf {color: goldenrod;}
.pcb-stackup_sm {color: #2E0051; opacity: 0.9;}
.pcb-stackup_ss {color: white;}
.pcb-stackup_sp {color: #000000; opacity: 0;}
.pcb-stackup_out {color: black;}</style><rect x="-21.26" y="-20.67" width="42.52" height="41.34" id="hWpyvZwmEatB_pad-10"/><rect x="-19.685" y="-21.655" width="39.37" height="43.31" id="hWpyvZwmEatB_pad-11"/><rect x="-6" y="-19.5" width="12" height="39" id="hWpyvZwmEatB_pad-12"/><rect x="-11" y="-25" width="22" height="50" id="hWpyvZwmEatB_pad-13"/><rect x="-15.75" y="-15.75" width="31.5" height="31.5" id="hWpyvZwmEatB_pad-14"/><rect x="-21.26" y="-20.67" width="42.52" height="41.34" id="hWpyvZwmEatB_pad-10"/><rect x="-19.685" y="-21.655" width="39.37" height="43.31" id="hWpyvZwmEatB_pad-11"/><rect x="-6" y="-19.5" width="12" height="39" id="hWpyvZwmEatB_pad-12"/><rect x="-11" y="-25" width="22" height="50" id="hWpyvZwmEatB_pad-13"/><rect x="-15.75" y="-15.75" width="31.5" height="31.5" id="hWpyvZwmEatB_pad-14"/><rect x="-21.26" y="-20.67" width="42.52" height="41.34" id="nJSkhCJziBEo_pad-10"/><rect x="-19.685" y="-21.655" width="39.37" height="43.31" id="nJSkhCJziBEo_pad-11"/><rect x="-6" y="-19.5" width="12" height="39" id="nJSkhCJziBEo_pad-12"/><circle cx="0" cy="0" r="75" id="nJSkhCJziBEo_pad-13"/><circle cx="0" cy="0" r="33" id="nJSkhCJziBEo_pad-15"/><rect x="-11" y="-25" width="22" height="50" id="nJSkhCJziBEo_pad-16"/><rect x="-15.75" y="-15.75" width="31.5" height="31.5" id="nJSkhCJziBEo_pad-17"/><circle cx="0" cy="0" r="13.5" id="nJSkhCJziBEo_pad-19"/><rect x="-21.26" y="-20.67" width="42.52" height="41.34" id="hWpyvZwmEatB_pad-10"/><rect x="-19.685" y="-21.655" width="39.37" height="43.31" id="hWpyvZwmEatB_pad-11"/><rect x="-6" y="-19.5" width="12" height="39" id="hWpyvZwmEatB_pad-12"/><rect x="-11" y="-25" width="22" height="50" id="hWpyvZwmEatB_pad-13"/><rect x="-15.75" y="-15.75" width="31.5" height="31.5" id="hWpyvZwmEatB_pad-14"/><rect x="-21.26" y="-20.67" width="42.52" height="41.34" id="hWpyvZwmEatB_pad-10"/><rect x="-19.685" y="-21.655" width="39.37" height="43.31" id="hWpyvZwmEatB_pad-11"/><rect x="-6" y="-19.5" width="12" height="39" id="hWpyvZwmEatB_pad-12"/><rect x="-11" y="-25" width="22" height="50" id="hWpyvZwmEatB_pad-13"/><rect x="-15.75" y="-15.75" width="31.5" height="31.5" id="hWpyvZwmEatB_pad-14"/><rect x="-21.26" y="-20.67" width="42.52" height="41.34" id="nJSkhCJziBEo_pad-10"/><rect x="-19.685" y="-21.655" width="39.37" height="43.31" id="nJSkhCJziBEo_pad-11"/><rect x="-6" y="-19.5" width="12" height="39" id="nJSkhCJziBEo_pad-12"/><circle cx="0" cy="0" r="75" id="nJSkhCJziBEo_pad-13"/><circle cx="0" cy="0" r="33" id="nJSkhCJziBEo_pad-15"/><rect x="-11" y="-25" width="22" height="50" id="nJSkhCJziBEo_pad-16"/><rect x="-15.75" y="-15.75" width="31.5" height="31.5" id="nJSkhCJziBEo_pad-17"/><circle cx="0" cy="0" r="13.5" id="nJSkhCJziBEo_pad-19"/><rect x="-5.905" y="-2.955" width="11.81" height="5.91" id="V5ehpXec1RYI_pad-16"/><rect x="-5.905" y="-5.905" width="11.81" height="11.81" id="V5ehpXec1RYI_pad-17"/><rect x="-21.26" y="-20.67" width="42.52" height="41.34" id="hWpyvZwmEatB_pad-10"/><rect x="-19.685" y="-21.655" width="39.37" height="43.31" id="hWpyvZwmEatB_pad-11"/><rect x="-6" y="-19.5" width="12" height="39" id="hWpyvZwmEatB_pad-12"/><rect x="-11" y="-25" width="22" height="50" id="hWpyvZwmEatB_pad-13"/><rect x="-15.75" y="-15.75" width="31.5" height="31.5" id="hWpyvZwmEatB_pad-14"/><rect x="-21.26" y="-20.67" width="42.52" height="41.34" id="hWpyvZwmEatB_pad-10"/><rect x="-19.685" y="-21.655" width="39.37" height="43.31" id="hWpyvZwmEatB_pad-11"/><rect x="-6" y="-19.5" width="12" height="39" id="hWpyvZwmEatB_pad-12"/><rect x="-11" y="-25" width="22" height="50" id="hWpyvZwmEatB_pad-13"/><rect x="-15.75" y="-15.75" width="31.5" height="31.5" id="hWpyvZwmEatB_pad-14"/><rect x="-21.26" y="-20.67" width="42.52" height="41.34" id="nJSkhCJziBEo_pad-10"/><rect x="-19.685" y="-21.655" width="39.37" height="43.31" id="nJSkhCJziBEo_pad-11"/><rect x="-6" y="-19.5" width="12" height="39" id="nJSkhCJziBEo_pad-12"/><circle cx="0" cy="0" r="75" id="nJSkhCJziBEo_pad-13"/><circle cx="0" cy="0" r="33" id="nJSkhCJziBEo_pad-15"/><rect x="-11" y="-25" width="22" height="50" id="nJSkhCJziBEo_pad-16"/><rect x="-15.75" y="-15.75" width="31.5" height="31.5" id="nJSkhCJziBEo_pad-17"/><circle cx="0" cy="0" r="13.5" id="nJSkhCJziBEo_pad-19"/><rect x="-21.26" y="-20.67" width="42.52" height="41.34" id="hWpyvZwmEatB_pad-10"/><rect x="-19.685" y="-21.655" width="39.37" height="43.31" id="hWpyvZwmEatB_pad-11"/><rect x="-6" y="-19.5" width="12" height="39" id="hWpyvZwmEatB_pad-12"/><rect x="-11" y="-25" width="22" height="50" id="hWpyvZwmEatB_pad-13"/><rect x="-15.75" y="-15.75" width="31.5" height="31.5" id="hWpyvZwmEatB_pad-14"/><rect x="-21.26" y="-20.67" width="42.52" height="41.34" id="hWpyvZwmEatB_pad-10"/><rect x="-19.685" y="-21.655" width="39.37" height="43.31" id="hWpyvZwmEatB_pad-11"/><rect x="-6" y="-19.5" width="12" height="39" id="hWpyvZwmEatB_pad-12"/><rect x="-11" y="-25" width="22" height="50" id="hWpyvZwmEatB_pad-13"/><rect x="-15.75" y="-15.75" width="31.5" height="31.5" id="hWpyvZwmEatB_pad-14"/><rect x="-21.26" y="-20.67" width="42.52" height="41.34" id="nJSkhCJziBEo_pad-10"/><rect x="-19.685" y="-21.655" width="39.37" height="43.31" id="nJSkhCJziBEo_pad-11"/><rect x="-6" y="-19.5" width="12" height="39" id="nJSkhCJziBEo_pad-12"/><circle cx="0" cy="0" r="75" id="nJSkhCJziBEo_pad-13"/><circle cx="0" cy="0" r="33" id="nJSkhCJziBEo_pad-15"/><rect x="-11" y="-25" width="22" height="50" id="nJSkhCJziBEo_pad-16"/><rect x="-15.75" y="-15.75" width="31.5" height="31.5" id="nJSkhCJziBEo_pad-17"/><circle cx="0" cy="0" r="13.5" id="nJSkhCJziBEo_pad-19"/><rect x="-5.905" y="-2.955" width="11.81" height="5.91" id="V5ehpXec1RYI_pad-16"/><rect x="-5.905" y="-5.905" width="11.81" height="11.81" id="V5ehpXec1RYI_pad-17"/><rect x="-24.26" y="-23.67" width="48.52" height="47.34" id="FL0tV6BH2tut_pad-10"/><rect x="-22.685" y="-24.655" width="45.37" height="49.31" id="FL0tV6BH2tut_pad-11"/><rect x="-9" y="-22.5" width="18" height="45" id="FL0tV6BH2tut_pad-12"/><circle cx="0" cy="0" r="78" id="FL0tV6BH2tut_pad-13"/><circle cx="0" cy="0" r="36" id="FL0tV6BH2tut_pad-15"/><rect x="-14" y="-28" width="28" height="56" id="FL0tV6BH2tut_pad-16"/><rect x="-18.75" y="-18.75" width="37.5" height="37.5" id="FL0tV6BH2tut_pad-17"/><circle cx="0" cy="0" r="16.5" id="FL0tV6BH2tut_pad-18"/><rect x="-21.26" y="-20.67" width="42.52" height="41.34" id="hWpyvZwmEatB_pad-10"/><rect x="-19.685" y="-21.655" width="39.37" height="43.31" id="hWpyvZwmEatB_pad-11"/><rect x="-6" y="-19.5" width="12" height="39" id="hWpyvZwmEatB_pad-12"/><rect x="-11" y="-25" width="22" height="50" id="hWpyvZwmEatB_pad-13"/><rect x="-15.75" y="-15.75" width="31.5" height="31.5" id="hWpyvZwmEatB_pad-14"/><rect x="-21.26" y="-20.67" width="42.52" height="41.34" id="hWpyvZwmEatB_pad-10"/><rect x="-19.685" y="-21.655" width="39.37" height="43.31" id="hWpyvZwmEatB_pad-11"/><rect x="-6" y="-19.5" width="12" height="39" id="hWpyvZwmEatB_pad-12"/><rect x="-11" y="-25" width="22" height="50" id="hWpyvZwmEatB_pad-13"/><rect x="-15.75" y="-15.75" width="31.5" height="31.5" id="hWpyvZwmEatB_pad-14"/><rect x="-21.26" y="-20.67" width="42.52" height="41.34" id="nJSkhCJziBEo_pad-10"/><rect x="-19.685" y="-21.655" width="39.37" height="43.31" id="nJSkhCJziBEo_pad-11"/><rect x="-6" y="-19.5" width="12" height="39" id="nJSkhCJziBEo_pad-12"/><circle cx="0" cy="0" r="75" id="nJSkhCJziBEo_pad-13"/><circle cx="0" cy="0" r="33" id="nJSkhCJziBEo_pad-15"/><rect x="-11" y="-25" width="22" height="50" id="nJSkhCJziBEo_pad-16"/><rect x="-15.75" y="-15.75" width="31.5" height="31.5" id="nJSkhCJziBEo_pad-17"/><circle cx="0" cy="0" r="13.5" id="nJSkhCJziBEo_pad-19"/><rect x="-21.26" y="-20.67" width="42.52" height="41.34" id="hWpyvZwmEatB_pad-10"/><rect x="-19.685" y="-21.655" width="39.37" height="43.31" id="hWpyvZwmEatB_pad-11"/><rect x="-6" y="-19.5" width="12" height="39" id="hWpyvZwmEatB_pad-12"/><rect x="-11" y="-25" width="22" height="50" id="hWpyvZwmEatB_pad-13"/><rect x="-15.75" y="-15.75" width="31.5" height="31.5" id="hWpyvZwmEatB_pad-14"/><rect x="-21.26" y="-20.67" width="42.52" height="41.34" id="hWpyvZwmEatB_pad-10"/><rect x="-19.685" y="-21.655" width="39.37" height="43.31" id="hWpyvZwmEatB_pad-11"/><rect x="-6" y="-19.5" width="12" height="39" id="hWpyvZwmEatB_pad-12"/><rect x="-11" y="-25" width="22" height="50" id="hWpyvZwmEatB_pad-13"/><rect x="-15.75" y="-15.75" width="31.5" height="31.5" id="hWpyvZwmEatB_pad-14"/><rect x="-21.26" y="-20.67" width="42.52" height="41.34" id="nJSkhCJziBEo_pad-10"/><rect x="-19.685" y="-21.655" width="39.37" height="43.31" id="nJSkhCJziBEo_pad-11"/><rect x="-6" y="-19.5" width="12" height="39" id="nJSkhCJziBEo_pad-12"/><circle cx="0" cy="0" r="75" id="nJSkhCJziBEo_pad-13"/><circle cx="0" cy="0" r="33" id="nJSkhCJziBEo_pad-15"/><rect x="-11" y="-25" width="22" height="50" id="nJSkhCJziBEo_pad-16"/><rect x="-15.75" y="-15.75" width="31.5" height="31.5" id="nJSkhCJziBEo_pad-17"/><circle cx="0" cy="0" r="13.5" id="nJSkhCJziBEo_pad-19"/><rect x="-5.905" y="-2.955" width="11.81" height="5.91" id="V5ehpXec1RYI_pad-16"/><rect x="-5.905" y="-5.905" width="11.81" height="11.81" id="V5ehpXec1RYI_pad-17"/><rect x="-21.26" y="-20.67" width="42.52" height="41.34" id="hWpyvZwmEatB_pad-10"/><rect x="-19.685" y="-21.655" width="39.37" height="43.31" id="hWpyvZwmEatB_pad-11"/><rect x="-6" y="-19.5" width="12" height="39" id="hWpyvZwmEatB_pad-12"/><rect x="-11" y="-25" width="22" height="50" id="hWpyvZwmEatB_pad-13"/><rect x="-15.75" y="-15.75" width="31.5" height="31.5" id="hWpyvZwmEatB_pad-14"/><rect x="-21.26" y="-20.67" width="42.52" height="41.34" id="hWpyvZwmEatB_pad-10"/><rect x="-19.685" y="-21.655" width="39.37" height="43.31" id="hWpyvZwmEatB_pad-11"/><rect x="-6" y="-19.5" width="12" height="39" id="hWpyvZwmEatB_pad-12"/><rect x="-11" y="-25" width="22" height="50" id="hWpyvZwmEatB_pad-13"/><rect x="-15.75" y="-15.75" width="31.5" height="31.5" id="hWpyvZwmEatB_pad-14"/><rect x="-21.26" y="-20.67" width="42.52" height="41.34" id="nJSkhCJziBEo_pad-10"/><rect x="-19.685" y="-21.655" width="39.37" height="43.31" id="nJSkhCJziBEo_pad-11"/><rect x="-6" y="-19.5" width="12" height="39" id="nJSkhCJziBEo_pad-12"/><circle cx="0" cy="0" r="75" id="nJSkhCJziBEo_pad-13"/><circle cx="0" cy="0" r="33" id="nJSkhCJziBEo_pad-15"/><rect x="-11" y="-25" width="22" height="50" id="nJSkhCJziBEo_pad-16"/><rect x="-15.75" y="-15.75" width="31.5" height="31.5" id="nJSkhCJziBEo_pad-17"/><circle cx="0" cy="0" r="13.5" id="nJSkhCJziBEo_pad-19"/><rect x="-21.26" y="-20.67" width="42.52" height="41.34" id="hWpyvZwmEatB_pad-10"/><rect x="-19.685" y="-21.655" width="39.37" height="43.31" id="hWpyvZwmEatB_pad-11"/><rect x="-6" y="-19.5" width="12" height="39" id="hWpyvZwmEatB_pad-12"/><rect x="-11" y="-25" width="22" height="50" id="hWpyvZwmEatB_pad-13"/><rect x="-15.75" y="-15.75" width="31.5" height="31.5" id="hWpyvZwmEatB_pad-14"/><rect x="-21.26" y="-20.67" width="42.52" height="41.34" id="hWpyvZwmEatB_pad-10"/><rect x="-19.685" y="-21.655" width="39.37" height="43.31" id="hWpyvZwmEatB_pad-11"/><rect x="-6" y="-19.5" width="12" height="39" id="hWpyvZwmEatB_pad-12"/><rect x="-11" y="-25" width="22" height="50" id="hWpyvZwmEatB_pad-13"/><rect x="-15.75" y="-15.75" width="31.5" height="31.5" id="hWpyvZwmEatB_pad-14"/><rect x="-21.26" y="-20.67" width="42.52" height="41.34" id="nJSkhCJziBEo_pad-10"/><rect x="-19.685" y="-21.655" width="39.37" height="43.31" id="nJSkhCJziBEo_pad-11"/><rect x="-6" y="-19.5" width="12" height="39" id="nJSkhCJziBEo_pad-12"/><circle cx="0" cy="0" r="75" id="nJSkhCJziBEo_pad-13"/><circle cx="0" cy="0" r="33" id="nJSkhCJziBEo_pad-15"/><rect x="-11" y="-25" width="22" height="50" id="nJSkhCJziBEo_pad-16"/><rect x="-15.75" y="-15.75" width="31.5" height="31.5" id="nJSkhCJziBEo_pad-17"/><circle cx="0" cy="0" r="13.5" id="nJSkhCJziBEo_pad-19"/><rect x="-5.905" y="-2.955" width="11.81" height="5.91" id="V5ehpXec1RYI_pad-16"/><rect x="-5.905" y="-5.905" width="11.81" height="11.81" id="V5ehpXec1RYI_pad-17"/><rect x="-24.26" y="-23.67" width="48.52" height="47.34" id="FL0tV6BH2tut_pad-10"/><rect x="-22.685" y="-24.655" width="45.37" height="49.31" id="FL0tV6BH2tut_pad-11"/><rect x="-9" y="-22.5" width="18" height="45" id="FL0tV6BH2tut_pad-12"/><circle cx="0" cy="0" r="78" id="FL0tV6BH2tut_pad-13"/><circle cx="0" cy="0" r="36" id="FL0tV6BH2tut_pad-15"/><rect x="-14" y="-28" width="28" height="56" id="FL0tV6BH2tut_pad-16"/><rect x="-18.75" y="-18.75" width="37.5" height="37.5" id="FL0tV6BH2tut_pad-17"/><circle cx="0" cy="0" r="16.5" id="FL0tV6BH2tut_pad-18"/><circle cx="0" cy="0" r="6.5" id="k1K2kjxpqBRZ_pad-1"/><circle cx="0" cy="0" r="13.8" id="k1K2kjxpqBRZ_pad-2"/><circle cx="0" cy="0" r="19.7" id="k1K2kjxpqBRZ_pad-3"/><circle cx="0" cy="0" r="39.35" id="k1K2kjxpqBRZ_pad-4"/><rect x="-21.26" y="-20.67" width="42.52" height="41.34" id="hWpyvZwmEatB_pad-10"/><rect x="-19.685" y="-21.655" width="39.37" height="43.31" id="hWpyvZwmEatB_pad-11"/><rect x="-6" y="-19.5" width="12" height="39" id="hWpyvZwmEatB_pad-12"/><rect x="-11" y="-25" width="22" height="50" id="hWpyvZwmEatB_pad-13"/><rect x="-15.75" y="-15.75" width="31.5" height="31.5" id="hWpyvZwmEatB_pad-14"/><rect x="-21.26" y="-20.67" width="42.52" height="41.34" id="hWpyvZwmEatB_pad-10"/><rect x="-19.685" y="-21.655" width="39.37" height="43.31" id="hWpyvZwmEatB_pad-11"/><rect x="-6" y="-19.5" width="12" height="39" id="hWpyvZwmEatB_pad-12"/><rect x="-11" y="-25" width="22" height="50" id="hWpyvZwmEatB_pad-13"/><rect x="-15.75" y="-15.75" width="31.5" height="31.5" id="hWpyvZwmEatB_pad-14"/><rect x="-21.26" y="-20.67" width="42.52" height="41.34" id="nJSkhCJziBEo_pad-10"/><rect x="-19.685" y="-21.655" width="39.37" height="43.31" id="nJSkhCJziBEo_pad-11"/><rect x="-6" y="-19.5" width="12" height="39" id="nJSkhCJziBEo_pad-12"/><circle cx="0" cy="0" r="75" id="nJSkhCJziBEo_pad-13"/><circle cx="0" cy="0" r="33" id="nJSkhCJziBEo_pad-15"/><rect x="-11" y="-25" width="22" height="50" id="nJSkhCJziBEo_pad-16"/><rect x="-15.75" y="-15.75" width="31.5" height="31.5" id="nJSkhCJziBEo_pad-17"/><circle cx="0" cy="0" r="13.5" id="nJSkhCJziBEo_pad-19"/><rect x="-21.26" y="-20.67" width="42.52" height="41.34" id="hWpyvZwmEatB_pad-10"/><rect x="-19.685" y="-21.655" width="39.37" height="43.31" id="hWpyvZwmEatB_pad-11"/><rect x="-6" y="-19.5" width="12" height="39" id="hWpyvZwmEatB_pad-12"/><rect x="-11" y="-25" width="22" height="50" id="hWpyvZwmEatB_pad-13"/><rect x="-15.75" y="-15.75" width="31.5" height="31.5" id="hWpyvZwmEatB_pad-14"/><rect x="-21.26" y="-20.67" width="42.52" height="41.34" id="hWpyvZwmEatB_pad-10"/><rect x="-19.685" y="-21.655" width="39.37" height="43.31" id="hWpyvZwmEatB_pad-11"/><rect x="-6" y="-19.5" width="12" height="39" id="hWpyvZwmEatB_pad-12"/><rect x="-11" y="-25" width="22" height="50" id="hWpyvZwmEatB_pad-13"/><rect x="-15.75" y="-15.75" width="31.5" height="31.5" id="hWpyvZwmEatB_pad-14"/><rect x="-21.26" y="-20.67" width="42.52" height="41.34" id="nJSkhCJziBEo_pad-10"/><rect x="-19.685" y="-21.655" width="39.37" height="43.31" id="nJSkhCJziBEo_pad-11"/><rect x="-6" y="-19.5" width="12" height="39" id="nJSkhCJziBEo_pad-12"/><circle cx="0" cy="0" r="75" id="nJSkhCJziBEo_pad-13"/><circle cx="0" cy="0" r="33" id="nJSkhCJziBEo_pad-15"/><rect x="-11" y="-25" width="22" height="50" id="nJSkhCJziBEo_pad-16"/><rect x="-15.75" y="-15.75" width="31.5" height="31.5" id="nJSkhCJziBEo_pad-17"/><circle cx="0" cy="0" r="13.5" id="nJSkhCJziBEo_pad-19"/><rect x="-5.905" y="-2.955" width="11.81" height="5.91" id="V5ehpXec1RYI_pad-16"/><rect x="-5.905" y="-5.905" width="11.81" height="11.81" id="V5ehpXec1RYI_pad-17"/><rect x="-21.26" y="-20.67" width="42.52" height="41.34" id="hWpyvZwmEatB_pad-10"/><rect x="-19.685" y="-21.655" width="39.37" height="43.31" id="hWpyvZwmEatB_pad-11"/><rect x="-6" y="-19.5" width="12" height="39" id="hWpyvZwmEatB_pad-12"/><rect x="-11" y="-25" width="22" height="50" id="hWpyvZwmEatB_pad-13"/><rect x="-15.75" y="-15.75" width="31.5" height="31.5" id="hWpyvZwmEatB_pad-14"/><rect x="-21.26" y="-20.67" width="42.52" height="41.34" id="hWpyvZwmEatB_pad-10"/><rect x="-19.685" y="-21.655" width="39.37" height="43.31" id="hWpyvZwmEatB_pad-11"/><rect x="-6" y="-19.5" width="12" height="39" id="hWpyvZwmEatB_pad-12"/><rect x="-11" y="-25" width="22" height="50" id="hWpyvZwmEatB_pad-13"/><rect x="-15.75" y="-15.75" width="31.5" height="31.5" id="hWpyvZwmEatB_pad-14"/><rect x="-21.26" y="-20.67" width="42.52" height="41.34" id="nJSkhCJziBEo_pad-10"/><rect x="-19.685" y="-21.655" width="39.37" height="43.31" id="nJSkhCJziBEo_pad-11"/><rect x="-6" y="-19.5" width="12" height="39" id="nJSkhCJziBEo_pad-12"/><circle cx="0" cy="0" r="75" id="nJSkhCJziBEo_pad-13"/><circle cx="0" cy="0" r="33" id="nJSkhCJziBEo_pad-15"/><rect x="-11" y="-25" width="22" height="50" id="nJSkhCJziBEo_pad-16"/><rect x="-15.75" y="-15.75" width="31.5" height="31.5" id="nJSkhCJziBEo_pad-17"/><circle cx="0" cy="0" r="13.5" id="nJSkhCJziBEo_pad-19"/><rect x="-21.26" y="-20.67" width="42.52" height="41.34" id="hWpyvZwmEatB_pad-10"/><rect x="-19.685" y="-21.655" width="39.37" height="43.31" id="hWpyvZwmEatB_pad-11"/><rect x="-6" y="-19.5" width="12" height="39" id="hWpyvZwmEatB_pad-12"/><rect x="-11" y="-25" width="22" height="50" id="hWpyvZwmEatB_pad-13"/><rect x="-15.75" y="-15.75" width="31.5" height="31.5" id="hWpyvZwmEatB_pad-14"/><rect x="-21.26" y="-20.67" width="42.52" height="41.34" id="hWpyvZwmEatB_pad-10"/><rect x="-19.685" y="-21.655" width="39.37" height="43.31" id="hWpyvZwmEatB_pad-11"/><rect x="-6" y="-19.5" width="12" height="39" id="hWpyvZwmEatB_pad-12"/><rect x="-11" y="-25" width="22" height="50" id="hWpyvZwmEatB_pad-13"/><rect x="-15.75" y="-15.75" width="31.5" height="31.5" id="hWpyvZwmEatB_pad-14"/><rect x="-21.26" y="-20.67" width="42.52" height="41.34" id="nJSkhCJziBEo_pad-10"/><rect x="-19.685" y="-21.655" width="39.37" height="43.31" id="nJSkhCJziBEo_pad-11"/><rect x="-6" y="-19.5" width="12" height="39" id="nJSkhCJziBEo_pad-12"/><circle cx="0" cy="0" r="75" id="nJSkhCJziBEo_pad-13"/><circle cx="0" cy="0" r="33" id="nJSkhCJziBEo_pad-15"/><rect x="-11" y="-25" width="22" height="50" id="nJSkhCJziBEo_pad-16"/><rect x="-15.75" y="-15.75" width="31.5" height="31.5" id="nJSkhCJziBEo_pad-17"/><circle cx="0" cy="0" r="13.5" id="nJSkhCJziBEo_pad-19"/><rect x="-5.905" y="-2.955" width="11.81" height="5.91" id="V5ehpXec1RYI_pad-16"/><rect x="-5.905" y="-5.905" width="11.81" height="11.81" id="V5ehpXec1RYI_pad-17"/><rect x="-24.26" y="-23.67" width="48.52" height="47.34" id="FL0tV6BH2tut_pad-10"/><rect x="-22.685" y="-24.655" width="45.37" height="49.31" id="FL0tV6BH2tut_pad-11"/><rect x="-9" y="-22.5" width="18" height="45" id="FL0tV6BH2tut_pad-12"/><circle cx="0" cy="0" r="78" id="FL0tV6BH2tut_pad-13"/><circle cx="0" cy="0" r="36" id="FL0tV6BH2tut_pad-15"/><rect x="-14" y="-28" width="28" height="56" id="FL0tV6BH2tut_pad-16"/><rect x="-18.75" y="-18.75" width="37.5" height="37.5" id="FL0tV6BH2tut_pad-17"/><circle cx="0" cy="0" r="16.5" id="FL0tV6BH2tut_pad-18"/><rect x="-21.26" y="-20.67" width="42.52" height="41.34" id="hWpyvZwmEatB_pad-10"/><rect x="-19.685" y="-21.655" width="39.37" height="43.31" id="hWpyvZwmEatB_pad-11"/><rect x="-6" y="-19.5" width="12" height="39" id="hWpyvZwmEatB_pad-12"/><rect x="-11" y="-25" width="22" height="50" id="hWpyvZwmEatB_pad-13"/><rect x="-15.75" y="-15.75" width="31.5" height="31.5" id="hWpyvZwmEatB_pad-14"/><rect x="-21.26" y="-20.67" width="42.52" height="41.34" id="hWpyvZwmEatB_pad-10"/><rect x="-19.685" y="-21.655" width="39.37" height="43.31" id="hWpyvZwmEatB_pad-11"/><rect x="-6" y="-19.5" width="12" height="39" id="hWpyvZwmEatB_pad-12"/><rect x="-11" y="-25" width="22" height="50" id="hWpyvZwmEatB_pad-13"/><rect x="-15.75" y="-15.75" width="31.5" height="31.5" id="hWpyvZwmEatB_pad-14"/><rect x="-21.26" y="-20.67" width="42.52" height="41.34" id="nJSkhCJziBEo_pad-10"/><rect x="-19.685" y="-21.655" width="39.37" height="43.31" id="nJSkhCJziBEo_pad-11"/><rect x="-6" y="-19.5" width="12" height="39" id="nJSkhCJziBEo_pad-12"/><circle cx="0" cy="0" r="75" id="nJSkhCJziBEo_pad-13"/><circle cx="0" cy="0" r="33" id="nJSkhCJziBEo_pad-15"/><rect x="-11" y="-25" width="22" height="50" id="nJSkhCJziBEo_pad-16"/><rect x="-15.75" y="-15.75" width="31.5" height="31.5" id="nJSkhCJziBEo_pad-17"/><circle cx="0" cy="0" r="13.5" id="nJSkhCJziBEo_pad-19"/><rect x="-21.26" y="-20.67" width="42.52" height="41.34" id="hWpyvZwmEatB_pad-10"/><rect x="-19.685" y="-21.655" width="39.37" height="43.31" id="hWpyvZwmEatB_pad-11"/><rect x="-6" y="-19.5" width="12" height="39" id="hWpyvZwmEatB_pad-12"/><rect x="-11" y="-25" width="22" height="50" id="hWpyvZwmEatB_pad-13"/><rect x="-15.75" y="-15.75" width="31.5" height="31.5" id="hWpyvZwmEatB_pad-14"/><rect x="-21.26" y="-20.67" width="42.52" height="41.34" id="hWpyvZwmEatB_pad-10"/><rect x="-19.685" y="-21.655" width="39.37" height="43.31" id="hWpyvZwmEatB_pad-11"/><rect x="-6" y="-19.5" width="12" height="39" id="hWpyvZwmEatB_pad-12"/><rect x="-11" y="-25" width="22" height="50" id="hWpyvZwmEatB_pad-13"/><rect x="-15.75" y="-15.75" width="31.5" height="31.5" id="hWpyvZwmEatB_pad-14"/><rect x="-21.26" y="-20.67" width="42.52" height="41.34" id="nJSkhCJziBEo_pad-10"/><rect x="-19.685" y="-21.655" width="39.37" height="43.31" id="nJSkhCJziBEo_pad-11"/><rect x="-6" y="-19.5" width="12" height="39" id="nJSkhCJziBEo_pad-12"/><circle cx="0" cy="0" r="75" id="nJSkhCJziBEo_pad-13"/><circle cx="0" cy="0" r="33" id="nJSkhCJziBEo_pad-15"/><rect x="-11" y="-25" width="22" height="50" id="nJSkhCJziBEo_pad-16"/><rect x="-15.75" y="-15.75" width="31.5" height="31.5" id="nJSkhCJziBEo_pad-17"/><circle cx="0" cy="0" r="13.5" id="nJSkhCJziBEo_pad-19"/><rect x="-5.905" y="-2.955" width="11.81" height="5.91" id="V5ehpXec1RYI_pad-16"/><rect x="-5.905" y="-5.905" width="11.81" height="11.81" id="V5ehpXec1RYI_pad-17"/><rect x="-21.26" y="-20.67" width="42.52" height="41.34" id="hWpyvZwmEatB_pad-10"/><rect x="-19.685" y="-21.655" width="39.37" height="43.31" id="hWpyvZwmEatB_pad-11"/><rect x="-6" y="-19.5" width="12" height="39" id="hWpyvZwmEatB_pad-12"/><rect x="-11" y="-25" width="22" height="50" id="hWpyvZwmEatB_pad-13"/><rect x="-15.75" y="-15.75" width="31.5" height="31.5" id="hWpyvZwmEatB_pad-14"/><rect x="-21.26" y="-20.67" width="42.52" height="41.34" id="hWpyvZwmEatB_pad-10"/><rect x="-19.685" y="-21.655" width="39.37" height="43.31" id="hWpyvZwmEatB_pad-11"/><rect x="-6" y="-19.5" width="12" height="39" id="hWpyvZwmEatB_pad-12"/><rect x="-11" y="-25" width="22" height="50" id="hWpyvZwmEatB_pad-13"/><rect x="-15.75" y="-15.75" width="31.5" height="31.5" id="hWpyvZwmEatB_pad-14"/><rect x="-21.26" y="-20.67" width="42.52" height="41.34" id="nJSkhCJziBEo_pad-10"/><rect x="-19.685" y="-21.655" width="39.37" height="43.31" id="nJSkhCJziBEo_pad-11"/><rect x="-6" y="-19.5" width="12" height="39" id="nJSkhCJziBEo_pad-12"/><circle cx="0" cy="0" r="75" id="nJSkhCJziBEo_pad-13"/><circle cx="0" cy="0" r="33" id="nJSkhCJziBEo_pad-15"/><rect x="-11" y="-25" width="22" height="50" id="nJSkhCJziBEo_pad-16"/><rect x="-15.75" y="-15.75" width="31.5" height="31.5" id="nJSkhCJziBEo_pad-17"/><circle cx="0" cy="0" r="13.5" id="nJSkhCJziBEo_pad-19"/><rect x="-21.26" y="-20.67" width="42.52" height="41.34" id="hWpyvZwmEatB_pad-10"/><rect x="-19.685" y="-21.655" width="39.37" height="43.31" id="hWpyvZwmEatB_pad-11"/><rect x="-6" y="-19.5" width="12" height="39" id="hWpyvZwmEatB_pad-12"/><rect x="-11" y="-25" width="22" height="50" id="hWpyvZwmEatB_pad-13"/><rect x="-15.75" y="-15.75" width="31.5" height="31.5" id="hWpyvZwmEatB_pad-14"/><rect x="-21.26" y="-20.67" width="42.52" height="41.34" id="hWpyvZwmEatB_pad-10"/><rect x="-19.685" y="-21.655" width="39.37" height="43.31" id="hWpyvZwmEatB_pad-11"/><rect x="-6" y="-19.5" width="12" height="39" id="hWpyvZwmEatB_pad-12"/><rect x="-11" y="-25" width="22" height="50" id="hWpyvZwmEatB_pad-13"/><rect x="-15.75" y="-15.75" width="31.5" height="31.5" id="hWpyvZwmEatB_pad-14"/><rect x="-21.26" y="-20.67" width="42.52" height="41.34" id="nJSkhCJziBEo_pad-10"/><rect x="-19.685" y="-21.655" width="39.37" height="43.31" id="nJSkhCJziBEo_pad-11"/><rect x="-6" y="-19.5" width="12" height="39" id="nJSkhCJziBEo_pad-12"/><circle cx="0" cy="0" r="75" id="nJSkhCJziBEo_pad-13"/><circle cx="0" cy="0" r="33" id="nJSkhCJziBEo_pad-15"/><rect x="-11" y="-25" width="22" height="50" id="nJSkhCJziBEo_pad-16"/><rect x="-15.75" y="-15.75" width="31.5" height="31.5" id="nJSkhCJziBEo_pad-17"/><circle cx="0" cy="0" r="13.5" id="nJSkhCJziBEo_pad-19"/><rect x="-5.905" y="-2.955" width="11.81" height="5.91" id="V5ehpXec1RYI_pad-16"/><rect x="-5.905" y="-5.905" width="11.81" height="11.81" id="V5ehpXec1RYI_pad-17"/><rect x="-24.26" y="-23.67" width="48.52" height="47.34" id="FL0tV6BH2tut_pad-10"/><rect x="-22.685" y="-24.655" width="45.37" height="49.31" id="FL0tV6BH2tut_pad-11"/><rect x="-9" y="-22.5" width="18" height="45" id="FL0tV6BH2tut_pad-12"/><circle cx="0" cy="0" r="78" id="FL0tV6BH2tut_pad-13"/><circle cx="0" cy="0" r="36" id="FL0tV6BH2tut_pad-15"/><rect x="-14" y="-28" width="28" height="56" id="FL0tV6BH2tut_pad-16"/><rect x="-18.75" y="-18.75" width="37.5" height="37.5" id="FL0tV6BH2tut_pad-17"/><circle cx="0" cy="0" r="16.5" id="FL0tV6BH2tut_pad-18"/><circle cx="0" cy="0" r="6.5" id="k1K2kjxpqBRZ_pad-1"/><circle cx="0" cy="0" r="13.8" id="k1K2kjxpqBRZ_pad-2"/><circle cx="0" cy="0" r="19.7" id="k1K2kjxpqBRZ_pad-3"/><circle cx="0" cy="0" r="39.35" id="k1K2kjxpqBRZ_pad-4"/><g id="pcb-stackup_top_sp"><use xlink:href="#hWpyvZwmEatB_pad-10" x="1244" y="829.55"/><use xlink:href="#hWpyvZwmEatB_pad-10" x="1309" y="848.45"/><use xlink:href="#hWpyvZwmEatB_pad-10" x="1244" y="898.45"/><use xlink:href="#hWpyvZwmEatB_pad-10" x="1309" y="779.55"/><use xlink:href="#hWpyvZwmEatB_pad-10" x="1064" y="959.55"/><use xlink:href="#hWpyvZwmEatB_pad-10" x="1064" y="1028.45"/><use xlink:href="#hWpyvZwmEatB_pad-10" x="1854" y="948.45"/><use xlink:href="#hWpyvZwmEatB_pad-10" x="1854" y="879.55"/><use xlink:href="#hWpyvZwmEatB_pad-11" x="1477.46" y="814"/><use xlink:href="#hWpyvZwmEatB_pad-11" x="1410.54" y="814"/><use xlink:href="#hWpyvZwmEatB_pad-11" x="1427.46" y="934"/><use xlink:href="#hWpyvZwmEatB_pad-11" x="1360.54" y="934"/><use xlink:href="#hWpyvZwmEatB_pad-11" x="1360.54" y="1034"/><use xlink:href="#hWpyvZwmEatB_pad-11" x="1427.46" y="1034"/><use xlink:href="#hWpyvZwmEatB_pad-11" x="857.46" y="664"/><use xlink:href="#hWpyvZwmEatB_pad-11" x="790.54" y="664"/><use xlink:href="#hWpyvZwmEatB_pad-12" x="1548.84" y="799.13"/><use xlink:href="#hWpyvZwmEatB_pad-12" x="1574.43" y="799.13"/><use xlink:href="#hWpyvZwmEatB_pad-12" x="1600.02" y="799.13"/><use xlink:href="#hWpyvZwmEatB_pad-12" x="1625.61" y="799.13"/><use xlink:href="#hWpyvZwmEatB_pad-12" x="1651.2" y="799.13"/><use xlink:href="#hWpyvZwmEatB_pad-12" x="1676.8" y="799.13"/><use xlink:href="#hWpyvZwmEatB_pad-12" x="1702.39" y="799.13"/><use xlink:href="#hWpyvZwmEatB_pad-12" x="1727.98" y="799.13"/><use xlink:href="#hWpyvZwmEatB_pad-12" x="1753.57" y="799.13"/><use xlink:href="#hWpyvZwmEatB_pad-12" x="1779.16" y="799.13"/><use xlink:href="#hWpyvZwmEatB_pad-12" x="1779.16" y="1028.87"/><use xlink:href="#hWpyvZwmEatB_pad-12" x="1753.57" y="1028.87"/><use xlink:href="#hWpyvZwmEatB_pad-12" x="1727.98" y="1028.87"/><use xlink:href="#hWpyvZwmEatB_pad-12" x="1702.39" y="1028.87"/><use xlink:href="#hWpyvZwmEatB_pad-12" x="1676.8" y="1028.87"/><use xlink:href="#hWpyvZwmEatB_pad-12" x="1651.2" y="1028.87"/><use xlink:href="#hWpyvZwmEatB_pad-12" x="1625.61" y="1028.87"/><use xlink:href="#hWpyvZwmEatB_pad-12" x="1600.02" y="1028.87"/><use xlink:href="#hWpyvZwmEatB_pad-12" x="1574.43" y="1028.87"/><use xlink:href="#hWpyvZwmEatB_pad-12" x="1548.84" y="1028.87"/><use xlink:href="#hWpyvZwmEatB_pad-13" x="1141" y="798"/><use xlink:href="#hWpyvZwmEatB_pad-13" x="1067" y="798"/><use xlink:href="#hWpyvZwmEatB_pad-13" x="1104" y="880"/><use xlink:href="#hWpyvZwmEatB_pad-14" x="554.47" y="664"/><use xlink:href="#hWpyvZwmEatB_pad-14" x="613.53" y="664"/></g><g id="pcb-stackup_top_cu"><use xlink:href="#nJSkhCJziBEo_pad-10" x="1244" y="829.55"/><use xlink:href="#nJSkhCJziBEo_pad-10" x="1309" y="848.45"/><use xlink:href="#nJSkhCJziBEo_pad-10" x="1244" y="898.45"/><use xlink:href="#nJSkhCJziBEo_pad-10" x="1309" y="779.55"/><use xlink:href="#nJSkhCJziBEo_pad-10" x="1064" y="959.55"/><use xlink:href="#nJSkhCJziBEo_pad-10" x="1064" y="1028.45"/><use xlink:href="#nJSkhCJziBEo_pad-10" x="1854" y="948.45"/><use xlink:href="#nJSkhCJziBEo_pad-10" x="1854" y="879.55"/><use xlink:href="#nJSkhCJziBEo_pad-11" x="1477.46" y="814"/><use xlink:href="#nJSkhCJziBEo_pad-11" x="1410.54" y="814"/><use xlink:href="#nJSkhCJziBEo_pad-11" x="1427.46" y="934"/><use xlink:href="#nJSkhCJziBEo_pad-11" x="1360.54" y="934"/><use xlink:href="#nJSkhCJziBEo_pad-11" x="1360.54" y="1034"/><use xlink:href="#nJSkhCJziBEo_pad-11" x="1427.46" y="1034"/><use xlink:href="#nJSkhCJziBEo_pad-11" x="857.46" y="664"/><use xlink:href="#nJSkhCJziBEo_pad-11" x="790.54" y="664"/><use xlink:href="#nJSkhCJziBEo_pad-12" x="1548.84" y="799.13"/><use xlink:href="#nJSkhCJziBEo_pad-12" x="1574.43" y="799.13"/><use xlink:href="#nJSkhCJziBEo_pad-12" x="1600.02" y="799.13"/><use xlink:href="#nJSkhCJziBEo_pad-12" x="1625.61" y="799.13"/><use xlink:href="#nJSkhCJziBEo_pad-12" x="1651.2" y="799.13"/><use xlink:href="#nJSkhCJziBEo_pad-12" x="1676.8" y="799.13"/><use xlink:href="#nJSkhCJziBEo_pad-12" x="1702.39" y="799.13"/><use xlink:href="#nJSkhCJziBEo_pad-12" x="1727.98" y="799.13"/><use xlink:href="#nJSkhCJziBEo_pad-12" x="1753.57" y="799.13"/><use xlink:href="#nJSkhCJziBEo_pad-12" x="1779.16" y="799.13"/><use xlink:href="#nJSkhCJziBEo_pad-12" x="1779.16" y="1028.87"/><use xlink:href="#nJSkhCJziBEo_pad-12" x="1753.57" y="1028.87"/><use xlink:href="#nJSkhCJziBEo_pad-12" x="1727.98" y="1028.87"/><use xlink:href="#nJSkhCJziBEo_pad-12" x="1702.39" y="1028.87"/><use xlink:href="#nJSkhCJziBEo_pad-12" x="1676.8" y="1028.87"/><use xlink:href="#nJSkhCJziBEo_pad-12" x="1651.2" y="1028.87"/><use xlink:href="#nJSkhCJziBEo_pad-12" x="1625.61" y="1028.87"/><use xlink:href="#nJSkhCJziBEo_pad-12" x="1600.02" y="1028.87"/><use xlink:href="#nJSkhCJziBEo_pad-12" x="1574.43" y="1028.87"/><use xlink:href="#nJSkhCJziBEo_pad-12" x="1548.84" y="1028.87"/><use xlink:href="#nJSkhCJziBEo_pad-13" x="693.92" y="1057.7"/><use xlink:href="#nJSkhCJziBEo_pad-13" x="693.92" y="770.3"/><path d="M 803.94 882.5 845.5 882.5 M 896.68 851.01 938.24 851.01 M 938.24 914 896.68 914 M 845.5 945.5 803.94 945.5 M 896.68 976.99 938.24 976.99" fill="none" stroke-width="41.56"/><use xlink:href="#nJSkhCJziBEo_pad-15" x="964" y="1164"/><use xlink:href="#nJSkhCJziBEo_pad-15" x="1064" y="1164"/><use xlink:href="#nJSkhCJziBEo_pad-15" x="1164" y="1164"/><use xlink:href="#nJSkhCJziBEo_pad-15" x="1264" y="1164"/><use xlink:href="#nJSkhCJziBEo_pad-15" x="1364" y="1164"/><use xlink:href="#nJSkhCJziBEo_pad-15" x="1464" y="1164"/><use xlink:href="#nJSkhCJziBEo_pad-15" x="1564" y="1164"/><use xlink:href="#nJSkhCJziBEo_pad-15" x="1664" y="1164"/><use xlink:href="#nJSkhCJziBEo_pad-15" x="1764" y="1164"/><use xlink:href="#nJSkhCJziBEo_pad-15" x="1864" y="1164"/><use xlink:href="#nJSkhCJziBEo_pad-15" x="1864" y="664"/><use xlink:href="#nJSkhCJziBEo_pad-15" x="1764" y="664"/><use xlink:href="#nJSkhCJziBEo_pad-15" x="1664" y="664"/><use xlink:href="#nJSkhCJziBEo_pad-15" x="1564" y="664"/><use xlink:href="#nJSkhCJziBEo_pad-15" x="1464" y="664"/><use xlink:href="#nJSkhCJziBEo_pad-15" x="1364" y="664"/><use xlink:href="#nJSkhCJziBEo_pad-15" x="1264" y="664"/><use xlink:href="#nJSkhCJziBEo_pad-15" x="1164" y="664"/><use xlink:href="#nJSkhCJziBEo_pad-15" x="1064" y="664"/><use xlink:href="#nJSkhCJziBEo_pad-15" x="964" y="664"/><use xlink:href="#nJSkhCJziBEo_pad-16" x="1067" y="798"/><use xlink:href="#nJSkhCJziBEo_pad-16" x="1141" y="798"/><use xlink:href="#nJSkhCJziBEo_pad-16" x="1104" y="880"/><use xlink:href="#nJSkhCJziBEo_pad-17" x="613.53" y="664"/><use xlink:href="#nJSkhCJziBEo_pad-17" x="554.47" y="664"/><path d="M 533 635.39 533 633 766.05 633 760.85 638.2 760.85 648 639.28 648 639.28 644.11 633.42 638.25 593.64 638.25 587.78 644.11 587.78 683.89 593.64 689.75 633.42 689.75 639.28 683.89 639.28 680 760.85 680 760.85 689.8 766.71 695.65 814.36 695.65 820.22 689.8 820.22 638.2 815.02 633 832.98 633 827.78 638.2 827.78 689.8 833.64 695.65 881.29 695.65 887.15 689.8 887.15 680 924.08 680 927.55 688.36 939.64 700.45 955.45 707 972.55 707 982.83 702.74 1007.96 725.58 1012.37 730 1012.81 730 1013.14 730.3 1019.38 730 1062.37 730 1120 787.63 1120 827.14 1125.86 833 1150.37 833 1212.74 895.37 1212.74 902.63 1148 967.37 1148 1124.08 1139.64 1127.55 1127.55 1139.64 1121 1155.45 1121 1172.55 1127.55 1188.36 1134.19 1195 1099.47 1195 1099.85 1194.62 1104.2 1188.63 1107.56 1182.04 1109.84 1175.01 1110.95 1168 1068 1168 1068 1160 1110.95 1160 1109.84 1152.99 1107.56 1145.96 1104.2 1139.37 1099.85 1133.38 1094.62 1128.15 1088.63 1123.8 1082.04 1120.44 1075.01 1118.16 1068 1117.05 1068 1160 1060 1160 1060 1117.05 1052.99 1118.16 1045.96 1120.44 1039.37 1123.8 1033.38 1128.15 1028.15 1133.38 1023.8 1139.37 1020.44 1145.96 1018.16 1152.99 1017.05 1160 1060 1160 1060 1168 1017.05 1168 1018.16 1175.01 1020.44 1182.04 1023.8 1188.63 1028.15 1194.62 1028.53 1195 993.81 1195 1000.45 1188.36 1007 1172.55 1007 1155.45 1000.45 1139.64 988.36 1127.55 980 1124.08 980 1018.62 1005.63 992.99 1046.28 992.99 1047.37 993.78 1040.9 993.78 1037.34 994.73 1034.14 996.58 1031.54 999.18 1029.69 1002.38 1028.74 1005.94 1028.74 1024.45 1060 1024.45 1060 1032.45 1060 1063.12 1040.9 1063.12 1037.34 1062.16 1034.14 1060.32 1031.54 1057.71 1029.69 1054.52 1028.74 1050.96 1028.74 1032.45 1060 1032.45 1068 1032.45 1068 1063.12 1087.1 1063.12 1090.66 1062.16 1093.86 1060.32 1096.46 1057.71 1098.31 1054.52 1099.26 1050.96 1099.26 1032.45 1068 1032.45 1068 1024.45 1099.26 1024.45 1099.26 1005.94 1098.31 1002.38 1096.46 999.18 1093.86 996.58 1090.66 994.73 1087.1 993.78 1068 993.78 1068 1024.45 1060 1024.45 1060 993.78 1047.89 993.78 1052.73 992.99 1058.07 992.99 1059.1 991.96 1060.55 991.72 1061.63 990.22 1089.4 990.22 1095.26 984.36 1095.26 934.74 1093.07 932.55 1110.63 915 1119.14 915 1125 909.14 1125 850.86 1119.14 845 1088.86 845 1083 850.86 1083 897.37 1057.37 923 1051.49 928.88 1047.35 928.88 1052.5 923.73 1052.5 904.27 1038.73 890.5 1019.27 890.5 1009.77 900 965.75 900 964.33 896.56 955.67 887.91 947.67 884.59 948.38 884.45 954.71 881.83 960.41 878.02 965.25 873.18 969.06 867.48 971.68 861.15 973.02 854.43 973.02 853.9 899.57 853.9 899.57 848.12 973.02 848.12 973.02 847.58 971.68 840.86 969.06 834.53 965.25 828.84 960.41 823.99 954.71 820.19 948.38 817.56 941.66 816.23 899.57 816.23 899.57 848.12 893.79 848.12 893.79 816.23 893.25 816.23 886.53 817.56 880.2 820.19 874.51 823.99 869.66 828.84 865.86 834.53 863.23 840.86 861.9 847.58 861.9 848.12 893.79 848.12 893.79 853.9 861.9 853.9 861.9 854.43 862.23 856.12 851.62 851.72 797.81 851.72 786.5 856.41 777.84 865.07 773.16 876.38 773.16 888.63 777.84 899.94 786.5 908.6 797.81 913.28 851.62 913.28 862.93 908.6 867.49 904.04 865.9 907.88 865.9 920.12 867.49 923.96 862.93 919.4 851.62 914.72 797.81 914.72 786.5 919.4 777.84 928.06 773.16 939.37 773.16 951.62 777.84 962.93 786.5 971.59 797.81 976.28 851.62 976.28 862.93 971.59 867.49 967.03 865.9 970.87 865.9 983.11 870.58 994.43 879.24 1003.09 890.55 1007.77 944.36 1007.77 948 1006.26 948 1124.08 939.64 1127.55 927.55 1139.64 921 1155.45 921 1172.55 927.55 1188.36 934.19 1195 533 1195 533 692.61 533.32 692.79 536.88 693.75 550.6 693.75 550.6 667.87 558.35 667.87 584.22 667.87 584.22 681.59 583.27 685.15 581.42 688.34 578.82 690.95 575.62 692.79 572.06 693.75 558.35 693.75 558.35 667.87 558.35 660.13 584.22 660.13 584.22 646.41 583.27 642.85 581.42 639.66 578.82 637.05 575.62 635.21 572.06 634.25 558.35 634.25 558.35 660.13 550.6 660.13 550.6 634.25 536.88 634.25 533.32 635.21 533 635.39 M 550.6 637.96 558.35 637.96 M 558.35 645.94 550.6 645.94 M 550.6 653.93 558.35 653.93 M 558.35 661.91 587.78 661.91 M 587.78 653.93 584.22 653.93 M 584.09 645.94 587.78 645.94 M 579.72 637.96 761.1 637.96 M 760.85 645.94 639.28 645.94 M 637.3 685.87 675.65 685.87 M 677.01 685.3 710.83 685.3 742.07 698.24 765.98 722.15 778.92 753.39 778.92 787.21 765.98 818.45 742.07 842.36 710.83 855.3 677.01 855.3 645.77 842.36 621.86 818.45 608.92 787.21 608.92 753.39 621.86 722.15 645.77 698.24 677.01 685.3 M 656.37 693.85 533 693.85 M 533 701.84 642.18 701.84 M 634.19 709.82 533 709.82 M 533 717.81 626.21 717.81 M 620.35 725.79 533 725.79 M 533 733.78 617.05 733.78 M 613.74 741.76 533 741.76 M 533 749.75 610.43 749.75 M 608.92 757.73 533 757.73 M 533 765.72 608.92 765.72 M 608.92 773.7 533 773.7 M 533 781.69 608.92 781.69 M 609.94 789.67 533 789.67 M 533 797.66 613.25 797.66 M 616.56 805.64 533 805.64 M 533 813.63 619.87 813.63 M 625.03 821.61 533 821.61 M 533 829.6 633.01 829.6 M 641 837.58 533 837.58 M 533 845.57 653.52 845.57 M 672.8 853.55 533 853.55 M 533 861.54 781.37 861.54 M 776 869.52 533 869.52 M 533 877.51 773.16 877.51 M 773.16 885.49 533 885.49 M 533 893.48 775.17 893.48 M 779.37 901.46 533 901.46 M 533 909.45 788.56 909.45 M 791.25 917.43 533 917.43 M 533 925.42 780.48 925.42 M 775.63 933.4 533 933.4 M 533 941.39 773.16 941.39 M 773.16 949.37 533 949.37 M 533 957.36 775.54 957.36 M 780.26 965.34 533 965.34 M 533 973.33 675.49 973.33 M 677.01 972.7 710.83 972.7 742.07 985.64 765.98 1009.55 778.92 1040.79 778.92 1074.61 765.98 1105.85 742.07 1129.76 710.83 1142.7 677.01 1142.7 645.77 1129.76 621.86 1105.85 608.92 1074.61 608.92 1040.79 621.86 1009.55 645.77 985.64 677.01 972.7 M 656.22 981.32 533 981.32 M 533 989.3 642.11 989.3 M 634.13 997.29 533 997.29 M 533 1005.27 626.14 1005.27 M 620.33 1013.26 533 1013.26 M 533 1021.24 617.02 1021.24 M 613.71 1029.23 533 1029.23 M 533 1037.21 610.41 1037.21 M 608.92 1045.2 533 1045.2 M 533 1053.18 608.92 1053.18 M 608.92 1061.17 533 1061.17 M 533 1069.15 608.92 1069.15 M 609.97 1077.14 533 1077.14 M 533 1085.12 613.28 1085.12 M 616.58 1093.11 533 1093.11 M 533 1101.09 619.89 1101.09 M 625.09 1109.08 533 1109.08 M 533 1117.06 633.07 1117.06 M 641.06 1125.05 533 1125.05 M 533 1133.03 653.67 1133.03 M 672.95 1141.02 533 1141.02 M 533 1149 923.67 1149 M 921 1156.99 533 1156.99 M 533 1164.97 921 1164.97 M 921.17 1172.96 533 1172.96 M 533 1180.94 924.48 1180.94 M 928.12 1188.93 533 1188.93 M 714.89 1141.02 926.98 1141.02 M 934.16 1133.03 734.17 1133.03 M 746.78 1125.05 945.68 1125.05 M 948 1117.06 754.77 1117.06 M 762.75 1109.08 948 1109.08 M 948 1101.09 767.95 1101.09 M 771.26 1093.11 948 1093.11 M 948 1085.12 774.57 1085.12 M 777.87 1077.14 948 1077.14 M 948 1069.15 778.92 1069.15 M 778.92 1061.17 948 1061.17 M 948 1053.18 778.92 1053.18 M 778.92 1045.2 948 1045.2 M 948 1037.21 777.44 1037.21 M 774.13 1029.23 948 1029.23 M 948 1021.24 770.82 1021.24 M 767.51 1013.26 948 1013.26 M 980 1021.24 1028.74 1021.24 M 1028.74 1013.26 985.36 1013.26 M 993.35 1005.27 1028.92 1005.27 M 1033.44 997.29 1001.33 997.29 M 980 1029.23 1060 1029.23 M 1060 1037.21 1068 1037.21 M 1068 1029.23 1148 1029.23 M 1148 1037.21 1099.26 1037.21 M 1099.26 1045.2 1148 1045.2 M 1148 1053.18 1098.66 1053.18 M 1092.39 1061.17 1148 1061.17 M 1148 1069.15 980 1069.15 M 980 1061.17 1035.61 1061.17 M 1029.34 1053.18 980 1053.18 M 980 1045.2 1028.74 1045.2 M 1028.74 1037.21 980 1037.21 M 980 1077.14 1148 1077.14 M 1148 1085.12 980 1085.12 M 980 1093.11 1148 1093.11 M 1148 1101.09 980 1101.09 M 980 1109.08 1148 1109.08 M 1148 1117.06 1068.09 1117.06 M 1068 1117.06 1060 1117.06 M 1059.91 1117.06 980 1117.06 M 982.32 1125.05 1037.65 1125.05 M 1028.5 1133.03 993.84 1133.03 M 1001.02 1141.02 1022.96 1141.02 M 1019.45 1149 1004.33 1149 M 1007 1156.99 1017.52 1156.99 M 1007 1164.97 1060 1164.97 M 1060 1156.99 1068 1156.99 M 1068 1164.97 1121 1164.97 M 1121 1156.99 1110.48 1156.99 M 1108.55 1149 1123.67 1149 M 1126.98 1141.02 1105.04 1141.02 M 1099.5 1133.03 1134.16 1133.03 M 1145.68 1125.05 1090.35 1125.05 M 1068 1125.05 1060 1125.05 M 1060 1133.03 1068 1133.03 M 1068 1141.02 1060 1141.02 M 1060 1149 1068 1149 M 1110.17 1172.96 1121.17 1172.96 M 1124.48 1180.94 1107.91 1180.94 M 1103.98 1188.93 1128.12 1188.93 M 1024.02 1188.93 999.88 1188.93 M 1003.52 1180.94 1020.09 1180.94 M 1017.83 1172.96 1006.83 1172.96 M 1060 1061.17 1068 1061.17 M 1068 1053.18 1060 1053.18 M 1060 1045.2 1068 1045.2 M 1068 1021.24 1060 1021.24 M 1060 1013.26 1068 1013.26 M 1068 1005.27 1060 1005.27 M 1060 997.29 1068 997.29 M 1090.32 989.3 1148 989.3 M 1148 981.32 1095.26 981.32 M 1095.26 973.33 1148 973.33 M 1150.03 965.34 1095.26 965.34 M 1095.26 957.36 1158.01 957.36 M 1166 949.37 1095.26 949.37 M 1095.26 941.39 1173.98 941.39 M 1181.97 933.4 1093.92 933.4 M 1100.21 925.42 1189.95 925.42 M 1197.94 917.43 1108.19 917.43 M 1124.69 909.45 1205.92 909.45 M 1212.74 901.46 1125 901.46 M 1125 893.48 1210.85 893.48 M 1202.87 885.49 1125 885.49 M 1125 877.51 1194.88 877.51 M 1186.9 869.52 1125 869.52 M 1125 861.54 1178.91 861.54 M 1170.93 853.55 1125 853.55 M 1119.71 845.57 1162.94 845.57 M 1154.96 837.58 970.32 837.58 M 972.61 845.57 1088.29 845.57 M 1083 853.55 899.57 853.55 M 893.79 853.55 856.03 853.55 M 862.3 845.57 734.32 845.57 M 746.85 837.58 864.59 837.58 M 869.15 829.6 754.83 829.6 M 762.82 821.61 878.07 821.61 M 893.79 821.61 899.57 821.61 M 899.57 829.6 893.79 829.6 M 893.79 837.58 899.57 837.58 M 899.57 845.57 893.79 845.57 M 956.84 821.61 1042 821.61 M 1042 824.84 1042 799.5 1065.5 799.5 1065.5 837 1054.16 837 1050.6 836.05 1047.4 834.2 1044.8 831.6 1042.95 828.4 1042 824.84 M 1043.64 829.6 965.76 829.6 M 971.52 861.54 1083 861.54 M 1083 869.52 967.69 869.52 M 960.92 877.51 1083 877.51 M 1083 885.49 949.85 885.49 M 961.24 893.48 1016.29 893.48 M 1041.71 893.48 1083 893.48 M 1078.91 901.46 1049.7 901.46 M 1052.5 909.45 1070.92 909.45 M 1062.94 917.43 1052.5 917.43 M 1050.81 925.42 1054.95 925.42 M 1029 914 896.68 914 M 865.9 917.43 858.18 917.43 M 860.88 909.45 865.9 909.45 M 845.5 945.5 1012.5 945.5 1009 944 M 1094.56 997.29 1148 997.29 M 1148 1005.27 1099.08 1005.27 M 1099.26 1013.26 1148 1013.26 M 1148 1021.24 1099.26 1021.24 M 1234 944 1374 944 1360.54 934 M 1304 974 1364 1034 1360.54 1034 M 1427.46 1034 1507.46 974 1584 974 1600.02 990.02 1600.02 1028.87 M 1574.43 1028.87 1574.43 1053.57 1564 1064 1494 1064 1394 1164 1364 1164 M 1314 1114 1264 1164 M 1314 1114 1414 1114 1499.13 1028.87 1548.84 1028.87 M 1588.43 1056.93 1588.43 1059.37 1578 1069.8 1577.8 1070 1678.2 1070 1686.26 1061.94 1684.64 1062.37 1676.8 1062.37 1676.8 1028.88 1676.79 1028.88 1676.79 1062.37 1668.95 1062.37 1665.39 1061.42 1662.2 1059.58 1661 1058.37 1641.06 1058.37 1638.41 1055.72 1635.76 1058.37 1615.47 1058.37 1612.82 1055.72 1610.17 1058.37 1589.88 1058.37 1588.43 1056.93 M 1586.63 1061.17 1664.95 1061.17 M 1676.79 1061.17 1676.8 1061.17 M 1676.79 1053.18 1676.8 1053.18 M 1676.79 1045.2 1676.8 1045.2 M 1676.79 1037.21 1676.8 1037.21 M 1676.79 1029.23 1676.8 1029.23 M 1676.8 1028.87 1676.8 995.37 1684.64 995.37 1688.2 996.33 1691.39 998.17 1692.59 999.37 1712.53 999.37 1715.18 1002.03 1717.83 999.37 1738.12 999.37 1740.77 1002.03 1743.42 999.37 1763.71 999.37 1766.36 1002.03 1769.02 999.37 1789.3 999.37 1795.16 1005.23 1795.16 1052.52 1793.16 1054.52 1793.16 1132.35 1800.45 1139.64 1807 1155.45 1807 1172.55 1800.45 1188.36 1793.81 1195 1828.53 1195 1828.15 1194.62 1823.8 1188.63 1820.44 1182.04 1818.16 1175.01 1817.05 1168 1860 1168 1860 1160 1868 1160 1868 1117.05 1875.01 1118.16 1882.04 1120.44 1888.63 1123.8 1894.62 1128.15 1895 1128.53 1895 693.81 1888.36 700.45 1872.55 707 1855.45 707 1839.64 700.45 1827.55 688.36 1826.64 686.16 1777.46 735.34 1788.89 735.34 1802.66 749.11 1802.66 768.58 1795.16 776.08 1795.16 822.77 1789.3 828.63 1769.02 828.63 1766.36 825.97 1763.71 828.63 1743.42 828.63 1740.77 825.97 1738.12 828.63 1717.83 828.63 1715.18 825.97 1712.53 828.63 1692.24 828.63 1689.59 825.97 1686.94 828.63 1667.2 828.63 1667.2 833.42 1611.63 889 1657.83 935.2 1822.74 935.2 1822.74 923.64 1828.6 917.78 1879.4 917.78 1885.26 923.64 1885.26 973.26 1879.4 979.12 1828.6 979.12 1822.74 973.26 1822.74 967.2 1667.2 967.2 1667.2 995.84 1668.95 995.37 1676.79 995.37 1676.79 1028.87 1676.8 1028.87 M 1676.79 1021.24 1676.8 1021.24 M 1676.79 1013.26 1676.8 1013.26 M 1676.79 1005.27 1676.8 1005.27 M 1676.79 997.29 1676.8 997.29 M 1667.2 989.3 1895 989.3 M 1895 981.32 1667.2 981.32 M 1667.2 973.33 1822.81 973.33 M 1795.16 1005.27 1895 1005.27 M 1895 997.29 1689.86 997.29 M 1702.39 1028.87 1702.39 1065.61 1684 1084 1544 1084 1464 1164 M 1564 1164 1624 1104 1694 1104 1727.98 1070.02 1727.98 1028.87 M 1753.57 1028.87 1753.57 1074.43 1664 1164 M 1764 1164 1779.16 1148.84 1779.16 1028.87 M 1795.16 1029.23 1895 1029.23 M 1895 1037.21 1795.16 1037.21 M 1795.16 1045.2 1895 1045.2 M 1895 1053.18 1794.49 1053.18 M 1793.16 1061.17 1895 1061.17 M 1895 1069.15 1793.16 1069.15 M 1793.16 1077.14 1895 1077.14 M 1895 1085.12 1793.16 1085.12 M 1793.16 1093.11 1895 1093.11 M 1895 1101.09 1793.16 1101.09 M 1793.16 1109.08 1895 1109.08 M 1895 1117.06 1868.09 1117.06 M 1868 1117.06 1860 1117.06 M 1860 1117.05 1860 1160 1817.05 1160 1818.16 1152.99 1820.44 1145.96 1823.8 1139.37 1828.15 1133.38 1833.38 1128.15 1839.37 1123.8 1845.96 1120.44 1852.99 1118.16 1860 1117.05 M 1859.91 1117.06 1793.16 1117.06 M 1793.16 1125.05 1837.65 1125.05 M 1828.5 1133.03 1793.84 1133.03 M 1801.02 1141.02 1822.96 1141.02 M 1819.45 1149 1804.33 1149 M 1807 1156.99 1817.52 1156.99 M 1807 1164.97 1860 1164.97 M 1860 1156.99 1868 1156.99 M 1868 1149 1860 1149 M 1860 1141.02 1868 1141.02 M 1868 1133.03 1860 1133.03 M 1860 1125.05 1868 1125.05 M 1890.35 1125.05 1895 1125.05 M 1817.83 1172.96 1806.83 1172.96 M 1803.52 1180.94 1820.09 1180.94 M 1824.02 1188.93 1799.88 1188.93 M 1679.05 1069.15 1578.65 1069.15 M 1625.61 1028.87 1625.61 965.61 1604 944 1444 944 1427.46 934 M 1343.71 873 1582.37 873 1626.75 828.63 1615.47 828.63 1612.82 825.97 1610.17 828.63 1589.88 828.63 1587.23 825.97 1584.58 828.63 1564.29 828.63 1561.64 825.97 1558.98 828.63 1538.7 828.63 1532.84 822.77 1532.84 813.13 1507.15 813.13 1507.15 839.8 1501.29 845.65 1453.64 845.65 1447.78 839.8 1447.78 804.11 1444.22 800.55 1444.22 810 1414.54 810 1414.54 818 1444.22 818 1444.22 837.5 1443.27 841.06 1441.42 844.25 1438.82 846.86 1435.62 848.7 1432.06 849.65 1414.54 849.65 1414.54 818 1406.54 818 1406.54 849.65 1389.01 849.65 1385.45 848.7 1382.25 846.86 1379.65 844.25 1377.8 841.06 1376.85 837.5 1376.85 818 1406.53 818 1406.53 810 1376.85 810 1376.85 799.38 1368.73 807.5 1349.27 807.5 1340.26 798.49 1340.26 804.36 1334.4 810.22 1283.6 810.22 1278.84 805.46 1279.26 807.04 1279.26 816.51 1282.34 814.73 1285.9 813.78 1305 813.78 1305 844.45 1313 844.45 1313 852.45 1344.26 852.45 1344.26 870.96 1343.71 873 M 1344.26 869.52 1585.85 869.52 M 1593.83 861.54 1344.26 861.54 M 1344.26 853.55 1601.82 853.55 M 1609.8 845.57 1501.38 845.57 M 1507.15 837.58 1617.79 837.58 M 1625.77 829.6 1507.15 829.6 M 1507.15 821.61 1532.84 821.61 M 1532.84 813.63 1507.15 813.63 M 1492.34 799.13 1477.46 814 1432.46 769 1389 769 1364 744 1124 744 1064 684 1064 664 M 1008.16 725.79 767.49 725.79 M 770.8 733.78 1066.15 733.78 M 1074.13 741.76 774.1 741.76 M 777.41 749.75 1082.12 749.75 M 1079.84 759 1083.4 759.95 1086.6 761.8 1089.2 764.4 1091.05 767.6 1092 771.16 1092 796.5 1068.5 796.5 1068.5 799.5 1092 799.5 1092 824.84 1091.05 828.4 1089.2 831.6 1086.6 834.2 1083.4 836.05 1079.84 837 1068.5 837 1068.5 799.5 1065.5 799.5 1065.5 796.5 1068.5 796.5 1068.5 759 1079.84 759 M 1090.1 757.73 778.92 757.73 M 778.92 765.72 1044.04 765.72 M 1044.8 764.4 1047.4 761.8 1050.6 759.95 1054.16 759 1065.5 759 1065.5 796.5 1042 796.5 1042 771.16 1042.95 767.6 1044.8 764.4 M 1042 773.7 778.92 773.7 M 778.92 781.69 1042 781.69 M 1042 789.67 777.9 789.67 M 774.59 797.66 1065.5 797.66 M 1068.5 797.66 1120 797.66 M 1120 805.64 1092 805.64 M 1092 813.63 1120 813.63 M 1120 821.61 1092 821.61 M 1090.36 829.6 1122.46 829.6 M 1120 789.67 1092 789.67 M 1092 781.69 1114.06 781.69 M 1106.08 773.7 1092 773.7 M 1089.96 765.72 1098.09 765.72 M 1068.5 765.72 1065.5 765.72 M 1065.5 773.7 1068.5 773.7 M 1068.5 781.69 1065.5 781.69 M 1065.5 789.67 1068.5 789.67 M 1068.5 805.64 1065.5 805.64 M 1065.5 813.63 1068.5 813.63 M 1068.5 821.61 1065.5 821.61 M 1065.5 829.6 1068.5 829.6 M 1042 813.63 767.98 813.63 M 771.28 805.64 1042 805.64 M 1135.63 758 1140.63 763 1156.14 763 1162 768.86 1162 799.37 1208.74 846.11 1208.74 833.55 1240 833.55 1240 825.55 1248 825.55 1248 794.88 1267.1 794.88 1270.66 795.84 1273.86 797.68 1276.46 800.29 1277.74 802.5 1277.74 758 1135.63 758 M 1158.86 765.72 1277.74 765.72 M 1277.74 773.7 1162 773.7 M 1162 781.69 1277.74 781.69 M 1277.74 789.67 1162 789.67 M 1162 797.66 1214.18 797.66 M 1214.14 797.68 1217.34 795.84 1220.9 794.88 1240 794.88 1240 825.55 1208.74 825.55 1208.74 807.04 1209.69 803.48 1211.54 800.29 1214.14 797.68 M 1209.11 805.64 1168.27 805.64 M 1176.26 813.63 1208.74 813.63 M 1208.74 821.61 1184.24 821.61 M 1192.23 829.6 1240 829.6 M 1240 833.55 1240 864.22 1226.85 864.22 1230.41 867.78 1269.4 867.78 1274.16 872.54 1273.74 870.96 1273.74 861.49 1270.66 863.27 1267.1 864.22 1248 864.22 1248 833.55 1240 833.55 M 1240 837.58 1248 837.58 M 1248 845.57 1240 845.57 M 1240 853.55 1248 853.55 M 1248 861.54 1240 861.54 M 1271.15 869.52 1273.74 869.52 M 1273.66 861.54 1273.74 861.54 M 1313 845.57 1380.97 845.57 M 1376.87 837.58 1344.26 837.58 M 1344.26 844.45 1344.26 825.94 1343.31 822.38 1341.46 819.18 1338.86 816.58 1335.66 814.73 1332.1 813.78 1313 813.78 1313 844.45 1344.26 844.45 M 1344.26 829.6 1376.85 829.6 M 1376.85 821.61 1342.87 821.61 M 1338.98 805.64 1347.41 805.64 M 1370.59 805.64 1376.85 805.64 M 1406.53 813.63 1279.26 813.63 M 1278.89 805.64 1279.02 805.64 M 1277.74 797.66 1273.82 797.66 M 1248 797.66 1240 797.66 M 1240 805.64 1248 805.64 M 1248 813.63 1240 813.63 M 1240 821.61 1248 821.61 M 1208.74 837.58 1200.21 837.58 M 1208.2 845.57 1208.74 845.57 M 1305 837.58 1313 837.58 M 1313 829.6 1305 829.6 M 1305 821.61 1313 821.61 M 1309 779.55 1353.45 779.55 1359 784 M 1399 754 1364 719 1319 719 1264 664 M 1364 664 1439 739 1569 739 1600.02 770.02 1600.02 799.13 M 1574.43 799.13 1574.43 769.43 1559 754 1399 754 M 1414.54 813.63 1447.78 813.63 M 1447.78 821.61 1444.22 821.61 M 1444.22 829.6 1447.78 829.6 M 1447.78 837.58 1444.2 837.58 M 1440.1 845.57 1453.55 845.57 M 1414.54 845.57 1406.54 845.57 M 1406.54 837.58 1414.54 837.58 M 1414.54 829.6 1406.54 829.6 M 1406.54 821.61 1414.54 821.61 M 1444.22 805.64 1447.78 805.64 M 1492.34 799.13 1548.84 799.13 M 1625.61 799.13 1625.61 750.61 1624 749 M 1644 724 1524 724 1464 664 M 1564 664 1609 709 1659 709 1702.39 752.39 1702.39 799.13 M 1727.98 799.13 1727.98 700.02 1764 664 M 1802.98 709.82 1895 709.82 M 1895 701.84 1885.02 701.84 M 1894.96 693.85 1895 693.85 M 1895 717.81 1794.99 717.81 M 1787.01 725.79 1895 725.79 M 1895 733.78 1779.02 733.78 M 1795.31 741.76 1895 741.76 M 1895 749.75 1802.66 749.75 M 1802.66 757.73 1895 757.73 M 1895 765.72 1802.66 765.72 M 1797.53 773.7 1895 773.7 M 1895 781.69 1795.16 781.69 M 1795.16 789.67 1895 789.67 M 1895 797.66 1795.16 797.66 M 1795.16 805.64 1895 805.64 M 1895 813.63 1795.16 813.63 M 1795.16 821.61 1895 821.61 M 1895 829.6 1667.2 829.6 M 1663.04 837.58 1895 837.58 M 1895 845.57 1879.66 845.57 M 1880.66 845.84 1883.86 847.68 1886.46 850.29 1888.31 853.48 1889.26 857.04 1889.26 875.55 1858 875.55 1858 844.88 1877.1 844.88 1880.66 845.84 M 1888.33 853.55 1895 853.55 M 1895 861.54 1889.26 861.54 M 1889.26 869.52 1895 869.52 M 1895 877.51 1858 877.51 M 1858 875.55 1858 883.55 1889.26 883.55 1889.26 902.06 1888.31 905.62 1886.46 908.82 1883.86 911.42 1880.66 913.27 1877.1 914.22 1858 914.22 1858 883.55 1850 883.55 1850 875.55 1858 875.55 M 1858 869.52 1850 869.52 M 1850 875.55 1850 844.88 1830.9 844.88 1827.34 845.84 1824.14 847.68 1821.54 850.29 1819.69 853.48 1818.74 857.04 1818.74 875.55 1850 875.55 M 1850 877.51 1623.12 877.51 M 1631.1 869.52 1818.74 869.52 M 1818.74 861.54 1639.09 861.54 M 1647.07 853.55 1819.67 853.55 M 1828.34 845.57 1655.06 845.57 M 1615.13 885.49 1818.74 885.49 M 1818.74 883.55 1818.74 902.06 1819.69 905.62 1821.54 908.82 1824.14 911.42 1827.34 913.27 1830.9 914.22 1850 914.22 1850 883.55 1818.74 883.55 M 1818.74 893.48 1616.11 893.48 M 1624.09 901.46 1818.74 901.46 M 1822.17 909.45 1632.08 909.45 M 1640.06 917.43 1895 917.43 M 1895 909.45 1885.83 909.45 M 1889.26 901.46 1895 901.46 M 1895 893.48 1889.26 893.48 M 1889.26 885.49 1895 885.49 M 1858 885.49 1850 885.49 M 1850 893.48 1858 893.48 M 1858 901.46 1850 901.46 M 1850 909.45 1858 909.45 M 1885.26 925.42 1895 925.42 M 1895 933.4 1885.26 933.4 M 1885.26 941.39 1895 941.39 M 1895 949.37 1885.26 949.37 M 1885.26 957.36 1895 957.36 M 1895 965.34 1885.26 965.34 M 1885.19 973.33 1895 973.33 M 1895 1013.26 1795.16 1013.26 M 1795.16 1021.24 1895 1021.24 M 1822.74 933.4 1656.03 933.4 M 1648.05 925.42 1822.74 925.42 M 1850 861.54 1858 861.54 M 1858 853.55 1850 853.55 M 1850 845.57 1858 845.57 M 1779.16 799.13 1779.16 758.84 M 1753.57 739.43 1824 669 1859 669 1864 664 M 1833.04 693.85 1818.95 693.85 M 1810.96 701.84 1842.98 701.84 M 1753.57 739.43 1753.57 799.13 M 1676.8 799.13 1676.8 756.8 1644 724 M 999.4 717.81 761.64 717.81 M 753.65 709.82 990.62 709.82 M 942.98 701.84 745.67 701.84 M 731.47 693.85 764.91 693.85 M 760.85 685.87 712.2 685.87 M 816.16 693.85 831.84 693.85 M 827.78 685.87 820.22 685.87 M 820.22 677.88 827.78 677.88 M 827.78 669.9 820.22 669.9 M 820.22 661.91 827.78 661.91 M 827.78 653.93 820.22 653.93 M 820.22 645.94 827.78 645.94 M 828.03 637.96 819.97 637.96 M 887.15 685.87 926.51 685.87 M 933.04 693.85 883.09 693.85 M 793.4 853.55 715.04 853.55 M 712.35 973.33 790.7 973.33 M 761.7 1005.27 884.52 1005.27 M 873.44 997.29 753.71 997.29 M 745.73 989.3 868.46 989.3 M 865.9 981.32 731.63 981.32 M 858.73 973.33 865.9 973.33 M 589.76 685.87 582.85 685.87 M 584.22 677.88 587.78 677.88 M 587.78 669.9 584.22 669.9 M 558.35 669.9 550.6 669.9 M 550.6 677.88 558.35 677.88 M 558.35 685.87 550.6 685.87" fill="none" stroke-width="8"/><use xlink:href="#nJSkhCJziBEo_pad-19" x="1024" y="799"/><use xlink:href="#nJSkhCJziBEo_pad-19" x="1029" y="914"/><use xlink:href="#nJSkhCJziBEo_pad-19" x="1009" y="944"/><use xlink:href="#nJSkhCJziBEo_pad-19" x="1014" y="1029"/><use xlink:href="#nJSkhCJziBEo_pad-19" x="1234" y="944"/><use xlink:href="#nJSkhCJziBEo_pad-19" x="1304" y="974"/><use xlink:href="#nJSkhCJziBEo_pad-19" x="1359" y="849"/><use xlink:href="#nJSkhCJziBEo_pad-19" x="1359" y="784"/><use xlink:href="#nJSkhCJziBEo_pad-19" x="1244" y="779"/><use xlink:href="#nJSkhCJziBEo_pad-19" x="1624" y="749"/><use xlink:href="#nJSkhCJziBEo_pad-19" x="1779.16" y="758.84"/><use xlink:href="#nJSkhCJziBEo_pad-19" x="1854" y="829"/><use xlink:href="#nJSkhCJziBEo_pad-19" x="1684" y="979"/><path d="M 1309 848.45 1262.9 848.45 1244 829.55" fill="none" stroke-width="20"/><path d="M 1254 889 1589 889 1651.2 826.8 1651.2 799.13 M 1589 889 1651.2 951.2 1846.76 951.2 1854 948.45 M 1651.2 951.2 1651.2 1028.87 M 1254 889 1248.45 893.45 1244 898.45 1238.45 898.45 1141 801 1141 798 1141 786 1069 714 1019 714 964 664 857.46 664 M 790.54 664 613.53 664 M 896.68 976.99 999 976.99 964 1011.99 964 1164 M 1164 1164 1164 974 1244 894 1244 898.45 M 1104 899 1104 880 M 1104 899 1064 939 1064 959.55 1067 966.55 M 1064 959.55 1051.44 976.99 999 976.99" fill="none" stroke-width="12"/></g><g id="pcb-stackup_top_ss"><path d="M 640.5 640.5 640.5 669.52 655.01 669.52 659.85 664.69 659.85 655.01 655.01 650.17 640.5 650.17 M 669.97 640.5 669.97 669.52 M 689.31 669.52 689.31 640.5 679.64 650.17 669.97 640.5 M 699.43 640.5 699.43 669.52 713.94 669.52 718.78 664.69 718.78 655.01 713.94 650.17 699.43 650.17 M 709.11 650.17 718.78 640.5 M 800.5 705.5 800.5 734.52 815.01 734.52 819.85 729.69 819.85 720.01 815.01 715.17 800.5 715.17 M 810.17 715.17 819.85 705.5 M 829.97 705.5 849.31 724.85 849.31 729.69 844.48 734.52 834.8 734.52 829.97 729.69 M 829.97 705.5 849.31 705.5 M 998.48 827.5 1022.66 827.5 1027.5 832.34 1027.5 842.01 1022.66 846.85 998.48 846.85 M 1008.15 856.97 998.48 866.64 1027.5 866.64 M 1027.5 856.97 1027.5 876.31 M 1182.88 822.98 1182.88 813.31 1187.72 808.47 M 1187.72 798.35 1182.88 793.52 1182.88 783.84 1187.72 779 1207.07 779 1211.91 783.84 1211.91 793.52 1207.07 798.35 M 1207.07 808.47 1211.91 813.31 1211.91 822.98 1207.07 827.82 1202.23 827.82 1197.4 822.98 1197.4 818.14 M 1197.4 822.98 1192.56 827.82 1187.72 827.82 1182.88 822.98 M 1292.88 878.84 1297.72 874 1317.07 874 1321.91 878.84 1321.91 888.52 1317.07 893.35 M 1321.91 903.47 1302.56 922.82 1297.72 922.82 1292.88 917.98 1292.88 908.31 1297.72 903.47 M 1297.72 893.35 1292.88 888.52 1292.88 878.84 M 1321.91 903.47 1321.91 922.82 M 1460.48 911.08 1465.31 915.92 1474.99 915.92 1479.83 911.08 1479.83 896.57 M 1489.5 896.57 1460.48 896.57 1460.48 911.08 M 1479.83 906.24 1489.5 915.92 M 1474.99 926.03 1474.99 945.38 M 1489.5 940.55 1460.48 940.55 1474.99 926.03 M 1479.83 996.57 1479.83 1011.08 1474.99 1015.92 1465.31 1015.92 1460.48 1011.08 1460.48 996.57 1489.5 996.57 M 1479.83 1006.24 1489.5 1015.92 M 1484.66 1026.03 1489.5 1030.87 1489.5 1040.55 1484.66 1045.38 1479.83 1045.38 1474.99 1040.55 1474.99 1035.71 M 1474.99 1040.55 1470.15 1045.38 1465.31 1045.38 1460.48 1040.55 1460.48 1030.87 1465.31 1026.03 M 1648.88 907.48 1648.88 897.8 1653.72 892.97 M 1648.88 882.85 1673.07 882.85 1677.91 878.01 1677.91 868.34 1673.07 863.5 1648.88 863.5 M 1677.91 892.97 1658.56 912.31 1653.72 912.31 1648.88 907.48 M 1677.91 912.31 1677.91 892.97 M 1539.5 835.38 1539.5 816.03 M 1539.5 825.71 1510.48 825.71 1520.15 816.03 M 1515.31 805.92 1524.99 805.92 1529.83 801.08 1529.83 786.57 M 1539.5 786.57 1510.48 786.57 1510.48 801.08 1515.31 805.92 M 1529.83 796.24 1539.5 805.92 M 1837.88 983.84 1842.72 979 1862.07 979 1866.91 983.84 1866.91 993.52 1862.07 998.35 M 1852.4 1008.47 1837.88 1022.98 1866.91 1022.98 M 1852.4 1027.82 1852.4 1008.47 M 1842.72 998.35 1837.88 993.52 1837.88 983.84 M 1130.09 997.9 1130.09 1007.58 1125.25 1012.42 M 1130.09 1022.53 1130.09 1041.88 M 1130.09 1032.21 1101.07 1032.21 1110.74 1022.53 M 1105.9 1012.42 1101.07 1007.58 1101.07 997.9 1105.9 993.07 1125.25 993.07 1130.09 997.9 M 824.95 1163.5 810.43 1163.5 805.6 1168.34 805.6 1178.01 810.43 1182.85 824.95 1182.85 M 824.95 1192.52 824.95 1163.5 M 795.56 1182.85 790.72 1182.85 781.04 1173.17 M 781.04 1163.5 781.04 1182.85 M 770.93 1178.01 770.93 1163.5 756.42 1163.5 751.58 1168.34 756.42 1173.17 770.93 1173.17 M 770.93 1178.01 766.09 1182.85 756.42 1182.85 M 741.46 1178.01 736.63 1182.85 726.95 1182.85 722.11 1178.01 722.11 1168.34 726.95 1163.5 736.63 1163.5 741.46 1168.34 741.46 1178.01 M 712 1178.01 712 1168.34 707.16 1163.5 692.65 1163.5 692.65 1192.52 M 692.65 1182.85 707.16 1182.85 712 1178.01 M 653.07 1178.01 653.07 1168.34 648.23 1163.5 633.72 1163.5 633.72 1192.52 M 633.72 1182.85 648.23 1182.85 653.07 1178.01 M 623.6 1182.85 609.09 1182.85 604.25 1178.01 609.09 1173.17 618.76 1173.17 623.6 1168.34 618.76 1163.5 604.25 1163.5 M 594.14 1163.5 594.14 1182.85 M 594.14 1163.5 579.62 1163.5 574.79 1168.34 574.79 1182.85 M 564.82 1178.01 555.14 1178.01 M 559.98 1187.69 564.82 1192.52 M 559.98 1187.69 559.98 1163.5 M 545.17 1163.5 535.5 1163.5 M 540.34 1163.5 540.34 1182.85 535.5 1182.85 M 540.34 1192.52 540.34 1197.36" fill="none" stroke-width="3"/><path d="M 954.98 1122.58 977 1122.58 954.98 1107.9 977 1107.9 M 977 1100.51 977 1093.17 M 977 1096.84 954.98 1096.84 M 954.98 1093.17 954.98 1100.51 M 954.98 1085.75 969.66 1085.75 977 1078.41 969.66 1071.07 954.98 1071.07 M 1054.98 1074.71 1054.98 1067.37 1058.65 1063.7 1073.33 1063.7 1077 1067.37 1077 1074.71 1073.33 1078.38 1065.99 1078.38 1065.99 1071.04 M 1058.65 1078.38 1054.98 1074.71 M 1054.98 1085.8 1077 1100.48 1054.98 1100.48 M 1054.98 1107.9 1054.98 1118.91 1058.65 1122.58 1073.33 1122.58 1077 1118.91 1077 1107.9 1054.98 1107.9 M 1054.98 1085.8 1077 1085.8 M 1154.98 1085.8 1169.66 1085.8 1177 1093.14 1169.66 1100.48 1154.98 1100.48 M 1158.65 1107.9 1154.98 1111.57 1154.98 1118.91 1158.65 1122.58 1162.32 1122.58 1165.99 1118.91 1169.66 1122.58 1173.33 1122.58 1177 1118.91 1177 1111.57 1173.33 1107.9 M 1165.99 1115.24 1165.99 1118.91 M 1162.32 1078.38 1165.99 1074.71 1169.66 1078.38 1173.33 1078.38 1177 1074.71 1177 1067.37 1173.33 1063.7 M 1165.99 1071.04 1165.99 1074.71 M 1162.32 1078.38 1158.65 1078.38 1154.98 1074.71 1154.98 1067.37 1158.65 1063.7 M 1254.98 1071.07 1254.98 1078.41 M 1254.98 1074.74 1277 1074.74 M 1277 1071.07 1277 1078.41 M 1273.33 1085.8 1258.65 1085.8 1254.98 1089.47 1254.98 1096.81 1258.65 1100.48 1273.33 1100.48 1277 1096.81 1277 1089.47 1273.33 1085.8 M 1273.33 1107.9 1277 1111.57 1277 1118.91 1273.33 1122.58 1265.99 1122.58 1262.32 1118.91 1262.32 1115.24 1265.99 1107.9 1254.98 1107.9 1254.98 1122.58 M 1354.98 1118.91 1365.99 1107.9 1365.99 1122.58 M 1377 1118.91 1354.98 1118.91 M 1358.65 1100.48 1354.98 1096.81 1354.98 1089.47 1358.65 1085.8 1373.33 1085.8 1377 1089.47 1377 1096.81 1373.33 1100.48 1358.65 1100.48 M 1354.98 1078.41 1354.98 1071.07 M 1354.98 1074.74 1377 1074.74 M 1377 1071.07 1377 1078.41 M 1454.98 1078.41 1454.98 1071.07 M 1454.98 1074.74 1477 1074.74 M 1477 1071.07 1477 1078.41 M 1473.33 1085.8 1458.65 1085.8 1454.98 1089.47 1454.98 1096.81 1458.65 1100.48 1473.33 1100.48 1477 1096.81 1477 1089.47 1473.33 1085.8 M 1473.33 1107.9 1477 1111.57 1477 1118.91 1473.33 1122.58 1469.66 1122.58 1465.99 1118.91 1465.99 1115.24 M 1465.99 1118.91 1462.32 1122.58 1458.65 1122.58 1454.98 1118.91 1454.98 1111.57 1458.65 1107.9 M 1554.98 1111.57 1558.65 1107.9 1573.33 1107.9 1577 1111.57 1577 1118.91 1573.33 1122.58 1558.65 1122.58 1554.98 1118.91 1554.98 1111.57 M 1558.65 1100.48 1554.98 1096.81 1554.98 1085.8 1577 1085.8 1577 1096.81 1573.33 1100.48 1558.65 1100.48 M 1558.65 1078.38 1554.98 1074.71 1554.98 1067.37 1558.65 1063.7 1562.32 1063.7 1565.99 1067.37 1565.99 1074.71 1569.66 1078.38 1573.33 1078.38 1577 1074.71 1577 1067.37 1573.33 1063.7 M 1654.98 1074.74 1658.65 1071.07 1662.32 1071.07 1665.99 1074.74 1665.99 1082.08 1669.66 1085.75 1673.33 1085.75 1677 1082.08 1677 1074.74 1673.33 1071.07 M 1654.98 1074.74 1654.98 1082.08 1658.65 1085.75 M 1654.98 1093.17 1677 1093.17 1677 1104.18 1673.33 1107.85 1658.65 1107.85 1654.98 1104.18 1654.98 1093.17 M 1654.98 1115.27 1654.98 1122.61 M 1654.98 1118.94 1677 1118.94 M 1677 1115.27 1677 1122.61 M 1754.98 1122.58 1769.66 1107.9 M 1765.99 1111.57 1777 1122.58 M 1777 1107.9 1754.98 1107.9 M 1758.65 1100.48 1754.98 1096.81 1754.98 1089.47 1758.65 1085.8 1773.33 1085.8 1777 1089.47 1777 1096.81 1773.33 1100.48 M 1773.33 1078.38 1777 1074.71 1777 1067.37 1773.33 1063.7 M 1765.99 1067.37 1765.99 1074.71 1769.66 1078.38 1773.33 1078.38 M 1765.99 1067.37 1762.32 1063.7 1758.65 1063.7 1754.98 1067.37 1754.98 1074.71 1758.65 1078.38 M 1779.59 994.87 1548.41 994.87 1548.41 833.13 1779.59 833.13 1779.59 994.87 M 1854.98 1067.37 1858.65 1063.7 1873.33 1063.7 1877 1067.37 1877 1074.71 1873.33 1078.38 1865.99 1078.38 1865.99 1071.04 M 1858.65 1078.38 1854.98 1074.71 1854.98 1067.37 M 1854.98 1085.8 1877 1100.48 1854.98 1100.48 M 1854.98 1107.9 1854.98 1118.91 1858.65 1122.58 1873.33 1122.58 1877 1118.91 1877 1107.9 1854.98 1107.9 M 1854.98 1085.8 1877 1085.8 M 1673 756.51 1673 741.83 1658.32 756.51 1654.65 756.51 1650.98 752.84 1650.98 745.5 1654.65 741.83 M 1654.65 734.41 1650.98 730.74 1650.98 723.4 1654.65 719.73 1669.33 719.73 1673 723.4 1673 730.74 1669.33 734.41 1654.65 734.41 M 1650.98 712.34 1650.98 705 M 1650.98 708.67 1673 708.67 M 1673 705 1673 712.34 M 1750.98 712.34 1773 712.34 M 1773 727.1 1750.98 741.78 M 1750.98 727.1 1773 741.78 M 1750.98 719.68 1750.98 705 M 1850.98 705 1850.98 716.01 1854.65 719.68 1861.99 719.68 1865.66 716.01 1865.66 705 M 1865.66 712.34 1873 719.68 M 1873 727.1 1850.98 741.78 M 1850.98 727.1 1873 741.78 M 1873 705 1850.98 705 M 1573 705 1573 712.34 M 1573 708.67 1550.98 708.67 M 1550.98 705 1550.98 712.34 M 1554.65 719.73 1569.33 719.73 1573 723.4 1573 730.74 1569.33 734.41 1554.65 734.41 1550.98 730.74 1550.98 723.4 1554.65 719.73 M 1558.32 741.83 1550.98 749.17 1573 749.17 M 1573 741.83 1573 756.51 M 1473 752.84 1473 745.5 1469.33 741.83 1454.65 756.51 1469.33 756.51 1473 752.84 M 1469.33 741.83 1454.65 741.83 1450.98 745.5 1450.98 752.84 1454.65 756.51 M 1454.65 734.41 1450.98 730.74 1450.98 723.4 1454.65 719.73 1469.33 719.73 1473 723.4 1473 730.74 1469.33 734.41 1454.65 734.41 M 1450.98 712.34 1450.98 705 M 1450.98 708.67 1473 708.67 M 1473 705 1473 712.34 M 1373 716.01 1373 708.67 1369.33 705 M 1361.99 708.67 1361.99 716.01 1365.66 719.68 1369.33 719.68 1373 716.01 M 1369.33 727.1 1373 730.77 1373 738.11 1369.33 741.78 M 1373 749.2 1373 763.88 M 1373 749.2 1350.98 749.2 M 1354.65 741.78 1350.98 738.11 1350.98 730.77 1354.65 727.1 1369.33 727.1 M 1354.65 719.68 1350.98 716.01 1350.98 708.67 1354.65 705 1358.32 705 1361.99 708.67 M 1273 708.67 1269.33 705 M 1273 708.67 1273 716.01 1269.33 719.68 1265.66 719.68 1261.99 716.01 1261.99 708.67 1258.32 705 1254.65 705 1250.98 708.67 1250.98 716.01 1254.65 719.68 M 1250.98 727.1 1250.98 738.11 1254.65 741.78 1269.33 741.78 1273 738.11 1273 727.1 1250.98 727.1 M 1258.32 749.2 1250.98 756.54 1258.32 763.88 1273 763.88 M 1261.99 763.88 1261.99 749.2 M 1258.32 749.2 1273 749.2 M 1173 756.54 1150.98 756.54 M 1150.98 749.2 1150.98 763.88 M 1154.65 741.78 1150.98 738.11 1150.98 730.77 1154.65 727.1 1158.32 727.1 1161.99 730.77 1161.99 738.11 1165.66 741.78 1169.33 741.78 1173 738.11 1173 730.77 1169.33 727.1 M 1173 719.68 1165.66 712.34 M 1165.66 716.01 1165.66 705 M 1173 705 1150.98 705 1150.98 716.01 1154.65 719.68 1161.99 719.68 1165.66 716.01 M 1073 716.01 1073 705 1050.98 705 1050.98 716.01 1054.65 719.68 1058.32 719.68 1061.99 716.01 1061.99 705 M 1061.99 716.01 1065.66 719.68 1069.33 719.68 1073 716.01 M 1073 734.44 1050.98 734.44 M 1050.98 727.1 1050.98 741.78 M 1054.65 749.2 1050.98 752.87 1050.98 760.21 1054.65 763.88 1069.33 749.2 1073 752.87 1073 760.21 1069.33 763.88 1054.65 763.88 M 1054.65 749.2 1069.33 749.2 M 973 752.87 969.33 749.2 M 973 752.87 973 760.21 969.33 763.88 965.66 763.88 961.99 760.21 961.99 756.54 M 961.99 760.21 958.32 763.88 954.65 763.88 950.98 760.21 950.98 752.87 954.65 749.2 M 950.98 741.78 965.66 741.78 973 734.44 965.66 727.1 950.98 727.1 M 954.65 719.68 958.32 719.68 961.99 716.01 965.66 719.68 969.33 719.68 973 716.01 973 708.67 969.33 705 M 961.99 712.34 961.99 716.01 M 954.65 719.68 950.98 716.01 950.98 708.67 954.65 705" fill="none" stroke-width="2"/><path d="M 1214 693.92 1214 734.47 M 1214 773.84 1214 814.39 M 1214 853.76 1214 894.31 M 1214 933.69 1214 974.24 M 1214 1013.61 1214 1054.16 M 1214 1093.53 1214 1134.08 M 1214 1173.45 1214 1214 M 1514 1214 1514 1114 M 1814 1114 1814 1214 M 1714 714 1714 614 M 1414 614 1414 714 M 1214 654.55 1214 614" fill="none" stroke-width="8"/><path d="M 1117 811 1091 811 M 1044 829 1044 867 1080 867 M 1128 867 1164 867 1164 829 M 1539.41 824.13 1539.41 1003.87 1788.59 1003.87 1788.59 824.13 1539.41 824.13 M 1556.41 866 1556.43 866.84 1556.49 867.69 1556.59 868.52 1556.73 869.36 1556.9 870.18 1557.12 871 1557.37 871.8 1557.66 872.59 1557.99 873.37 1558.35 874.13 1558.75 874.88 1559.19 875.6 1559.65 876.31 1560.15 876.99 1560.68 877.64 1561.24 878.27 1561.83 878.88 1562.45 879.45 1563.09 880 1563.76 880.51 1564.45 881 1565.17 881.45 1565.9 881.86 1566.65 882.24 1567.42 882.59 1568.21 882.9 1569.01 883.17 1569.82 883.4 1570.64 883.6 1571.47 883.76 1572.3 883.88 1573.15 883.96 1573.99 884 1574.83 884 1575.67 883.96 1576.52 883.88 1577.35 883.76 1578.18 883.6 1579 883.4 1579.81 883.17 1580.61 882.9 1581.4 882.59 1582.17 882.24 1582.92 881.86 1583.65 881.45 1584.37 881 1585.06 880.51 1585.73 880 1586.37 879.45 1586.99 878.88 1587.58 878.27 1588.14 877.64 1588.67 876.99 1589.17 876.31 1589.63 875.6 1590.07 874.88 1590.47 874.13 1590.83 873.37 1591.16 872.59 1591.45 871.8 1591.7 871 1591.92 870.18 1592.09 869.36 1592.23 868.52 1592.33 867.69 1592.39 866.84 1592.41 866 1592.39 865.16 1592.33 864.31 1592.23 863.48 1592.09 862.64 1591.92 861.82 1591.7 861 1591.45 860.2 1591.16 859.41 1590.83 858.63 1590.47 857.87 1590.07 857.12 1589.63 856.4 1589.17 855.69 1588.67 855.01 1588.14 854.36 1587.58 853.73 1586.99 853.12 1586.37 852.55 1585.73 852 1585.06 851.49 1584.37 851 1583.65 850.55 1582.92 850.14 1582.17 849.76 1581.4 849.41 1580.61 849.1 1579.81 848.83 1579 848.6 1578.18 848.4 1577.35 848.24 1576.52 848.12 1575.67 848.04 1574.83 848 1573.99 848 1573.15 848.04 1572.3 848.12 1571.47 848.24 1570.64 848.4 1569.82 848.6 1569.01 848.83 1568.21 849.1 1567.42 849.41 1566.65 849.76 1565.9 850.14 1565.17 850.55 1564.45 851 1563.76 851.49 1563.09 852 1562.45 852.55 1561.83 853.12 1561.24 853.73 1560.68 854.36 1560.15 855.01 1559.65 855.69 1559.19 856.4 1558.75 857.12 1558.35 857.87 1557.99 858.63 1557.66 859.41 1557.37 860.2 1557.12 861 1556.9 861.82 1556.73 862.64 1556.59 863.48 1556.49 864.31 1556.43 865.16 1556.41 866" fill="none" stroke-width="6"/><path d="M 557.85 954.88 557.85 954.87" fill="none" stroke-width="4"/><path d="M 514.79 1067.54 514.79 760.46 M 695.89 760.46 778.57 760.46 M 876.99 760.46 876.99 831.32 M 876.99 996.68 876.99 1067.54 M 778.57 1067.54 672.27 1067.54" fill="none" stroke-width="5"/><use xlink:href="#V5ehpXec1RYI_pad-16" x="578.09" y="649.24"/><use xlink:href="#V5ehpXec1RYI_pad-16" x="578.09" y="678.76"/><use xlink:href="#V5ehpXec1RYI_pad-17" x="578.09" y="664"/></g><g id="pcb-stackup_top_sm"><use xlink:href="#FL0tV6BH2tut_pad-10" x="1244" y="829.55"/><use xlink:href="#FL0tV6BH2tut_pad-10" x="1309" y="848.45"/><use xlink:href="#FL0tV6BH2tut_pad-10" x="1244" y="898.45"/><use xlink:href="#FL0tV6BH2tut_pad-10" x="1309" y="779.55"/><use xlink:href="#FL0tV6BH2tut_pad-10" x="1064" y="959.55"/><use xlink:href="#FL0tV6BH2tut_pad-10" x="1064" y="1028.45"/><use xlink:href="#FL0tV6BH2tut_pad-10" x="1854" y="948.45"/><use xlink:href="#FL0tV6BH2tut_pad-10" x="1854" y="879.55"/><use xlink:href="#FL0tV6BH2tut_pad-11" x="1477.46" y="814"/><use xlink:href="#FL0tV6BH2tut_pad-11" x="1410.54" y="814"/><use xlink:href="#FL0tV6BH2tut_pad-11" x="1427.46" y="934"/><use xlink:href="#FL0tV6BH2tut_pad-11" x="1360.54" y="934"/><use xlink:href="#FL0tV6BH2tut_pad-11" x="1360.54" y="1034"/><use xlink:href="#FL0tV6BH2tut_pad-11" x="1427.46" y="1034"/><use xlink:href="#FL0tV6BH2tut_pad-11" x="857.46" y="664"/><use xlink:href="#FL0tV6BH2tut_pad-11" x="790.54" y="664"/><use xlink:href="#FL0tV6BH2tut_pad-12" x="1548.84" y="799.13"/><use xlink:href="#FL0tV6BH2tut_pad-12" x="1574.43" y="799.13"/><use xlink:href="#FL0tV6BH2tut_pad-12" x="1600.02" y="799.13"/><use xlink:href="#FL0tV6BH2tut_pad-12" x="1625.61" y="799.13"/><use xlink:href="#FL0tV6BH2tut_pad-12" x="1651.2" y="799.13"/><use xlink:href="#FL0tV6BH2tut_pad-12" x="1676.8" y="799.13"/><use xlink:href="#FL0tV6BH2tut_pad-12" x="1702.39" y="799.13"/><use xlink:href="#FL0tV6BH2tut_pad-12" x="1727.98" y="799.13"/><use xlink:href="#FL0tV6BH2tut_pad-12" x="1753.57" y="799.13"/><use xlink:href="#FL0tV6BH2tut_pad-12" x="1779.16" y="799.13"/><use xlink:href="#FL0tV6BH2tut_pad-12" x="1779.16" y="1028.87"/><use xlink:href="#FL0tV6BH2tut_pad-12" x="1753.57" y="1028.87"/><use xlink:href="#FL0tV6BH2tut_pad-12" x="1727.98" y="1028.87"/><use xlink:href="#FL0tV6BH2tut_pad-12" x="1702.39" y="1028.87"/><use xlink:href="#FL0tV6BH2tut_pad-12" x="1676.8" y="1028.87"/><use xlink:href="#FL0tV6BH2tut_pad-12" x="1651.2" y="1028.87"/><use xlink:href="#FL0tV6BH2tut_pad-12" x="1625.61" y="1028.87"/><use xlink:href="#FL0tV6BH2tut_pad-12" x="1600.02" y="1028.87"/><use xlink:href="#FL0tV6BH2tut_pad-12" x="1574.43" y="1028.87"/><use xlink:href="#FL0tV6BH2tut_pad-12" x="1548.84" y="1028.87"/><use xlink:href="#FL0tV6BH2tut_pad-13" x="693.92" y="1057.7"/><use xlink:href="#FL0tV6BH2tut_pad-13" x="693.92" y="770.3"/><path d="M 803.94 882.5 845.5 882.5 M 896.68 851.01 938.24 851.01 M 938.24 914 896.68 914 M 845.5 945.5 803.94 945.5 M 896.68 976.99 938.24 976.99" fill="none" stroke-width="47.56"/><use xlink:href="#FL0tV6BH2tut_pad-15" x="964" y="1164"/><use xlink:href="#FL0tV6BH2tut_pad-15" x="1064" y="1164"/><use xlink:href="#FL0tV6BH2tut_pad-15" x="1164" y="1164"/><use xlink:href="#FL0tV6BH2tut_pad-15" x="1264" y="1164"/><use xlink:href="#FL0tV6BH2tut_pad-15" x="1364" y="1164"/><use xlink:href="#FL0tV6BH2tut_pad-15" x="1464" y="1164"/><use xlink:href="#FL0tV6BH2tut_pad-15" x="1564" y="1164"/><use xlink:href="#FL0tV6BH2tut_pad-15" x="1664" y="1164"/><use xlink:href="#FL0tV6BH2tut_pad-15" x="1764" y="1164"/><use xlink:href="#FL0tV6BH2tut_pad-15" x="1864" y="1164"/><use xlink:href="#FL0tV6BH2tut_pad-15" x="1864" y="664"/><use xlink:href="#FL0tV6BH2tut_pad-15" x="1764" y="664"/><use xlink:href="#FL0tV6BH2tut_pad-15" x="1664" y="664"/><use xlink:href="#FL0tV6BH2tut_pad-15" x="1564" y="664"/><use xlink:href="#FL0tV6BH2tut_pad-15" x="1464" y="664"/><use xlink:href="#FL0tV6BH2tut_pad-15" x="1364" y="664"/><use xlink:href="#FL0tV6BH2tut_pad-15" x="1264" y="664"/><use xlink:href="#FL0tV6BH2tut_pad-15" x="1164" y="664"/><use xlink:href="#FL0tV6BH2tut_pad-15" x="1064" y="664"/><use xlink:href="#FL0tV6BH2tut_pad-15" x="964" y="664"/><use xlink:href="#FL0tV6BH2tut_pad-16" x="1067" y="798"/><use xlink:href="#FL0tV6BH2tut_pad-16" x="1141" y="798"/><use xlink:href="#FL0tV6BH2tut_pad-16" x="1104" y="880"/><use xlink:href="#FL0tV6BH2tut_pad-17" x="554.47" y="664"/><use xlink:href="#FL0tV6BH2tut_pad-17" x="613.53" y="664"/><use xlink:href="#FL0tV6BH2tut_pad-18" x="1024" y="799"/><use xlink:href="#FL0tV6BH2tut_pad-18" x="1029" y="914"/><use xlink:href="#FL0tV6BH2tut_pad-18" x="1009" y="944"/><use xlink:href="#FL0tV6BH2tut_pad-18" x="1014" y="1029"/><use xlink:href="#FL0tV6BH2tut_pad-18" x="1234" y="944"/><use xlink:href="#FL0tV6BH2tut_pad-18" x="1304" y="974"/><use xlink:href="#FL0tV6BH2tut_pad-18" x="1359" y="849"/><use xlink:href="#FL0tV6BH2tut_pad-18" x="1359" y="784"/><use xlink:href="#FL0tV6BH2tut_pad-18" x="1244" y="779"/><use xlink:href="#FL0tV6BH2tut_pad-18" x="1624" y="749"/><use xlink:href="#FL0tV6BH2tut_pad-18" x="1779.16" y="758.84"/><use xlink:href="#FL0tV6BH2tut_pad-18" x="1854" y="829"/><use xlink:href="#FL0tV6BH2tut_pad-18" x="1684" y="979"/></g><g id="pcb-stackup_top_drl1"><use xlink:href="#k1K2kjxpqBRZ_pad-1" x="1024" y="799"/><use xlink:href="#k1K2kjxpqBRZ_pad-1" x="1029" y="914"/><use xlink:href="#k1K2kjxpqBRZ_pad-1" x="1009" y="944"/><use xlink:href="#k1K2kjxpqBRZ_pad-1" x="1014" y="1029"/><use xlink:href="#k1K2kjxpqBRZ_pad-1" x="1234" y="944"/><use xlink:href="#k1K2kjxpqBRZ_pad-1" x="1304" y="974"/><use xlink:href="#k1K2kjxpqBRZ_pad-1" x="1359" y="849"/><use xlink:href="#k1K2kjxpqBRZ_pad-1" x="1359" y="784"/><use xlink:href="#k1K2kjxpqBRZ_pad-1" x="1244" y="779"/><use xlink:href="#k1K2kjxpqBRZ_pad-1" x="1624" y="749"/><use xlink:href="#k1K2kjxpqBRZ_pad-1" x="1779.2" y="758.8"/><use xlink:href="#k1K2kjxpqBRZ_pad-1" x="1854" y="829"/><use xlink:href="#k1K2kjxpqBRZ_pad-1" x="1684" y="979"/><use xlink:href="#k1K2kjxpqBRZ_pad-2" x="896.7" y="977"/><use xlink:href="#k1K2kjxpqBRZ_pad-2" x="845.5" y="945.5"/><use xlink:href="#k1K2kjxpqBRZ_pad-2" x="896.7" y="914"/><use xlink:href="#k1K2kjxpqBRZ_pad-2" x="845.5" y="882.5"/><use xlink:href="#k1K2kjxpqBRZ_pad-2" x="896.7" y="851"/><use xlink:href="#k1K2kjxpqBRZ_pad-3" x="964" y="664"/><use xlink:href="#k1K2kjxpqBRZ_pad-3" x="1064" y="664"/><use xlink:href="#k1K2kjxpqBRZ_pad-3" x="1164" y="664"/><use xlink:href="#k1K2kjxpqBRZ_pad-3" x="1264" y="664"/><use xlink:href="#k1K2kjxpqBRZ_pad-3" x="1364" y="664"/><use xlink:href="#k1K2kjxpqBRZ_pad-3" x="1464" y="664"/><use xlink:href="#k1K2kjxpqBRZ_pad-3" x="1564" y="664"/><use xlink:href="#k1K2kjxpqBRZ_pad-3" x="1664" y="664"/><use xlink:href="#k1K2kjxpqBRZ_pad-3" x="1764" y="664"/><use xlink:href="#k1K2kjxpqBRZ_pad-3" x="1864" y="664"/><use xlink:href="#k1K2kjxpqBRZ_pad-3" x="1864" y="1164"/><use xlink:href="#k1K2kjxpqBRZ_pad-3" x="1764" y="1164"/><use xlink:href="#k1K2kjxpqBRZ_pad-3" x="1664" y="1164"/><use xlink:href="#k1K2kjxpqBRZ_pad-3" x="1564" y="1164"/><use xlink:href="#k1K2kjxpqBRZ_pad-3" x="1464" y="1164"/><use xlink:href="#k1K2kjxpqBRZ_pad-3" x="1364" y="1164"/><use xlink:href="#k1K2kjxpqBRZ_pad-3" x="1264" y="1164"/><use xlink:href="#k1K2kjxpqBRZ_pad-3" x="1164" y="1164"/><use xlink:href="#k1K2kjxpqBRZ_pad-3" x="1064" y="1164"/><use xlink:href="#k1K2kjxpqBRZ_pad-3" x="964" y="1164"/><use xlink:href="#k1K2kjxpqBRZ_pad-4" x="693.9" y="1057.7"/><use xlink:href="#k1K2kjxpqBRZ_pad-4" x="693.9" y="770.3"/></g><clipPath id="pcb-stackup_top_out"><path d="M 514 614 514 1214 1914 1214 1914 614 514 614" fill="none" stroke-width="0"/></clipPath><mask id="pcb-stackup_top_mech-mask"><g fill="#000" stroke="#000"><rect x="514" y="614" width="1400" height="600" fill="#fff"/><use xlink:href="#pcb-stackup_top_drl1"/></g></mask><mask id="pcb-stackup_top_cf-mask"><g fill="#fff" stroke="#fff"><use xlink:href="#pcb-stackup_top_sm"/></g></mask><mask id="pcb-stackup_top_sm-mask"><g fill="#000" stroke="#000"><rect x="514" y="614" width="1400" height="600" fill="#fff"/><use xlink:href="#pcb-stackup_top_sm"/></g></mask></defs><g transform="translate(0,1828) scale(1,-1)"><g mask="url(#pcb-stackup_top_mech-mask)" clip-path="url(#pcb-stackup_top_out)"><rect x="514" y="614" width="1400" height="600" fill="currentColor" class="pcb-stackup_fr4"/><use xlink:href="#pcb-stackup_top_cu" fill="currentColor" stroke="currentColor" class="pcb-stackup_cu"/><use xlink:href="#pcb-stackup_top_cu" fill="currentColor" stroke="currentColor" class="pcb-stackup_cf" mask="url(#pcb-stackup_top_cf-mask)"/><g mask="url(#pcb-stackup_top_sm-mask)"><rect x="514" y="614" width="1400" height="600" fill="currentColor" class="pcb-stackup_sm"/><use xlink:href="#pcb-stackup_top_ss" fill="currentColor" stroke="currentColor" class="pcb-stackup_ss"/></g><use xlink:href="#pcb-stackup_top_sp" fill="currentColor" stroke="currentColor" class="pcb-stackup_sp"/></g></g></svg>