<svg id="pcb-stackup_bottom" version="1.1" xmlns:xlink="http://www.w3.org/1999/xlink" stroke-linecap="round" stroke-linejoin="round" stroke-width="0" fill-rule="evenodd" clip-rule="evenodd" viewBox="0 0 34000 25000" width="34mm" height="25mm" xmlns="http://www.w3.org/2000/svg"><defs><style>.pcb-stackup_fr4 {color: #4D542C;}
.pcb-stackup_cu {color: lightgrey;}
.pcb-stackup_cf {color: goldenrod;}
.pcb-stackup_sm {color: #004400; opacity: 0.9;}
.pcb-stackup_ss {color: white;}
.pcb-stackup_sp {color: #000000; opacity: 0;}
.pcb-stackup_out {color: black;}</style><circle cx="0" cy="0" r="450" id="jtwRq8Un-HLz_pad-12"/><circle cx="0" cy="0" r="2999.74" id="jtwRq8Un-HLz_pad-13"/><rect x="-863.6" y="-1016" width="1727.2" height="2032" id="jtwRq8Un-HLz_pad-14"/><rect x="-863.6" y="-1016" width="1727.2" height="2032" rx="863.6" ry="863.6" id="jtwRq8Un-HLz_pad-15"/><circle cx="0" cy="0" r="450" id="jtwRq8Un-HLz_pad-12"/><circle cx="0" cy="0" r="2999.74" id="jtwRq8Un-HLz_pad-13"/><rect x="-863.6" y="-1016" width="1727.2" height="2032" id="jtwRq8Un-HLz_pad-14"/><rect x="-863.6" y="-1016" width="1727.2" height="2032" rx="863.6" ry="863.6" id="jtwRq8Un-HLz_pad-15"/><circle cx="0" cy="0" r="450" id="jtwRq8Un-HLz_pad-12"/><circle cx="0" cy="0" r="2999.74" id="jtwRq8Un-HLz_pad-13"/><rect x="-863.6" y="-1016" width="1727.2" height="2032" id="jtwRq8Un-HLz_pad-14"/><rect x="-863.6" y="-1016" width="1727.2" height="2032" rx="863.6" ry="863.6" id="jtwRq8Un-HLz_pad-15"/><circle cx="0" cy="0" r="450" id="jtwRq8Un-HLz_pad-12"/><circle cx="0" cy="0" r="2999.74" id="jtwRq8Un-HLz_pad-13"/><rect x="-863.6" y="-1016" width="1727.2" height="2032" id="jtwRq8Un-HLz_pad-14"/><rect x="-863.6" y="-1016" width="1727.2" height="2032" rx="863.6" ry="863.6" id="jtwRq8Un-HLz_pad-15"/><circle cx="0" cy="0" r="250" id="wUPudWNkd.Ko_pad-1"/><circle cx="0" cy="0" r="508" id="wUPudWNkd.Ko_pad-2"/><circle cx="0" cy="0" r="1650" id="wUPudWNkd.Ko_pad-3"/><circle cx="0" cy="0" r="450" id="jtwRq8Un-HLz_pad-12"/><circle cx="0" cy="0" r="2999.74" id="jtwRq8Un-HLz_pad-13"/><rect x="-863.6" y="-1016" width="1727.2" height="2032" id="jtwRq8Un-HLz_pad-14"/><rect x="-863.6" y="-1016" width="1727.2" height="2032" rx="863.6" ry="863.6" id="jtwRq8Un-HLz_pad-15"/><circle cx="0" cy="0" r="450" id="jtwRq8Un-HLz_pad-12"/><circle cx="0" cy="0" r="2999.74" id="jtwRq8Un-HLz_pad-13"/><rect x="-863.6" y="-1016" width="1727.2" height="2032" id="jtwRq8Un-HLz_pad-14"/><rect x="-863.6" y="-1016" width="1727.2" height="2032" rx="863.6" ry="863.6" id="jtwRq8Un-HLz_pad-15"/><circle cx="0" cy="0" r="450" id="jtwRq8Un-HLz_pad-12"/><circle cx="0" cy="0" r="2999.74" id="jtwRq8Un-HLz_pad-13"/><rect x="-863.6" y="-1016" width="1727.2" height="2032" id="jtwRq8Un-HLz_pad-14"/><rect x="-863.6" y="-1016" width="1727.2" height="2032" rx="863.6" ry="863.6" id="jtwRq8Un-HLz_pad-15"/><circle cx="0" cy="0" r="450" id="jtwRq8Un-HLz_pad-12"/><circle cx="0" cy="0" r="2999.74" id="jtwRq8Un-HLz_pad-13"/><rect x="-863.6" y="-1016" width="1727.2" height="2032" id="jtwRq8Un-HLz_pad-14"/><rect x="-863.6" y="-1016" width="1727.2" height="2032" rx="863.6" ry="863.6" id="jtwRq8Un-HLz_pad-15"/><circle cx="0" cy="0" r="250" id="wUPudWNkd.Ko_pad-1"/><circle cx="0" cy="0" r="508" id="wUPudWNkd.Ko_pad-2"/><circle cx="0" cy="0" r="1650" id="wUPudWNkd.Ko_pad-3"/><g id="pcb-stackup_bottom_cu"><path d="M 0 25000 34000 25000 M 0 0 0 25000 M 34000 0 34000 25000 M 0 0 34000 0" fill="none" stroke-width="150"/><use xlink:href="#jtwRq8Un-HLz_pad-12" x="32300" y="7200"/><use xlink:href="#jtwRq8Un-HLz_pad-12" x="1900" y="7500"/><use xlink:href="#jtwRq8Un-HLz_pad-12" x="9300" y="5100"/><use xlink:href="#jtwRq8Un-HLz_pad-12" x="6500" y="7600"/><use xlink:href="#jtwRq8Un-HLz_pad-12" x="7800" y="2800"/><use xlink:href="#jtwRq8Un-HLz_pad-12" x="11200" y="1800"/><use xlink:href="#jtwRq8Un-HLz_pad-12" x="15500" y="2000"/><use xlink:href="#jtwRq8Un-HLz_pad-12" x="20300" y="2000"/><use xlink:href="#jtwRq8Un-HLz_pad-12" x="25800" y="2200"/><use xlink:href="#jtwRq8Un-HLz_pad-12" x="28700" y="11400"/><use xlink:href="#jtwRq8Un-HLz_pad-12" x="30200" y="15900"/><use xlink:href="#jtwRq8Un-HLz_pad-12" x="27900" y="13500"/><use xlink:href="#jtwRq8Un-HLz_pad-12" x="27800" y="15800"/><use xlink:href="#jtwRq8Un-HLz_pad-12" x="32300" y="11500"/><use xlink:href="#jtwRq8Un-HLz_pad-12" x="32100" y="9200"/><use xlink:href="#jtwRq8Un-HLz_pad-12" x="29600" y="9200"/><use xlink:href="#jtwRq8Un-HLz_pad-12" x="26800" y="9200"/><use xlink:href="#jtwRq8Un-HLz_pad-12" x="25500" y="10600"/><use xlink:href="#jtwRq8Un-HLz_pad-12" x="32300" y="14300"/><use xlink:href="#jtwRq8Un-HLz_pad-12" x="32100" y="17700"/><use xlink:href="#jtwRq8Un-HLz_pad-12" x="27600" y="17900"/><use xlink:href="#jtwRq8Un-HLz_pad-12" x="26000" y="20100"/><use xlink:href="#jtwRq8Un-HLz_pad-12" x="25500" y="22400"/><use xlink:href="#jtwRq8Un-HLz_pad-12" x="23100" y="20900"/><use xlink:href="#jtwRq8Un-HLz_pad-12" x="22000" y="23200"/><use xlink:href="#jtwRq8Un-HLz_pad-12" x="20100" y="20800"/><use xlink:href="#jtwRq8Un-HLz_pad-12" x="22300" y="12200"/><use xlink:href="#jtwRq8Un-HLz_pad-12" x="20400" y="12200"/><use xlink:href="#jtwRq8Un-HLz_pad-12" x="24100" y="12200"/><use xlink:href="#jtwRq8Un-HLz_pad-12" x="25400" y="13500"/><use xlink:href="#jtwRq8Un-HLz_pad-12" x="25500" y="15400"/><use xlink:href="#jtwRq8Un-HLz_pad-12" x="25100" y="17100"/><use xlink:href="#jtwRq8Un-HLz_pad-12" x="24000" y="18500"/><use xlink:href="#jtwRq8Un-HLz_pad-12" x="22200" y="18500"/><use xlink:href="#jtwRq8Un-HLz_pad-12" x="20200" y="18500"/><use xlink:href="#jtwRq8Un-HLz_pad-12" x="6000" y="14600"/><use xlink:href="#jtwRq8Un-HLz_pad-12" x="12900" y="11400"/><use xlink:href="#jtwRq8Un-HLz_pad-12" x="5100" y="17000"/><use xlink:href="#jtwRq8Un-HLz_pad-12" x="9300" y="23000"/><use xlink:href="#jtwRq8Un-HLz_pad-12" x="12900" y="23000"/><use xlink:href="#jtwRq8Un-HLz_pad-12" x="15800" y="23000"/><use xlink:href="#jtwRq8Un-HLz_pad-12" x="14600" y="20500"/><use xlink:href="#jtwRq8Un-HLz_pad-12" x="12200" y="20600"/><use xlink:href="#jtwRq8Un-HLz_pad-12" x="10200" y="20500"/><use xlink:href="#jtwRq8Un-HLz_pad-12" x="8700" y="19300"/><use xlink:href="#jtwRq8Un-HLz_pad-12" x="8700" y="17400"/><use xlink:href="#jtwRq8Un-HLz_pad-12" x="8700" y="15500"/><use xlink:href="#jtwRq8Un-HLz_pad-12" x="9500" y="13600"/><use xlink:href="#jtwRq8Un-HLz_pad-12" x="11700" y="13600"/><use xlink:href="#jtwRq8Un-HLz_pad-12" x="13800" y="13600"/><use xlink:href="#jtwRq8Un-HLz_pad-12" x="7600" y="12300"/><use xlink:href="#jtwRq8Un-HLz_pad-12" x="4800" y="12300"/><use xlink:href="#jtwRq8Un-HLz_pad-12" x="1900" y="13470"/><use xlink:href="#jtwRq8Un-HLz_pad-12" x="1700" y="17200"/><use xlink:href="#jtwRq8Un-HLz_pad-13" x="4100" y="4100"/><use xlink:href="#jtwRq8Un-HLz_pad-13" x="29900" y="4100"/><use xlink:href="#jtwRq8Un-HLz_pad-13" x="4100" y="20900"/><use xlink:href="#jtwRq8Un-HLz_pad-13" x="29900" y="20900"/><use xlink:href="#jtwRq8Un-HLz_pad-14" x="2950" y="9950"/><use xlink:href="#jtwRq8Un-HLz_pad-15" x="5490" y="9950"/><use xlink:href="#jtwRq8Un-HLz_pad-15" x="8030" y="9950"/><use xlink:href="#jtwRq8Un-HLz_pad-12" x="3200" y="14800"/><use xlink:href="#jtwRq8Un-HLz_pad-12" x="18500" y="23000"/><use xlink:href="#jtwRq8Un-HLz_pad-12" x="26400" y="7000"/><use xlink:href="#jtwRq8Un-HLz_pad-12" x="16200" y="13300"/><use xlink:href="#jtwRq8Un-HLz_pad-12" x="18600" y="19650"/><use xlink:href="#jtwRq8Un-HLz_pad-12" x="24200" y="8600"/><use xlink:href="#jtwRq8Un-HLz_pad-12" x="18300" y="9600"/><use xlink:href="#jtwRq8Un-HLz_pad-12" x="17000" y="16900"/><use xlink:href="#jtwRq8Un-HLz_pad-12" x="17000" y="15200"/><path d="M 18300 9600 18300 11400 M 18600 11700 18600 19650 M 18300 11400 18600 11700 M 18300 9600 23200 9600 24200 8600 M 17000 16900 17000 15200" fill="none" stroke-width="400"/><path d="M 32873 8727 25477.111 8727 25477.221 8852.897 25283.219 9322.417 24924.307 9681.957 24455.125 9876.778 24375.55 9876.847 23926.199 10326.199 23706.829 10472.777 23689.803 10489.803 23647.789 10517.666 23636.284 10519.913 23593.016 10548.824 23200 10627 19727 10627 19727 19034.169 19876.778 19394.875 19877.221 19902.897 19683.219 20372.417 19324.307 20731.957 18855.125 20926.778 18347.103 20927.221 18104.55 20827 17627 20827 17627 23873 32873 23873 32873 8727 32873 8727"/><path d="M 32873 8727 25477.111 8727 25477.221 8852.897 25283.219 9322.417 24924.307 9681.957 24455.125 9876.778 24375.55 9876.847 23926.199 10326.199 23706.829 10472.777 23689.803 10489.803 23647.789 10517.666 23636.284 10519.913 23593.016 10548.824 23200 10627 19727 10627 19727 19034.169 19876.778 19394.875 19877.221 19902.897 19683.219 20372.417 19324.307 20731.957 18855.125 20926.778 18347.103 20927.221 18104.55 20827 17627 20827 17627 23873 32873 23873 32873 8727" fill="none" stroke-width="254"/><path d="M 16673 21352.606 16310.197 20989.803 16282.334 20947.789 16273 20900 16273 20027 15000 20027 14950.59 20016.994 14920.664 19999.17 14420.664 19599.17 14388.331 19560.491 14373 19500 14373 8727 10127 8727 10127 11400 10116.994 11449.41 10088.553 11491.035 10046.159 11518.315 10000 11527 8936.503 11527 8676.965 11700.418 8030 11829.107 7383.035 11700.418 7123.497 11527 6396.503 11527 6136.965 11700.418 5490 11829.107 4843.035 11700.418 4583.497 11527 4435.348 11527 4418.013 11553.939 4141.652 11742.769 3813.6 11809.201 2086.4 11809.201 1779.932 11751.535 1498.461 11570.413 1468.798 11527 1127 11527 1127 23873 16673 23873 16673 21352.606 16673 21352.606"/><path d="M 16673 21352.606 16310.197 20989.803 16282.334 20947.789 16273 20900 16273 20027 15000 20027 14950.59 20016.994 14920.664 19999.17 14420.664 19599.17 14388.331 19560.491 14373 19500 14373 8727 10127 8727 10127 11400 10116.994 11449.41 10088.553 11491.035 10046.159 11518.315 10000 11527 8936.503 11527 8676.965 11700.418 8030 11829.107 7383.035 11700.418 7123.497 11527 6396.503 11527 6136.965 11700.418 5490 11829.107 4843.035 11700.418 4583.497 11527 4435.348 11527 4418.013 11553.939 4141.652 11742.769 3813.6 11809.201 2086.4 11809.201 1779.932 11751.535 1498.461 11570.413 1468.798 11527 1127 11527 1127 23873 16673 23873 16673 21352.606" fill="none" stroke-width="254"/><path d="M 1481.987 8346.061 1758.348 8157.231 2086.4 8090.799 3813.6 8090.799 4120.068 8148.465 4401.539 8329.587 4431.202 8373 7123.497 8373 7383.035 8199.582 8030 8070.893 8676.965 8199.582 8823.141 8297.253 9310.197 7810.197 9352.211 7782.334 9400 7773 15000 7773 15049.41 7783.006 15089.803 7810.197 15552.606 8273 22247.394 8273 23210.197 7310.197 23252.211 7282.334 23300 7273 24900 7273 24949.41 7283.006 24989.803 7310.197 25452.606 7773 32873 7773 32873 1127 1127 1127 1127 8373 1464.652 8373 1481.987 8346.061 1481.987 8346.061"/><path d="M 1481.987 8346.061 1758.348 8157.231 2086.4 8090.799 3813.6 8090.799 4120.068 8148.465 4401.539 8329.587 4431.202 8373 7123.497 8373 7383.035 8199.582 8030 8070.893 8676.965 8199.582 8823.141 8297.253 9310.197 7810.197 9352.211 7782.334 9400 7773 15000 7773 15049.41 7783.006 15089.803 7810.197 15552.606 8273 22247.394 8273 23210.197 7310.197 23252.211 7282.334 23300 7273 24900 7273 24949.41 7283.006 24989.803 7310.197 25452.606 7773 32873 7773 32873 1127 1127 1127 1127 8373 1464.652 8373 1481.987 8346.061" fill="none" stroke-width="254"/><path d="M 17573 12125 17351.176 11793.016 17273 11400 17273 10379.168 17218.043 10324.307 17023.222 9855.125 17022.779 9347.103 17072.405 9227 15327 9227 15327 18073 17573 18073 17573 12125 17573 12125"/><path d="M 17573 12125 17351.176 11793.016 17273 11400 17273 10379.168 17218.043 10324.307 17023.222 9855.125 17022.779 9347.103 17072.405 9227 15327 9227 15327 18073 17573 18073 17573 12125" fill="none" stroke-width="254"/></g><g id="pcb-stackup_bottom_sm"><path d="M 0 25000 34000 25000 M 0 0 0 25000 M 34000 0 34000 25000 M 0 0 34000 0" fill="none" stroke-width="150"/><path d="M 4425.578 7197.677 5021.055 7075.443 5581.444 6839.877 6085.409 6499.949 6513.752 6068.605 6850.153 5562.281 7081.801 5000.261 7199.807 4404.289 7199.807 4404.279 7199.873 4403.945 7190.177 3709.62 7190.101 3709.286 7190.101 3709.274 7055.504 3116.837 6808.251 2561.5 6457.844 2064.766 6017.622 1645.549 5504.367 1319.828 4937.615 1099.998 4338.962 994.44 3731.205 1007.17 3137.488 1137.707 2580.444 1381.074 2081.275 1728.005 1658.997 2165.288 1329.7 2676.256 1105.92 3241.459 996.183 3839.368 1004.671 4447.198 1131.058 5041.802 1370.533 5600.538 1713.971 6102.116 2148.293 6527.437 2656.953 6860.295 3220.58 7088.015 3817.7 7201.921 4425.578 7197.677 4425.578 7197.677"/><path d="M 30225.578 7197.677 30821.055 7075.443 31381.444 6839.877 31885.409 6499.949 32313.752 6068.605 32650.153 5562.281 32881.801 5000.261 32999.807 4404.289 32999.807 4404.279 32999.873 4403.945 32990.177 3709.62 32990.101 3709.286 32990.101 3709.274 32855.504 3116.837 32608.251 2561.5 32257.844 2064.766 31817.622 1645.549 31304.367 1319.828 30737.615 1099.998 30138.962 994.44 29531.205 1007.17 28937.488 1137.707 28380.444 1381.074 27881.275 1728.005 27458.997 2165.288 27129.7 2676.256 26905.92 3241.459 26796.183 3839.368 26804.671 4447.198 26931.058 5041.802 27170.533 5600.538 27513.971 6102.116 27948.293 6527.437 28456.953 6860.295 29020.58 7088.015 29617.7 7201.921 30225.578 7197.677 30225.578 7197.677"/><path d="M 5683.71 11051.726 5683.719 11051.723 5683.759 11051.719 5863.41 10996.107 6028.838 10906.661 6173.742 10786.786 6292.603 10641.048 6380.893 10474.999 6435.248 10294.964 6453.6 10107.8 6453.6 9792.2 6453.506 9778.746 6432.543 9591.856 6375.679 9412.598 6285.079 9247.798 6164.196 9103.734 6017.632 8985.894 5850.971 8898.766 5670.561 8845.668 5670.522 8845.664 5670.514 8845.662 5483.275 8828.621 5296.29 8848.274 5296.281 8848.277 5296.241 8848.281 5116.59 8903.893 4951.162 8993.339 4806.258 9113.214 4687.397 9258.952 4599.107 9425.001 4544.752 9605.036 4526.4 9792.2 4526.4 10107.8 4526.494 10121.254 4547.457 10308.144 4604.321 10487.402 4694.921 10652.202 4815.804 10796.266 4962.368 10914.106 5129.029 11001.234 5309.439 11054.332 5309.478 11054.336 5309.486 11054.338 5496.725 11071.379 5683.71 11051.726 5683.71 11051.726"/><path d="M 8223.71 11051.726 8223.719 11051.723 8223.759 11051.719 8403.41 10996.107 8568.838 10906.661 8713.742 10786.786 8832.603 10641.048 8920.893 10474.999 8975.248 10294.964 8993.6 10107.8 8993.6 9792.2 8993.506 9778.746 8972.543 9591.856 8915.679 9412.598 8825.079 9247.798 8704.196 9103.734 8557.632 8985.894 8390.971 8898.766 8210.561 8845.668 8210.522 8845.664 8210.514 8845.662 8023.275 8828.621 7836.29 8848.274 7836.281 8848.277 7836.241 8848.281 7656.59 8903.893 7491.162 8993.339 7346.258 9113.214 7227.397 9258.952 7139.107 9425.001 7084.752 9605.036 7066.4 9792.2 7066.4 10107.8 7066.494 10121.254 7087.457 10308.144 7144.321 10487.402 7234.921 10652.202 7355.804 10796.266 7502.368 10914.106 7669.029 11001.234 7849.439 11054.332 7849.478 11054.336 7849.486 11054.338 8036.725 11071.379 8223.71 11051.726 8223.71 11051.726"/><path d="M 3913.6 8834 1986.4 8834 1986.4 11066 3913.6 11066 3913.6 8834 3913.6 8834"/><path d="M 4425.578 23997.677 5021.055 23875.443 5581.444 23639.877 6085.409 23299.949 6513.752 22868.605 6850.153 22362.281 7081.801 21800.261 7199.807 21204.289 7199.807 21204.279 7199.873 21203.945 7190.177 20509.62 7190.101 20509.286 7190.101 20509.274 7055.504 19916.837 6808.251 19361.5 6457.844 18864.766 6017.622 18445.549 5504.367 18119.828 4937.615 17899.998 4338.962 17794.44 3731.205 17807.17 3137.488 17937.707 2580.444 18181.074 2081.275 18528.005 1658.997 18965.288 1329.7 19476.256 1105.92 20041.459 996.183 20639.368 1004.671 21247.198 1131.058 21841.802 1370.533 22400.538 1713.971 22902.116 2148.293 23327.437 2656.953 23660.295 3220.58 23888.015 3817.7 24001.921 4425.578 23997.677 4425.578 23997.677"/><path d="M 30225.578 23997.677 30821.055 23875.443 31381.444 23639.877 31885.409 23299.949 32313.752 22868.605 32650.153 22362.281 32881.801 21800.261 32999.807 21204.289 32999.807 21204.279 32999.873 21203.945 32990.177 20509.62 32990.101 20509.286 32990.101 20509.274 32855.504 19916.837 32608.251 19361.5 32257.844 18864.766 31817.622 18445.549 31304.367 18119.828 30737.615 17899.998 30138.962 17794.44 29531.205 17807.17 28937.488 17937.707 28380.444 18181.074 27881.275 18528.005 27458.997 18965.288 27129.7 19476.256 26905.92 20041.459 26796.183 20639.368 26804.671 21247.198 26931.058 21841.802 27170.533 22400.538 27513.971 22902.116 27948.293 23327.437 28456.953 23660.295 29020.58 23888.015 29617.7 24001.921 30225.578 23997.677 30225.578 23997.677"/></g><g id="pcb-stackup_bottom_drl1"><use xlink:href="#wUPudWNkd.Ko_pad-1" x="1700" y="17200"/><use xlink:href="#wUPudWNkd.Ko_pad-1" x="1900" y="13470"/><use xlink:href="#wUPudWNkd.Ko_pad-1" x="1900" y="7500"/><use xlink:href="#wUPudWNkd.Ko_pad-1" x="3200" y="14800"/><use xlink:href="#wUPudWNkd.Ko_pad-1" x="4800" y="12300"/><use xlink:href="#wUPudWNkd.Ko_pad-1" x="5100" y="17000"/><use xlink:href="#wUPudWNkd.Ko_pad-1" x="6000" y="14600"/><use xlink:href="#wUPudWNkd.Ko_pad-1" x="6500" y="7600"/><use xlink:href="#wUPudWNkd.Ko_pad-1" x="7600" y="12300"/><use xlink:href="#wUPudWNkd.Ko_pad-1" x="7800" y="2800"/><use xlink:href="#wUPudWNkd.Ko_pad-1" x="8700" y="19300"/><use xlink:href="#wUPudWNkd.Ko_pad-1" x="8700" y="17400"/><use xlink:href="#wUPudWNkd.Ko_pad-1" x="8700" y="15500"/><use xlink:href="#wUPudWNkd.Ko_pad-1" x="9300" y="23000"/><use xlink:href="#wUPudWNkd.Ko_pad-1" x="9300" y="5100"/><use xlink:href="#wUPudWNkd.Ko_pad-1" x="9500" y="13600"/><use xlink:href="#wUPudWNkd.Ko_pad-1" x="10200" y="20500"/><use xlink:href="#wUPudWNkd.Ko_pad-1" x="11200" y="1800"/><use xlink:href="#wUPudWNkd.Ko_pad-1" x="11700" y="13600"/><use xlink:href="#wUPudWNkd.Ko_pad-1" x="12200" y="20600"/><use xlink:href="#wUPudWNkd.Ko_pad-1" x="12900" y="23000"/><use xlink:href="#wUPudWNkd.Ko_pad-1" x="12900" y="11400"/><use xlink:href="#wUPudWNkd.Ko_pad-1" x="13800" y="13600"/><use xlink:href="#wUPudWNkd.Ko_pad-1" x="14600" y="20500"/><use xlink:href="#wUPudWNkd.Ko_pad-1" x="15500" y="2000"/><use xlink:href="#wUPudWNkd.Ko_pad-1" x="15800" y="23000"/><use xlink:href="#wUPudWNkd.Ko_pad-1" x="16200" y="13300"/><use xlink:href="#wUPudWNkd.Ko_pad-1" x="17000" y="16900"/><use xlink:href="#wUPudWNkd.Ko_pad-1" x="17000" y="15200"/><use xlink:href="#wUPudWNkd.Ko_pad-1" x="18300" y="9600"/><use xlink:href="#wUPudWNkd.Ko_pad-1" x="18500" y="23000"/><use xlink:href="#wUPudWNkd.Ko_pad-1" x="18600" y="19650"/><use xlink:href="#wUPudWNkd.Ko_pad-1" x="20100" y="20800"/><use xlink:href="#wUPudWNkd.Ko_pad-1" x="20200" y="18500"/><use xlink:href="#wUPudWNkd.Ko_pad-1" x="20300" y="2000"/><use xlink:href="#wUPudWNkd.Ko_pad-1" x="20400" y="12200"/><use xlink:href="#wUPudWNkd.Ko_pad-1" x="22000" y="23200"/><use xlink:href="#wUPudWNkd.Ko_pad-1" x="22200" y="18500"/><use xlink:href="#wUPudWNkd.Ko_pad-1" x="22300" y="12200"/><use xlink:href="#wUPudWNkd.Ko_pad-1" x="23100" y="20900"/><use xlink:href="#wUPudWNkd.Ko_pad-1" x="24000" y="18500"/><use xlink:href="#wUPudWNkd.Ko_pad-1" x="24100" y="12200"/><use xlink:href="#wUPudWNkd.Ko_pad-1" x="24200" y="8600"/><use xlink:href="#wUPudWNkd.Ko_pad-1" x="25100" y="17100"/><use xlink:href="#wUPudWNkd.Ko_pad-1" x="25400" y="13500"/><use xlink:href="#wUPudWNkd.Ko_pad-1" x="25500" y="22400"/><use xlink:href="#wUPudWNkd.Ko_pad-1" x="25500" y="15400"/><use xlink:href="#wUPudWNkd.Ko_pad-1" x="25500" y="10600"/><use xlink:href="#wUPudWNkd.Ko_pad-1" x="25800" y="2200"/><use xlink:href="#wUPudWNkd.Ko_pad-1" x="26000" y="20100"/><use xlink:href="#wUPudWNkd.Ko_pad-1" x="26400" y="7000"/><use xlink:href="#wUPudWNkd.Ko_pad-1" x="26800" y="9200"/><use xlink:href="#wUPudWNkd.Ko_pad-1" x="27600" y="17900"/><use xlink:href="#wUPudWNkd.Ko_pad-1" x="27800" y="15800"/><use xlink:href="#wUPudWNkd.Ko_pad-1" x="27900" y="13500"/><use xlink:href="#wUPudWNkd.Ko_pad-1" x="28700" y="11400"/><use xlink:href="#wUPudWNkd.Ko_pad-1" x="29600" y="9200"/><use xlink:href="#wUPudWNkd.Ko_pad-1" x="30200" y="15900"/><use xlink:href="#wUPudWNkd.Ko_pad-1" x="32100" y="17700"/><use xlink:href="#wUPudWNkd.Ko_pad-1" x="32100" y="9200"/><use xlink:href="#wUPudWNkd.Ko_pad-1" x="32300" y="14300"/><use xlink:href="#wUPudWNkd.Ko_pad-1" x="32300" y="11500"/><use xlink:href="#wUPudWNkd.Ko_pad-1" x="32300" y="7200"/><use xlink:href="#wUPudWNkd.Ko_pad-2" x="2950" y="9950"/><use xlink:href="#wUPudWNkd.Ko_pad-2" x="5490" y="9950"/><use xlink:href="#wUPudWNkd.Ko_pad-2" x="8030" y="9950"/><use xlink:href="#wUPudWNkd.Ko_pad-3" x="4100" y="20900"/><use xlink:href="#wUPudWNkd.Ko_pad-3" x="4100" y="4100"/><use xlink:href="#wUPudWNkd.Ko_pad-3" x="29900" y="20900"/><use xlink:href="#wUPudWNkd.Ko_pad-3" x="29900" y="4100"/></g><clipPath id="pcb-stackup_bottom_out"><path d="M 0 25000 34000 25000 34000 0 0 0 0 25000" fill="none" stroke-width="150"/></clipPath><mask id="pcb-stackup_bottom_mech-mask"><g fill="#000" stroke="#000"><rect x="0" y="0" width="34000" height="25000" fill="#fff"/><use xlink:href="#pcb-stackup_bottom_drl1"/></g></mask><mask id="pcb-stackup_bottom_cf-mask"><g fill="#fff" stroke="#fff"><use xlink:href="#pcb-stackup_bottom_sm"/></g></mask><mask id="pcb-stackup_bottom_sm-mask"><g fill="#000" stroke="#000"><rect x="0" y="0" width="34000" height="25000" fill="#fff"/><use xlink:href="#pcb-stackup_bottom_sm"/></g></mask></defs><g transform="translate(0,25000) scale(1,-1)"><g mask="url(#pcb-stackup_bottom_mech-mask)" clip-path="url(#pcb-stackup_bottom_out)" transform="translate(34000,0) scale(-1,1)"><rect x="0" y="0" width="34000" height="25000" fill="currentColor" class="pcb-stackup_fr4"/><use xlink:href="#pcb-stackup_bottom_cu" fill="currentColor" stroke="currentColor" class="pcb-stackup_cu"/><use xlink:href="#pcb-stackup_bottom_cu" fill="currentColor" stroke="currentColor" class="pcb-stackup_cf" mask="url(#pcb-stackup_bottom_cf-mask)"/><g mask="url(#pcb-stackup_bottom_sm-mask)"><rect x="0" y="0" width="34000" height="25000" fill="currentColor" class="pcb-stackup_sm"/></g></g></g></svg>