<svg id="pcb-stackup_top" version="1.1" xmlns:xlink="http://www.w3.org/1999/xlink" stroke-linecap="round" stroke-linejoin="round" stroke-width="0" fill-rule="evenodd" clip-rule="evenodd" viewBox="0 0 34000 25000" width="34mm" height="25mm" xmlns="http://www.w3.org/2000/svg"><defs><style>.pcb-stackup_fr4 {color: #4D542C;}
.pcb-stackup_cu {color: lightgrey;}
.pcb-stackup_cf {color: goldenrod;}
.pcb-stackup_sm {color: #004400; opacity: 0.9;}
.pcb-stackup_ss {color: white;}
.pcb-stackup_sp {color: #000000; opacity: 0;}
.pcb-stackup_out {color: black;}</style><rect x="-295" y="-225" width="590" height="450" id="tKzN9vRZBOjG_pad-12"/><circle cx="0" cy="0" r="450" id="tKzN9vRZBOjG_pad-13"/><rect x="-900.43" y="-1249.68" width="1800.86" height="2499.36" id="tKzN9vRZBOjG_pad-14"/><rect x="-725" y="-225" width="1450" height="450" id="tKzN9vRZBOjG_pad-15"/><rect x="-2250" y="-325" width="4500" height="650" id="tKzN9vRZBOjG_pad-16"/><rect x="-2500" y="-350" width="5000" height="700" id="tKzN9vRZBOjG_pad-17"/><rect x="-600" y="-350" width="1200" height="700" id="tKzN9vRZBOjG_pad-18"/><rect x="-1249.68" y="-900.43" width="2499.36" height="1800.86" id="tKzN9vRZBOjG_pad-19"/><rect x="-375" y="-400" width="750" height="800" id="tKzN9vRZBOjG_pad-20"/><rect x="-850" y="-450" width="1700" height="900" id="tKzN9vRZBOjG_pad-21"/><rect x="-450" y="-250" width="900" height="500" id="tKzN9vRZBOjG_pad-22"/><rect x="-250" y="-450" width="500" height="900" id="tKzN9vRZBOjG_pad-23"/><rect x="-800" y="-500" width="1600" height="1000" id="tKzN9vRZBOjG_pad-24"/><circle cx="0" cy="0" r="2999.74" id="tKzN9vRZBOjG_pad-25"/><rect x="-863.6" y="-1016" width="1727.2" height="2032" id="tKzN9vRZBOjG_pad-26"/><rect x="-863.6" y="-1016" width="1727.2" height="2032" rx="863.6" ry="863.6" id="tKzN9vRZBOjG_pad-27"/><rect x="-295" y="-225" width="590" height="450" id="tKzN9vRZBOjG_pad-12"/><circle cx="0" cy="0" r="450" id="tKzN9vRZBOjG_pad-13"/><rect x="-900.43" y="-1249.68" width="1800.86" height="2499.36" id="tKzN9vRZBOjG_pad-14"/><rect x="-725" y="-225" width="1450" height="450" id="tKzN9vRZBOjG_pad-15"/><rect x="-2250" y="-325" width="4500" height="650" id="tKzN9vRZBOjG_pad-16"/><rect x="-2500" y="-350" width="5000" height="700" id="tKzN9vRZBOjG_pad-17"/><rect x="-600" y="-350" width="1200" height="700" id="tKzN9vRZBOjG_pad-18"/><rect x="-1249.68" y="-900.43" width="2499.36" height="1800.86" id="tKzN9vRZBOjG_pad-19"/><rect x="-375" y="-400" width="750" height="800" id="tKzN9vRZBOjG_pad-20"/><rect x="-850" y="-450" width="1700" height="900" id="tKzN9vRZBOjG_pad-21"/><rect x="-450" y="-250" width="900" height="500" id="tKzN9vRZBOjG_pad-22"/><rect x="-250" y="-450" width="500" height="900" id="tKzN9vRZBOjG_pad-23"/><rect x="-800" y="-500" width="1600" height="1000" id="tKzN9vRZBOjG_pad-24"/><circle cx="0" cy="0" r="2999.74" id="tKzN9vRZBOjG_pad-25"/><rect x="-863.6" y="-1016" width="1727.2" height="2032" id="tKzN9vRZBOjG_pad-26"/><rect x="-863.6" y="-1016" width="1727.2" height="2032" rx="863.6" ry="863.6" id="tKzN9vRZBOjG_pad-27"/><rect x="-295" y="-225" width="590" height="450" id="tKzN9vRZBOjG_pad-12"/><circle cx="0" cy="0" r="450" id="tKzN9vRZBOjG_pad-13"/><rect x="-900.43" y="-1249.68" width="1800.86" height="2499.36" id="tKzN9vRZBOjG_pad-14"/><rect x="-725" y="-225" width="1450" height="450" id="tKzN9vRZBOjG_pad-15"/><rect x="-2250" y="-325" width="4500" height="650" id="tKzN9vRZBOjG_pad-16"/><rect x="-2500" y="-350" width="5000" height="700" id="tKzN9vRZBOjG_pad-17"/><rect x="-600" y="-350" width="1200" height="700" id="tKzN9vRZBOjG_pad-18"/><rect x="-1249.68" y="-900.43" width="2499.36" height="1800.86" id="tKzN9vRZBOjG_pad-19"/><rect x="-375" y="-400" width="750" height="800" id="tKzN9vRZBOjG_pad-20"/><rect x="-850" y="-450" width="1700" height="900" id="tKzN9vRZBOjG_pad-21"/><rect x="-450" y="-250" width="900" height="500" id="tKzN9vRZBOjG_pad-22"/><rect x="-250" y="-450" width="500" height="900" id="tKzN9vRZBOjG_pad-23"/><rect x="-800" y="-500" width="1600" height="1000" id="tKzN9vRZBOjG_pad-24"/><circle cx="0" cy="0" r="2999.74" id="tKzN9vRZBOjG_pad-25"/><rect x="-863.6" y="-1016" width="1727.2" height="2032" id="tKzN9vRZBOjG_pad-26"/><rect x="-863.6" y="-1016" width="1727.2" height="2032" rx="863.6" ry="863.6" id="tKzN9vRZBOjG_pad-27"/><rect x="-295" y="-225" width="590" height="450" id="tKzN9vRZBOjG_pad-12"/><circle cx="0" cy="0" r="450" id="tKzN9vRZBOjG_pad-13"/><rect x="-900.43" y="-1249.68" width="1800.86" height="2499.36" id="tKzN9vRZBOjG_pad-14"/><rect x="-725" y="-225" width="1450" height="450" id="tKzN9vRZBOjG_pad-15"/><rect x="-2250" y="-325" width="4500" height="650" id="tKzN9vRZBOjG_pad-16"/><rect x="-2500" y="-350" width="5000" height="700" id="tKzN9vRZBOjG_pad-17"/><rect x="-600" y="-350" width="1200" height="700" id="tKzN9vRZBOjG_pad-18"/><rect x="-1249.68" y="-900.43" width="2499.36" height="1800.86" id="tKzN9vRZBOjG_pad-19"/><rect x="-375" y="-400" width="750" height="800" id="tKzN9vRZBOjG_pad-20"/><rect x="-850" y="-450" width="1700" height="900" id="tKzN9vRZBOjG_pad-21"/><rect x="-450" y="-250" width="900" height="500" id="tKzN9vRZBOjG_pad-22"/><rect x="-250" y="-450" width="500" height="900" id="tKzN9vRZBOjG_pad-23"/><rect x="-800" y="-500" width="1600" height="1000" id="tKzN9vRZBOjG_pad-24"/><circle cx="0" cy="0" r="2999.74" id="tKzN9vRZBOjG_pad-25"/><rect x="-863.6" y="-1016" width="1727.2" height="2032" id="tKzN9vRZBOjG_pad-26"/><rect x="-863.6" y="-1016" width="1727.2" height="2032" rx="863.6" ry="863.6" id="tKzN9vRZBOjG_pad-27"/><rect x="-295" y="-225" width="590" height="450" id="Lb994yH_V-_y_pad-12"/><rect x="-900.43" y="-1249.68" width="1800.86" height="2499.36" id="Lb994yH_V-_y_pad-13"/><rect x="-725" y="-225" width="1450" height="450" id="Lb994yH_V-_y_pad-14"/><rect x="-2250" y="-325" width="4500" height="650" id="Lb994yH_V-_y_pad-15"/><rect x="-2500" y="-350" width="5000" height="700" id="Lb994yH_V-_y_pad-16"/><rect x="-600" y="-350" width="1200" height="700" id="Lb994yH_V-_y_pad-17"/><rect x="-1249.68" y="-900.43" width="2499.36" height="1800.86" id="Lb994yH_V-_y_pad-18"/><rect x="-375" y="-400" width="750" height="800" id="Lb994yH_V-_y_pad-19"/><rect x="-850" y="-450" width="1700" height="900" id="Lb994yH_V-_y_pad-20"/><rect x="-450" y="-250" width="900" height="500" id="Lb994yH_V-_y_pad-21"/><rect x="-250" y="-450" width="500" height="900" id="Lb994yH_V-_y_pad-22"/><rect x="-800" y="-500" width="1600" height="1000" id="Lb994yH_V-_y_pad-23"/><rect x="-295" y="-225" width="590" height="450" id="tKzN9vRZBOjG_pad-12"/><circle cx="0" cy="0" r="450" id="tKzN9vRZBOjG_pad-13"/><rect x="-900.43" y="-1249.68" width="1800.86" height="2499.36" id="tKzN9vRZBOjG_pad-14"/><rect x="-725" y="-225" width="1450" height="450" id="tKzN9vRZBOjG_pad-15"/><rect x="-2250" y="-325" width="4500" height="650" id="tKzN9vRZBOjG_pad-16"/><rect x="-2500" y="-350" width="5000" height="700" id="tKzN9vRZBOjG_pad-17"/><rect x="-600" y="-350" width="1200" height="700" id="tKzN9vRZBOjG_pad-18"/><rect x="-1249.68" y="-900.43" width="2499.36" height="1800.86" id="tKzN9vRZBOjG_pad-19"/><rect x="-375" y="-400" width="750" height="800" id="tKzN9vRZBOjG_pad-20"/><rect x="-850" y="-450" width="1700" height="900" id="tKzN9vRZBOjG_pad-21"/><rect x="-450" y="-250" width="900" height="500" id="tKzN9vRZBOjG_pad-22"/><rect x="-250" y="-450" width="500" height="900" id="tKzN9vRZBOjG_pad-23"/><rect x="-800" y="-500" width="1600" height="1000" id="tKzN9vRZBOjG_pad-24"/><circle cx="0" cy="0" r="2999.74" id="tKzN9vRZBOjG_pad-25"/><rect x="-863.6" y="-1016" width="1727.2" height="2032" id="tKzN9vRZBOjG_pad-26"/><rect x="-863.6" y="-1016" width="1727.2" height="2032" rx="863.6" ry="863.6" id="tKzN9vRZBOjG_pad-27"/><rect x="-295" y="-225" width="590" height="450" id="tKzN9vRZBOjG_pad-12"/><circle cx="0" cy="0" r="450" id="tKzN9vRZBOjG_pad-13"/><rect x="-900.43" y="-1249.68" width="1800.86" height="2499.36" id="tKzN9vRZBOjG_pad-14"/><rect x="-725" y="-225" width="1450" height="450" id="tKzN9vRZBOjG_pad-15"/><rect x="-2250" y="-325" width="4500" height="650" id="tKzN9vRZBOjG_pad-16"/><rect x="-2500" y="-350" width="5000" height="700" id="tKzN9vRZBOjG_pad-17"/><rect x="-600" y="-350" width="1200" height="700" id="tKzN9vRZBOjG_pad-18"/><rect x="-1249.68" y="-900.43" width="2499.36" height="1800.86" id="tKzN9vRZBOjG_pad-19"/><rect x="-375" y="-400" width="750" height="800" id="tKzN9vRZBOjG_pad-20"/><rect x="-850" y="-450" width="1700" height="900" id="tKzN9vRZBOjG_pad-21"/><rect x="-450" y="-250" width="900" height="500" id="tKzN9vRZBOjG_pad-22"/><rect x="-250" y="-450" width="500" height="900" id="tKzN9vRZBOjG_pad-23"/><rect x="-800" y="-500" width="1600" height="1000" id="tKzN9vRZBOjG_pad-24"/><circle cx="0" cy="0" r="2999.74" id="tKzN9vRZBOjG_pad-25"/><rect x="-863.6" y="-1016" width="1727.2" height="2032" id="tKzN9vRZBOjG_pad-26"/><rect x="-863.6" y="-1016" width="1727.2" height="2032" rx="863.6" ry="863.6" id="tKzN9vRZBOjG_pad-27"/><rect x="-295" y="-225" width="590" height="450" id="tKzN9vRZBOjG_pad-12"/><circle cx="0" cy="0" r="450" id="tKzN9vRZBOjG_pad-13"/><rect x="-900.43" y="-1249.68" width="1800.86" height="2499.36" id="tKzN9vRZBOjG_pad-14"/><rect x="-725" y="-225" width="1450" height="450" id="tKzN9vRZBOjG_pad-15"/><rect x="-2250" y="-325" width="4500" height="650" id="tKzN9vRZBOjG_pad-16"/><rect x="-2500" y="-350" width="5000" height="700" id="tKzN9vRZBOjG_pad-17"/><rect x="-600" y="-350" width="1200" height="700" id="tKzN9vRZBOjG_pad-18"/><rect x="-1249.68" y="-900.43" width="2499.36" height="1800.86" id="tKzN9vRZBOjG_pad-19"/><rect x="-375" y="-400" width="750" height="800" id="tKzN9vRZBOjG_pad-20"/><rect x="-850" y="-450" width="1700" height="900" id="tKzN9vRZBOjG_pad-21"/><rect x="-450" y="-250" width="900" height="500" id="tKzN9vRZBOjG_pad-22"/><rect x="-250" y="-450" width="500" height="900" id="tKzN9vRZBOjG_pad-23"/><rect x="-800" y="-500" width="1600" height="1000" id="tKzN9vRZBOjG_pad-24"/><circle cx="0" cy="0" r="2999.74" id="tKzN9vRZBOjG_pad-25"/><rect x="-863.6" y="-1016" width="1727.2" height="2032" id="tKzN9vRZBOjG_pad-26"/><rect x="-863.6" y="-1016" width="1727.2" height="2032" rx="863.6" ry="863.6" id="tKzN9vRZBOjG_pad-27"/><rect x="-295" y="-225" width="590" height="450" id="tKzN9vRZBOjG_pad-12"/><circle cx="0" cy="0" r="450" id="tKzN9vRZBOjG_pad-13"/><rect x="-900.43" y="-1249.68" width="1800.86" height="2499.36" id="tKzN9vRZBOjG_pad-14"/><rect x="-725" y="-225" width="1450" height="450" id="tKzN9vRZBOjG_pad-15"/><rect x="-2250" y="-325" width="4500" height="650" id="tKzN9vRZBOjG_pad-16"/><rect x="-2500" y="-350" width="5000" height="700" id="tKzN9vRZBOjG_pad-17"/><rect x="-600" y="-350" width="1200" height="700" id="tKzN9vRZBOjG_pad-18"/><rect x="-1249.68" y="-900.43" width="2499.36" height="1800.86" id="tKzN9vRZBOjG_pad-19"/><rect x="-375" y="-400" width="750" height="800" id="tKzN9vRZBOjG_pad-20"/><rect x="-850" y="-450" width="1700" height="900" id="tKzN9vRZBOjG_pad-21"/><rect x="-450" y="-250" width="900" height="500" id="tKzN9vRZBOjG_pad-22"/><rect x="-250" y="-450" width="500" height="900" id="tKzN9vRZBOjG_pad-23"/><rect x="-800" y="-500" width="1600" height="1000" id="tKzN9vRZBOjG_pad-24"/><circle cx="0" cy="0" r="2999.74" id="tKzN9vRZBOjG_pad-25"/><rect x="-863.6" y="-1016" width="1727.2" height="2032" id="tKzN9vRZBOjG_pad-26"/><rect x="-863.6" y="-1016" width="1727.2" height="2032" rx="863.6" ry="863.6" id="tKzN9vRZBOjG_pad-27"/><rect x="-295" y="-225" width="590" height="450" id="Lb994yH_V-_y_pad-12"/><rect x="-900.43" y="-1249.68" width="1800.86" height="2499.36" id="Lb994yH_V-_y_pad-13"/><rect x="-725" y="-225" width="1450" height="450" id="Lb994yH_V-_y_pad-14"/><rect x="-2250" y="-325" width="4500" height="650" id="Lb994yH_V-_y_pad-15"/><rect x="-2500" y="-350" width="5000" height="700" id="Lb994yH_V-_y_pad-16"/><rect x="-600" y="-350" width="1200" height="700" id="Lb994yH_V-_y_pad-17"/><rect x="-1249.68" y="-900.43" width="2499.36" height="1800.86" id="Lb994yH_V-_y_pad-18"/><rect x="-375" y="-400" width="750" height="800" id="Lb994yH_V-_y_pad-19"/><rect x="-850" y="-450" width="1700" height="900" id="Lb994yH_V-_y_pad-20"/><rect x="-450" y="-250" width="900" height="500" id="Lb994yH_V-_y_pad-21"/><rect x="-250" y="-450" width="500" height="900" id="Lb994yH_V-_y_pad-22"/><rect x="-800" y="-500" width="1600" height="1000" id="Lb994yH_V-_y_pad-23"/><rect x="-295" y="-225" width="590" height="450" id="tKzN9vRZBOjG_pad-12"/><circle cx="0" cy="0" r="450" id="tKzN9vRZBOjG_pad-13"/><rect x="-900.43" y="-1249.68" width="1800.86" height="2499.36" id="tKzN9vRZBOjG_pad-14"/><rect x="-725" y="-225" width="1450" height="450" id="tKzN9vRZBOjG_pad-15"/><rect x="-2250" y="-325" width="4500" height="650" id="tKzN9vRZBOjG_pad-16"/><rect x="-2500" y="-350" width="5000" height="700" id="tKzN9vRZBOjG_pad-17"/><rect x="-600" y="-350" width="1200" height="700" id="tKzN9vRZBOjG_pad-18"/><rect x="-1249.68" y="-900.43" width="2499.36" height="1800.86" id="tKzN9vRZBOjG_pad-19"/><rect x="-375" y="-400" width="750" height="800" id="tKzN9vRZBOjG_pad-20"/><rect x="-850" y="-450" width="1700" height="900" id="tKzN9vRZBOjG_pad-21"/><rect x="-450" y="-250" width="900" height="500" id="tKzN9vRZBOjG_pad-22"/><rect x="-250" y="-450" width="500" height="900" id="tKzN9vRZBOjG_pad-23"/><rect x="-800" y="-500" width="1600" height="1000" id="tKzN9vRZBOjG_pad-24"/><circle cx="0" cy="0" r="2999.74" id="tKzN9vRZBOjG_pad-25"/><rect x="-863.6" y="-1016" width="1727.2" height="2032" id="tKzN9vRZBOjG_pad-26"/><rect x="-863.6" y="-1016" width="1727.2" height="2032" rx="863.6" ry="863.6" id="tKzN9vRZBOjG_pad-27"/><rect x="-295" y="-225" width="590" height="450" id="tKzN9vRZBOjG_pad-12"/><circle cx="0" cy="0" r="450" id="tKzN9vRZBOjG_pad-13"/><rect x="-900.43" y="-1249.68" width="1800.86" height="2499.36" id="tKzN9vRZBOjG_pad-14"/><rect x="-725" y="-225" width="1450" height="450" id="tKzN9vRZBOjG_pad-15"/><rect x="-2250" y="-325" width="4500" height="650" id="tKzN9vRZBOjG_pad-16"/><rect x="-2500" y="-350" width="5000" height="700" id="tKzN9vRZBOjG_pad-17"/><rect x="-600" y="-350" width="1200" height="700" id="tKzN9vRZBOjG_pad-18"/><rect x="-1249.68" y="-900.43" width="2499.36" height="1800.86" id="tKzN9vRZBOjG_pad-19"/><rect x="-375" y="-400" width="750" height="800" id="tKzN9vRZBOjG_pad-20"/><rect x="-850" y="-450" width="1700" height="900" id="tKzN9vRZBOjG_pad-21"/><rect x="-450" y="-250" width="900" height="500" id="tKzN9vRZBOjG_pad-22"/><rect x="-250" y="-450" width="500" height="900" id="tKzN9vRZBOjG_pad-23"/><rect x="-800" y="-500" width="1600" height="1000" id="tKzN9vRZBOjG_pad-24"/><circle cx="0" cy="0" r="2999.74" id="tKzN9vRZBOjG_pad-25"/><rect x="-863.6" y="-1016" width="1727.2" height="2032" id="tKzN9vRZBOjG_pad-26"/><rect x="-863.6" y="-1016" width="1727.2" height="2032" rx="863.6" ry="863.6" id="tKzN9vRZBOjG_pad-27"/><rect x="-295" y="-225" width="590" height="450" id="tKzN9vRZBOjG_pad-12"/><circle cx="0" cy="0" r="450" id="tKzN9vRZBOjG_pad-13"/><rect x="-900.43" y="-1249.68" width="1800.86" height="2499.36" id="tKzN9vRZBOjG_pad-14"/><rect x="-725" y="-225" width="1450" height="450" id="tKzN9vRZBOjG_pad-15"/><rect x="-2250" y="-325" width="4500" height="650" id="tKzN9vRZBOjG_pad-16"/><rect x="-2500" y="-350" width="5000" height="700" id="tKzN9vRZBOjG_pad-17"/><rect x="-600" y="-350" width="1200" height="700" id="tKzN9vRZBOjG_pad-18"/><rect x="-1249.68" y="-900.43" width="2499.36" height="1800.86" id="tKzN9vRZBOjG_pad-19"/><rect x="-375" y="-400" width="750" height="800" id="tKzN9vRZBOjG_pad-20"/><rect x="-850" y="-450" width="1700" height="900" id="tKzN9vRZBOjG_pad-21"/><rect x="-450" y="-250" width="900" height="500" id="tKzN9vRZBOjG_pad-22"/><rect x="-250" y="-450" width="500" height="900" id="tKzN9vRZBOjG_pad-23"/><rect x="-800" y="-500" width="1600" height="1000" id="tKzN9vRZBOjG_pad-24"/><circle cx="0" cy="0" r="2999.74" id="tKzN9vRZBOjG_pad-25"/><rect x="-863.6" y="-1016" width="1727.2" height="2032" id="tKzN9vRZBOjG_pad-26"/><rect x="-863.6" y="-1016" width="1727.2" height="2032" rx="863.6" ry="863.6" id="tKzN9vRZBOjG_pad-27"/><rect x="-295" y="-225" width="590" height="450" id="tKzN9vRZBOjG_pad-12"/><circle cx="0" cy="0" r="450" id="tKzN9vRZBOjG_pad-13"/><rect x="-900.43" y="-1249.68" width="1800.86" height="2499.36" id="tKzN9vRZBOjG_pad-14"/><rect x="-725" y="-225" width="1450" height="450" id="tKzN9vRZBOjG_pad-15"/><rect x="-2250" y="-325" width="4500" height="650" id="tKzN9vRZBOjG_pad-16"/><rect x="-2500" y="-350" width="5000" height="700" id="tKzN9vRZBOjG_pad-17"/><rect x="-600" y="-350" width="1200" height="700" id="tKzN9vRZBOjG_pad-18"/><rect x="-1249.68" y="-900.43" width="2499.36" height="1800.86" id="tKzN9vRZBOjG_pad-19"/><rect x="-375" y="-400" width="750" height="800" id="tKzN9vRZBOjG_pad-20"/><rect x="-850" y="-450" width="1700" height="900" id="tKzN9vRZBOjG_pad-21"/><rect x="-450" y="-250" width="900" height="500" id="tKzN9vRZBOjG_pad-22"/><rect x="-250" y="-450" width="500" height="900" id="tKzN9vRZBOjG_pad-23"/><rect x="-800" y="-500" width="1600" height="1000" id="tKzN9vRZBOjG_pad-24"/><circle cx="0" cy="0" r="2999.74" id="tKzN9vRZBOjG_pad-25"/><rect x="-863.6" y="-1016" width="1727.2" height="2032" id="tKzN9vRZBOjG_pad-26"/><rect x="-863.6" y="-1016" width="1727.2" height="2032" rx="863.6" ry="863.6" id="tKzN9vRZBOjG_pad-27"/><rect x="-295" y="-225" width="590" height="450" id="Lb994yH_V-_y_pad-12"/><rect x="-900.43" y="-1249.68" width="1800.86" height="2499.36" id="Lb994yH_V-_y_pad-13"/><rect x="-725" y="-225" width="1450" height="450" id="Lb994yH_V-_y_pad-14"/><rect x="-2250" y="-325" width="4500" height="650" id="Lb994yH_V-_y_pad-15"/><rect x="-2500" y="-350" width="5000" height="700" id="Lb994yH_V-_y_pad-16"/><rect x="-600" y="-350" width="1200" height="700" id="Lb994yH_V-_y_pad-17"/><rect x="-1249.68" y="-900.43" width="2499.36" height="1800.86" id="Lb994yH_V-_y_pad-18"/><rect x="-375" y="-400" width="750" height="800" id="Lb994yH_V-_y_pad-19"/><rect x="-850" y="-450" width="1700" height="900" id="Lb994yH_V-_y_pad-20"/><rect x="-450" y="-250" width="900" height="500" id="Lb994yH_V-_y_pad-21"/><rect x="-250" y="-450" width="500" height="900" id="Lb994yH_V-_y_pad-22"/><rect x="-800" y="-500" width="1600" height="1000" id="Lb994yH_V-_y_pad-23"/><rect x="-295" y="-225" width="590" height="450" id="tKzN9vRZBOjG_pad-12"/><circle cx="0" cy="0" r="450" id="tKzN9vRZBOjG_pad-13"/><rect x="-900.43" y="-1249.68" width="1800.86" height="2499.36" id="tKzN9vRZBOjG_pad-14"/><rect x="-725" y="-225" width="1450" height="450" id="tKzN9vRZBOjG_pad-15"/><rect x="-2250" y="-325" width="4500" height="650" id="tKzN9vRZBOjG_pad-16"/><rect x="-2500" y="-350" width="5000" height="700" id="tKzN9vRZBOjG_pad-17"/><rect x="-600" y="-350" width="1200" height="700" id="tKzN9vRZBOjG_pad-18"/><rect x="-1249.68" y="-900.43" width="2499.36" height="1800.86" id="tKzN9vRZBOjG_pad-19"/><rect x="-375" y="-400" width="750" height="800" id="tKzN9vRZBOjG_pad-20"/><rect x="-850" y="-450" width="1700" height="900" id="tKzN9vRZBOjG_pad-21"/><rect x="-450" y="-250" width="900" height="500" id="tKzN9vRZBOjG_pad-22"/><rect x="-250" y="-450" width="500" height="900" id="tKzN9vRZBOjG_pad-23"/><rect x="-800" y="-500" width="1600" height="1000" id="tKzN9vRZBOjG_pad-24"/><circle cx="0" cy="0" r="2999.74" id="tKzN9vRZBOjG_pad-25"/><rect x="-863.6" y="-1016" width="1727.2" height="2032" id="tKzN9vRZBOjG_pad-26"/><rect x="-863.6" y="-1016" width="1727.2" height="2032" rx="863.6" ry="863.6" id="tKzN9vRZBOjG_pad-27"/><rect x="-295" y="-225" width="590" height="450" id="tKzN9vRZBOjG_pad-12"/><circle cx="0" cy="0" r="450" id="tKzN9vRZBOjG_pad-13"/><rect x="-900.43" y="-1249.68" width="1800.86" height="2499.36" id="tKzN9vRZBOjG_pad-14"/><rect x="-725" y="-225" width="1450" height="450" id="tKzN9vRZBOjG_pad-15"/><rect x="-2250" y="-325" width="4500" height="650" id="tKzN9vRZBOjG_pad-16"/><rect x="-2500" y="-350" width="5000" height="700" id="tKzN9vRZBOjG_pad-17"/><rect x="-600" y="-350" width="1200" height="700" id="tKzN9vRZBOjG_pad-18"/><rect x="-1249.68" y="-900.43" width="2499.36" height="1800.86" id="tKzN9vRZBOjG_pad-19"/><rect x="-375" y="-400" width="750" height="800" id="tKzN9vRZBOjG_pad-20"/><rect x="-850" y="-450" width="1700" height="900" id="tKzN9vRZBOjG_pad-21"/><rect x="-450" y="-250" width="900" height="500" id="tKzN9vRZBOjG_pad-22"/><rect x="-250" y="-450" width="500" height="900" id="tKzN9vRZBOjG_pad-23"/><rect x="-800" y="-500" width="1600" height="1000" id="tKzN9vRZBOjG_pad-24"/><circle cx="0" cy="0" r="2999.74" id="tKzN9vRZBOjG_pad-25"/><rect x="-863.6" y="-1016" width="1727.2" height="2032" id="tKzN9vRZBOjG_pad-26"/><rect x="-863.6" y="-1016" width="1727.2" height="2032" rx="863.6" ry="863.6" id="tKzN9vRZBOjG_pad-27"/><rect x="-295" y="-225" width="590" height="450" id="tKzN9vRZBOjG_pad-12"/><circle cx="0" cy="0" r="450" id="tKzN9vRZBOjG_pad-13"/><rect x="-900.43" y="-1249.68" width="1800.86" height="2499.36" id="tKzN9vRZBOjG_pad-14"/><rect x="-725" y="-225" width="1450" height="450" id="tKzN9vRZBOjG_pad-15"/><rect x="-2250" y="-325" width="4500" height="650" id="tKzN9vRZBOjG_pad-16"/><rect x="-2500" y="-350" width="5000" height="700" id="tKzN9vRZBOjG_pad-17"/><rect x="-600" y="-350" width="1200" height="700" id="tKzN9vRZBOjG_pad-18"/><rect x="-1249.68" y="-900.43" width="2499.36" height="1800.86" id="tKzN9vRZBOjG_pad-19"/><rect x="-375" y="-400" width="750" height="800" id="tKzN9vRZBOjG_pad-20"/><rect x="-850" y="-450" width="1700" height="900" id="tKzN9vRZBOjG_pad-21"/><rect x="-450" y="-250" width="900" height="500" id="tKzN9vRZBOjG_pad-22"/><rect x="-250" y="-450" width="500" height="900" id="tKzN9vRZBOjG_pad-23"/><rect x="-800" y="-500" width="1600" height="1000" id="tKzN9vRZBOjG_pad-24"/><circle cx="0" cy="0" r="2999.74" id="tKzN9vRZBOjG_pad-25"/><rect x="-863.6" y="-1016" width="1727.2" height="2032" id="tKzN9vRZBOjG_pad-26"/><rect x="-863.6" y="-1016" width="1727.2" height="2032" rx="863.6" ry="863.6" id="tKzN9vRZBOjG_pad-27"/><rect x="-295" y="-225" width="590" height="450" id="tKzN9vRZBOjG_pad-12"/><circle cx="0" cy="0" r="450" id="tKzN9vRZBOjG_pad-13"/><rect x="-900.43" y="-1249.68" width="1800.86" height="2499.36" id="tKzN9vRZBOjG_pad-14"/><rect x="-725" y="-225" width="1450" height="450" id="tKzN9vRZBOjG_pad-15"/><rect x="-2250" y="-325" width="4500" height="650" id="tKzN9vRZBOjG_pad-16"/><rect x="-2500" y="-350" width="5000" height="700" id="tKzN9vRZBOjG_pad-17"/><rect x="-600" y="-350" width="1200" height="700" id="tKzN9vRZBOjG_pad-18"/><rect x="-1249.68" y="-900.43" width="2499.36" height="1800.86" id="tKzN9vRZBOjG_pad-19"/><rect x="-375" y="-400" width="750" height="800" id="tKzN9vRZBOjG_pad-20"/><rect x="-850" y="-450" width="1700" height="900" id="tKzN9vRZBOjG_pad-21"/><rect x="-450" y="-250" width="900" height="500" id="tKzN9vRZBOjG_pad-22"/><rect x="-250" y="-450" width="500" height="900" id="tKzN9vRZBOjG_pad-23"/><rect x="-800" y="-500" width="1600" height="1000" id="tKzN9vRZBOjG_pad-24"/><circle cx="0" cy="0" r="2999.74" id="tKzN9vRZBOjG_pad-25"/><rect x="-863.6" y="-1016" width="1727.2" height="2032" id="tKzN9vRZBOjG_pad-26"/><rect x="-863.6" y="-1016" width="1727.2" height="2032" rx="863.6" ry="863.6" id="tKzN9vRZBOjG_pad-27"/><rect x="-295" y="-225" width="590" height="450" id="Lb994yH_V-_y_pad-12"/><rect x="-900.43" y="-1249.68" width="1800.86" height="2499.36" id="Lb994yH_V-_y_pad-13"/><rect x="-725" y="-225" width="1450" height="450" id="Lb994yH_V-_y_pad-14"/><rect x="-2250" y="-325" width="4500" height="650" id="Lb994yH_V-_y_pad-15"/><rect x="-2500" y="-350" width="5000" height="700" id="Lb994yH_V-_y_pad-16"/><rect x="-600" y="-350" width="1200" height="700" id="Lb994yH_V-_y_pad-17"/><rect x="-1249.68" y="-900.43" width="2499.36" height="1800.86" id="Lb994yH_V-_y_pad-18"/><rect x="-375" y="-400" width="750" height="800" id="Lb994yH_V-_y_pad-19"/><rect x="-850" y="-450" width="1700" height="900" id="Lb994yH_V-_y_pad-20"/><rect x="-450" y="-250" width="900" height="500" id="Lb994yH_V-_y_pad-21"/><rect x="-250" y="-450" width="500" height="900" id="Lb994yH_V-_y_pad-22"/><rect x="-800" y="-500" width="1600" height="1000" id="Lb994yH_V-_y_pad-23"/><circle cx="0" cy="0" r="250" id="wUPudWNkd.Ko_pad-1"/><circle cx="0" cy="0" r="508" id="wUPudWNkd.Ko_pad-2"/><circle cx="0" cy="0" r="1650" id="wUPudWNkd.Ko_pad-3"/><rect x="-295" y="-225" width="590" height="450" id="tKzN9vRZBOjG_pad-12"/><circle cx="0" cy="0" r="450" id="tKzN9vRZBOjG_pad-13"/><rect x="-900.43" y="-1249.68" width="1800.86" height="2499.36" id="tKzN9vRZBOjG_pad-14"/><rect x="-725" y="-225" width="1450" height="450" id="tKzN9vRZBOjG_pad-15"/><rect x="-2250" y="-325" width="4500" height="650" id="tKzN9vRZBOjG_pad-16"/><rect x="-2500" y="-350" width="5000" height="700" id="tKzN9vRZBOjG_pad-17"/><rect x="-600" y="-350" width="1200" height="700" id="tKzN9vRZBOjG_pad-18"/><rect x="-1249.68" y="-900.43" width="2499.36" height="1800.86" id="tKzN9vRZBOjG_pad-19"/><rect x="-375" y="-400" width="750" height="800" id="tKzN9vRZBOjG_pad-20"/><rect x="-850" y="-450" width="1700" height="900" id="tKzN9vRZBOjG_pad-21"/><rect x="-450" y="-250" width="900" height="500" id="tKzN9vRZBOjG_pad-22"/><rect x="-250" y="-450" width="500" height="900" id="tKzN9vRZBOjG_pad-23"/><rect x="-800" y="-500" width="1600" height="1000" id="tKzN9vRZBOjG_pad-24"/><circle cx="0" cy="0" r="2999.74" id="tKzN9vRZBOjG_pad-25"/><rect x="-863.6" y="-1016" width="1727.2" height="2032" id="tKzN9vRZBOjG_pad-26"/><rect x="-863.6" y="-1016" width="1727.2" height="2032" rx="863.6" ry="863.6" id="tKzN9vRZBOjG_pad-27"/><rect x="-295" y="-225" width="590" height="450" id="tKzN9vRZBOjG_pad-12"/><circle cx="0" cy="0" r="450" id="tKzN9vRZBOjG_pad-13"/><rect x="-900.43" y="-1249.68" width="1800.86" height="2499.36" id="tKzN9vRZBOjG_pad-14"/><rect x="-725" y="-225" width="1450" height="450" id="tKzN9vRZBOjG_pad-15"/><rect x="-2250" y="-325" width="4500" height="650" id="tKzN9vRZBOjG_pad-16"/><rect x="-2500" y="-350" width="5000" height="700" id="tKzN9vRZBOjG_pad-17"/><rect x="-600" y="-350" width="1200" height="700" id="tKzN9vRZBOjG_pad-18"/><rect x="-1249.68" y="-900.43" width="2499.36" height="1800.86" id="tKzN9vRZBOjG_pad-19"/><rect x="-375" y="-400" width="750" height="800" id="tKzN9vRZBOjG_pad-20"/><rect x="-850" y="-450" width="1700" height="900" id="tKzN9vRZBOjG_pad-21"/><rect x="-450" y="-250" width="900" height="500" id="tKzN9vRZBOjG_pad-22"/><rect x="-250" y="-450" width="500" height="900" id="tKzN9vRZBOjG_pad-23"/><rect x="-800" y="-500" width="1600" height="1000" id="tKzN9vRZBOjG_pad-24"/><circle cx="0" cy="0" r="2999.74" id="tKzN9vRZBOjG_pad-25"/><rect x="-863.6" y="-1016" width="1727.2" height="2032" id="tKzN9vRZBOjG_pad-26"/><rect x="-863.6" y="-1016" width="1727.2" height="2032" rx="863.6" ry="863.6" id="tKzN9vRZBOjG_pad-27"/><rect x="-295" y="-225" width="590" height="450" id="tKzN9vRZBOjG_pad-12"/><circle cx="0" cy="0" r="450" id="tKzN9vRZBOjG_pad-13"/><rect x="-900.43" y="-1249.68" width="1800.86" height="2499.36" id="tKzN9vRZBOjG_pad-14"/><rect x="-725" y="-225" width="1450" height="450" id="tKzN9vRZBOjG_pad-15"/><rect x="-2250" y="-325" width="4500" height="650" id="tKzN9vRZBOjG_pad-16"/><rect x="-2500" y="-350" width="5000" height="700" id="tKzN9vRZBOjG_pad-17"/><rect x="-600" y="-350" width="1200" height="700" id="tKzN9vRZBOjG_pad-18"/><rect x="-1249.68" y="-900.43" width="2499.36" height="1800.86" id="tKzN9vRZBOjG_pad-19"/><rect x="-375" y="-400" width="750" height="800" id="tKzN9vRZBOjG_pad-20"/><rect x="-850" y="-450" width="1700" height="900" id="tKzN9vRZBOjG_pad-21"/><rect x="-450" y="-250" width="900" height="500" id="tKzN9vRZBOjG_pad-22"/><rect x="-250" y="-450" width="500" height="900" id="tKzN9vRZBOjG_pad-23"/><rect x="-800" y="-500" width="1600" height="1000" id="tKzN9vRZBOjG_pad-24"/><circle cx="0" cy="0" r="2999.74" id="tKzN9vRZBOjG_pad-25"/><rect x="-863.6" y="-1016" width="1727.2" height="2032" id="tKzN9vRZBOjG_pad-26"/><rect x="-863.6" y="-1016" width="1727.2" height="2032" rx="863.6" ry="863.6" id="tKzN9vRZBOjG_pad-27"/><rect x="-295" y="-225" width="590" height="450" id="tKzN9vRZBOjG_pad-12"/><circle cx="0" cy="0" r="450" id="tKzN9vRZBOjG_pad-13"/><rect x="-900.43" y="-1249.68" width="1800.86" height="2499.36" id="tKzN9vRZBOjG_pad-14"/><rect x="-725" y="-225" width="1450" height="450" id="tKzN9vRZBOjG_pad-15"/><rect x="-2250" y="-325" width="4500" height="650" id="tKzN9vRZBOjG_pad-16"/><rect x="-2500" y="-350" width="5000" height="700" id="tKzN9vRZBOjG_pad-17"/><rect x="-600" y="-350" width="1200" height="700" id="tKzN9vRZBOjG_pad-18"/><rect x="-1249.68" y="-900.43" width="2499.36" height="1800.86" id="tKzN9vRZBOjG_pad-19"/><rect x="-375" y="-400" width="750" height="800" id="tKzN9vRZBOjG_pad-20"/><rect x="-850" y="-450" width="1700" height="900" id="tKzN9vRZBOjG_pad-21"/><rect x="-450" y="-250" width="900" height="500" id="tKzN9vRZBOjG_pad-22"/><rect x="-250" y="-450" width="500" height="900" id="tKzN9vRZBOjG_pad-23"/><rect x="-800" y="-500" width="1600" height="1000" id="tKzN9vRZBOjG_pad-24"/><circle cx="0" cy="0" r="2999.74" id="tKzN9vRZBOjG_pad-25"/><rect x="-863.6" y="-1016" width="1727.2" height="2032" id="tKzN9vRZBOjG_pad-26"/><rect x="-863.6" y="-1016" width="1727.2" height="2032" rx="863.6" ry="863.6" id="tKzN9vRZBOjG_pad-27"/><rect x="-295" y="-225" width="590" height="450" id="Lb994yH_V-_y_pad-12"/><rect x="-900.43" y="-1249.68" width="1800.86" height="2499.36" id="Lb994yH_V-_y_pad-13"/><rect x="-725" y="-225" width="1450" height="450" id="Lb994yH_V-_y_pad-14"/><rect x="-2250" y="-325" width="4500" height="650" id="Lb994yH_V-_y_pad-15"/><rect x="-2500" y="-350" width="5000" height="700" id="Lb994yH_V-_y_pad-16"/><rect x="-600" y="-350" width="1200" height="700" id="Lb994yH_V-_y_pad-17"/><rect x="-1249.68" y="-900.43" width="2499.36" height="1800.86" id="Lb994yH_V-_y_pad-18"/><rect x="-375" y="-400" width="750" height="800" id="Lb994yH_V-_y_pad-19"/><rect x="-850" y="-450" width="1700" height="900" id="Lb994yH_V-_y_pad-20"/><rect x="-450" y="-250" width="900" height="500" id="Lb994yH_V-_y_pad-21"/><rect x="-250" y="-450" width="500" height="900" id="Lb994yH_V-_y_pad-22"/><rect x="-800" y="-500" width="1600" height="1000" id="Lb994yH_V-_y_pad-23"/><rect x="-295" y="-225" width="590" height="450" id="tKzN9vRZBOjG_pad-12"/><circle cx="0" cy="0" r="450" id="tKzN9vRZBOjG_pad-13"/><rect x="-900.43" y="-1249.68" width="1800.86" height="2499.36" id="tKzN9vRZBOjG_pad-14"/><rect x="-725" y="-225" width="1450" height="450" id="tKzN9vRZBOjG_pad-15"/><rect x="-2250" y="-325" width="4500" height="650" id="tKzN9vRZBOjG_pad-16"/><rect x="-2500" y="-350" width="5000" height="700" id="tKzN9vRZBOjG_pad-17"/><rect x="-600" y="-350" width="1200" height="700" id="tKzN9vRZBOjG_pad-18"/><rect x="-1249.68" y="-900.43" width="2499.36" height="1800.86" id="tKzN9vRZBOjG_pad-19"/><rect x="-375" y="-400" width="750" height="800" id="tKzN9vRZBOjG_pad-20"/><rect x="-850" y="-450" width="1700" height="900" id="tKzN9vRZBOjG_pad-21"/><rect x="-450" y="-250" width="900" height="500" id="tKzN9vRZBOjG_pad-22"/><rect x="-250" y="-450" width="500" height="900" id="tKzN9vRZBOjG_pad-23"/><rect x="-800" y="-500" width="1600" height="1000" id="tKzN9vRZBOjG_pad-24"/><circle cx="0" cy="0" r="2999.74" id="tKzN9vRZBOjG_pad-25"/><rect x="-863.6" y="-1016" width="1727.2" height="2032" id="tKzN9vRZBOjG_pad-26"/><rect x="-863.6" y="-1016" width="1727.2" height="2032" rx="863.6" ry="863.6" id="tKzN9vRZBOjG_pad-27"/><rect x="-295" y="-225" width="590" height="450" id="tKzN9vRZBOjG_pad-12"/><circle cx="0" cy="0" r="450" id="tKzN9vRZBOjG_pad-13"/><rect x="-900.43" y="-1249.68" width="1800.86" height="2499.36" id="tKzN9vRZBOjG_pad-14"/><rect x="-725" y="-225" width="1450" height="450" id="tKzN9vRZBOjG_pad-15"/><rect x="-2250" y="-325" width="4500" height="650" id="tKzN9vRZBOjG_pad-16"/><rect x="-2500" y="-350" width="5000" height="700" id="tKzN9vRZBOjG_pad-17"/><rect x="-600" y="-350" width="1200" height="700" id="tKzN9vRZBOjG_pad-18"/><rect x="-1249.68" y="-900.43" width="2499.36" height="1800.86" id="tKzN9vRZBOjG_pad-19"/><rect x="-375" y="-400" width="750" height="800" id="tKzN9vRZBOjG_pad-20"/><rect x="-850" y="-450" width="1700" height="900" id="tKzN9vRZBOjG_pad-21"/><rect x="-450" y="-250" width="900" height="500" id="tKzN9vRZBOjG_pad-22"/><rect x="-250" y="-450" width="500" height="900" id="tKzN9vRZBOjG_pad-23"/><rect x="-800" y="-500" width="1600" height="1000" id="tKzN9vRZBOjG_pad-24"/><circle cx="0" cy="0" r="2999.74" id="tKzN9vRZBOjG_pad-25"/><rect x="-863.6" y="-1016" width="1727.2" height="2032" id="tKzN9vRZBOjG_pad-26"/><rect x="-863.6" y="-1016" width="1727.2" height="2032" rx="863.6" ry="863.6" id="tKzN9vRZBOjG_pad-27"/><rect x="-295" y="-225" width="590" height="450" id="tKzN9vRZBOjG_pad-12"/><circle cx="0" cy="0" r="450" id="tKzN9vRZBOjG_pad-13"/><rect x="-900.43" y="-1249.68" width="1800.86" height="2499.36" id="tKzN9vRZBOjG_pad-14"/><rect x="-725" y="-225" width="1450" height="450" id="tKzN9vRZBOjG_pad-15"/><rect x="-2250" y="-325" width="4500" height="650" id="tKzN9vRZBOjG_pad-16"/><rect x="-2500" y="-350" width="5000" height="700" id="tKzN9vRZBOjG_pad-17"/><rect x="-600" y="-350" width="1200" height="700" id="tKzN9vRZBOjG_pad-18"/><rect x="-1249.68" y="-900.43" width="2499.36" height="1800.86" id="tKzN9vRZBOjG_pad-19"/><rect x="-375" y="-400" width="750" height="800" id="tKzN9vRZBOjG_pad-20"/><rect x="-850" y="-450" width="1700" height="900" id="tKzN9vRZBOjG_pad-21"/><rect x="-450" y="-250" width="900" height="500" id="tKzN9vRZBOjG_pad-22"/><rect x="-250" y="-450" width="500" height="900" id="tKzN9vRZBOjG_pad-23"/><rect x="-800" y="-500" width="1600" height="1000" id="tKzN9vRZBOjG_pad-24"/><circle cx="0" cy="0" r="2999.74" id="tKzN9vRZBOjG_pad-25"/><rect x="-863.6" y="-1016" width="1727.2" height="2032" id="tKzN9vRZBOjG_pad-26"/><rect x="-863.6" y="-1016" width="1727.2" height="2032" rx="863.6" ry="863.6" id="tKzN9vRZBOjG_pad-27"/><rect x="-295" y="-225" width="590" height="450" id="tKzN9vRZBOjG_pad-12"/><circle cx="0" cy="0" r="450" id="tKzN9vRZBOjG_pad-13"/><rect x="-900.43" y="-1249.68" width="1800.86" height="2499.36" id="tKzN9vRZBOjG_pad-14"/><rect x="-725" y="-225" width="1450" height="450" id="tKzN9vRZBOjG_pad-15"/><rect x="-2250" y="-325" width="4500" height="650" id="tKzN9vRZBOjG_pad-16"/><rect x="-2500" y="-350" width="5000" height="700" id="tKzN9vRZBOjG_pad-17"/><rect x="-600" y="-350" width="1200" height="700" id="tKzN9vRZBOjG_pad-18"/><rect x="-1249.68" y="-900.43" width="2499.36" height="1800.86" id="tKzN9vRZBOjG_pad-19"/><rect x="-375" y="-400" width="750" height="800" id="tKzN9vRZBOjG_pad-20"/><rect x="-850" y="-450" width="1700" height="900" id="tKzN9vRZBOjG_pad-21"/><rect x="-450" y="-250" width="900" height="500" id="tKzN9vRZBOjG_pad-22"/><rect x="-250" y="-450" width="500" height="900" id="tKzN9vRZBOjG_pad-23"/><rect x="-800" y="-500" width="1600" height="1000" id="tKzN9vRZBOjG_pad-24"/><circle cx="0" cy="0" r="2999.74" id="tKzN9vRZBOjG_pad-25"/><rect x="-863.6" y="-1016" width="1727.2" height="2032" id="tKzN9vRZBOjG_pad-26"/><rect x="-863.6" y="-1016" width="1727.2" height="2032" rx="863.6" ry="863.6" id="tKzN9vRZBOjG_pad-27"/><rect x="-295" y="-225" width="590" height="450" id="Lb994yH_V-_y_pad-12"/><rect x="-900.43" y="-1249.68" width="1800.86" height="2499.36" id="Lb994yH_V-_y_pad-13"/><rect x="-725" y="-225" width="1450" height="450" id="Lb994yH_V-_y_pad-14"/><rect x="-2250" y="-325" width="4500" height="650" id="Lb994yH_V-_y_pad-15"/><rect x="-2500" y="-350" width="5000" height="700" id="Lb994yH_V-_y_pad-16"/><rect x="-600" y="-350" width="1200" height="700" id="Lb994yH_V-_y_pad-17"/><rect x="-1249.68" y="-900.43" width="2499.36" height="1800.86" id="Lb994yH_V-_y_pad-18"/><rect x="-375" y="-400" width="750" height="800" id="Lb994yH_V-_y_pad-19"/><rect x="-850" y="-450" width="1700" height="900" id="Lb994yH_V-_y_pad-20"/><rect x="-450" y="-250" width="900" height="500" id="Lb994yH_V-_y_pad-21"/><rect x="-250" y="-450" width="500" height="900" id="Lb994yH_V-_y_pad-22"/><rect x="-800" y="-500" width="1600" height="1000" id="Lb994yH_V-_y_pad-23"/><rect x="-295" y="-225" width="590" height="450" id="tKzN9vRZBOjG_pad-12"/><circle cx="0" cy="0" r="450" id="tKzN9vRZBOjG_pad-13"/><rect x="-900.43" y="-1249.68" width="1800.86" height="2499.36" id="tKzN9vRZBOjG_pad-14"/><rect x="-725" y="-225" width="1450" height="450" id="tKzN9vRZBOjG_pad-15"/><rect x="-2250" y="-325" width="4500" height="650" id="tKzN9vRZBOjG_pad-16"/><rect x="-2500" y="-350" width="5000" height="700" id="tKzN9vRZBOjG_pad-17"/><rect x="-600" y="-350" width="1200" height="700" id="tKzN9vRZBOjG_pad-18"/><rect x="-1249.68" y="-900.43" width="2499.36" height="1800.86" id="tKzN9vRZBOjG_pad-19"/><rect x="-375" y="-400" width="750" height="800" id="tKzN9vRZBOjG_pad-20"/><rect x="-850" y="-450" width="1700" height="900" id="tKzN9vRZBOjG_pad-21"/><rect x="-450" y="-250" width="900" height="500" id="tKzN9vRZBOjG_pad-22"/><rect x="-250" y="-450" width="500" height="900" id="tKzN9vRZBOjG_pad-23"/><rect x="-800" y="-500" width="1600" height="1000" id="tKzN9vRZBOjG_pad-24"/><circle cx="0" cy="0" r="2999.74" id="tKzN9vRZBOjG_pad-25"/><rect x="-863.6" y="-1016" width="1727.2" height="2032" id="tKzN9vRZBOjG_pad-26"/><rect x="-863.6" y="-1016" width="1727.2" height="2032" rx="863.6" ry="863.6" id="tKzN9vRZBOjG_pad-27"/><rect x="-295" y="-225" width="590" height="450" id="tKzN9vRZBOjG_pad-12"/><circle cx="0" cy="0" r="450" id="tKzN9vRZBOjG_pad-13"/><rect x="-900.43" y="-1249.68" width="1800.86" height="2499.36" id="tKzN9vRZBOjG_pad-14"/><rect x="-725" y="-225" width="1450" height="450" id="tKzN9vRZBOjG_pad-15"/><rect x="-2250" y="-325" width="4500" height="650" id="tKzN9vRZBOjG_pad-16"/><rect x="-2500" y="-350" width="5000" height="700" id="tKzN9vRZBOjG_pad-17"/><rect x="-600" y="-350" width="1200" height="700" id="tKzN9vRZBOjG_pad-18"/><rect x="-1249.68" y="-900.43" width="2499.36" height="1800.86" id="tKzN9vRZBOjG_pad-19"/><rect x="-375" y="-400" width="750" height="800" id="tKzN9vRZBOjG_pad-20"/><rect x="-850" y="-450" width="1700" height="900" id="tKzN9vRZBOjG_pad-21"/><rect x="-450" y="-250" width="900" height="500" id="tKzN9vRZBOjG_pad-22"/><rect x="-250" y="-450" width="500" height="900" id="tKzN9vRZBOjG_pad-23"/><rect x="-800" y="-500" width="1600" height="1000" id="tKzN9vRZBOjG_pad-24"/><circle cx="0" cy="0" r="2999.74" id="tKzN9vRZBOjG_pad-25"/><rect x="-863.6" y="-1016" width="1727.2" height="2032" id="tKzN9vRZBOjG_pad-26"/><rect x="-863.6" y="-1016" width="1727.2" height="2032" rx="863.6" ry="863.6" id="tKzN9vRZBOjG_pad-27"/><rect x="-295" y="-225" width="590" height="450" id="tKzN9vRZBOjG_pad-12"/><circle cx="0" cy="0" r="450" id="tKzN9vRZBOjG_pad-13"/><rect x="-900.43" y="-1249.68" width="1800.86" height="2499.36" id="tKzN9vRZBOjG_pad-14"/><rect x="-725" y="-225" width="1450" height="450" id="tKzN9vRZBOjG_pad-15"/><rect x="-2250" y="-325" width="4500" height="650" id="tKzN9vRZBOjG_pad-16"/><rect x="-2500" y="-350" width="5000" height="700" id="tKzN9vRZBOjG_pad-17"/><rect x="-600" y="-350" width="1200" height="700" id="tKzN9vRZBOjG_pad-18"/><rect x="-1249.68" y="-900.43" width="2499.36" height="1800.86" id="tKzN9vRZBOjG_pad-19"/><rect x="-375" y="-400" width="750" height="800" id="tKzN9vRZBOjG_pad-20"/><rect x="-850" y="-450" width="1700" height="900" id="tKzN9vRZBOjG_pad-21"/><rect x="-450" y="-250" width="900" height="500" id="tKzN9vRZBOjG_pad-22"/><rect x="-250" y="-450" width="500" height="900" id="tKzN9vRZBOjG_pad-23"/><rect x="-800" y="-500" width="1600" height="1000" id="tKzN9vRZBOjG_pad-24"/><circle cx="0" cy="0" r="2999.74" id="tKzN9vRZBOjG_pad-25"/><rect x="-863.6" y="-1016" width="1727.2" height="2032" id="tKzN9vRZBOjG_pad-26"/><rect x="-863.6" y="-1016" width="1727.2" height="2032" rx="863.6" ry="863.6" id="tKzN9vRZBOjG_pad-27"/><rect x="-295" y="-225" width="590" height="450" id="tKzN9vRZBOjG_pad-12"/><circle cx="0" cy="0" r="450" id="tKzN9vRZBOjG_pad-13"/><rect x="-900.43" y="-1249.68" width="1800.86" height="2499.36" id="tKzN9vRZBOjG_pad-14"/><rect x="-725" y="-225" width="1450" height="450" id="tKzN9vRZBOjG_pad-15"/><rect x="-2250" y="-325" width="4500" height="650" id="tKzN9vRZBOjG_pad-16"/><rect x="-2500" y="-350" width="5000" height="700" id="tKzN9vRZBOjG_pad-17"/><rect x="-600" y="-350" width="1200" height="700" id="tKzN9vRZBOjG_pad-18"/><rect x="-1249.68" y="-900.43" width="2499.36" height="1800.86" id="tKzN9vRZBOjG_pad-19"/><rect x="-375" y="-400" width="750" height="800" id="tKzN9vRZBOjG_pad-20"/><rect x="-850" y="-450" width="1700" height="900" id="tKzN9vRZBOjG_pad-21"/><rect x="-450" y="-250" width="900" height="500" id="tKzN9vRZBOjG_pad-22"/><rect x="-250" y="-450" width="500" height="900" id="tKzN9vRZBOjG_pad-23"/><rect x="-800" y="-500" width="1600" height="1000" id="tKzN9vRZBOjG_pad-24"/><circle cx="0" cy="0" r="2999.74" id="tKzN9vRZBOjG_pad-25"/><rect x="-863.6" y="-1016" width="1727.2" height="2032" id="tKzN9vRZBOjG_pad-26"/><rect x="-863.6" y="-1016" width="1727.2" height="2032" rx="863.6" ry="863.6" id="tKzN9vRZBOjG_pad-27"/><rect x="-295" y="-225" width="590" height="450" id="Lb994yH_V-_y_pad-12"/><rect x="-900.43" y="-1249.68" width="1800.86" height="2499.36" id="Lb994yH_V-_y_pad-13"/><rect x="-725" y="-225" width="1450" height="450" id="Lb994yH_V-_y_pad-14"/><rect x="-2250" y="-325" width="4500" height="650" id="Lb994yH_V-_y_pad-15"/><rect x="-2500" y="-350" width="5000" height="700" id="Lb994yH_V-_y_pad-16"/><rect x="-600" y="-350" width="1200" height="700" id="Lb994yH_V-_y_pad-17"/><rect x="-1249.68" y="-900.43" width="2499.36" height="1800.86" id="Lb994yH_V-_y_pad-18"/><rect x="-375" y="-400" width="750" height="800" id="Lb994yH_V-_y_pad-19"/><rect x="-850" y="-450" width="1700" height="900" id="Lb994yH_V-_y_pad-20"/><rect x="-450" y="-250" width="900" height="500" id="Lb994yH_V-_y_pad-21"/><rect x="-250" y="-450" width="500" height="900" id="Lb994yH_V-_y_pad-22"/><rect x="-800" y="-500" width="1600" height="1000" id="Lb994yH_V-_y_pad-23"/><rect x="-295" y="-225" width="590" height="450" id="tKzN9vRZBOjG_pad-12"/><circle cx="0" cy="0" r="450" id="tKzN9vRZBOjG_pad-13"/><rect x="-900.43" y="-1249.68" width="1800.86" height="2499.36" id="tKzN9vRZBOjG_pad-14"/><rect x="-725" y="-225" width="1450" height="450" id="tKzN9vRZBOjG_pad-15"/><rect x="-2250" y="-325" width="4500" height="650" id="tKzN9vRZBOjG_pad-16"/><rect x="-2500" y="-350" width="5000" height="700" id="tKzN9vRZBOjG_pad-17"/><rect x="-600" y="-350" width="1200" height="700" id="tKzN9vRZBOjG_pad-18"/><rect x="-1249.68" y="-900.43" width="2499.36" height="1800.86" id="tKzN9vRZBOjG_pad-19"/><rect x="-375" y="-400" width="750" height="800" id="tKzN9vRZBOjG_pad-20"/><rect x="-850" y="-450" width="1700" height="900" id="tKzN9vRZBOjG_pad-21"/><rect x="-450" y="-250" width="900" height="500" id="tKzN9vRZBOjG_pad-22"/><rect x="-250" y="-450" width="500" height="900" id="tKzN9vRZBOjG_pad-23"/><rect x="-800" y="-500" width="1600" height="1000" id="tKzN9vRZBOjG_pad-24"/><circle cx="0" cy="0" r="2999.74" id="tKzN9vRZBOjG_pad-25"/><rect x="-863.6" y="-1016" width="1727.2" height="2032" id="tKzN9vRZBOjG_pad-26"/><rect x="-863.6" y="-1016" width="1727.2" height="2032" rx="863.6" ry="863.6" id="tKzN9vRZBOjG_pad-27"/><rect x="-295" y="-225" width="590" height="450" id="tKzN9vRZBOjG_pad-12"/><circle cx="0" cy="0" r="450" id="tKzN9vRZBOjG_pad-13"/><rect x="-900.43" y="-1249.68" width="1800.86" height="2499.36" id="tKzN9vRZBOjG_pad-14"/><rect x="-725" y="-225" width="1450" height="450" id="tKzN9vRZBOjG_pad-15"/><rect x="-2250" y="-325" width="4500" height="650" id="tKzN9vRZBOjG_pad-16"/><rect x="-2500" y="-350" width="5000" height="700" id="tKzN9vRZBOjG_pad-17"/><rect x="-600" y="-350" width="1200" height="700" id="tKzN9vRZBOjG_pad-18"/><rect x="-1249.68" y="-900.43" width="2499.36" height="1800.86" id="tKzN9vRZBOjG_pad-19"/><rect x="-375" y="-400" width="750" height="800" id="tKzN9vRZBOjG_pad-20"/><rect x="-850" y="-450" width="1700" height="900" id="tKzN9vRZBOjG_pad-21"/><rect x="-450" y="-250" width="900" height="500" id="tKzN9vRZBOjG_pad-22"/><rect x="-250" y="-450" width="500" height="900" id="tKzN9vRZBOjG_pad-23"/><rect x="-800" y="-500" width="1600" height="1000" id="tKzN9vRZBOjG_pad-24"/><circle cx="0" cy="0" r="2999.74" id="tKzN9vRZBOjG_pad-25"/><rect x="-863.6" y="-1016" width="1727.2" height="2032" id="tKzN9vRZBOjG_pad-26"/><rect x="-863.6" y="-1016" width="1727.2" height="2032" rx="863.6" ry="863.6" id="tKzN9vRZBOjG_pad-27"/><rect x="-295" y="-225" width="590" height="450" id="tKzN9vRZBOjG_pad-12"/><circle cx="0" cy="0" r="450" id="tKzN9vRZBOjG_pad-13"/><rect x="-900.43" y="-1249.68" width="1800.86" height="2499.36" id="tKzN9vRZBOjG_pad-14"/><rect x="-725" y="-225" width="1450" height="450" id="tKzN9vRZBOjG_pad-15"/><rect x="-2250" y="-325" width="4500" height="650" id="tKzN9vRZBOjG_pad-16"/><rect x="-2500" y="-350" width="5000" height="700" id="tKzN9vRZBOjG_pad-17"/><rect x="-600" y="-350" width="1200" height="700" id="tKzN9vRZBOjG_pad-18"/><rect x="-1249.68" y="-900.43" width="2499.36" height="1800.86" id="tKzN9vRZBOjG_pad-19"/><rect x="-375" y="-400" width="750" height="800" id="tKzN9vRZBOjG_pad-20"/><rect x="-850" y="-450" width="1700" height="900" id="tKzN9vRZBOjG_pad-21"/><rect x="-450" y="-250" width="900" height="500" id="tKzN9vRZBOjG_pad-22"/><rect x="-250" y="-450" width="500" height="900" id="tKzN9vRZBOjG_pad-23"/><rect x="-800" y="-500" width="1600" height="1000" id="tKzN9vRZBOjG_pad-24"/><circle cx="0" cy="0" r="2999.74" id="tKzN9vRZBOjG_pad-25"/><rect x="-863.6" y="-1016" width="1727.2" height="2032" id="tKzN9vRZBOjG_pad-26"/><rect x="-863.6" y="-1016" width="1727.2" height="2032" rx="863.6" ry="863.6" id="tKzN9vRZBOjG_pad-27"/><rect x="-295" y="-225" width="590" height="450" id="tKzN9vRZBOjG_pad-12"/><circle cx="0" cy="0" r="450" id="tKzN9vRZBOjG_pad-13"/><rect x="-900.43" y="-1249.68" width="1800.86" height="2499.36" id="tKzN9vRZBOjG_pad-14"/><rect x="-725" y="-225" width="1450" height="450" id="tKzN9vRZBOjG_pad-15"/><rect x="-2250" y="-325" width="4500" height="650" id="tKzN9vRZBOjG_pad-16"/><rect x="-2500" y="-350" width="5000" height="700" id="tKzN9vRZBOjG_pad-17"/><rect x="-600" y="-350" width="1200" height="700" id="tKzN9vRZBOjG_pad-18"/><rect x="-1249.68" y="-900.43" width="2499.36" height="1800.86" id="tKzN9vRZBOjG_pad-19"/><rect x="-375" y="-400" width="750" height="800" id="tKzN9vRZBOjG_pad-20"/><rect x="-850" y="-450" width="1700" height="900" id="tKzN9vRZBOjG_pad-21"/><rect x="-450" y="-250" width="900" height="500" id="tKzN9vRZBOjG_pad-22"/><rect x="-250" y="-450" width="500" height="900" id="tKzN9vRZBOjG_pad-23"/><rect x="-800" y="-500" width="1600" height="1000" id="tKzN9vRZBOjG_pad-24"/><circle cx="0" cy="0" r="2999.74" id="tKzN9vRZBOjG_pad-25"/><rect x="-863.6" y="-1016" width="1727.2" height="2032" id="tKzN9vRZBOjG_pad-26"/><rect x="-863.6" y="-1016" width="1727.2" height="2032" rx="863.6" ry="863.6" id="tKzN9vRZBOjG_pad-27"/><rect x="-295" y="-225" width="590" height="450" id="Lb994yH_V-_y_pad-12"/><rect x="-900.43" y="-1249.68" width="1800.86" height="2499.36" id="Lb994yH_V-_y_pad-13"/><rect x="-725" y="-225" width="1450" height="450" id="Lb994yH_V-_y_pad-14"/><rect x="-2250" y="-325" width="4500" height="650" id="Lb994yH_V-_y_pad-15"/><rect x="-2500" y="-350" width="5000" height="700" id="Lb994yH_V-_y_pad-16"/><rect x="-600" y="-350" width="1200" height="700" id="Lb994yH_V-_y_pad-17"/><rect x="-1249.68" y="-900.43" width="2499.36" height="1800.86" id="Lb994yH_V-_y_pad-18"/><rect x="-375" y="-400" width="750" height="800" id="Lb994yH_V-_y_pad-19"/><rect x="-850" y="-450" width="1700" height="900" id="Lb994yH_V-_y_pad-20"/><rect x="-450" y="-250" width="900" height="500" id="Lb994yH_V-_y_pad-21"/><rect x="-250" y="-450" width="500" height="900" id="Lb994yH_V-_y_pad-22"/><rect x="-800" y="-500" width="1600" height="1000" id="Lb994yH_V-_y_pad-23"/><circle cx="0" cy="0" r="250" id="wUPudWNkd.Ko_pad-1"/><circle cx="0" cy="0" r="508" id="wUPudWNkd.Ko_pad-2"/><circle cx="0" cy="0" r="1650" id="wUPudWNkd.Ko_pad-3"/><g id="pcb-stackup_top_cu"><path d="M 0 25000 34000 25000 M 0 0 0 25000 M 34000 0 34000 25000 M 0 0 34000 0" fill="none" stroke-width="150"/><use xlink:href="#tKzN9vRZBOjG_pad-12" x="18280" y="11450"/><use xlink:href="#tKzN9vRZBOjG_pad-12" x="16170" y="11450"/><use xlink:href="#tKzN9vRZBOjG_pad-13" x="32300" y="7200"/><use xlink:href="#tKzN9vRZBOjG_pad-13" x="1900" y="7500"/><use xlink:href="#tKzN9vRZBOjG_pad-13" x="9300" y="5100"/><use xlink:href="#tKzN9vRZBOjG_pad-13" x="6500" y="7600"/><use xlink:href="#tKzN9vRZBOjG_pad-13" x="7800" y="2800"/><use xlink:href="#tKzN9vRZBOjG_pad-13" x="11200" y="1800"/><use xlink:href="#tKzN9vRZBOjG_pad-13" x="15500" y="2000"/><use xlink:href="#tKzN9vRZBOjG_pad-13" x="20300" y="2000"/><use xlink:href="#tKzN9vRZBOjG_pad-13" x="25800" y="2200"/><use xlink:href="#tKzN9vRZBOjG_pad-13" x="28700" y="11400"/><use xlink:href="#tKzN9vRZBOjG_pad-13" x="30200" y="15900"/><use xlink:href="#tKzN9vRZBOjG_pad-13" x="27900" y="13500"/><use xlink:href="#tKzN9vRZBOjG_pad-13" x="27800" y="15800"/><use xlink:href="#tKzN9vRZBOjG_pad-13" x="32300" y="11500"/><use xlink:href="#tKzN9vRZBOjG_pad-13" x="32100" y="9200"/><use xlink:href="#tKzN9vRZBOjG_pad-13" x="29600" y="9200"/><use xlink:href="#tKzN9vRZBOjG_pad-13" x="26800" y="9200"/><use xlink:href="#tKzN9vRZBOjG_pad-13" x="25500" y="10600"/><use xlink:href="#tKzN9vRZBOjG_pad-13" x="32300" y="14300"/><use xlink:href="#tKzN9vRZBOjG_pad-13" x="32100" y="17700"/><use xlink:href="#tKzN9vRZBOjG_pad-13" x="27600" y="17900"/><use xlink:href="#tKzN9vRZBOjG_pad-13" x="26000" y="20100"/><use xlink:href="#tKzN9vRZBOjG_pad-13" x="25500" y="22400"/><use xlink:href="#tKzN9vRZBOjG_pad-13" x="23100" y="20900"/><use xlink:href="#tKzN9vRZBOjG_pad-13" x="22000" y="23200"/><use xlink:href="#tKzN9vRZBOjG_pad-13" x="20100" y="20800"/><use xlink:href="#tKzN9vRZBOjG_pad-13" x="22300" y="12200"/><use xlink:href="#tKzN9vRZBOjG_pad-13" x="20400" y="12200"/><use xlink:href="#tKzN9vRZBOjG_pad-13" x="24100" y="12200"/><use xlink:href="#tKzN9vRZBOjG_pad-13" x="25400" y="13500"/><use xlink:href="#tKzN9vRZBOjG_pad-13" x="25500" y="15400"/><use xlink:href="#tKzN9vRZBOjG_pad-13" x="25100" y="17100"/><use xlink:href="#tKzN9vRZBOjG_pad-13" x="24000" y="18500"/><use xlink:href="#tKzN9vRZBOjG_pad-13" x="22200" y="18500"/><use xlink:href="#tKzN9vRZBOjG_pad-13" x="20200" y="18500"/><use xlink:href="#tKzN9vRZBOjG_pad-13" x="6000" y="14600"/><use xlink:href="#tKzN9vRZBOjG_pad-13" x="12900" y="11400"/><use xlink:href="#tKzN9vRZBOjG_pad-13" x="5100" y="17000"/><use xlink:href="#tKzN9vRZBOjG_pad-13" x="9300" y="23000"/><use xlink:href="#tKzN9vRZBOjG_pad-13" x="12900" y="23000"/><use xlink:href="#tKzN9vRZBOjG_pad-13" x="15800" y="23000"/><use xlink:href="#tKzN9vRZBOjG_pad-13" x="14600" y="20500"/><use xlink:href="#tKzN9vRZBOjG_pad-13" x="12200" y="20600"/><use xlink:href="#tKzN9vRZBOjG_pad-13" x="10200" y="20500"/><use xlink:href="#tKzN9vRZBOjG_pad-13" x="8700" y="19300"/><use xlink:href="#tKzN9vRZBOjG_pad-13" x="8700" y="17400"/><use xlink:href="#tKzN9vRZBOjG_pad-13" x="8700" y="15500"/><use xlink:href="#tKzN9vRZBOjG_pad-13" x="9500" y="13600"/><use xlink:href="#tKzN9vRZBOjG_pad-13" x="11700" y="13600"/><use xlink:href="#tKzN9vRZBOjG_pad-13" x="13800" y="13600"/><use xlink:href="#tKzN9vRZBOjG_pad-13" x="7600" y="12300"/><use xlink:href="#tKzN9vRZBOjG_pad-13" x="4800" y="12300"/><use xlink:href="#tKzN9vRZBOjG_pad-13" x="1900" y="13470"/><use xlink:href="#tKzN9vRZBOjG_pad-13" x="1700" y="17200"/><use xlink:href="#tKzN9vRZBOjG_pad-14" x="11850" y="8548.98"/><use xlink:href="#tKzN9vRZBOjG_pad-14" x="11850" y="4551.02"/><use xlink:href="#tKzN9vRZBOjG_pad-15" x="15500" y="9575"/><use xlink:href="#tKzN9vRZBOjG_pad-15" x="15500" y="8925"/><use xlink:href="#tKzN9vRZBOjG_pad-15" x="15500" y="8275"/><use xlink:href="#tKzN9vRZBOjG_pad-15" x="15500" y="7625"/><use xlink:href="#tKzN9vRZBOjG_pad-15" x="19900" y="7625"/><use xlink:href="#tKzN9vRZBOjG_pad-15" x="19900" y="8275"/><use xlink:href="#tKzN9vRZBOjG_pad-15" x="19900" y="8925"/><use xlink:href="#tKzN9vRZBOjG_pad-15" x="19900" y="9575"/><use xlink:href="#tKzN9vRZBOjG_pad-16" x="21825" y="16725"/><use xlink:href="#tKzN9vRZBOjG_pad-16" x="21825" y="15375"/><use xlink:href="#tKzN9vRZBOjG_pad-17" x="22075" y="14700"/><use xlink:href="#tKzN9vRZBOjG_pad-17" x="22075" y="16050"/><use xlink:href="#tKzN9vRZBOjG_pad-17" x="22075" y="17400"/><use xlink:href="#tKzN9vRZBOjG_pad-17" x="22075" y="13350"/><use xlink:href="#tKzN9vRZBOjG_pad-16" x="21825" y="14025"/><use xlink:href="#tKzN9vRZBOjG_pad-18" x="18375" y="17280"/><use xlink:href="#tKzN9vRZBOjG_pad-18" x="18375" y="16010"/><use xlink:href="#tKzN9vRZBOjG_pad-18" x="18375" y="14740"/><use xlink:href="#tKzN9vRZBOjG_pad-18" x="18375" y="13470"/><use xlink:href="#tKzN9vRZBOjG_pad-19" x="19398.98" y="4700"/><use xlink:href="#tKzN9vRZBOjG_pad-19" x="15401.02" y="4700"/><use xlink:href="#tKzN9vRZBOjG_pad-16" x="12250" y="15700"/><use xlink:href="#tKzN9vRZBOjG_pad-16" x="12250" y="17050"/><use xlink:href="#tKzN9vRZBOjG_pad-17" x="12000" y="17725"/><use xlink:href="#tKzN9vRZBOjG_pad-17" x="12000" y="16375"/><use xlink:href="#tKzN9vRZBOjG_pad-17" x="12000" y="15025"/><use xlink:href="#tKzN9vRZBOjG_pad-17" x="12000" y="19075"/><use xlink:href="#tKzN9vRZBOjG_pad-16" x="12250" y="18400"/><use xlink:href="#tKzN9vRZBOjG_pad-18" x="15700" y="15145"/><use xlink:href="#tKzN9vRZBOjG_pad-18" x="15700" y="16415"/><use xlink:href="#tKzN9vRZBOjG_pad-18" x="15700" y="17685"/><use xlink:href="#tKzN9vRZBOjG_pad-18" x="15700" y="18955"/><use xlink:href="#tKzN9vRZBOjG_pad-20" x="24150" y="4900"/><use xlink:href="#tKzN9vRZBOjG_pad-20" x="24150" y="3400"/><use xlink:href="#tKzN9vRZBOjG_pad-21" x="22150" y="6350"/><use xlink:href="#tKzN9vRZBOjG_pad-21" x="22150" y="3450"/><use xlink:href="#tKzN9vRZBOjG_pad-22" x="24200" y="7700"/><use xlink:href="#tKzN9vRZBOjG_pad-22" x="24200" y="6200"/><use xlink:href="#tKzN9vRZBOjG_pad-22" x="17400" y="18900"/><use xlink:href="#tKzN9vRZBOjG_pad-22" x="17400" y="20400"/><use xlink:href="#tKzN9vRZBOjG_pad-23" x="11900" y="10900"/><use xlink:href="#tKzN9vRZBOjG_pad-23" x="10400" y="10900"/><use xlink:href="#tKzN9vRZBOjG_pad-24" x="22100" y="10925"/><use xlink:href="#tKzN9vRZBOjG_pad-24" x="22100" y="7925"/><use xlink:href="#tKzN9vRZBOjG_pad-25" x="4100" y="4100"/><use xlink:href="#tKzN9vRZBOjG_pad-25" x="29900" y="4100"/><use xlink:href="#tKzN9vRZBOjG_pad-25" x="4100" y="20900"/><use xlink:href="#tKzN9vRZBOjG_pad-25" x="29900" y="20900"/><use xlink:href="#tKzN9vRZBOjG_pad-26" x="2950" y="9950"/><use xlink:href="#tKzN9vRZBOjG_pad-27" x="5490" y="9950"/><use xlink:href="#tKzN9vRZBOjG_pad-27" x="8030" y="9950"/><use xlink:href="#tKzN9vRZBOjG_pad-13" x="3200" y="14800"/><use xlink:href="#tKzN9vRZBOjG_pad-13" x="18500" y="23000"/><use xlink:href="#tKzN9vRZBOjG_pad-13" x="26400" y="7000"/><use xlink:href="#tKzN9vRZBOjG_pad-13" x="16200" y="13300"/><use xlink:href="#tKzN9vRZBOjG_pad-13" x="18600" y="19650"/><use xlink:href="#tKzN9vRZBOjG_pad-13" x="24200" y="8600"/><use xlink:href="#tKzN9vRZBOjG_pad-13" x="18300" y="9600"/><use xlink:href="#tKzN9vRZBOjG_pad-13" x="17000" y="16900"/><use xlink:href="#tKzN9vRZBOjG_pad-13" x="17000" y="15200"/><path d="M 17850 20400 17400 20400 M 18600 19650 17850 20400 M 18300 9600 18300 11430 18280 11450 M 24200 8600 24200 7700 M 15525 9600 18300 9600 M 15500 9575 15525 9600 M 18280 11450 18280 13375 18375 13470 M 19900 9575 21725 9575 M 22100 9950 22100 10925 M 21725 9575 22100 9950" fill="none" stroke-width="400"/><path d="M 15401.02 4700 11998.98 4700 11850 4551.02" fill="none" stroke-width="700"/><path d="M 5490 9950 5490 7610 5500 7600 M 21750 8275 22100 7925 M 19900 8275 21750 8275 M 22150 6350 22100 6400 22100 7925" fill="none" stroke-width="400"/><path d="M 19398.98 4700 19798.98 5100 21700 5100 22150 5550 22150 6350" fill="none" stroke-width="700"/><path d="M 22150 6350 22150 6350 M 11900 10900 11900 8598.98 11850 8548.98 M 15500 7625 12423.98 7625 11900 8148.98 M 24150 4900 24150 6150 24200 6200 M 15700 17685 16215 17685 17000 16900 M 17000 15200 16945 15145 15700 15145 M 15500 8925 14275 8925 M 16170 10720 16170 11450 M 15850 10400 16170 10720 M 14400 10400 15850 10400 M 14050 10050 14400 10400 M 14050 9150 14050 10050 M 14275 8925 14050 9150 M 17400 18900 15755 18900 15700 18955 M 8030 9950 9900 9950 9950 10000 M 10500 6550 9950 7100 M 19900 7625 18175 7625 M 17100 6550 18175 7625 M 10500 6550 17100 6550 M 9950 10450 10400 10900 M 9950 7100 9950 10000 9950 10450" fill="none" stroke-width="400"/><path d="M 32873 8727 25477.111 8727 25477.221 8852.897 25283.219 9322.417 24924.307 9681.957 24455.125 9876.778 24302.695 9876.911 23689.803 10489.803 23647.789 10517.666 23600 10527 19727 10527 19727 12755.697 19751.769 12791.948 19818.201 13120 19818.201 13820 19762.606 14115.462 19818.201 14390 19818.201 15090 19762.606 15385.462 19818.201 15660 19818.201 16360 19762.606 16655.462 19818.201 16930 19818.201 17630 19760.535 17936.468 19727 17988.583 19727 19034.169 19876.778 19394.875 19877.221 19902.897 19683.219 20372.417 19324.307 20731.957 18855.125 20926.778 18775.551 20926.847 18576.199 21126.199 18488.691 21184.67 18454.413 21237.939 18178.052 21426.769 17850 21493.201 17627 21493.201 17627 23873 32873 23873 32873 8727 32873 8727"/><path d="M 32873 8727 25477.111 8727 25477.221 8852.897 25283.219 9322.417 24924.307 9681.957 24455.125 9876.778 24302.695 9876.911 23689.803 10489.803 23647.789 10517.666 23600 10527 19727 10527 19727 12755.697 19751.769 12791.948 19818.201 13120 19818.201 13820 19762.606 14115.462 19818.201 14390 19818.201 15090 19762.606 15385.462 19818.201 15660 19818.201 16360 19762.606 16655.462 19818.201 16930 19818.201 17630 19760.535 17936.468 19727 17988.583 19727 19034.169 19876.778 19394.875 19877.221 19902.897 19683.219 20372.417 19324.307 20731.957 18855.125 20926.778 18775.551 20926.847 18576.199 21126.199 18488.691 21184.67 18454.413 21237.939 18178.052 21426.769 17850 21493.201 17627 21493.201 17627 23873 32873 23873 32873 8727" fill="none" stroke-width="254"/><path d="M 18773 17953.457 18731.799 17750 18731.799 14663.201 17775 14663.201 17468.532 14605.535 17187.061 14424.413 16998.231 14148.052 16931.799 13820 16931.799 13120 16989.465 12813.532 17073 12683.715 17073 11252.606 16447.394 10627 16305.003 10627 16225 10643.201 15327 10643.201 15327 14594.997 15343.201 14675 15343.201 17761.799 16300 17761.799 16606.468 17819.465 16673.728 17862.745 16950 17806.799 17850 17806.799 18156.468 17864.465 18437.939 18045.587 18456.67 18073 18773 18073 18773 17953.457 18773 17953.457"/><path d="M 18773 17953.457 18731.799 17750 18731.799 14663.201 17775 14663.201 17468.532 14605.535 17187.061 14424.413 16998.231 14148.052 16931.799 13820 16931.799 13120 16989.465 12813.532 17073 12683.715 17073 11252.606 16447.394 10627 16305.003 10627 16225 10643.201 15327 10643.201 15327 14594.997 15343.201 14675 15343.201 17761.799 16300 17761.799 16606.468 17819.465 16673.728 17862.745 16950 17806.799 17850 17806.799 18156.468 17864.465 18437.939 18045.587 18456.67 18073 18773 18073 18773 17953.457" fill="none" stroke-width="254"/><path d="M 16673 21441.08 16643.532 21435.535 16362.061 21254.413 16173.231 20978.052 16106.799 20650 16106.799 20150 16107.138 20148.201 15100 20148.201 14793.532 20090.535 14512.061 19909.413 14323.231 19633.052 14256.799 19305 14256.799 18605 14312.394 18309.538 14256.799 18035 14256.799 17335 14312.394 17039.538 14256.799 16765 14256.799 16065 14312.394 15769.538 14256.799 15495 14256.799 14795 14314.465 14488.532 14373 14397.566 14373 11421.63 14072.191 11361.794 14006.984 11348.824 13673.801 11126.199 13673.799 11126.196 13323.801 10776.199 13101.176 10443.016 13060.893 10240.499 12547.394 9727 11327 9727 11327 9975.932 11426.769 10121.948 11493.201 10450 11493.201 11350 11435.535 11656.468 11254.413 11937.939 10978.052 12126.769 10650 12193.201 10150 12193.201 9843.532 12135.535 9562.061 11954.413 9373.231 11678.052 9342.642 11527 8936.503 11527 8676.965 11700.418 8030 11829.107 7383.035 11700.418 7123.497 11527 6396.503 11527 6136.965 11700.418 5490 11829.107 4843.035 11700.418 4583.497 11527 4435.348 11527 4418.013 11553.939 4141.652 11742.769 3813.6 11809.201 2086.4 11809.201 1779.932 11751.535 1498.461 11570.413 1468.798 11527 1028.012 11527 1125.996 23873 16673 23873 16673 21441.08 16673 21441.08"/><path d="M 16673 21441.08 16643.532 21435.535 16362.061 21254.413 16173.231 20978.052 16106.799 20650 16106.799 20150 16107.138 20148.201 15100 20148.201 14793.532 20090.535 14512.061 19909.413 14323.231 19633.052 14256.799 19305 14256.799 18605 14312.394 18309.538 14256.799 18035 14256.799 17335 14312.394 17039.538 14256.799 16765 14256.799 16065 14312.394 15769.538 14256.799 15495 14256.799 14795 14314.465 14488.532 14373 14397.566 14373 11421.63 14072.191 11361.794 14006.984 11348.824 13673.801 11126.199 13673.799 11126.196 13323.801 10776.199 13101.176 10443.016 13060.893 10240.499 12547.394 9727 11327 9727 11327 9975.932 11426.769 10121.948 11493.201 10450 11493.201 11350 11435.535 11656.468 11254.413 11937.939 10978.052 12126.769 10650 12193.201 10150 12193.201 9843.532 12135.535 9562.061 11954.413 9373.231 11678.052 9342.642 11527 8936.503 11527 8676.965 11700.418 8030 11829.107 7383.035 11700.418 7123.497 11527 6396.503 11527 6136.965 11700.418 5490 11829.107 4843.035 11700.418 4583.497 11527 4435.348 11527 4418.013 11553.939 4141.652 11742.769 3813.6 11809.201 2086.4 11809.201 1779.932 11751.535 1498.461 11570.413 1468.798 11527 1028.012 11527 1125.996 23873 16673 23873 16673 21441.08" fill="none" stroke-width="254"/><path d="M 1481.987 8346.061 1758.348 8157.231 2086.4 8090.799 3813.6 8090.799 4120.068 8148.465 4401.539 8329.587 4431.202 8373 7123.497 8373 7383.035 8199.582 8030 8070.893 8673 8198.793 8673 6900 8683.006 6850.59 8710.197 6810.197 10073 5447.394 10073 3100 10083.006 3050.59 10110.197 3010.197 10233.548 2886.846 10345.157 2713.401 10540.391 2580.003 10610.197 2510.197 10652.211 2482.334 10700 2473 10876.184 2473 10949.57 2458.139 12750.43 2458.139 12829.409 2473 13500 2473 13549.41 2483.006 13589.803 2510.197 14052.606 2973 14069.213 2973 14151.34 2956.369 16650.7 2956.369 16739.086 2973 18067.173 2973 18149.3 2956.369 20648.66 2956.369 20737.046 2973 21300 2973 21349.41 2983.006 21391.035 3011.447 21418.315 3053.841 21427 3100 21427 3479.276 21466.23 3673 23694.997 3673 23775 3656.799 24525 3656.799 24611.101 3673 25000 3673 25049.41 3683.006 25089.803 3710.197 25489.803 4110.197 25517.666 4152.211 25527 4200 25527 7773 32873 7773 32873 1127 1127 1127 1127 8373 1464.652 8373 1481.987 8346.061 1481.987 8346.061"/><path d="M 1481.987 8346.061 1758.348 8157.231 2086.4 8090.799 3813.6 8090.799 4120.068 8148.465 4401.539 8329.587 4431.202 8373 7123.497 8373 7383.035 8199.582 8030 8070.893 8673 8198.793 8673 6900 8683.006 6850.59 8710.197 6810.197 10073 5447.394 10073 3100 10083.006 3050.59 10110.197 3010.197 10233.548 2886.846 10345.157 2713.401 10540.391 2580.003 10610.197 2510.197 10652.211 2482.334 10700 2473 10876.184 2473 10949.57 2458.139 12750.43 2458.139 12829.409 2473 13500 2473 13549.41 2483.006 13589.803 2510.197 14052.606 2973 14069.213 2973 14151.34 2956.369 16650.7 2956.369 16739.086 2973 18067.173 2973 18149.3 2956.369 20648.66 2956.369 20737.046 2973 21300 2973 21349.41 2983.006 21391.035 3011.447 21418.315 3053.841 21427 3100 21427 3479.276 21466.23 3673 23694.997 3673 23775 3656.799 24525 3656.799 24611.101 3673 25000 3673 25049.41 3683.006 25089.803 3710.197 25489.803 4110.197 25517.666 4152.211 25527 4200 25527 7773 32873 7773 32873 1127 1127 1127 1127 8373 1464.652 8373 1481.987 8346.061" fill="none" stroke-width="254"/></g><g id="pcb-stackup_top_sm"><path d="M 0 25000 34000 25000 M 0 0 0 25000 M 34000 0 34000 25000 M 0 0 34000 0" fill="none" stroke-width="150"/><path d="M 4425.578 7197.677 5021.055 7075.443 5581.444 6839.877 6085.409 6499.949 6513.752 6068.605 6850.153 5562.281 7081.801 5000.261 7199.807 4404.289 7199.807 4404.279 7199.873 4403.945 7190.177 3709.62 7190.101 3709.286 7190.101 3709.274 7055.504 3116.837 6808.251 2561.5 6457.844 2064.766 6017.622 1645.549 5504.367 1319.828 4937.615 1099.998 4338.962 994.44 3731.205 1007.17 3137.488 1137.707 2580.444 1381.074 2081.275 1728.005 1658.997 2165.288 1329.7 2676.256 1105.92 3241.459 996.183 3839.368 1004.671 4447.198 1131.058 5041.802 1370.533 5600.538 1713.971 6102.116 2148.293 6527.437 2656.953 6860.295 3220.58 7088.015 3817.7 7201.921 4425.578 7197.677 4425.578 7197.677"/><path d="M 30225.578 7197.677 30821.055 7075.443 31381.444 6839.877 31885.409 6499.949 32313.752 6068.605 32650.153 5562.281 32881.801 5000.261 32999.807 4404.289 32999.807 4404.279 32999.873 4403.945 32990.177 3709.62 32990.101 3709.286 32990.101 3709.274 32855.504 3116.837 32608.251 2561.5 32257.844 2064.766 31817.622 1645.549 31304.367 1319.828 30737.615 1099.998 30138.962 994.44 29531.205 1007.17 28937.488 1137.707 28380.444 1381.074 27881.275 1728.005 27458.997 2165.288 27129.7 2676.256 26905.92 3241.459 26796.183 3839.368 26804.671 4447.198 26931.058 5041.802 27170.533 5600.538 27513.971 6102.116 27948.293 6527.437 28456.953 6860.295 29020.58 7088.015 29617.7 7201.921 30225.578 7197.677 30225.578 7197.677"/><path d="M 23100 2900 21200 2900 21200 4000 23100 4000 23100 2900 23100 2900"/><path d="M 24625 2900 23675 2900 23675 3900 24625 3900 24625 2900 24625 2900"/><path d="M 12850.43 3201.34 10849.57 3201.34 10849.57 5900.7 12850.43 5900.7 12850.43 3201.34 12850.43 3201.34"/><path d="M 20748.66 3699.57 18049.3 3699.57 18049.3 5700.43 20748.66 5700.43 20748.66 3699.57 20748.66 3699.57"/><path d="M 16750.7 3699.57 14051.34 3699.57 14051.34 5700.43 16750.7 5700.43 16750.7 3699.57 16750.7 3699.57"/><path d="M 24625 4400 23675 4400 23675 5400 24625 5400 24625 4400 24625 4400"/><path d="M 23100 5800 21200 5800 21200 6900 23100 6900 23100 5800 23100 5800"/><path d="M 24750 5850 23650 5850 23650 6550 24750 6550 24750 5850 24750 5850"/><path d="M 12850.43 7199.3 10849.57 7199.3 10849.57 9898.66 12850.43 9898.66 12850.43 7199.3 12850.43 7199.3"/><path d="M 16325 7300 14675 7300 14675 9900 16325 9900 16325 7300 16325 7300"/><path d="M 20725 7300 19075 7300 19075 9900 20725 9900 20725 7300 20725 7300"/><path d="M 23000 7325 21200 7325 21200 8525 23000 8525 23000 7325 23000 7325"/><path d="M 24750 7350 23650 7350 23650 8050 24750 8050 24750 7350 24750 7350"/><path d="M 5683.71 11051.726 5683.719 11051.723 5683.759 11051.719 5863.41 10996.107 6028.838 10906.661 6173.742 10786.786 6292.603 10641.048 6380.893 10474.999 6435.248 10294.964 6453.6 10107.8 6453.6 9792.2 6453.506 9778.746 6432.543 9591.856 6375.679 9412.598 6285.079 9247.798 6164.196 9103.734 6017.632 8985.894 5850.971 8898.766 5670.561 8845.668 5670.522 8845.664 5670.514 8845.662 5483.275 8828.621 5296.29 8848.274 5296.281 8848.277 5296.241 8848.281 5116.59 8903.893 4951.162 8993.339 4806.258 9113.214 4687.397 9258.952 4599.107 9425.001 4544.752 9605.036 4526.4 9792.2 4526.4 10107.8 4526.494 10121.254 4547.457 10308.144 4604.321 10487.402 4694.921 10652.202 4815.804 10796.266 4962.368 10914.106 5129.029 11001.234 5309.439 11054.332 5309.478 11054.336 5309.486 11054.338 5496.725 11071.379 5683.71 11051.726 5683.71 11051.726"/><path d="M 8223.71 11051.726 8223.719 11051.723 8223.759 11051.719 8403.41 10996.107 8568.838 10906.661 8713.742 10786.786 8832.603 10641.048 8920.893 10474.999 8975.248 10294.964 8993.6 10107.8 8993.6 9792.2 8993.506 9778.746 8972.543 9591.856 8915.679 9412.598 8825.079 9247.798 8704.196 9103.734 8557.632 8985.894 8390.971 8898.766 8210.561 8845.668 8210.522 8845.664 8210.514 8845.662 8023.275 8828.621 7836.29 8848.274 7836.281 8848.277 7836.241 8848.281 7656.59 8903.893 7491.162 8993.339 7346.258 9113.214 7227.397 9258.952 7139.107 9425.001 7084.752 9605.036 7066.4 9792.2 7066.4 10107.8 7066.494 10121.254 7087.457 10308.144 7144.321 10487.402 7234.921 10652.202 7355.804 10796.266 7502.368 10914.106 7669.029 11001.234 7849.439 11054.332 7849.478 11054.336 7849.486 11054.338 8036.725 11071.379 8223.71 11051.726 8223.71 11051.726"/><path d="M 3913.6 8834 1986.4 8834 1986.4 11066 3913.6 11066 3913.6 8834 3913.6 8834"/><path d="M 23000 10325 21200 10325 21200 11525 23000 11525 23000 10325 23000 10325"/><path d="M 10750 10350 10050 10350 10050 11450 10750 11450 10750 10350 10750 10350"/><path d="M 12250 10350 11550 10350 11550 11450 12250 11450 12250 10350 12250 10350"/><path d="M 16565 11125 15775 11125 15775 11775 16565 11775 16565 11125 16565 11125"/><path d="M 18675 11125 17885 11125 17885 11775 18675 11775 18675 11125 18675 11125"/><path d="M 24675 16950 24225 16950 24211.07 16948.02 24198.244 16942.239 24187.536 16933.112 24179.794 16921.364 24175.632 16907.924 24175 16900 24175 16550 24176.98 16536.07 24182.761 16523.244 24191.888 16512.536 24203.636 16504.794 24217.076 16500.632 24225 16500 24675 16500 24675 15600 24225 15600 24211.07 15598.02 24198.244 15592.239 24187.536 15583.112 24179.794 15571.364 24175.632 15557.924 24175 15550 24175 15200 24176.98 15186.07 24182.761 15173.244 24191.888 15162.536 24203.636 15154.794 24217.076 15150.632 24225 15150 24675 15150 24675 14250 24225 14250 24211.07 14248.02 24198.244 14242.239 24187.536 14233.112 24179.794 14221.364 24175.632 14207.924 24175 14200 24175 13850 24176.98 13836.07 24182.761 13823.244 24191.888 13812.536 24203.636 13804.794 24217.076 13800.632 24225 13800 24675 13800 24675 12900 19475 12900 19475 17850 24675 17850 24675 16950 24675 16950"/><path d="M 19075 13020 17675 13020 17675 13920 19075 13920 19075 13020 19075 13020"/><path d="M 19075 14290 17675 14290 17675 15190 19075 15190 19075 14290 19075 14290"/><path d="M 14600 14575 9400 14575 9400 15475 9850 15475 9863.93 15476.98 9876.756 15482.761 9887.464 15491.888 9895.206 15503.636 9899.368 15517.076 9900 15525 9900 15875 9898.02 15888.93 9892.239 15901.756 9883.112 15912.464 9871.364 15920.206 9857.924 15924.368 9850 15925 9400 15925 9400 16825 9850 16825 9863.93 16826.98 9876.756 16832.761 9887.464 16841.888 9895.206 16853.636 9899.368 16867.076 9900 16875 9900 17225 9898.02 17238.93 9892.239 17251.756 9883.112 17262.464 9871.364 17270.206 9857.924 17274.368 9850 17275 9400 17275 9400 18175 9850 18175 9863.93 18176.98 9876.756 18182.761 9887.464 18191.888 9895.206 18203.636 9899.368 18217.076 9900 18225 9900 18575 9898.02 18588.93 9892.239 18601.756 9883.112 18612.464 9871.364 18620.206 9857.924 18624.368 9850 18625 9400 18625 9400 19525 14600 19525 14600 14575 14600 14575"/><path d="M 16400 14695 15000 14695 15000 15595 16400 15595 16400 14695 16400 14695"/><path d="M 19075 15560 17675 15560 17675 16460 19075 16460 19075 15560 19075 15560"/><path d="M 16400 15965 15000 15965 15000 16865 16400 16865 16400 15965 16400 15965"/><path d="M 19075 16830 17675 16830 17675 17730 19075 17730 19075 16830 19075 16830"/><path d="M 16400 17235 15000 17235 15000 18135 16400 18135 16400 17235 16400 17235"/><path d="M 30225.578 23997.677 30821.055 23875.443 31381.444 23639.877 31885.409 23299.949 32313.752 22868.605 32650.153 22362.281 32881.801 21800.261 32999.807 21204.289 32999.807 21204.279 32999.873 21203.945 32990.177 20509.62 32990.101 20509.286 32990.101 20509.274 32855.504 19916.837 32608.251 19361.5 32257.844 18864.766 31817.622 18445.549 31304.367 18119.828 30737.615 17899.998 30138.962 17794.44 29531.205 17807.17 28937.488 17937.707 28380.444 18181.074 27881.275 18528.005 27458.997 18965.288 27129.7 19476.256 26905.92 20041.459 26796.183 20639.368 26804.671 21247.198 26931.058 21841.802 27170.533 22400.538 27513.971 22902.116 27948.293 23327.437 28456.953 23660.295 29020.58 23888.015 29617.7 24001.921 30225.578 23997.677 30225.578 23997.677"/><path d="M 4425.578 23997.677 5021.055 23875.443 5581.444 23639.877 6085.409 23299.949 6513.752 22868.605 6850.153 22362.281 7081.801 21800.261 7199.807 21204.289 7199.807 21204.279 7199.873 21203.945 7190.177 20509.62 7190.101 20509.286 7190.101 20509.274 7055.504 19916.837 6808.251 19361.5 6457.844 18864.766 6017.622 18445.549 5504.367 18119.828 4937.615 17899.998 4338.962 17794.44 3731.205 17807.17 3137.488 17937.707 2580.444 18181.074 2081.275 18528.005 1658.997 18965.288 1329.7 19476.256 1105.92 20041.459 996.183 20639.368 1004.671 21247.198 1131.058 21841.802 1370.533 22400.538 1713.971 22902.116 2148.293 23327.437 2656.953 23660.295 3220.58 23888.015 3817.7 24001.921 4425.578 23997.677 4425.578 23997.677"/><path d="M 16400 18505 15000 18505 15000 19405 16400 19405 16400 18505 16400 18505"/><path d="M 17950 18550 16850 18550 16850 19250 17950 19250 17950 18550 17950 18550"/><path d="M 17950 20050 16850 20050 16850 20750 17950 20750 17950 20050 17950 20050"/></g><g id="pcb-stackup_top_sp"><path d="M 0 25000 34000 25000 M 0 0 0 25000 M 34000 0 34000 25000 M 0 0 34000 0" fill="none" stroke-width="150"/><use xlink:href="#Lb994yH_V-_y_pad-12" x="18280" y="11450"/><use xlink:href="#Lb994yH_V-_y_pad-12" x="16170" y="11450"/><use xlink:href="#Lb994yH_V-_y_pad-13" x="11850" y="8548.98"/><use xlink:href="#Lb994yH_V-_y_pad-13" x="11850" y="4551.02"/><use xlink:href="#Lb994yH_V-_y_pad-14" x="15500" y="9575"/><use xlink:href="#Lb994yH_V-_y_pad-14" x="15500" y="8925"/><use xlink:href="#Lb994yH_V-_y_pad-14" x="15500" y="8275"/><use xlink:href="#Lb994yH_V-_y_pad-14" x="15500" y="7625"/><use xlink:href="#Lb994yH_V-_y_pad-14" x="19900" y="7625"/><use xlink:href="#Lb994yH_V-_y_pad-14" x="19900" y="8275"/><use xlink:href="#Lb994yH_V-_y_pad-14" x="19900" y="8925"/><use xlink:href="#Lb994yH_V-_y_pad-14" x="19900" y="9575"/><use xlink:href="#Lb994yH_V-_y_pad-15" x="21825" y="16725"/><use xlink:href="#Lb994yH_V-_y_pad-15" x="21825" y="15375"/><use xlink:href="#Lb994yH_V-_y_pad-16" x="22075" y="14700"/><use xlink:href="#Lb994yH_V-_y_pad-16" x="22075" y="16050"/><use xlink:href="#Lb994yH_V-_y_pad-16" x="22075" y="17400"/><use xlink:href="#Lb994yH_V-_y_pad-16" x="22075" y="13350"/><use xlink:href="#Lb994yH_V-_y_pad-15" x="21825" y="14025"/><use xlink:href="#Lb994yH_V-_y_pad-17" x="18375" y="17280"/><use xlink:href="#Lb994yH_V-_y_pad-17" x="18375" y="16010"/><use xlink:href="#Lb994yH_V-_y_pad-17" x="18375" y="14740"/><use xlink:href="#Lb994yH_V-_y_pad-17" x="18375" y="13470"/><use xlink:href="#Lb994yH_V-_y_pad-18" x="19398.98" y="4700"/><use xlink:href="#Lb994yH_V-_y_pad-18" x="15401.02" y="4700"/><use xlink:href="#Lb994yH_V-_y_pad-15" x="12250" y="15700"/><use xlink:href="#Lb994yH_V-_y_pad-15" x="12250" y="17050"/><use xlink:href="#Lb994yH_V-_y_pad-16" x="12000" y="17725"/><use xlink:href="#Lb994yH_V-_y_pad-16" x="12000" y="16375"/><use xlink:href="#Lb994yH_V-_y_pad-16" x="12000" y="15025"/><use xlink:href="#Lb994yH_V-_y_pad-16" x="12000" y="19075"/><use xlink:href="#Lb994yH_V-_y_pad-15" x="12250" y="18400"/><use xlink:href="#Lb994yH_V-_y_pad-17" x="15700" y="15145"/><use xlink:href="#Lb994yH_V-_y_pad-17" x="15700" y="16415"/><use xlink:href="#Lb994yH_V-_y_pad-17" x="15700" y="17685"/><use xlink:href="#Lb994yH_V-_y_pad-17" x="15700" y="18955"/><use xlink:href="#Lb994yH_V-_y_pad-19" x="24150" y="4900"/><use xlink:href="#Lb994yH_V-_y_pad-19" x="24150" y="3400"/><use xlink:href="#Lb994yH_V-_y_pad-20" x="22150" y="6350"/><use xlink:href="#Lb994yH_V-_y_pad-20" x="22150" y="3450"/><use xlink:href="#Lb994yH_V-_y_pad-21" x="24200" y="7700"/><use xlink:href="#Lb994yH_V-_y_pad-21" x="24200" y="6200"/><use xlink:href="#Lb994yH_V-_y_pad-21" x="17400" y="18900"/><use xlink:href="#Lb994yH_V-_y_pad-21" x="17400" y="20400"/><use xlink:href="#Lb994yH_V-_y_pad-22" x="11900" y="10900"/><use xlink:href="#Lb994yH_V-_y_pad-22" x="10400" y="10900"/><use xlink:href="#Lb994yH_V-_y_pad-23" x="22100" y="10925"/><use xlink:href="#Lb994yH_V-_y_pad-23" x="22100" y="7925"/></g><g id="pcb-stackup_top_ss"><path d="M 1998.572 15336.429 1998.572 16836.429 M 2855.715 15336.429 2212.858 16193.571 M 2855.715 16836.429 1998.572 15979.286 M 3784.286 16836.429 4070 16836.429 4212.858 16765 4355.715 16622.143 4427.143 16336.429 4427.143 15836.429 4355.715 15550.714 4212.858 15407.857 4070 15336.429 3784.286 15336.429 3641.429 15407.857 3498.572 15550.714 3427.143 15836.429 3427.143 16336.429 3498.572 16622.143 3641.429 16765 3784.286 16836.429 M 4998.572 15407.857 5212.858 15336.429 5570.001 15336.429 5712.858 15407.857 5784.287 15479.286 5855.715 15622.143 5855.715 15765 5784.287 15907.857 5712.858 15979.286 5570.001 16050.714 5284.287 16122.143 5141.429 16193.571 5070.001 16265 4998.572 16407.857 4998.572 16550.714 5070.001 16693.571 5141.429 16765 5284.287 16836.429 5641.429 16836.429 5855.715 16765 M 6784.286 16836.429 6927.143 16836.429 7070 16765 7141.429 16693.571 7212.858 16550.714 7284.286 16265 7284.286 15907.857 7212.858 15622.143 7141.429 15479.286 7070 15407.857 6927.143 15336.429 6784.286 15336.429 6641.429 15407.857 6570 15479.286 6498.572 15622.143 6427.143 15907.857 6427.143 16265 6498.572 16550.714 6570 16693.571 6641.429 16765 6784.286 16836.429 M 8712.857 15336.429 7855.714 15336.429 M 8284.286 15336.429 8284.286 16836.429 8141.429 16622.143 7998.571 16479.286 7855.714 16407.857 M 3177.144 13786.429 3534.287 12786.429 3891.429 13786.429 M 5248.572 12786.429 4391.429 12786.429 M 4820.001 12786.429 4820.001 14286.429 4677.144 14072.143 4534.286 13929.286 4391.429 13857.857 M 5891.429 12929.286 5962.857 12857.857 5891.429 12786.429 5820 12857.857 5891.429 12929.286 5891.429 12786.429 M 6891.429 14286.429 7034.286 14286.429 7177.143 14215 7248.572 14143.571 7320.001 14000.714 7391.429 13715 7391.429 13357.857 7320.001 13072.143 7248.572 12929.286 7177.143 12857.857 7034.286 12786.429 6891.429 12786.429 6748.572 12857.857 6677.143 12929.286 6605.715 13072.143 6534.286 13357.857 6534.286 13715 6605.715 14000.714 6677.143 14143.571 6748.572 14215 6891.429 14286.429" fill="none" stroke-width="300"/><path d="M 0 25000 34000 25000 M 0 0 0 25000 M 34000 0 34000 25000 M 0 0 34000 0 M 16975 11450 16725 11450 M 17475 11450 17725 11450 M 17475 11450 16975 11100 16975 11800 17475 11450 M 17475 11100 17475 11800 M 18525 12250 16125 12250 M 18525 10650 16125 10650 M 10099.94 8349.14 10450.46 8349.14 M 13600.06 8349.14 13249.54 8349.14 M 10099.94 4299.56 10450.46 4299.56 M 10099.94 8800.44 10450.46 8800.44 M 13600.06 8800.44 13249.54 8800.44 M 13600.06 4299.56 13249.54 4299.56 M 10099.94 8800.44 10099.94 4299.56 M 13600.06 8800.44 13600.06 4299.56 M 16025 10275 16025 10025 M 19375 10275 19375 10025 M 19375 6925 19375 7175 M 16025 6925 16025 7175 M 16025 10275 19375 10275 M 16025 6925 19375 6925 M 16025 10025 14775 10025 M 18125 18025 18125 17825 18125 17925 M 18125 12725 18125 12975 M 24225 12725 24225 12875 M 24225 18025 24225 17875 M 18125 17825 17625 17825 M 18125 12700 24225 12700 M 24225 18050 18125 18050 M 19199.14 6450.06 19199.14 6099.54 M 19199.14 2949.94 19199.14 3300.46 M 15149.56 6450.06 15149.56 6099.54 M 19650.44 6450.06 19650.44 6099.54 M 19650.44 2949.94 19650.44 3300.46 M 15149.56 2949.94 15149.56 3300.46 M 19650.44 6450.06 15149.56 6450.06 M 19650.44 2949.94 15149.56 2949.94 M 15950 14400 15950 14600 15950 14500 M 15950 19700 15950 19450 M 9850 19700 9850 19550 M 9850 14400 9850 14550 M 15950 14600 16450 14600 M 15950 19725 9850 19725 M 9850 14375 15950 14375 M 24750 4500 24750 3800 M 23550 3800 23550 4500 M 21075 3900 21075 5900 M 23225 5900 23225 3900 M 23525 6450 23525 7450 M 24875 7450 24875 6450 M 18075 20150 18075 19150 M 16725 19150 16725 20150 M 10650 11575 11650 11575 M 11650 10225 10650 10225 M 23125 8425 23125 10425 M 21075 10425 21075 8425 M 30668.78 12010.14 31029.46 10539.48 31308.86 11601.2 31618.74 10529.32 31959.1 11979.66 M 29248.92 11319.26 30038.86 11329.42 30049.02 11319.26 30049.02 11329.42 M 30089.66 12040.62 30089.66 10498.84 M 29200.66 12050.78 29200.66 10481.06 29210.82 10491.22 M 28649.48 11949.18 28298.96 12030.46 27978.92 12040.62 27740.16 11839.96 27709.68 11570.72 27950.98 11329.42 28339.6 11199.88 28519.94 11039.86 28560.58 10740.14 28329.44 10519.16 28009.4 10491.22 27658.88 10600.44 M 26620.02 12050.78 26371.1 12030.46 26129.8 11789.16 26040.9 11298.94 26068.84 10950.96 26269.5 10630.92 26520.96 10509 26830.84 10580.12 27049.28 10760.46 27120.4 11220.2 27069.6 11629.14 26960.38 11911.08 26599.7 12040.62 M 27219.46 13770.36 26960.38 13209.02 27498.86 12690.86 28019.56 12960.1 28298.96 12800.08 M 29739.14 12820.4 30069.34 13010.9 30508.76 12680.7 30981.2 13170.92 30699.26 13650.98 30889.76 14120.88 31499.36 14308.84 31499.36 14989.56 30940.56 15129.26 30739.9 15700.76 31009.14 16170.66 30539.24 16681.2 30021.08 16419.58 29551.18 16620.24 29381 17161.26 28690.12 17179.04 28479.3 16630.4 28060.2 16460.22 27509.02 16729.46 26990.86 16201.14 27239.78 15660.12 27069.6 15180.06 26520.96 15081 26510.8 14379.96 27069.6 14179.3 27209.3 13780.52 M 29350.52 13800.84 29650.24 13950.7 29850.9 14148.82 30000.76 14550.14 30000.76 14948.92 29850.9 15299.44 29398.78 15649.96 28949.2 15700.76 28550.42 15599.16 28149.1 15251.18 27999.24 14799.06 28050.04 14301.22 28298.96 13998.96 28649.48 13800.84 28298.96 12800.08 M 29350.52 13800.84 29749.3 12800.08 M 4220 8680 9300 8680 9300 11220 4220 11220 M 1400 11500 2950 11500 M 4220 11220 4220 8680 M 2950 8400 1400 8400 1400 11500 M 13861.905 11847.619 13861.905 12847.619 14100 12847.619 14242.858 12800 14338.096 12704.762 14385.715 12609.524 14433.334 12419.048 14433.334 12276.19 14385.715 12085.714 14338.096 11990.476 14242.858 11895.238 14100 11847.619 13861.905 11847.619 M 14766.667 12847.619 15385.715 12847.619 15052.381 12466.667 15195.239 12466.667 15290.477 12419.048 15338.096 12371.429 15385.715 12276.19 15385.715 12038.095 15338.096 11942.857 15290.477 11895.238 15195.239 11847.619 14909.524 11847.619 14814.286 11895.238 14766.667 11942.857 M 9652.381 5986.905 8652.381 5986.905 8652.381 6225 8700 6367.858 8795.238 6463.096 8890.476 6510.715 9080.952 6558.334 9223.81 6558.334 9414.286 6510.715 9509.524 6463.096 9604.762 6367.858 9652.381 6225 9652.381 5986.905 M 9652.381 7510.715 9652.381 6939.286 M 9652.381 7225 8652.381 7225 8795.238 7129.762 8890.476 7034.524 8938.095 6939.286 M 14038.095 11447.619 14038.095 10638.095 14085.714 10542.857 14133.333 10495.238 14228.571 10447.619 14419.048 10447.619 14514.286 10495.238 14561.905 10542.857 14609.524 10638.095 14609.524 11447.619 M 15609.524 10447.619 15038.095 10447.619 M 15323.809 10447.619 15323.809 11447.619 15228.571 11304.762 15133.333 11209.524 15038.095 11161.905 M 21004.762 18502.381 20909.524 18550 20814.286 18645.238 20671.429 18788.095 20576.19 18835.714 20480.952 18835.714 M 20528.571 18597.619 20433.333 18645.238 20338.095 18740.476 20290.476 18930.952 20290.476 19264.286 20338.095 19454.762 20433.333 19550 20528.571 19597.619 20719.048 19597.619 20814.286 19550 20909.524 19454.762 20957.143 19264.286 20957.143 18930.952 20909.524 18740.476 20814.286 18645.238 20719.048 18597.619 20528.571 18597.619 M 21909.524 18597.619 21338.095 18597.619 M 21623.809 18597.619 21623.809 19597.619 21528.571 19454.762 21433.333 19359.524 21338.095 19311.905 M 16561.905 1547.619 16561.905 2547.619 16800 2547.619 16942.858 2500 17038.096 2404.762 17085.715 2309.524 17133.334 2119.048 17133.334 1976.19 17085.715 1785.714 17038.096 1690.476 16942.858 1595.238 16800 1547.619 16561.905 1547.619 M 17514.286 2452.381 17561.905 2500 17657.143 2547.619 17895.239 2547.619 17990.477 2500 18038.096 2452.381 18085.715 2357.143 18085.715 2261.905 18038.096 2119.048 17466.667 1547.619 18085.715 1547.619 M 13304.762 20852.381 13209.524 20900 13114.286 20995.238 12971.429 21138.095 12876.19 21185.714 12780.952 21185.714 M 12828.571 20947.619 12733.333 20995.238 12638.095 21090.476 12590.476 21280.952 12590.476 21614.286 12638.095 21804.762 12733.333 21900 12828.571 21947.619 13019.048 21947.619 13114.286 21900 13209.524 21804.762 13257.143 21614.286 13257.143 21280.952 13209.524 21090.476 13114.286 20995.238 13019.048 20947.619 12828.571 20947.619 M 13638.095 21852.381 13685.714 21900 13780.952 21947.619 14019.048 21947.619 14114.286 21900 14161.905 21852.381 14209.524 21757.143 14209.524 21661.905 14161.905 21519.048 13590.476 20947.619 14209.524 20947.619 M 23983.334 1692.857 23935.715 1645.238 23792.858 1597.619 23697.62 1597.619 23554.762 1645.238 23459.524 1740.476 23411.905 1835.714 23364.286 2026.19 23364.286 2169.048 23411.905 2359.524 23459.524 2454.762 23554.762 2550 23697.62 2597.619 23792.858 2597.619 23935.715 2550 23983.334 2502.381 M 24364.286 2502.381 24411.905 2550 24507.143 2597.619 24745.239 2597.619 24840.477 2550 24888.096 2502.381 24935.715 2407.143 24935.715 2311.905 24888.096 2169.048 24316.667 1597.619 24935.715 1597.619 M 21683.334 1597.619 21350 2073.81 M 21111.905 1597.619 21111.905 2597.619 21492.858 2597.619 21588.096 2550 21635.715 2502.381 21683.334 2407.143 21683.334 2264.286 21635.715 2169.048 21588.096 2121.429 21492.858 2073.81 21111.905 2073.81 M 22635.715 1597.619 22064.286 1597.619 M 22350 1597.619 22350 2597.619 22254.762 2454.762 22159.524 2359.524 22064.286 2311.905 M 24133.334 9247.619 23800 9723.81 M 23561.905 9247.619 23561.905 10247.619 23942.858 10247.619 24038.096 10200 24085.715 10152.381 24133.334 10057.143 24133.334 9914.286 24085.715 9819.048 24038.096 9771.429 23942.858 9723.81 23561.905 9723.81 M 24514.286 10152.381 24561.905 10200 24657.143 10247.619 24895.239 10247.619 24990.477 10200 25038.096 10152.381 25085.715 10057.143 25085.715 9961.905 25038.096 9819.048 24466.667 9247.619 25085.715 9247.619 M 17183.334 21197.619 16850 21673.81 M 16611.905 21197.619 16611.905 22197.619 16992.858 22197.619 17088.096 22150 17135.715 22102.381 17183.334 22007.143 17183.334 21864.286 17135.715 21769.048 17088.096 21721.429 16992.858 21673.81 16611.905 21673.81 M 17516.667 22197.619 18135.715 22197.619 17802.381 21816.667 17945.239 21816.667 18040.477 21769.048 18088.096 21721.429 18135.715 21626.19 18135.715 21388.095 18088.096 21292.857 18040.477 21245.238 17945.239 21197.619 17659.524 21197.619 17564.286 21245.238 17516.667 21292.857 M 10983.334 12047.619 10650 12523.81 M 10411.905 12047.619 10411.905 13047.619 10792.858 13047.619 10888.096 13000 10935.715 12952.381 10983.334 12857.143 10983.334 12714.286 10935.715 12619.048 10888.096 12571.429 10792.858 12523.81 10411.905 12523.81 M 11840.477 12714.286 11840.477 12047.619 M 11602.381 13095.238 11364.286 12380.952 11983.334 12380.952 M 19733.334 10792.857 19685.715 10745.238 19542.858 10697.619 19447.62 10697.619 19304.762 10745.238 19209.524 10840.476 19161.905 10935.714 19114.286 11126.19 19114.286 11269.048 19161.905 11459.524 19209.524 11554.762 19304.762 11650 19447.62 11697.619 19542.858 11697.619 19685.715 11650 19733.334 11602.381 M 20685.715 10697.619 20114.286 10697.619 M 20400 10697.619 20400 11697.619 20304.762 11554.762 20209.524 11459.524 20114.286 11411.905 M 7361.905 2100 7266.667 2147.619 7123.81 2147.619 6980.952 2100 6885.714 2004.762 6838.095 1909.524 6790.476 1719.048 6790.476 1576.19 6838.095 1385.714 6885.714 1290.476 6980.952 1195.238 7123.81 1147.619 7219.048 1147.619 7361.905 1195.238 7409.524 1242.857 7409.524 1576.19 7219.048 1576.19 M 7838.095 1147.619 7838.095 2147.619 8409.524 1147.619 8409.524 2147.619 M 8885.714 1147.619 8885.714 2147.619 9123.809 2147.619 9266.667 2100 9361.905 2004.762 9409.524 1909.524 9457.143 1719.048 9457.143 1576.19 9409.524 1385.714 9361.905 1290.476 9266.667 1195.238 9123.809 1147.619 8885.714 1147.619 M 10409.524 1147.619 9838.095 1147.619 M 10123.809 1147.619 10123.809 2147.619 10028.571 2004.762 9933.333 1909.524 9838.095 1861.905 M 28561.905 8400 28466.667 8447.619 28323.81 8447.619 28180.952 8400 28085.714 8304.762 28038.095 8209.524 27990.476 8019.048 27990.476 7876.19 28038.095 7685.714 28085.714 7590.476 28180.952 7495.238 28323.81 7447.619 28419.048 7447.619 28561.905 7495.238 28609.524 7542.857 28609.524 7876.19 28419.048 7876.19 M 29038.095 7447.619 29038.095 8447.619 29609.524 7447.619 29609.524 8447.619 M 30085.714 7447.619 30085.714 8447.619 30323.809 8447.619 30466.667 8400 30561.905 8304.762 30609.524 8209.524 30657.143 8019.048 30657.143 7876.19 30609.524 7685.714 30561.905 7590.476 30466.667 7495.238 30323.809 7447.619 30085.714 7447.619 M 31038.095 8352.381 31085.714 8400 31180.952 8447.619 31419.048 8447.619 31514.286 8400 31561.905 8352.381 31609.524 8257.143 31609.524 8161.905 31561.905 8019.048 30990.476 7447.619 31609.524 7447.619 M 6900 22847.619 6900 23847.619 M 7376.19 22847.619 7376.19 23847.619 7947.619 22847.619 7947.619 23847.619 M 8947.619 22847.619 8376.19 22847.619 M 8661.904 22847.619 8661.904 23847.619 8566.666 23704.762 8471.428 23609.524 8376.19 23561.905 M 24123.809 23947.619 24314.286 23947.619 24409.524 23900 24504.762 23804.762 24552.381 23614.286 24552.381 23280.952 24504.762 23090.476 24409.524 22995.238 24314.286 22947.619 24123.809 22947.619 24028.571 22995.238 23933.333 23090.476 23885.714 23280.952 23885.714 23614.286 23933.333 23804.762 24028.571 23900 24123.809 23947.619 M 24980.952 23947.619 24980.952 23138.095 25028.571 23042.857 25076.19 22995.238 25171.428 22947.619 25361.905 22947.619 25457.143 22995.238 25504.762 23042.857 25552.381 23138.095 25552.381 23947.619 M 25885.714 23947.619 26457.143 23947.619 M 26171.428 22947.619 26171.428 23947.619 M 27314.286 22947.619 26742.857 22947.619 M 27028.571 22947.619 27028.571 23947.619 26933.333 23804.762 26838.095 23709.524 26742.857 23661.905 M 1311.905 11897.619 1311.905 12897.619 1692.858 12897.619 1788.096 12850 1835.715 12802.381 1883.334 12707.143 1883.334 12564.286 1835.715 12469.048 1788.096 12421.429 1692.858 12373.81 1311.905 12373.81 M 2835.715 11897.619 2264.286 11897.619 M 2550 11897.619 2550 12897.619 2454.762 12754.762 2359.524 12659.524 2264.286 12611.905" fill="none" stroke-width="150"/></g><g id="pcb-stackup_top_drl1"><use xlink:href="#wUPudWNkd.Ko_pad-1" x="1700" y="17200"/><use xlink:href="#wUPudWNkd.Ko_pad-1" x="1900" y="13470"/><use xlink:href="#wUPudWNkd.Ko_pad-1" x="1900" y="7500"/><use xlink:href="#wUPudWNkd.Ko_pad-1" x="3200" y="14800"/><use xlink:href="#wUPudWNkd.Ko_pad-1" x="4800" y="12300"/><use xlink:href="#wUPudWNkd.Ko_pad-1" x="5100" y="17000"/><use xlink:href="#wUPudWNkd.Ko_pad-1" x="6000" y="14600"/><use xlink:href="#wUPudWNkd.Ko_pad-1" x="6500" y="7600"/><use xlink:href="#wUPudWNkd.Ko_pad-1" x="7600" y="12300"/><use xlink:href="#wUPudWNkd.Ko_pad-1" x="7800" y="2800"/><use xlink:href="#wUPudWNkd.Ko_pad-1" x="8700" y="19300"/><use xlink:href="#wUPudWNkd.Ko_pad-1" x="8700" y="17400"/><use xlink:href="#wUPudWNkd.Ko_pad-1" x="8700" y="15500"/><use xlink:href="#wUPudWNkd.Ko_pad-1" x="9300" y="23000"/><use xlink:href="#wUPudWNkd.Ko_pad-1" x="9300" y="5100"/><use xlink:href="#wUPudWNkd.Ko_pad-1" x="9500" y="13600"/><use xlink:href="#wUPudWNkd.Ko_pad-1" x="10200" y="20500"/><use xlink:href="#wUPudWNkd.Ko_pad-1" x="11200" y="1800"/><use xlink:href="#wUPudWNkd.Ko_pad-1" x="11700" y="13600"/><use xlink:href="#wUPudWNkd.Ko_pad-1" x="12200" y="20600"/><use xlink:href="#wUPudWNkd.Ko_pad-1" x="12900" y="23000"/><use xlink:href="#wUPudWNkd.Ko_pad-1" x="12900" y="11400"/><use xlink:href="#wUPudWNkd.Ko_pad-1" x="13800" y="13600"/><use xlink:href="#wUPudWNkd.Ko_pad-1" x="14600" y="20500"/><use xlink:href="#wUPudWNkd.Ko_pad-1" x="15500" y="2000"/><use xlink:href="#wUPudWNkd.Ko_pad-1" x="15800" y="23000"/><use xlink:href="#wUPudWNkd.Ko_pad-1" x="16200" y="13300"/><use xlink:href="#wUPudWNkd.Ko_pad-1" x="17000" y="16900"/><use xlink:href="#wUPudWNkd.Ko_pad-1" x="17000" y="15200"/><use xlink:href="#wUPudWNkd.Ko_pad-1" x="18300" y="9600"/><use xlink:href="#wUPudWNkd.Ko_pad-1" x="18500" y="23000"/><use xlink:href="#wUPudWNkd.Ko_pad-1" x="18600" y="19650"/><use xlink:href="#wUPudWNkd.Ko_pad-1" x="20100" y="20800"/><use xlink:href="#wUPudWNkd.Ko_pad-1" x="20200" y="18500"/><use xlink:href="#wUPudWNkd.Ko_pad-1" x="20300" y="2000"/><use xlink:href="#wUPudWNkd.Ko_pad-1" x="20400" y="12200"/><use xlink:href="#wUPudWNkd.Ko_pad-1" x="22000" y="23200"/><use xlink:href="#wUPudWNkd.Ko_pad-1" x="22200" y="18500"/><use xlink:href="#wUPudWNkd.Ko_pad-1" x="22300" y="12200"/><use xlink:href="#wUPudWNkd.Ko_pad-1" x="23100" y="20900"/><use xlink:href="#wUPudWNkd.Ko_pad-1" x="24000" y="18500"/><use xlink:href="#wUPudWNkd.Ko_pad-1" x="24100" y="12200"/><use xlink:href="#wUPudWNkd.Ko_pad-1" x="24200" y="8600"/><use xlink:href="#wUPudWNkd.Ko_pad-1" x="25100" y="17100"/><use xlink:href="#wUPudWNkd.Ko_pad-1" x="25400" y="13500"/><use xlink:href="#wUPudWNkd.Ko_pad-1" x="25500" y="22400"/><use xlink:href="#wUPudWNkd.Ko_pad-1" x="25500" y="15400"/><use xlink:href="#wUPudWNkd.Ko_pad-1" x="25500" y="10600"/><use xlink:href="#wUPudWNkd.Ko_pad-1" x="25800" y="2200"/><use xlink:href="#wUPudWNkd.Ko_pad-1" x="26000" y="20100"/><use xlink:href="#wUPudWNkd.Ko_pad-1" x="26400" y="7000"/><use xlink:href="#wUPudWNkd.Ko_pad-1" x="26800" y="9200"/><use xlink:href="#wUPudWNkd.Ko_pad-1" x="27600" y="17900"/><use xlink:href="#wUPudWNkd.Ko_pad-1" x="27800" y="15800"/><use xlink:href="#wUPudWNkd.Ko_pad-1" x="27900" y="13500"/><use xlink:href="#wUPudWNkd.Ko_pad-1" x="28700" y="11400"/><use xlink:href="#wUPudWNkd.Ko_pad-1" x="29600" y="9200"/><use xlink:href="#wUPudWNkd.Ko_pad-1" x="30200" y="15900"/><use xlink:href="#wUPudWNkd.Ko_pad-1" x="32100" y="17700"/><use xlink:href="#wUPudWNkd.Ko_pad-1" x="32100" y="9200"/><use xlink:href="#wUPudWNkd.Ko_pad-1" x="32300" y="14300"/><use xlink:href="#wUPudWNkd.Ko_pad-1" x="32300" y="11500"/><use xlink:href="#wUPudWNkd.Ko_pad-1" x="32300" y="7200"/><use xlink:href="#wUPudWNkd.Ko_pad-2" x="2950" y="9950"/><use xlink:href="#wUPudWNkd.Ko_pad-2" x="5490" y="9950"/><use xlink:href="#wUPudWNkd.Ko_pad-2" x="8030" y="9950"/><use xlink:href="#wUPudWNkd.Ko_pad-3" x="4100" y="20900"/><use xlink:href="#wUPudWNkd.Ko_pad-3" x="4100" y="4100"/><use xlink:href="#wUPudWNkd.Ko_pad-3" x="29900" y="20900"/><use xlink:href="#wUPudWNkd.Ko_pad-3" x="29900" y="4100"/></g><clipPath id="pcb-stackup_top_out"><path d="M 0 25000 34000 25000 34000 0 0 0 0 25000" fill="none" stroke-width="150"/></clipPath><mask id="pcb-stackup_top_mech-mask"><g fill="#000" stroke="#000"><rect x="0" y="0" width="34000" height="25000" fill="#fff"/><use xlink:href="#pcb-stackup_top_drl1"/></g></mask><mask id="pcb-stackup_top_cf-mask"><g fill="#fff" stroke="#fff"><use xlink:href="#pcb-stackup_top_sm"/></g></mask><mask id="pcb-stackup_top_sm-mask"><g fill="#000" stroke="#000"><rect x="0" y="0" width="34000" height="25000" fill="#fff"/><use xlink:href="#pcb-stackup_top_sm"/></g></mask></defs><g transform="translate(0,25000) scale(1,-1)"><g mask="url(#pcb-stackup_top_mech-mask)" clip-path="url(#pcb-stackup_top_out)"><rect x="0" y="0" width="34000" height="25000" fill="currentColor" class="pcb-stackup_fr4"/><use xlink:href="#pcb-stackup_top_cu" fill="currentColor" stroke="currentColor" class="pcb-stackup_cu"/><use xlink:href="#pcb-stackup_top_cu" fill="currentColor" stroke="currentColor" class="pcb-stackup_cf" mask="url(#pcb-stackup_top_cf-mask)"/><g mask="url(#pcb-stackup_top_sm-mask)"><rect x="0" y="0" width="34000" height="25000" fill="currentColor" class="pcb-stackup_sm"/><use xlink:href="#pcb-stackup_top_ss" fill="currentColor" stroke="currentColor" class="pcb-stackup_ss"/></g><use xlink:href="#pcb-stackup_top_sp" fill="currentColor" stroke="currentColor" class="pcb-stackup_sp"/></g></g></svg>