<svg id="pcb-stackup_bottom" version="1.1" xmlns:xlink="http://www.w3.org/1999/xlink" stroke-linecap="round" stroke-linejoin="round" stroke-width="0" fill-rule="evenodd" clip-rule="evenodd" viewBox="123444 -99316.4414051 12700 20830.4414051" width="12.7mm" height="20.8304414051mm" xmlns="http://www.w3.org/2000/svg"><defs><style>.pcb-stackup_fr4 {color: #4D542C;}
.pcb-stackup_cu {color: lightgrey;}
.pcb-stackup_cf {color: goldenrod;}
.pcb-stackup_sm {color: #004400; opacity: 0.9;}
.pcb-stackup_ss {color: white;}
.pcb-stackup_sp {color: #000000; opacity: 0;}
.pcb-stackup_out {color: black;}</style><circle cx="0" cy="0" r="875" id="EQdio_gd5tUu_pad-11"/><circle cx="0" cy="0" r="342.9" id="EQdio_gd5tUu_pad-12"/><circle cx="0" cy="0" r="875" id="EQdio_gd5tUu_pad-11"/><circle cx="0" cy="0" r="342.9" id="EQdio_gd5tUu_pad-12"/><circle cx="0" cy="0" r="925" id="j16CwAU628AS_pad-11"/><circle cx="0" cy="0" r="875" id="EQdio_gd5tUu_pad-11"/><circle cx="0" cy="0" r="342.9" id="EQdio_gd5tUu_pad-12"/><circle cx="0" cy="0" r="875" id="EQdio_gd5tUu_pad-11"/><circle cx="0" cy="0" r="342.9" id="EQdio_gd5tUu_pad-12"/><circle cx="0" cy="0" r="925" id="j16CwAU628AS_pad-11"/><circle cx="0" cy="0" r="875" id="EQdio_gd5tUu_pad-11"/><circle cx="0" cy="0" r="342.9" id="EQdio_gd5tUu_pad-12"/><circle cx="0" cy="0" r="875" id="EQdio_gd5tUu_pad-11"/><circle cx="0" cy="0" r="342.9" id="EQdio_gd5tUu_pad-12"/><circle cx="0" cy="0" r="925" id="j16CwAU628AS_pad-11"/><circle cx="0" cy="0" r="875" id="EQdio_gd5tUu_pad-11"/><circle cx="0" cy="0" r="342.9" id="EQdio_gd5tUu_pad-12"/><circle cx="0" cy="0" r="875" id="EQdio_gd5tUu_pad-11"/><circle cx="0" cy="0" r="342.9" id="EQdio_gd5tUu_pad-12"/><circle cx="0" cy="0" r="925" id="j16CwAU628AS_pad-11"/><circle cx="0" cy="0" r="875" id="EQdio_gd5tUu_pad-11"/><circle cx="0" cy="0" r="342.9" id="EQdio_gd5tUu_pad-12"/><circle cx="0" cy="0" r="875" id="EQdio_gd5tUu_pad-11"/><circle cx="0" cy="0" r="342.9" id="EQdio_gd5tUu_pad-12"/><circle cx="0" cy="0" r="925" id="j16CwAU628AS_pad-11"/><circle cx="0" cy="0" r="875" id="EQdio_gd5tUu_pad-11"/><circle cx="0" cy="0" r="342.9" id="EQdio_gd5tUu_pad-12"/><circle cx="0" cy="0" r="875" id="EQdio_gd5tUu_pad-11"/><circle cx="0" cy="0" r="342.9" id="EQdio_gd5tUu_pad-12"/><circle cx="0" cy="0" r="925" id="j16CwAU628AS_pad-11"/><circle cx="0" cy="0" r="875" id="EQdio_gd5tUu_pad-11"/><circle cx="0" cy="0" r="342.9" id="EQdio_gd5tUu_pad-12"/><circle cx="0" cy="0" r="875" id="EQdio_gd5tUu_pad-11"/><circle cx="0" cy="0" r="342.9" id="EQdio_gd5tUu_pad-12"/><circle cx="0" cy="0" r="925" id="j16CwAU628AS_pad-11"/><circle cx="0" cy="0" r="875" id="EQdio_gd5tUu_pad-11"/><circle cx="0" cy="0" r="342.9" id="EQdio_gd5tUu_pad-12"/><circle cx="0" cy="0" r="875" id="EQdio_gd5tUu_pad-11"/><circle cx="0" cy="0" r="342.9" id="EQdio_gd5tUu_pad-12"/><circle cx="0" cy="0" r="925" id="j16CwAU628AS_pad-11"/><circle cx="0" cy="0" r="875" id="EQdio_gd5tUu_pad-11"/><circle cx="0" cy="0" r="342.9" id="EQdio_gd5tUu_pad-12"/><circle cx="0" cy="0" r="875" id="EQdio_gd5tUu_pad-11"/><circle cx="0" cy="0" r="342.9" id="EQdio_gd5tUu_pad-12"/><circle cx="0" cy="0" r="925" id="j16CwAU628AS_pad-11"/><circle cx="0" cy="0" r="875" id="EQdio_gd5tUu_pad-11"/><circle cx="0" cy="0" r="342.9" id="EQdio_gd5tUu_pad-12"/><circle cx="0" cy="0" r="875" id="EQdio_gd5tUu_pad-11"/><circle cx="0" cy="0" r="342.9" id="EQdio_gd5tUu_pad-12"/><circle cx="0" cy="0" r="925" id="j16CwAU628AS_pad-11"/><circle cx="0" cy="0" r="875" id="EQdio_gd5tUu_pad-11"/><circle cx="0" cy="0" r="342.9" id="EQdio_gd5tUu_pad-12"/><circle cx="0" cy="0" r="875" id="EQdio_gd5tUu_pad-11"/><circle cx="0" cy="0" r="342.9" id="EQdio_gd5tUu_pad-12"/><circle cx="0" cy="0" r="925" id="j16CwAU628AS_pad-11"/><circle cx="0" cy="0" r="875" id="EQdio_gd5tUu_pad-11"/><circle cx="0" cy="0" r="342.9" id="EQdio_gd5tUu_pad-12"/><circle cx="0" cy="0" r="875" id="EQdio_gd5tUu_pad-11"/><circle cx="0" cy="0" r="342.9" id="EQdio_gd5tUu_pad-12"/><circle cx="0" cy="0" r="925" id="j16CwAU628AS_pad-11"/><circle cx="0" cy="0" r="875" id="EQdio_gd5tUu_pad-11"/><circle cx="0" cy="0" r="342.9" id="EQdio_gd5tUu_pad-12"/><circle cx="0" cy="0" r="875" id="EQdio_gd5tUu_pad-11"/><circle cx="0" cy="0" r="342.9" id="EQdio_gd5tUu_pad-12"/><circle cx="0" cy="0" r="925" id="j16CwAU628AS_pad-11"/><circle cx="0" cy="0" r="875" id="EQdio_gd5tUu_pad-11"/><circle cx="0" cy="0" r="342.9" id="EQdio_gd5tUu_pad-12"/><circle cx="0" cy="0" r="875" id="EQdio_gd5tUu_pad-11"/><circle cx="0" cy="0" r="342.9" id="EQdio_gd5tUu_pad-12"/><circle cx="0" cy="0" r="925" id="j16CwAU628AS_pad-11"/><circle cx="0" cy="0" r="875" id="EQdio_gd5tUu_pad-11"/><circle cx="0" cy="0" r="342.9" id="EQdio_gd5tUu_pad-12"/><circle cx="0" cy="0" r="875" id="EQdio_gd5tUu_pad-11"/><circle cx="0" cy="0" r="342.9" id="EQdio_gd5tUu_pad-12"/><circle cx="0" cy="0" r="925" id="j16CwAU628AS_pad-11"/><circle cx="0" cy="0" r="875" id="EQdio_gd5tUu_pad-11"/><circle cx="0" cy="0" r="342.9" id="EQdio_gd5tUu_pad-12"/><circle cx="0" cy="0" r="875" id="EQdio_gd5tUu_pad-11"/><circle cx="0" cy="0" r="342.9" id="EQdio_gd5tUu_pad-12"/><circle cx="0" cy="0" r="925" id="j16CwAU628AS_pad-11"/><circle cx="0" cy="0" r="165" id="zzaWghOmj6R0_pad-1"/><circle cx="0" cy="0" r="500" id="zzaWghOmj6R0_pad-2"/><circle cx="0" cy="0" r="875" id="EQdio_gd5tUu_pad-11"/><circle cx="0" cy="0" r="342.9" id="EQdio_gd5tUu_pad-12"/><circle cx="0" cy="0" r="875" id="EQdio_gd5tUu_pad-11"/><circle cx="0" cy="0" r="342.9" id="EQdio_gd5tUu_pad-12"/><circle cx="0" cy="0" r="925" id="j16CwAU628AS_pad-11"/><circle cx="0" cy="0" r="875" id="EQdio_gd5tUu_pad-11"/><circle cx="0" cy="0" r="342.9" id="EQdio_gd5tUu_pad-12"/><circle cx="0" cy="0" r="875" id="EQdio_gd5tUu_pad-11"/><circle cx="0" cy="0" r="342.9" id="EQdio_gd5tUu_pad-12"/><circle cx="0" cy="0" r="925" id="j16CwAU628AS_pad-11"/><circle cx="0" cy="0" r="875" id="EQdio_gd5tUu_pad-11"/><circle cx="0" cy="0" r="342.9" id="EQdio_gd5tUu_pad-12"/><circle cx="0" cy="0" r="875" id="EQdio_gd5tUu_pad-11"/><circle cx="0" cy="0" r="342.9" id="EQdio_gd5tUu_pad-12"/><circle cx="0" cy="0" r="925" id="j16CwAU628AS_pad-11"/><circle cx="0" cy="0" r="875" id="EQdio_gd5tUu_pad-11"/><circle cx="0" cy="0" r="342.9" id="EQdio_gd5tUu_pad-12"/><circle cx="0" cy="0" r="875" id="EQdio_gd5tUu_pad-11"/><circle cx="0" cy="0" r="342.9" id="EQdio_gd5tUu_pad-12"/><circle cx="0" cy="0" r="925" id="j16CwAU628AS_pad-11"/><circle cx="0" cy="0" r="875" id="EQdio_gd5tUu_pad-11"/><circle cx="0" cy="0" r="342.9" id="EQdio_gd5tUu_pad-12"/><circle cx="0" cy="0" r="875" id="EQdio_gd5tUu_pad-11"/><circle cx="0" cy="0" r="342.9" id="EQdio_gd5tUu_pad-12"/><circle cx="0" cy="0" r="925" id="j16CwAU628AS_pad-11"/><circle cx="0" cy="0" r="875" id="EQdio_gd5tUu_pad-11"/><circle cx="0" cy="0" r="342.9" id="EQdio_gd5tUu_pad-12"/><circle cx="0" cy="0" r="875" id="EQdio_gd5tUu_pad-11"/><circle cx="0" cy="0" r="342.9" id="EQdio_gd5tUu_pad-12"/><circle cx="0" cy="0" r="925" id="j16CwAU628AS_pad-11"/><circle cx="0" cy="0" r="875" id="EQdio_gd5tUu_pad-11"/><circle cx="0" cy="0" r="342.9" id="EQdio_gd5tUu_pad-12"/><circle cx="0" cy="0" r="875" id="EQdio_gd5tUu_pad-11"/><circle cx="0" cy="0" r="342.9" id="EQdio_gd5tUu_pad-12"/><circle cx="0" cy="0" r="925" id="j16CwAU628AS_pad-11"/><circle cx="0" cy="0" r="875" id="EQdio_gd5tUu_pad-11"/><circle cx="0" cy="0" r="342.9" id="EQdio_gd5tUu_pad-12"/><circle cx="0" cy="0" r="875" id="EQdio_gd5tUu_pad-11"/><circle cx="0" cy="0" r="342.9" id="EQdio_gd5tUu_pad-12"/><circle cx="0" cy="0" r="925" id="j16CwAU628AS_pad-11"/><circle cx="0" cy="0" r="875" id="EQdio_gd5tUu_pad-11"/><circle cx="0" cy="0" r="342.9" id="EQdio_gd5tUu_pad-12"/><circle cx="0" cy="0" r="875" id="EQdio_gd5tUu_pad-11"/><circle cx="0" cy="0" r="342.9" id="EQdio_gd5tUu_pad-12"/><circle cx="0" cy="0" r="925" id="j16CwAU628AS_pad-11"/><circle cx="0" cy="0" r="875" id="EQdio_gd5tUu_pad-11"/><circle cx="0" cy="0" r="342.9" id="EQdio_gd5tUu_pad-12"/><circle cx="0" cy="0" r="875" id="EQdio_gd5tUu_pad-11"/><circle cx="0" cy="0" r="342.9" id="EQdio_gd5tUu_pad-12"/><circle cx="0" cy="0" r="925" id="j16CwAU628AS_pad-11"/><circle cx="0" cy="0" r="875" id="EQdio_gd5tUu_pad-11"/><circle cx="0" cy="0" r="342.9" id="EQdio_gd5tUu_pad-12"/><circle cx="0" cy="0" r="875" id="EQdio_gd5tUu_pad-11"/><circle cx="0" cy="0" r="342.9" id="EQdio_gd5tUu_pad-12"/><circle cx="0" cy="0" r="925" id="j16CwAU628AS_pad-11"/><circle cx="0" cy="0" r="875" id="EQdio_gd5tUu_pad-11"/><circle cx="0" cy="0" r="342.9" id="EQdio_gd5tUu_pad-12"/><circle cx="0" cy="0" r="875" id="EQdio_gd5tUu_pad-11"/><circle cx="0" cy="0" r="342.9" id="EQdio_gd5tUu_pad-12"/><circle cx="0" cy="0" r="925" id="j16CwAU628AS_pad-11"/><circle cx="0" cy="0" r="875" id="EQdio_gd5tUu_pad-11"/><circle cx="0" cy="0" r="342.9" id="EQdio_gd5tUu_pad-12"/><circle cx="0" cy="0" r="875" id="EQdio_gd5tUu_pad-11"/><circle cx="0" cy="0" r="342.9" id="EQdio_gd5tUu_pad-12"/><circle cx="0" cy="0" r="925" id="j16CwAU628AS_pad-11"/><circle cx="0" cy="0" r="875" id="EQdio_gd5tUu_pad-11"/><circle cx="0" cy="0" r="342.9" id="EQdio_gd5tUu_pad-12"/><circle cx="0" cy="0" r="875" id="EQdio_gd5tUu_pad-11"/><circle cx="0" cy="0" r="342.9" id="EQdio_gd5tUu_pad-12"/><circle cx="0" cy="0" r="925" id="j16CwAU628AS_pad-11"/><circle cx="0" cy="0" r="875" id="EQdio_gd5tUu_pad-11"/><circle cx="0" cy="0" r="342.9" id="EQdio_gd5tUu_pad-12"/><circle cx="0" cy="0" r="875" id="EQdio_gd5tUu_pad-11"/><circle cx="0" cy="0" r="342.9" id="EQdio_gd5tUu_pad-12"/><circle cx="0" cy="0" r="925" id="j16CwAU628AS_pad-11"/><circle cx="0" cy="0" r="875" id="EQdio_gd5tUu_pad-11"/><circle cx="0" cy="0" r="342.9" id="EQdio_gd5tUu_pad-12"/><circle cx="0" cy="0" r="875" id="EQdio_gd5tUu_pad-11"/><circle cx="0" cy="0" r="342.9" id="EQdio_gd5tUu_pad-12"/><circle cx="0" cy="0" r="925" id="j16CwAU628AS_pad-11"/><circle cx="0" cy="0" r="165" id="zzaWghOmj6R0_pad-1"/><circle cx="0" cy="0" r="500" id="zzaWghOmj6R0_pad-2"/><g id="pcb-stackup_bottom_cu"><use xlink:href="#EQdio_gd5tUu_pad-11" x="129540" y="-97790"/><use xlink:href="#EQdio_gd5tUu_pad-11" x="132080" y="-97790"/><use xlink:href="#EQdio_gd5tUu_pad-11" x="127000" y="-80010"/><use xlink:href="#EQdio_gd5tUu_pad-11" x="129540" y="-80010"/><use xlink:href="#EQdio_gd5tUu_pad-11" x="132080" y="-80010"/><use xlink:href="#EQdio_gd5tUu_pad-11" x="134620" y="-80010"/><use xlink:href="#EQdio_gd5tUu_pad-12" x="128940" y="-88900"/><use xlink:href="#EQdio_gd5tUu_pad-12" x="130140" y="-88900"/><use xlink:href="#EQdio_gd5tUu_pad-12" x="129540" y="-88300"/><use xlink:href="#EQdio_gd5tUu_pad-12" x="129540" y="-89500"/><use xlink:href="#EQdio_gd5tUu_pad-12" x="129540" y="-88900"/><use xlink:href="#EQdio_gd5tUu_pad-12" x="125100" y="-79700"/><use xlink:href="#EQdio_gd5tUu_pad-12" x="124750" y="-90500"/><use xlink:href="#EQdio_gd5tUu_pad-12" x="125900" y="-97600"/><use xlink:href="#EQdio_gd5tUu_pad-12" x="131300" y="-82700"/><use xlink:href="#EQdio_gd5tUu_pad-12" x="134392.885" y="-86393.047"/><use xlink:href="#EQdio_gd5tUu_pad-12" x="126617.329" y="-90515.594"/><use xlink:href="#EQdio_gd5tUu_pad-12" x="129504.189" y="-91474.7"/><use xlink:href="#EQdio_gd5tUu_pad-12" x="132344.301" y="-90063.301"/><use xlink:href="#EQdio_gd5tUu_pad-12" x="129035.615" y="-82625.705"/><use xlink:href="#EQdio_gd5tUu_pad-12" x="132699.324" y="-87092.437"/><path d="M 125100 -80184.933 125100 -79700 M 129540 -80010 128350 -81200 126115.067 -81200 125100 -80184.933 M 125900 -97600 125900 -91650 124750 -90500 M 132080 -97790 130892.499 -96602.499 126897.501 -96602.499 125900 -97600 M 130727.501 -81197.501 131406.151 -81197.501 133432.499 -81197.501 M 131300 -82700 131300 -81303.652 131406.151 -81197.501 M 134392.885 -86393.047 134392.885 -80237.115 134620 -80010 M 129540 -80010 130727.501 -81197.501 M 133432.499 -81197.501 133745.001 -80884.999 134620 -80010 M 129882.899 -88642.899 129540 -88300 M 132684.853 -88642.899 129882.899 -88642.899 M 134392.885 -86393.047 134392.885 -86934.867 132684.853 -88642.899 M 127102.262 -90515.594 126617.329 -90515.594 M 128545.083 -90515.594 127102.262 -90515.594 M 129504.189 -91474.7 128545.083 -90515.594 M 130915.588 -90063.301 129847.088 -91131.801 129504.189 -91474.7 M 132344.301 -90063.301 130915.588 -90063.301 M 129035.615 -83110.638 129035.615 -82625.705 M 129035.615 -83428.728 129035.615 -83110.638 M 132699.324 -87092.437 129035.615 -83428.728" fill="none" stroke-width="225"/><path d="M 135780.5 -96114.207 135701.149 -96693.283 135514.368 -97235.656 135225.798 -97731.414 134846.43 -98161.684 134390.713 -98510.074 133876.003 -98763.313 133342.252 -98906.304 133342.252 -87029.397 133317.763 -86905.719 133269.718 -86789.153 133199.947 -86684.139 133111.107 -86594.677 133006.582 -86524.174 132890.355 -86475.317 132766.851 -86449.965 132640.774 -86449.085 132639.566 -86449.315 129448.115 -83257.864 129448.115 -83120.697 129524.642 -83047.822 129597.318 -82944.797 129648.599 -82829.618 129676.532 -82706.672 129678.543 -82562.665 129654.054 -82438.987 129606.009 -82322.421 129536.238 -82217.407 129447.398 -82127.945 129342.873 -82057.442 129226.646 -82008.585 129103.142 -81983.233 128977.065 -81982.353 128853.219 -82005.978 128736.321 -82053.208 128630.822 -82122.244 128540.742 -82210.457 128469.511 -82314.487 128419.843 -82430.371 128393.63 -82553.695 128391.87 -82679.762 128414.629 -82803.77 128461.042 -82920.995 128529.34 -83026.973 128616.922 -83117.667 128623.115 -83121.971 128623.115 -83428.728 128626.834 -83466.66 128630.154 -83504.608 128630.759 -83506.691 128630.971 -83508.85 128641.988 -83545.341 128652.615 -83581.917 128653.612 -83583.841 128654.24 -83585.92 128672.136 -83619.578 128689.663 -83653.391 128691.016 -83655.086 128692.035 -83657.002 128716.135 -83686.551 128739.89 -83716.309 128742.867 -83719.328 128742.917 -83719.39 128742.973 -83719.436 128743.933 -83720.41 132057.154 -87033.631 132055.579 -87146.494 132078.338 -87270.502 132124.751 -87387.727 132193.049 -87493.705 132280.631 -87584.399 132384.161 -87656.354 132499.696 -87706.83 132622.834 -87733.904 132748.885 -87736.544 132873.049 -87714.651 132990.596 -87669.057 133097.048 -87601.501 133188.351 -87514.554 133261.027 -87411.529 133312.308 -87296.35 133340.241 -87173.404 133342.252 -87029.397 133342.252 -98906.304 133321.918 -98911.752 132987.229 -98933.966 132987.229 -90000.261 132962.74 -89876.583 132914.695 -89760.017 132844.924 -89655.003 132756.084 -89565.541 132651.559 -89495.038 132535.332 -89446.181 132411.828 -89420.829 132285.751 -89419.949 132161.905 -89443.574 132045.007 -89490.804 131939.508 -89559.84 131849.428 -89648.053 131847.546 -89650.801 130915.588 -89650.801 130877.655 -89654.52 130839.708 -89657.84 130837.624 -89658.445 130835.466 -89658.657 130798.974 -89669.674 130762.399 -89680.301 130760.474 -89681.298 130758.396 -89681.926 130724.758 -89699.811 130690.924 -89717.349 130689.226 -89718.704 130687.314 -89719.721 130657.786 -89743.803 130628.007 -89767.576 130624.991 -89770.549 130624.926 -89770.603 130624.875 -89770.663 130623.906 -89771.62 129563.355 -90832.169 129445.639 -90831.348 129444.43 -90831.578 128836.765 -90223.912 128807.287 -90199.699 128778.132 -90175.235 128776.231 -90174.19 128774.555 -90172.813 128740.977 -90154.808 128707.584 -90136.451 128705.515 -90135.794 128703.604 -90134.77 128667.175 -90123.632 128630.847 -90112.108 128628.691 -90111.866 128626.617 -90111.232 128588.691 -90107.379 128550.842 -90103.134 128546.607 -90103.104 128546.523 -90103.096 128546.444 -90103.103 128545.083 -90103.094 127113.779 -90103.094 127029.112 -90017.834 126924.587 -89947.331 126808.36 -89898.474 126684.856 -89873.122 126558.779 -89872.242 126434.933 -89895.867 126318.035 -89943.097 126212.536 -90012.133 126122.456 -90100.346 126051.225 -90204.376 126001.557 -90320.26 125975.344 -90443.584 125973.584 -90569.651 125996.343 -90693.659 126042.756 -90810.884 126111.054 -90916.862 126198.636 -91007.556 126302.166 -91079.511 126417.701 -91129.987 126540.839 -91157.061 126666.89 -91159.701 126791.054 -91137.808 126908.601 -91092.214 127015.053 -91024.658 127106.356 -90937.711 127113.14 -90928.094 128374.219 -90928.094 128862.019 -91415.894 128860.444 -91528.757 128883.203 -91652.765 128929.616 -91769.99 128997.914 -91875.968 129085.496 -91966.662 129189.026 -92038.617 129304.561 -92089.093 129427.699 -92116.167 129553.75 -92118.807 129677.914 -92096.914 129795.461 -92051.32 129901.913 -91983.764 129993.216 -91896.817 130065.892 -91793.792 130117.173 -91678.613 130145.106 -91555.667 130147.067 -91415.185 131086.451 -90475.801 131848.872 -90475.801 131925.608 -90555.263 132029.138 -90627.218 132144.673 -90677.694 132267.811 -90704.768 132393.862 -90707.408 132518.026 -90685.515 132635.573 -90639.921 132742.025 -90572.365 132833.328 -90485.418 132906.004 -90382.393 132957.285 -90267.214 132985.218 -90144.268 132987.229 -90000.261 132987.229 -98933.966 132732.351 -98950.884 132727.7 -98950.722 132723.882 -98950.962 132720.075 -98950.535 132715 -98950.5 129725.321 -98950.5 129857.51 -98927.192 130072.344 -98843.863 130266.902 -98720.392 130433.773 -98561.484 130566.6 -98373.19 130660.324 -98162.682 130711.375 -97937.979 130715.05 -97674.785 130670.293 -97448.744 130582.483 -97235.702 130454.965 -97043.772 130292.597 -96880.267 130101.562 -96751.412 129889.138 -96662.117 129663.415 -96615.783 129432.991 -96614.174 129206.644 -96657.352 128992.993 -96743.673 128800.178 -96869.847 128635.543 -97031.07 128505.358 -97221.201 128414.582 -97432.996 128366.673 -97658.39 128363.456 -97888.797 128405.053 -98115.441 128489.879 -98329.689 128614.705 -98523.38 128774.775 -98689.137 128963.991 -98820.646 129175.148 -98912.898 129346.172 -98950.5 127265.507 -98950.5 126594.77 -98908.006 125968.397 -98742.218 125386.157 -98457.925 124870.227 -98065.958 124440.255 -97581.242 124112.618 -97022.24 123899.801 -96410.249 123807.515 -95751.507 123807.5 -95751.111 123807.5 -81043.776 123850.66 -80603.59 123973.337 -80197.262 124172.597 -79822.508 124440.856 -79493.591 124767.89 -79223.045 125141.246 -79021.172 125546.704 -78895.662 125985.91 -78849.5 126812.649 -78849.5 126666.644 -78877.352 126452.993 -78963.673 126260.178 -79089.847 126095.543 -79251.07 125965.358 -79441.201 125874.582 -79652.996 125826.673 -79878.39 125823.456 -80108.797 125865.053 -80335.441 125949.879 -80549.689 126074.705 -80743.38 126234.775 -80909.137 126423.991 -81040.646 126635.148 -81132.898 126860.202 -81182.379 127090.581 -81187.205 127317.51 -81147.192 127532.344 -81063.863 127726.902 -80940.392 127893.773 -80781.484 128026.6 -80593.19 128120.324 -80382.682 128171.375 -80157.979 128175.05 -79894.785 128130.293 -79668.744 128042.483 -79455.702 127914.965 -79263.772 127752.597 -79100.267 127561.562 -78971.412 127349.138 -78882.117 127190.239 -78849.5 131892.649 -78849.5 131746.644 -78877.352 131532.993 -78963.673 131340.178 -79089.847 131175.543 -79251.07 131045.358 -79441.201 130954.582 -79652.996 130906.673 -79878.39 130903.456 -80108.797 130945.053 -80335.441 131029.879 -80549.689 131154.705 -80743.38 131314.775 -80909.137 131503.991 -81040.646 131715.148 -81132.898 131940.202 -81182.379 132170.581 -81187.205 132397.51 -81147.192 132612.344 -81063.863 132806.902 -80940.392 132973.773 -80781.484 133106.6 -80593.19 133200.324 -80382.682 133251.375 -80157.979 133255.05 -79894.785 133210.293 -79668.744 133122.483 -79455.702 132994.965 -79263.772 132832.597 -79100.267 132641.562 -78971.412 132429.138 -78882.117 132270.239 -78849.5 134602.224 -78849.5 134845.07 -78873.311 135061.568 -78938.676 135261.248 -79044.848 135436.5 -79187.78 135580.653 -79362.032 135688.215 -79560.963 135755.089 -79776.996 135780.5 -80018.764 135780.5 -96114.207 135780.5 -96114.207"/><path d="M 135780.5 -96114.207 135701.149 -96693.283 135514.368 -97235.656 135225.798 -97731.414 134846.43 -98161.684 134390.713 -98510.074 133876.003 -98763.313 133342.252 -98906.304 133342.252 -87029.397 133317.763 -86905.719 133269.718 -86789.153 133199.947 -86684.139 133111.107 -86594.677 133006.582 -86524.174 132890.355 -86475.317 132766.851 -86449.965 132640.774 -86449.085 132639.566 -86449.315 129448.115 -83257.864 129448.115 -83120.697 129524.642 -83047.822 129597.318 -82944.797 129648.599 -82829.618 129676.532 -82706.672 129678.543 -82562.665 129654.054 -82438.987 129606.009 -82322.421 129536.238 -82217.407 129447.398 -82127.945 129342.873 -82057.442 129226.646 -82008.585 129103.142 -81983.233 128977.065 -81982.353 128853.219 -82005.978 128736.321 -82053.208 128630.822 -82122.244 128540.742 -82210.457 128469.511 -82314.487 128419.843 -82430.371 128393.63 -82553.695 128391.87 -82679.762 128414.629 -82803.77 128461.042 -82920.995 128529.34 -83026.973 128616.922 -83117.667 128623.115 -83121.971 128623.115 -83428.728 128626.834 -83466.66 128630.154 -83504.608 128630.759 -83506.691 128630.971 -83508.85 128641.988 -83545.341 128652.615 -83581.917 128653.612 -83583.841 128654.24 -83585.92 128672.136 -83619.578 128689.663 -83653.391 128691.016 -83655.086 128692.035 -83657.002 128716.135 -83686.551 128739.89 -83716.309 128742.867 -83719.328 128742.917 -83719.39 128742.973 -83719.436 128743.933 -83720.41 132057.154 -87033.631 132055.579 -87146.494 132078.338 -87270.502 132124.751 -87387.727 132193.049 -87493.705 132280.631 -87584.399 132384.161 -87656.354 132499.696 -87706.83 132622.834 -87733.904 132748.885 -87736.544 132873.049 -87714.651 132990.596 -87669.057 133097.048 -87601.501 133188.351 -87514.554 133261.027 -87411.529 133312.308 -87296.35 133340.241 -87173.404 133342.252 -87029.397 133342.252 -98906.304 133321.918 -98911.752 132987.229 -98933.966 132987.229 -90000.261 132962.74 -89876.583 132914.695 -89760.017 132844.924 -89655.003 132756.084 -89565.541 132651.559 -89495.038 132535.332 -89446.181 132411.828 -89420.829 132285.751 -89419.949 132161.905 -89443.574 132045.007 -89490.804 131939.508 -89559.84 131849.428 -89648.053 131847.546 -89650.801 130915.588 -89650.801 130877.655 -89654.52 130839.708 -89657.84 130837.624 -89658.445 130835.466 -89658.657 130798.974 -89669.674 130762.399 -89680.301 130760.474 -89681.298 130758.396 -89681.926 130724.758 -89699.811 130690.924 -89717.349 130689.226 -89718.704 130687.314 -89719.721 130657.786 -89743.803 130628.007 -89767.576 130624.991 -89770.549 130624.926 -89770.603 130624.875 -89770.663 130623.906 -89771.62 129563.355 -90832.169 129445.639 -90831.348 129444.43 -90831.578 128836.765 -90223.912 128807.287 -90199.699 128778.132 -90175.235 128776.231 -90174.19 128774.555 -90172.813 128740.977 -90154.808 128707.584 -90136.451 128705.515 -90135.794 128703.604 -90134.77 128667.175 -90123.632 128630.847 -90112.108 128628.691 -90111.866 128626.617 -90111.232 128588.691 -90107.379 128550.842 -90103.134 128546.607 -90103.104 128546.523 -90103.096 128546.444 -90103.103 128545.083 -90103.094 127113.779 -90103.094 127029.112 -90017.834 126924.587 -89947.331 126808.36 -89898.474 126684.856 -89873.122 126558.779 -89872.242 126434.933 -89895.867 126318.035 -89943.097 126212.536 -90012.133 126122.456 -90100.346 126051.225 -90204.376 126001.557 -90320.26 125975.344 -90443.584 125973.584 -90569.651 125996.343 -90693.659 126042.756 -90810.884 126111.054 -90916.862 126198.636 -91007.556 126302.166 -91079.511 126417.701 -91129.987 126540.839 -91157.061 126666.89 -91159.701 126791.054 -91137.808 126908.601 -91092.214 127015.053 -91024.658 127106.356 -90937.711 127113.14 -90928.094 128374.219 -90928.094 128862.019 -91415.894 128860.444 -91528.757 128883.203 -91652.765 128929.616 -91769.99 128997.914 -91875.968 129085.496 -91966.662 129189.026 -92038.617 129304.561 -92089.093 129427.699 -92116.167 129553.75 -92118.807 129677.914 -92096.914 129795.461 -92051.32 129901.913 -91983.764 129993.216 -91896.817 130065.892 -91793.792 130117.173 -91678.613 130145.106 -91555.667 130147.067 -91415.185 131086.451 -90475.801 131848.872 -90475.801 131925.608 -90555.263 132029.138 -90627.218 132144.673 -90677.694 132267.811 -90704.768 132393.862 -90707.408 132518.026 -90685.515 132635.573 -90639.921 132742.025 -90572.365 132833.328 -90485.418 132906.004 -90382.393 132957.285 -90267.214 132985.218 -90144.268 132987.229 -90000.261 132987.229 -98933.966 132732.351 -98950.884 132727.7 -98950.722 132723.882 -98950.962 132720.075 -98950.535 132715 -98950.5 129725.321 -98950.5 129857.51 -98927.192 130072.344 -98843.863 130266.902 -98720.392 130433.773 -98561.484 130566.6 -98373.19 130660.324 -98162.682 130711.375 -97937.979 130715.05 -97674.785 130670.293 -97448.744 130582.483 -97235.702 130454.965 -97043.772 130292.597 -96880.267 130101.562 -96751.412 129889.138 -96662.117 129663.415 -96615.783 129432.991 -96614.174 129206.644 -96657.352 128992.993 -96743.673 128800.178 -96869.847 128635.543 -97031.07 128505.358 -97221.201 128414.582 -97432.996 128366.673 -97658.39 128363.456 -97888.797 128405.053 -98115.441 128489.879 -98329.689 128614.705 -98523.38 128774.775 -98689.137 128963.991 -98820.646 129175.148 -98912.898 129346.172 -98950.5 127265.507 -98950.5 126594.77 -98908.006 125968.397 -98742.218 125386.157 -98457.925 124870.227 -98065.958 124440.255 -97581.242 124112.618 -97022.24 123899.801 -96410.249 123807.515 -95751.507 123807.5 -95751.111 123807.5 -81043.776 123850.66 -80603.59 123973.337 -80197.262 124172.597 -79822.508 124440.856 -79493.591 124767.89 -79223.045 125141.246 -79021.172 125546.704 -78895.662 125985.91 -78849.5 126812.649 -78849.5 126666.644 -78877.352 126452.993 -78963.673 126260.178 -79089.847 126095.543 -79251.07 125965.358 -79441.201 125874.582 -79652.996 125826.673 -79878.39 125823.456 -80108.797 125865.053 -80335.441 125949.879 -80549.689 126074.705 -80743.38 126234.775 -80909.137 126423.991 -81040.646 126635.148 -81132.898 126860.202 -81182.379 127090.581 -81187.205 127317.51 -81147.192 127532.344 -81063.863 127726.902 -80940.392 127893.773 -80781.484 128026.6 -80593.19 128120.324 -80382.682 128171.375 -80157.979 128175.05 -79894.785 128130.293 -79668.744 128042.483 -79455.702 127914.965 -79263.772 127752.597 -79100.267 127561.562 -78971.412 127349.138 -78882.117 127190.239 -78849.5 131892.649 -78849.5 131746.644 -78877.352 131532.993 -78963.673 131340.178 -79089.847 131175.543 -79251.07 131045.358 -79441.201 130954.582 -79652.996 130906.673 -79878.39 130903.456 -80108.797 130945.053 -80335.441 131029.879 -80549.689 131154.705 -80743.38 131314.775 -80909.137 131503.991 -81040.646 131715.148 -81132.898 131940.202 -81182.379 132170.581 -81187.205 132397.51 -81147.192 132612.344 -81063.863 132806.902 -80940.392 132973.773 -80781.484 133106.6 -80593.19 133200.324 -80382.682 133251.375 -80157.979 133255.05 -79894.785 133210.293 -79668.744 133122.483 -79455.702 132994.965 -79263.772 132832.597 -79100.267 132641.562 -78971.412 132429.138 -78882.117 132270.239 -78849.5 134602.224 -78849.5 134845.07 -78873.311 135061.568 -78938.676 135261.248 -79044.848 135436.5 -79187.78 135580.653 -79362.032 135688.215 -79560.963 135755.089 -79776.996 135780.5 -80018.764 135780.5 -96114.207" fill="none" stroke-width="200"/></g><g id="pcb-stackup_bottom_sm"><use xlink:href="#j16CwAU628AS_pad-11" x="129540" y="-97790"/><use xlink:href="#j16CwAU628AS_pad-11" x="132080" y="-97790"/><use xlink:href="#j16CwAU628AS_pad-11" x="127000" y="-80010"/><use xlink:href="#j16CwAU628AS_pad-11" x="129540" y="-80010"/><use xlink:href="#j16CwAU628AS_pad-11" x="132080" y="-80010"/><use xlink:href="#j16CwAU628AS_pad-11" x="134620" y="-80010"/></g><g id="pcb-stackup_bottom_sp" transform="scale(25.4,25.4)"/><g id="pcb-stackup_bottom_ss"><path d="M 131419.571 -80941.857 130962.428 -80941.857 M 131190.999 -81170.429 131190.999 -80713.286 M 126339.571 -80941.857 125882.428 -80941.857 M 126110.999 -81170.429 126110.999 -80713.286 M 128879.571 -98721.857 128422.428 -98721.857 M 128650.999 -98950.429 128650.999 -98493.286 M 133706.572 -83691.929 133363.715 -83691.929 M 133535.144 -84291.929 133535.144 -83691.929 M 133163.715 -84291.929 133163.715 -83691.929 M 132220.858 -83977.643 132135.144 -84006.214 132106.572 -84034.786 132078.001 -84091.929 132078.001 -84177.643 132106.572 -84234.786 132135.144 -84263.357 132192.286 -84291.929 132420.858 -84291.929 132420.858 -83691.929 132220.858 -83691.929 132163.715 -83720.5 132135.144 -83749.071 132106.572 -83806.214 132106.572 -83863.357 132135.144 -83920.5 132163.715 -83949.071 132220.858 -83977.643 132420.858 -83977.643 M 131420.858 -84349.071 131478.001 -84320.5 131535.144 -84263.357 131620.858 -84177.643 131678.001 -84149.071 131735.144 -84149.071 M 131706.572 -84291.929 131763.715 -84263.357 131820.858 -84206.214 131849.429 -84091.929 131849.429 -83891.929 131820.858 -83777.643 131763.715 -83720.5 131706.572 -83691.929 131592.286 -83691.929 131535.144 -83720.5 131478.001 -83777.643 131449.429 -83891.929 131449.429 -84091.929 131478.001 -84206.214 131535.144 -84263.357 131592.286 -84291.929 131706.572 -84291.929 M 131220.858 -83749.071 131192.287 -83720.5 131135.144 -83691.929 130992.287 -83691.929 130935.144 -83720.5 130906.573 -83749.071 130878.001 -83806.214 130878.001 -83863.357 130906.573 -83949.071 131249.43 -84291.929 130878.001 -84291.929 M 130335.144 -83691.929 130620.858 -83691.929 130649.429 -83977.643 130620.858 -83949.071 130563.715 -83920.5 130420.858 -83920.5 130363.715 -83949.071 130335.144 -83977.643 130306.572 -84034.786 130306.572 -84177.643 130335.144 -84234.786 130363.715 -84263.357 130420.858 -84291.929 130563.715 -84291.929 130620.858 -84263.357 130649.429 -84234.786 M 129763.715 -83691.929 130049.429 -83691.929 130078 -83977.643 130049.429 -83949.071 129992.286 -83920.5 129849.429 -83920.5 129792.286 -83949.071 129763.715 -83977.643 129735.143 -84034.786 129735.143 -84177.643 129763.715 -84234.786 129792.286 -84263.357 129849.429 -84291.929 129992.286 -84291.929 130049.429 -84263.357 130078 -84234.786 M 129535.143 -83691.929 129135.143 -83691.929 129392.286 -84291.929 M 128792.285 -83691.929 128735.142 -83691.929 128677.999 -83720.5 128649.428 -83749.071 128620.857 -83806.214 128592.285 -83920.5 128592.285 -84063.357 128620.857 -84177.643 128649.428 -84234.786 128677.999 -84263.357 128735.142 -84291.929 128792.285 -84291.929 128849.428 -84263.357 128877.999 -84234.786 128906.571 -84177.643 128935.142 -84063.357 128935.142 -83920.5 128906.571 -83806.214 128877.999 -83749.071 128849.428 -83720.5 128792.285 -83691.929 M 127877.999 -84291.929 127877.999 -83691.929 M 127877.999 -83977.643 127535.142 -83977.643 M 127535.142 -84291.929 127535.142 -83691.929 M 126992.285 -84291.929 126992.285 -83977.643 127020.856 -83920.5 127077.999 -83891.929 127192.285 -83891.929 127249.428 -83920.5 M 126992.285 -84263.357 127049.428 -84291.929 127192.285 -84291.929 127249.428 -84263.357 127277.999 -84206.214 127277.999 -84149.071 127249.428 -84091.929 127192.285 -84063.357 127049.428 -84063.357 126992.285 -84034.786 M 126706.571 -84291.929 126706.571 -83891.929 M 126706.571 -84006.214 126677.999 -83949.071 126649.428 -83920.5 126592.285 -83891.929 126535.142 -83891.929 M 126392.285 -83891.929 126249.428 -84291.929 126106.57 -83891.929 M 125649.427 -84263.357 125706.57 -84291.929 125820.856 -84291.929 125877.999 -84263.357 125906.57 -84206.214 125906.57 -83977.643 125877.999 -83920.5 125820.856 -83891.929 125706.57 -83891.929 125649.427 -83920.5 125620.856 -83977.643 125620.856 -84034.786 125906.57 -84091.929 M 125392.284 -84263.357 125335.141 -84291.929 125220.856 -84291.929 125163.713 -84263.357 125135.141 -84206.214 125135.141 -84177.643 125163.713 -84120.5 125220.856 -84091.929 125306.57 -84091.929 125363.713 -84063.357 125392.284 -84006.214 125392.284 -83977.643 125363.713 -83920.5 125306.57 -83891.929 125220.856 -83891.929 125163.713 -83920.5 M 124963.713 -83891.929 124735.142 -83891.929 M 124877.999 -83691.929 124877.999 -84206.214 124849.427 -84263.357 124792.285 -84291.929 124735.142 -84291.929 M 124306.57 -84263.357 124363.713 -84291.929 124477.999 -84291.929 124535.142 -84263.357 124563.713 -84206.214 124563.713 -83977.643 124535.142 -83920.5 124477.999 -83891.929 124363.713 -83891.929 124306.57 -83920.5 124277.999 -83977.643 124277.999 -84034.786 124563.713 -84091.929 M 124020.856 -84291.929 124020.856 -83891.929 M 124020.856 -84006.214 123992.284 -83949.071 123963.713 -83920.5 123906.57 -83891.929 123849.427 -83891.929 M 132192.286 -85258.929 132392.286 -84973.214 M 132535.143 -85258.929 132535.143 -84658.929 132306.571 -84658.929 132249.429 -84687.5 132220.857 -84716.071 132192.286 -84773.214 132192.286 -84858.929 132220.857 -84916.071 132249.429 -84944.643 132306.571 -84973.214 132535.143 -84973.214 M 131706.571 -85230.357 131763.714 -85258.929 131878 -85258.929 131935.143 -85230.357 131963.714 -85173.214 131963.714 -84944.643 131935.143 -84887.5 131878 -84858.929 131763.714 -84858.929 131706.571 -84887.5 131678 -84944.643 131678 -85001.786 131963.714 -85058.929 M 131506.571 -84858.929 131278 -84858.929 M 131420.857 -85258.929 131420.857 -84744.643 131392.285 -84687.5 131335.143 -84658.929 131278 -84658.929 M 130849.428 -85230.357 130906.571 -85258.929 131020.857 -85258.929 131078 -85230.357 131106.571 -85173.214 131106.571 -84944.643 131078 -84887.5 131020.857 -84858.929 130906.571 -84858.929 130849.428 -84887.5 130820.857 -84944.643 130820.857 -85001.786 131106.571 -85058.929 M 130563.714 -85258.929 130563.714 -84858.929 M 130563.714 -84973.214 130535.142 -84916.071 130506.571 -84887.5 130449.428 -84858.929 130392.285 -84858.929 M 129963.713 -85230.357 130020.856 -85258.929 130135.142 -85258.929 130192.285 -85230.357 130220.856 -85173.214 130220.856 -84944.643 130192.285 -84887.5 130135.142 -84858.929 130020.856 -84858.929 129963.713 -84887.5 129935.142 -84944.643 129935.142 -85001.786 130220.856 -85058.929 M 129677.999 -84858.929 129677.999 -85258.929 M 129677.999 -84916.071 129649.427 -84887.5 129592.285 -84858.929 129506.57 -84858.929 129449.427 -84887.5 129420.856 -84944.643 129420.856 -85258.929 M 128877.999 -85230.357 128935.142 -85258.929 129049.428 -85258.929 129106.57 -85230.357 129135.142 -85201.786 129163.713 -85144.643 129163.713 -84973.214 129135.142 -84916.071 129106.57 -84887.5 129049.428 -84858.929 128935.142 -84858.929 128877.999 -84887.5 M 128392.284 -85230.357 128449.427 -85258.929 128563.713 -85258.929 128620.856 -85230.357 128649.427 -85173.214 128649.427 -84944.643 128620.856 -84887.5 128563.713 -84858.929 128449.427 -84858.929 128392.284 -84887.5 128363.713 -84944.643 128363.713 -85001.786 128649.427 -85058.929 M 127392.284 -85258.929 127392.284 -84658.929 M 127392.284 -85230.357 127449.427 -85258.929 127563.713 -85258.929 127620.855 -85230.357 127649.427 -85201.786 127677.998 -85144.643 127677.998 -84973.214 127649.427 -84916.071 127620.855 -84887.5 127563.713 -84858.929 127449.427 -84858.929 127392.284 -84887.5 M 126877.998 -85230.357 126935.141 -85258.929 127049.427 -85258.929 127106.57 -85230.357 127135.141 -85173.214 127135.141 -84944.643 127106.57 -84887.5 127049.427 -84858.929 126935.141 -84858.929 126877.998 -84887.5 126849.427 -84944.643 126849.427 -85001.786 127135.141 -85058.929 M 126620.855 -85230.357 126563.712 -85258.929 126449.427 -85258.929 126392.284 -85230.357 126363.712 -85173.214 126363.712 -85144.643 126392.284 -85087.5 126449.427 -85058.929 126535.141 -85058.929 126592.284 -85030.357 126620.855 -84973.214 126620.855 -84944.643 126592.284 -84887.5 126535.141 -84858.929 126449.427 -84858.929 126392.284 -84887.5 M 126106.57 -85258.929 126106.57 -84858.929 M 126106.57 -84658.929 126135.141 -84687.5 126106.57 -84716.071 126077.998 -84687.5 126106.57 -84658.929 126106.57 -84716.071 M 125563.713 -84858.929 125563.713 -85344.643 125592.284 -85401.786 125620.856 -85430.357 125677.999 -85458.929 125763.713 -85458.929 125820.856 -85430.357 M 125563.713 -85230.357 125620.856 -85258.929 125735.142 -85258.929 125792.284 -85230.357 125820.856 -85201.786 125849.427 -85144.643 125849.427 -84973.214 125820.856 -84916.071 125792.284 -84887.5 125735.142 -84858.929 125620.856 -84858.929 125563.713 -84887.5 M 125277.999 -84858.929 125277.999 -85258.929 M 125277.999 -84916.071 125249.427 -84887.5 125192.285 -84858.929 125106.57 -84858.929 125049.427 -84887.5 125020.856 -84944.643 125020.856 -85258.929 M 132663.713 -86197.357 132577.999 -86225.929 132435.142 -86225.929 132377.999 -86197.357 132349.428 -86168.786 132320.856 -86111.643 132320.856 -86054.5 132349.428 -85997.357 132377.999 -85968.786 132435.142 -85940.214 132549.428 -85911.643 132606.57 -85883.071 132635.142 -85854.5 132663.713 -85797.357 132663.713 -85740.214 132635.142 -85683.071 132606.57 -85654.5 132549.428 -85625.929 132406.57 -85625.929 132320.856 -85654.5 M 132149.427 -85825.929 131920.856 -85825.929 M 132063.713 -85625.929 132063.713 -86140.214 132035.141 -86197.357 131977.999 -86225.929 131920.856 -86225.929 M 131492.284 -86197.357 131549.427 -86225.929 131663.713 -86225.929 131720.856 -86197.357 131749.427 -86140.214 131749.427 -85911.643 131720.856 -85854.5 131663.713 -85825.929 131549.427 -85825.929 131492.284 -85854.5 131463.713 -85911.643 131463.713 -85968.786 131749.427 -86025.929 M 131292.284 -85825.929 131063.713 -85825.929 M 131206.57 -86225.929 131206.57 -85711.643 131177.998 -85654.5 131120.856 -85625.929 131063.713 -85625.929 M 130606.57 -86225.929 130606.57 -85911.643 130635.141 -85854.5 130692.284 -85825.929 130806.57 -85825.929 130863.713 -85854.5 M 130606.57 -86197.357 130663.713 -86225.929 130806.57 -86225.929 130863.713 -86197.357 130892.284 -86140.214 130892.284 -86083.071 130863.713 -86025.929 130806.57 -85997.357 130663.713 -85997.357 130606.57 -85968.786 M 130320.856 -85825.929 130320.856 -86225.929 M 130320.856 -85883.071 130292.284 -85854.5 130235.142 -85825.929 130149.427 -85825.929 130092.284 -85854.5 130063.713 -85911.643 130063.713 -86225.929 M 129320.856 -86225.929 129320.856 -85625.929 M 129320.856 -85911.643 128977.999 -85911.643 M 128977.999 -86225.929 128977.999 -85625.929 M 128435.142 -86225.929 128435.142 -85911.643 128463.713 -85854.5 128520.856 -85825.929 128635.142 -85825.929 128692.285 -85854.5 M 128435.142 -86197.357 128492.285 -86225.929 128635.142 -86225.929 128692.285 -86197.357 128720.856 -86140.214 128720.856 -86083.071 128692.285 -86025.929 128635.142 -85997.357 128492.285 -85997.357 128435.142 -85968.786 M 128149.428 -86225.929 128149.428 -85825.929 M 128149.428 -85883.071 128120.856 -85854.5 128063.714 -85825.929 127977.999 -85825.929 127920.856 -85854.5 127892.285 -85911.643 127892.285 -86225.929 M 127892.285 -85911.643 127863.714 -85854.5 127806.571 -85825.929 127720.856 -85825.929 127663.714 -85854.5 127635.142 -85911.643 127635.142 -86225.929 M 127349.428 -86225.929 127349.428 -85825.929 M 127349.428 -85883.071 127320.856 -85854.5 127263.714 -85825.929 127177.999 -85825.929 127120.856 -85854.5 127092.285 -85911.643 127092.285 -86225.929 M 127092.285 -85911.643 127063.714 -85854.5 127006.571 -85825.929 126920.856 -85825.929 126863.714 -85854.5 126835.142 -85911.643 126835.142 -86225.929 M 126549.428 -86225.929 126549.428 -85825.929 M 126549.428 -85625.929 126577.999 -85654.5 126549.428 -85683.071 126520.856 -85654.5 126549.428 -85625.929 126549.428 -85683.071 M 126263.714 -85825.929 126263.714 -86225.929 M 126263.714 -85883.071 126235.142 -85854.5 126178 -85825.929 126092.285 -85825.929 126035.142 -85854.5 126006.571 -85911.643 126006.571 -86225.929 M 125463.714 -85825.929 125463.714 -86311.643 125492.285 -86368.786 125520.857 -86397.357 125578 -86425.929 125663.714 -86425.929 125720.857 -86397.357 M 125463.714 -86197.357 125520.857 -86225.929 125635.143 -86225.929 125692.285 -86197.357 125720.857 -86168.786 125749.428 -86111.643 125749.428 -85940.214 125720.857 -85883.071 125692.285 -85854.5 125635.143 -85825.929 125520.857 -85825.929 125463.714 -85854.5 M 124920.857 -86225.929 124920.857 -85911.643 124949.428 -85854.5 125006.571 -85825.929 125120.857 -85825.929 125178 -85854.5 M 124920.857 -86197.357 124978 -86225.929 125120.857 -86225.929 125178 -86197.357 125206.571 -86140.214 125206.571 -86083.071 125178 -86025.929 125120.857 -85997.357 124978 -85997.357 124920.857 -85968.786 M 132178 -86792.929 132178 -87392.929 M 132178 -86821.5 132120.857 -86792.929 132006.571 -86792.929 131949.428 -86821.5 131920.857 -86850.071 131892.286 -86907.214 131892.286 -87078.643 131920.857 -87135.786 131949.428 -87164.357 132006.571 -87192.929 132120.857 -87192.929 132178 -87164.357 M 131635.143 -87192.929 131635.143 -86792.929 M 131635.143 -86907.214 131606.571 -86850.071 131578 -86821.5 131520.857 -86792.929 131463.714 -86792.929 M 131263.714 -86792.929 131263.714 -87307.214 131292.285 -87364.357 131349.428 -87392.929 131378 -87392.929 M 131263.714 -86592.929 131292.285 -86621.5 131263.714 -86650.071 131235.142 -86621.5 131263.714 -86592.929 131263.714 -86650.071 M 130720.857 -87164.357 130778 -87192.929 130892.286 -87192.929 130949.428 -87164.357 130978 -87135.786 131006.571 -87078.643 131006.571 -86907.214 130978 -86850.071 130949.428 -86821.5 130892.286 -86792.929 130778 -86792.929 130720.857 -86821.5 M 130549.428 -86792.929 130320.857 -86792.929 M 130463.714 -86592.929 130463.714 -87107.214 130435.142 -87164.357 130378 -87192.929 130320.857 -87192.929 M 130120.857 -87135.786 130092.285 -87164.357 130120.857 -87192.929 130149.428 -87164.357 130120.857 -87135.786 130120.857 -87192.929 M 129835.143 -86792.929 129835.143 -87192.929 M 129835.143 -86850.071 129806.571 -86821.5 129749.429 -86792.929 129663.714 -86792.929 129606.571 -86821.5 129578 -86878.643 129578 -87192.929 M 129063.714 -87164.357 129120.857 -87192.929 129235.143 -87192.929 129292.286 -87164.357 129320.857 -87107.214 129320.857 -86878.643 129292.286 -86821.5 129235.143 -86792.929 129120.857 -86792.929 129063.714 -86821.5 129035.143 -86878.643 129035.143 -86935.786 129320.857 -86992.929 M 128863.714 -86792.929 128635.143 -86792.929 M 128778 -86592.929 128778 -87107.214 128749.428 -87164.357 128692.286 -87192.929 128635.143 -87192.929 M 127635.143 -87192.929 127835.143 -86907.214 M 127978 -87192.929 127978 -86592.929 127749.428 -86592.929 127692.286 -86621.5 127663.714 -86650.071 127635.143 -86707.214 127635.143 -86792.929 127663.714 -86850.071 127692.286 -86878.643 127749.428 -86907.214 127978 -86907.214 M 127263.714 -86592.929 127206.571 -86592.929 127149.428 -86621.5 127120.857 -86650.071 127092.286 -86707.214 127063.714 -86821.5 127063.714 -86964.357 127092.286 -87078.643 127120.857 -87135.786 127149.428 -87164.357 127206.571 -87192.929 127263.714 -87192.929 127320.857 -87164.357 127349.428 -87135.786 127378 -87078.643 127406.571 -86964.357 127406.571 -86821.5 127378 -86707.214 127349.428 -86650.071 127320.857 -86621.5 127263.714 -86592.929 M 126806.571 -87135.786 126777.999 -87164.357 126806.571 -87192.929 126835.142 -87164.357 126806.571 -87135.786 126806.571 -87192.929 M 126406.571 -86592.929 126349.428 -86592.929 126292.285 -86621.5 126263.714 -86650.071 126235.143 -86707.214 126206.571 -86821.5 126206.571 -86964.357 126235.143 -87078.643 126263.714 -87135.786 126292.285 -87164.357 126349.428 -87192.929 126406.571 -87192.929 126463.714 -87164.357 126492.285 -87135.786 126520.857 -87078.643 126549.428 -86964.357 126549.428 -86821.5 126520.857 -86707.214 126492.285 -86650.071 126463.714 -86621.5 126406.571 -86592.929 M 125949.428 -87135.786 125920.856 -87164.357 125949.428 -87192.929 125977.999 -87164.357 125949.428 -87135.786 125949.428 -87192.929 M 125549.428 -86592.929 125492.285 -86592.929 125435.142 -86621.5 125406.571 -86650.071 125378 -86707.214 125349.428 -86821.5 125349.428 -86964.357 125378 -87078.643 125406.571 -87135.786 125435.142 -87164.357 125492.285 -87192.929 125549.428 -87192.929 125606.571 -87164.357 125635.142 -87135.786 125663.714 -87078.643 125692.285 -86964.357 125692.285 -86821.5 125663.714 -86707.214 125635.142 -86650.071 125606.571 -86621.5 125549.428 -86592.929 M 131967.142 -96156.429 131967.142 -95556.429 M 131681.428 -96156.429 131681.428 -95556.429 131338.571 -96156.429 131338.571 -95556.429 M 131052.857 -96156.429 131052.857 -95556.429 130824.285 -95556.429 130767.143 -95585 130738.571 -95613.571 130710 -95670.714 130710 -95756.429 130738.571 -95813.571 130767.143 -95842.143 130824.285 -95870.714 131052.857 -95870.714 M 130452.857 -95556.429 130452.857 -96042.143 130424.285 -96099.286 130395.714 -96127.857 130338.571 -96156.429 130224.285 -96156.429 130167.143 -96127.857 130138.571 -96099.286 130110 -96042.143 130110 -95556.429 M 129910 -95556.429 129567.143 -95556.429 M 129738.572 -96156.429 129738.572 -95556.429 M 128841.428 -82186.429 129127.142 -82186.429 129127.142 -81586.429 M 128641.428 -82186.429 128641.428 -81586.429 M 128355.714 -82186.429 128355.714 -81586.429 128127.142 -81586.429 128070 -81615 128041.428 -81643.571 128012.857 -81700.714 128012.857 -81786.429 128041.428 -81843.571 128070 -81872.143 128127.142 -81900.714 128355.714 -81900.714 M 127641.428 -81586.429 127527.142 -81586.429 127470 -81615 127412.857 -81672.143 127384.285 -81786.429 127384.285 -81986.429 127412.857 -82100.714 127470 -82157.857 127527.142 -82186.429 127641.428 -82186.429 127698.571 -82157.857 127755.714 -82100.714 127784.285 -81986.429 127784.285 -81786.429 127755.714 -81672.143 127698.571 -81615 127641.428 -81586.429 M 134035.714 -82186.429 134321.428 -82186.429 134321.428 -81586.429 M 133721.428 -81586.429 133607.142 -81586.429 133550 -81615 133492.857 -81672.143 133464.285 -81786.429 133464.285 -81986.429 133492.857 -82100.714 133550 -82157.857 133607.142 -82186.429 133721.428 -82186.429 133778.571 -82157.857 133835.714 -82100.714 133864.285 -81986.429 133864.285 -81786.429 133835.714 -81672.143 133778.571 -81615 133721.428 -81586.429 M 133235.714 -82015 132950 -82015 M 133292.857 -82186.429 133092.857 -81586.429 132892.857 -82186.429 M 132692.857 -82186.429 132692.857 -81586.429 132550 -81586.429 132464.285 -81615 132407.143 -81672.143 132378.571 -81729.286 132350 -81843.571 132350 -81929.286 132378.571 -82043.571 132407.143 -82100.714 132464.285 -82157.857 132550 -82186.429 132692.857 -82186.429" fill="none" stroke-width="127"/></g><g id="pcb-stackup_bottom_drl1" transform="scale(25.4,25.4)"/><g id="pcb-stackup_bottom_drl2"><use xlink:href="#zzaWghOmj6R0_pad-1" x="124750" y="-90500"/><use xlink:href="#zzaWghOmj6R0_pad-1" x="125100" y="-79700"/><use xlink:href="#zzaWghOmj6R0_pad-1" x="125900" y="-97600"/><use xlink:href="#zzaWghOmj6R0_pad-1" x="126617" y="-90516"/><use xlink:href="#zzaWghOmj6R0_pad-1" x="128940" y="-88900"/><use xlink:href="#zzaWghOmj6R0_pad-1" x="129036" y="-82626"/><use xlink:href="#zzaWghOmj6R0_pad-1" x="129504" y="-91475"/><use xlink:href="#zzaWghOmj6R0_pad-1" x="129540" y="-88300"/><use xlink:href="#zzaWghOmj6R0_pad-1" x="129540" y="-88900"/><use xlink:href="#zzaWghOmj6R0_pad-1" x="129540" y="-89500"/><use xlink:href="#zzaWghOmj6R0_pad-1" x="130140" y="-88900"/><use xlink:href="#zzaWghOmj6R0_pad-1" x="131300" y="-82700"/><use xlink:href="#zzaWghOmj6R0_pad-1" x="132344" y="-90063"/><use xlink:href="#zzaWghOmj6R0_pad-1" x="132699" y="-87092"/><use xlink:href="#zzaWghOmj6R0_pad-1" x="134393" y="-86393"/><use xlink:href="#zzaWghOmj6R0_pad-2" x="127000" y="-80010"/><use xlink:href="#zzaWghOmj6R0_pad-2" x="129540" y="-80010"/><use xlink:href="#zzaWghOmj6R0_pad-2" x="129540" y="-97790"/><use xlink:href="#zzaWghOmj6R0_pad-2" x="132080" y="-80010"/><use xlink:href="#zzaWghOmj6R0_pad-2" x="132080" y="-97790"/><use xlink:href="#zzaWghOmj6R0_pad-2" x="134620" y="-80010"/></g><clipPath id="pcb-stackup_bottom_out"><path d="M 123444 -95758 123444 -81026 A 2540 2540 0 0 0 125984 -78486 L 134620 -78486 A 1524 1524 0 0 0 136144 -80010 L 136144 -96139 A 3304.4414051 3304.4414051 0 0 0 132715 -99314 L 127254 -99314 A 3685.1890047 3685.1890047 0 0 0 123444 -95758" fill="none" stroke-width="127"/></clipPath><mask id="pcb-stackup_bottom_mech-mask"><g fill="#000" stroke="#000"><rect x="123444" y="-99316.4414051" width="12700" height="20830.4414051" fill="#fff"/><use xlink:href="#pcb-stackup_bottom_drl1"/><use xlink:href="#pcb-stackup_bottom_drl2"/></g></mask><mask id="pcb-stackup_bottom_cf-mask"><g fill="#fff" stroke="#fff"><use xlink:href="#pcb-stackup_bottom_sm"/></g></mask><mask id="pcb-stackup_bottom_sm-mask"><g fill="#000" stroke="#000"><rect x="123444" y="-99316.4414051" width="12700" height="20830.4414051" fill="#fff"/><use xlink:href="#pcb-stackup_bottom_sm"/></g></mask></defs><g transform="translate(0,-177802.44140510002) scale(1,-1)"><g mask="url(#pcb-stackup_bottom_mech-mask)" clip-path="url(#pcb-stackup_bottom_out)" transform="translate(259588,0) scale(-1,1)"><rect x="123444" y="-99316.4414051" width="12700" height="20830.4414051" fill="currentColor" class="pcb-stackup_fr4"/><use xlink:href="#pcb-stackup_bottom_cu" fill="currentColor" stroke="currentColor" class="pcb-stackup_cu"/><use xlink:href="#pcb-stackup_bottom_cu" fill="currentColor" stroke="currentColor" class="pcb-stackup_cf" mask="url(#pcb-stackup_bottom_cf-mask)"/><g mask="url(#pcb-stackup_bottom_sm-mask)"><rect x="123444" y="-99316.4414051" width="12700" height="20830.4414051" fill="currentColor" class="pcb-stackup_sm"/><use xlink:href="#pcb-stackup_bottom_ss" fill="currentColor" stroke="currentColor" class="pcb-stackup_ss"/></g><use xlink:href="#pcb-stackup_bottom_sp" fill="currentColor" stroke="currentColor" class="pcb-stackup_sp"/></g></g></svg>