<svg id="pcb-stackup_bottom" version="1.1" xmlns:xlink="http://www.w3.org/1999/xlink" stroke-linecap="round" stroke-linejoin="round" stroke-width="0" fill-rule="evenodd" clip-rule="evenodd" viewBox="5486 4996 26035 15875" width="26.035mm" height="15.875mm" xmlns="http://www.w3.org/2000/svg"><defs><style>.pcb-stackup_fr4 {color: #4D542C;}
.pcb-stackup_cu {color: lightgrey;}
.pcb-stackup_cf {color: goldenrod;}
.pcb-stackup_sm {color: #2E0051; opacity: 0.9;}
.pcb-stackup_ss {color: white;}
.pcb-stackup_sp {color: #000000; opacity: 0;}
.pcb-stackup_out {color: black;}</style><circle cx="0" cy="0" r="940" id="z2MDAzEUMDcu_pad-10"/><circle cx="0" cy="0" r="508" id="z2MDAzEUMDcu_pad-12"/><circle cx="0" cy="0" r="940" id="z2MDAzEUMDcu_pad-10"/><circle cx="0" cy="0" r="508" id="z2MDAzEUMDcu_pad-12"/><circle cx="0" cy="0" r="940" id="z2MDAzEUMDcu_pad-10"/><circle cx="0" cy="0" r="508" id="z2MDAzEUMDcu_pad-12"/><circle cx="0" cy="0" r="940" id="z2MDAzEUMDcu_pad-10"/><circle cx="0" cy="0" r="508" id="z2MDAzEUMDcu_pad-12"/><circle cx="0" cy="0" r="1101.5" id="m3tt4Hcxf27k_pad-10"/><circle cx="0" cy="0" r="1041.5" id="m3tt4Hcxf27k_pad-11"/><circle cx="0" cy="0" r="609.5" id="m3tt4Hcxf27k_pad-12"/><circle cx="0" cy="0" r="940" id="z2MDAzEUMDcu_pad-10"/><circle cx="0" cy="0" r="508" id="z2MDAzEUMDcu_pad-12"/><circle cx="0" cy="0" r="940" id="z2MDAzEUMDcu_pad-10"/><circle cx="0" cy="0" r="508" id="z2MDAzEUMDcu_pad-12"/><circle cx="0" cy="0" r="940" id="z2MDAzEUMDcu_pad-10"/><circle cx="0" cy="0" r="508" id="z2MDAzEUMDcu_pad-12"/><circle cx="0" cy="0" r="940" id="z2MDAzEUMDcu_pad-10"/><circle cx="0" cy="0" r="508" id="z2MDAzEUMDcu_pad-12"/><circle cx="0" cy="0" r="1101.5" id="m3tt4Hcxf27k_pad-10"/><circle cx="0" cy="0" r="1041.5" id="m3tt4Hcxf27k_pad-11"/><circle cx="0" cy="0" r="609.5" id="m3tt4Hcxf27k_pad-12"/><circle cx="0" cy="0" r="304.8" id="w2m3xIYLbW5S_pad-1"/><circle cx="0" cy="0" r="508" id="w2m3xIYLbW5S_pad-2"/><circle cx="0" cy="0" r="1000" id="w2m3xIYLbW5S_pad-3"/><circle cx="0" cy="0" r="940" id="z2MDAzEUMDcu_pad-10"/><circle cx="0" cy="0" r="508" id="z2MDAzEUMDcu_pad-12"/><circle cx="0" cy="0" r="940" id="z2MDAzEUMDcu_pad-10"/><circle cx="0" cy="0" r="508" id="z2MDAzEUMDcu_pad-12"/><circle cx="0" cy="0" r="940" id="z2MDAzEUMDcu_pad-10"/><circle cx="0" cy="0" r="508" id="z2MDAzEUMDcu_pad-12"/><circle cx="0" cy="0" r="940" id="z2MDAzEUMDcu_pad-10"/><circle cx="0" cy="0" r="508" id="z2MDAzEUMDcu_pad-12"/><circle cx="0" cy="0" r="1101.5" id="m3tt4Hcxf27k_pad-10"/><circle cx="0" cy="0" r="1041.5" id="m3tt4Hcxf27k_pad-11"/><circle cx="0" cy="0" r="609.5" id="m3tt4Hcxf27k_pad-12"/><circle cx="0" cy="0" r="940" id="z2MDAzEUMDcu_pad-10"/><circle cx="0" cy="0" r="508" id="z2MDAzEUMDcu_pad-12"/><circle cx="0" cy="0" r="940" id="z2MDAzEUMDcu_pad-10"/><circle cx="0" cy="0" r="508" id="z2MDAzEUMDcu_pad-12"/><circle cx="0" cy="0" r="940" id="z2MDAzEUMDcu_pad-10"/><circle cx="0" cy="0" r="508" id="z2MDAzEUMDcu_pad-12"/><circle cx="0" cy="0" r="940" id="z2MDAzEUMDcu_pad-10"/><circle cx="0" cy="0" r="508" id="z2MDAzEUMDcu_pad-12"/><circle cx="0" cy="0" r="1101.5" id="m3tt4Hcxf27k_pad-10"/><circle cx="0" cy="0" r="1041.5" id="m3tt4Hcxf27k_pad-11"/><circle cx="0" cy="0" r="609.5" id="m3tt4Hcxf27k_pad-12"/><circle cx="0" cy="0" r="304.8" id="w2m3xIYLbW5S_pad-1"/><circle cx="0" cy="0" r="508" id="w2m3xIYLbW5S_pad-2"/><circle cx="0" cy="0" r="1000" id="w2m3xIYLbW5S_pad-3"/><circle cx="0" cy="0" r="940" id="z2MDAzEUMDcu_pad-10"/><circle cx="0" cy="0" r="508" id="z2MDAzEUMDcu_pad-12"/><circle cx="0" cy="0" r="940" id="z2MDAzEUMDcu_pad-10"/><circle cx="0" cy="0" r="508" id="z2MDAzEUMDcu_pad-12"/><circle cx="0" cy="0" r="940" id="z2MDAzEUMDcu_pad-10"/><circle cx="0" cy="0" r="508" id="z2MDAzEUMDcu_pad-12"/><circle cx="0" cy="0" r="940" id="z2MDAzEUMDcu_pad-10"/><circle cx="0" cy="0" r="508" id="z2MDAzEUMDcu_pad-12"/><circle cx="0" cy="0" r="1101.5" id="m3tt4Hcxf27k_pad-10"/><circle cx="0" cy="0" r="1041.5" id="m3tt4Hcxf27k_pad-11"/><circle cx="0" cy="0" r="609.5" id="m3tt4Hcxf27k_pad-12"/><circle cx="0" cy="0" r="940" id="z2MDAzEUMDcu_pad-10"/><circle cx="0" cy="0" r="508" id="z2MDAzEUMDcu_pad-12"/><circle cx="0" cy="0" r="940" id="z2MDAzEUMDcu_pad-10"/><circle cx="0" cy="0" r="508" id="z2MDAzEUMDcu_pad-12"/><circle cx="0" cy="0" r="940" id="z2MDAzEUMDcu_pad-10"/><circle cx="0" cy="0" r="508" id="z2MDAzEUMDcu_pad-12"/><circle cx="0" cy="0" r="940" id="z2MDAzEUMDcu_pad-10"/><circle cx="0" cy="0" r="508" id="z2MDAzEUMDcu_pad-12"/><circle cx="0" cy="0" r="1101.5" id="m3tt4Hcxf27k_pad-10"/><circle cx="0" cy="0" r="1041.5" id="m3tt4Hcxf27k_pad-11"/><circle cx="0" cy="0" r="609.5" id="m3tt4Hcxf27k_pad-12"/><circle cx="0" cy="0" r="304.8" id="w2m3xIYLbW5S_pad-1"/><circle cx="0" cy="0" r="508" id="w2m3xIYLbW5S_pad-2"/><circle cx="0" cy="0" r="1000" id="w2m3xIYLbW5S_pad-3"/><circle cx="0" cy="0" r="940" id="z2MDAzEUMDcu_pad-10"/><circle cx="0" cy="0" r="508" id="z2MDAzEUMDcu_pad-12"/><circle cx="0" cy="0" r="940" id="z2MDAzEUMDcu_pad-10"/><circle cx="0" cy="0" r="508" id="z2MDAzEUMDcu_pad-12"/><circle cx="0" cy="0" r="940" id="z2MDAzEUMDcu_pad-10"/><circle cx="0" cy="0" r="508" id="z2MDAzEUMDcu_pad-12"/><circle cx="0" cy="0" r="940" id="z2MDAzEUMDcu_pad-10"/><circle cx="0" cy="0" r="508" id="z2MDAzEUMDcu_pad-12"/><circle cx="0" cy="0" r="1101.5" id="m3tt4Hcxf27k_pad-10"/><circle cx="0" cy="0" r="1041.5" id="m3tt4Hcxf27k_pad-11"/><circle cx="0" cy="0" r="609.5" id="m3tt4Hcxf27k_pad-12"/><circle cx="0" cy="0" r="940" id="z2MDAzEUMDcu_pad-10"/><circle cx="0" cy="0" r="508" id="z2MDAzEUMDcu_pad-12"/><circle cx="0" cy="0" r="940" id="z2MDAzEUMDcu_pad-10"/><circle cx="0" cy="0" r="508" id="z2MDAzEUMDcu_pad-12"/><circle cx="0" cy="0" r="940" id="z2MDAzEUMDcu_pad-10"/><circle cx="0" cy="0" r="508" id="z2MDAzEUMDcu_pad-12"/><circle cx="0" cy="0" r="940" id="z2MDAzEUMDcu_pad-10"/><circle cx="0" cy="0" r="508" id="z2MDAzEUMDcu_pad-12"/><circle cx="0" cy="0" r="1101.5" id="m3tt4Hcxf27k_pad-10"/><circle cx="0" cy="0" r="1041.5" id="m3tt4Hcxf27k_pad-11"/><circle cx="0" cy="0" r="609.5" id="m3tt4Hcxf27k_pad-12"/><circle cx="0" cy="0" r="304.8" id="w2m3xIYLbW5S_pad-1"/><circle cx="0" cy="0" r="508" id="w2m3xIYLbW5S_pad-2"/><circle cx="0" cy="0" r="1000" id="w2m3xIYLbW5S_pad-3"/><g id="pcb-stackup_bottom_cu"><use xlink:href="#z2MDAzEUMDcu_pad-10" x="28981" y="10711"/><use xlink:href="#z2MDAzEUMDcu_pad-10" x="26441" y="10711"/><use xlink:href="#z2MDAzEUMDcu_pad-10" x="28981" y="13251"/><use xlink:href="#z2MDAzEUMDcu_pad-10" x="26441" y="13251"/><use xlink:href="#z2MDAzEUMDcu_pad-10" x="28981" y="15791"/><use xlink:href="#z2MDAzEUMDcu_pad-10" x="26441" y="15791"/><use xlink:href="#z2MDAzEUMDcu_pad-10" x="9296" y="6901"/><use xlink:href="#z2MDAzEUMDcu_pad-10" x="11836" y="6901"/><use xlink:href="#z2MDAzEUMDcu_pad-10" x="14376" y="6901"/><use xlink:href="#z2MDAzEUMDcu_pad-10" x="16916" y="6901"/><use xlink:href="#z2MDAzEUMDcu_pad-10" x="9931" y="18966"/><use xlink:href="#z2MDAzEUMDcu_pad-10" x="12471" y="18966"/><use xlink:href="#z2MDAzEUMDcu_pad-10" x="15011" y="18966"/><use xlink:href="#z2MDAzEUMDcu_pad-10" x="17551" y="18966"/><path d="M 15494 17239 22352 17239 26238 13353 26441 13251 M 22123 15410 25552 11981 27838 11981 28981 10838 28981 10711 M 12522 18839 15951 15410 22123 15410 M 12522 18839 12471 18966 M 15037 18839 15723 18839 16866 17696 19380 17696 20066 18382 M 15037 18839 15011 18966 M 10693 11067 12751 11067 16916 6901 M 17551 11067 26010 11067 26238 10838 26441 10711 M 9322 6952 9322 11067 10236 11981 16637 11981 17551 11067 M 9322 6952 9296 6901" fill="none" stroke-width="254"/><use xlink:href="#z2MDAzEUMDcu_pad-12" x="15494" y="17239"/><use xlink:href="#z2MDAzEUMDcu_pad-12" x="22123" y="15410"/><use xlink:href="#z2MDAzEUMDcu_pad-12" x="20066" y="18382"/><use xlink:href="#z2MDAzEUMDcu_pad-12" x="10693" y="11067"/><use xlink:href="#z2MDAzEUMDcu_pad-12" x="17551" y="11067"/><path d="M 12551 10584 15725 7410 15646 7220 15475 7635 15110 8000 14634 8197 14119 8197 13643 8000 13278 7635 13130 7277 13084 7418 12988 7607 12863 7778 12713 7928 12542 8053 12353 8149 12152 8214 11942 8248 11938 8248 11938 7003 11735 7003 11735 8248 11730 8248 11521 8214 11320 8149 11131 8053 10959 7928 10810 7778 10685 7607 10589 7418 10543 7277 10395 7635 10030 8000 9804 8093 9804 10867 9831 10893 9961 10578 10204 10335 10522 10203 10865 10203 11183 10335 11426 10578 11428 10584 12551 10584 M 18650 18233 18847 18709 18847 19224 18712 19551 25238 19551 25238 18975 25389 18611 25273 18332 25273 17578 25455 17139 25548 17046 25687 16907 25564 16818 25415 16668 25290 16497 25194 16308 25128 16107 25095 15897 25095 15893 26340 15893 26340 15690 25095 15690 25095 15685 25128 15476 25194 15275 25290 15086 25415 14914 25564 14765 25736 14640 25925 14544 26066 14498 25861 14413 22552 17722 20627 17722 20798 17893 20930 18210 20930 18554 20798 18871 20555 19114 20238 19246 19894 19246 19577 19114 19334 18871 19202 18554 19202 18210 19205 18204 19180 18179 18596 18179 18650 18233 M 11938 7064 11735 7064 M 10572 7367 10506 7367 M 11735 7367 11938 7367 M 13101 7367 13167 7367 M 15586 7367 15707 7367 M 10731 7670 10359 7670 M 11735 7670 11938 7670 M 12942 7670 13313 7670 M 15439 7670 15465 7670 M 11022 7974 10056 7974 M 11735 7974 11938 7974 M 12651 7974 13617 7974 M 15136 7974 15162 7974 M 14858 8277 9804 8277 M 9804 8580 14555 8580 M 14252 8884 9804 8884 M 9804 9187 13948 9187 M 13645 9490 9804 9490 M 9804 9794 13342 9794 M 13038 10097 9804 10097 M 9804 10400 10139 10400 M 11248 10400 12735 10400 M 9909 10703 9804 10703 M 25627 14646 25727 14646 M 25389 14950 25324 14950 M 25205 15253 25021 15253 M 25116 15556 24717 15556 M 24414 15859 26340 15859 M 25147 16163 24111 16163 M 23808 16466 25274 16466 M 25516 16769 23504 16769 M 23201 17073 25521 17073 M 25356 17376 22898 17376 M 22594 17679 25273 17679 M 25273 17983 20835 17983 M 19202 18286 18672 18286 M 20930 18286 25273 18286 M 19217 18589 18797 18589 M 20915 18589 25379 18589 M 19355 18893 18847 18893 M 20777 18893 25272 18893 M 19774 19196 18847 19196 M 20358 19196 25238 19196 M 25238 19499 18733 19499" fill="none" stroke-width="305"/></g><g id="pcb-stackup_bottom_ss"><path d="M 26330 18262 26330 16779 26034 16483 25440 16483 25144 16779 25144 18262 M 24553 18262 24553 16483 23663 16483 23366 16779 23366 17966 23663 18262 24553 18262 M 22775 18262 21589 16483 M 22775 16483 21589 18262 M 19811 17966 20108 18262 20701 18262 20998 17966 20998 17669 20701 17372 20108 17372 19811 17076 19811 16779 20108 16483 20701 16483 20998 16779" fill="none" stroke-width="152"/><path d="M 23305 13508 23305 15067 22525 15847 21746 15067 21746 13508 M 21746 14677 23305 14677 M 20966 15067 20966 13508 M 20966 14288 20186 15067 19797 15067 M 17458 15847 17458 13508 18627 13508 19017 13898 19017 14677 18627 15067 17458 15067 M 16678 15067 16678 13898 16288 13508 15119 13508 15119 15067 M 14339 15067 13950 15067 13950 13508 M 14339 13508 13560 13508 M 13950 15847 13950 16237 M 12390 15457 12390 13898 12001 13508 M 12001 15067 12780 15067 M 11221 13508 10052 13508 9662 13898 10052 14288 10831 14288 11221 14677 10831 15067 9662 15067 M 8882 15067 8882 13898 8492 13508 7323 13508 M 7323 15067 7323 13118 7713 12728 8103 12728 M 30586 11346 30586 10076" fill="none" stroke-width="203"/><path d="M 19368 11444 19368 12385 18898 12385 18741 12228 18741 11915 18898 11758 19368 11758 M 19055 11758 18741 11444 M 17962 11444 18276 11444 18433 11601 18433 11915 18276 12072 17962 12072 17806 11915 17806 11758 18433 11758 M 17497 12072 17184 11444 16870 12072 M 16562 12072 16405 12072 16405 11444 M 16562 11444 16248 11444 M 16405 12385 16405 12542 M 15938 11444 15468 11444 15311 11601 15468 11758 15781 11758 15938 11915 15781 12072 15311 12072 M 15003 12072 14846 12072 14846 11444 M 15003 11444 14689 11444 M 14846 12385 14846 12542 M 14222 11444 13909 11444 13752 11601 13752 11915 13909 12072 14222 12072 14379 11915 14379 11601 14222 11444 M 13443 11444 13443 12072 12973 12072 12816 11915 12816 11444 M 11102 11444 11102 12385 11572 11915 10945 11915 M 20368 10385 20368 9445 19898 9445 19741 9601 19741 10228 19898 10385 20368 10385 M 19433 9445 19433 9601 19276 9601 19276 9445 19433 9445 M 18030 9445 18030 10385 17716 10072 17402 10385 17402 9445 M 16937 10072 16624 10072 16467 9915 16467 9445 16937 9445 17094 9601 16937 9758 16467 9758 M 16158 9445 16158 10072 M 16158 9758 15845 10072 15688 10072 M 15379 10385 15379 9445 M 14909 9445 15379 9758 14909 10072 M 14443 10072 14129 10072 13972 9915 13972 9445 14443 9445 14599 9601 14443 9758 13972 9758 M 13664 9445 13664 10072 M 13664 9758 13350 10072 13193 10072 M 12884 10072 12727 10072 12727 9445 M 12571 9445 12884 9445 M 12727 10385 12727 10542 M 12104 10072 11790 10072 11633 9915 11633 9445 12104 9445 12260 9601 12104 9758 11633 9758 M 11325 9445 11325 10072 10855 10072 10698 9915 10698 9445 M 18368 17072 18368 16601 18212 16445 17741 16445 17741 17072 M 16806 17385 16806 16445 17276 16445 17433 16601 17433 16915 17276 17072 16806 17072 M 16497 17072 15870 16445 M 16497 16445 15870 17072 M 15562 16445 15091 16445 14935 16601 15091 16758 15405 16758 15562 16915 15405 17072 14935 17072 M 14626 16445 14626 16601 14469 16601 14469 16445 14626 16445 M 14158 16445 14158 17072 14002 17072 13845 16915 13845 16445 M 13845 16915 13688 17072 13531 16915 13531 16445 M 12753 16445 13066 16445 13223 16601 13223 16915 13066 17072 12753 17072 12596 16915 12596 16758 13223 16758" fill="none" stroke-width="76"/></g><g id="pcb-stackup_bottom_sm"><use xlink:href="#m3tt4Hcxf27k_pad-10" x="27406" y="19406"/><use xlink:href="#m3tt4Hcxf27k_pad-10" x="27406" y="7406"/><use xlink:href="#m3tt4Hcxf27k_pad-11" x="28981" y="10711"/><use xlink:href="#m3tt4Hcxf27k_pad-11" x="26441" y="10711"/><use xlink:href="#m3tt4Hcxf27k_pad-11" x="28981" y="13251"/><use xlink:href="#m3tt4Hcxf27k_pad-11" x="26441" y="13251"/><use xlink:href="#m3tt4Hcxf27k_pad-11" x="28981" y="15791"/><use xlink:href="#m3tt4Hcxf27k_pad-11" x="26441" y="15791"/><use xlink:href="#m3tt4Hcxf27k_pad-11" x="9296" y="6901"/><use xlink:href="#m3tt4Hcxf27k_pad-11" x="11836" y="6901"/><use xlink:href="#m3tt4Hcxf27k_pad-11" x="14376" y="6901"/><use xlink:href="#m3tt4Hcxf27k_pad-11" x="16916" y="6901"/><use xlink:href="#m3tt4Hcxf27k_pad-11" x="9931" y="18966"/><use xlink:href="#m3tt4Hcxf27k_pad-11" x="12471" y="18966"/><use xlink:href="#m3tt4Hcxf27k_pad-11" x="15011" y="18966"/><use xlink:href="#m3tt4Hcxf27k_pad-11" x="17551" y="18966"/><use xlink:href="#m3tt4Hcxf27k_pad-12" x="15494" y="17239"/><use xlink:href="#m3tt4Hcxf27k_pad-12" x="22123" y="15410"/><use xlink:href="#m3tt4Hcxf27k_pad-12" x="20066" y="18382"/><use xlink:href="#m3tt4Hcxf27k_pad-12" x="10693" y="11067"/><use xlink:href="#m3tt4Hcxf27k_pad-12" x="17551" y="11067"/></g><g id="pcb-stackup_bottom_drl1"><use xlink:href="#w2m3xIYLbW5S_pad-1" x="15494" y="17239"/><use xlink:href="#w2m3xIYLbW5S_pad-1" x="22123" y="15410"/><use xlink:href="#w2m3xIYLbW5S_pad-1" x="20066" y="18382"/><use xlink:href="#w2m3xIYLbW5S_pad-1" x="10693" y="11067"/><use xlink:href="#w2m3xIYLbW5S_pad-1" x="17551" y="11067"/><use xlink:href="#w2m3xIYLbW5S_pad-2" x="28981" y="10711"/><use xlink:href="#w2m3xIYLbW5S_pad-2" x="26441" y="10711"/><use xlink:href="#w2m3xIYLbW5S_pad-2" x="28981" y="13251"/><use xlink:href="#w2m3xIYLbW5S_pad-2" x="26441" y="13251"/><use xlink:href="#w2m3xIYLbW5S_pad-2" x="28981" y="15791"/><use xlink:href="#w2m3xIYLbW5S_pad-2" x="26441" y="15791"/><use xlink:href="#w2m3xIYLbW5S_pad-2" x="9296" y="6901"/><use xlink:href="#w2m3xIYLbW5S_pad-2" x="11836" y="6901"/><use xlink:href="#w2m3xIYLbW5S_pad-2" x="14376" y="6901"/><use xlink:href="#w2m3xIYLbW5S_pad-2" x="16916" y="6901"/><use xlink:href="#w2m3xIYLbW5S_pad-2" x="9931" y="18966"/><use xlink:href="#w2m3xIYLbW5S_pad-2" x="12471" y="18966"/><use xlink:href="#w2m3xIYLbW5S_pad-2" x="15011" y="18966"/><use xlink:href="#w2m3xIYLbW5S_pad-2" x="17551" y="18966"/><use xlink:href="#w2m3xIYLbW5S_pad-3" x="27406" y="19406"/><use xlink:href="#w2m3xIYLbW5S_pad-3" x="27406" y="7406"/></g><g id="pcb-stackup_bottom_drl2" transform="scale(25.4,25.4)"/><clipPath id="pcb-stackup_bottom_out"><path d="M 5486 18331 8026 20871 28981 20871 31521 18331 31521 10711 31519 10561 31513 10412 31503 10263 31490 10114 31472 9965 31451 9817 31425 9670 31396 9523 31363 9377 31326 9232 31286 9088 31241 8945 31193 8803 31141 8663 31086 8524 31027 8387 30964 8251 30898 8116 30828 7984 30755 7854 30679 7725 30599 7598 30516 7474 30430 7352 30340 7232 30247 7114 30152 6999 30053 6887 29952 6777 29847 6670 29740 6565 29630 6464 29518 6365 29403 6270 29285 6177 29165 6087 29043 6001 28919 5918 28792 5838 28664 5762 28533 5689 28401 5619 28266 5553 28130 5490 27993 5431 27854 5376 27714 5324 27572 5276 27429 5231 27285 5191 27140 5154 26994 5121 26847 5092 26700 5066 26552 5045 26403 5027 26254 5014 26105 5004 25956 4998 25806 4996 5486 4996 5486 18331 M 26467 18095 26467 17815 26560 17722 26840 17722 26840 18095 M 27401 18281 27401 17722 27121 17722 27028 17815 27028 18001 27121 18095 27401 18095 M 27589 18095 27962 17722 M 27589 17722 27962 18095 M 28151 17722 28430 17722 28524 17815 28430 17908 28244 17908 28151 18001 28244 18095 28524 18095 M 28712 17722 28712 17815 28805 17815 28805 17722 28712 17722 M 28993 17722 28993 18095 29086 18095 29179 18001 29179 17722 M 29179 18001 29272 18095 29366 18001 29366 17722 M 29834 17722 29647 17722 29554 17815 29554 18001 29647 18095 29834 18095 29927 18001 29927 17908 29554 17908 M 26406 19406 26408 19469 26414 19531 26424 19593 26437 19655 26455 19715 26476 19774 26501 19832 26530 19888 26562 19942 26597 19994 26635 20043 26677 20091 26721 20135 26769 20177 26818 20215 26870 20250 26924 20282 26980 20311 27038 20336 27097 20357 27157 20375 27219 20388 27281 20398 27343 20404 27406 20406 27469 20404 27531 20398 27593 20388 27655 20375 27715 20357 27774 20336 27832 20311 27888 20282 27942 20250 27994 20215 28043 20177 28091 20135 28135 20091 28177 20043 28215 19994 28250 19942 28282 19888 28311 19832 28336 19774 28357 19715 28375 19655 28388 19593 28398 19531 28404 19469 28406 19406 28404 19343 28398 19281 28388 19219 28375 19157 28357 19097 28336 19038 28311 18980 28282 18924 28250 18870 28215 18818 28177 18769 28135 18721 28091 18677 28043 18635 27994 18597 27942 18562 27888 18530 27832 18501 27774 18476 27715 18455 27655 18437 27593 18424 27531 18414 27469 18408 27406 18406 27343 18408 27281 18414 27219 18424 27157 18437 27097 18455 27038 18476 26980 18501 26924 18530 26870 18562 26818 18597 26769 18635 26721 18677 26677 18721 26635 18769 26597 18818 26562 18870 26530 18924 26501 18980 26476 19038 26455 19097 26437 19157 26424 19219 26414 19281 26408 19343 26406 19406 M 26406 7406 26408 7469 26414 7531 26424 7593 26437 7655 26455 7715 26476 7774 26501 7832 26530 7888 26562 7942 26597 7994 26635 8043 26677 8091 26721 8135 26769 8177 26818 8215 26870 8250 26924 8282 26980 8311 27038 8336 27097 8357 27157 8375 27219 8388 27281 8398 27343 8404 27406 8406 27469 8404 27531 8398 27593 8388 27655 8375 27715 8357 27774 8336 27832 8311 27888 8282 27942 8250 27994 8215 28043 8177 28091 8135 28135 8091 28177 8043 28215 7994 28250 7942 28282 7888 28311 7832 28336 7774 28357 7715 28375 7655 28388 7593 28398 7531 28404 7469 28406 7406 28404 7343 28398 7281 28388 7219 28375 7157 28357 7097 28336 7038 28311 6980 28282 6924 28250 6870 28215 6818 28177 6769 28135 6721 28091 6677 28043 6635 27994 6597 27942 6562 27888 6530 27832 6501 27774 6476 27715 6455 27655 6437 27593 6424 27531 6414 27469 6408 27406 6406 27343 6408 27281 6414 27219 6424 27157 6437 27097 6455 27038 6476 26980 6501 26924 6530 26870 6562 26818 6597 26769 6635 26721 6677 26677 6721 26635 6769 26597 6818 26562 6870 26530 6924 26501 6980 26476 7038 26455 7097 26437 7157 26424 7219 26414 7281 26408 7343 26406 7406" fill="none" stroke-width="305"/></clipPath><mask id="pcb-stackup_bottom_mech-mask"><g fill="#000" stroke="#000"><rect x="5486" y="4996" width="26035" height="15875" fill="#fff"/><use xlink:href="#pcb-stackup_bottom_drl1"/><use xlink:href="#pcb-stackup_bottom_drl2"/></g></mask><mask id="pcb-stackup_bottom_cf-mask"><g fill="#fff" stroke="#fff"><use xlink:href="#pcb-stackup_bottom_sm"/></g></mask><mask id="pcb-stackup_bottom_sm-mask"><g fill="#000" stroke="#000"><rect x="5486" y="4996" width="26035" height="15875" fill="#fff"/><use xlink:href="#pcb-stackup_bottom_sm"/></g></mask></defs><g transform="translate(0,25867) scale(1,-1)"><g mask="url(#pcb-stackup_bottom_mech-mask)" clip-path="url(#pcb-stackup_bottom_out)" transform="translate(37007,0) scale(-1,1)"><rect x="5486" y="4996" width="26035" height="15875" fill="currentColor" class="pcb-stackup_fr4"/><use xlink:href="#pcb-stackup_bottom_cu" fill="currentColor" stroke="currentColor" class="pcb-stackup_cu"/><use xlink:href="#pcb-stackup_bottom_cu" fill="currentColor" stroke="currentColor" class="pcb-stackup_cf" mask="url(#pcb-stackup_bottom_cf-mask)"/><g mask="url(#pcb-stackup_bottom_sm-mask)"><rect x="5486" y="4996" width="26035" height="15875" fill="currentColor" class="pcb-stackup_sm"/><use xlink:href="#pcb-stackup_bottom_ss" fill="currentColor" stroke="currentColor" class="pcb-stackup_ss"/></g></g></g></svg>