<svg id="pcb-stackup_top" version="1.1" xmlns:xlink="http://www.w3.org/1999/xlink" stroke-linecap="round" stroke-linejoin="round" stroke-width="0" fill-rule="evenodd" clip-rule="evenodd" viewBox="5486 4996 26035 15875" width="26.035mm" height="15.875mm" xmlns="http://www.w3.org/2000/svg"><defs><style>.pcb-stackup_fr4 {color: #4D542C;}
.pcb-stackup_cu {color: lightgrey;}
.pcb-stackup_cf {color: goldenrod;}
.pcb-stackup_sm {color: #2E0051; opacity: 0.9;}
.pcb-stackup_ss {color: white;}
.pcb-stackup_sp {color: #000000; opacity: 0;}
.pcb-stackup_out {color: black;}</style><rect x="-1600" y="-600" width="3200" height="1200" id="FfKksh9rEDue_pad-10"/><rect x="-724" y="-559" width="1448" height="1118" id="FfKksh9rEDue_pad-11"/><circle cx="0" cy="0" r="940" id="FfKksh9rEDue_pad-12"/><rect x="-600" y="-600" width="1200" height="1200" id="FfKksh9rEDue_pad-13"/><rect x="-266.5" y="-774.5" width="533" height="1549" id="FfKksh9rEDue_pad-14"/><rect x="-508" y="-698.5" width="1016" height="1397" id="FfKksh9rEDue_pad-15"/><circle cx="0" cy="0" r="508" id="FfKksh9rEDue_pad-17"/><rect x="-1600" y="-600" width="3200" height="1200" id="FfKksh9rEDue_pad-10"/><rect x="-724" y="-559" width="1448" height="1118" id="FfKksh9rEDue_pad-11"/><circle cx="0" cy="0" r="940" id="FfKksh9rEDue_pad-12"/><rect x="-600" y="-600" width="1200" height="1200" id="FfKksh9rEDue_pad-13"/><rect x="-266.5" y="-774.5" width="533" height="1549" id="FfKksh9rEDue_pad-14"/><rect x="-508" y="-698.5" width="1016" height="1397" id="FfKksh9rEDue_pad-15"/><circle cx="0" cy="0" r="508" id="FfKksh9rEDue_pad-17"/><rect x="-100" y="-100" width="200" height="200" id="MhEq.rFnilRy_pad-13"/><rect x="-1600" y="-600" width="3200" height="1200" id="FfKksh9rEDue_pad-10"/><rect x="-724" y="-559" width="1448" height="1118" id="FfKksh9rEDue_pad-11"/><circle cx="0" cy="0" r="940" id="FfKksh9rEDue_pad-12"/><rect x="-600" y="-600" width="1200" height="1200" id="FfKksh9rEDue_pad-13"/><rect x="-266.5" y="-774.5" width="533" height="1549" id="FfKksh9rEDue_pad-14"/><rect x="-508" y="-698.5" width="1016" height="1397" id="FfKksh9rEDue_pad-15"/><circle cx="0" cy="0" r="508" id="FfKksh9rEDue_pad-17"/><rect x="-1600" y="-600" width="3200" height="1200" id="FfKksh9rEDue_pad-10"/><rect x="-724" y="-559" width="1448" height="1118" id="FfKksh9rEDue_pad-11"/><circle cx="0" cy="0" r="940" id="FfKksh9rEDue_pad-12"/><rect x="-600" y="-600" width="1200" height="1200" id="FfKksh9rEDue_pad-13"/><rect x="-266.5" y="-774.5" width="533" height="1549" id="FfKksh9rEDue_pad-14"/><rect x="-508" y="-698.5" width="1016" height="1397" id="FfKksh9rEDue_pad-15"/><circle cx="0" cy="0" r="508" id="FfKksh9rEDue_pad-17"/><rect x="-100" y="-100" width="200" height="200" id="MhEq.rFnilRy_pad-13"/><circle cx="0" cy="0" r="1101.5" id="B8oBTuV_nPvy_pad-10"/><rect x="-1701.5" y="-701.5" width="3403" height="1403" id="B8oBTuV_nPvy_pad-11"/><rect x="-825.5" y="-660.5" width="1651" height="1321" id="B8oBTuV_nPvy_pad-12"/><circle cx="0" cy="0" r="1041.5" id="B8oBTuV_nPvy_pad-13"/><rect x="-701.5" y="-701.5" width="1403" height="1403" id="B8oBTuV_nPvy_pad-14"/><rect x="-368.5" y="-876.5" width="737" height="1753" id="B8oBTuV_nPvy_pad-15"/><rect x="-609.5" y="-800" width="1219" height="1600" id="B8oBTuV_nPvy_pad-16"/><circle cx="0" cy="0" r="609.5" id="B8oBTuV_nPvy_pad-17"/><rect x="-1600" y="-600" width="3200" height="1200" id="FfKksh9rEDue_pad-10"/><rect x="-724" y="-559" width="1448" height="1118" id="FfKksh9rEDue_pad-11"/><circle cx="0" cy="0" r="940" id="FfKksh9rEDue_pad-12"/><rect x="-600" y="-600" width="1200" height="1200" id="FfKksh9rEDue_pad-13"/><rect x="-266.5" y="-774.5" width="533" height="1549" id="FfKksh9rEDue_pad-14"/><rect x="-508" y="-698.5" width="1016" height="1397" id="FfKksh9rEDue_pad-15"/><circle cx="0" cy="0" r="508" id="FfKksh9rEDue_pad-17"/><rect x="-1600" y="-600" width="3200" height="1200" id="FfKksh9rEDue_pad-10"/><rect x="-724" y="-559" width="1448" height="1118" id="FfKksh9rEDue_pad-11"/><circle cx="0" cy="0" r="940" id="FfKksh9rEDue_pad-12"/><rect x="-600" y="-600" width="1200" height="1200" id="FfKksh9rEDue_pad-13"/><rect x="-266.5" y="-774.5" width="533" height="1549" id="FfKksh9rEDue_pad-14"/><rect x="-508" y="-698.5" width="1016" height="1397" id="FfKksh9rEDue_pad-15"/><circle cx="0" cy="0" r="508" id="FfKksh9rEDue_pad-17"/><rect x="-100" y="-100" width="200" height="200" id="MhEq.rFnilRy_pad-13"/><rect x="-1600" y="-600" width="3200" height="1200" id="FfKksh9rEDue_pad-10"/><rect x="-724" y="-559" width="1448" height="1118" id="FfKksh9rEDue_pad-11"/><circle cx="0" cy="0" r="940" id="FfKksh9rEDue_pad-12"/><rect x="-600" y="-600" width="1200" height="1200" id="FfKksh9rEDue_pad-13"/><rect x="-266.5" y="-774.5" width="533" height="1549" id="FfKksh9rEDue_pad-14"/><rect x="-508" y="-698.5" width="1016" height="1397" id="FfKksh9rEDue_pad-15"/><circle cx="0" cy="0" r="508" id="FfKksh9rEDue_pad-17"/><rect x="-1600" y="-600" width="3200" height="1200" id="FfKksh9rEDue_pad-10"/><rect x="-724" y="-559" width="1448" height="1118" id="FfKksh9rEDue_pad-11"/><circle cx="0" cy="0" r="940" id="FfKksh9rEDue_pad-12"/><rect x="-600" y="-600" width="1200" height="1200" id="FfKksh9rEDue_pad-13"/><rect x="-266.5" y="-774.5" width="533" height="1549" id="FfKksh9rEDue_pad-14"/><rect x="-508" y="-698.5" width="1016" height="1397" id="FfKksh9rEDue_pad-15"/><circle cx="0" cy="0" r="508" id="FfKksh9rEDue_pad-17"/><rect x="-100" y="-100" width="200" height="200" id="MhEq.rFnilRy_pad-13"/><circle cx="0" cy="0" r="1101.5" id="B8oBTuV_nPvy_pad-10"/><rect x="-1701.5" y="-701.5" width="3403" height="1403" id="B8oBTuV_nPvy_pad-11"/><rect x="-825.5" y="-660.5" width="1651" height="1321" id="B8oBTuV_nPvy_pad-12"/><circle cx="0" cy="0" r="1041.5" id="B8oBTuV_nPvy_pad-13"/><rect x="-701.5" y="-701.5" width="1403" height="1403" id="B8oBTuV_nPvy_pad-14"/><rect x="-368.5" y="-876.5" width="737" height="1753" id="B8oBTuV_nPvy_pad-15"/><rect x="-609.5" y="-800" width="1219" height="1600" id="B8oBTuV_nPvy_pad-16"/><circle cx="0" cy="0" r="609.5" id="B8oBTuV_nPvy_pad-17"/><circle cx="0" cy="0" r="304.8" id="w2m3xIYLbW5S_pad-1"/><circle cx="0" cy="0" r="508" id="w2m3xIYLbW5S_pad-2"/><circle cx="0" cy="0" r="1000" id="w2m3xIYLbW5S_pad-3"/><rect x="-1600" y="-600" width="3200" height="1200" id="FfKksh9rEDue_pad-10"/><rect x="-724" y="-559" width="1448" height="1118" id="FfKksh9rEDue_pad-11"/><circle cx="0" cy="0" r="940" id="FfKksh9rEDue_pad-12"/><rect x="-600" y="-600" width="1200" height="1200" id="FfKksh9rEDue_pad-13"/><rect x="-266.5" y="-774.5" width="533" height="1549" id="FfKksh9rEDue_pad-14"/><rect x="-508" y="-698.5" width="1016" height="1397" id="FfKksh9rEDue_pad-15"/><circle cx="0" cy="0" r="508" id="FfKksh9rEDue_pad-17"/><rect x="-1600" y="-600" width="3200" height="1200" id="FfKksh9rEDue_pad-10"/><rect x="-724" y="-559" width="1448" height="1118" id="FfKksh9rEDue_pad-11"/><circle cx="0" cy="0" r="940" id="FfKksh9rEDue_pad-12"/><rect x="-600" y="-600" width="1200" height="1200" id="FfKksh9rEDue_pad-13"/><rect x="-266.5" y="-774.5" width="533" height="1549" id="FfKksh9rEDue_pad-14"/><rect x="-508" y="-698.5" width="1016" height="1397" id="FfKksh9rEDue_pad-15"/><circle cx="0" cy="0" r="508" id="FfKksh9rEDue_pad-17"/><rect x="-100" y="-100" width="200" height="200" id="MhEq.rFnilRy_pad-13"/><rect x="-1600" y="-600" width="3200" height="1200" id="FfKksh9rEDue_pad-10"/><rect x="-724" y="-559" width="1448" height="1118" id="FfKksh9rEDue_pad-11"/><circle cx="0" cy="0" r="940" id="FfKksh9rEDue_pad-12"/><rect x="-600" y="-600" width="1200" height="1200" id="FfKksh9rEDue_pad-13"/><rect x="-266.5" y="-774.5" width="533" height="1549" id="FfKksh9rEDue_pad-14"/><rect x="-508" y="-698.5" width="1016" height="1397" id="FfKksh9rEDue_pad-15"/><circle cx="0" cy="0" r="508" id="FfKksh9rEDue_pad-17"/><rect x="-1600" y="-600" width="3200" height="1200" id="FfKksh9rEDue_pad-10"/><rect x="-724" y="-559" width="1448" height="1118" id="FfKksh9rEDue_pad-11"/><circle cx="0" cy="0" r="940" id="FfKksh9rEDue_pad-12"/><rect x="-600" y="-600" width="1200" height="1200" id="FfKksh9rEDue_pad-13"/><rect x="-266.5" y="-774.5" width="533" height="1549" id="FfKksh9rEDue_pad-14"/><rect x="-508" y="-698.5" width="1016" height="1397" id="FfKksh9rEDue_pad-15"/><circle cx="0" cy="0" r="508" id="FfKksh9rEDue_pad-17"/><rect x="-100" y="-100" width="200" height="200" id="MhEq.rFnilRy_pad-13"/><circle cx="0" cy="0" r="1101.5" id="B8oBTuV_nPvy_pad-10"/><rect x="-1701.5" y="-701.5" width="3403" height="1403" id="B8oBTuV_nPvy_pad-11"/><rect x="-825.5" y="-660.5" width="1651" height="1321" id="B8oBTuV_nPvy_pad-12"/><circle cx="0" cy="0" r="1041.5" id="B8oBTuV_nPvy_pad-13"/><rect x="-701.5" y="-701.5" width="1403" height="1403" id="B8oBTuV_nPvy_pad-14"/><rect x="-368.5" y="-876.5" width="737" height="1753" id="B8oBTuV_nPvy_pad-15"/><rect x="-609.5" y="-800" width="1219" height="1600" id="B8oBTuV_nPvy_pad-16"/><circle cx="0" cy="0" r="609.5" id="B8oBTuV_nPvy_pad-17"/><rect x="-1600" y="-600" width="3200" height="1200" id="FfKksh9rEDue_pad-10"/><rect x="-724" y="-559" width="1448" height="1118" id="FfKksh9rEDue_pad-11"/><circle cx="0" cy="0" r="940" id="FfKksh9rEDue_pad-12"/><rect x="-600" y="-600" width="1200" height="1200" id="FfKksh9rEDue_pad-13"/><rect x="-266.5" y="-774.5" width="533" height="1549" id="FfKksh9rEDue_pad-14"/><rect x="-508" y="-698.5" width="1016" height="1397" id="FfKksh9rEDue_pad-15"/><circle cx="0" cy="0" r="508" id="FfKksh9rEDue_pad-17"/><rect x="-1600" y="-600" width="3200" height="1200" id="FfKksh9rEDue_pad-10"/><rect x="-724" y="-559" width="1448" height="1118" id="FfKksh9rEDue_pad-11"/><circle cx="0" cy="0" r="940" id="FfKksh9rEDue_pad-12"/><rect x="-600" y="-600" width="1200" height="1200" id="FfKksh9rEDue_pad-13"/><rect x="-266.5" y="-774.5" width="533" height="1549" id="FfKksh9rEDue_pad-14"/><rect x="-508" y="-698.5" width="1016" height="1397" id="FfKksh9rEDue_pad-15"/><circle cx="0" cy="0" r="508" id="FfKksh9rEDue_pad-17"/><rect x="-100" y="-100" width="200" height="200" id="MhEq.rFnilRy_pad-13"/><rect x="-1600" y="-600" width="3200" height="1200" id="FfKksh9rEDue_pad-10"/><rect x="-724" y="-559" width="1448" height="1118" id="FfKksh9rEDue_pad-11"/><circle cx="0" cy="0" r="940" id="FfKksh9rEDue_pad-12"/><rect x="-600" y="-600" width="1200" height="1200" id="FfKksh9rEDue_pad-13"/><rect x="-266.5" y="-774.5" width="533" height="1549" id="FfKksh9rEDue_pad-14"/><rect x="-508" y="-698.5" width="1016" height="1397" id="FfKksh9rEDue_pad-15"/><circle cx="0" cy="0" r="508" id="FfKksh9rEDue_pad-17"/><rect x="-1600" y="-600" width="3200" height="1200" id="FfKksh9rEDue_pad-10"/><rect x="-724" y="-559" width="1448" height="1118" id="FfKksh9rEDue_pad-11"/><circle cx="0" cy="0" r="940" id="FfKksh9rEDue_pad-12"/><rect x="-600" y="-600" width="1200" height="1200" id="FfKksh9rEDue_pad-13"/><rect x="-266.5" y="-774.5" width="533" height="1549" id="FfKksh9rEDue_pad-14"/><rect x="-508" y="-698.5" width="1016" height="1397" id="FfKksh9rEDue_pad-15"/><circle cx="0" cy="0" r="508" id="FfKksh9rEDue_pad-17"/><rect x="-100" y="-100" width="200" height="200" id="MhEq.rFnilRy_pad-13"/><circle cx="0" cy="0" r="1101.5" id="B8oBTuV_nPvy_pad-10"/><rect x="-1701.5" y="-701.5" width="3403" height="1403" id="B8oBTuV_nPvy_pad-11"/><rect x="-825.5" y="-660.5" width="1651" height="1321" id="B8oBTuV_nPvy_pad-12"/><circle cx="0" cy="0" r="1041.5" id="B8oBTuV_nPvy_pad-13"/><rect x="-701.5" y="-701.5" width="1403" height="1403" id="B8oBTuV_nPvy_pad-14"/><rect x="-368.5" y="-876.5" width="737" height="1753" id="B8oBTuV_nPvy_pad-15"/><rect x="-609.5" y="-800" width="1219" height="1600" id="B8oBTuV_nPvy_pad-16"/><circle cx="0" cy="0" r="609.5" id="B8oBTuV_nPvy_pad-17"/><circle cx="0" cy="0" r="304.8" id="w2m3xIYLbW5S_pad-1"/><circle cx="0" cy="0" r="508" id="w2m3xIYLbW5S_pad-2"/><circle cx="0" cy="0" r="1000" id="w2m3xIYLbW5S_pad-3"/><rect x="-1600" y="-600" width="3200" height="1200" id="FfKksh9rEDue_pad-10"/><rect x="-724" y="-559" width="1448" height="1118" id="FfKksh9rEDue_pad-11"/><circle cx="0" cy="0" r="940" id="FfKksh9rEDue_pad-12"/><rect x="-600" y="-600" width="1200" height="1200" id="FfKksh9rEDue_pad-13"/><rect x="-266.5" y="-774.5" width="533" height="1549" id="FfKksh9rEDue_pad-14"/><rect x="-508" y="-698.5" width="1016" height="1397" id="FfKksh9rEDue_pad-15"/><circle cx="0" cy="0" r="508" id="FfKksh9rEDue_pad-17"/><rect x="-1600" y="-600" width="3200" height="1200" id="FfKksh9rEDue_pad-10"/><rect x="-724" y="-559" width="1448" height="1118" id="FfKksh9rEDue_pad-11"/><circle cx="0" cy="0" r="940" id="FfKksh9rEDue_pad-12"/><rect x="-600" y="-600" width="1200" height="1200" id="FfKksh9rEDue_pad-13"/><rect x="-266.5" y="-774.5" width="533" height="1549" id="FfKksh9rEDue_pad-14"/><rect x="-508" y="-698.5" width="1016" height="1397" id="FfKksh9rEDue_pad-15"/><circle cx="0" cy="0" r="508" id="FfKksh9rEDue_pad-17"/><rect x="-100" y="-100" width="200" height="200" id="MhEq.rFnilRy_pad-13"/><rect x="-1600" y="-600" width="3200" height="1200" id="FfKksh9rEDue_pad-10"/><rect x="-724" y="-559" width="1448" height="1118" id="FfKksh9rEDue_pad-11"/><circle cx="0" cy="0" r="940" id="FfKksh9rEDue_pad-12"/><rect x="-600" y="-600" width="1200" height="1200" id="FfKksh9rEDue_pad-13"/><rect x="-266.5" y="-774.5" width="533" height="1549" id="FfKksh9rEDue_pad-14"/><rect x="-508" y="-698.5" width="1016" height="1397" id="FfKksh9rEDue_pad-15"/><circle cx="0" cy="0" r="508" id="FfKksh9rEDue_pad-17"/><rect x="-1600" y="-600" width="3200" height="1200" id="FfKksh9rEDue_pad-10"/><rect x="-724" y="-559" width="1448" height="1118" id="FfKksh9rEDue_pad-11"/><circle cx="0" cy="0" r="940" id="FfKksh9rEDue_pad-12"/><rect x="-600" y="-600" width="1200" height="1200" id="FfKksh9rEDue_pad-13"/><rect x="-266.5" y="-774.5" width="533" height="1549" id="FfKksh9rEDue_pad-14"/><rect x="-508" y="-698.5" width="1016" height="1397" id="FfKksh9rEDue_pad-15"/><circle cx="0" cy="0" r="508" id="FfKksh9rEDue_pad-17"/><rect x="-100" y="-100" width="200" height="200" id="MhEq.rFnilRy_pad-13"/><circle cx="0" cy="0" r="1101.5" id="B8oBTuV_nPvy_pad-10"/><rect x="-1701.5" y="-701.5" width="3403" height="1403" id="B8oBTuV_nPvy_pad-11"/><rect x="-825.5" y="-660.5" width="1651" height="1321" id="B8oBTuV_nPvy_pad-12"/><circle cx="0" cy="0" r="1041.5" id="B8oBTuV_nPvy_pad-13"/><rect x="-701.5" y="-701.5" width="1403" height="1403" id="B8oBTuV_nPvy_pad-14"/><rect x="-368.5" y="-876.5" width="737" height="1753" id="B8oBTuV_nPvy_pad-15"/><rect x="-609.5" y="-800" width="1219" height="1600" id="B8oBTuV_nPvy_pad-16"/><circle cx="0" cy="0" r="609.5" id="B8oBTuV_nPvy_pad-17"/><rect x="-1600" y="-600" width="3200" height="1200" id="FfKksh9rEDue_pad-10"/><rect x="-724" y="-559" width="1448" height="1118" id="FfKksh9rEDue_pad-11"/><circle cx="0" cy="0" r="940" id="FfKksh9rEDue_pad-12"/><rect x="-600" y="-600" width="1200" height="1200" id="FfKksh9rEDue_pad-13"/><rect x="-266.5" y="-774.5" width="533" height="1549" id="FfKksh9rEDue_pad-14"/><rect x="-508" y="-698.5" width="1016" height="1397" id="FfKksh9rEDue_pad-15"/><circle cx="0" cy="0" r="508" id="FfKksh9rEDue_pad-17"/><rect x="-1600" y="-600" width="3200" height="1200" id="FfKksh9rEDue_pad-10"/><rect x="-724" y="-559" width="1448" height="1118" id="FfKksh9rEDue_pad-11"/><circle cx="0" cy="0" r="940" id="FfKksh9rEDue_pad-12"/><rect x="-600" y="-600" width="1200" height="1200" id="FfKksh9rEDue_pad-13"/><rect x="-266.5" y="-774.5" width="533" height="1549" id="FfKksh9rEDue_pad-14"/><rect x="-508" y="-698.5" width="1016" height="1397" id="FfKksh9rEDue_pad-15"/><circle cx="0" cy="0" r="508" id="FfKksh9rEDue_pad-17"/><rect x="-100" y="-100" width="200" height="200" id="MhEq.rFnilRy_pad-13"/><rect x="-1600" y="-600" width="3200" height="1200" id="FfKksh9rEDue_pad-10"/><rect x="-724" y="-559" width="1448" height="1118" id="FfKksh9rEDue_pad-11"/><circle cx="0" cy="0" r="940" id="FfKksh9rEDue_pad-12"/><rect x="-600" y="-600" width="1200" height="1200" id="FfKksh9rEDue_pad-13"/><rect x="-266.5" y="-774.5" width="533" height="1549" id="FfKksh9rEDue_pad-14"/><rect x="-508" y="-698.5" width="1016" height="1397" id="FfKksh9rEDue_pad-15"/><circle cx="0" cy="0" r="508" id="FfKksh9rEDue_pad-17"/><rect x="-1600" y="-600" width="3200" height="1200" id="FfKksh9rEDue_pad-10"/><rect x="-724" y="-559" width="1448" height="1118" id="FfKksh9rEDue_pad-11"/><circle cx="0" cy="0" r="940" id="FfKksh9rEDue_pad-12"/><rect x="-600" y="-600" width="1200" height="1200" id="FfKksh9rEDue_pad-13"/><rect x="-266.5" y="-774.5" width="533" height="1549" id="FfKksh9rEDue_pad-14"/><rect x="-508" y="-698.5" width="1016" height="1397" id="FfKksh9rEDue_pad-15"/><circle cx="0" cy="0" r="508" id="FfKksh9rEDue_pad-17"/><rect x="-100" y="-100" width="200" height="200" id="MhEq.rFnilRy_pad-13"/><circle cx="0" cy="0" r="1101.5" id="B8oBTuV_nPvy_pad-10"/><rect x="-1701.5" y="-701.5" width="3403" height="1403" id="B8oBTuV_nPvy_pad-11"/><rect x="-825.5" y="-660.5" width="1651" height="1321" id="B8oBTuV_nPvy_pad-12"/><circle cx="0" cy="0" r="1041.5" id="B8oBTuV_nPvy_pad-13"/><rect x="-701.5" y="-701.5" width="1403" height="1403" id="B8oBTuV_nPvy_pad-14"/><rect x="-368.5" y="-876.5" width="737" height="1753" id="B8oBTuV_nPvy_pad-15"/><rect x="-609.5" y="-800" width="1219" height="1600" id="B8oBTuV_nPvy_pad-16"/><circle cx="0" cy="0" r="609.5" id="B8oBTuV_nPvy_pad-17"/><circle cx="0" cy="0" r="304.8" id="w2m3xIYLbW5S_pad-1"/><circle cx="0" cy="0" r="508" id="w2m3xIYLbW5S_pad-2"/><circle cx="0" cy="0" r="1000" id="w2m3xIYLbW5S_pad-3"/><rect x="-1600" y="-600" width="3200" height="1200" id="FfKksh9rEDue_pad-10"/><rect x="-724" y="-559" width="1448" height="1118" id="FfKksh9rEDue_pad-11"/><circle cx="0" cy="0" r="940" id="FfKksh9rEDue_pad-12"/><rect x="-600" y="-600" width="1200" height="1200" id="FfKksh9rEDue_pad-13"/><rect x="-266.5" y="-774.5" width="533" height="1549" id="FfKksh9rEDue_pad-14"/><rect x="-508" y="-698.5" width="1016" height="1397" id="FfKksh9rEDue_pad-15"/><circle cx="0" cy="0" r="508" id="FfKksh9rEDue_pad-17"/><rect x="-1600" y="-600" width="3200" height="1200" id="FfKksh9rEDue_pad-10"/><rect x="-724" y="-559" width="1448" height="1118" id="FfKksh9rEDue_pad-11"/><circle cx="0" cy="0" r="940" id="FfKksh9rEDue_pad-12"/><rect x="-600" y="-600" width="1200" height="1200" id="FfKksh9rEDue_pad-13"/><rect x="-266.5" y="-774.5" width="533" height="1549" id="FfKksh9rEDue_pad-14"/><rect x="-508" y="-698.5" width="1016" height="1397" id="FfKksh9rEDue_pad-15"/><circle cx="0" cy="0" r="508" id="FfKksh9rEDue_pad-17"/><rect x="-100" y="-100" width="200" height="200" id="MhEq.rFnilRy_pad-13"/><rect x="-1600" y="-600" width="3200" height="1200" id="FfKksh9rEDue_pad-10"/><rect x="-724" y="-559" width="1448" height="1118" id="FfKksh9rEDue_pad-11"/><circle cx="0" cy="0" r="940" id="FfKksh9rEDue_pad-12"/><rect x="-600" y="-600" width="1200" height="1200" id="FfKksh9rEDue_pad-13"/><rect x="-266.5" y="-774.5" width="533" height="1549" id="FfKksh9rEDue_pad-14"/><rect x="-508" y="-698.5" width="1016" height="1397" id="FfKksh9rEDue_pad-15"/><circle cx="0" cy="0" r="508" id="FfKksh9rEDue_pad-17"/><rect x="-1600" y="-600" width="3200" height="1200" id="FfKksh9rEDue_pad-10"/><rect x="-724" y="-559" width="1448" height="1118" id="FfKksh9rEDue_pad-11"/><circle cx="0" cy="0" r="940" id="FfKksh9rEDue_pad-12"/><rect x="-600" y="-600" width="1200" height="1200" id="FfKksh9rEDue_pad-13"/><rect x="-266.5" y="-774.5" width="533" height="1549" id="FfKksh9rEDue_pad-14"/><rect x="-508" y="-698.5" width="1016" height="1397" id="FfKksh9rEDue_pad-15"/><circle cx="0" cy="0" r="508" id="FfKksh9rEDue_pad-17"/><rect x="-100" y="-100" width="200" height="200" id="MhEq.rFnilRy_pad-13"/><circle cx="0" cy="0" r="1101.5" id="B8oBTuV_nPvy_pad-10"/><rect x="-1701.5" y="-701.5" width="3403" height="1403" id="B8oBTuV_nPvy_pad-11"/><rect x="-825.5" y="-660.5" width="1651" height="1321" id="B8oBTuV_nPvy_pad-12"/><circle cx="0" cy="0" r="1041.5" id="B8oBTuV_nPvy_pad-13"/><rect x="-701.5" y="-701.5" width="1403" height="1403" id="B8oBTuV_nPvy_pad-14"/><rect x="-368.5" y="-876.5" width="737" height="1753" id="B8oBTuV_nPvy_pad-15"/><rect x="-609.5" y="-800" width="1219" height="1600" id="B8oBTuV_nPvy_pad-16"/><circle cx="0" cy="0" r="609.5" id="B8oBTuV_nPvy_pad-17"/><rect x="-1600" y="-600" width="3200" height="1200" id="FfKksh9rEDue_pad-10"/><rect x="-724" y="-559" width="1448" height="1118" id="FfKksh9rEDue_pad-11"/><circle cx="0" cy="0" r="940" id="FfKksh9rEDue_pad-12"/><rect x="-600" y="-600" width="1200" height="1200" id="FfKksh9rEDue_pad-13"/><rect x="-266.5" y="-774.5" width="533" height="1549" id="FfKksh9rEDue_pad-14"/><rect x="-508" y="-698.5" width="1016" height="1397" id="FfKksh9rEDue_pad-15"/><circle cx="0" cy="0" r="508" id="FfKksh9rEDue_pad-17"/><rect x="-1600" y="-600" width="3200" height="1200" id="FfKksh9rEDue_pad-10"/><rect x="-724" y="-559" width="1448" height="1118" id="FfKksh9rEDue_pad-11"/><circle cx="0" cy="0" r="940" id="FfKksh9rEDue_pad-12"/><rect x="-600" y="-600" width="1200" height="1200" id="FfKksh9rEDue_pad-13"/><rect x="-266.5" y="-774.5" width="533" height="1549" id="FfKksh9rEDue_pad-14"/><rect x="-508" y="-698.5" width="1016" height="1397" id="FfKksh9rEDue_pad-15"/><circle cx="0" cy="0" r="508" id="FfKksh9rEDue_pad-17"/><rect x="-100" y="-100" width="200" height="200" id="MhEq.rFnilRy_pad-13"/><rect x="-1600" y="-600" width="3200" height="1200" id="FfKksh9rEDue_pad-10"/><rect x="-724" y="-559" width="1448" height="1118" id="FfKksh9rEDue_pad-11"/><circle cx="0" cy="0" r="940" id="FfKksh9rEDue_pad-12"/><rect x="-600" y="-600" width="1200" height="1200" id="FfKksh9rEDue_pad-13"/><rect x="-266.5" y="-774.5" width="533" height="1549" id="FfKksh9rEDue_pad-14"/><rect x="-508" y="-698.5" width="1016" height="1397" id="FfKksh9rEDue_pad-15"/><circle cx="0" cy="0" r="508" id="FfKksh9rEDue_pad-17"/><rect x="-1600" y="-600" width="3200" height="1200" id="FfKksh9rEDue_pad-10"/><rect x="-724" y="-559" width="1448" height="1118" id="FfKksh9rEDue_pad-11"/><circle cx="0" cy="0" r="940" id="FfKksh9rEDue_pad-12"/><rect x="-600" y="-600" width="1200" height="1200" id="FfKksh9rEDue_pad-13"/><rect x="-266.5" y="-774.5" width="533" height="1549" id="FfKksh9rEDue_pad-14"/><rect x="-508" y="-698.5" width="1016" height="1397" id="FfKksh9rEDue_pad-15"/><circle cx="0" cy="0" r="508" id="FfKksh9rEDue_pad-17"/><rect x="-100" y="-100" width="200" height="200" id="MhEq.rFnilRy_pad-13"/><circle cx="0" cy="0" r="1101.5" id="B8oBTuV_nPvy_pad-10"/><rect x="-1701.5" y="-701.5" width="3403" height="1403" id="B8oBTuV_nPvy_pad-11"/><rect x="-825.5" y="-660.5" width="1651" height="1321" id="B8oBTuV_nPvy_pad-12"/><circle cx="0" cy="0" r="1041.5" id="B8oBTuV_nPvy_pad-13"/><rect x="-701.5" y="-701.5" width="1403" height="1403" id="B8oBTuV_nPvy_pad-14"/><rect x="-368.5" y="-876.5" width="737" height="1753" id="B8oBTuV_nPvy_pad-15"/><rect x="-609.5" y="-800" width="1219" height="1600" id="B8oBTuV_nPvy_pad-16"/><circle cx="0" cy="0" r="609.5" id="B8oBTuV_nPvy_pad-17"/><circle cx="0" cy="0" r="304.8" id="w2m3xIYLbW5S_pad-1"/><circle cx="0" cy="0" r="508" id="w2m3xIYLbW5S_pad-2"/><circle cx="0" cy="0" r="1000" id="w2m3xIYLbW5S_pad-3"/><g id="pcb-stackup_top_cu"><use xlink:href="#FfKksh9rEDue_pad-10" x="14601" y="11886"/><use xlink:href="#FfKksh9rEDue_pad-10" x="7801" y="11886"/><use xlink:href="#FfKksh9rEDue_pad-10" x="7801" y="15886"/><use xlink:href="#FfKksh9rEDue_pad-10" x="14601" y="15886"/><use xlink:href="#FfKksh9rEDue_pad-11" x="17551" y="12337"/><use xlink:href="#FfKksh9rEDue_pad-11" x="17551" y="14166"/><use xlink:href="#FfKksh9rEDue_pad-12" x="28981" y="10711"/><use xlink:href="#FfKksh9rEDue_pad-12" x="26441" y="10711"/><use xlink:href="#FfKksh9rEDue_pad-12" x="28981" y="13251"/><use xlink:href="#FfKksh9rEDue_pad-12" x="26441" y="13251"/><use xlink:href="#FfKksh9rEDue_pad-12" x="28981" y="15791"/><use xlink:href="#FfKksh9rEDue_pad-12" x="26441" y="15791"/><use xlink:href="#FfKksh9rEDue_pad-12" x="9296" y="6901"/><use xlink:href="#FfKksh9rEDue_pad-12" x="11836" y="6901"/><use xlink:href="#FfKksh9rEDue_pad-12" x="14376" y="6901"/><use xlink:href="#FfKksh9rEDue_pad-12" x="16916" y="6901"/><use xlink:href="#FfKksh9rEDue_pad-12" x="9931" y="18966"/><use xlink:href="#FfKksh9rEDue_pad-12" x="12471" y="18966"/><use xlink:href="#FfKksh9rEDue_pad-12" x="15011" y="18966"/><use xlink:href="#FfKksh9rEDue_pad-12" x="17551" y="18966"/><use xlink:href="#FfKksh9rEDue_pad-13" x="12056" y="9441"/><use xlink:href="#FfKksh9rEDue_pad-13" x="14156" y="9441"/><use xlink:href="#FfKksh9rEDue_pad-14" x="19456" y="9543"/><use xlink:href="#FfKksh9rEDue_pad-14" x="20726" y="9543"/><use xlink:href="#FfKksh9rEDue_pad-14" x="21996" y="9543"/><use xlink:href="#FfKksh9rEDue_pad-14" x="23266" y="9543"/><use xlink:href="#FfKksh9rEDue_pad-14" x="23266" y="16960"/><use xlink:href="#FfKksh9rEDue_pad-14" x="21996" y="16960"/><use xlink:href="#FfKksh9rEDue_pad-14" x="20726" y="16960"/><use xlink:href="#FfKksh9rEDue_pad-14" x="19456" y="16960"/><use xlink:href="#FfKksh9rEDue_pad-15" x="15977" y="9441"/><use xlink:href="#FfKksh9rEDue_pad-15" x="17856" y="9441"/><use xlink:href="#FfKksh9rEDue_pad-15" x="10236" y="9441"/><use xlink:href="#FfKksh9rEDue_pad-15" x="8357" y="9441"/><path d="M 23266 16782 23952 16782 24409 16325 24409 14725 25324 13810 25552 13810 26238 13124 M 23266 16782 23266 16960 M 26238 13124 26441 13251 M 10008 18839 10465 18382 10465 18154 11608 17011 15265 17011 15494 17239 M 10008 18839 9931 18966 M 22123 15410 22123 16782 21996 16960 M 20752 16782 20752 15868 20523 15639 23952 12210 25324 12210 25552 11981 27838 11981 28981 13124 M 20752 16782 20726 16960 M 28981 13251 28981 13124 M 20066 18382 20295 18382 20752 17925 20752 17011 20726 16960 M 20752 9695 20752 10610 19837 11524 19837 14496 17780 16553 17780 17925 17551 18154 17551 18966 M 20752 9695 20726 9543 M 10236 9441 10236 10610 10693 11067 M 21895 9467 21895 8095 21666 7867 18466 7867 17551 6952 17094 6952 M 21895 9467 21996 9543 M 17094 6952 16916 6901 M 18009 9467 19152 9467 19380 9238 19609 9467 M 18009 9467 17856 9441 M 19456 9543 19609 9467 M 17780 9238 17551 9238 16637 8324 16408 8324 15037 6952 14580 6952 M 17780 9238 17856 9441 M 14580 6952 14376 6901 M 14580 15868 7950 15868 7801 15886 M 14580 15868 14601 15886 M 19380 9695 19380 14267 18009 15639 15037 15639 14808 15868 M 19380 9695 19456 9543 M 14808 15868 14601 15886 M 17551 10838 16180 9467 M 17551 12337 17551 11067 17551 10838 M 16180 9467 15977 9441 M 19380 16782 19380 15639 23266 11753 24867 11753 25324 11296 25552 11296 26238 10610 M 19380 16782 19456 16960 M 26238 10610 26441 10711 M 14122 9467 14122 9924 13208 10838 12979 10838 11836 11981 10236 11981 9779 11524 9779 11067 9550 10838 8636 10838 8407 10610 8407 9467 M 14122 9467 14156 9441 M 8407 9467 8357 9441" fill="none" stroke-width="254"/><use xlink:href="#FfKksh9rEDue_pad-17" x="15494" y="17239"/><use xlink:href="#FfKksh9rEDue_pad-17" x="22123" y="15410"/><use xlink:href="#FfKksh9rEDue_pad-17" x="20066" y="18382"/><use xlink:href="#FfKksh9rEDue_pad-17" x="10693" y="11067"/><use xlink:href="#FfKksh9rEDue_pad-17" x="17551" y="11067"/><path d="M 18511 8387 18720 8596 18720 8984 18834 8984 18834 8621 19042 8413 19870 8413 20079 8621 20079 9254 20091 9267 20091 9353 20104 9378 20104 8621 20312 8413 21140 8413 21349 8621 21349 10465 21234 10579 21234 10810 20320 11724 20320 14017 22784 11553 23066 11270 24667 11270 24841 11096 25124 10813 25146 10813 25146 10454 25343 9978 25708 9613 26184 9416 26592 9416 26178 9245 25568 8635 25238 7838 25238 6975 25511 6317 18077 6317 18212 6644 18212 6930 18666 7384 21866 7384 22149 7667 22377 7895 22377 8413 22410 8413 22618 8621 22621 8611 22674 8519 22750 8443 22843 8390 22946 8362 23266 8362 23266 9543 23266 9543 23266 8362 23587 8362 23690 8390 23783 8443 23858 8519 23912 8611 23939 8715 23939 9543 23266 9543 23266 9543 23939 9543 23939 10371 23912 10475 23858 10567 23783 10643 23690 10696 23587 10724 23266 10724 23266 9543 23266 9543 23266 10724 22946 10724 22843 10696 22750 10643 22674 10567 22621 10475 22618 10465 22410 10673 21582 10673 21374 10465 21374 8621 21412 8583 21412 8349 18266 8349 17783 7867 17650 8000 17187 8191 17383 8387 18511 8387 M 18423 11423 18631 11631 18631 13043 18441 13233 18525 13282 18600 13357 18654 13450 18682 13553 18682 14039 17678 14039 17678 14293 18672 14293 18898 14067 18898 10528 18834 10465 18834 9949 18720 9949 18720 10287 18511 10495 18201 10495 18284 10578 18415 10895 18415 11239 18339 11423 18423 11423 M 12688 10448 12204 10448 12204 9589 11909 9589 11909 10448 11403 10448 11300 10420 11224 10377 11426 10578 11557 10895 11557 11239 11449 11499 11636 11499 12688 10448 M 9808 12540 9780 12643 9727 12736 9651 12812 9558 12865 9455 12893 7949 12893 7949 12034 7654 12034 7654 12893 6807 12893 6807 14931 9549 14931 9757 15139 9757 15385 12646 15385 12646 15139 12854 14931 16349 14931 16557 15139 16557 15156 17809 15156 17834 15131 17678 15131 17678 14293 17424 14293 17424 15131 16774 15131 16671 15103 16578 15050 16502 14974 16449 14881 16421 14778 16421 14293 17424 14293 17424 14039 16421 14039 16421 13553 16449 13450 16502 13357 16578 13282 16662 13233 16472 13043 16472 12791 16451 12812 16358 12865 16255 12893 14749 12893 14749 12034 14454 12034 14454 12893 12948 12893 12845 12865 12752 12812 12676 12736 12623 12643 12595 12540 12595 12034 14454 12034 14454 11739 12761 11739 12319 12181 12036 12464 10036 12464 9808 12235 9808 12540 M 11131 8592 11207 8516 11300 8463 11403 8435 11909 8435 11909 9294 12204 9294 12204 8435 12710 8435 12813 8463 12906 8516 12982 8592 13035 8685 13063 8788 13063 9294 12204 9294 12204 9589 13063 9589 13063 10095 13035 10198 12982 10291 12917 10356 13008 10356 13201 10163 13201 8694 13409 8486 14904 8486 15112 8694 15112 10189 14904 10397 14332 10397 13849 10880 14454 10880 14454 11739 14749 11739 14749 10880 16255 10880 16358 10908 16451 10961 16527 11037 16580 11130 16608 11233 16608 11495 16680 11423 16764 11423 16688 11239 16688 10895 16757 10727 16526 10495 15321 10495 15113 10287 15113 8596 15321 8387 15789 8387 15256 7854 15110 8000 14634 8197 14119 8197 13643 8000 13278 7635 13130 7277 13084 7418 12988 7607 12863 7778 12713 7928 12542 8053 12353 8149 12152 8214 11942 8248 11938 8248 11938 7003 11735 7003 11735 8248 11730 8248 11521 8214 11320 8149 11131 8053 10959 7928 10810 7778 10685 7607 10589 7418 10543 7277 10395 7635 10030 8000 9554 8197 9039 8197 8563 8000 8198 7635 8001 7159 8001 6644 8136 6317 6807 6317 6807 10880 7654 10880 7654 11739 7949 11739 7949 10880 7995 10880 7925 10810 7925 10495 7701 10495 7493 10287 7493 8596 7701 8387 9012 8387 9220 8596 9220 10287 9152 10356 9441 10356 9373 10287 9373 8596 9581 8387 10891 8387 11100 8596 11100 8646 11131 8592 M 19042 18090 18834 17882 18834 16182 18263 16753 18263 17859 18285 17868 18650 18233 18847 18709 18847 19224 18712 19551 25238 19551 25238 18975 25389 18611 25273 18332 25273 17578 25455 17139 25548 17046 25687 16907 25564 16818 25415 16668 25290 16497 25194 16308 25128 16107 25095 15897 25095 15893 26340 15893 26340 15690 25095 15690 25095 15685 25128 15476 25194 15275 25290 15086 25415 14914 25564 14765 25736 14640 25925 14544 26066 14498 25708 14350 25651 14293 25524 14293 24892 14924 24892 16525 24609 16807 24152 17265 23889 17265 23889 17882 23680 18090 22852 18090 22644 17882 22644 16111 22619 16136 22619 16818 22632 16900 22619 16919 22619 17882 22410 18090 21582 18090 21374 17882 21374 16038 21452 15960 21391 15900 21261 15584 21206 15639 21234 15668 21234 15924 21349 16038 21349 17882 21234 17996 21234 18125 20952 18408 20952 18408 20930 18430 20930 18554 20798 18871 20555 19114 20238 19246 19894 19246 19577 19114 19334 18871 19202 18554 19202 18210 19252 18090 19042 18090 M 8078 6457 6807 6457 M 18135 6457 25453 6457 M 8001 6760 6807 6760 M 18212 6760 25327 6760 M 8001 7064 6807 7064 M 11735 7064 11938 7064 M 18345 7064 25238 7064 M 8087 7367 6807 7367 M 10506 7367 10572 7367 M 11735 7367 11938 7367 M 13101 7367 13167 7367 M 18649 7367 25238 7367 M 8233 7670 6807 7670 M 10359 7670 10731 7670 M 11735 7670 11938 7670 M 12942 7670 13313 7670 M 22152 7670 25238 7670 M 8537 7974 6807 7974 M 10056 7974 11022 7974 M 11735 7974 11938 7974 M 12651 7974 13617 7974 M 15136 7974 15376 7974 M 17676 7974 17890 7974 M 22377 7974 25294 7974 M 15679 8277 6807 8277 M 17273 8277 18194 8277 M 22377 8277 25420 8277 M 7508 8580 6807 8580 M 9205 8580 9388 8580 M 11084 8580 11143 8580 M 11909 8580 12204 8580 M 12970 8580 13315 8580 M 14998 8580 15128 8580 M 18704 8580 18875 8580 M 20038 8580 20145 8580 M 21308 8580 21412 8580 M 22578 8580 22639 8580 M 23266 8580 23266 8580 M 23894 8580 25546 8580 M 7493 8884 6807 8884 M 9220 8884 9373 8884 M 11909 8884 12204 8884 M 13063 8884 13201 8884 M 15112 8884 15113 8884 M 18720 8884 18834 8884 M 20079 8884 20104 8884 M 21349 8884 21374 8884 M 23266 8884 23266 8884 M 23939 8884 25817 8884 M 7493 9187 6807 9187 M 9220 9187 9373 9187 M 11909 9187 12204 9187 M 13063 9187 13201 9187 M 15112 9187 15113 9187 M 20079 9187 20104 9187 M 21349 9187 21374 9187 M 23266 9187 23266 9187 M 23939 9187 26120 9187 M 7493 9490 6807 9490 M 9220 9490 9373 9490 M 12204 9490 13201 9490 M 15112 9490 15113 9490 M 21349 9490 21374 9490 M 23266 9490 23266 9490 M 23939 9490 26005 9490 M 7493 9794 6807 9794 M 9220 9794 9373 9794 M 11909 9794 12204 9794 M 13063 9794 13201 9794 M 15112 9794 15113 9794 M 21349 9794 21374 9794 M 23266 9794 23266 9794 M 23939 9794 25527 9794 M 7493 10097 6807 10097 M 9220 10097 9373 10097 M 11909 10097 12204 10097 M 13062 10097 13201 10097 M 15112 10097 15113 10097 M 18720 10097 18834 10097 M 21349 10097 21374 10097 M 23266 10097 23266 10097 M 23939 10097 25294 10097 M 7606 10400 6807 10400 M 11248 10400 11265 10400 M 11909 10400 12204 10400 M 14329 10400 15226 10400 M 18607 10400 18834 10400 M 21349 10400 21374 10400 M 23266 10400 23266 10400 M 23932 10400 25168 10400 M 7925 10703 6807 10703 M 11478 10703 12432 10703 M 14025 10703 16734 10703 M 18336 10703 18898 10703 M 21234 10703 22869 10703 M 23266 10703 23266 10703 M 23664 10703 25146 10703 M 7949 11007 7654 11007 M 11557 11007 12129 11007 M 14454 11007 14749 11007 M 16496 11007 16688 11007 M 18415 11007 18898 11007 M 21037 11007 24930 11007 M 7949 11310 7654 11310 M 11527 11310 11825 11310 M 14454 11310 14749 11310 M 16608 11310 16717 11310 M 18385 11310 18898 11310 M 20734 11310 23027 11310 M 7949 11613 7654 11613 M 14454 11613 14749 11613 M 18613 11613 18898 11613 M 20431 11613 22723 11613 M 14454 11917 12584 11917 M 18631 11917 18898 11917 M 20320 11917 22420 11917 M 7949 12220 7654 12220 M 12280 12220 12595 12220 M 14454 12220 14749 12220 M 18631 12220 18898 12220 M 20320 12220 22117 12220 M 7949 12523 7654 12523 M 9808 12523 12595 12523 M 14454 12523 14749 12523 M 18631 12523 18898 12523 M 20320 12523 21814 12523 M 7949 12826 7654 12826 M 9625 12826 12778 12826 M 14454 12826 14749 12826 M 16425 12826 16472 12826 M 18631 12826 18898 12826 M 20320 12826 21510 12826 M 16559 13130 6807 13130 M 18544 13130 18898 13130 M 20320 13130 21207 13130 M 16459 13433 6807 13433 M 18644 13433 18898 13433 M 20320 13433 20904 13433 M 16421 13736 6807 13736 M 18682 13736 18898 13736 M 20320 13736 20600 13736 M 17424 14040 6807 14040 M 17678 14040 18898 14040 M 16421 14343 6807 14343 M 17424 14343 17678 14343 M 25473 14343 25701 14343 M 16421 14646 6807 14646 M 17424 14646 17678 14646 M 25170 14646 25727 14646 M 12835 14950 9567 14950 M 16367 14950 16488 14950 M 17424 14950 17678 14950 M 24892 14950 25389 14950 M 12646 15253 9757 15253 M 24892 15253 25205 15253 M 25116 15556 24892 15556 M 21375 15859 21234 15859 M 24892 15859 26340 15859 M 21374 16163 21349 16163 M 22619 16163 22644 16163 M 24892 16163 25147 16163 M 18834 16466 18550 16466 M 21349 16466 21374 16466 M 22619 16466 22644 16466 M 24892 16466 25274 16466 M 18834 16769 18263 16769 M 21349 16769 21374 16769 M 22619 16769 22644 16769 M 24647 16769 25516 16769 M 18834 17073 18263 17073 M 21349 17073 21374 17073 M 22619 17073 22644 17073 M 24344 17073 25521 17073 M 18834 17376 18263 17376 M 21349 17376 21374 17376 M 22619 17376 22644 17376 M 23889 17376 25356 17376 M 18834 17679 18263 17679 M 21349 17679 21374 17679 M 22619 17679 22644 17679 M 23889 17679 25273 17679 M 18935 17983 18400 17983 M 21248 17983 21475 17983 M 22518 17983 22745 17983 M 23788 17983 25273 17983 M 19202 18286 18672 18286 M 21073 18286 25273 18286 M 19217 18589 18797 18589 M 20915 18589 25379 18589 M 19355 18893 18847 18893 M 20777 18893 25272 18893 M 19774 19196 18847 19196 M 20358 19196 25238 19196 M 25238 19499 18733 19499" fill="none" stroke-width="305"/></g><g id="pcb-stackup_top_ss"><path d="M 19088 7295 18834 7295 18834 7105 18961 7168 19025 7168 19088 7105 19088 6978 19025 6914 18898 6914 18834 6978 M 19208 7295 19208 7041 19335 6914 19463 7041 19463 7295 M 19957 7295 19957 6914 M 20710 7232 20646 7295 20519 7295 20456 7232 20456 6978 20519 6914 20646 6914 20710 6978 20710 7105 20583 7105 M 20830 6914 20830 7295 21084 6914 21084 7295 M 21204 7295 21204 6914 21395 6914 21458 6978 21458 7232 21395 7295 21204 7295 M 21952 7295 21952 6914 M 22451 6914 22451 7295 22642 7295 22706 7232 22706 7105 22642 7041 22451 7041 M 22579 7041 22706 6914 M 23080 7232 23016 7295 22889 7295 22826 7232 22826 7168 22889 7105 23016 7105 23080 7041 23080 6978 23016 6914 22889 6914 22826 6978 M 23327 6914 23327 7295 M 23200 7295 23454 7295 M 23948 7295 23948 6914 M 24638 6914 24638 7295 24447 7105 24701 7105 M 20104 18408 20104 18662 20168 18725 20295 18725 20358 18662 20358 18408 20295 18344 20168 18344 20104 18408 20358 18662 M 20853 18725 20853 18344 M 21351 18598 21479 18725 21479 18344 M 21606 18344 21351 18344 M 22100 18344 22100 18725 M 22853 18344 22599 18344 22853 18598 22853 18662 22789 18725 22662 18725 22599 18662 M 23347 18725 23347 18344 M 23846 18662 23910 18725 24037 18725 24100 18662 24100 18598 24037 18535 23973 18535 M 24037 18535 24100 18471 24100 18408 24037 18344 23910 18344 23846 18408 M 20079 18979 19799 18979 19892 19072 19799 19166 20079 19166 M 19799 19400 19799 19306 19846 19260 20032 19260 20079 19306 20079 19400 20032 19446 19846 19446 19799 19400 M 19846 19727 19799 19680 19799 19587 19846 19540 19892 19540 19939 19587 19939 19680 19985 19727 20032 19727 20079 19680 20079 19587 20032 19540 M 20079 19821 20079 19914 M 20079 19868 19799 19868 M 19799 19914 19799 19821 M 21349 18979 21069 18979 21162 19072 21069 19166 21349 19166 M 21349 19260 21349 19353 M 21349 19306 21069 19306 M 21069 19260 21069 19353 M 21116 19633 21069 19587 21069 19493 21116 19447 21162 19447 21209 19493 21209 19587 21255 19633 21302 19633 21349 19587 21349 19493 21302 19447 M 21069 19867 21069 19774 21116 19728 21302 19728 21349 19774 21349 19867 21302 19914 21116 19914 21069 19867 M 22386 19166 22339 19119 22339 19026 22386 18979 22432 18979 22479 19026 22479 19119 22525 19166 22572 19166 22619 19119 22619 19026 22572 18979 M 22386 19446 22339 19400 22339 19306 22386 19260 22572 19260 22619 19306 22619 19400 22572 19446 M 22619 19540 22339 19540 M 22525 19540 22339 19727 M 22479 19587 22619 19727 M 24784 7549 25064 7549 25064 7736 M 24784 8016 24784 7830 25064 7830 25064 8016 M 24924 7923 24924 7830 M 24784 8110 25064 8110 25064 8250 25017 8297 24831 8297 24784 8250 24784 8110" fill="none" stroke-width="25"/><path d="M 14501 10886 7901 10886 M 7901 16886 14501 16886 M 14501 15086 14501 12686 M 7901 12686 7901 15086 M 9698 13886 9700 13963 9706 14041 9716 14117 9730 14193 9748 14269 9769 14343 9795 14416 9824 14488 9857 14558 9893 14626 9933 14693 9976 14757 10022 14819 10072 14878 10125 14935 10180 14989 10238 15040 10299 15088 10362 15133 10427 15175 10495 15213 10564 15247 10635 15278 10707 15306 10781 15329 10856 15349 10932 15365 11008 15377 11085 15385 11162 15389 11240 15389 11317 15385 11394 15377 11470 15365 11546 15349 11621 15329 11695 15306 11767 15278 11838 15247 11907 15213 11975 15175 12040 15133 12103 15088 12164 15040 12222 14989 12277 14935 12330 14878 12380 14819 12426 14757 12469 14693 12509 14626 12545 14558 12578 14488 12607 14416 12633 14343 12654 14269 12672 14193 12686 14117 12696 14041 12702 13963 12704 13886 12702 13809 12696 13731 12686 13655 12672 13579 12654 13503 12633 13429 12607 13356 12578 13284 12545 13214 12509 13146 12469 13079 12426 13015 12380 12953 12330 12894 12277 12837 12222 12783 12164 12732 12103 12684 12040 12639 11975 12597 11907 12559 11838 12525 11767 12494 11695 12466 11621 12443 11546 12423 11470 12407 11394 12395 11317 12387 11240 12383 11162 12383 11085 12387 11008 12395 10932 12407 10856 12423 10781 12443 10707 12466 10635 12494 10564 12525 10495 12559 10427 12597 10362 12639 10299 12684 10238 12732 10180 12783 10125 12837 10072 12894 10022 12953 9976 13015 9933 13079 9893 13146 9857 13214 9824 13284 9795 13356 9769 13429 9748 13503 9730 13579 9716 13655 9706 13731 9700 13809 9698 13886 M 10201 13886 10203 13949 10209 14011 10219 14073 10232 14135 10250 14195 10271 14254 10296 14312 10325 14368 10357 14422 10392 14474 10430 14523 10472 14571 10516 14615 10564 14657 10613 14695 10665 14730 10719 14762 10775 14791 10833 14816 10892 14837 10952 14855 11014 14868 11076 14878 11138 14884 11201 14886 11264 14884 11326 14878 11388 14868 11450 14855 11510 14837 11569 14816 11627 14791 11683 14762 11737 14730 11789 14695 11838 14657 11886 14615 11930 14571 11972 14523 12010 14474 12045 14422 12077 14368 12106 14312 12131 14254 12152 14195 12170 14135 12183 14073 12193 14011 12199 13949 12201 13886 12199 13823 12193 13761 12183 13699 12170 13637 12152 13577 12131 13518 12106 13460 12077 13404 12045 13350 12010 13298 11972 13249 11930 13201 11886 13157 11838 13115 11789 13077 11737 13042 11683 13010 11627 12981 11569 12956 11510 12935 11450 12917 11388 12904 11326 12894 11264 12888 11201 12886 11138 12888 11076 12894 11014 12904 10952 12917 10892 12935 10833 12956 10775 12981 10719 13010 10665 13042 10613 13077 10564 13115 10516 13157 10472 13201 10430 13249 10392 13298 10357 13350 10325 13404 10296 13460 10271 13518 10250 13577 10232 13637 10219 13699 10209 13761 10203 13823 10201 13886 M 29616 9441 30251 10076 M 30251 11346 29616 11981 30251 12616 M 30251 13886 29616 14521 30251 15156 M 30251 16426 29616 17061 M 29616 9441 25806 9441 25171 10076 25171 11346 25806 11981 25171 12616 25171 13886 25806 14521 25171 15156 25171 16426 25806 17061 M 25806 11981 29616 11981 M 29616 14521 25806 14521 M 25806 17061 29616 17061 M 30251 16426 30251 15156 M 30251 13886 30251 12616 M 30251 11346 30251 10076 M 30586 10076 30586 11346 M 16281 8171 17551 8171 18186 7536 M 18186 6266 17551 5631 M 13106 7536 13741 8171 15011 8171 15646 7536 M 15646 6266 15011 5631 13741 5631 13106 6266 M 15646 7536 16281 8171 M 15646 6266 16281 5631 17551 5631 M 8661 8171 9931 8171 10566 7536 M 10566 6266 9931 5631 M 10566 7536 11201 8171 12471 8171 13106 7536 M 13106 6266 12471 5631 11201 5631 10566 6266 M 8026 6266 8026 7536 8661 8171 M 8026 6266 8661 5631 9931 5631 M 18186 6266 18186 7536 M 16916 20236 18186 20236 18821 19601 M 18821 18331 18186 17696 M 13741 19601 14376 20236 15646 20236 16281 19601 M 16281 18331 15646 17696 14376 17696 13741 18331 M 16281 19601 16916 20236 M 16281 18331 16916 17696 18186 17696 M 9296 20236 10566 20236 11201 19601 M 11201 18331 10566 17696 M 11201 19601 11836 20236 13106 20236 13741 19601 M 13741 18331 13106 17696 11836 17696 11201 18331 M 8661 18331 8661 19601 9296 20236 M 8661 18331 9296 17696 10566 17696 M 18821 18331 18821 19601" fill="none" stroke-width="203"/><path d="M 24854 9666 24854 9505 M 24854 9585 24371 9585 M 24371 9505 24371 9666 M 24451 10201 24371 10121 24371 9960 24451 9879 24773 9879 24854 9960 24854 10121 24773 10201 M 24451 10762 24371 10682 24371 10521 24451 10440 24532 10440 24612 10521 24612 10682 24693 10762 24773 10762 24854 10682 24854 10521 24773 10440 M 24854 11002 24371 11002 24371 11243 24451 11324 24612 11324 24693 11243 24693 11002" fill="none" stroke-width="127"/><use xlink:href="#MhEq.rFnilRy_pad-13" x="13006" y="9441"/><path d="M 21234 10559 21488 10559 M 22504 10559 22758 10559 M 23774 10559 24028 10559 M 22758 15944 22504 15944 M 21488 15944 21234 15944 M 20218 15944 19964 15944 M 18948 15944 18694 15944 M 24028 10559 24028 15944 23774 15944 M 18694 15944 18694 13556 18694 12947 18694 10559 18948 10559 M 19964 10559 20218 10559 M 18694 12946 18728 12948 18762 12954 18795 12963 18826 12976 18856 12993 18884 13013 18910 13035 18932 13061 18952 13089 18969 13119 18982 13150 18991 13183 18997 13217 18999 13251 18997 13285 18991 13319 18982 13352 18969 13383 18952 13413 18932 13441 18910 13467 18884 13489 18856 13509 18826 13526 18795 13539 18762 13548 18728 13554 18694 13556 18728 13554 18762 13548 18795 13539 18826 13526 18856 13509 18884 13489 18910 13467 18932 13441 18952 13413 18969 13383 18982 13352 18991 13319 18997 13285 18999 13251 18997 13217 18991 13183 18982 13150 18969 13119 18952 13089 18932 13061 18910 13035 18884 13013 18856 12993 18826 12976 18795 12963 18762 12954 18728 12948 18694 12946 M 17018 8730 16815 8730 M 16815 10153 17018 10153 M 9398 10153 9195 10153 M 9195 8730 9398 8730" fill="none" stroke-width="152"/><path d="M 18016 8743 18813 9539 M 18813 8743 18016 9539 M 18414 9539 18414 8743 M 18016 9141 18813 9141 M 18813 9539 18016 8743 M 18016 9539 18813 8743 M 18414 8743 18414 9539 M 18016 9141 18813 9141" fill="none" stroke-width="76"/></g><g id="pcb-stackup_top_sm"><use xlink:href="#B8oBTuV_nPvy_pad-10" x="27406" y="19406"/><use xlink:href="#B8oBTuV_nPvy_pad-10" x="27406" y="7406"/><use xlink:href="#B8oBTuV_nPvy_pad-11" x="14601" y="11886"/><use xlink:href="#B8oBTuV_nPvy_pad-11" x="7801" y="11886"/><use xlink:href="#B8oBTuV_nPvy_pad-11" x="7801" y="15886"/><use xlink:href="#B8oBTuV_nPvy_pad-11" x="14601" y="15886"/><use xlink:href="#B8oBTuV_nPvy_pad-12" x="17551" y="12337"/><use xlink:href="#B8oBTuV_nPvy_pad-12" x="17551" y="14166"/><use xlink:href="#B8oBTuV_nPvy_pad-13" x="28981" y="10711"/><use xlink:href="#B8oBTuV_nPvy_pad-13" x="26441" y="10711"/><use xlink:href="#B8oBTuV_nPvy_pad-13" x="28981" y="13251"/><use xlink:href="#B8oBTuV_nPvy_pad-13" x="26441" y="13251"/><use xlink:href="#B8oBTuV_nPvy_pad-13" x="28981" y="15791"/><use xlink:href="#B8oBTuV_nPvy_pad-13" x="26441" y="15791"/><use xlink:href="#B8oBTuV_nPvy_pad-13" x="9296" y="6901"/><use xlink:href="#B8oBTuV_nPvy_pad-13" x="11836" y="6901"/><use xlink:href="#B8oBTuV_nPvy_pad-13" x="14376" y="6901"/><use xlink:href="#B8oBTuV_nPvy_pad-13" x="16916" y="6901"/><use xlink:href="#B8oBTuV_nPvy_pad-13" x="9931" y="18966"/><use xlink:href="#B8oBTuV_nPvy_pad-13" x="12471" y="18966"/><use xlink:href="#B8oBTuV_nPvy_pad-13" x="15011" y="18966"/><use xlink:href="#B8oBTuV_nPvy_pad-13" x="17551" y="18966"/><use xlink:href="#B8oBTuV_nPvy_pad-14" x="12056" y="9441"/><use xlink:href="#B8oBTuV_nPvy_pad-14" x="14156" y="9441"/><use xlink:href="#B8oBTuV_nPvy_pad-15" x="19456" y="9543"/><use xlink:href="#B8oBTuV_nPvy_pad-15" x="20726" y="9543"/><use xlink:href="#B8oBTuV_nPvy_pad-15" x="21996" y="9543"/><use xlink:href="#B8oBTuV_nPvy_pad-15" x="23266" y="9543"/><use xlink:href="#B8oBTuV_nPvy_pad-15" x="23266" y="16960"/><use xlink:href="#B8oBTuV_nPvy_pad-15" x="21996" y="16960"/><use xlink:href="#B8oBTuV_nPvy_pad-15" x="20726" y="16960"/><use xlink:href="#B8oBTuV_nPvy_pad-15" x="19456" y="16960"/><use xlink:href="#B8oBTuV_nPvy_pad-16" x="15977" y="9441"/><use xlink:href="#B8oBTuV_nPvy_pad-16" x="17856" y="9441"/><use xlink:href="#B8oBTuV_nPvy_pad-16" x="10236" y="9441"/><use xlink:href="#B8oBTuV_nPvy_pad-16" x="8357" y="9441"/><use xlink:href="#B8oBTuV_nPvy_pad-17" x="15494" y="17239"/><use xlink:href="#B8oBTuV_nPvy_pad-17" x="22123" y="15410"/><use xlink:href="#B8oBTuV_nPvy_pad-17" x="20066" y="18382"/><use xlink:href="#B8oBTuV_nPvy_pad-17" x="10693" y="11067"/><use xlink:href="#B8oBTuV_nPvy_pad-17" x="17551" y="11067"/></g><g id="pcb-stackup_top_drl1"><use xlink:href="#w2m3xIYLbW5S_pad-1" x="15494" y="17239"/><use xlink:href="#w2m3xIYLbW5S_pad-1" x="22123" y="15410"/><use xlink:href="#w2m3xIYLbW5S_pad-1" x="20066" y="18382"/><use xlink:href="#w2m3xIYLbW5S_pad-1" x="10693" y="11067"/><use xlink:href="#w2m3xIYLbW5S_pad-1" x="17551" y="11067"/><use xlink:href="#w2m3xIYLbW5S_pad-2" x="28981" y="10711"/><use xlink:href="#w2m3xIYLbW5S_pad-2" x="26441" y="10711"/><use xlink:href="#w2m3xIYLbW5S_pad-2" x="28981" y="13251"/><use xlink:href="#w2m3xIYLbW5S_pad-2" x="26441" y="13251"/><use xlink:href="#w2m3xIYLbW5S_pad-2" x="28981" y="15791"/><use xlink:href="#w2m3xIYLbW5S_pad-2" x="26441" y="15791"/><use xlink:href="#w2m3xIYLbW5S_pad-2" x="9296" y="6901"/><use xlink:href="#w2m3xIYLbW5S_pad-2" x="11836" y="6901"/><use xlink:href="#w2m3xIYLbW5S_pad-2" x="14376" y="6901"/><use xlink:href="#w2m3xIYLbW5S_pad-2" x="16916" y="6901"/><use xlink:href="#w2m3xIYLbW5S_pad-2" x="9931" y="18966"/><use xlink:href="#w2m3xIYLbW5S_pad-2" x="12471" y="18966"/><use xlink:href="#w2m3xIYLbW5S_pad-2" x="15011" y="18966"/><use xlink:href="#w2m3xIYLbW5S_pad-2" x="17551" y="18966"/><use xlink:href="#w2m3xIYLbW5S_pad-3" x="27406" y="19406"/><use xlink:href="#w2m3xIYLbW5S_pad-3" x="27406" y="7406"/></g><g id="pcb-stackup_top_drl2" transform="scale(25.4,25.4)"/><clipPath id="pcb-stackup_top_out"><path d="M 5486 18331 8026 20871 28981 20871 31521 18331 31521 10711 31519 10561 31513 10412 31503 10263 31490 10114 31472 9965 31451 9817 31425 9670 31396 9523 31363 9377 31326 9232 31286 9088 31241 8945 31193 8803 31141 8663 31086 8524 31027 8387 30964 8251 30898 8116 30828 7984 30755 7854 30679 7725 30599 7598 30516 7474 30430 7352 30340 7232 30247 7114 30152 6999 30053 6887 29952 6777 29847 6670 29740 6565 29630 6464 29518 6365 29403 6270 29285 6177 29165 6087 29043 6001 28919 5918 28792 5838 28664 5762 28533 5689 28401 5619 28266 5553 28130 5490 27993 5431 27854 5376 27714 5324 27572 5276 27429 5231 27285 5191 27140 5154 26994 5121 26847 5092 26700 5066 26552 5045 26403 5027 26254 5014 26105 5004 25956 4998 25806 4996 5486 4996 5486 18331 M 26467 18095 26467 17815 26560 17722 26840 17722 26840 18095 M 27401 18281 27401 17722 27121 17722 27028 17815 27028 18001 27121 18095 27401 18095 M 27589 18095 27962 17722 M 27589 17722 27962 18095 M 28151 17722 28430 17722 28524 17815 28430 17908 28244 17908 28151 18001 28244 18095 28524 18095 M 28712 17722 28712 17815 28805 17815 28805 17722 28712 17722 M 28993 17722 28993 18095 29086 18095 29179 18001 29179 17722 M 29179 18001 29272 18095 29366 18001 29366 17722 M 29834 17722 29647 17722 29554 17815 29554 18001 29647 18095 29834 18095 29927 18001 29927 17908 29554 17908 M 26406 19406 26408 19469 26414 19531 26424 19593 26437 19655 26455 19715 26476 19774 26501 19832 26530 19888 26562 19942 26597 19994 26635 20043 26677 20091 26721 20135 26769 20177 26818 20215 26870 20250 26924 20282 26980 20311 27038 20336 27097 20357 27157 20375 27219 20388 27281 20398 27343 20404 27406 20406 27469 20404 27531 20398 27593 20388 27655 20375 27715 20357 27774 20336 27832 20311 27888 20282 27942 20250 27994 20215 28043 20177 28091 20135 28135 20091 28177 20043 28215 19994 28250 19942 28282 19888 28311 19832 28336 19774 28357 19715 28375 19655 28388 19593 28398 19531 28404 19469 28406 19406 28404 19343 28398 19281 28388 19219 28375 19157 28357 19097 28336 19038 28311 18980 28282 18924 28250 18870 28215 18818 28177 18769 28135 18721 28091 18677 28043 18635 27994 18597 27942 18562 27888 18530 27832 18501 27774 18476 27715 18455 27655 18437 27593 18424 27531 18414 27469 18408 27406 18406 27343 18408 27281 18414 27219 18424 27157 18437 27097 18455 27038 18476 26980 18501 26924 18530 26870 18562 26818 18597 26769 18635 26721 18677 26677 18721 26635 18769 26597 18818 26562 18870 26530 18924 26501 18980 26476 19038 26455 19097 26437 19157 26424 19219 26414 19281 26408 19343 26406 19406 M 26406 7406 26408 7469 26414 7531 26424 7593 26437 7655 26455 7715 26476 7774 26501 7832 26530 7888 26562 7942 26597 7994 26635 8043 26677 8091 26721 8135 26769 8177 26818 8215 26870 8250 26924 8282 26980 8311 27038 8336 27097 8357 27157 8375 27219 8388 27281 8398 27343 8404 27406 8406 27469 8404 27531 8398 27593 8388 27655 8375 27715 8357 27774 8336 27832 8311 27888 8282 27942 8250 27994 8215 28043 8177 28091 8135 28135 8091 28177 8043 28215 7994 28250 7942 28282 7888 28311 7832 28336 7774 28357 7715 28375 7655 28388 7593 28398 7531 28404 7469 28406 7406 28404 7343 28398 7281 28388 7219 28375 7157 28357 7097 28336 7038 28311 6980 28282 6924 28250 6870 28215 6818 28177 6769 28135 6721 28091 6677 28043 6635 27994 6597 27942 6562 27888 6530 27832 6501 27774 6476 27715 6455 27655 6437 27593 6424 27531 6414 27469 6408 27406 6406 27343 6408 27281 6414 27219 6424 27157 6437 27097 6455 27038 6476 26980 6501 26924 6530 26870 6562 26818 6597 26769 6635 26721 6677 26677 6721 26635 6769 26597 6818 26562 6870 26530 6924 26501 6980 26476 7038 26455 7097 26437 7157 26424 7219 26414 7281 26408 7343 26406 7406" fill="none" stroke-width="305"/></clipPath><mask id="pcb-stackup_top_mech-mask"><g fill="#000" stroke="#000"><rect x="5486" y="4996" width="26035" height="15875" fill="#fff"/><use xlink:href="#pcb-stackup_top_drl1"/><use xlink:href="#pcb-stackup_top_drl2"/></g></mask><mask id="pcb-stackup_top_cf-mask"><g fill="#fff" stroke="#fff"><use xlink:href="#pcb-stackup_top_sm"/></g></mask><mask id="pcb-stackup_top_sm-mask"><g fill="#000" stroke="#000"><rect x="5486" y="4996" width="26035" height="15875" fill="#fff"/><use xlink:href="#pcb-stackup_top_sm"/></g></mask></defs><g transform="translate(0,25867) scale(1,-1)"><g mask="url(#pcb-stackup_top_mech-mask)" clip-path="url(#pcb-stackup_top_out)"><rect x="5486" y="4996" width="26035" height="15875" fill="currentColor" class="pcb-stackup_fr4"/><use xlink:href="#pcb-stackup_top_cu" fill="currentColor" stroke="currentColor" class="pcb-stackup_cu"/><use xlink:href="#pcb-stackup_top_cu" fill="currentColor" stroke="currentColor" class="pcb-stackup_cf" mask="url(#pcb-stackup_top_cf-mask)"/><g mask="url(#pcb-stackup_top_sm-mask)"><rect x="5486" y="4996" width="26035" height="15875" fill="currentColor" class="pcb-stackup_sm"/><use xlink:href="#pcb-stackup_top_ss" fill="currentColor" stroke="currentColor" class="pcb-stackup_ss"/></g></g></g></svg>