<svg id="pcb-stackup_bottom" version="1.1" xmlns:xlink="http://www.w3.org/1999/xlink" stroke-linecap="round" stroke-linejoin="round" stroke-width="0" fill-rule="evenodd" clip-rule="evenodd" viewBox="186000 -157500 52500 13000" width="52.5mm" height="13mm" xmlns="http://www.w3.org/2000/svg"><defs><style>.pcb-stackup_fr4 {color: #4D542C;}
.pcb-stackup_cu {color: lightgrey;}
.pcb-stackup_cf {color: silver;}
.pcb-stackup_sm {color: #000000; opacity: 0.9;}
.pcb-stackup_ss {color: white;}
.pcb-stackup_sp {color: #000000; opacity: 0;}
.pcb-stackup_out {color: black;}</style><circle cx="0" cy="0" r="698.5" id="L5YL042GE4u1_pad-12"/><circle cx="0" cy="0" r="1125" id="L5YL042GE4u1_pad-13"/><rect x="-1000" y="-1000" width="2000" height="2000" id="L5YL042GE4u1_pad-14"/><circle cx="0" cy="0" r="875" id="L5YL042GE4u1_pad-15"/><rect x="-875" y="-875" width="1750" height="1750" id="L5YL042GE4u1_pad-16"/><circle cx="0" cy="0" r="698.5" id="L5YL042GE4u1_pad-12"/><circle cx="0" cy="0" r="1125" id="L5YL042GE4u1_pad-13"/><rect x="-1000" y="-1000" width="2000" height="2000" id="L5YL042GE4u1_pad-14"/><circle cx="0" cy="0" r="875" id="L5YL042GE4u1_pad-15"/><rect x="-875" y="-875" width="1750" height="1750" id="L5YL042GE4u1_pad-16"/><circle cx="0" cy="0" r="698.5" id="HkLkpOU2H2uM_pad-11"/><circle cx="0" cy="0" r="1125" id="HkLkpOU2H2uM_pad-12"/><rect x="-1200" y="-1200" width="2400" height="2400" id="HkLkpOU2H2uM_pad-13"/><circle cx="0" cy="0" r="750" id="HkLkpOU2H2uM_pad-14"/><circle cx="0" cy="0" r="1500" id="HkLkpOU2H2uM_pad-15"/><circle cx="0" cy="0" r="875" id="HkLkpOU2H2uM_pad-16"/><rect x="-875" y="-875" width="1750" height="1750" id="HkLkpOU2H2uM_pad-17"/><circle cx="0" cy="0" r="698.5" id="L5YL042GE4u1_pad-12"/><circle cx="0" cy="0" r="1125" id="L5YL042GE4u1_pad-13"/><rect x="-1000" y="-1000" width="2000" height="2000" id="L5YL042GE4u1_pad-14"/><circle cx="0" cy="0" r="875" id="L5YL042GE4u1_pad-15"/><rect x="-875" y="-875" width="1750" height="1750" id="L5YL042GE4u1_pad-16"/><circle cx="0" cy="0" r="698.5" id="L5YL042GE4u1_pad-12"/><circle cx="0" cy="0" r="1125" id="L5YL042GE4u1_pad-13"/><rect x="-1000" y="-1000" width="2000" height="2000" id="L5YL042GE4u1_pad-14"/><circle cx="0" cy="0" r="875" id="L5YL042GE4u1_pad-15"/><rect x="-875" y="-875" width="1750" height="1750" id="L5YL042GE4u1_pad-16"/><circle cx="0" cy="0" r="698.5" id="HkLkpOU2H2uM_pad-11"/><circle cx="0" cy="0" r="1125" id="HkLkpOU2H2uM_pad-12"/><rect x="-1200" y="-1200" width="2400" height="2400" id="HkLkpOU2H2uM_pad-13"/><circle cx="0" cy="0" r="750" id="HkLkpOU2H2uM_pad-14"/><circle cx="0" cy="0" r="1500" id="HkLkpOU2H2uM_pad-15"/><circle cx="0" cy="0" r="875" id="HkLkpOU2H2uM_pad-16"/><rect x="-875" y="-875" width="1750" height="1750" id="HkLkpOU2H2uM_pad-17"/><circle cx="0" cy="0" r="698.5" id="L5YL042GE4u1_pad-12"/><circle cx="0" cy="0" r="1125" id="L5YL042GE4u1_pad-13"/><rect x="-1000" y="-1000" width="2000" height="2000" id="L5YL042GE4u1_pad-14"/><circle cx="0" cy="0" r="875" id="L5YL042GE4u1_pad-15"/><rect x="-875" y="-875" width="1750" height="1750" id="L5YL042GE4u1_pad-16"/><circle cx="0" cy="0" r="698.5" id="L5YL042GE4u1_pad-12"/><circle cx="0" cy="0" r="1125" id="L5YL042GE4u1_pad-13"/><rect x="-1000" y="-1000" width="2000" height="2000" id="L5YL042GE4u1_pad-14"/><circle cx="0" cy="0" r="875" id="L5YL042GE4u1_pad-15"/><rect x="-875" y="-875" width="1750" height="1750" id="L5YL042GE4u1_pad-16"/><circle cx="0" cy="0" r="698.5" id="HkLkpOU2H2uM_pad-11"/><circle cx="0" cy="0" r="1125" id="HkLkpOU2H2uM_pad-12"/><rect x="-1200" y="-1200" width="2400" height="2400" id="HkLkpOU2H2uM_pad-13"/><circle cx="0" cy="0" r="750" id="HkLkpOU2H2uM_pad-14"/><circle cx="0" cy="0" r="1500" id="HkLkpOU2H2uM_pad-15"/><circle cx="0" cy="0" r="875" id="HkLkpOU2H2uM_pad-16"/><rect x="-875" y="-875" width="1750" height="1750" id="HkLkpOU2H2uM_pad-17"/><circle cx="0" cy="0" r="698.5" id="L5YL042GE4u1_pad-12"/><circle cx="0" cy="0" r="1125" id="L5YL042GE4u1_pad-13"/><rect x="-1000" y="-1000" width="2000" height="2000" id="L5YL042GE4u1_pad-14"/><circle cx="0" cy="0" r="875" id="L5YL042GE4u1_pad-15"/><rect x="-875" y="-875" width="1750" height="1750" id="L5YL042GE4u1_pad-16"/><circle cx="0" cy="0" r="698.5" id="L5YL042GE4u1_pad-12"/><circle cx="0" cy="0" r="1125" id="L5YL042GE4u1_pad-13"/><rect x="-1000" y="-1000" width="2000" height="2000" id="L5YL042GE4u1_pad-14"/><circle cx="0" cy="0" r="875" id="L5YL042GE4u1_pad-15"/><rect x="-875" y="-875" width="1750" height="1750" id="L5YL042GE4u1_pad-16"/><circle cx="0" cy="0" r="698.5" id="HkLkpOU2H2uM_pad-11"/><circle cx="0" cy="0" r="1125" id="HkLkpOU2H2uM_pad-12"/><rect x="-1200" y="-1200" width="2400" height="2400" id="HkLkpOU2H2uM_pad-13"/><circle cx="0" cy="0" r="750" id="HkLkpOU2H2uM_pad-14"/><circle cx="0" cy="0" r="1500" id="HkLkpOU2H2uM_pad-15"/><circle cx="0" cy="0" r="875" id="HkLkpOU2H2uM_pad-16"/><rect x="-875" y="-875" width="1750" height="1750" id="HkLkpOU2H2uM_pad-17"/><circle cx="0" cy="0" r="406.5" id="uqfQ_sZIDaxK_pad-1"/><circle cx="0" cy="0" r="500" id="uqfQ_sZIDaxK_pad-2"/><circle cx="0" cy="0" r="750" id="uqfQ_sZIDaxK_pad-3"/><circle cx="0" cy="0" r="1500" id="uqfQ_sZIDaxK_pad-4"/><circle cx="0" cy="0" r="698.5" id="L5YL042GE4u1_pad-12"/><circle cx="0" cy="0" r="1125" id="L5YL042GE4u1_pad-13"/><rect x="-1000" y="-1000" width="2000" height="2000" id="L5YL042GE4u1_pad-14"/><circle cx="0" cy="0" r="875" id="L5YL042GE4u1_pad-15"/><rect x="-875" y="-875" width="1750" height="1750" id="L5YL042GE4u1_pad-16"/><circle cx="0" cy="0" r="698.5" id="L5YL042GE4u1_pad-12"/><circle cx="0" cy="0" r="1125" id="L5YL042GE4u1_pad-13"/><rect x="-1000" y="-1000" width="2000" height="2000" id="L5YL042GE4u1_pad-14"/><circle cx="0" cy="0" r="875" id="L5YL042GE4u1_pad-15"/><rect x="-875" y="-875" width="1750" height="1750" id="L5YL042GE4u1_pad-16"/><circle cx="0" cy="0" r="698.5" id="HkLkpOU2H2uM_pad-11"/><circle cx="0" cy="0" r="1125" id="HkLkpOU2H2uM_pad-12"/><rect x="-1200" y="-1200" width="2400" height="2400" id="HkLkpOU2H2uM_pad-13"/><circle cx="0" cy="0" r="750" id="HkLkpOU2H2uM_pad-14"/><circle cx="0" cy="0" r="1500" id="HkLkpOU2H2uM_pad-15"/><circle cx="0" cy="0" r="875" id="HkLkpOU2H2uM_pad-16"/><rect x="-875" y="-875" width="1750" height="1750" id="HkLkpOU2H2uM_pad-17"/><circle cx="0" cy="0" r="698.5" id="L5YL042GE4u1_pad-12"/><circle cx="0" cy="0" r="1125" id="L5YL042GE4u1_pad-13"/><rect x="-1000" y="-1000" width="2000" height="2000" id="L5YL042GE4u1_pad-14"/><circle cx="0" cy="0" r="875" id="L5YL042GE4u1_pad-15"/><rect x="-875" y="-875" width="1750" height="1750" id="L5YL042GE4u1_pad-16"/><circle cx="0" cy="0" r="698.5" id="L5YL042GE4u1_pad-12"/><circle cx="0" cy="0" r="1125" id="L5YL042GE4u1_pad-13"/><rect x="-1000" y="-1000" width="2000" height="2000" id="L5YL042GE4u1_pad-14"/><circle cx="0" cy="0" r="875" id="L5YL042GE4u1_pad-15"/><rect x="-875" y="-875" width="1750" height="1750" id="L5YL042GE4u1_pad-16"/><circle cx="0" cy="0" r="698.5" id="HkLkpOU2H2uM_pad-11"/><circle cx="0" cy="0" r="1125" id="HkLkpOU2H2uM_pad-12"/><rect x="-1200" y="-1200" width="2400" height="2400" id="HkLkpOU2H2uM_pad-13"/><circle cx="0" cy="0" r="750" id="HkLkpOU2H2uM_pad-14"/><circle cx="0" cy="0" r="1500" id="HkLkpOU2H2uM_pad-15"/><circle cx="0" cy="0" r="875" id="HkLkpOU2H2uM_pad-16"/><rect x="-875" y="-875" width="1750" height="1750" id="HkLkpOU2H2uM_pad-17"/><circle cx="0" cy="0" r="698.5" id="L5YL042GE4u1_pad-12"/><circle cx="0" cy="0" r="1125" id="L5YL042GE4u1_pad-13"/><rect x="-1000" y="-1000" width="2000" height="2000" id="L5YL042GE4u1_pad-14"/><circle cx="0" cy="0" r="875" id="L5YL042GE4u1_pad-15"/><rect x="-875" y="-875" width="1750" height="1750" id="L5YL042GE4u1_pad-16"/><circle cx="0" cy="0" r="698.5" id="L5YL042GE4u1_pad-12"/><circle cx="0" cy="0" r="1125" id="L5YL042GE4u1_pad-13"/><rect x="-1000" y="-1000" width="2000" height="2000" id="L5YL042GE4u1_pad-14"/><circle cx="0" cy="0" r="875" id="L5YL042GE4u1_pad-15"/><rect x="-875" y="-875" width="1750" height="1750" id="L5YL042GE4u1_pad-16"/><circle cx="0" cy="0" r="698.5" id="HkLkpOU2H2uM_pad-11"/><circle cx="0" cy="0" r="1125" id="HkLkpOU2H2uM_pad-12"/><rect x="-1200" y="-1200" width="2400" height="2400" id="HkLkpOU2H2uM_pad-13"/><circle cx="0" cy="0" r="750" id="HkLkpOU2H2uM_pad-14"/><circle cx="0" cy="0" r="1500" id="HkLkpOU2H2uM_pad-15"/><circle cx="0" cy="0" r="875" id="HkLkpOU2H2uM_pad-16"/><rect x="-875" y="-875" width="1750" height="1750" id="HkLkpOU2H2uM_pad-17"/><circle cx="0" cy="0" r="698.5" id="L5YL042GE4u1_pad-12"/><circle cx="0" cy="0" r="1125" id="L5YL042GE4u1_pad-13"/><rect x="-1000" y="-1000" width="2000" height="2000" id="L5YL042GE4u1_pad-14"/><circle cx="0" cy="0" r="875" id="L5YL042GE4u1_pad-15"/><rect x="-875" y="-875" width="1750" height="1750" id="L5YL042GE4u1_pad-16"/><circle cx="0" cy="0" r="698.5" id="L5YL042GE4u1_pad-12"/><circle cx="0" cy="0" r="1125" id="L5YL042GE4u1_pad-13"/><rect x="-1000" y="-1000" width="2000" height="2000" id="L5YL042GE4u1_pad-14"/><circle cx="0" cy="0" r="875" id="L5YL042GE4u1_pad-15"/><rect x="-875" y="-875" width="1750" height="1750" id="L5YL042GE4u1_pad-16"/><circle cx="0" cy="0" r="698.5" id="HkLkpOU2H2uM_pad-11"/><circle cx="0" cy="0" r="1125" id="HkLkpOU2H2uM_pad-12"/><rect x="-1200" y="-1200" width="2400" height="2400" id="HkLkpOU2H2uM_pad-13"/><circle cx="0" cy="0" r="750" id="HkLkpOU2H2uM_pad-14"/><circle cx="0" cy="0" r="1500" id="HkLkpOU2H2uM_pad-15"/><circle cx="0" cy="0" r="875" id="HkLkpOU2H2uM_pad-16"/><rect x="-875" y="-875" width="1750" height="1750" id="HkLkpOU2H2uM_pad-17"/><circle cx="0" cy="0" r="406.5" id="uqfQ_sZIDaxK_pad-1"/><circle cx="0" cy="0" r="500" id="uqfQ_sZIDaxK_pad-2"/><circle cx="0" cy="0" r="750" id="uqfQ_sZIDaxK_pad-3"/><circle cx="0" cy="0" r="1500" id="uqfQ_sZIDaxK_pad-4"/><g id="pcb-stackup_bottom_cu"><path d="M 219192 -148290 219192 -150830" fill="none" stroke-width="250"/><use xlink:href="#L5YL042GE4u1_pad-12" x="215128" y="-147020"/><use xlink:href="#L5YL042GE4u1_pad-12" x="215128" y="-154640"/><use xlink:href="#L5YL042GE4u1_pad-13" x="200650" y="-148290"/><use xlink:href="#L5YL042GE4u1_pad-14" x="200650" y="-153370"/><use xlink:href="#L5YL042GE4u1_pad-13" x="223510" y="-148290"/><use xlink:href="#L5YL042GE4u1_pad-14" x="223510" y="-153370"/><use xlink:href="#L5YL042GE4u1_pad-15" x="219192" y="-150830"/><use xlink:href="#L5YL042GE4u1_pad-16" x="219192" y="-153370"/><use xlink:href="#L5YL042GE4u1_pad-15" x="219192" y="-148290"/><use xlink:href="#L5YL042GE4u1_pad-16" x="204714" y="-154640"/><use xlink:href="#L5YL042GE4u1_pad-15" x="204714" y="-147020"/><use xlink:href="#L5YL042GE4u1_pad-16" x="208270" y="-147020"/><use xlink:href="#L5YL042GE4u1_pad-15" x="208270" y="-154640"/><use xlink:href="#L5YL042GE4u1_pad-16" x="211826" y="-147020"/><use xlink:href="#L5YL042GE4u1_pad-15" x="211826" y="-154640"/><path d="M 200650 -153370 200650 -153116 M 205476 -151846 208270 -154640 M 201920 -151846 205476 -151846 M 200650 -153116 201920 -151846 M 208270 -154640 215128 -154640 217160 -154640 218430 -153370 223510 -153370 M 200650 -148290 201920 -148290 M 203190 -147020 204714 -147020 M 201920 -148290 203190 -147020 M 223510 -148290 219192 -148290 217922 -147020 215128 -147020 M 208270 -147020 211826 -147020 215128 -147020 215128 -147020" fill="none" stroke-width="520"/></g><g id="pcb-stackup_bottom_sm"><use xlink:href="#HkLkpOU2H2uM_pad-11" x="215128" y="-147020"/><use xlink:href="#HkLkpOU2H2uM_pad-11" x="215128" y="-154640"/><use xlink:href="#HkLkpOU2H2uM_pad-12" x="200650" y="-148290"/><use xlink:href="#HkLkpOU2H2uM_pad-13" x="200650" y="-153370"/><use xlink:href="#HkLkpOU2H2uM_pad-14" x="198110" y="-148290"/><use xlink:href="#HkLkpOU2H2uM_pad-14" x="198110" y="-153370"/><use xlink:href="#HkLkpOU2H2uM_pad-12" x="223510" y="-148290"/><use xlink:href="#HkLkpOU2H2uM_pad-13" x="223510" y="-153370"/><use xlink:href="#HkLkpOU2H2uM_pad-14" x="226050" y="-147655"/><use xlink:href="#HkLkpOU2H2uM_pad-14" x="226050" y="-154005"/><use xlink:href="#HkLkpOU2H2uM_pad-15" x="226050" y="-150830"/><use xlink:href="#HkLkpOU2H2uM_pad-16" x="219192" y="-150830"/><use xlink:href="#HkLkpOU2H2uM_pad-17" x="219192" y="-153370"/><use xlink:href="#HkLkpOU2H2uM_pad-16" x="219192" y="-148290"/><use xlink:href="#HkLkpOU2H2uM_pad-17" x="204714" y="-154640"/><use xlink:href="#HkLkpOU2H2uM_pad-16" x="204714" y="-147020"/><use xlink:href="#HkLkpOU2H2uM_pad-17" x="208270" y="-147020"/><use xlink:href="#HkLkpOU2H2uM_pad-16" x="208270" y="-154640"/><use xlink:href="#HkLkpOU2H2uM_pad-17" x="211826" y="-147020"/><use xlink:href="#HkLkpOU2H2uM_pad-16" x="211826" y="-154640"/></g><g id="pcb-stackup_bottom_ss"><path d="M 215689.881 -151352.381 215564.881 -150352.381 M 215683.928 -151304.762 215785.119 -151352.381 215975.596 -151352.381 216064.881 -151304.762 216106.548 -151257.143 216142.262 -151161.905 216106.548 -150876.19 216047.024 -150780.952 215993.453 -150733.333 215892.262 -150685.714 215701.785 -150685.714 215612.5 -150733.333 M 214826.785 -151304.762 214927.976 -151352.381 215118.453 -151352.381 215207.738 -151304.762 215243.452 -151209.524 215195.833 -150828.571 215136.31 -150733.333 215035.119 -150685.714 214844.642 -150685.714 214755.357 -150733.333 214719.642 -150828.571 214731.547 -150923.81 215219.643 -151019.048 M 214416.071 -150685.714 214035.119 -150685.714 M 214356.548 -151352.381 214249.405 -150495.238 214189.881 -150400 214088.691 -150352.381 213993.453 -150352.381 M 213701.785 -150685.714 213826.785 -151685.714 M 213707.738 -150733.333 213606.547 -150685.714 213416.07 -150685.714 213326.785 -150733.333 213285.118 -150780.952 213249.404 -150876.19 213285.118 -151161.905 213344.642 -151257.143 213398.213 -151304.762 213499.404 -151352.381 213689.881 -151352.381 213779.166 -151304.762 M 212880.357 -151352.381 212797.023 -150685.714 M 212820.833 -150876.19 212761.309 -150780.952 212707.738 -150733.333 212606.547 -150685.714 212511.308 -150685.714 M 212118.452 -151352.381 212207.737 -151304.762 212249.404 -151257.143 212285.118 -151161.905 212249.404 -150876.19 212189.88 -150780.952 212136.309 -150733.333 212035.118 -150685.714 211892.26 -150685.714 211802.975 -150733.333 211761.308 -150780.952 211725.594 -150876.19 211761.308 -151161.905 211820.832 -151257.143 211874.403 -151304.762 211975.594 -151352.381 212118.452 -151352.381 M 210922.022 -151304.762 211023.213 -151352.381 211213.69 -151352.381 211302.975 -151304.762 211344.642 -151257.143 211380.356 -151161.905 211344.642 -150876.19 211285.118 -150780.952 211231.547 -150733.333 211130.356 -150685.714 210939.879 -150685.714 210850.594 -150733.333 M 210487.499 -151257.143 210445.832 -151304.762 210499.404 -151352.381 210541.07 -151304.762 210487.499 -151257.143 210499.404 -151352.381 M 209588.689 -151304.762 209689.88 -151352.381 209880.357 -151352.381 209969.642 -151304.762 210011.309 -151257.143 210047.023 -151161.905 210011.309 -150876.19 209951.785 -150780.952 209898.214 -150733.333 209797.023 -150685.714 209606.546 -150685.714 209517.261 -150733.333 M 209023.214 -151352.381 209112.499 -151304.762 209154.166 -151257.143 209189.88 -151161.905 209154.166 -150876.19 209094.642 -150780.952 209041.071 -150733.333 208939.88 -150685.714 208797.022 -150685.714 208707.737 -150733.333 208666.07 -150780.952 208630.356 -150876.19 208666.07 -151161.905 208725.594 -151257.143 208779.165 -151304.762 208880.356 -151352.381 209023.214 -151352.381 M 208249.404 -151257.143 208207.737 -151304.762 208261.309 -151352.381 208302.975 -151304.762 208249.404 -151257.143 208261.309 -151352.381 M 207273.213 -150685.714 207356.547 -151352.381 M 207701.785 -150685.714 207767.261 -151209.524 207731.547 -151304.762 207642.262 -151352.381 207499.404 -151352.381 207398.213 -151304.762 207344.642 -151257.143 M 206880.357 -151352.381 206755.357 -150352.381 M 206737.5 -150971.429 206499.404 -151352.381 M 206416.07 -150685.714 206844.642 -151066.667 M 205225.594 -150304.762 206243.452 -151590.476 M 204939.88 -150685.714 205064.88 -151685.714 M 204945.833 -150733.333 204844.642 -150685.714 204654.165 -150685.714 204564.88 -150733.333 204523.213 -150780.952 204487.499 -150876.19 204523.213 -151161.905 204582.737 -151257.143 204636.308 -151304.762 204737.499 -151352.381 204927.976 -151352.381 205017.261 -151304.762 M 203273.213 -150304.762 204291.071 -151590.476 M 202987.499 -150685.714 203112.499 -151685.714 M 202993.452 -150733.333 202892.261 -150685.714 202701.784 -150685.714 202612.499 -150733.333 202570.832 -150780.952 202535.118 -150876.19 202570.832 -151161.905 202630.356 -151257.143 202683.927 -151304.762 202785.118 -151352.381 202975.595 -151352.381 203064.88 -151304.762 M 202166.071 -151352.381 202082.737 -150685.714 M 202041.071 -150352.381 202094.642 -150400 202052.975 -150447.619 201999.404 -150400 202041.071 -150352.381 202052.975 -150447.619 M 201302.975 -151304.762 201404.166 -151352.381 201594.643 -151352.381 201683.928 -151304.762 201719.642 -151209.524 201672.023 -150828.571 201612.5 -150733.333 201511.309 -150685.714 201320.832 -150685.714 201231.547 -150733.333 201195.832 -150828.571 201207.737 -150923.81 201695.833 -151019.048 M 200844.642 -150685.714 200320.832 -150685.714 200927.976 -151352.381 200404.166 -151352.381 M 199880.357 -151352.381 199969.642 -151304.762 200011.309 -151257.143 200047.023 -151161.905 200011.309 -150876.19 199951.785 -150780.952 199898.214 -150733.333 199797.023 -150685.714 199654.165 -150685.714 199564.88 -150733.333 199523.213 -150780.952 199487.499 -150876.19 199523.213 -151161.905 199582.737 -151257.143 199636.308 -151304.762 199737.499 -151352.381 199880.357 -151352.381 M 215947.025 -149552.381 215822.025 -148552.381 215441.072 -148552.381 215351.786 -148600 215310.119 -148647.619 215274.405 -148742.857 215292.262 -148885.714 215351.786 -148980.952 215405.357 -149028.571 215506.548 -149076.19 215887.501 -149076.19 M 214947.025 -149552.381 214863.691 -148885.714 M 214822.025 -148552.381 214875.596 -148600 214833.929 -148647.619 214780.358 -148600 214822.025 -148552.381 214833.929 -148647.619 M 214083.929 -149504.762 214185.12 -149552.381 214375.597 -149552.381 214464.882 -149504.762 214500.596 -149409.524 214452.977 -149028.571 214393.454 -148933.333 214292.263 -148885.714 214101.786 -148885.714 214012.501 -148933.333 213976.786 -149028.571 213988.691 -149123.81 214476.787 -149219.048 M 213625.596 -148885.714 213101.786 -148885.714 213708.93 -149552.381 213185.12 -149552.381 M 212661.311 -149552.381 212750.596 -149504.762 212792.263 -149457.143 212827.977 -149361.905 212792.263 -149076.19 212732.739 -148980.952 212679.168 -148933.333 212577.977 -148885.714 212435.119 -148885.714 212345.834 -148933.333 212304.167 -148980.952 212268.453 -149076.19 212304.167 -149361.905 212363.691 -149457.143 212417.262 -149504.762 212518.453 -149552.381 212661.311 -149552.381 M 211179.167 -149504.762 211042.263 -149552.381 210804.167 -149552.381 210702.976 -149504.762 210649.405 -149457.143 210589.881 -149361.905 210577.976 -149266.667 210613.691 -149171.429 210655.357 -149123.81 210744.643 -149076.19 210929.167 -149028.571 211018.453 -148980.952 211060.12 -148933.333 211095.834 -148838.095 211083.929 -148742.857 211024.405 -148647.619 210970.834 -148600 210869.644 -148552.381 210631.548 -148552.381 210494.643 -148600 M 209798.214 -149504.762 209899.405 -149552.381 210089.882 -149552.381 210179.167 -149504.762 210214.881 -149409.524 210167.262 -149028.571 210107.739 -148933.333 210006.548 -148885.714 209816.071 -148885.714 209726.786 -148933.333 209691.071 -149028.571 209702.976 -149123.81 210191.072 -149219.048 M 209244.643 -148885.714 209327.977 -149552.381 M 209256.548 -148980.952 209202.977 -148933.333 209101.786 -148885.714 208958.928 -148885.714 208869.643 -148933.333 208833.928 -149028.571 208899.405 -149552.381 M 208464.881 -149504.762 208375.596 -149552.381 208185.12 -149552.381 208083.928 -149504.762 208024.404 -149409.524 208018.452 -149361.905 208054.166 -149266.667 208143.453 -149219.048 208286.31 -149219.048 208375.596 -149171.429 208411.31 -149076.19 208405.357 -149028.571 208345.834 -148933.333 208244.643 -148885.714 208101.786 -148885.714 208012.5 -148933.333 M 207470.834 -149552.381 207560.119 -149504.762 207601.786 -149457.143 207637.5 -149361.905 207601.786 -149076.19 207542.262 -148980.952 207488.691 -148933.333 207387.5 -148885.714 207244.642 -148885.714 207155.357 -148933.333 207113.69 -148980.952 207077.976 -149076.19 207113.69 -149361.905 207173.214 -149457.143 207226.785 -149504.762 207327.976 -149552.381 207470.834 -149552.381 M 206708.929 -149552.381 206625.595 -148885.714 M 206649.405 -149076.19 206589.881 -148980.952 206536.31 -148933.333 206435.119 -148885.714 206339.88 -148885.714 M 224523.809 -146404.762 224380.952 -146452.381 224142.856 -146452.381 224047.618 -146404.762 223999.999 -146357.143 223952.38 -146261.905 223952.38 -146166.667 223999.999 -146071.429 224047.618 -146023.81 224142.856 -145976.19 224333.333 -145928.571 224428.571 -145880.952 224476.19 -145833.333 224523.809 -145738.095 224523.809 -145642.857 224476.19 -145547.619 224428.571 -145500 224333.333 -145452.381 224095.237 -145452.381 223952.38 -145500 M 223523.809 -146452.381 223523.809 -145452.381 M 222523.809 -145500 222619.047 -145452.381 222761.904 -145452.381 222904.762 -145500 223000 -145595.238 223047.619 -145690.476 223095.238 -145880.952 223095.238 -146023.81 223047.619 -146214.286 223000 -146309.524 222904.762 -146404.762 222761.904 -146452.381 222666.666 -146452.381 222523.809 -146404.762 222476.19 -146357.143 222476.19 -146023.81 222666.666 -146023.81 M 224261.904 -155500 224357.142 -155452.381 224499.999 -155452.381 224642.857 -155500 224738.095 -155595.238 224785.714 -155690.476 224833.333 -155880.952 224833.333 -156023.81 224785.714 -156214.286 224738.095 -156309.524 224642.857 -156404.762 224499.999 -156452.381 224404.761 -156452.381 224261.904 -156404.762 224214.285 -156357.143 224214.285 -156023.81 224404.761 -156023.81 M 223785.714 -156452.381 223785.714 -155452.381 223214.285 -156452.381 223214.285 -155452.381 M 222738.095 -156452.381 222738.095 -155452.381 222500 -155452.381 222357.142 -155500 222261.904 -155595.238 222214.285 -155690.476 222166.666 -155880.952 222166.666 -156023.81 222214.285 -156214.286 222261.904 -156309.524 222357.142 -156404.762 222500 -156452.381 222738.095 -156452.381 M 215932.739 -153152.381 215849.405 -152485.714 M 215873.215 -152676.19 215813.691 -152580.952 215760.12 -152533.333 215658.929 -152485.714 215563.69 -152485.714 M 214926.785 -153104.762 215027.976 -153152.381 215218.453 -153152.381 215307.738 -153104.762 215343.452 -153009.524 215295.833 -152628.571 215236.31 -152533.333 215135.119 -152485.714 214944.642 -152485.714 214855.357 -152533.333 214819.642 -152628.571 214831.547 -152723.81 215319.643 -152819.048 M 214468.452 -152485.714 214313.691 -153152.381 213992.261 -152485.714 M 213682.738 -153057.143 213641.071 -153104.762 213694.643 -153152.381 213736.309 -153104.762 213682.738 -153057.143 213694.643 -153152.381 M 212391.071 -152247.619 212337.5 -152200 212236.31 -152152.381 211998.214 -152152.381 211908.928 -152200 211867.261 -152247.619 211831.547 -152342.857 211843.452 -152438.095 211908.928 -152580.952 212551.786 -153152.381 211932.738 -153152.381" fill="none" stroke-width="200"/></g><g id="pcb-stackup_bottom_drl1"><use xlink:href="#uqfQ_sZIDaxK_pad-1" x="215128" y="-147020"/><use xlink:href="#uqfQ_sZIDaxK_pad-1" x="215128" y="-154640"/><use xlink:href="#uqfQ_sZIDaxK_pad-1" x="219192" y="-148290"/><use xlink:href="#uqfQ_sZIDaxK_pad-1" x="219192" y="-150830"/><use xlink:href="#uqfQ_sZIDaxK_pad-1" x="219192" y="-153370"/><use xlink:href="#uqfQ_sZIDaxK_pad-2" x="200650" y="-148290"/><use xlink:href="#uqfQ_sZIDaxK_pad-2" x="200650" y="-153370"/><use xlink:href="#uqfQ_sZIDaxK_pad-2" x="204714" y="-147020"/><use xlink:href="#uqfQ_sZIDaxK_pad-2" x="204714" y="-154640"/><use xlink:href="#uqfQ_sZIDaxK_pad-2" x="208270" y="-147020"/><use xlink:href="#uqfQ_sZIDaxK_pad-2" x="208270" y="-154640"/><use xlink:href="#uqfQ_sZIDaxK_pad-2" x="211826" y="-147020"/><use xlink:href="#uqfQ_sZIDaxK_pad-2" x="211826" y="-154640"/><use xlink:href="#uqfQ_sZIDaxK_pad-2" x="223510" y="-148290"/><use xlink:href="#uqfQ_sZIDaxK_pad-2" x="223510" y="-153370"/><use xlink:href="#uqfQ_sZIDaxK_pad-3" x="198110" y="-148290"/><use xlink:href="#uqfQ_sZIDaxK_pad-3" x="198110" y="-153370"/><use xlink:href="#uqfQ_sZIDaxK_pad-3" x="226050" y="-147655"/><use xlink:href="#uqfQ_sZIDaxK_pad-3" x="226050" y="-154005"/><use xlink:href="#uqfQ_sZIDaxK_pad-4" x="226050" y="-150830"/></g><clipPath id="pcb-stackup_bottom_out"><path d="M 238500 -149500 238500 -152500 A 5000 5000 0 0 0 233500 -157500 L 191000 -157500 A 5000 5000 0 0 0 186000 -152500 L 186000 -149500 A 5000 5000 0 0 0 191000 -144500 L 233500 -144500 A 5000 5000 0 0 0 238500 -149500 M 235000 -151000 A 3000 3000 0 0 1 229000 -151000 3000 3000 0 0 1 235000 -151000 M 195000 -151000 A 3000 3000 0 0 1 189000 -151000 3000 3000 0 0 1 195000 -151000" fill="none" stroke-width="200"/></clipPath><mask id="pcb-stackup_bottom_mech-mask"><g fill="#000" stroke="#000"><rect x="186000" y="-157500" width="52500" height="13000" fill="#fff"/><use xlink:href="#pcb-stackup_bottom_drl1"/></g></mask><mask id="pcb-stackup_bottom_cf-mask"><g fill="#fff" stroke="#fff"><use xlink:href="#pcb-stackup_bottom_sm"/></g></mask><mask id="pcb-stackup_bottom_sm-mask"><g fill="#000" stroke="#000"><rect x="186000" y="-157500" width="52500" height="13000" fill="#fff"/><use xlink:href="#pcb-stackup_bottom_sm"/></g></mask></defs><g transform="translate(0,-302000) scale(1,-1)"><g mask="url(#pcb-stackup_bottom_mech-mask)" clip-path="url(#pcb-stackup_bottom_out)" transform="translate(424500,0) scale(-1,1)"><rect x="186000" y="-157500" width="52500" height="13000" fill="currentColor" class="pcb-stackup_fr4"/><use xlink:href="#pcb-stackup_bottom_cu" fill="currentColor" stroke="currentColor" class="pcb-stackup_cu"/><use xlink:href="#pcb-stackup_bottom_cu" fill="currentColor" stroke="currentColor" class="pcb-stackup_cf" mask="url(#pcb-stackup_bottom_cf-mask)"/><g mask="url(#pcb-stackup_bottom_sm-mask)"><rect x="186000" y="-157500" width="52500" height="13000" fill="currentColor" class="pcb-stackup_sm"/><use xlink:href="#pcb-stackup_bottom_ss" fill="currentColor" stroke="currentColor" class="pcb-stackup_ss"/></g></g></g></svg>