<svg id="pcb-stackup_top" version="1.1" xmlns:xlink="http://www.w3.org/1999/xlink" stroke-linecap="round" stroke-linejoin="round" stroke-width="0" fill-rule="evenodd" clip-rule="evenodd" viewBox="186000 -157500 52500 13000" width="52.5mm" height="13mm" xmlns="http://www.w3.org/2000/svg"><defs><style>.pcb-stackup_fr4 {color: #4D542C;}
.pcb-stackup_cu {color: lightgrey;}
.pcb-stackup_cf {color: silver;}
.pcb-stackup_sm {color: #000000; opacity: 0.9;}
.pcb-stackup_ss {color: white;}
.pcb-stackup_sp {color: #000000; opacity: 0;}
.pcb-stackup_out {color: black;}</style><circle cx="0" cy="0" r="698.5" id="_iHWIwgm3j3k_pad-11"/><circle cx="0" cy="0" r="1125" id="_iHWIwgm3j3k_pad-12"/><rect x="-1000" y="-1000" width="2000" height="2000" id="_iHWIwgm3j3k_pad-13"/><circle cx="0" cy="0" r="875" id="_iHWIwgm3j3k_pad-14"/><rect x="-875" y="-875" width="1750" height="1750" id="_iHWIwgm3j3k_pad-15"/><circle cx="0" cy="0" r="698.5" id="_iHWIwgm3j3k_pad-11"/><circle cx="0" cy="0" r="1125" id="_iHWIwgm3j3k_pad-12"/><rect x="-1000" y="-1000" width="2000" height="2000" id="_iHWIwgm3j3k_pad-13"/><circle cx="0" cy="0" r="875" id="_iHWIwgm3j3k_pad-14"/><rect x="-875" y="-875" width="1750" height="1750" id="_iHWIwgm3j3k_pad-15"/><circle cx="0" cy="0" r="698.5" id="hP027YvT4Vkr_pad-11"/><circle cx="0" cy="0" r="1125" id="hP027YvT4Vkr_pad-12"/><rect x="-1200" y="-1200" width="2400" height="2400" id="hP027YvT4Vkr_pad-13"/><circle cx="0" cy="0" r="750" id="hP027YvT4Vkr_pad-14"/><circle cx="0" cy="0" r="1500" id="hP027YvT4Vkr_pad-15"/><circle cx="0" cy="0" r="875" id="hP027YvT4Vkr_pad-16"/><rect x="-875" y="-875" width="1750" height="1750" id="hP027YvT4Vkr_pad-17"/><circle cx="0" cy="0" r="698.5" id="_iHWIwgm3j3k_pad-11"/><circle cx="0" cy="0" r="1125" id="_iHWIwgm3j3k_pad-12"/><rect x="-1000" y="-1000" width="2000" height="2000" id="_iHWIwgm3j3k_pad-13"/><circle cx="0" cy="0" r="875" id="_iHWIwgm3j3k_pad-14"/><rect x="-875" y="-875" width="1750" height="1750" id="_iHWIwgm3j3k_pad-15"/><circle cx="0" cy="0" r="698.5" id="_iHWIwgm3j3k_pad-11"/><circle cx="0" cy="0" r="1125" id="_iHWIwgm3j3k_pad-12"/><rect x="-1000" y="-1000" width="2000" height="2000" id="_iHWIwgm3j3k_pad-13"/><circle cx="0" cy="0" r="875" id="_iHWIwgm3j3k_pad-14"/><rect x="-875" y="-875" width="1750" height="1750" id="_iHWIwgm3j3k_pad-15"/><circle cx="0" cy="0" r="698.5" id="hP027YvT4Vkr_pad-11"/><circle cx="0" cy="0" r="1125" id="hP027YvT4Vkr_pad-12"/><rect x="-1200" y="-1200" width="2400" height="2400" id="hP027YvT4Vkr_pad-13"/><circle cx="0" cy="0" r="750" id="hP027YvT4Vkr_pad-14"/><circle cx="0" cy="0" r="1500" id="hP027YvT4Vkr_pad-15"/><circle cx="0" cy="0" r="875" id="hP027YvT4Vkr_pad-16"/><rect x="-875" y="-875" width="1750" height="1750" id="hP027YvT4Vkr_pad-17"/><circle cx="0" cy="0" r="698.5" id="_iHWIwgm3j3k_pad-11"/><circle cx="0" cy="0" r="1125" id="_iHWIwgm3j3k_pad-12"/><rect x="-1000" y="-1000" width="2000" height="2000" id="_iHWIwgm3j3k_pad-13"/><circle cx="0" cy="0" r="875" id="_iHWIwgm3j3k_pad-14"/><rect x="-875" y="-875" width="1750" height="1750" id="_iHWIwgm3j3k_pad-15"/><circle cx="0" cy="0" r="698.5" id="_iHWIwgm3j3k_pad-11"/><circle cx="0" cy="0" r="1125" id="_iHWIwgm3j3k_pad-12"/><rect x="-1000" y="-1000" width="2000" height="2000" id="_iHWIwgm3j3k_pad-13"/><circle cx="0" cy="0" r="875" id="_iHWIwgm3j3k_pad-14"/><rect x="-875" y="-875" width="1750" height="1750" id="_iHWIwgm3j3k_pad-15"/><circle cx="0" cy="0" r="698.5" id="hP027YvT4Vkr_pad-11"/><circle cx="0" cy="0" r="1125" id="hP027YvT4Vkr_pad-12"/><rect x="-1200" y="-1200" width="2400" height="2400" id="hP027YvT4Vkr_pad-13"/><circle cx="0" cy="0" r="750" id="hP027YvT4Vkr_pad-14"/><circle cx="0" cy="0" r="1500" id="hP027YvT4Vkr_pad-15"/><circle cx="0" cy="0" r="875" id="hP027YvT4Vkr_pad-16"/><rect x="-875" y="-875" width="1750" height="1750" id="hP027YvT4Vkr_pad-17"/><circle cx="0" cy="0" r="698.5" id="_iHWIwgm3j3k_pad-11"/><circle cx="0" cy="0" r="1125" id="_iHWIwgm3j3k_pad-12"/><rect x="-1000" y="-1000" width="2000" height="2000" id="_iHWIwgm3j3k_pad-13"/><circle cx="0" cy="0" r="875" id="_iHWIwgm3j3k_pad-14"/><rect x="-875" y="-875" width="1750" height="1750" id="_iHWIwgm3j3k_pad-15"/><circle cx="0" cy="0" r="698.5" id="_iHWIwgm3j3k_pad-11"/><circle cx="0" cy="0" r="1125" id="_iHWIwgm3j3k_pad-12"/><rect x="-1000" y="-1000" width="2000" height="2000" id="_iHWIwgm3j3k_pad-13"/><circle cx="0" cy="0" r="875" id="_iHWIwgm3j3k_pad-14"/><rect x="-875" y="-875" width="1750" height="1750" id="_iHWIwgm3j3k_pad-15"/><circle cx="0" cy="0" r="698.5" id="hP027YvT4Vkr_pad-11"/><circle cx="0" cy="0" r="1125" id="hP027YvT4Vkr_pad-12"/><rect x="-1200" y="-1200" width="2400" height="2400" id="hP027YvT4Vkr_pad-13"/><circle cx="0" cy="0" r="750" id="hP027YvT4Vkr_pad-14"/><circle cx="0" cy="0" r="1500" id="hP027YvT4Vkr_pad-15"/><circle cx="0" cy="0" r="875" id="hP027YvT4Vkr_pad-16"/><rect x="-875" y="-875" width="1750" height="1750" id="hP027YvT4Vkr_pad-17"/><circle cx="0" cy="0" r="406.5" id="uqfQ_sZIDaxK_pad-1"/><circle cx="0" cy="0" r="500" id="uqfQ_sZIDaxK_pad-2"/><circle cx="0" cy="0" r="750" id="uqfQ_sZIDaxK_pad-3"/><circle cx="0" cy="0" r="1500" id="uqfQ_sZIDaxK_pad-4"/><circle cx="0" cy="0" r="698.5" id="_iHWIwgm3j3k_pad-11"/><circle cx="0" cy="0" r="1125" id="_iHWIwgm3j3k_pad-12"/><rect x="-1000" y="-1000" width="2000" height="2000" id="_iHWIwgm3j3k_pad-13"/><circle cx="0" cy="0" r="875" id="_iHWIwgm3j3k_pad-14"/><rect x="-875" y="-875" width="1750" height="1750" id="_iHWIwgm3j3k_pad-15"/><circle cx="0" cy="0" r="698.5" id="_iHWIwgm3j3k_pad-11"/><circle cx="0" cy="0" r="1125" id="_iHWIwgm3j3k_pad-12"/><rect x="-1000" y="-1000" width="2000" height="2000" id="_iHWIwgm3j3k_pad-13"/><circle cx="0" cy="0" r="875" id="_iHWIwgm3j3k_pad-14"/><rect x="-875" y="-875" width="1750" height="1750" id="_iHWIwgm3j3k_pad-15"/><circle cx="0" cy="0" r="698.5" id="hP027YvT4Vkr_pad-11"/><circle cx="0" cy="0" r="1125" id="hP027YvT4Vkr_pad-12"/><rect x="-1200" y="-1200" width="2400" height="2400" id="hP027YvT4Vkr_pad-13"/><circle cx="0" cy="0" r="750" id="hP027YvT4Vkr_pad-14"/><circle cx="0" cy="0" r="1500" id="hP027YvT4Vkr_pad-15"/><circle cx="0" cy="0" r="875" id="hP027YvT4Vkr_pad-16"/><rect x="-875" y="-875" width="1750" height="1750" id="hP027YvT4Vkr_pad-17"/><circle cx="0" cy="0" r="698.5" id="_iHWIwgm3j3k_pad-11"/><circle cx="0" cy="0" r="1125" id="_iHWIwgm3j3k_pad-12"/><rect x="-1000" y="-1000" width="2000" height="2000" id="_iHWIwgm3j3k_pad-13"/><circle cx="0" cy="0" r="875" id="_iHWIwgm3j3k_pad-14"/><rect x="-875" y="-875" width="1750" height="1750" id="_iHWIwgm3j3k_pad-15"/><circle cx="0" cy="0" r="698.5" id="_iHWIwgm3j3k_pad-11"/><circle cx="0" cy="0" r="1125" id="_iHWIwgm3j3k_pad-12"/><rect x="-1000" y="-1000" width="2000" height="2000" id="_iHWIwgm3j3k_pad-13"/><circle cx="0" cy="0" r="875" id="_iHWIwgm3j3k_pad-14"/><rect x="-875" y="-875" width="1750" height="1750" id="_iHWIwgm3j3k_pad-15"/><circle cx="0" cy="0" r="698.5" id="hP027YvT4Vkr_pad-11"/><circle cx="0" cy="0" r="1125" id="hP027YvT4Vkr_pad-12"/><rect x="-1200" y="-1200" width="2400" height="2400" id="hP027YvT4Vkr_pad-13"/><circle cx="0" cy="0" r="750" id="hP027YvT4Vkr_pad-14"/><circle cx="0" cy="0" r="1500" id="hP027YvT4Vkr_pad-15"/><circle cx="0" cy="0" r="875" id="hP027YvT4Vkr_pad-16"/><rect x="-875" y="-875" width="1750" height="1750" id="hP027YvT4Vkr_pad-17"/><circle cx="0" cy="0" r="698.5" id="_iHWIwgm3j3k_pad-11"/><circle cx="0" cy="0" r="1125" id="_iHWIwgm3j3k_pad-12"/><rect x="-1000" y="-1000" width="2000" height="2000" id="_iHWIwgm3j3k_pad-13"/><circle cx="0" cy="0" r="875" id="_iHWIwgm3j3k_pad-14"/><rect x="-875" y="-875" width="1750" height="1750" id="_iHWIwgm3j3k_pad-15"/><circle cx="0" cy="0" r="698.5" id="_iHWIwgm3j3k_pad-11"/><circle cx="0" cy="0" r="1125" id="_iHWIwgm3j3k_pad-12"/><rect x="-1000" y="-1000" width="2000" height="2000" id="_iHWIwgm3j3k_pad-13"/><circle cx="0" cy="0" r="875" id="_iHWIwgm3j3k_pad-14"/><rect x="-875" y="-875" width="1750" height="1750" id="_iHWIwgm3j3k_pad-15"/><circle cx="0" cy="0" r="698.5" id="hP027YvT4Vkr_pad-11"/><circle cx="0" cy="0" r="1125" id="hP027YvT4Vkr_pad-12"/><rect x="-1200" y="-1200" width="2400" height="2400" id="hP027YvT4Vkr_pad-13"/><circle cx="0" cy="0" r="750" id="hP027YvT4Vkr_pad-14"/><circle cx="0" cy="0" r="1500" id="hP027YvT4Vkr_pad-15"/><circle cx="0" cy="0" r="875" id="hP027YvT4Vkr_pad-16"/><rect x="-875" y="-875" width="1750" height="1750" id="hP027YvT4Vkr_pad-17"/><circle cx="0" cy="0" r="698.5" id="_iHWIwgm3j3k_pad-11"/><circle cx="0" cy="0" r="1125" id="_iHWIwgm3j3k_pad-12"/><rect x="-1000" y="-1000" width="2000" height="2000" id="_iHWIwgm3j3k_pad-13"/><circle cx="0" cy="0" r="875" id="_iHWIwgm3j3k_pad-14"/><rect x="-875" y="-875" width="1750" height="1750" id="_iHWIwgm3j3k_pad-15"/><circle cx="0" cy="0" r="698.5" id="_iHWIwgm3j3k_pad-11"/><circle cx="0" cy="0" r="1125" id="_iHWIwgm3j3k_pad-12"/><rect x="-1000" y="-1000" width="2000" height="2000" id="_iHWIwgm3j3k_pad-13"/><circle cx="0" cy="0" r="875" id="_iHWIwgm3j3k_pad-14"/><rect x="-875" y="-875" width="1750" height="1750" id="_iHWIwgm3j3k_pad-15"/><circle cx="0" cy="0" r="698.5" id="hP027YvT4Vkr_pad-11"/><circle cx="0" cy="0" r="1125" id="hP027YvT4Vkr_pad-12"/><rect x="-1200" y="-1200" width="2400" height="2400" id="hP027YvT4Vkr_pad-13"/><circle cx="0" cy="0" r="750" id="hP027YvT4Vkr_pad-14"/><circle cx="0" cy="0" r="1500" id="hP027YvT4Vkr_pad-15"/><circle cx="0" cy="0" r="875" id="hP027YvT4Vkr_pad-16"/><rect x="-875" y="-875" width="1750" height="1750" id="hP027YvT4Vkr_pad-17"/><circle cx="0" cy="0" r="406.5" id="uqfQ_sZIDaxK_pad-1"/><circle cx="0" cy="0" r="500" id="uqfQ_sZIDaxK_pad-2"/><circle cx="0" cy="0" r="750" id="uqfQ_sZIDaxK_pad-3"/><circle cx="0" cy="0" r="1500" id="uqfQ_sZIDaxK_pad-4"/><g id="pcb-stackup_top_cu"><use xlink:href="#_iHWIwgm3j3k_pad-11" x="215128" y="-147020"/><use xlink:href="#_iHWIwgm3j3k_pad-11" x="215128" y="-154640"/><use xlink:href="#_iHWIwgm3j3k_pad-12" x="200650" y="-148290"/><use xlink:href="#_iHWIwgm3j3k_pad-13" x="200650" y="-153370"/><use xlink:href="#_iHWIwgm3j3k_pad-12" x="223510" y="-148290"/><use xlink:href="#_iHWIwgm3j3k_pad-13" x="223510" y="-153370"/><use xlink:href="#_iHWIwgm3j3k_pad-14" x="219192" y="-150830"/><use xlink:href="#_iHWIwgm3j3k_pad-15" x="219192" y="-153370"/><use xlink:href="#_iHWIwgm3j3k_pad-14" x="219192" y="-148290"/><use xlink:href="#_iHWIwgm3j3k_pad-15" x="204714" y="-154640"/><use xlink:href="#_iHWIwgm3j3k_pad-14" x="204714" y="-147020"/><use xlink:href="#_iHWIwgm3j3k_pad-15" x="208270" y="-147020"/><use xlink:href="#_iHWIwgm3j3k_pad-14" x="208270" y="-154640"/><use xlink:href="#_iHWIwgm3j3k_pad-15" x="211826" y="-147020"/><use xlink:href="#_iHWIwgm3j3k_pad-14" x="211826" y="-154640"/><path d="M 219192 -148290 219192 -150830 M 204714 -154640 204714 -152608 M 208270 -149306 208270 -147020 M 204714 -152608 208270 -149306" fill="none" stroke-width="520"/></g><g id="pcb-stackup_top_sm"><use xlink:href="#hP027YvT4Vkr_pad-11" x="215128" y="-147020"/><use xlink:href="#hP027YvT4Vkr_pad-11" x="215128" y="-154640"/><use xlink:href="#hP027YvT4Vkr_pad-12" x="200650" y="-148290"/><use xlink:href="#hP027YvT4Vkr_pad-13" x="200650" y="-153370"/><use xlink:href="#hP027YvT4Vkr_pad-14" x="198110" y="-148290"/><use xlink:href="#hP027YvT4Vkr_pad-14" x="198110" y="-153370"/><use xlink:href="#hP027YvT4Vkr_pad-12" x="223510" y="-148290"/><use xlink:href="#hP027YvT4Vkr_pad-13" x="223510" y="-153370"/><use xlink:href="#hP027YvT4Vkr_pad-14" x="226050" y="-147655"/><use xlink:href="#hP027YvT4Vkr_pad-14" x="226050" y="-154005"/><use xlink:href="#hP027YvT4Vkr_pad-15" x="226050" y="-150830"/><use xlink:href="#hP027YvT4Vkr_pad-16" x="219192" y="-150830"/><use xlink:href="#hP027YvT4Vkr_pad-17" x="219192" y="-153370"/><use xlink:href="#hP027YvT4Vkr_pad-16" x="219192" y="-148290"/><use xlink:href="#hP027YvT4Vkr_pad-17" x="204714" y="-154640"/><use xlink:href="#hP027YvT4Vkr_pad-16" x="204714" y="-147020"/><use xlink:href="#hP027YvT4Vkr_pad-17" x="208270" y="-147020"/><use xlink:href="#hP027YvT4Vkr_pad-16" x="208270" y="-154640"/><use xlink:href="#hP027YvT4Vkr_pad-17" x="211826" y="-147020"/><use xlink:href="#hP027YvT4Vkr_pad-16" x="211826" y="-154640"/></g><g id="pcb-stackup_top_ss"><path d="M 222476.191 -145904.762 222619.048 -145952.381 222857.144 -145952.381 222952.382 -145904.762 223000.001 -145857.143 223047.62 -145761.905 223047.62 -145666.667 223000.001 -145571.429 222952.382 -145523.81 222857.144 -145476.19 222666.667 -145428.571 222571.429 -145380.952 222523.81 -145333.333 222476.191 -145238.095 222476.191 -145142.857 222523.81 -145047.619 222571.429 -145000 222666.667 -144952.381 222904.763 -144952.381 223047.62 -145000 M 223476.191 -145952.381 223476.191 -144952.381 M 224476.191 -145000 224380.953 -144952.381 224238.096 -144952.381 224095.238 -145000 224000 -145095.238 223952.381 -145190.476 223904.762 -145380.952 223904.762 -145523.81 223952.381 -145714.286 224000 -145809.524 224095.238 -145904.762 224238.096 -145952.381 224333.334 -145952.381 224476.191 -145904.762 224523.81 -145857.143 224523.81 -145523.81 224333.334 -145523.81 M 222738.096 -156000 222642.858 -155952.381 222500.001 -155952.381 222357.143 -156000 222261.905 -156095.238 222214.286 -156190.476 222166.667 -156380.952 222166.667 -156523.81 222214.286 -156714.286 222261.905 -156809.524 222357.143 -156904.762 222500.001 -156952.381 222595.239 -156952.381 222738.096 -156904.762 222785.715 -156857.143 222785.715 -156523.81 222595.239 -156523.81 M 223214.286 -156952.381 223214.286 -155952.381 223785.715 -156952.381 223785.715 -155952.381 M 224261.905 -156952.381 224261.905 -155952.381 224500 -155952.381 224642.858 -156000 224738.096 -156095.238 224785.715 -156190.476 224833.334 -156380.952 224833.334 -156523.81 224785.715 -156714.286 224738.096 -156809.524 224642.858 -156904.762 224500 -156952.381 224261.905 -156952.381" fill="none" stroke-width="200"/><path d="M 215128 -147020 215128 -147528 M 215128 -154640 215128 -154132 216144 -154132 216144 -147528 214112 -147528 214112 -154132 215128 -154132 M 215636 -147528 216144 -148036" fill="none" stroke-width="203.2"/><path d="M 202110 -146330 202110 -155330 196610 -155330 196610 -146330 202110 -146330 M 227510 -146330 227510 -155330 222010 -155330 222010 -146330 227510 -146330 M 217692 -148290 217692 -153370 M 220692 -148290 220692 -153370 M 220692 -148290 A 1500 1500 0 0 1 217692 -148290 M 217692 -153370 A 1500 1500 0 0 1 220692 -153370" fill="none" stroke-width="150"/><path d="M 204714 -154640 204714 -153878 205730 -153878 205730 -147782 204714 -147782 204714 -147020 M 204714 -147782 203698 -147782 203698 -153878 204714 -153878 M 205730 -153370 203698 -153370 M 203698 -153116 205730 -153116 M 208270 -147020 208270 -147782 207254 -147782 207254 -153878 208270 -153878 208270 -154640 M 208270 -153878 209286 -153878 209286 -147782 208270 -147782 M 207254 -148290 209286 -148290 M 209286 -148544 207254 -148544 M 211826 -147020 211826 -147782 210810 -147782 210810 -153878 211826 -153878 211826 -154640 M 211826 -153878 212842 -153878 212842 -147782 211826 -147782 M 210810 -148290 212842 -148290 M 212842 -148544 210810 -148544" fill="none" stroke-width="304.8"/><path d="M 215489.905 -151058.571 215489.905 -151515.714 M 215489.905 -151287.143 214689.905 -151287.143 214804.19 -151363.333 214880.381 -151439.524 214918.476 -151515.714 M 215489.905 -150715.714 214689.905 -150715.714 215261.333 -150449.047 214689.905 -150182.38 215489.905 -150182.38 M 197938.095 -151361.905 197938.095 -150561.905 198242.857 -150561.905 198319.048 -150600 198357.143 -150638.095 198395.238 -150714.286 198395.238 -150828.571 198357.143 -150904.762 198319.048 -150942.857 198242.857 -150980.952 197938.095 -150980.952 M 198738.095 -151361.905 198738.095 -150561.905 M 199119.047 -150942.857 199385.714 -150942.857 M 199500 -151361.905 199119.047 -151361.905 199119.047 -150561.905 199500 -150561.905 M 199766.667 -150561.905 200300 -150561.905 199766.667 -151361.905 200300 -151361.905 M 200757.143 -150561.905 200909.524 -150561.905 200985.715 -150600 201061.905 -150676.19 201100 -150828.571 201100 -151095.238 201061.905 -151247.619 200985.715 -151323.81 200909.524 -151361.905 200757.143 -151361.905 200680.953 -151323.81 200604.762 -151247.619 200566.667 -151095.238 200566.667 -150828.571 200604.762 -150676.19 200680.953 -150600 200757.143 -150561.905 M 216988.571 -151953.81 217521.905 -151953.81 M 216683.81 -152144.286 217255.238 -152334.762 217255.238 -151839.524 M 217445.714 -151534.762 217483.81 -151496.667 217521.905 -151534.762 217483.81 -151572.857 217445.714 -151534.762 217521.905 -151534.762 M 216721.905 -151230 216721.905 -150696.667 217521.905 -151039.524 M 216988.571 -150391.905 217521.905 -150391.905 M 217064.762 -150391.905 217026.667 -150353.81 216988.571 -150277.619 216988.571 -150163.333 217026.667 -150087.143 217102.857 -150049.048 217521.905 -150049.048 M 217102.857 -149401.428 217102.857 -149668.095 M 217521.905 -149668.095 216721.905 -149668.095 216721.905 -149287.142" fill="none" stroke-width="150"/><path d="M 205037.81 -152112.476 205075.905 -151998.19 205075.905 -151807.714 205037.81 -151731.524 204999.714 -151693.428 204923.524 -151655.333 204847.333 -151655.333 204771.143 -151693.428 204733.048 -151731.524 204694.952 -151807.714 204656.857 -151960.095 204618.762 -152036.286 204580.667 -152074.381 204504.476 -152112.476 204428.286 -152112.476 204352.095 -152074.381 204314 -152036.286 204275.905 -151960.095 204275.905 -151769.619 204314 -151655.333 M 204999.714 -150855.333 205037.81 -150893.428 205075.905 -151007.714 205075.905 -151083.904 205037.81 -151198.19 204961.619 -151274.381 204885.429 -151312.476 204733.048 -151350.571 204618.762 -151350.571 204466.381 -151312.476 204390.19 -151274.381 204314 -151198.19 204275.905 -151083.904 204275.905 -151007.714 204314 -150893.428 204352.095 -150855.333 M 205075.905 -150512.476 204275.905 -150512.476 M 204656.857 -150512.476 204656.857 -150055.333 M 205075.905 -150055.333 204275.905 -150055.333 M 205075.905 -149674.381 204275.905 -149674.381 M 205075.905 -149217.238 204618.762 -149560.095 M 204275.905 -149217.238 204733.048 -149674.381 M 204694.952 -148722 205075.905 -148722 M 204275.905 -148988.667 204694.952 -148722 204275.905 -148455.333 M 208593.81 -153128.476 208631.905 -153014.19 208631.905 -152823.714 208593.81 -152747.524 208555.714 -152709.428 208479.524 -152671.333 208403.333 -152671.333 208327.143 -152709.428 208289.048 -152747.524 208250.952 -152823.714 208212.857 -152976.095 208174.762 -153052.286 208136.667 -153090.381 208060.476 -153128.476 207984.286 -153128.476 207908.095 -153090.381 207870 -153052.286 207831.905 -152976.095 207831.905 -152785.619 207870 -152671.333 M 208555.714 -151871.333 208593.81 -151909.428 208631.905 -152023.714 208631.905 -152099.904 208593.81 -152214.19 208517.619 -152290.381 208441.429 -152328.476 208289.048 -152366.571 208174.762 -152366.571 208022.381 -152328.476 207946.19 -152290.381 207870 -152214.19 207831.905 -152099.904 207831.905 -152023.714 207870 -151909.428 207908.095 -151871.333 M 208631.905 -151528.476 207831.905 -151528.476 M 208212.857 -151528.476 208212.857 -151071.333 M 208631.905 -151071.333 207831.905 -151071.333 M 208631.905 -150690.381 207831.905 -150690.381 M 208631.905 -150233.238 208174.762 -150576.095 M 207831.905 -150233.238 208289.048 -150690.381 M 208250.952 -149738 208631.905 -149738 M 207831.905 -150004.667 208250.952 -149738 207831.905 -149471.333" fill="none" stroke-width="200"/><path d="M 211397.905 -153066.666 211397.905 -152533.333 212197.905 -153066.666 212197.905 -152533.333 M 211397.905 -151238.094 211397.905 -151619.047 211778.857 -151657.142 211740.762 -151619.047 211702.667 -151542.856 211702.667 -151352.38 211740.762 -151276.19 211778.857 -151238.094 211855.048 -151199.999 212045.524 -151199.999 212121.714 -151238.094 212159.81 -151276.19 212197.905 -151352.38 212197.905 -151542.856 212159.81 -151619.047 212121.714 -151657.142 M 212121.714 -150857.142 212159.81 -150819.047 212197.905 -150857.142 212159.81 -150895.237 212121.714 -150857.142 212197.905 -150857.142 M 212197.905 -150057.142 212197.905 -150514.285 M 212197.905 -150285.714 211397.905 -150285.714 211512.19 -150361.904 211588.381 -150438.095 211626.476 -150514.285 M 211397.905 -149828.571 212197.905 -149561.904 211397.905 -149295.237" fill="none" stroke-width="150"/></g><g id="pcb-stackup_top_drl1"><use xlink:href="#uqfQ_sZIDaxK_pad-1" x="215128" y="-147020"/><use xlink:href="#uqfQ_sZIDaxK_pad-1" x="215128" y="-154640"/><use xlink:href="#uqfQ_sZIDaxK_pad-1" x="219192" y="-148290"/><use xlink:href="#uqfQ_sZIDaxK_pad-1" x="219192" y="-150830"/><use xlink:href="#uqfQ_sZIDaxK_pad-1" x="219192" y="-153370"/><use xlink:href="#uqfQ_sZIDaxK_pad-2" x="200650" y="-148290"/><use xlink:href="#uqfQ_sZIDaxK_pad-2" x="200650" y="-153370"/><use xlink:href="#uqfQ_sZIDaxK_pad-2" x="204714" y="-147020"/><use xlink:href="#uqfQ_sZIDaxK_pad-2" x="204714" y="-154640"/><use xlink:href="#uqfQ_sZIDaxK_pad-2" x="208270" y="-147020"/><use xlink:href="#uqfQ_sZIDaxK_pad-2" x="208270" y="-154640"/><use xlink:href="#uqfQ_sZIDaxK_pad-2" x="211826" y="-147020"/><use xlink:href="#uqfQ_sZIDaxK_pad-2" x="211826" y="-154640"/><use xlink:href="#uqfQ_sZIDaxK_pad-2" x="223510" y="-148290"/><use xlink:href="#uqfQ_sZIDaxK_pad-2" x="223510" y="-153370"/><use xlink:href="#uqfQ_sZIDaxK_pad-3" x="198110" y="-148290"/><use xlink:href="#uqfQ_sZIDaxK_pad-3" x="198110" y="-153370"/><use xlink:href="#uqfQ_sZIDaxK_pad-3" x="226050" y="-147655"/><use xlink:href="#uqfQ_sZIDaxK_pad-3" x="226050" y="-154005"/><use xlink:href="#uqfQ_sZIDaxK_pad-4" x="226050" y="-150830"/></g><clipPath id="pcb-stackup_top_out"><path d="M 238500 -149500 238500 -152500 A 5000 5000 0 0 0 233500 -157500 L 191000 -157500 A 5000 5000 0 0 0 186000 -152500 L 186000 -149500 A 5000 5000 0 0 0 191000 -144500 L 233500 -144500 A 5000 5000 0 0 0 238500 -149500 M 235000 -151000 A 3000 3000 0 0 1 229000 -151000 3000 3000 0 0 1 235000 -151000 M 195000 -151000 A 3000 3000 0 0 1 189000 -151000 3000 3000 0 0 1 195000 -151000" fill="none" stroke-width="200"/></clipPath><mask id="pcb-stackup_top_mech-mask"><g fill="#000" stroke="#000"><rect x="186000" y="-157500" width="52500" height="13000" fill="#fff"/><use xlink:href="#pcb-stackup_top_drl1"/></g></mask><mask id="pcb-stackup_top_cf-mask"><g fill="#fff" stroke="#fff"><use xlink:href="#pcb-stackup_top_sm"/></g></mask><mask id="pcb-stackup_top_sm-mask"><g fill="#000" stroke="#000"><rect x="186000" y="-157500" width="52500" height="13000" fill="#fff"/><use xlink:href="#pcb-stackup_top_sm"/></g></mask></defs><g transform="translate(0,-302000) scale(1,-1)"><g mask="url(#pcb-stackup_top_mech-mask)" clip-path="url(#pcb-stackup_top_out)"><rect x="186000" y="-157500" width="52500" height="13000" fill="currentColor" class="pcb-stackup_fr4"/><use xlink:href="#pcb-stackup_top_cu" fill="currentColor" stroke="currentColor" class="pcb-stackup_cu"/><use xlink:href="#pcb-stackup_top_cu" fill="currentColor" stroke="currentColor" class="pcb-stackup_cf" mask="url(#pcb-stackup_top_cf-mask)"/><g mask="url(#pcb-stackup_top_sm-mask)"><rect x="186000" y="-157500" width="52500" height="13000" fill="currentColor" class="pcb-stackup_sm"/><use xlink:href="#pcb-stackup_top_ss" fill="currentColor" stroke="currentColor" class="pcb-stackup_ss"/></g></g></g></svg>