<svg id="pcb-stackup_bottom" version="1.1" xmlns:xlink="http://www.w3.org/1999/xlink" stroke-linecap="round" stroke-linejoin="round" stroke-width="0" fill-rule="evenodd" clip-rule="evenodd" viewBox="185000 -85000 10000 10000" width="10mm" height="10mm" xmlns="http://www.w3.org/2000/svg"><defs><style>.pcb-stackup_fr4 {color: #4D542C;}
.pcb-stackup_cu {color: lightgrey;}
.pcb-stackup_cf {color: goldenrod;}
.pcb-stackup_sm {color: #004400; opacity: 0.9;}
.pcb-stackup_ss {color: white;}
.pcb-stackup_sp {color: #000000; opacity: 0;}
.pcb-stackup_out {color: black;}</style><rect x="-850" y="-850" width="1700" height="1700" id="JTwMJB3FrQ0._pad-10"/><rect x="-850" y="-850" width="1700" height="1700" rx="850" ry="850" id="JTwMJB3FrQ0._pad-11"/><circle cx="0" cy="0" r="437.5" id="JTwMJB3FrQ0._pad-13"/><rect x="-690" y="-225" width="1380" height="450" id="JTwMJB3FrQ0._pad-14"/><rect x="-1050" y="-737.5" width="2100" height="1475" id="JTwMJB3FrQ0._pad-15"/><rect x="-950" y="-1187.5" width="1900" height="2375" id="JTwMJB3FrQ0._pad-16"/><rect x="-950" y="-587.5" width="1900" height="1175" id="JTwMJB3FrQ0._pad-17"/><circle cx="0" cy="0" r="300" id="JTwMJB3FrQ0._pad-18"/><rect x="-850" y="-850" width="1700" height="1700" id="JTwMJB3FrQ0._pad-10"/><rect x="-850" y="-850" width="1700" height="1700" rx="850" ry="850" id="JTwMJB3FrQ0._pad-11"/><circle cx="0" cy="0" r="437.5" id="JTwMJB3FrQ0._pad-13"/><rect x="-690" y="-225" width="1380" height="450" id="JTwMJB3FrQ0._pad-14"/><rect x="-1050" y="-737.5" width="2100" height="1475" id="JTwMJB3FrQ0._pad-15"/><rect x="-950" y="-1187.5" width="1900" height="2375" id="JTwMJB3FrQ0._pad-16"/><rect x="-950" y="-587.5" width="1900" height="1175" id="JTwMJB3FrQ0._pad-17"/><circle cx="0" cy="0" r="300" id="JTwMJB3FrQ0._pad-18"/><rect x="-1050" y="-1050" width="2100" height="2100" id="JOaPvl_DjxHU_pad-10"/><rect x="-1050" y="-1050" width="2100" height="2100" rx="1050" ry="1050" id="JOaPvl_DjxHU_pad-11"/><circle cx="0" cy="0" r="637.5" id="JOaPvl_DjxHU_pad-13"/><rect x="-890" y="-425" width="1780" height="850" id="JOaPvl_DjxHU_pad-14"/><rect x="-1250" y="-937.5" width="2500" height="1875" id="JOaPvl_DjxHU_pad-15"/><rect x="-1150" y="-1387.5" width="2300" height="2775" id="JOaPvl_DjxHU_pad-16"/><rect x="-1150" y="-787.5" width="2300" height="1575" id="JOaPvl_DjxHU_pad-17"/><rect x="-850" y="-850" width="1700" height="1700" id="JTwMJB3FrQ0._pad-10"/><rect x="-850" y="-850" width="1700" height="1700" rx="850" ry="850" id="JTwMJB3FrQ0._pad-11"/><circle cx="0" cy="0" r="437.5" id="JTwMJB3FrQ0._pad-13"/><rect x="-690" y="-225" width="1380" height="450" id="JTwMJB3FrQ0._pad-14"/><rect x="-1050" y="-737.5" width="2100" height="1475" id="JTwMJB3FrQ0._pad-15"/><rect x="-950" y="-1187.5" width="1900" height="2375" id="JTwMJB3FrQ0._pad-16"/><rect x="-950" y="-587.5" width="1900" height="1175" id="JTwMJB3FrQ0._pad-17"/><circle cx="0" cy="0" r="300" id="JTwMJB3FrQ0._pad-18"/><rect x="-850" y="-850" width="1700" height="1700" id="JTwMJB3FrQ0._pad-10"/><rect x="-850" y="-850" width="1700" height="1700" rx="850" ry="850" id="JTwMJB3FrQ0._pad-11"/><circle cx="0" cy="0" r="437.5" id="JTwMJB3FrQ0._pad-13"/><rect x="-690" y="-225" width="1380" height="450" id="JTwMJB3FrQ0._pad-14"/><rect x="-1050" y="-737.5" width="2100" height="1475" id="JTwMJB3FrQ0._pad-15"/><rect x="-950" y="-1187.5" width="1900" height="2375" id="JTwMJB3FrQ0._pad-16"/><rect x="-950" y="-587.5" width="1900" height="1175" id="JTwMJB3FrQ0._pad-17"/><circle cx="0" cy="0" r="300" id="JTwMJB3FrQ0._pad-18"/><rect x="-1050" y="-1050" width="2100" height="2100" id="JOaPvl_DjxHU_pad-10"/><rect x="-1050" y="-1050" width="2100" height="2100" rx="1050" ry="1050" id="JOaPvl_DjxHU_pad-11"/><circle cx="0" cy="0" r="637.5" id="JOaPvl_DjxHU_pad-13"/><rect x="-890" y="-425" width="1780" height="850" id="JOaPvl_DjxHU_pad-14"/><rect x="-1250" y="-937.5" width="2500" height="1875" id="JOaPvl_DjxHU_pad-15"/><rect x="-1150" y="-1387.5" width="2300" height="2775" id="JOaPvl_DjxHU_pad-16"/><rect x="-1150" y="-787.5" width="2300" height="1575" id="JOaPvl_DjxHU_pad-17"/><rect x="-850" y="-850" width="1700" height="1700" id="JTwMJB3FrQ0._pad-10"/><rect x="-850" y="-850" width="1700" height="1700" rx="850" ry="850" id="JTwMJB3FrQ0._pad-11"/><circle cx="0" cy="0" r="437.5" id="JTwMJB3FrQ0._pad-13"/><rect x="-690" y="-225" width="1380" height="450" id="JTwMJB3FrQ0._pad-14"/><rect x="-1050" y="-737.5" width="2100" height="1475" id="JTwMJB3FrQ0._pad-15"/><rect x="-950" y="-1187.5" width="1900" height="2375" id="JTwMJB3FrQ0._pad-16"/><rect x="-950" y="-587.5" width="1900" height="1175" id="JTwMJB3FrQ0._pad-17"/><circle cx="0" cy="0" r="300" id="JTwMJB3FrQ0._pad-18"/><rect x="-850" y="-850" width="1700" height="1700" id="JTwMJB3FrQ0._pad-10"/><rect x="-850" y="-850" width="1700" height="1700" rx="850" ry="850" id="JTwMJB3FrQ0._pad-11"/><circle cx="0" cy="0" r="437.5" id="JTwMJB3FrQ0._pad-13"/><rect x="-690" y="-225" width="1380" height="450" id="JTwMJB3FrQ0._pad-14"/><rect x="-1050" y="-737.5" width="2100" height="1475" id="JTwMJB3FrQ0._pad-15"/><rect x="-950" y="-1187.5" width="1900" height="2375" id="JTwMJB3FrQ0._pad-16"/><rect x="-950" y="-587.5" width="1900" height="1175" id="JTwMJB3FrQ0._pad-17"/><circle cx="0" cy="0" r="300" id="JTwMJB3FrQ0._pad-18"/><rect x="-1050" y="-1050" width="2100" height="2100" id="JOaPvl_DjxHU_pad-10"/><rect x="-1050" y="-1050" width="2100" height="2100" rx="1050" ry="1050" id="JOaPvl_DjxHU_pad-11"/><circle cx="0" cy="0" r="637.5" id="JOaPvl_DjxHU_pad-13"/><rect x="-890" y="-425" width="1780" height="850" id="JOaPvl_DjxHU_pad-14"/><rect x="-1250" y="-937.5" width="2500" height="1875" id="JOaPvl_DjxHU_pad-15"/><rect x="-1150" y="-1387.5" width="2300" height="2775" id="JOaPvl_DjxHU_pad-16"/><rect x="-1150" y="-787.5" width="2300" height="1575" id="JOaPvl_DjxHU_pad-17"/><rect x="-850" y="-850" width="1700" height="1700" id="JTwMJB3FrQ0._pad-10"/><rect x="-850" y="-850" width="1700" height="1700" rx="850" ry="850" id="JTwMJB3FrQ0._pad-11"/><circle cx="0" cy="0" r="437.5" id="JTwMJB3FrQ0._pad-13"/><rect x="-690" y="-225" width="1380" height="450" id="JTwMJB3FrQ0._pad-14"/><rect x="-1050" y="-737.5" width="2100" height="1475" id="JTwMJB3FrQ0._pad-15"/><rect x="-950" y="-1187.5" width="1900" height="2375" id="JTwMJB3FrQ0._pad-16"/><rect x="-950" y="-587.5" width="1900" height="1175" id="JTwMJB3FrQ0._pad-17"/><circle cx="0" cy="0" r="300" id="JTwMJB3FrQ0._pad-18"/><rect x="-850" y="-850" width="1700" height="1700" id="JTwMJB3FrQ0._pad-10"/><rect x="-850" y="-850" width="1700" height="1700" rx="850" ry="850" id="JTwMJB3FrQ0._pad-11"/><circle cx="0" cy="0" r="437.5" id="JTwMJB3FrQ0._pad-13"/><rect x="-690" y="-225" width="1380" height="450" id="JTwMJB3FrQ0._pad-14"/><rect x="-1050" y="-737.5" width="2100" height="1475" id="JTwMJB3FrQ0._pad-15"/><rect x="-950" y="-1187.5" width="1900" height="2375" id="JTwMJB3FrQ0._pad-16"/><rect x="-950" y="-587.5" width="1900" height="1175" id="JTwMJB3FrQ0._pad-17"/><circle cx="0" cy="0" r="300" id="JTwMJB3FrQ0._pad-18"/><rect x="-1050" y="-1050" width="2100" height="2100" id="JOaPvl_DjxHU_pad-10"/><rect x="-1050" y="-1050" width="2100" height="2100" rx="1050" ry="1050" id="JOaPvl_DjxHU_pad-11"/><circle cx="0" cy="0" r="637.5" id="JOaPvl_DjxHU_pad-13"/><rect x="-890" y="-425" width="1780" height="850" id="JOaPvl_DjxHU_pad-14"/><rect x="-1250" y="-937.5" width="2500" height="1875" id="JOaPvl_DjxHU_pad-15"/><rect x="-1150" y="-1387.5" width="2300" height="2775" id="JOaPvl_DjxHU_pad-16"/><rect x="-1150" y="-787.5" width="2300" height="1575" id="JOaPvl_DjxHU_pad-17"/><circle cx="0" cy="0" r="5.9" id="DDVpayYxDF4U_pad-1"/><circle cx="0" cy="0" r="19.7" id="DDVpayYxDF4U_pad-2"/><rect x="-850" y="-850" width="1700" height="1700" id="JTwMJB3FrQ0._pad-10"/><rect x="-850" y="-850" width="1700" height="1700" rx="850" ry="850" id="JTwMJB3FrQ0._pad-11"/><circle cx="0" cy="0" r="437.5" id="JTwMJB3FrQ0._pad-13"/><rect x="-690" y="-225" width="1380" height="450" id="JTwMJB3FrQ0._pad-14"/><rect x="-1050" y="-737.5" width="2100" height="1475" id="JTwMJB3FrQ0._pad-15"/><rect x="-950" y="-1187.5" width="1900" height="2375" id="JTwMJB3FrQ0._pad-16"/><rect x="-950" y="-587.5" width="1900" height="1175" id="JTwMJB3FrQ0._pad-17"/><circle cx="0" cy="0" r="300" id="JTwMJB3FrQ0._pad-18"/><rect x="-850" y="-850" width="1700" height="1700" id="JTwMJB3FrQ0._pad-10"/><rect x="-850" y="-850" width="1700" height="1700" rx="850" ry="850" id="JTwMJB3FrQ0._pad-11"/><circle cx="0" cy="0" r="437.5" id="JTwMJB3FrQ0._pad-13"/><rect x="-690" y="-225" width="1380" height="450" id="JTwMJB3FrQ0._pad-14"/><rect x="-1050" y="-737.5" width="2100" height="1475" id="JTwMJB3FrQ0._pad-15"/><rect x="-950" y="-1187.5" width="1900" height="2375" id="JTwMJB3FrQ0._pad-16"/><rect x="-950" y="-587.5" width="1900" height="1175" id="JTwMJB3FrQ0._pad-17"/><circle cx="0" cy="0" r="300" id="JTwMJB3FrQ0._pad-18"/><rect x="-1050" y="-1050" width="2100" height="2100" id="JOaPvl_DjxHU_pad-10"/><rect x="-1050" y="-1050" width="2100" height="2100" rx="1050" ry="1050" id="JOaPvl_DjxHU_pad-11"/><circle cx="0" cy="0" r="637.5" id="JOaPvl_DjxHU_pad-13"/><rect x="-890" y="-425" width="1780" height="850" id="JOaPvl_DjxHU_pad-14"/><rect x="-1250" y="-937.5" width="2500" height="1875" id="JOaPvl_DjxHU_pad-15"/><rect x="-1150" y="-1387.5" width="2300" height="2775" id="JOaPvl_DjxHU_pad-16"/><rect x="-1150" y="-787.5" width="2300" height="1575" id="JOaPvl_DjxHU_pad-17"/><rect x="-850" y="-850" width="1700" height="1700" id="JTwMJB3FrQ0._pad-10"/><rect x="-850" y="-850" width="1700" height="1700" rx="850" ry="850" id="JTwMJB3FrQ0._pad-11"/><circle cx="0" cy="0" r="437.5" id="JTwMJB3FrQ0._pad-13"/><rect x="-690" y="-225" width="1380" height="450" id="JTwMJB3FrQ0._pad-14"/><rect x="-1050" y="-737.5" width="2100" height="1475" id="JTwMJB3FrQ0._pad-15"/><rect x="-950" y="-1187.5" width="1900" height="2375" id="JTwMJB3FrQ0._pad-16"/><rect x="-950" y="-587.5" width="1900" height="1175" id="JTwMJB3FrQ0._pad-17"/><circle cx="0" cy="0" r="300" id="JTwMJB3FrQ0._pad-18"/><rect x="-850" y="-850" width="1700" height="1700" id="JTwMJB3FrQ0._pad-10"/><rect x="-850" y="-850" width="1700" height="1700" rx="850" ry="850" id="JTwMJB3FrQ0._pad-11"/><circle cx="0" cy="0" r="437.5" id="JTwMJB3FrQ0._pad-13"/><rect x="-690" y="-225" width="1380" height="450" id="JTwMJB3FrQ0._pad-14"/><rect x="-1050" y="-737.5" width="2100" height="1475" id="JTwMJB3FrQ0._pad-15"/><rect x="-950" y="-1187.5" width="1900" height="2375" id="JTwMJB3FrQ0._pad-16"/><rect x="-950" y="-587.5" width="1900" height="1175" id="JTwMJB3FrQ0._pad-17"/><circle cx="0" cy="0" r="300" id="JTwMJB3FrQ0._pad-18"/><rect x="-1050" y="-1050" width="2100" height="2100" id="JOaPvl_DjxHU_pad-10"/><rect x="-1050" y="-1050" width="2100" height="2100" rx="1050" ry="1050" id="JOaPvl_DjxHU_pad-11"/><circle cx="0" cy="0" r="637.5" id="JOaPvl_DjxHU_pad-13"/><rect x="-890" y="-425" width="1780" height="850" id="JOaPvl_DjxHU_pad-14"/><rect x="-1250" y="-937.5" width="2500" height="1875" id="JOaPvl_DjxHU_pad-15"/><rect x="-1150" y="-1387.5" width="2300" height="2775" id="JOaPvl_DjxHU_pad-16"/><rect x="-1150" y="-787.5" width="2300" height="1575" id="JOaPvl_DjxHU_pad-17"/><rect x="-850" y="-850" width="1700" height="1700" id="JTwMJB3FrQ0._pad-10"/><rect x="-850" y="-850" width="1700" height="1700" rx="850" ry="850" id="JTwMJB3FrQ0._pad-11"/><circle cx="0" cy="0" r="437.5" id="JTwMJB3FrQ0._pad-13"/><rect x="-690" y="-225" width="1380" height="450" id="JTwMJB3FrQ0._pad-14"/><rect x="-1050" y="-737.5" width="2100" height="1475" id="JTwMJB3FrQ0._pad-15"/><rect x="-950" y="-1187.5" width="1900" height="2375" id="JTwMJB3FrQ0._pad-16"/><rect x="-950" y="-587.5" width="1900" height="1175" id="JTwMJB3FrQ0._pad-17"/><circle cx="0" cy="0" r="300" id="JTwMJB3FrQ0._pad-18"/><rect x="-850" y="-850" width="1700" height="1700" id="JTwMJB3FrQ0._pad-10"/><rect x="-850" y="-850" width="1700" height="1700" rx="850" ry="850" id="JTwMJB3FrQ0._pad-11"/><circle cx="0" cy="0" r="437.5" id="JTwMJB3FrQ0._pad-13"/><rect x="-690" y="-225" width="1380" height="450" id="JTwMJB3FrQ0._pad-14"/><rect x="-1050" y="-737.5" width="2100" height="1475" id="JTwMJB3FrQ0._pad-15"/><rect x="-950" y="-1187.5" width="1900" height="2375" id="JTwMJB3FrQ0._pad-16"/><rect x="-950" y="-587.5" width="1900" height="1175" id="JTwMJB3FrQ0._pad-17"/><circle cx="0" cy="0" r="300" id="JTwMJB3FrQ0._pad-18"/><rect x="-1050" y="-1050" width="2100" height="2100" id="JOaPvl_DjxHU_pad-10"/><rect x="-1050" y="-1050" width="2100" height="2100" rx="1050" ry="1050" id="JOaPvl_DjxHU_pad-11"/><circle cx="0" cy="0" r="637.5" id="JOaPvl_DjxHU_pad-13"/><rect x="-890" y="-425" width="1780" height="850" id="JOaPvl_DjxHU_pad-14"/><rect x="-1250" y="-937.5" width="2500" height="1875" id="JOaPvl_DjxHU_pad-15"/><rect x="-1150" y="-1387.5" width="2300" height="2775" id="JOaPvl_DjxHU_pad-16"/><rect x="-1150" y="-787.5" width="2300" height="1575" id="JOaPvl_DjxHU_pad-17"/><rect x="-850" y="-850" width="1700" height="1700" id="JTwMJB3FrQ0._pad-10"/><rect x="-850" y="-850" width="1700" height="1700" rx="850" ry="850" id="JTwMJB3FrQ0._pad-11"/><circle cx="0" cy="0" r="437.5" id="JTwMJB3FrQ0._pad-13"/><rect x="-690" y="-225" width="1380" height="450" id="JTwMJB3FrQ0._pad-14"/><rect x="-1050" y="-737.5" width="2100" height="1475" id="JTwMJB3FrQ0._pad-15"/><rect x="-950" y="-1187.5" width="1900" height="2375" id="JTwMJB3FrQ0._pad-16"/><rect x="-950" y="-587.5" width="1900" height="1175" id="JTwMJB3FrQ0._pad-17"/><circle cx="0" cy="0" r="300" id="JTwMJB3FrQ0._pad-18"/><rect x="-850" y="-850" width="1700" height="1700" id="JTwMJB3FrQ0._pad-10"/><rect x="-850" y="-850" width="1700" height="1700" rx="850" ry="850" id="JTwMJB3FrQ0._pad-11"/><circle cx="0" cy="0" r="437.5" id="JTwMJB3FrQ0._pad-13"/><rect x="-690" y="-225" width="1380" height="450" id="JTwMJB3FrQ0._pad-14"/><rect x="-1050" y="-737.5" width="2100" height="1475" id="JTwMJB3FrQ0._pad-15"/><rect x="-950" y="-1187.5" width="1900" height="2375" id="JTwMJB3FrQ0._pad-16"/><rect x="-950" y="-587.5" width="1900" height="1175" id="JTwMJB3FrQ0._pad-17"/><circle cx="0" cy="0" r="300" id="JTwMJB3FrQ0._pad-18"/><rect x="-1050" y="-1050" width="2100" height="2100" id="JOaPvl_DjxHU_pad-10"/><rect x="-1050" y="-1050" width="2100" height="2100" rx="1050" ry="1050" id="JOaPvl_DjxHU_pad-11"/><circle cx="0" cy="0" r="637.5" id="JOaPvl_DjxHU_pad-13"/><rect x="-890" y="-425" width="1780" height="850" id="JOaPvl_DjxHU_pad-14"/><rect x="-1250" y="-937.5" width="2500" height="1875" id="JOaPvl_DjxHU_pad-15"/><rect x="-1150" y="-1387.5" width="2300" height="2775" id="JOaPvl_DjxHU_pad-16"/><rect x="-1150" y="-787.5" width="2300" height="1575" id="JOaPvl_DjxHU_pad-17"/><circle cx="0" cy="0" r="5.9" id="DDVpayYxDF4U_pad-1"/><circle cx="0" cy="0" r="19.7" id="DDVpayYxDF4U_pad-2"/><g id="pcb-stackup_bottom_cu"><use xlink:href="#JTwMJB3FrQ0._pad-10" x="193800" y="-76200"/><use xlink:href="#JTwMJB3FrQ0._pad-11" x="193800" y="-78740"/><use xlink:href="#JTwMJB3FrQ0._pad-11" x="193800" y="-81280"/><use xlink:href="#JTwMJB3FrQ0._pad-11" x="193800" y="-83820"/><path d="M 191577.691 -75876.053 191598.926 -75879.203 191619.75 -75884.419 191639.962 -75891.651 191659.368 -75900.83 191677.781 -75911.866 191695.024 -75924.654 191710.93 -75939.07 191725.346 -75954.976 191738.134 -75972.219 191749.17 -75990.632 191758.349 -76010.038 191765.581 -76030.25 191770.797 -76051.074 191773.947 -76072.309 191775 -76093.75 191775 -76531.25 191773.947 -76552.691 191770.797 -76573.926 191765.581 -76594.75 191758.349 -76614.962 191749.17 -76634.368 191738.134 -76652.781 191725.346 -76670.024 191710.93 -76685.93 191695.024 -76700.346 191677.781 -76713.134 191659.368 -76724.17 191639.962 -76733.349 191619.75 -76740.581 191598.926 -76745.797 191577.691 -76748.947 191556.25 -76750 191043.75 -76750 191022.309 -76748.947 191001.074 -76745.797 190980.25 -76740.581 190960.038 -76733.349 190940.632 -76724.17 190922.219 -76713.134 190904.976 -76700.346 190889.07 -76685.93 190874.654 -76670.024 190861.866 -76652.781 190850.83 -76634.368 190841.651 -76614.962 190834.419 -76594.75 190829.203 -76573.926 190826.053 -76552.691 190825 -76531.25 190825 -76093.75 190826.053 -76072.309 190829.203 -76051.074 190834.419 -76030.25 190841.651 -76010.038 190850.83 -75990.632 190861.866 -75972.219 190874.654 -75954.976 190889.07 -75939.07 190904.976 -75924.654 190922.219 -75911.866 190940.632 -75900.83 190960.038 -75891.651 190980.25 -75884.419 191001.074 -75879.203 191022.309 -75876.053 191043.75 -75875 191556.25 -75875 191577.691 -75876.053 191577.691 -75876.053"/><use xlink:href="#JTwMJB3FrQ0._pad-13" x="191300" y="-76312.5"/><path d="M 191577.691 -77451.053 191598.926 -77454.203 191619.75 -77459.419 191639.962 -77466.651 191659.368 -77475.83 191677.781 -77486.866 191695.024 -77499.654 191710.93 -77514.07 191725.346 -77529.976 191738.134 -77547.219 191749.17 -77565.632 191758.349 -77585.038 191765.581 -77605.25 191770.797 -77626.074 191773.947 -77647.309 191775 -77668.75 191775 -78106.25 191773.947 -78127.691 191770.797 -78148.926 191765.581 -78169.75 191758.349 -78189.962 191749.17 -78209.368 191738.134 -78227.781 191725.346 -78245.024 191710.93 -78260.93 191695.024 -78275.346 191677.781 -78288.134 191659.368 -78299.17 191639.962 -78308.349 191619.75 -78315.581 191598.926 -78320.797 191577.691 -78323.947 191556.25 -78325 191043.75 -78325 191022.309 -78323.947 191001.074 -78320.797 190980.25 -78315.581 190960.038 -78308.349 190940.632 -78299.17 190922.219 -78288.134 190904.976 -78275.346 190889.07 -78260.93 190874.654 -78245.024 190861.866 -78227.781 190850.83 -78209.368 190841.651 -78189.962 190834.419 -78169.75 190829.203 -78148.926 190826.053 -78127.691 190825 -78106.25 190825 -77668.75 190826.053 -77647.309 190829.203 -77626.074 190834.419 -77605.25 190841.651 -77585.038 190850.83 -77565.632 190861.866 -77547.219 190874.654 -77529.976 190889.07 -77514.07 190904.976 -77499.654 190922.219 -77486.866 190940.632 -77475.83 190960.038 -77466.651 190980.25 -77459.419 191001.074 -77454.203 191022.309 -77451.053 191043.75 -77450 191556.25 -77450 191577.691 -77451.053 191577.691 -77451.053"/><use xlink:href="#JTwMJB3FrQ0._pad-13" x="191300" y="-77887.5"/><path d="M 191577.691 -81776.053 191598.926 -81779.203 191619.75 -81784.419 191639.962 -81791.651 191659.368 -81800.83 191677.781 -81811.866 191695.024 -81824.654 191710.93 -81839.07 191725.346 -81854.976 191738.134 -81872.219 191749.17 -81890.632 191758.349 -81910.038 191765.581 -81930.25 191770.797 -81951.074 191773.947 -81972.309 191775 -81993.75 191775 -82431.25 191773.947 -82452.691 191770.797 -82473.926 191765.581 -82494.75 191758.349 -82514.962 191749.17 -82534.368 191738.134 -82552.781 191725.346 -82570.024 191710.93 -82585.93 191695.024 -82600.346 191677.781 -82613.134 191659.368 -82624.17 191639.962 -82633.349 191619.75 -82640.581 191598.926 -82645.797 191577.691 -82648.947 191556.25 -82650 191043.75 -82650 191022.309 -82648.947 191001.074 -82645.797 190980.25 -82640.581 190960.038 -82633.349 190940.632 -82624.17 190922.219 -82613.134 190904.976 -82600.346 190889.07 -82585.93 190874.654 -82570.024 190861.866 -82552.781 190850.83 -82534.368 190841.651 -82514.962 190834.419 -82494.75 190829.203 -82473.926 190826.053 -82452.691 190825 -82431.25 190825 -81993.75 190826.053 -81972.309 190829.203 -81951.074 190834.419 -81930.25 190841.651 -81910.038 190850.83 -81890.632 190861.866 -81872.219 190874.654 -81854.976 190889.07 -81839.07 190904.976 -81824.654 190922.219 -81811.866 190940.632 -81800.83 190960.038 -81791.651 190980.25 -81784.419 191001.074 -81779.203 191022.309 -81776.053 191043.75 -81775 191556.25 -81775 191577.691 -81776.053 191577.691 -81776.053"/><use xlink:href="#JTwMJB3FrQ0._pad-13" x="191300" y="-82212.5"/><path d="M 191577.691 -83351.053 191598.926 -83354.203 191619.75 -83359.419 191639.962 -83366.651 191659.368 -83375.83 191677.781 -83386.866 191695.024 -83399.654 191710.93 -83414.07 191725.346 -83429.976 191738.134 -83447.219 191749.17 -83465.632 191758.349 -83485.038 191765.581 -83505.25 191770.797 -83526.074 191773.947 -83547.309 191775 -83568.75 191775 -84006.25 191773.947 -84027.691 191770.797 -84048.926 191765.581 -84069.75 191758.349 -84089.962 191749.17 -84109.368 191738.134 -84127.781 191725.346 -84145.024 191710.93 -84160.93 191695.024 -84175.346 191677.781 -84188.134 191659.368 -84199.17 191639.962 -84208.349 191619.75 -84215.581 191598.926 -84220.797 191577.691 -84223.947 191556.25 -84225 191043.75 -84225 191022.309 -84223.947 191001.074 -84220.797 190980.25 -84215.581 190960.038 -84208.349 190940.632 -84199.17 190922.219 -84188.134 190904.976 -84175.346 190889.07 -84160.93 190874.654 -84145.024 190861.866 -84127.781 190850.83 -84109.368 190841.651 -84089.962 190834.419 -84069.75 190829.203 -84048.926 190826.053 -84027.691 190825 -84006.25 190825 -83568.75 190826.053 -83547.309 190829.203 -83526.074 190834.419 -83505.25 190841.651 -83485.038 190850.83 -83465.632 190861.866 -83447.219 190874.654 -83429.976 190889.07 -83414.07 190904.976 -83399.654 190922.219 -83386.866 190940.632 -83375.83 190960.038 -83366.651 190980.25 -83359.419 191001.074 -83354.203 191022.309 -83351.053 191043.75 -83350 191556.25 -83350 191577.691 -83351.053 191577.691 -83351.053"/><use xlink:href="#JTwMJB3FrQ0._pad-13" x="191300" y="-83787.5"/><use xlink:href="#JTwMJB3FrQ0._pad-14" x="189210" y="-81300"/><use xlink:href="#JTwMJB3FrQ0._pad-14" x="189210" y="-80650"/><use xlink:href="#JTwMJB3FrQ0._pad-14" x="189210" y="-80000"/><use xlink:href="#JTwMJB3FrQ0._pad-14" x="189210" y="-79350"/><use xlink:href="#JTwMJB3FrQ0._pad-14" x="189210" y="-78700"/><use xlink:href="#JTwMJB3FrQ0._pad-15" x="188850" y="-82462.5"/><use xlink:href="#JTwMJB3FrQ0._pad-15" x="188850" y="-77537.5"/><use xlink:href="#JTwMJB3FrQ0._pad-16" x="186550" y="-82910"/><use xlink:href="#JTwMJB3FrQ0._pad-16" x="186550" y="-77090"/><use xlink:href="#JTwMJB3FrQ0._pad-17" x="186550" y="-80840"/><use xlink:href="#JTwMJB3FrQ0._pad-17" x="186550" y="-79160"/><use xlink:href="#JTwMJB3FrQ0._pad-18" x="188074.99" y="-79845.779"/><use xlink:href="#JTwMJB3FrQ0._pad-18" x="188074.99" y="-80778.907"/><use xlink:href="#JTwMJB3FrQ0._pad-18" x="187886.325" y="-81556.355"/><use xlink:href="#JTwMJB3FrQ0._pad-18" x="191400" y="-77300"/><path d="M 189210 -80000 188229.211 -80000 188074.99 -79845.779 M 189210 -80650 188203.897 -80650 188074.99 -80778.907 M 191400 -77787.5 191300 -77887.5 M 191400 -77300 191400 -77787.5" fill="none" stroke-width="200"/><path d="M 192910.197 -82689.803 192951.399 -82717.333 193000 -82727 194347.394 -82727 194519.001 -82898.607 194519.001 -84519 192327 -84519 192327 -83100 192317.333 -83051.399 192289.803 -83010.197 192248.601 -82982.667 192200 -82973 191613.884 -82973 191556.25 -82961.536 191043.75 -82961.536 190986.116 -82973 190627 -82973 190627 -82100 190617.333 -82051.399 190589.803 -82010.197 190529.416 -81976.454 190288.464 -81919.084 190288.464 -81725 190258.894 -81576.341 190174.686 -81450.314 190048.659 -81366.106 189900 -81336.536 188532.382 -81336.536 188527 -81323.543 188527 -81289.977 188553.513 -81263.464 189900 -81263.464 190048.659 -81233.894 190174.686 -81149.686 190189.844 -81127 191347.394 -81127 192910.197 -82689.803 192910.197 -82689.803"/><path d="M 192910.197 -82689.803 192951.399 -82717.333 193000 -82727 194347.394 -82727 194519.001 -82898.607 194519.001 -84519 192327 -84519 192327 -83100 192317.333 -83051.399 192289.803 -83010.197 192248.601 -82982.667 192200 -82973 191613.884 -82973 191556.25 -82961.536 191043.75 -82961.536 190986.116 -82973 190627 -82973 190627 -82100 190617.333 -82051.399 190589.803 -82010.197 190529.416 -81976.454 190288.464 -81919.084 190288.464 -81725 190258.894 -81576.341 190174.686 -81450.314 190048.659 -81366.106 189900 -81336.536 188532.382 -81336.536 188527 -81323.543 188527 -81289.977 188553.513 -81263.464 189900 -81263.464 190048.659 -81233.894 190174.686 -81149.686 190189.844 -81127 191347.394 -81127 192910.197 -82689.803" fill="none" stroke-width="254"/><path d="M 194519 -77739.91 194280.312 -77580.424 193921.239 -77509 193678.761 -77509 193319.688 -77580.424 192912.499 -77852.499 192640.424 -78259.688 192544.884 -78740 192640.424 -79220.312 192912.499 -79627.501 193319.688 -79899.576 193678.761 -79971 193921.239 -79971 194280.312 -79899.576 194519 -79740.089 194519.001 -80279.911 194280.312 -80120.424 193921.239 -80049 193678.761 -80049 193319.688 -80120.424 192912.499 -80392.499 192640.424 -80799.688 192544.884 -81280 192625.848 -81687.032 191669.408 -80730.592 191545.802 -80648.002 191400 -80619 190288.464 -80619 190288.464 -80425 190268.573 -80325 190288.464 -80225 190288.464 -79775 190268.573 -79675 190288.464 -79575 190288.464 -79125 190258.894 -78976.341 190174.686 -78850.314 190048.659 -78766.106 189900 -78736.536 188520 -78736.536 188371.341 -78766.106 188245.314 -78850.314 188161.106 -78976.341 188131.536 -79125 188131.536 -79164.779 187939.531 -79164.779 187689.234 -79268.455 187497.666 -79460.023 187393.99 -79710.32 187393.99 -79981.238 187497.666 -80231.535 187578.474 -80312.343 187497.666 -80393.151 187393.99 -80643.448 187393.99 -80914.366 187497.666 -81164.663 187689.234 -81356.231 187939.531 -81459.907 188019 -81459.907 188019 -81600 188075.518 -81799.681 188176.633 -81908.655 188311.753 -81970.639 190119 -82400.936 190119 -83100 190148.002 -83245.802 190230.592 -83369.408 190354.198 -83451.998 190500 -83481 191819 -83481 191819 -84519 185481 -84519 185481 -77668.75 190436.536 -77668.75 190436.536 -78106.25 190482.757 -78338.621 190614.385 -78535.615 190811.379 -78667.243 191043.75 -78713.464 191556.25 -78713.464 191788.621 -78667.243 191985.615 -78535.615 192117.243 -78338.621 192163.464 -78106.25 192163.464 -77668.75 192117.243 -77436.379 192081 -77382.138 192081 -77164.541 191977.324 -76914.244 191785.756 -76722.676 191535.459 -76619 191264.541 -76619 191014.244 -76722.676 190822.676 -76914.244 190719 -77164.541 190719 -77169.483 190614.385 -77239.385 190482.757 -77436.379 190436.536 -77668.75 185481 -77668.75 185481 -75481 194519 -75481 194519 -77739.91 194519 -77739.91"/><path d="M 194519 -77739.91 194280.312 -77580.424 193921.239 -77509 193678.761 -77509 193319.688 -77580.424 192912.499 -77852.499 192640.424 -78259.688 192544.884 -78740 192640.424 -79220.312 192912.499 -79627.501 193319.688 -79899.576 193678.761 -79971 193921.239 -79971 194280.312 -79899.576 194519 -79740.089 194519.001 -80279.911 194280.312 -80120.424 193921.239 -80049 193678.761 -80049 193319.688 -80120.424 192912.499 -80392.499 192640.424 -80799.688 192544.884 -81280 192625.848 -81687.032 191669.408 -80730.592 191545.802 -80648.002 191400 -80619 190288.464 -80619 190288.464 -80425 190268.573 -80325 190288.464 -80225 190288.464 -79775 190268.573 -79675 190288.464 -79575 190288.464 -79125 190258.894 -78976.341 190174.686 -78850.314 190048.659 -78766.106 189900 -78736.536 188520 -78736.536 188371.341 -78766.106 188245.314 -78850.314 188161.106 -78976.341 188131.536 -79125 188131.536 -79164.779 187939.531 -79164.779 187689.234 -79268.455 187497.666 -79460.023 187393.99 -79710.32 187393.99 -79981.238 187497.666 -80231.535 187578.474 -80312.343 187497.666 -80393.151 187393.99 -80643.448 187393.99 -80914.366 187497.666 -81164.663 187689.234 -81356.231 187939.531 -81459.907 188019 -81459.907 188019 -81600 188075.518 -81799.681 188176.633 -81908.655 188311.753 -81970.639 190119 -82400.936 190119 -83100 190148.002 -83245.802 190230.592 -83369.408 190354.198 -83451.998 190500 -83481 191819 -83481 191819 -84519 185481 -84519 185481 -77668.75 190436.536 -77668.75 190436.536 -78106.25 190482.757 -78338.621 190614.385 -78535.615 190811.379 -78667.243 191043.75 -78713.464 191556.25 -78713.464 191788.621 -78667.243 191985.615 -78535.615 192117.243 -78338.621 192163.464 -78106.25 192163.464 -77668.75 192117.243 -77436.379 192081 -77382.138 192081 -77164.541 191977.324 -76914.244 191785.756 -76722.676 191535.459 -76619 191264.541 -76619 191014.244 -76722.676 190822.676 -76914.244 190719 -77164.541 190719 -77169.483 190614.385 -77239.385 190482.757 -77436.379 190436.536 -77668.75 185481 -77668.75 185481 -75481 194519 -75481 194519 -77739.91" fill="none" stroke-width="254"/></g><g id="pcb-stackup_bottom_sm"><use xlink:href="#JOaPvl_DjxHU_pad-10" x="193800" y="-76200"/><use xlink:href="#JOaPvl_DjxHU_pad-11" x="193800" y="-78740"/><use xlink:href="#JOaPvl_DjxHU_pad-11" x="193800" y="-81280"/><use xlink:href="#JOaPvl_DjxHU_pad-11" x="193800" y="-83820"/><path d="M 191687.493 -75676.535 191718.435 -75681.125 191748.778 -75688.725 191778.23 -75699.263 191806.508 -75712.638 191833.338 -75728.719 191858.463 -75747.353 191881.64 -75768.36 191902.647 -75791.537 191921.281 -75816.662 191937.362 -75843.492 191950.737 -75871.77 191961.275 -75901.222 191968.875 -75931.565 191973.465 -75962.507 191975 -75993.75 191975 -76631.25 191973.465 -76662.493 191968.875 -76693.435 191961.275 -76723.778 191950.737 -76753.23 191937.362 -76781.508 191921.281 -76808.338 191902.647 -76833.463 191881.64 -76856.64 191858.463 -76877.647 191833.338 -76896.281 191806.508 -76912.362 191778.23 -76925.737 191748.778 -76936.275 191718.435 -76943.875 191687.493 -76948.465 191656.25 -76950 190943.75 -76950 190912.507 -76948.465 190881.565 -76943.875 190851.222 -76936.275 190821.77 -76925.737 190793.492 -76912.362 190766.662 -76896.281 190741.537 -76877.647 190718.36 -76856.64 190697.353 -76833.463 190678.719 -76808.338 190662.638 -76781.508 190649.263 -76753.23 190638.725 -76723.778 190631.125 -76693.435 190626.535 -76662.493 190625 -76631.25 190625 -75993.75 190626.535 -75962.507 190631.125 -75931.565 190638.725 -75901.222 190649.263 -75871.77 190662.638 -75843.492 190678.719 -75816.662 190697.353 -75791.537 190718.36 -75768.36 190741.537 -75747.353 190766.662 -75728.719 190793.492 -75712.638 190821.77 -75699.263 190851.222 -75688.725 190881.565 -75681.125 190912.507 -75676.535 190943.75 -75675 191656.25 -75675 191687.493 -75676.535 191687.493 -75676.535"/><use xlink:href="#JOaPvl_DjxHU_pad-13" x="191300" y="-76312.5"/><path d="M 191687.493 -77251.535 191718.435 -77256.125 191748.778 -77263.725 191778.23 -77274.263 191806.508 -77287.638 191833.338 -77303.719 191858.463 -77322.353 191881.64 -77343.36 191902.647 -77366.537 191921.281 -77391.662 191937.362 -77418.492 191950.737 -77446.77 191961.275 -77476.222 191968.875 -77506.565 191973.465 -77537.507 191975 -77568.75 191975 -78206.25 191973.465 -78237.493 191968.875 -78268.435 191961.275 -78298.778 191950.737 -78328.23 191937.362 -78356.508 191921.281 -78383.338 191902.647 -78408.463 191881.64 -78431.64 191858.463 -78452.647 191833.338 -78471.281 191806.508 -78487.362 191778.23 -78500.737 191748.778 -78511.275 191718.435 -78518.875 191687.493 -78523.465 191656.25 -78525 190943.75 -78525 190912.507 -78523.465 190881.565 -78518.875 190851.222 -78511.275 190821.77 -78500.737 190793.492 -78487.362 190766.662 -78471.281 190741.537 -78452.647 190718.36 -78431.64 190697.353 -78408.463 190678.719 -78383.338 190662.638 -78356.508 190649.263 -78328.23 190638.725 -78298.778 190631.125 -78268.435 190626.535 -78237.493 190625 -78206.25 190625 -77568.75 190626.535 -77537.507 190631.125 -77506.565 190638.725 -77476.222 190649.263 -77446.77 190662.638 -77418.492 190678.719 -77391.662 190697.353 -77366.537 190718.36 -77343.36 190741.537 -77322.353 190766.662 -77303.719 190793.492 -77287.638 190821.77 -77274.263 190851.222 -77263.725 190881.565 -77256.125 190912.507 -77251.535 190943.75 -77250 191656.25 -77250 191687.493 -77251.535 191687.493 -77251.535"/><use xlink:href="#JOaPvl_DjxHU_pad-13" x="191300" y="-77887.5"/><path d="M 191687.493 -81576.535 191718.435 -81581.125 191748.778 -81588.725 191778.23 -81599.263 191806.508 -81612.638 191833.338 -81628.719 191858.463 -81647.353 191881.64 -81668.36 191902.647 -81691.537 191921.281 -81716.662 191937.362 -81743.492 191950.737 -81771.77 191961.275 -81801.222 191968.875 -81831.565 191973.465 -81862.507 191975 -81893.75 191975 -82531.25 191973.465 -82562.493 191968.875 -82593.435 191961.275 -82623.778 191950.737 -82653.23 191937.362 -82681.508 191921.281 -82708.338 191902.647 -82733.463 191881.64 -82756.64 191858.463 -82777.647 191833.338 -82796.281 191806.508 -82812.362 191778.23 -82825.737 191748.778 -82836.275 191718.435 -82843.875 191687.493 -82848.465 191656.25 -82850 190943.75 -82850 190912.507 -82848.465 190881.565 -82843.875 190851.222 -82836.275 190821.77 -82825.737 190793.492 -82812.362 190766.662 -82796.281 190741.537 -82777.647 190718.36 -82756.64 190697.353 -82733.463 190678.719 -82708.338 190662.638 -82681.508 190649.263 -82653.23 190638.725 -82623.778 190631.125 -82593.435 190626.535 -82562.493 190625 -82531.25 190625 -81893.75 190626.535 -81862.507 190631.125 -81831.565 190638.725 -81801.222 190649.263 -81771.77 190662.638 -81743.492 190678.719 -81716.662 190697.353 -81691.537 190718.36 -81668.36 190741.537 -81647.353 190766.662 -81628.719 190793.492 -81612.638 190821.77 -81599.263 190851.222 -81588.725 190881.565 -81581.125 190912.507 -81576.535 190943.75 -81575 191656.25 -81575 191687.493 -81576.535 191687.493 -81576.535"/><use xlink:href="#JOaPvl_DjxHU_pad-13" x="191300" y="-82212.5"/><path d="M 191687.493 -83151.535 191718.435 -83156.125 191748.778 -83163.725 191778.23 -83174.263 191806.508 -83187.638 191833.338 -83203.719 191858.463 -83222.353 191881.64 -83243.36 191902.647 -83266.537 191921.281 -83291.662 191937.362 -83318.492 191950.737 -83346.77 191961.275 -83376.222 191968.875 -83406.565 191973.465 -83437.507 191975 -83468.75 191975 -84106.25 191973.465 -84137.493 191968.875 -84168.435 191961.275 -84198.778 191950.737 -84228.23 191937.362 -84256.508 191921.281 -84283.338 191902.647 -84308.463 191881.64 -84331.64 191858.463 -84352.647 191833.338 -84371.281 191806.508 -84387.362 191778.23 -84400.737 191748.778 -84411.275 191718.435 -84418.875 191687.493 -84423.465 191656.25 -84425 190943.75 -84425 190912.507 -84423.465 190881.565 -84418.875 190851.222 -84411.275 190821.77 -84400.737 190793.492 -84387.362 190766.662 -84371.281 190741.537 -84352.647 190718.36 -84331.64 190697.353 -84308.463 190678.719 -84283.338 190662.638 -84256.508 190649.263 -84228.23 190638.725 -84198.778 190631.125 -84168.435 190626.535 -84137.493 190625 -84106.25 190625 -83468.75 190626.535 -83437.507 190631.125 -83406.565 190638.725 -83376.222 190649.263 -83346.77 190662.638 -83318.492 190678.719 -83291.662 190697.353 -83266.537 190718.36 -83243.36 190741.537 -83222.353 190766.662 -83203.719 190793.492 -83187.638 190821.77 -83174.263 190851.222 -83163.725 190881.565 -83156.125 190912.507 -83151.535 190943.75 -83150 191656.25 -83150 191687.493 -83151.535 191687.493 -83151.535"/><use xlink:href="#JOaPvl_DjxHU_pad-13" x="191300" y="-83787.5"/><use xlink:href="#JOaPvl_DjxHU_pad-14" x="189210" y="-81300"/><use xlink:href="#JOaPvl_DjxHU_pad-14" x="189210" y="-80650"/><use xlink:href="#JOaPvl_DjxHU_pad-14" x="189210" y="-80000"/><use xlink:href="#JOaPvl_DjxHU_pad-14" x="189210" y="-79350"/><use xlink:href="#JOaPvl_DjxHU_pad-14" x="189210" y="-78700"/><use xlink:href="#JOaPvl_DjxHU_pad-15" x="188850" y="-82462.5"/><use xlink:href="#JOaPvl_DjxHU_pad-15" x="188850" y="-77537.5"/><use xlink:href="#JOaPvl_DjxHU_pad-16" x="186550" y="-82910"/><use xlink:href="#JOaPvl_DjxHU_pad-16" x="186550" y="-77090"/><use xlink:href="#JOaPvl_DjxHU_pad-17" x="186550" y="-80840"/><use xlink:href="#JOaPvl_DjxHU_pad-17" x="186550" y="-79160"/></g><g id="pcb-stackup_bottom_ss"><path d="M 192126.19 -80819.047 192126.19 -81104.761 M 192626.19 -80961.904 192126.19 -80961.904 M 192126.19 -81223.809 192626.19 -81557.142 M 192126.19 -81557.142 192626.19 -81223.809 M 192626.19 -78616.666 192388.095 -78450 M 192626.19 -78330.952 192126.19 -78330.952 192126.19 -78521.428 192150 -78569.047 192173.809 -78592.857 192221.428 -78616.666 192292.857 -78616.666 192340.476 -78592.857 192364.285 -78569.047 192388.095 -78521.428 192388.095 -78330.952 M 192126.19 -78783.333 192626.19 -79116.666 M 192126.19 -79116.666 192626.19 -78783.333 M 192150 -75919.047 192126.19 -75871.428 192126.19 -75800 192150 -75728.571 192197.619 -75680.952 192245.238 -75657.142 192340.476 -75633.333 192411.904 -75633.333 192507.142 -75657.142 192554.761 -75680.952 192602.38 -75728.571 192626.19 -75800 192626.19 -75847.619 192602.38 -75919.047 192578.571 -75942.857 192411.904 -75942.857 192411.904 -75847.619 M 192626.19 -76157.142 192126.19 -76157.142 192626.19 -76442.857 192126.19 -76442.857 M 192626.19 -76680.952 192126.19 -76680.952 192126.19 -76800 192150 -76871.428 192197.619 -76919.047 192245.238 -76942.857 192340.476 -76966.666 192411.904 -76966.666 192507.142 -76942.857 192554.761 -76919.047 192602.38 -76871.428 192626.19 -76800 192626.19 -76680.952 M 192126.19 -83804.761 192126.19 -83566.666 192364.285 -83542.857 192340.476 -83566.666 192316.666 -83614.285 192316.666 -83733.333 192340.476 -83780.952 192364.285 -83804.761 192411.904 -83828.571 192530.952 -83828.571 192578.571 -83804.761 192602.38 -83780.952 192626.19 -83733.333 192626.19 -83614.285 192602.38 -83566.666 192578.571 -83542.857 M 192126.19 -83971.428 192626.19 -84138.095 192126.19 -84304.761 M 190790 -77262.779 190790 -76937.221 M 191810 -77262.779 191810 -76937.221 M 190790 -82837.221 190790 -83162.779 M 191810 -82837.221 191810 -83162.779 M 189460 -76190 189460 -76570 M 185410 -76190 185150 -76190 M 189460 -76190 187690 -76190 M 189460 -83810 189460 -83430 M 187690 -83810 189460 -83810 M 185150 -83810 185410 -83810" fill="none" stroke-width="120"/></g><g id="pcb-stackup_bottom_drl1" transform="scale(25.4,25.4)"><use xlink:href="#DDVpayYxDF4U_pad-1" x="7397.1" y="-3210.9"/><use xlink:href="#DDVpayYxDF4U_pad-1" x="7404.5" y="-3143.5"/><use xlink:href="#DDVpayYxDF4U_pad-1" x="7404.5" y="-3180.3"/><use xlink:href="#DDVpayYxDF4U_pad-1" x="7535.4" y="-3043.3"/><use xlink:href="#DDVpayYxDF4U_pad-2" x="7629.9" y="-3000"/><use xlink:href="#DDVpayYxDF4U_pad-2" x="7629.9" y="-3100"/><use xlink:href="#DDVpayYxDF4U_pad-2" x="7629.9" y="-3200"/><use xlink:href="#DDVpayYxDF4U_pad-2" x="7629.9" y="-3300"/></g><clipPath id="pcb-stackup_bottom_out"><path d="M 195000 -75000 195000 -85000 185000 -85000 185000 -75000 195000 -75000" fill="none" stroke-width="200"/></clipPath><mask id="pcb-stackup_bottom_mech-mask"><g fill="#000" stroke="#000"><rect x="185000" y="-85000" width="10000" height="10000" fill="#fff"/><use xlink:href="#pcb-stackup_bottom_drl1"/></g></mask><mask id="pcb-stackup_bottom_cf-mask"><g fill="#fff" stroke="#fff"><use xlink:href="#pcb-stackup_bottom_sm"/></g></mask><mask id="pcb-stackup_bottom_sm-mask"><g fill="#000" stroke="#000"><rect x="185000" y="-85000" width="10000" height="10000" fill="#fff"/><use xlink:href="#pcb-stackup_bottom_sm"/></g></mask></defs><g transform="translate(0,-160000) scale(1,-1)"><g mask="url(#pcb-stackup_bottom_mech-mask)" clip-path="url(#pcb-stackup_bottom_out)" transform="translate(380000,0) scale(-1,1)"><rect x="185000" y="-85000" width="10000" height="10000" fill="currentColor" class="pcb-stackup_fr4"/><use xlink:href="#pcb-stackup_bottom_cu" fill="currentColor" stroke="currentColor" class="pcb-stackup_cu"/><use xlink:href="#pcb-stackup_bottom_cu" fill="currentColor" stroke="currentColor" class="pcb-stackup_cf" mask="url(#pcb-stackup_bottom_cf-mask)"/><g mask="url(#pcb-stackup_bottom_sm-mask)"><rect x="185000" y="-85000" width="10000" height="10000" fill="currentColor" class="pcb-stackup_sm"/><use xlink:href="#pcb-stackup_bottom_ss" fill="currentColor" stroke="currentColor" class="pcb-stackup_ss"/></g></g></g></svg>