<svg id="pcb-stackup_top" version="1.1" xmlns:xlink="http://www.w3.org/1999/xlink" stroke-linecap="round" stroke-linejoin="round" stroke-width="0" fill-rule="evenodd" clip-rule="evenodd" viewBox="185000 -85000 10000 10000" width="10mm" height="10mm" xmlns="http://www.w3.org/2000/svg"><defs><style>.pcb-stackup_fr4 {color: #4D542C;}
.pcb-stackup_cu {color: lightgrey;}
.pcb-stackup_cf {color: goldenrod;}
.pcb-stackup_sm {color: #004400; opacity: 0.9;}
.pcb-stackup_ss {color: white;}
.pcb-stackup_sp {color: #000000; opacity: 0;}
.pcb-stackup_out {color: black;}</style><rect x="-850" y="-850" width="1700" height="1700" id="ny7scstCCyHV_pad-10"/><rect x="-850" y="-850" width="1700" height="1700" rx="850" ry="850" id="ny7scstCCyHV_pad-11"/><circle cx="0" cy="0" r="437.5" id="ny7scstCCyHV_pad-13"/><rect x="-775" y="-300" width="1550" height="600" id="ny7scstCCyHV_pad-14"/><circle cx="0" cy="0" r="300" id="ny7scstCCyHV_pad-15"/><rect x="-850" y="-850" width="1700" height="1700" id="ny7scstCCyHV_pad-10"/><rect x="-850" y="-850" width="1700" height="1700" rx="850" ry="850" id="ny7scstCCyHV_pad-11"/><circle cx="0" cy="0" r="437.5" id="ny7scstCCyHV_pad-13"/><rect x="-775" y="-300" width="1550" height="600" id="ny7scstCCyHV_pad-14"/><circle cx="0" cy="0" r="300" id="ny7scstCCyHV_pad-15"/><rect x="-1050" y="-1050" width="2100" height="2100" id="Y3hMfluLtDkP_pad-10"/><rect x="-1050" y="-1050" width="2100" height="2100" rx="1050" ry="1050" id="Y3hMfluLtDkP_pad-11"/><circle cx="0" cy="0" r="637.5" id="Y3hMfluLtDkP_pad-13"/><rect x="-975" y="-500" width="1950" height="1000" id="Y3hMfluLtDkP_pad-14"/><rect x="-850" y="-850" width="1700" height="1700" id="ny7scstCCyHV_pad-10"/><rect x="-850" y="-850" width="1700" height="1700" rx="850" ry="850" id="ny7scstCCyHV_pad-11"/><circle cx="0" cy="0" r="437.5" id="ny7scstCCyHV_pad-13"/><rect x="-775" y="-300" width="1550" height="600" id="ny7scstCCyHV_pad-14"/><circle cx="0" cy="0" r="300" id="ny7scstCCyHV_pad-15"/><rect x="-850" y="-850" width="1700" height="1700" id="ny7scstCCyHV_pad-10"/><rect x="-850" y="-850" width="1700" height="1700" rx="850" ry="850" id="ny7scstCCyHV_pad-11"/><circle cx="0" cy="0" r="437.5" id="ny7scstCCyHV_pad-13"/><rect x="-775" y="-300" width="1550" height="600" id="ny7scstCCyHV_pad-14"/><circle cx="0" cy="0" r="300" id="ny7scstCCyHV_pad-15"/><rect x="-1050" y="-1050" width="2100" height="2100" id="Y3hMfluLtDkP_pad-10"/><rect x="-1050" y="-1050" width="2100" height="2100" rx="1050" ry="1050" id="Y3hMfluLtDkP_pad-11"/><circle cx="0" cy="0" r="637.5" id="Y3hMfluLtDkP_pad-13"/><rect x="-975" y="-500" width="1950" height="1000" id="Y3hMfluLtDkP_pad-14"/><rect x="-850" y="-850" width="1700" height="1700" id="ny7scstCCyHV_pad-10"/><rect x="-850" y="-850" width="1700" height="1700" rx="850" ry="850" id="ny7scstCCyHV_pad-11"/><circle cx="0" cy="0" r="437.5" id="ny7scstCCyHV_pad-13"/><rect x="-775" y="-300" width="1550" height="600" id="ny7scstCCyHV_pad-14"/><circle cx="0" cy="0" r="300" id="ny7scstCCyHV_pad-15"/><rect x="-850" y="-850" width="1700" height="1700" id="ny7scstCCyHV_pad-10"/><rect x="-850" y="-850" width="1700" height="1700" rx="850" ry="850" id="ny7scstCCyHV_pad-11"/><circle cx="0" cy="0" r="437.5" id="ny7scstCCyHV_pad-13"/><rect x="-775" y="-300" width="1550" height="600" id="ny7scstCCyHV_pad-14"/><circle cx="0" cy="0" r="300" id="ny7scstCCyHV_pad-15"/><rect x="-1050" y="-1050" width="2100" height="2100" id="Y3hMfluLtDkP_pad-10"/><rect x="-1050" y="-1050" width="2100" height="2100" rx="1050" ry="1050" id="Y3hMfluLtDkP_pad-11"/><circle cx="0" cy="0" r="637.5" id="Y3hMfluLtDkP_pad-13"/><rect x="-975" y="-500" width="1950" height="1000" id="Y3hMfluLtDkP_pad-14"/><rect x="-850" y="-850" width="1700" height="1700" id="ny7scstCCyHV_pad-10"/><rect x="-850" y="-850" width="1700" height="1700" rx="850" ry="850" id="ny7scstCCyHV_pad-11"/><circle cx="0" cy="0" r="437.5" id="ny7scstCCyHV_pad-13"/><rect x="-775" y="-300" width="1550" height="600" id="ny7scstCCyHV_pad-14"/><circle cx="0" cy="0" r="300" id="ny7scstCCyHV_pad-15"/><rect x="-850" y="-850" width="1700" height="1700" id="ny7scstCCyHV_pad-10"/><rect x="-850" y="-850" width="1700" height="1700" rx="850" ry="850" id="ny7scstCCyHV_pad-11"/><circle cx="0" cy="0" r="437.5" id="ny7scstCCyHV_pad-13"/><rect x="-775" y="-300" width="1550" height="600" id="ny7scstCCyHV_pad-14"/><circle cx="0" cy="0" r="300" id="ny7scstCCyHV_pad-15"/><rect x="-1050" y="-1050" width="2100" height="2100" id="Y3hMfluLtDkP_pad-10"/><rect x="-1050" y="-1050" width="2100" height="2100" rx="1050" ry="1050" id="Y3hMfluLtDkP_pad-11"/><circle cx="0" cy="0" r="637.5" id="Y3hMfluLtDkP_pad-13"/><rect x="-975" y="-500" width="1950" height="1000" id="Y3hMfluLtDkP_pad-14"/><circle cx="0" cy="0" r="5.9" id="DDVpayYxDF4U_pad-1"/><circle cx="0" cy="0" r="19.7" id="DDVpayYxDF4U_pad-2"/><rect x="-850" y="-850" width="1700" height="1700" id="ny7scstCCyHV_pad-10"/><rect x="-850" y="-850" width="1700" height="1700" rx="850" ry="850" id="ny7scstCCyHV_pad-11"/><circle cx="0" cy="0" r="437.5" id="ny7scstCCyHV_pad-13"/><rect x="-775" y="-300" width="1550" height="600" id="ny7scstCCyHV_pad-14"/><circle cx="0" cy="0" r="300" id="ny7scstCCyHV_pad-15"/><rect x="-850" y="-850" width="1700" height="1700" id="ny7scstCCyHV_pad-10"/><rect x="-850" y="-850" width="1700" height="1700" rx="850" ry="850" id="ny7scstCCyHV_pad-11"/><circle cx="0" cy="0" r="437.5" id="ny7scstCCyHV_pad-13"/><rect x="-775" y="-300" width="1550" height="600" id="ny7scstCCyHV_pad-14"/><circle cx="0" cy="0" r="300" id="ny7scstCCyHV_pad-15"/><rect x="-1050" y="-1050" width="2100" height="2100" id="Y3hMfluLtDkP_pad-10"/><rect x="-1050" y="-1050" width="2100" height="2100" rx="1050" ry="1050" id="Y3hMfluLtDkP_pad-11"/><circle cx="0" cy="0" r="637.5" id="Y3hMfluLtDkP_pad-13"/><rect x="-975" y="-500" width="1950" height="1000" id="Y3hMfluLtDkP_pad-14"/><rect x="-850" y="-850" width="1700" height="1700" id="ny7scstCCyHV_pad-10"/><rect x="-850" y="-850" width="1700" height="1700" rx="850" ry="850" id="ny7scstCCyHV_pad-11"/><circle cx="0" cy="0" r="437.5" id="ny7scstCCyHV_pad-13"/><rect x="-775" y="-300" width="1550" height="600" id="ny7scstCCyHV_pad-14"/><circle cx="0" cy="0" r="300" id="ny7scstCCyHV_pad-15"/><rect x="-850" y="-850" width="1700" height="1700" id="ny7scstCCyHV_pad-10"/><rect x="-850" y="-850" width="1700" height="1700" rx="850" ry="850" id="ny7scstCCyHV_pad-11"/><circle cx="0" cy="0" r="437.5" id="ny7scstCCyHV_pad-13"/><rect x="-775" y="-300" width="1550" height="600" id="ny7scstCCyHV_pad-14"/><circle cx="0" cy="0" r="300" id="ny7scstCCyHV_pad-15"/><rect x="-1050" y="-1050" width="2100" height="2100" id="Y3hMfluLtDkP_pad-10"/><rect x="-1050" y="-1050" width="2100" height="2100" rx="1050" ry="1050" id="Y3hMfluLtDkP_pad-11"/><circle cx="0" cy="0" r="637.5" id="Y3hMfluLtDkP_pad-13"/><rect x="-975" y="-500" width="1950" height="1000" id="Y3hMfluLtDkP_pad-14"/><rect x="-850" y="-850" width="1700" height="1700" id="ny7scstCCyHV_pad-10"/><rect x="-850" y="-850" width="1700" height="1700" rx="850" ry="850" id="ny7scstCCyHV_pad-11"/><circle cx="0" cy="0" r="437.5" id="ny7scstCCyHV_pad-13"/><rect x="-775" y="-300" width="1550" height="600" id="ny7scstCCyHV_pad-14"/><circle cx="0" cy="0" r="300" id="ny7scstCCyHV_pad-15"/><rect x="-850" y="-850" width="1700" height="1700" id="ny7scstCCyHV_pad-10"/><rect x="-850" y="-850" width="1700" height="1700" rx="850" ry="850" id="ny7scstCCyHV_pad-11"/><circle cx="0" cy="0" r="437.5" id="ny7scstCCyHV_pad-13"/><rect x="-775" y="-300" width="1550" height="600" id="ny7scstCCyHV_pad-14"/><circle cx="0" cy="0" r="300" id="ny7scstCCyHV_pad-15"/><rect x="-1050" y="-1050" width="2100" height="2100" id="Y3hMfluLtDkP_pad-10"/><rect x="-1050" y="-1050" width="2100" height="2100" rx="1050" ry="1050" id="Y3hMfluLtDkP_pad-11"/><circle cx="0" cy="0" r="637.5" id="Y3hMfluLtDkP_pad-13"/><rect x="-975" y="-500" width="1950" height="1000" id="Y3hMfluLtDkP_pad-14"/><rect x="-850" y="-850" width="1700" height="1700" id="ny7scstCCyHV_pad-10"/><rect x="-850" y="-850" width="1700" height="1700" rx="850" ry="850" id="ny7scstCCyHV_pad-11"/><circle cx="0" cy="0" r="437.5" id="ny7scstCCyHV_pad-13"/><rect x="-775" y="-300" width="1550" height="600" id="ny7scstCCyHV_pad-14"/><circle cx="0" cy="0" r="300" id="ny7scstCCyHV_pad-15"/><rect x="-850" y="-850" width="1700" height="1700" id="ny7scstCCyHV_pad-10"/><rect x="-850" y="-850" width="1700" height="1700" rx="850" ry="850" id="ny7scstCCyHV_pad-11"/><circle cx="0" cy="0" r="437.5" id="ny7scstCCyHV_pad-13"/><rect x="-775" y="-300" width="1550" height="600" id="ny7scstCCyHV_pad-14"/><circle cx="0" cy="0" r="300" id="ny7scstCCyHV_pad-15"/><rect x="-1050" y="-1050" width="2100" height="2100" id="Y3hMfluLtDkP_pad-10"/><rect x="-1050" y="-1050" width="2100" height="2100" rx="1050" ry="1050" id="Y3hMfluLtDkP_pad-11"/><circle cx="0" cy="0" r="637.5" id="Y3hMfluLtDkP_pad-13"/><rect x="-975" y="-500" width="1950" height="1000" id="Y3hMfluLtDkP_pad-14"/><circle cx="0" cy="0" r="5.9" id="DDVpayYxDF4U_pad-1"/><circle cx="0" cy="0" r="19.7" id="DDVpayYxDF4U_pad-2"/><g id="pcb-stackup_top_cu"><use xlink:href="#ny7scstCCyHV_pad-10" x="193800" y="-76200"/><use xlink:href="#ny7scstCCyHV_pad-11" x="193800" y="-78740"/><use xlink:href="#ny7scstCCyHV_pad-11" x="193800" y="-81280"/><use xlink:href="#ny7scstCCyHV_pad-11" x="193800" y="-83820"/><path d="M 186952.691 -75826.053 186973.926 -75829.203 186994.75 -75834.419 187014.962 -75841.651 187034.368 -75850.83 187052.781 -75861.866 187070.024 -75874.654 187085.93 -75889.07 187100.346 -75904.976 187113.134 -75922.219 187124.17 -75940.632 187133.349 -75960.038 187140.581 -75980.25 187145.797 -76001.074 187148.947 -76022.309 187150 -76043.75 187150 -76556.25 187148.947 -76577.691 187145.797 -76598.926 187140.581 -76619.75 187133.349 -76639.962 187124.17 -76659.368 187113.134 -76677.781 187100.346 -76695.024 187085.93 -76710.93 187070.024 -76725.346 187052.781 -76738.134 187034.368 -76749.17 187014.962 -76758.349 186994.75 -76765.581 186973.926 -76770.797 186952.691 -76773.947 186931.25 -76775 186493.75 -76775 186472.309 -76773.947 186451.074 -76770.797 186430.25 -76765.581 186410.038 -76758.349 186390.632 -76749.17 186372.219 -76738.134 186354.976 -76725.346 186339.07 -76710.93 186324.654 -76695.024 186311.866 -76677.781 186300.83 -76659.368 186291.651 -76639.962 186284.419 -76619.75 186279.203 -76598.926 186276.053 -76577.691 186275 -76556.25 186275 -76043.75 186276.053 -76022.309 186279.203 -76001.074 186284.419 -75980.25 186291.651 -75960.038 186300.83 -75940.632 186311.866 -75922.219 186324.654 -75904.976 186339.07 -75889.07 186354.976 -75874.654 186372.219 -75861.866 186390.632 -75850.83 186410.038 -75841.651 186430.25 -75834.419 186451.074 -75829.203 186472.309 -75826.053 186493.75 -75825 186931.25 -75825 186952.691 -75826.053 186952.691 -75826.053"/><use xlink:href="#ny7scstCCyHV_pad-13" x="186712.5" y="-76300"/><path d="M 188527.691 -75826.053 188548.926 -75829.203 188569.75 -75834.419 188589.962 -75841.651 188609.368 -75850.83 188627.781 -75861.866 188645.024 -75874.654 188660.93 -75889.07 188675.346 -75904.976 188688.134 -75922.219 188699.17 -75940.632 188708.349 -75960.038 188715.581 -75980.25 188720.797 -76001.074 188723.947 -76022.309 188725 -76043.75 188725 -76556.25 188723.947 -76577.691 188720.797 -76598.926 188715.581 -76619.75 188708.349 -76639.962 188699.17 -76659.368 188688.134 -76677.781 188675.346 -76695.024 188660.93 -76710.93 188645.024 -76725.346 188627.781 -76738.134 188609.368 -76749.17 188589.962 -76758.349 188569.75 -76765.581 188548.926 -76770.797 188527.691 -76773.947 188506.25 -76775 188068.75 -76775 188047.309 -76773.947 188026.074 -76770.797 188005.25 -76765.581 187985.038 -76758.349 187965.632 -76749.17 187947.219 -76738.134 187929.976 -76725.346 187914.07 -76710.93 187899.654 -76695.024 187886.866 -76677.781 187875.83 -76659.368 187866.651 -76639.962 187859.419 -76619.75 187854.203 -76598.926 187851.053 -76577.691 187850 -76556.25 187850 -76043.75 187851.053 -76022.309 187854.203 -76001.074 187859.419 -75980.25 187866.651 -75960.038 187875.83 -75940.632 187886.866 -75922.219 187899.654 -75904.976 187914.07 -75889.07 187929.976 -75874.654 187947.219 -75861.866 187965.632 -75850.83 187985.038 -75841.651 188005.25 -75834.419 188026.074 -75829.203 188047.309 -75826.053 188068.75 -75825 188506.25 -75825 188527.691 -75826.053 188527.691 -75826.053"/><use xlink:href="#ny7scstCCyHV_pad-13" x="188287.5" y="-76300"/><path d="M 188527.691 -83226.053 188548.926 -83229.203 188569.75 -83234.419 188589.962 -83241.651 188609.368 -83250.83 188627.781 -83261.866 188645.024 -83274.654 188660.93 -83289.07 188675.346 -83304.976 188688.134 -83322.219 188699.17 -83340.632 188708.349 -83360.038 188715.581 -83380.25 188720.797 -83401.074 188723.947 -83422.309 188725 -83443.75 188725 -83956.25 188723.947 -83977.691 188720.797 -83998.926 188715.581 -84019.75 188708.349 -84039.962 188699.17 -84059.368 188688.134 -84077.781 188675.346 -84095.024 188660.93 -84110.93 188645.024 -84125.346 188627.781 -84138.134 188609.368 -84149.17 188589.962 -84158.349 188569.75 -84165.581 188548.926 -84170.797 188527.691 -84173.947 188506.25 -84175 188068.75 -84175 188047.309 -84173.947 188026.074 -84170.797 188005.25 -84165.581 187985.038 -84158.349 187965.632 -84149.17 187947.219 -84138.134 187929.976 -84125.346 187914.07 -84110.93 187899.654 -84095.024 187886.866 -84077.781 187875.83 -84059.368 187866.651 -84039.962 187859.419 -84019.75 187854.203 -83998.926 187851.053 -83977.691 187850 -83956.25 187850 -83443.75 187851.053 -83422.309 187854.203 -83401.074 187859.419 -83380.25 187866.651 -83360.038 187875.83 -83340.632 187886.866 -83322.219 187899.654 -83304.976 187914.07 -83289.07 187929.976 -83274.654 187947.219 -83261.866 187965.632 -83250.83 187985.038 -83241.651 188005.25 -83234.419 188026.074 -83229.203 188047.309 -83226.053 188068.75 -83225 188506.25 -83225 188527.691 -83226.053 188527.691 -83226.053"/><use xlink:href="#ny7scstCCyHV_pad-13" x="188287.5" y="-83700"/><path d="M 186952.691 -83226.053 186973.926 -83229.203 186994.75 -83234.419 187014.962 -83241.651 187034.368 -83250.83 187052.781 -83261.866 187070.024 -83274.654 187085.93 -83289.07 187100.346 -83304.976 187113.134 -83322.219 187124.17 -83340.632 187133.349 -83360.038 187140.581 -83380.25 187145.797 -83401.074 187148.947 -83422.309 187150 -83443.75 187150 -83956.25 187148.947 -83977.691 187145.797 -83998.926 187140.581 -84019.75 187133.349 -84039.962 187124.17 -84059.368 187113.134 -84077.781 187100.346 -84095.024 187085.93 -84110.93 187070.024 -84125.346 187052.781 -84138.134 187034.368 -84149.17 187014.962 -84158.349 186994.75 -84165.581 186973.926 -84170.797 186952.691 -84173.947 186931.25 -84175 186493.75 -84175 186472.309 -84173.947 186451.074 -84170.797 186430.25 -84165.581 186410.038 -84158.349 186390.632 -84149.17 186372.219 -84138.134 186354.976 -84125.346 186339.07 -84110.93 186324.654 -84095.024 186311.866 -84077.781 186300.83 -84059.368 186291.651 -84039.962 186284.419 -84019.75 186279.203 -83998.926 186276.053 -83977.691 186275 -83956.25 186275 -83443.75 186276.053 -83422.309 186279.203 -83401.074 186284.419 -83380.25 186291.651 -83360.038 186300.83 -83340.632 186311.866 -83322.219 186324.654 -83304.976 186339.07 -83289.07 186354.976 -83274.654 186372.219 -83261.866 186390.632 -83250.83 186410.038 -83241.651 186430.25 -83234.419 186451.074 -83229.203 186472.309 -83226.053 186493.75 -83225 186931.25 -83225 186952.691 -83226.053 186952.691 -83226.053"/><use xlink:href="#ny7scstCCyHV_pad-13" x="186712.5" y="-83700"/><use xlink:href="#ny7scstCCyHV_pad-14" x="186200" y="-78095"/><use xlink:href="#ny7scstCCyHV_pad-14" x="186200" y="-79365"/><use xlink:href="#ny7scstCCyHV_pad-14" x="186200" y="-80635"/><use xlink:href="#ny7scstCCyHV_pad-14" x="186200" y="-81905"/><use xlink:href="#ny7scstCCyHV_pad-14" x="191600" y="-81905"/><use xlink:href="#ny7scstCCyHV_pad-14" x="191600" y="-80635"/><use xlink:href="#ny7scstCCyHV_pad-14" x="191600" y="-79365"/><use xlink:href="#ny7scstCCyHV_pad-14" x="191600" y="-78095"/><path d="M 191627.691 -75826.053 191648.926 -75829.203 191669.75 -75834.419 191689.962 -75841.651 191709.368 -75850.83 191727.781 -75861.866 191745.024 -75874.654 191760.93 -75889.07 191775.346 -75904.976 191788.134 -75922.219 191799.17 -75940.632 191808.349 -75960.038 191815.581 -75980.25 191820.797 -76001.074 191823.947 -76022.309 191825 -76043.75 191825 -76556.25 191823.947 -76577.691 191820.797 -76598.926 191815.581 -76619.75 191808.349 -76639.962 191799.17 -76659.368 191788.134 -76677.781 191775.346 -76695.024 191760.93 -76710.93 191745.024 -76725.346 191727.781 -76738.134 191709.368 -76749.17 191689.962 -76758.349 191669.75 -76765.581 191648.926 -76770.797 191627.691 -76773.947 191606.25 -76775 191168.75 -76775 191147.309 -76773.947 191126.074 -76770.797 191105.25 -76765.581 191085.038 -76758.349 191065.632 -76749.17 191047.219 -76738.134 191029.976 -76725.346 191014.07 -76710.93 190999.654 -76695.024 190986.866 -76677.781 190975.83 -76659.368 190966.651 -76639.962 190959.419 -76619.75 190954.203 -76598.926 190951.053 -76577.691 190950 -76556.25 190950 -76043.75 190951.053 -76022.309 190954.203 -76001.074 190959.419 -75980.25 190966.651 -75960.038 190975.83 -75940.632 190986.866 -75922.219 190999.654 -75904.976 191014.07 -75889.07 191029.976 -75874.654 191047.219 -75861.866 191065.632 -75850.83 191085.038 -75841.651 191105.25 -75834.419 191126.074 -75829.203 191147.309 -75826.053 191168.75 -75825 191606.25 -75825 191627.691 -75826.053 191627.691 -75826.053"/><use xlink:href="#ny7scstCCyHV_pad-13" x="191387.5" y="-76300"/><path d="M 190052.691 -75826.053 190073.926 -75829.203 190094.75 -75834.419 190114.962 -75841.651 190134.368 -75850.83 190152.781 -75861.866 190170.024 -75874.654 190185.93 -75889.07 190200.346 -75904.976 190213.134 -75922.219 190224.17 -75940.632 190233.349 -75960.038 190240.581 -75980.25 190245.797 -76001.074 190248.947 -76022.309 190250 -76043.75 190250 -76556.25 190248.947 -76577.691 190245.797 -76598.926 190240.581 -76619.75 190233.349 -76639.962 190224.17 -76659.368 190213.134 -76677.781 190200.346 -76695.024 190185.93 -76710.93 190170.024 -76725.346 190152.781 -76738.134 190134.368 -76749.17 190114.962 -76758.349 190094.75 -76765.581 190073.926 -76770.797 190052.691 -76773.947 190031.25 -76775 189593.75 -76775 189572.309 -76773.947 189551.074 -76770.797 189530.25 -76765.581 189510.038 -76758.349 189490.632 -76749.17 189472.219 -76738.134 189454.976 -76725.346 189439.07 -76710.93 189424.654 -76695.024 189411.866 -76677.781 189400.83 -76659.368 189391.651 -76639.962 189384.419 -76619.75 189379.203 -76598.926 189376.053 -76577.691 189375 -76556.25 189375 -76043.75 189376.053 -76022.309 189379.203 -76001.074 189384.419 -75980.25 189391.651 -75960.038 189400.83 -75940.632 189411.866 -75922.219 189424.654 -75904.976 189439.07 -75889.07 189454.976 -75874.654 189472.219 -75861.866 189490.632 -75850.83 189510.038 -75841.651 189530.25 -75834.419 189551.074 -75829.203 189572.309 -75826.053 189593.75 -75825 190031.25 -75825 190052.691 -75826.053 190052.691 -75826.053"/><use xlink:href="#ny7scstCCyHV_pad-13" x="189812.5" y="-76300"/><path d="M 190052.691 -83226.053 190073.926 -83229.203 190094.75 -83234.419 190114.962 -83241.651 190134.368 -83250.83 190152.781 -83261.866 190170.024 -83274.654 190185.93 -83289.07 190200.346 -83304.976 190213.134 -83322.219 190224.17 -83340.632 190233.349 -83360.038 190240.581 -83380.25 190245.797 -83401.074 190248.947 -83422.309 190250 -83443.75 190250 -83956.25 190248.947 -83977.691 190245.797 -83998.926 190240.581 -84019.75 190233.349 -84039.962 190224.17 -84059.368 190213.134 -84077.781 190200.346 -84095.024 190185.93 -84110.93 190170.024 -84125.346 190152.781 -84138.134 190134.368 -84149.17 190114.962 -84158.349 190094.75 -84165.581 190073.926 -84170.797 190052.691 -84173.947 190031.25 -84175 189593.75 -84175 189572.309 -84173.947 189551.074 -84170.797 189530.25 -84165.581 189510.038 -84158.349 189490.632 -84149.17 189472.219 -84138.134 189454.976 -84125.346 189439.07 -84110.93 189424.654 -84095.024 189411.866 -84077.781 189400.83 -84059.368 189391.651 -84039.962 189384.419 -84019.75 189379.203 -83998.926 189376.053 -83977.691 189375 -83956.25 189375 -83443.75 189376.053 -83422.309 189379.203 -83401.074 189384.419 -83380.25 189391.651 -83360.038 189400.83 -83340.632 189411.866 -83322.219 189424.654 -83304.976 189439.07 -83289.07 189454.976 -83274.654 189472.219 -83261.866 189490.632 -83250.83 189510.038 -83241.651 189530.25 -83234.419 189551.074 -83229.203 189572.309 -83226.053 189593.75 -83225 190031.25 -83225 190052.691 -83226.053 190052.691 -83226.053"/><use xlink:href="#ny7scstCCyHV_pad-13" x="189812.5" y="-83700"/><path d="M 191627.691 -83226.053 191648.926 -83229.203 191669.75 -83234.419 191689.962 -83241.651 191709.368 -83250.83 191727.781 -83261.866 191745.024 -83274.654 191760.93 -83289.07 191775.346 -83304.976 191788.134 -83322.219 191799.17 -83340.632 191808.349 -83360.038 191815.581 -83380.25 191820.797 -83401.074 191823.947 -83422.309 191825 -83443.75 191825 -83956.25 191823.947 -83977.691 191820.797 -83998.926 191815.581 -84019.75 191808.349 -84039.962 191799.17 -84059.368 191788.134 -84077.781 191775.346 -84095.024 191760.93 -84110.93 191745.024 -84125.346 191727.781 -84138.134 191709.368 -84149.17 191689.962 -84158.349 191669.75 -84165.581 191648.926 -84170.797 191627.691 -84173.947 191606.25 -84175 191168.75 -84175 191147.309 -84173.947 191126.074 -84170.797 191105.25 -84165.581 191085.038 -84158.349 191065.632 -84149.17 191047.219 -84138.134 191029.976 -84125.346 191014.07 -84110.93 190999.654 -84095.024 190986.866 -84077.781 190975.83 -84059.368 190966.651 -84039.962 190959.419 -84019.75 190954.203 -83998.926 190951.053 -83977.691 190950 -83956.25 190950 -83443.75 190951.053 -83422.309 190954.203 -83401.074 190959.419 -83380.25 190966.651 -83360.038 190975.83 -83340.632 190986.866 -83322.219 190999.654 -83304.976 191014.07 -83289.07 191029.976 -83274.654 191047.219 -83261.866 191065.632 -83250.83 191085.038 -83241.651 191105.25 -83234.419 191126.074 -83229.203 191147.309 -83226.053 191168.75 -83225 191606.25 -83225 191627.691 -83226.053 191627.691 -83226.053"/><use xlink:href="#ny7scstCCyHV_pad-13" x="191387.5" y="-83700"/><use xlink:href="#ny7scstCCyHV_pad-15" x="188074.99" y="-79845.779"/><use xlink:href="#ny7scstCCyHV_pad-15" x="188074.99" y="-80778.907"/><use xlink:href="#ny7scstCCyHV_pad-15" x="187886.325" y="-81556.355"/><use xlink:href="#ny7scstCCyHV_pad-15" x="191400" y="-77300"/><path d="M 191885 -81905 193800 -83820 M 191600 -81905 191885 -81905" fill="none" stroke-width="600"/><path d="M 191842.929 -84574.99 192597.919 -83820 M 186999.99 -84574.99 191842.929 -84574.99 M 186700 -84275 186999.99 -84574.99 M 188700 -78862.5 188700 -81700 M 186700 -83700 186700 -84275 M 186712.5 -76300 186712.5 -76875 M 192597.919 -83820 193800 -83820 M 188700 -81700 186700 -83700 M 186712.5 -76875 188700 -78862.5" fill="none" stroke-width="250"/><path d="M 186675 -78095 188074.99 -79494.99 M 186200 -78095 186675 -78095 M 188074.99 -79494.99 188074.99 -79845.779 M 187774.991 -80478.908 188074.99 -80778.907 M 186675 -79365 187175 -79865 187175 -79878.917 187774.991 -80478.908 M 186200 -79365 186675 -79365 M 193155 -80635 193800 -81280 M 191600 -80635 193155 -80635 M 190925.888 -83338.388 191387.5 -83800 M 190400 -82812.5 190925.888 -83338.388 M 191600 -80635 191125 -80635 M 190400 -81360 190400 -82812.5 M 191125 -80635 190400 -81360 M 193175 -79365 193800 -78740 M 191600 -79365 193175 -79365 M 190925.888 -76561.612 191387.5 -76100 M 190524.999 -78764.999 190524.999 -76962.501 190925.888 -76561.612 M 191125 -79365 190524.999 -78764.999 M 191600 -79365 191125 -79365 M 191600 -78095 191600 -77500 191400 -77300 M 189812.5 -83700 188275 -83700 M 188287.5 -76300 189812.5 -76300" fill="none" stroke-width="200"/><path d="M 186773.361 -80143.597 186828.219 -80225.698 186868.379 -80252.532 187393.99 -80778.143 187393.99 -80914.366 187497.666 -81164.663 187689.234 -81356.231 187939.531 -81459.907 188194.001 -81459.907 188194.001 -81490.407 187334.675 -82349.734 187363.464 -82205 187363.464 -81605 187333.894 -81456.341 187249.686 -81330.314 187123.659 -81246.106 186975 -81216.536 185481 -81216.536 185481 -80053.464 186683.227 -80053.464 186773.361 -80143.597 186773.361 -80143.597"/><path d="M 186773.361 -80143.597 186828.219 -80225.698 186868.379 -80252.532 187393.99 -80778.143 187393.99 -80914.366 187497.666 -81164.663 187689.234 -81356.231 187939.531 -81459.907 188194.001 -81459.907 188194.001 -81490.407 187334.675 -82349.734 187363.464 -82205 187363.464 -81605 187333.894 -81456.341 187249.686 -81330.314 187123.659 -81246.106 186975 -81216.536 185481 -81216.536 185481 -80053.464 186683.227 -80053.464 186773.361 -80143.597" fill="none" stroke-width="254"/><path d="M 194519 -77739.91 194280.312 -77580.424 193921.239 -77509 193678.761 -77509 193319.688 -77580.424 192912.499 -77852.499 192763.464 -78075.546 192763.464 -77795 192733.894 -77646.341 192649.686 -77520.314 192523.659 -77436.106 192375 -77406.536 192081 -77406.536 192081 -77164.541 192013.114 -77000.65 192035.615 -76985.615 192167.243 -76788.621 192213.464 -76556.25 192213.464 -76043.75 192167.243 -75811.379 192035.615 -75614.385 191838.621 -75482.757 191829.788 -75481 194519 -75481 194519 -77739.91 194519 -77739.91"/><path d="M 194519 -77739.91 194280.312 -77580.424 193921.239 -77509 193678.761 -77509 193319.688 -77580.424 192912.499 -77852.499 192763.464 -78075.546 192763.464 -77795 192733.894 -77646.341 192649.686 -77520.314 192523.659 -77436.106 192375 -77406.536 192081 -77406.536 192081 -77164.541 192013.114 -77000.65 192035.615 -76985.615 192167.243 -76788.621 192213.464 -76556.25 192213.464 -76043.75 192167.243 -75811.379 192035.615 -75614.385 191838.621 -75482.757 191829.788 -75481 194519 -75481 194519 -77739.91" fill="none" stroke-width="254"/></g><g id="pcb-stackup_top_sm"><use xlink:href="#Y3hMfluLtDkP_pad-10" x="193800" y="-76200"/><use xlink:href="#Y3hMfluLtDkP_pad-11" x="193800" y="-78740"/><use xlink:href="#Y3hMfluLtDkP_pad-11" x="193800" y="-81280"/><use xlink:href="#Y3hMfluLtDkP_pad-11" x="193800" y="-83820"/><path d="M 187062.493 -75626.535 187093.435 -75631.125 187123.778 -75638.725 187153.23 -75649.263 187181.508 -75662.638 187208.338 -75678.719 187233.463 -75697.353 187256.64 -75718.36 187277.647 -75741.537 187296.281 -75766.662 187312.362 -75793.492 187325.737 -75821.77 187336.275 -75851.222 187343.875 -75881.565 187348.465 -75912.507 187350 -75943.75 187350 -76656.25 187348.465 -76687.493 187343.875 -76718.435 187336.275 -76748.778 187325.737 -76778.23 187312.362 -76806.508 187296.281 -76833.338 187277.647 -76858.463 187256.64 -76881.64 187233.463 -76902.647 187208.338 -76921.281 187181.508 -76937.362 187153.23 -76950.737 187123.778 -76961.275 187093.435 -76968.875 187062.493 -76973.465 187031.25 -76975 186393.75 -76975 186362.507 -76973.465 186331.565 -76968.875 186301.222 -76961.275 186271.77 -76950.737 186243.492 -76937.362 186216.662 -76921.281 186191.537 -76902.647 186168.36 -76881.64 186147.353 -76858.463 186128.719 -76833.338 186112.638 -76806.508 186099.263 -76778.23 186088.725 -76748.778 186081.125 -76718.435 186076.535 -76687.493 186075 -76656.25 186075 -75943.75 186076.535 -75912.507 186081.125 -75881.565 186088.725 -75851.222 186099.263 -75821.77 186112.638 -75793.492 186128.719 -75766.662 186147.353 -75741.537 186168.36 -75718.36 186191.537 -75697.353 186216.662 -75678.719 186243.492 -75662.638 186271.77 -75649.263 186301.222 -75638.725 186331.565 -75631.125 186362.507 -75626.535 186393.75 -75625 187031.25 -75625 187062.493 -75626.535 187062.493 -75626.535"/><use xlink:href="#Y3hMfluLtDkP_pad-13" x="186712.5" y="-76300"/><path d="M 188637.493 -75626.535 188668.435 -75631.125 188698.778 -75638.725 188728.23 -75649.263 188756.508 -75662.638 188783.338 -75678.719 188808.463 -75697.353 188831.64 -75718.36 188852.647 -75741.537 188871.281 -75766.662 188887.362 -75793.492 188900.737 -75821.77 188911.275 -75851.222 188918.875 -75881.565 188923.465 -75912.507 188925 -75943.75 188925 -76656.25 188923.465 -76687.493 188918.875 -76718.435 188911.275 -76748.778 188900.737 -76778.23 188887.362 -76806.508 188871.281 -76833.338 188852.647 -76858.463 188831.64 -76881.64 188808.463 -76902.647 188783.338 -76921.281 188756.508 -76937.362 188728.23 -76950.737 188698.778 -76961.275 188668.435 -76968.875 188637.493 -76973.465 188606.25 -76975 187968.75 -76975 187937.507 -76973.465 187906.565 -76968.875 187876.222 -76961.275 187846.77 -76950.737 187818.492 -76937.362 187791.662 -76921.281 187766.537 -76902.647 187743.36 -76881.64 187722.353 -76858.463 187703.719 -76833.338 187687.638 -76806.508 187674.263 -76778.23 187663.725 -76748.778 187656.125 -76718.435 187651.535 -76687.493 187650 -76656.25 187650 -75943.75 187651.535 -75912.507 187656.125 -75881.565 187663.725 -75851.222 187674.263 -75821.77 187687.638 -75793.492 187703.719 -75766.662 187722.353 -75741.537 187743.36 -75718.36 187766.537 -75697.353 187791.662 -75678.719 187818.492 -75662.638 187846.77 -75649.263 187876.222 -75638.725 187906.565 -75631.125 187937.507 -75626.535 187968.75 -75625 188606.25 -75625 188637.493 -75626.535 188637.493 -75626.535"/><use xlink:href="#Y3hMfluLtDkP_pad-13" x="188287.5" y="-76300"/><path d="M 188637.493 -83026.535 188668.435 -83031.125 188698.778 -83038.725 188728.23 -83049.263 188756.508 -83062.638 188783.338 -83078.719 188808.463 -83097.353 188831.64 -83118.36 188852.647 -83141.537 188871.281 -83166.662 188887.362 -83193.492 188900.737 -83221.77 188911.275 -83251.222 188918.875 -83281.565 188923.465 -83312.507 188925 -83343.75 188925 -84056.25 188923.465 -84087.493 188918.875 -84118.435 188911.275 -84148.778 188900.737 -84178.23 188887.362 -84206.508 188871.281 -84233.338 188852.647 -84258.463 188831.64 -84281.64 188808.463 -84302.647 188783.338 -84321.281 188756.508 -84337.362 188728.23 -84350.737 188698.778 -84361.275 188668.435 -84368.875 188637.493 -84373.465 188606.25 -84375 187968.75 -84375 187937.507 -84373.465 187906.565 -84368.875 187876.222 -84361.275 187846.77 -84350.737 187818.492 -84337.362 187791.662 -84321.281 187766.537 -84302.647 187743.36 -84281.64 187722.353 -84258.463 187703.719 -84233.338 187687.638 -84206.508 187674.263 -84178.23 187663.725 -84148.778 187656.125 -84118.435 187651.535 -84087.493 187650 -84056.25 187650 -83343.75 187651.535 -83312.507 187656.125 -83281.565 187663.725 -83251.222 187674.263 -83221.77 187687.638 -83193.492 187703.719 -83166.662 187722.353 -83141.537 187743.36 -83118.36 187766.537 -83097.353 187791.662 -83078.719 187818.492 -83062.638 187846.77 -83049.263 187876.222 -83038.725 187906.565 -83031.125 187937.507 -83026.535 187968.75 -83025 188606.25 -83025 188637.493 -83026.535 188637.493 -83026.535"/><use xlink:href="#Y3hMfluLtDkP_pad-13" x="188287.5" y="-83700"/><path d="M 187062.493 -83026.535 187093.435 -83031.125 187123.778 -83038.725 187153.23 -83049.263 187181.508 -83062.638 187208.338 -83078.719 187233.463 -83097.353 187256.64 -83118.36 187277.647 -83141.537 187296.281 -83166.662 187312.362 -83193.492 187325.737 -83221.77 187336.275 -83251.222 187343.875 -83281.565 187348.465 -83312.507 187350 -83343.75 187350 -84056.25 187348.465 -84087.493 187343.875 -84118.435 187336.275 -84148.778 187325.737 -84178.23 187312.362 -84206.508 187296.281 -84233.338 187277.647 -84258.463 187256.64 -84281.64 187233.463 -84302.647 187208.338 -84321.281 187181.508 -84337.362 187153.23 -84350.737 187123.778 -84361.275 187093.435 -84368.875 187062.493 -84373.465 187031.25 -84375 186393.75 -84375 186362.507 -84373.465 186331.565 -84368.875 186301.222 -84361.275 186271.77 -84350.737 186243.492 -84337.362 186216.662 -84321.281 186191.537 -84302.647 186168.36 -84281.64 186147.353 -84258.463 186128.719 -84233.338 186112.638 -84206.508 186099.263 -84178.23 186088.725 -84148.778 186081.125 -84118.435 186076.535 -84087.493 186075 -84056.25 186075 -83343.75 186076.535 -83312.507 186081.125 -83281.565 186088.725 -83251.222 186099.263 -83221.77 186112.638 -83193.492 186128.719 -83166.662 186147.353 -83141.537 186168.36 -83118.36 186191.537 -83097.353 186216.662 -83078.719 186243.492 -83062.638 186271.77 -83049.263 186301.222 -83038.725 186331.565 -83031.125 186362.507 -83026.535 186393.75 -83025 187031.25 -83025 187062.493 -83026.535 187062.493 -83026.535"/><use xlink:href="#Y3hMfluLtDkP_pad-13" x="186712.5" y="-83700"/><use xlink:href="#Y3hMfluLtDkP_pad-14" x="186200" y="-78095"/><use xlink:href="#Y3hMfluLtDkP_pad-14" x="186200" y="-79365"/><use xlink:href="#Y3hMfluLtDkP_pad-14" x="186200" y="-80635"/><use xlink:href="#Y3hMfluLtDkP_pad-14" x="186200" y="-81905"/><use xlink:href="#Y3hMfluLtDkP_pad-14" x="191600" y="-81905"/><use xlink:href="#Y3hMfluLtDkP_pad-14" x="191600" y="-80635"/><use xlink:href="#Y3hMfluLtDkP_pad-14" x="191600" y="-79365"/><use xlink:href="#Y3hMfluLtDkP_pad-14" x="191600" y="-78095"/><path d="M 191737.493 -75626.535 191768.435 -75631.125 191798.778 -75638.725 191828.23 -75649.263 191856.508 -75662.638 191883.338 -75678.719 191908.463 -75697.353 191931.64 -75718.36 191952.647 -75741.537 191971.281 -75766.662 191987.362 -75793.492 192000.737 -75821.77 192011.275 -75851.222 192018.875 -75881.565 192023.465 -75912.507 192025 -75943.75 192025 -76656.25 192023.465 -76687.493 192018.875 -76718.435 192011.275 -76748.778 192000.737 -76778.23 191987.362 -76806.508 191971.281 -76833.338 191952.647 -76858.463 191931.64 -76881.64 191908.463 -76902.647 191883.338 -76921.281 191856.508 -76937.362 191828.23 -76950.737 191798.778 -76961.275 191768.435 -76968.875 191737.493 -76973.465 191706.25 -76975 191068.75 -76975 191037.507 -76973.465 191006.565 -76968.875 190976.222 -76961.275 190946.77 -76950.737 190918.492 -76937.362 190891.662 -76921.281 190866.537 -76902.647 190843.36 -76881.64 190822.353 -76858.463 190803.719 -76833.338 190787.638 -76806.508 190774.263 -76778.23 190763.725 -76748.778 190756.125 -76718.435 190751.535 -76687.493 190750 -76656.25 190750 -75943.75 190751.535 -75912.507 190756.125 -75881.565 190763.725 -75851.222 190774.263 -75821.77 190787.638 -75793.492 190803.719 -75766.662 190822.353 -75741.537 190843.36 -75718.36 190866.537 -75697.353 190891.662 -75678.719 190918.492 -75662.638 190946.77 -75649.263 190976.222 -75638.725 191006.565 -75631.125 191037.507 -75626.535 191068.75 -75625 191706.25 -75625 191737.493 -75626.535 191737.493 -75626.535"/><use xlink:href="#Y3hMfluLtDkP_pad-13" x="191387.5" y="-76300"/><path d="M 190162.493 -75626.535 190193.435 -75631.125 190223.778 -75638.725 190253.23 -75649.263 190281.508 -75662.638 190308.338 -75678.719 190333.463 -75697.353 190356.64 -75718.36 190377.647 -75741.537 190396.281 -75766.662 190412.362 -75793.492 190425.737 -75821.77 190436.275 -75851.222 190443.875 -75881.565 190448.465 -75912.507 190450 -75943.75 190450 -76656.25 190448.465 -76687.493 190443.875 -76718.435 190436.275 -76748.778 190425.737 -76778.23 190412.362 -76806.508 190396.281 -76833.338 190377.647 -76858.463 190356.64 -76881.64 190333.463 -76902.647 190308.338 -76921.281 190281.508 -76937.362 190253.23 -76950.737 190223.778 -76961.275 190193.435 -76968.875 190162.493 -76973.465 190131.25 -76975 189493.75 -76975 189462.507 -76973.465 189431.565 -76968.875 189401.222 -76961.275 189371.77 -76950.737 189343.492 -76937.362 189316.662 -76921.281 189291.537 -76902.647 189268.36 -76881.64 189247.353 -76858.463 189228.719 -76833.338 189212.638 -76806.508 189199.263 -76778.23 189188.725 -76748.778 189181.125 -76718.435 189176.535 -76687.493 189175 -76656.25 189175 -75943.75 189176.535 -75912.507 189181.125 -75881.565 189188.725 -75851.222 189199.263 -75821.77 189212.638 -75793.492 189228.719 -75766.662 189247.353 -75741.537 189268.36 -75718.36 189291.537 -75697.353 189316.662 -75678.719 189343.492 -75662.638 189371.77 -75649.263 189401.222 -75638.725 189431.565 -75631.125 189462.507 -75626.535 189493.75 -75625 190131.25 -75625 190162.493 -75626.535 190162.493 -75626.535"/><use xlink:href="#Y3hMfluLtDkP_pad-13" x="189812.5" y="-76300"/><path d="M 190162.493 -83026.535 190193.435 -83031.125 190223.778 -83038.725 190253.23 -83049.263 190281.508 -83062.638 190308.338 -83078.719 190333.463 -83097.353 190356.64 -83118.36 190377.647 -83141.537 190396.281 -83166.662 190412.362 -83193.492 190425.737 -83221.77 190436.275 -83251.222 190443.875 -83281.565 190448.465 -83312.507 190450 -83343.75 190450 -84056.25 190448.465 -84087.493 190443.875 -84118.435 190436.275 -84148.778 190425.737 -84178.23 190412.362 -84206.508 190396.281 -84233.338 190377.647 -84258.463 190356.64 -84281.64 190333.463 -84302.647 190308.338 -84321.281 190281.508 -84337.362 190253.23 -84350.737 190223.778 -84361.275 190193.435 -84368.875 190162.493 -84373.465 190131.25 -84375 189493.75 -84375 189462.507 -84373.465 189431.565 -84368.875 189401.222 -84361.275 189371.77 -84350.737 189343.492 -84337.362 189316.662 -84321.281 189291.537 -84302.647 189268.36 -84281.64 189247.353 -84258.463 189228.719 -84233.338 189212.638 -84206.508 189199.263 -84178.23 189188.725 -84148.778 189181.125 -84118.435 189176.535 -84087.493 189175 -84056.25 189175 -83343.75 189176.535 -83312.507 189181.125 -83281.565 189188.725 -83251.222 189199.263 -83221.77 189212.638 -83193.492 189228.719 -83166.662 189247.353 -83141.537 189268.36 -83118.36 189291.537 -83097.353 189316.662 -83078.719 189343.492 -83062.638 189371.77 -83049.263 189401.222 -83038.725 189431.565 -83031.125 189462.507 -83026.535 189493.75 -83025 190131.25 -83025 190162.493 -83026.535 190162.493 -83026.535"/><use xlink:href="#Y3hMfluLtDkP_pad-13" x="189812.5" y="-83700"/><path d="M 191737.493 -83026.535 191768.435 -83031.125 191798.778 -83038.725 191828.23 -83049.263 191856.508 -83062.638 191883.338 -83078.719 191908.463 -83097.353 191931.64 -83118.36 191952.647 -83141.537 191971.281 -83166.662 191987.362 -83193.492 192000.737 -83221.77 192011.275 -83251.222 192018.875 -83281.565 192023.465 -83312.507 192025 -83343.75 192025 -84056.25 192023.465 -84087.493 192018.875 -84118.435 192011.275 -84148.778 192000.737 -84178.23 191987.362 -84206.508 191971.281 -84233.338 191952.647 -84258.463 191931.64 -84281.64 191908.463 -84302.647 191883.338 -84321.281 191856.508 -84337.362 191828.23 -84350.737 191798.778 -84361.275 191768.435 -84368.875 191737.493 -84373.465 191706.25 -84375 191068.75 -84375 191037.507 -84373.465 191006.565 -84368.875 190976.222 -84361.275 190946.77 -84350.737 190918.492 -84337.362 190891.662 -84321.281 190866.537 -84302.647 190843.36 -84281.64 190822.353 -84258.463 190803.719 -84233.338 190787.638 -84206.508 190774.263 -84178.23 190763.725 -84148.778 190756.125 -84118.435 190751.535 -84087.493 190750 -84056.25 190750 -83343.75 190751.535 -83312.507 190756.125 -83281.565 190763.725 -83251.222 190774.263 -83221.77 190787.638 -83193.492 190803.719 -83166.662 190822.353 -83141.537 190843.36 -83118.36 190866.537 -83097.353 190891.662 -83078.719 190918.492 -83062.638 190946.77 -83049.263 190976.222 -83038.725 191006.565 -83031.125 191037.507 -83026.535 191068.75 -83025 191706.25 -83025 191737.493 -83026.535 191737.493 -83026.535"/><use xlink:href="#Y3hMfluLtDkP_pad-13" x="191387.5" y="-83700"/></g><g id="pcb-stackup_top_ss"><path d="M 187841.421 -78100 A 141.421 141.421 0 0 1 187558.579 -78100 141.421 141.421 0 0 1 187841.421 -78100" fill="none" stroke-width="200"/><path d="M 185826.19 -76383.333 185588.095 -76550 M 185826.19 -76669.047 185326.19 -76669.047 185326.19 -76478.571 185350 -76430.952 185373.809 -76407.142 185421.428 -76383.333 185492.857 -76383.333 185540.476 -76407.142 185564.285 -76430.952 185588.095 -76478.571 185588.095 -76669.047 M 185326.19 -76216.666 185826.19 -75883.333 M 185326.19 -75883.333 185826.19 -76216.666 M 185326.19 -84080.952 185326.19 -83795.238 M 185826.19 -83938.095 185326.19 -83938.095 M 185326.19 -83676.19 185826.19 -83342.857 M 185326.19 -83342.857 185826.19 -83676.19 M 188985 -75565 186700 -75565 M 188985 -77035 188985 -75565 M 186700 -77035 188985 -77035 M 186700 -84435 188985 -84435 188985 -82965 186700 -82965" fill="none" stroke-width="120"/><path d="M 186825 -77425 186825 -77475 M 190975 -77425 190975 -77570 M 190975 -82575 190975 -82430 M 186825 -82575 186825 -82430 M 186825 -77425 190975 -77425 M 186825 -82575 190975 -82575 M 186825 -77475 185425 -77475" fill="none" stroke-width="150"/><path d="M 190437.221 -76810 190762.779 -76810 M 190437.221 -75790 190762.779 -75790 M 190437.221 -83190 190762.779 -83190 M 190437.221 -84210 190762.779 -84210" fill="none" stroke-width="120"/></g><g id="pcb-stackup_top_drl1" transform="scale(25.4,25.4)"><use xlink:href="#DDVpayYxDF4U_pad-1" x="7397.1" y="-3210.9"/><use xlink:href="#DDVpayYxDF4U_pad-1" x="7404.5" y="-3143.5"/><use xlink:href="#DDVpayYxDF4U_pad-1" x="7404.5" y="-3180.3"/><use xlink:href="#DDVpayYxDF4U_pad-1" x="7535.4" y="-3043.3"/><use xlink:href="#DDVpayYxDF4U_pad-2" x="7629.9" y="-3000"/><use xlink:href="#DDVpayYxDF4U_pad-2" x="7629.9" y="-3100"/><use xlink:href="#DDVpayYxDF4U_pad-2" x="7629.9" y="-3200"/><use xlink:href="#DDVpayYxDF4U_pad-2" x="7629.9" y="-3300"/></g><clipPath id="pcb-stackup_top_out"><path d="M 195000 -75000 195000 -85000 185000 -85000 185000 -75000 195000 -75000" fill="none" stroke-width="200"/></clipPath><mask id="pcb-stackup_top_mech-mask"><g fill="#000" stroke="#000"><rect x="185000" y="-85000" width="10000" height="10000" fill="#fff"/><use xlink:href="#pcb-stackup_top_drl1"/></g></mask><mask id="pcb-stackup_top_cf-mask"><g fill="#fff" stroke="#fff"><use xlink:href="#pcb-stackup_top_sm"/></g></mask><mask id="pcb-stackup_top_sm-mask"><g fill="#000" stroke="#000"><rect x="185000" y="-85000" width="10000" height="10000" fill="#fff"/><use xlink:href="#pcb-stackup_top_sm"/></g></mask></defs><g transform="translate(0,-160000) scale(1,-1)"><g mask="url(#pcb-stackup_top_mech-mask)" clip-path="url(#pcb-stackup_top_out)"><rect x="185000" y="-85000" width="10000" height="10000" fill="currentColor" class="pcb-stackup_fr4"/><use xlink:href="#pcb-stackup_top_cu" fill="currentColor" stroke="currentColor" class="pcb-stackup_cu"/><use xlink:href="#pcb-stackup_top_cu" fill="currentColor" stroke="currentColor" class="pcb-stackup_cf" mask="url(#pcb-stackup_top_cf-mask)"/><g mask="url(#pcb-stackup_top_sm-mask)"><rect x="185000" y="-85000" width="10000" height="10000" fill="currentColor" class="pcb-stackup_sm"/><use xlink:href="#pcb-stackup_top_ss" fill="currentColor" stroke="currentColor" class="pcb-stackup_ss"/></g></g></g></svg>