<svg id="pcb-stackup_bottom" version="1.1" xmlns:xlink="http://www.w3.org/1999/xlink" stroke-linecap="round" stroke-linejoin="round" stroke-width="0" fill-rule="evenodd" clip-rule="evenodd" viewBox="33020 -74930 48260 50800" width="48.26mm" height="50.8mm" xmlns="http://www.w3.org/2000/svg"><defs><style>.pcb-stackup_fr4 {color: #4D542C;}
.pcb-stackup_cu {color: lightgrey;}
.pcb-stackup_cf {color: silver;}
.pcb-stackup_sm {color: #000000; opacity: 0.9;}
.pcb-stackup_ss {color: white;}
.pcb-stackup_sp {color: #000000; opacity: 0;}
.pcb-stackup_out {color: black;}</style><rect x="-1143" y="-787.4" width="2286" height="1574.8" rx="787.4" ry="787.4" id="fjQKfO02H7tl_pad-11"/><rect x="-1143" y="-787.4" width="2286" height="1574.8" id="fjQKfO02H7tl_pad-12"/><circle cx="0" cy="0" r="698.5" id="fjQKfO02H7tl_pad-13"/><circle cx="0" cy="0" r="999.49" id="fjQKfO02H7tl_pad-14"/><rect x="-999.49" y="-999.49" width="1998.98" height="1998.98" id="fjQKfO02H7tl_pad-15"/><rect x="-1249.68" y="-999.49" width="2499.36" height="1998.98" rx="999.49" ry="999.49" id="fjQKfO02H7tl_pad-16"/><rect x="-1016" y="-863.6" width="2032" height="1727.2" rx="863.6" ry="863.6" id="fjQKfO02H7tl_pad-17"/><rect x="-1016" y="-863.6" width="2032" height="1727.2" id="fjQKfO02H7tl_pad-18"/><rect x="-1016" y="-1016" width="2032" height="2032" rx="1016" ry="1016" id="fjQKfO02H7tl_pad-19"/><circle cx="0" cy="0" r="650" id="fjQKfO02H7tl_pad-20"/><rect x="-650" y="-650" width="1300" height="1300" id="fjQKfO02H7tl_pad-21"/><circle cx="0" cy="0" r="838.2" id="fjQKfO02H7tl_pad-22"/><rect x="-4445" y="-4445" width="8890" height="8890" id="fjQKfO02H7tl_pad-23"/><circle cx="0" cy="0" r="889" id="fjQKfO02H7tl_pad-24"/><rect x="-889" y="-889" width="1778" height="1778" id="fjQKfO02H7tl_pad-25"/><circle cx="0" cy="0" r="444.5" id="fjQKfO02H7tl_pad-26"/><rect x="-1143" y="-787.4" width="2286" height="1574.8" rx="787.4" ry="787.4" id="fjQKfO02H7tl_pad-11"/><rect x="-1143" y="-787.4" width="2286" height="1574.8" id="fjQKfO02H7tl_pad-12"/><circle cx="0" cy="0" r="698.5" id="fjQKfO02H7tl_pad-13"/><circle cx="0" cy="0" r="999.49" id="fjQKfO02H7tl_pad-14"/><rect x="-999.49" y="-999.49" width="1998.98" height="1998.98" id="fjQKfO02H7tl_pad-15"/><rect x="-1249.68" y="-999.49" width="2499.36" height="1998.98" rx="999.49" ry="999.49" id="fjQKfO02H7tl_pad-16"/><rect x="-1016" y="-863.6" width="2032" height="1727.2" rx="863.6" ry="863.6" id="fjQKfO02H7tl_pad-17"/><rect x="-1016" y="-863.6" width="2032" height="1727.2" id="fjQKfO02H7tl_pad-18"/><rect x="-1016" y="-1016" width="2032" height="2032" rx="1016" ry="1016" id="fjQKfO02H7tl_pad-19"/><circle cx="0" cy="0" r="650" id="fjQKfO02H7tl_pad-20"/><rect x="-650" y="-650" width="1300" height="1300" id="fjQKfO02H7tl_pad-21"/><circle cx="0" cy="0" r="838.2" id="fjQKfO02H7tl_pad-22"/><rect x="-4445" y="-4445" width="8890" height="8890" id="fjQKfO02H7tl_pad-23"/><circle cx="0" cy="0" r="889" id="fjQKfO02H7tl_pad-24"/><rect x="-889" y="-889" width="1778" height="1778" id="fjQKfO02H7tl_pad-25"/><circle cx="0" cy="0" r="444.5" id="fjQKfO02H7tl_pad-26"/><rect x="-1143" y="-787.4" width="2286" height="1574.8" rx="787.4" ry="787.4" id="YZq9WjjjX_dT_pad-11"/><rect x="-1143" y="-787.4" width="2286" height="1574.8" id="YZq9WjjjX_dT_pad-12"/><circle cx="0" cy="0" r="698.5" id="YZq9WjjjX_dT_pad-13"/><circle cx="0" cy="0" r="999.49" id="YZq9WjjjX_dT_pad-14"/><rect x="-999.49" y="-999.49" width="1998.98" height="1998.98" id="YZq9WjjjX_dT_pad-15"/><rect x="-1249.68" y="-999.49" width="2499.36" height="1998.98" rx="999.49" ry="999.49" id="YZq9WjjjX_dT_pad-16"/><rect x="-1016" y="-863.6" width="2032" height="1727.2" rx="863.6" ry="863.6" id="YZq9WjjjX_dT_pad-17"/><rect x="-1016" y="-863.6" width="2032" height="1727.2" id="YZq9WjjjX_dT_pad-18"/><rect x="-1016" y="-1016" width="2032" height="2032" rx="1016" ry="1016" id="YZq9WjjjX_dT_pad-19"/><circle cx="0" cy="0" r="650" id="YZq9WjjjX_dT_pad-20"/><rect x="-650" y="-650" width="1300" height="1300" id="YZq9WjjjX_dT_pad-21"/><circle cx="0" cy="0" r="838.2" id="YZq9WjjjX_dT_pad-22"/><rect x="-4445" y="-4445" width="8890" height="8890" id="YZq9WjjjX_dT_pad-23"/><circle cx="0" cy="0" r="889" id="YZq9WjjjX_dT_pad-24"/><rect x="-889" y="-889" width="1778" height="1778" id="YZq9WjjjX_dT_pad-25"/><rect x="-1143" y="-787.4" width="2286" height="1574.8" rx="787.4" ry="787.4" id="fjQKfO02H7tl_pad-11"/><rect x="-1143" y="-787.4" width="2286" height="1574.8" id="fjQKfO02H7tl_pad-12"/><circle cx="0" cy="0" r="698.5" id="fjQKfO02H7tl_pad-13"/><circle cx="0" cy="0" r="999.49" id="fjQKfO02H7tl_pad-14"/><rect x="-999.49" y="-999.49" width="1998.98" height="1998.98" id="fjQKfO02H7tl_pad-15"/><rect x="-1249.68" y="-999.49" width="2499.36" height="1998.98" rx="999.49" ry="999.49" id="fjQKfO02H7tl_pad-16"/><rect x="-1016" y="-863.6" width="2032" height="1727.2" rx="863.6" ry="863.6" id="fjQKfO02H7tl_pad-17"/><rect x="-1016" y="-863.6" width="2032" height="1727.2" id="fjQKfO02H7tl_pad-18"/><rect x="-1016" y="-1016" width="2032" height="2032" rx="1016" ry="1016" id="fjQKfO02H7tl_pad-19"/><circle cx="0" cy="0" r="650" id="fjQKfO02H7tl_pad-20"/><rect x="-650" y="-650" width="1300" height="1300" id="fjQKfO02H7tl_pad-21"/><circle cx="0" cy="0" r="838.2" id="fjQKfO02H7tl_pad-22"/><rect x="-4445" y="-4445" width="8890" height="8890" id="fjQKfO02H7tl_pad-23"/><circle cx="0" cy="0" r="889" id="fjQKfO02H7tl_pad-24"/><rect x="-889" y="-889" width="1778" height="1778" id="fjQKfO02H7tl_pad-25"/><circle cx="0" cy="0" r="444.5" id="fjQKfO02H7tl_pad-26"/><rect x="-1143" y="-787.4" width="2286" height="1574.8" rx="787.4" ry="787.4" id="fjQKfO02H7tl_pad-11"/><rect x="-1143" y="-787.4" width="2286" height="1574.8" id="fjQKfO02H7tl_pad-12"/><circle cx="0" cy="0" r="698.5" id="fjQKfO02H7tl_pad-13"/><circle cx="0" cy="0" r="999.49" id="fjQKfO02H7tl_pad-14"/><rect x="-999.49" y="-999.49" width="1998.98" height="1998.98" id="fjQKfO02H7tl_pad-15"/><rect x="-1249.68" y="-999.49" width="2499.36" height="1998.98" rx="999.49" ry="999.49" id="fjQKfO02H7tl_pad-16"/><rect x="-1016" y="-863.6" width="2032" height="1727.2" rx="863.6" ry="863.6" id="fjQKfO02H7tl_pad-17"/><rect x="-1016" y="-863.6" width="2032" height="1727.2" id="fjQKfO02H7tl_pad-18"/><rect x="-1016" y="-1016" width="2032" height="2032" rx="1016" ry="1016" id="fjQKfO02H7tl_pad-19"/><circle cx="0" cy="0" r="650" id="fjQKfO02H7tl_pad-20"/><rect x="-650" y="-650" width="1300" height="1300" id="fjQKfO02H7tl_pad-21"/><circle cx="0" cy="0" r="838.2" id="fjQKfO02H7tl_pad-22"/><rect x="-4445" y="-4445" width="8890" height="8890" id="fjQKfO02H7tl_pad-23"/><circle cx="0" cy="0" r="889" id="fjQKfO02H7tl_pad-24"/><rect x="-889" y="-889" width="1778" height="1778" id="fjQKfO02H7tl_pad-25"/><circle cx="0" cy="0" r="444.5" id="fjQKfO02H7tl_pad-26"/><rect x="-1143" y="-787.4" width="2286" height="1574.8" rx="787.4" ry="787.4" id="YZq9WjjjX_dT_pad-11"/><rect x="-1143" y="-787.4" width="2286" height="1574.8" id="YZq9WjjjX_dT_pad-12"/><circle cx="0" cy="0" r="698.5" id="YZq9WjjjX_dT_pad-13"/><circle cx="0" cy="0" r="999.49" id="YZq9WjjjX_dT_pad-14"/><rect x="-999.49" y="-999.49" width="1998.98" height="1998.98" id="YZq9WjjjX_dT_pad-15"/><rect x="-1249.68" y="-999.49" width="2499.36" height="1998.98" rx="999.49" ry="999.49" id="YZq9WjjjX_dT_pad-16"/><rect x="-1016" y="-863.6" width="2032" height="1727.2" rx="863.6" ry="863.6" id="YZq9WjjjX_dT_pad-17"/><rect x="-1016" y="-863.6" width="2032" height="1727.2" id="YZq9WjjjX_dT_pad-18"/><rect x="-1016" y="-1016" width="2032" height="2032" rx="1016" ry="1016" id="YZq9WjjjX_dT_pad-19"/><circle cx="0" cy="0" r="650" id="YZq9WjjjX_dT_pad-20"/><rect x="-650" y="-650" width="1300" height="1300" id="YZq9WjjjX_dT_pad-21"/><circle cx="0" cy="0" r="838.2" id="YZq9WjjjX_dT_pad-22"/><rect x="-4445" y="-4445" width="8890" height="8890" id="YZq9WjjjX_dT_pad-23"/><circle cx="0" cy="0" r="889" id="YZq9WjjjX_dT_pad-24"/><rect x="-889" y="-889" width="1778" height="1778" id="YZq9WjjjX_dT_pad-25"/><circle cx="0" cy="0" r="12.5" id="KCtHjQTAktVh_pad-1"/><circle cx="0" cy="0" r="15.5" id="KCtHjQTAktVh_pad-2"/><circle cx="0" cy="0" r="16" id="KCtHjQTAktVh_pad-3"/><circle cx="0" cy="0" r="19.5" id="KCtHjQTAktVh_pad-4"/><circle cx="0" cy="0" r="20" id="KCtHjQTAktVh_pad-5"/><circle cx="0" cy="0" r="22.5" id="KCtHjQTAktVh_pad-6"/><circle cx="0" cy="0" r="23.5" id="KCtHjQTAktVh_pad-7"/><circle cx="0" cy="0" r="25" id="KCtHjQTAktVh_pad-8"/><circle cx="0" cy="0" r="59" id="KCtHjQTAktVh_pad-9"/><circle cx="0" cy="0" r="60" id="KCtHjQTAktVh_pad-10"/><rect x="-1143" y="-787.4" width="2286" height="1574.8" rx="787.4" ry="787.4" id="fjQKfO02H7tl_pad-11"/><rect x="-1143" y="-787.4" width="2286" height="1574.8" id="fjQKfO02H7tl_pad-12"/><circle cx="0" cy="0" r="698.5" id="fjQKfO02H7tl_pad-13"/><circle cx="0" cy="0" r="999.49" id="fjQKfO02H7tl_pad-14"/><rect x="-999.49" y="-999.49" width="1998.98" height="1998.98" id="fjQKfO02H7tl_pad-15"/><rect x="-1249.68" y="-999.49" width="2499.36" height="1998.98" rx="999.49" ry="999.49" id="fjQKfO02H7tl_pad-16"/><rect x="-1016" y="-863.6" width="2032" height="1727.2" rx="863.6" ry="863.6" id="fjQKfO02H7tl_pad-17"/><rect x="-1016" y="-863.6" width="2032" height="1727.2" id="fjQKfO02H7tl_pad-18"/><rect x="-1016" y="-1016" width="2032" height="2032" rx="1016" ry="1016" id="fjQKfO02H7tl_pad-19"/><circle cx="0" cy="0" r="650" id="fjQKfO02H7tl_pad-20"/><rect x="-650" y="-650" width="1300" height="1300" id="fjQKfO02H7tl_pad-21"/><circle cx="0" cy="0" r="838.2" id="fjQKfO02H7tl_pad-22"/><rect x="-4445" y="-4445" width="8890" height="8890" id="fjQKfO02H7tl_pad-23"/><circle cx="0" cy="0" r="889" id="fjQKfO02H7tl_pad-24"/><rect x="-889" y="-889" width="1778" height="1778" id="fjQKfO02H7tl_pad-25"/><circle cx="0" cy="0" r="444.5" id="fjQKfO02H7tl_pad-26"/><rect x="-1143" y="-787.4" width="2286" height="1574.8" rx="787.4" ry="787.4" id="fjQKfO02H7tl_pad-11"/><rect x="-1143" y="-787.4" width="2286" height="1574.8" id="fjQKfO02H7tl_pad-12"/><circle cx="0" cy="0" r="698.5" id="fjQKfO02H7tl_pad-13"/><circle cx="0" cy="0" r="999.49" id="fjQKfO02H7tl_pad-14"/><rect x="-999.49" y="-999.49" width="1998.98" height="1998.98" id="fjQKfO02H7tl_pad-15"/><rect x="-1249.68" y="-999.49" width="2499.36" height="1998.98" rx="999.49" ry="999.49" id="fjQKfO02H7tl_pad-16"/><rect x="-1016" y="-863.6" width="2032" height="1727.2" rx="863.6" ry="863.6" id="fjQKfO02H7tl_pad-17"/><rect x="-1016" y="-863.6" width="2032" height="1727.2" id="fjQKfO02H7tl_pad-18"/><rect x="-1016" y="-1016" width="2032" height="2032" rx="1016" ry="1016" id="fjQKfO02H7tl_pad-19"/><circle cx="0" cy="0" r="650" id="fjQKfO02H7tl_pad-20"/><rect x="-650" y="-650" width="1300" height="1300" id="fjQKfO02H7tl_pad-21"/><circle cx="0" cy="0" r="838.2" id="fjQKfO02H7tl_pad-22"/><rect x="-4445" y="-4445" width="8890" height="8890" id="fjQKfO02H7tl_pad-23"/><circle cx="0" cy="0" r="889" id="fjQKfO02H7tl_pad-24"/><rect x="-889" y="-889" width="1778" height="1778" id="fjQKfO02H7tl_pad-25"/><circle cx="0" cy="0" r="444.5" id="fjQKfO02H7tl_pad-26"/><rect x="-1143" y="-787.4" width="2286" height="1574.8" rx="787.4" ry="787.4" id="YZq9WjjjX_dT_pad-11"/><rect x="-1143" y="-787.4" width="2286" height="1574.8" id="YZq9WjjjX_dT_pad-12"/><circle cx="0" cy="0" r="698.5" id="YZq9WjjjX_dT_pad-13"/><circle cx="0" cy="0" r="999.49" id="YZq9WjjjX_dT_pad-14"/><rect x="-999.49" y="-999.49" width="1998.98" height="1998.98" id="YZq9WjjjX_dT_pad-15"/><rect x="-1249.68" y="-999.49" width="2499.36" height="1998.98" rx="999.49" ry="999.49" id="YZq9WjjjX_dT_pad-16"/><rect x="-1016" y="-863.6" width="2032" height="1727.2" rx="863.6" ry="863.6" id="YZq9WjjjX_dT_pad-17"/><rect x="-1016" y="-863.6" width="2032" height="1727.2" id="YZq9WjjjX_dT_pad-18"/><rect x="-1016" y="-1016" width="2032" height="2032" rx="1016" ry="1016" id="YZq9WjjjX_dT_pad-19"/><circle cx="0" cy="0" r="650" id="YZq9WjjjX_dT_pad-20"/><rect x="-650" y="-650" width="1300" height="1300" id="YZq9WjjjX_dT_pad-21"/><circle cx="0" cy="0" r="838.2" id="YZq9WjjjX_dT_pad-22"/><rect x="-4445" y="-4445" width="8890" height="8890" id="YZq9WjjjX_dT_pad-23"/><circle cx="0" cy="0" r="889" id="YZq9WjjjX_dT_pad-24"/><rect x="-889" y="-889" width="1778" height="1778" id="YZq9WjjjX_dT_pad-25"/><rect x="-1143" y="-787.4" width="2286" height="1574.8" rx="787.4" ry="787.4" id="fjQKfO02H7tl_pad-11"/><rect x="-1143" y="-787.4" width="2286" height="1574.8" id="fjQKfO02H7tl_pad-12"/><circle cx="0" cy="0" r="698.5" id="fjQKfO02H7tl_pad-13"/><circle cx="0" cy="0" r="999.49" id="fjQKfO02H7tl_pad-14"/><rect x="-999.49" y="-999.49" width="1998.98" height="1998.98" id="fjQKfO02H7tl_pad-15"/><rect x="-1249.68" y="-999.49" width="2499.36" height="1998.98" rx="999.49" ry="999.49" id="fjQKfO02H7tl_pad-16"/><rect x="-1016" y="-863.6" width="2032" height="1727.2" rx="863.6" ry="863.6" id="fjQKfO02H7tl_pad-17"/><rect x="-1016" y="-863.6" width="2032" height="1727.2" id="fjQKfO02H7tl_pad-18"/><rect x="-1016" y="-1016" width="2032" height="2032" rx="1016" ry="1016" id="fjQKfO02H7tl_pad-19"/><circle cx="0" cy="0" r="650" id="fjQKfO02H7tl_pad-20"/><rect x="-650" y="-650" width="1300" height="1300" id="fjQKfO02H7tl_pad-21"/><circle cx="0" cy="0" r="838.2" id="fjQKfO02H7tl_pad-22"/><rect x="-4445" y="-4445" width="8890" height="8890" id="fjQKfO02H7tl_pad-23"/><circle cx="0" cy="0" r="889" id="fjQKfO02H7tl_pad-24"/><rect x="-889" y="-889" width="1778" height="1778" id="fjQKfO02H7tl_pad-25"/><circle cx="0" cy="0" r="444.5" id="fjQKfO02H7tl_pad-26"/><rect x="-1143" y="-787.4" width="2286" height="1574.8" rx="787.4" ry="787.4" id="fjQKfO02H7tl_pad-11"/><rect x="-1143" y="-787.4" width="2286" height="1574.8" id="fjQKfO02H7tl_pad-12"/><circle cx="0" cy="0" r="698.5" id="fjQKfO02H7tl_pad-13"/><circle cx="0" cy="0" r="999.49" id="fjQKfO02H7tl_pad-14"/><rect x="-999.49" y="-999.49" width="1998.98" height="1998.98" id="fjQKfO02H7tl_pad-15"/><rect x="-1249.68" y="-999.49" width="2499.36" height="1998.98" rx="999.49" ry="999.49" id="fjQKfO02H7tl_pad-16"/><rect x="-1016" y="-863.6" width="2032" height="1727.2" rx="863.6" ry="863.6" id="fjQKfO02H7tl_pad-17"/><rect x="-1016" y="-863.6" width="2032" height="1727.2" id="fjQKfO02H7tl_pad-18"/><rect x="-1016" y="-1016" width="2032" height="2032" rx="1016" ry="1016" id="fjQKfO02H7tl_pad-19"/><circle cx="0" cy="0" r="650" id="fjQKfO02H7tl_pad-20"/><rect x="-650" y="-650" width="1300" height="1300" id="fjQKfO02H7tl_pad-21"/><circle cx="0" cy="0" r="838.2" id="fjQKfO02H7tl_pad-22"/><rect x="-4445" y="-4445" width="8890" height="8890" id="fjQKfO02H7tl_pad-23"/><circle cx="0" cy="0" r="889" id="fjQKfO02H7tl_pad-24"/><rect x="-889" y="-889" width="1778" height="1778" id="fjQKfO02H7tl_pad-25"/><circle cx="0" cy="0" r="444.5" id="fjQKfO02H7tl_pad-26"/><rect x="-1143" y="-787.4" width="2286" height="1574.8" rx="787.4" ry="787.4" id="YZq9WjjjX_dT_pad-11"/><rect x="-1143" y="-787.4" width="2286" height="1574.8" id="YZq9WjjjX_dT_pad-12"/><circle cx="0" cy="0" r="698.5" id="YZq9WjjjX_dT_pad-13"/><circle cx="0" cy="0" r="999.49" id="YZq9WjjjX_dT_pad-14"/><rect x="-999.49" y="-999.49" width="1998.98" height="1998.98" id="YZq9WjjjX_dT_pad-15"/><rect x="-1249.68" y="-999.49" width="2499.36" height="1998.98" rx="999.49" ry="999.49" id="YZq9WjjjX_dT_pad-16"/><rect x="-1016" y="-863.6" width="2032" height="1727.2" rx="863.6" ry="863.6" id="YZq9WjjjX_dT_pad-17"/><rect x="-1016" y="-863.6" width="2032" height="1727.2" id="YZq9WjjjX_dT_pad-18"/><rect x="-1016" y="-1016" width="2032" height="2032" rx="1016" ry="1016" id="YZq9WjjjX_dT_pad-19"/><circle cx="0" cy="0" r="650" id="YZq9WjjjX_dT_pad-20"/><rect x="-650" y="-650" width="1300" height="1300" id="YZq9WjjjX_dT_pad-21"/><circle cx="0" cy="0" r="838.2" id="YZq9WjjjX_dT_pad-22"/><rect x="-4445" y="-4445" width="8890" height="8890" id="YZq9WjjjX_dT_pad-23"/><circle cx="0" cy="0" r="889" id="YZq9WjjjX_dT_pad-24"/><rect x="-889" y="-889" width="1778" height="1778" id="YZq9WjjjX_dT_pad-25"/><circle cx="0" cy="0" r="12.5" id="KCtHjQTAktVh_pad-1"/><circle cx="0" cy="0" r="15.5" id="KCtHjQTAktVh_pad-2"/><circle cx="0" cy="0" r="16" id="KCtHjQTAktVh_pad-3"/><circle cx="0" cy="0" r="19.5" id="KCtHjQTAktVh_pad-4"/><circle cx="0" cy="0" r="20" id="KCtHjQTAktVh_pad-5"/><circle cx="0" cy="0" r="22.5" id="KCtHjQTAktVh_pad-6"/><circle cx="0" cy="0" r="23.5" id="KCtHjQTAktVh_pad-7"/><circle cx="0" cy="0" r="25" id="KCtHjQTAktVh_pad-8"/><circle cx="0" cy="0" r="59" id="KCtHjQTAktVh_pad-9"/><circle cx="0" cy="0" r="60" id="KCtHjQTAktVh_pad-10"/><g id="pcb-stackup_bottom_cu"><use xlink:href="#fjQKfO02H7tl_pad-11" x="63500" y="-40640"/><use xlink:href="#fjQKfO02H7tl_pad-11" x="63500" y="-43180"/><use xlink:href="#fjQKfO02H7tl_pad-11" x="63500" y="-45720"/><use xlink:href="#fjQKfO02H7tl_pad-11" x="63500" y="-48260"/><use xlink:href="#fjQKfO02H7tl_pad-11" x="63500" y="-50800"/><use xlink:href="#fjQKfO02H7tl_pad-11" x="63500" y="-53340"/><use xlink:href="#fjQKfO02H7tl_pad-11" x="63500" y="-55880"/><use xlink:href="#fjQKfO02H7tl_pad-11" x="63500" y="-58420"/><use xlink:href="#fjQKfO02H7tl_pad-11" x="63500" y="-60960"/><use xlink:href="#fjQKfO02H7tl_pad-11" x="63500" y="-63500"/><use xlink:href="#fjQKfO02H7tl_pad-11" x="63500" y="-66040"/><use xlink:href="#fjQKfO02H7tl_pad-11" x="63500" y="-68580"/><use xlink:href="#fjQKfO02H7tl_pad-11" x="63500" y="-71120"/><use xlink:href="#fjQKfO02H7tl_pad-12" x="63500" y="-38100"/><use xlink:href="#fjQKfO02H7tl_pad-11" x="71120" y="-71120"/><use xlink:href="#fjQKfO02H7tl_pad-11" x="71120" y="-68580"/><use xlink:href="#fjQKfO02H7tl_pad-11" x="71120" y="-66040"/><use xlink:href="#fjQKfO02H7tl_pad-11" x="71120" y="-63500"/><use xlink:href="#fjQKfO02H7tl_pad-11" x="71120" y="-60960"/><use xlink:href="#fjQKfO02H7tl_pad-11" x="71120" y="-58420"/><use xlink:href="#fjQKfO02H7tl_pad-11" x="71120" y="-55880"/><use xlink:href="#fjQKfO02H7tl_pad-11" x="71120" y="-53340"/><use xlink:href="#fjQKfO02H7tl_pad-11" x="71120" y="-50800"/><use xlink:href="#fjQKfO02H7tl_pad-11" x="71120" y="-48260"/><use xlink:href="#fjQKfO02H7tl_pad-11" x="71120" y="-45720"/><use xlink:href="#fjQKfO02H7tl_pad-11" x="71120" y="-43180"/><use xlink:href="#fjQKfO02H7tl_pad-11" x="71120" y="-40640"/><use xlink:href="#fjQKfO02H7tl_pad-11" x="71120" y="-38100"/><use xlink:href="#fjQKfO02H7tl_pad-13" x="52070" y="-60960"/><use xlink:href="#fjQKfO02H7tl_pad-13" x="52070" y="-58420"/><use xlink:href="#fjQKfO02H7tl_pad-13" x="52070" y="-66040"/><use xlink:href="#fjQKfO02H7tl_pad-13" x="52070" y="-68580"/><use xlink:href="#fjQKfO02H7tl_pad-13" x="46990" y="-38100"/><use xlink:href="#fjQKfO02H7tl_pad-13" x="41910" y="-38100"/><use xlink:href="#fjQKfO02H7tl_pad-14" x="72390" y="-34290"/><use xlink:href="#fjQKfO02H7tl_pad-15" x="62230" y="-34290"/><use xlink:href="#fjQKfO02H7tl_pad-13" x="49530" y="-49530"/><use xlink:href="#fjQKfO02H7tl_pad-13" x="49530" y="-54610"/><use xlink:href="#fjQKfO02H7tl_pad-13" x="41910" y="-49530"/><use xlink:href="#fjQKfO02H7tl_pad-13" x="41910" y="-54610"/><use xlink:href="#fjQKfO02H7tl_pad-16" x="48260" y="-64670.94"/><use xlink:href="#fjQKfO02H7tl_pad-16" x="48260" y="-59789.06"/><use xlink:href="#fjQKfO02H7tl_pad-17" x="40640" y="-59690"/><use xlink:href="#fjQKfO02H7tl_pad-17" x="40640" y="-62230"/><use xlink:href="#fjQKfO02H7tl_pad-17" x="40640" y="-64770"/><use xlink:href="#fjQKfO02H7tl_pad-17" x="40640" y="-67310"/><use xlink:href="#fjQKfO02H7tl_pad-17" x="40640" y="-69850"/><use xlink:href="#fjQKfO02H7tl_pad-17" x="38100" y="-59690"/><use xlink:href="#fjQKfO02H7tl_pad-17" x="38100" y="-62230"/><use xlink:href="#fjQKfO02H7tl_pad-17" x="38100" y="-64770"/><use xlink:href="#fjQKfO02H7tl_pad-17" x="38100" y="-67310"/><use xlink:href="#fjQKfO02H7tl_pad-17" x="38100" y="-69850"/><use xlink:href="#fjQKfO02H7tl_pad-18" x="38100" y="-38100"/><use xlink:href="#fjQKfO02H7tl_pad-17" x="38100" y="-40640"/><use xlink:href="#fjQKfO02H7tl_pad-17" x="38100" y="-43180"/><use xlink:href="#fjQKfO02H7tl_pad-17" x="38100" y="-45720"/><use xlink:href="#fjQKfO02H7tl_pad-17" x="38100" y="-48260"/><use xlink:href="#fjQKfO02H7tl_pad-17" x="38100" y="-50800"/><use xlink:href="#fjQKfO02H7tl_pad-18" x="55880" y="-38100"/><use xlink:href="#fjQKfO02H7tl_pad-17" x="55880" y="-40640"/><use xlink:href="#fjQKfO02H7tl_pad-17" x="55880" y="-43180"/><use xlink:href="#fjQKfO02H7tl_pad-17" x="55880" y="-45720"/><use xlink:href="#fjQKfO02H7tl_pad-17" x="55880" y="-48260"/><use xlink:href="#fjQKfO02H7tl_pad-17" x="55880" y="-50800"/><use xlink:href="#fjQKfO02H7tl_pad-17" x="55880" y="-53340"/><use xlink:href="#fjQKfO02H7tl_pad-17" x="55880" y="-55880"/><use xlink:href="#fjQKfO02H7tl_pad-19" x="78740" y="-30480"/><use xlink:href="#fjQKfO02H7tl_pad-19" x="78740" y="-33020"/><use xlink:href="#fjQKfO02H7tl_pad-17" x="55880" y="-63500"/><use xlink:href="#fjQKfO02H7tl_pad-17" x="55880" y="-66040"/><use xlink:href="#fjQKfO02H7tl_pad-17" x="55880" y="-68580"/><use xlink:href="#fjQKfO02H7tl_pad-17" x="55880" y="-71120"/><use xlink:href="#fjQKfO02H7tl_pad-17" x="78740" y="-71120"/><use xlink:href="#fjQKfO02H7tl_pad-17" x="78740" y="-68580"/><use xlink:href="#fjQKfO02H7tl_pad-17" x="78740" y="-66040"/><use xlink:href="#fjQKfO02H7tl_pad-17" x="78740" y="-63500"/><use xlink:href="#fjQKfO02H7tl_pad-17" x="78740" y="-60960"/><use xlink:href="#fjQKfO02H7tl_pad-17" x="78740" y="-58420"/><use xlink:href="#fjQKfO02H7tl_pad-17" x="78740" y="-55880"/><use xlink:href="#fjQKfO02H7tl_pad-17" x="78740" y="-53340"/><use xlink:href="#fjQKfO02H7tl_pad-17" x="78740" y="-50800"/><use xlink:href="#fjQKfO02H7tl_pad-17" x="78740" y="-48260"/><use xlink:href="#fjQKfO02H7tl_pad-17" x="78740" y="-45720"/><use xlink:href="#fjQKfO02H7tl_pad-17" x="78740" y="-43180"/><use xlink:href="#fjQKfO02H7tl_pad-17" x="78740" y="-40640"/><use xlink:href="#fjQKfO02H7tl_pad-17" x="78740" y="-38100"/><use xlink:href="#fjQKfO02H7tl_pad-20" x="69850" y="-27980"/><use xlink:href="#fjQKfO02H7tl_pad-21" x="69850" y="-30480"/><use xlink:href="#fjQKfO02H7tl_pad-20" x="60960" y="-30440"/><use xlink:href="#fjQKfO02H7tl_pad-21" x="60960" y="-27940"/><use xlink:href="#fjQKfO02H7tl_pad-22" x="49530" y="-71120"/><use xlink:href="#fjQKfO02H7tl_pad-22" x="46990" y="-71120"/><use xlink:href="#fjQKfO02H7tl_pad-14" x="44450" y="-69850"/><use xlink:href="#fjQKfO02H7tl_pad-14" x="44450" y="-59690"/><use xlink:href="#fjQKfO02H7tl_pad-14" x="52070" y="-48260"/><use xlink:href="#fjQKfO02H7tl_pad-14" x="52070" y="-38100"/><use xlink:href="#fjQKfO02H7tl_pad-23" x="39370" y="-30480"/><use xlink:href="#fjQKfO02H7tl_pad-24" x="55880" y="-33020"/><use xlink:href="#fjQKfO02H7tl_pad-25" x="55880" y="-30480"/><use xlink:href="#fjQKfO02H7tl_pad-24" x="55880" y="-27940"/><use xlink:href="#fjQKfO02H7tl_pad-26" x="71120" y="-58420"/><use xlink:href="#fjQKfO02H7tl_pad-26" x="44450" y="-40640"/><path d="M 44450 -59690 40640 -59690 M 40640 -62230 40640 -64770 40640 -67310 40640 -69850 M 41910 -54610 40640 -55880 M 40640 -58420 40640 -59690 M 40640 -55880 40640 -58420 M 40640 -59690 40640 -62230 M 63620 -30440 60960 -30440 60920 -30480 55880 -30480 M 69850 -27980 66080 -27980 M 71120 -53340 69850 -53340 67310 -50800 67310 -34130 63620 -30440 M 78740 -33020 76200 -33020 M 66080 -27980 63620 -30440 M 72430 -27980 66080 -27980 M 76200 -33020 72430 -27980 M 69850 -53340 78740 -53340 M 63500 -55880 67310 -55880 M 41910 -54610 38100 -50800 38100 -48260 M 50800 -55880 49530 -54610 41910 -54610 M 63500 -55880 55880 -55880 50800 -55880 52070 -57150 52070 -58420 M 40640 -69850 40640 -67310 40640 -64770 40640 -62230 M 49530 -54610 49530 -54610 M 44450 -66040 46990 -68580 52070 -68580 M 44450 -59690 44450 -66040 M 67310 -55880 69850 -53340 M 71120 -58420 78740 -58420 M 52070 -66040 49530 -66040 48260 -64770 48260 -64670.94 M 52070 -66040 52070 -63500 54610 -60960 63500 -60960 M 52070 -60960 49530 -60960 48359.06 -59789.06 48260 -59789.06 M 63500 -58420 54610 -58420 52070 -60960 52070 -60960 M 51970.94 -61059.06 52070 -60960 M 52070 -38100 46990 -38100 M 52070 -38100 55880 -38100 63500 -38100 M 41910 -49530 49530 -49530 M 38100 -38100 41910 -38100 M 55880 -40640 44450 -40640 M 55880 -40640 63500 -40640 M 55880 -43180 63500 -43180 M 38100 -40640 41910 -40640 M 44450 -43180 55880 -43180 M 41910 -40640 44450 -43180 M 55880 -45720 63500 -45720 M 55880 -48260 63500 -48260 M 55880 -50800 63500 -50800 M 55880 -63500 63500 -63500 M 55880 -66040 63500 -66040 M 55880 -68580 63500 -68580 M 55880 -71120 63500 -71120 M 71120 -71120 78740 -71120 M 71120 -68580 78740 -68580 M 71120 -66040 78740 -66040 M 71120 -63500 78740 -63500 M 71120 -60960 78740 -60960 M 71120 -55880 78740 -55880 M 71120 -50800 78740 -50800 M 71120 -48260 78740 -48260 M 71120 -45720 78740 -45720 M 71120 -43180 78740 -43180 M 71120 -40640 78740 -40640 M 71120 -38100 78740 -38100 M 44450 -69850 44450 -69850 M 45720 -71120 46990 -71120 M 44450 -69850 45720 -71120" fill="none" stroke-width="508"/><path d="M 80849 -74499 80423.345 -74499 80423.345 -71120 80309.271 -70546.511 79984.415 -70060.33 79669.634 -69850 79984.415 -69639.67 80309.271 -69153.489 80423.345 -68580 80309.271 -68006.511 79984.415 -67520.33 79669.634 -67310 79984.415 -67099.67 80309.271 -66613.489 80423.345 -66040 80309.271 -65466.511 79984.415 -64980.33 79669.634 -64770 79984.415 -64559.67 80309.271 -64073.489 80423.345 -63500 80309.271 -62926.511 79984.415 -62440.33 79669.634 -62230 79984.415 -62019.67 80309.271 -61533.489 80423.345 -60960 80309.271 -60386.511 79984.415 -59900.33 79669.634 -59690 79984.415 -59479.67 80309.271 -58993.489 80423.345 -58420 80309.271 -57846.511 79984.415 -57360.33 79669.634 -57150 79984.415 -56939.67 80309.271 -56453.489 80423.345 -55880 80423.345 -50800 80309.271 -50226.511 79984.415 -49740.33 79669.634 -49530 79984.415 -49319.67 80309.271 -48833.489 80423.345 -48260 80309.271 -47686.511 79984.415 -47200.33 79669.634 -46990 79984.415 -46779.67 80309.271 -46293.489 80423.345 -45720 80309.271 -45146.511 79984.415 -44660.33 79669.634 -44450 79984.415 -44239.67 80309.271 -43753.489 80423.345 -43180 80309.271 -42606.511 79984.415 -42120.33 79669.634 -41910 79984.415 -41699.67 80309.271 -41213.489 80423.345 -40640 80309.271 -40066.511 79984.415 -39580.33 79669.634 -39370 79984.415 -39159.67 80309.271 -38673.489 80423.345 -38100 80309.271 -37526.511 80094.22 -37204.664 80094.22 -33363.07 80035.54 -33147 78867 -33147 78867 -34315.976 79083.072 -34374.231 79575.199 -34139.858 79940.174 -33734.997 80094.22 -33363.07 80094.22 -37204.664 79984.415 -37040.33 79498.234 -36715.474 78924.745 -36601.4 78613 -36601.4 78613 -34315.976 78613 -33147 77444.46 -33147 77385.78 -33363.07 77539.826 -33734.997 77904.801 -34139.858 78396.928 -34374.231 78613 -34315.976 78613 -36601.4 78555.255 -36601.4 77981.766 -36715.474 77495.585 -37040.33 77381.546 -37211 74024.774 -37211 74024.774 -33966.306 73776.462 -33365.345 73317.073 -32905.154 72716.547 -32655.794 72066.306 -32655.226 71465.345 -32903.538 71147.44 -33220.888 71147.44 -31130 71147.44 -29830 71100.463 -29587.877 70960.673 -29375.073 70894.314 -29330.279 70894.314 -28100.11 70860.784 -27691.326 70768.856 -27469.392 70609.768 -27399.837 70430.163 -27579.442 70430.163 -27220.232 70360.608 -27061.144 69970.11 -26935.686 69561.326 -26969.216 69339.392 -27061.144 69269.837 -27220.232 69850 -27800.395 70430.163 -27220.232 70430.163 -27579.442 70029.605 -27980 70609.768 -28560.163 70768.856 -28490.608 70894.314 -28100.11 70894.314 -29330.279 70749.64 -29232.623 70500 -29182.56 70430.163 -29182.56 70430.163 -28739.768 69850 -28159.605 69670.395 -28339.21 69670.395 -27980 69090.232 -27399.837 68931.144 -27469.392 68805.686 -27859.89 68839.216 -28268.674 68931.144 -28490.608 69090.232 -28560.163 69670.395 -27980 69670.395 -28339.21 69269.837 -28739.768 69339.392 -28898.856 69729.89 -29024.314 70138.674 -28990.784 70360.608 -28898.856 70430.163 -28739.768 70430.163 -29182.56 69200 -29182.56 68957.877 -29229.537 68745.073 -29369.327 68602.623 -29580.36 68552.56 -29830 68552.56 -31130 68599.537 -31372.123 68739.327 -31584.927 68950.36 -31727.377 69200 -31777.44 70500 -31777.44 70742.123 -31730.463 70954.927 -31590.673 71097.377 -31379.64 71147.44 -31130 71147.44 -33220.888 71005.154 -33362.927 70755.794 -33963.453 70755.226 -34613.694 71003.538 -35214.655 71462.927 -35674.846 72063.453 -35924.206 72713.694 -35924.774 73314.655 -35676.462 73774.846 -35217.073 74024.206 -34616.547 74024.774 -33966.306 74024.774 -37211 72594.257 -37211 72516.222 -37094.211 72054.762 -36785.874 71510.433 -36677.6 70729.567 -36677.6 70185.238 -36785.874 69723.778 -37094.211 69415.441 -37555.671 69307.167 -38100 69415.441 -38644.329 69723.778 -39105.789 70119.198 -39370 69723.778 -39634.211 69415.441 -40095.671 69307.167 -40640 69415.441 -41184.329 69723.778 -41645.789 70119.198 -41910 69723.778 -42174.211 69415.441 -42635.671 69307.167 -43180 69415.441 -43724.329 69723.778 -44185.789 70119.198 -44450 69723.778 -44714.211 69415.441 -45175.671 69307.167 -45720 69415.441 -46264.329 69723.778 -46725.789 70119.198 -46990 69723.778 -47254.211 69415.441 -47715.671 69307.167 -48260 69415.441 -48804.329 69723.778 -49265.789 70119.198 -49530 69723.778 -49794.211 69415.441 -50255.671 69307.167 -50800 69415.441 -51344.329 69723.778 -51805.789 70185.238 -52114.126 70574.151 -52191.485 70199.94 -52309.14 69848.414 -52603.619 69637.09 -53032.869 69698.791 -53213 70993 -53213 70993 -53193 71247 -53193 71247 -53213 72541.209 -53213 72602.91 -53032.869 72391.586 -52603.619 72040.06 -52309.14 71665.848 -52191.485 72054.762 -52114.126 72516.222 -51805.789 72594.257 -51689 77381.546 -51689 77495.585 -51859.67 77981.766 -52184.526 78113.509 -52210.731 77958.28 -52264.43 77594.581 -52587.133 77384.607 -53020.882 77445.288 -53213 78613 -53213 78613 -53193 78867 -53193 78867 -53213 80034.712 -53213 80095.393 -53020.882 79885.419 -52587.133 79521.72 -52264.43 79366.49 -52210.731 79498.234 -52184.526 79984.415 -51859.67 80309.271 -51373.489 80423.345 -50800 80423.345 -55880 80309.271 -55306.511 79984.415 -54820.33 79498.234 -54495.474 79366.49 -54469.268 79521.72 -54415.57 79885.419 -54092.867 80095.393 -53659.118 80034.712 -53467 78867 -53467 78867 -53487 78613 -53487 78613 -53467 77445.288 -53467 77384.607 -53659.118 77594.581 -54092.867 77958.28 -54415.57 78113.509 -54469.268 77981.766 -54495.474 77495.585 -54820.33 77381.546 -54991 72594.257 -54991 72516.222 -54874.211 72054.762 -54565.874 71665.848 -54488.514 72040.06 -54370.86 72391.586 -54076.381 72602.91 -53647.131 72541.209 -53467 71247 -53467 71247 -53487 70993 -53487 70993 -53467 69698.791 -53467 69637.09 -53647.131 69848.414 -54076.381 70199.94 -54370.86 70574.151 -54488.514 70185.238 -54565.874 69723.778 -54874.211 69415.441 -55335.671 69307.167 -55880 69415.441 -56424.329 69723.778 -56885.789 70119.198 -57150 69723.778 -57414.211 69415.441 -57875.671 69307.167 -58420 69415.441 -58964.329 69723.778 -59425.789 70119.198 -59690 69723.778 -59954.211 69415.441 -60415.671 69307.167 -60960 69415.441 -61504.329 69723.778 -61965.789 70119.198 -62230 69723.778 -62494.211 69415.441 -62955.671 69307.167 -63500 69415.441 -64044.329 69723.778 -64505.789 70119.198 -64770 69723.778 -65034.211 69415.441 -65495.671 69307.167 -66040 69415.441 -66584.329 69723.778 -67045.789 70119.198 -67310 69723.778 -67574.211 69415.441 -68035.671 69307.167 -68580 69415.441 -69124.329 69723.778 -69585.789 70119.198 -69850 69723.778 -70114.211 69415.441 -70575.671 69307.167 -71120 69415.441 -71664.329 69723.778 -72125.789 70185.238 -72434.126 70729.567 -72542.4 71510.433 -72542.4 72054.762 -72434.126 72516.222 -72125.789 72594.257 -72009 77381.546 -72009 77495.585 -72179.67 77981.766 -72504.526 78555.255 -72618.6 78924.745 -72618.6 79498.234 -72504.526 79984.415 -72179.67 80309.271 -71693.489 80423.345 -71120 80423.345 -74499 65312.833 -74499 65312.833 -71120 65204.559 -70575.671 64896.222 -70114.211 64500.801 -69850 64896.222 -69585.789 65204.559 -69124.329 65312.833 -68580 65204.559 -68035.671 64896.222 -67574.211 64500.801 -67310 64896.222 -67045.789 65204.559 -66584.329 65312.833 -66040 65204.559 -65495.671 64896.222 -65034.211 64500.801 -64770 64896.222 -64505.789 65204.559 -64044.329 65312.833 -63500 65204.559 -62955.671 64896.222 -62494.211 64500.801 -62230 64896.222 -61965.789 65204.559 -61504.329 65312.833 -60960 65204.559 -60415.671 64896.222 -59954.211 64500.801 -59690 64896.222 -59425.789 65204.559 -58964.329 65312.833 -58420 65312.833 -53340 65204.559 -52795.671 64896.222 -52334.211 64500.801 -52070 64896.222 -51805.789 65204.559 -51344.329 65312.833 -50800 65204.559 -50255.671 64896.222 -49794.211 64500.801 -49530 64896.222 -49265.789 65204.559 -48804.329 65312.833 -48260 65204.559 -47715.671 64896.222 -47254.211 64500.801 -46990 64896.222 -46725.789 65204.559 -46264.329 65312.833 -45720 65204.559 -45175.671 64896.222 -44714.211 64500.801 -44450 64896.222 -44185.789 65204.559 -43724.329 65312.833 -43180 65204.559 -42635.671 64896.222 -42174.211 64500.801 -41910 64896.222 -41645.789 65204.559 -41184.329 65312.833 -40640 65204.559 -40095.671 64896.222 -39634.211 64723.986 -39519.126 64885.123 -39487.863 65097.927 -39348.073 65240.377 -39137.04 65290.44 -38887.4 65290.44 -37312.6 65243.463 -37070.477 65103.673 -36857.673 64892.64 -36715.223 64643 -36665.16 63876.93 -36665.16 63876.93 -35289.49 63876.93 -33290.51 63829.953 -33048.387 63690.163 -32835.583 63479.13 -32693.133 63229.49 -32643.07 62257.44 -32643.07 62257.44 -28590 62257.44 -27290 62210.463 -27047.877 62070.673 -26835.073 61859.64 -26692.623 61610 -26642.56 60310 -26642.56 60067.877 -26689.537 59855.073 -26829.327 59712.623 -27040.36 59662.56 -27290 59662.56 -28590 59709.537 -28832.123 59849.327 -29044.927 60060.36 -29187.377 60310 -29237.44 61610 -29237.44 61852.123 -29190.463 62064.927 -29050.673 62207.377 -28839.64 62257.44 -28590 62257.44 -32643.07 62004.314 -32643.07 62004.314 -30560.11 61970.784 -30151.326 61878.856 -29929.392 61719.768 -29859.837 61540.163 -30039.442 61540.163 -29680.232 61470.608 -29521.144 61080.11 -29395.686 60671.326 -29429.216 60449.392 -29521.144 60379.837 -29680.232 60960 -30260.395 61540.163 -29680.232 61540.163 -30039.442 61139.605 -30440 61719.768 -31020.163 61878.856 -30950.608 62004.314 -30560.11 62004.314 -32643.07 61540.163 -32643.07 61540.163 -31199.768 60960 -30619.605 60780.395 -30799.21 60780.395 -30440 60200.232 -29859.837 60041.144 -29929.392 59915.686 -30319.89 59949.216 -30728.674 60041.144 -30950.608 60200.232 -31020.163 60780.395 -30440 60780.395 -30799.21 60379.837 -31199.768 60449.392 -31358.856 60839.89 -31484.314 61248.674 -31450.784 61470.608 -31358.856 61540.163 -31199.768 61540.163 -32643.07 61230.51 -32643.07 60988.387 -32690.047 60775.583 -32829.837 60633.133 -33040.87 60583.07 -33290.51 60583.07 -35289.49 60630.047 -35531.613 60769.837 -35744.417 60980.87 -35886.867 61230.51 -35936.93 63229.49 -35936.93 63471.613 -35889.953 63684.417 -35750.163 63826.867 -35539.13 63876.93 -35289.49 63876.93 -36665.16 62357 -36665.16 62114.877 -36712.137 61902.073 -36851.927 61759.623 -37062.96 61729.934 -37211 57538.511 -37211 57496.463 -36994.277 57404.264 -36853.921 57404.264 -32718.188 57404.264 -27638.188 57172.738 -27077.851 56744.404 -26648.769 56184.472 -26416.265 55578.188 -26415.736 55017.851 -26647.262 54588.769 -27075.596 54356.265 -27635.528 54355.736 -28241.812 54587.262 -28802.149 54994.402 -29210 54915.214 -29210 54775.18 -29268.004 54668.004 -29375.181 54610 -29515.215 54610 -29666.786 54610 -30257.75 54705.25 -30353 55753 -30353 55753 -30333 56007 -30333 56007 -30353 57054.75 -30353 57150 -30257.75 57150 -29666.786 57150 -29515.215 57091.996 -29375.181 56984.82 -29268.004 56844.786 -29210 56764.926 -29210 57171.231 -28804.404 57403.735 -28244.472 57404.264 -27638.188 57404.264 -32718.188 57172.738 -32157.851 56765.597 -31750 56844.786 -31750 56984.82 -31691.996 57091.996 -31584.819 57150 -31444.785 57150 -31293.214 57150 -30702.25 57054.75 -30607 56007 -30607 56007 -30627 55753 -30627 55753 -30607 54705.25 -30607 54610 -30702.25 54610 -31293.214 54610 -31444.785 54668.004 -31584.819 54775.18 -31691.996 54915.214 -31750 54995.073 -31750 54588.769 -32155.596 54356.265 -32715.528 54355.736 -33321.812 54587.262 -33882.149 55015.596 -34311.231 55575.528 -34543.735 56181.812 -34544.264 56742.149 -34312.738 57171.231 -33884.404 57403.735 -33324.472 57404.264 -32718.188 57404.264 -36853.921 57356.673 -36781.473 57145.64 -36639.023 56896 -36588.96 54864 -36588.96 54621.877 -36635.937 54409.073 -36775.727 54266.623 -36986.76 54221.653 -37211 53471.194 -37211 53456.462 -37175.345 52997.073 -36715.154 52396.547 -36465.794 51746.306 -36465.226 51145.345 -36713.538 50685.154 -37172.927 50669.344 -37211 47986.76 -37211 47746.353 -36970.173 47256.413 -36766.732 46725.914 -36766.269 46235.62 -36968.854 45860.173 -37343.647 45656.732 -37833.587 45656.269 -38364.086 45858.854 -38854.38 46233.647 -39229.827 46723.587 -39433.268 47254.086 -39433.731 47744.38 -39231.146 47986.948 -38989 50668.805 -38989 50683.538 -39024.655 51142.927 -39484.846 51743.453 -39734.206 52393.694 -39734.774 52994.655 -39486.462 53454.846 -39027.073 53470.655 -38989 54221.488 -38989 54263.537 -39205.723 54403.327 -39418.527 54614.36 -39560.977 54652.962 -39568.718 54635.585 -39580.33 54521.546 -39751 45087.863 -39751 45062.286 -39725.378 44665.668 -39560.687 44462.44 -39560.51 44462.44 -34925 44462.44 -26035 44415.463 -25792.877 44275.673 -25580.073 44064.64 -25437.623 43815 -25387.56 34925 -25387.56 34682.877 -25434.537 34470.073 -25574.327 34327.623 -25785.36 34277.56 -26035 34277.56 -34925 34324.537 -35167.123 34464.327 -35379.927 34675.36 -35522.377 34925 -35572.44 43815 -35572.44 44057.123 -35525.463 44269.927 -35385.673 44412.377 -35174.64 44462.44 -34925 44462.44 -39560.51 44236.216 -39560.313 43839.311 -39724.311 43535.378 -40027.714 43370.687 -40424.332 43370.322 -40843.086 42538.618 -40011.382 42250.206 -39818.671 41910 -39751 39458.453 -39751 39344.415 -39580.33 39328.632 -39569.784 39358.123 -39564.063 39570.927 -39424.273 39713.377 -39213.24 39758.346 -38989 40913.239 -38989 41153.647 -39229.827 41643.587 -39433.268 42174.086 -39433.731 42664.38 -39231.146 43039.827 -38856.353 43243.268 -38366.413 43243.731 -37835.914 43041.146 -37345.62 42666.353 -36970.173 42176.413 -36766.732 41645.914 -36766.269 41155.62 -36968.854 40913.051 -37211 39758.511 -37211 39716.463 -36994.277 39576.673 -36781.473 39365.64 -36639.023 39116 -36588.96 37084 -36588.96 36841.877 -36635.937 36629.073 -36775.727 36486.623 -36986.76 36436.56 -37236.4 36436.56 -38963.6 36483.537 -39205.723 36623.327 -39418.527 36834.36 -39560.977 36872.962 -39568.718 36855.585 -39580.33 36530.729 -40066.511 36416.655 -40640 36530.729 -41213.489 36855.585 -41699.67 37170.365 -41910 36855.585 -42120.33 36530.729 -42606.511 36416.655 -43180 36530.729 -43753.489 36855.585 -44239.67 37170.365 -44450 36855.585 -44660.33 36530.729 -45146.511 36416.655 -45720 36530.729 -46293.489 36855.585 -46779.67 37341.766 -47104.526 37473.509 -47130.731 37318.28 -47184.43 36954.581 -47507.133 36744.607 -47940.882 36805.288 -48133 37973 -48133 37973 -48113 38227 -48113 38227 -48133 39394.712 -48133 39455.393 -47940.882 39245.419 -47507.133 38881.72 -47184.43 38726.49 -47130.731 38858.234 -47104.526 39344.415 -46779.67 39669.271 -46293.489 39783.345 -45720 39669.271 -45146.511 39344.415 -44660.33 39029.634 -44450 39344.415 -44239.67 39669.271 -43753.489 39783.345 -43180 39669.271 -42606.511 39344.415 -42120.33 39029.634 -41910 39344.415 -41699.67 39458.453 -41529 41541.764 -41529 43821.382 -43808.618 44109.794 -44001.329 44450 -44069 54521.546 -44069 54635.585 -44239.67 54950.365 -44450 54635.585 -44660.33 54310.729 -45146.511 54196.655 -45720 54310.729 -46293.489 54635.585 -46779.67 54950.365 -46990 54635.585 -47200.33 54310.729 -47686.511 54196.655 -48260 54310.729 -48833.489 54635.585 -49319.67 54950.365 -49530 54635.585 -49740.33 54310.729 -50226.511 54196.655 -50800 54310.729 -51373.489 54635.585 -51859.67 54950.365 -52070 54635.585 -52280.33 54310.729 -52766.511 54196.655 -53340 54310.729 -53913.489 54635.585 -54399.67 55121.766 -54724.526 55253.509 -54750.731 55098.28 -54804.43 54734.581 -55127.133 54524.607 -55560.882 54585.288 -55753 55753 -55753 55753 -55733 56007 -55733 56007 -55753 57174.712 -55753 57235.393 -55560.882 57025.419 -55127.133 56661.72 -54804.43 56506.49 -54750.731 56638.234 -54724.526 57124.415 -54399.67 57449.271 -53913.489 57563.345 -53340 57449.271 -52766.511 57124.415 -52280.33 56809.634 -52070 57124.415 -51859.67 57238.453 -51689 62025.742 -51689 62103.778 -51805.789 62499.198 -52070 62103.778 -52334.211 61795.441 -52795.671 61687.167 -53340 61795.441 -53884.329 62103.778 -54345.789 62565.238 -54654.126 62954.151 -54731.485 62579.94 -54849.14 62228.414 -55143.619 62017.09 -55572.869 62078.791 -55753 63373 -55753 63373 -55733 63627 -55733 63627 -55753 64921.209 -55753 64982.91 -55572.869 64771.586 -55143.619 64420.06 -54849.14 64045.848 -54731.485 64434.762 -54654.126 64896.222 -54345.789 65204.559 -53884.329 65312.833 -53340 65312.833 -58420 65204.559 -57875.671 64896.222 -57414.211 64434.762 -57105.874 64045.848 -57028.514 64420.06 -56910.86 64771.586 -56616.381 64982.91 -56187.131 64921.209 -56007 63627 -56007 63627 -56027 63373 -56027 63373 -56007 62078.791 -56007 62017.09 -56187.131 62228.414 -56616.381 62579.94 -56910.86 62954.151 -57028.514 62565.238 -57105.874 62103.778 -57414.211 62025.742 -57531 57235.393 -57531 57235.393 -56199.118 57174.712 -56007 56007 -56007 56007 -57030.643 56202.213 -57114.527 56661.72 -56955.57 57025.419 -56632.867 57235.393 -56199.118 57235.393 -57531 55753 -57531 55753 -57030.643 55753 -56007 54585.288 -56007 54524.607 -56199.118 54734.581 -56632.867 55098.28 -56955.57 55557.787 -57114.527 55753 -57030.643 55753 -57531 54610 -57531 54269.794 -57598.671 53981.382 -57791.382 53704.774 -58067.989 53704.774 -47936.306 53456.462 -47335.345 52997.073 -46875.154 52396.547 -46625.794 51746.306 -46625.226 51145.345 -46873.538 50685.154 -47332.927 50435.794 -47933.453 50435.256 -48549.335 50286.353 -48400.173 49796.413 -48196.732 49265.914 -48196.269 48775.62 -48398.854 48533.051 -48641 42906.76 -48641 42666.353 -48400.173 42176.413 -48196.732 41645.914 -48196.269 41155.62 -48398.854 40780.173 -48773.647 40576.732 -49263.587 40576.269 -49794.086 40778.854 -50284.38 41153.647 -50659.827 41643.587 -50863.268 42174.086 -50863.731 42664.38 -50661.146 42906.948 -50419 48533.239 -50419 48773.647 -50659.827 49263.587 -50863.268 49794.086 -50863.731 50284.38 -50661.146 50659.827 -50286.353 50863.268 -49796.413 50863.644 -49365.075 51142.927 -49644.846 51743.453 -49894.206 52393.694 -49894.774 52994.655 -49646.462 53454.846 -49187.073 53704.206 -48586.547 53704.774 -47936.306 53704.774 -58067.989 53134.372 -58638.391 53162.737 -58551.734 53129.97 -58123.534 53029.145 -57880.121 52865.033 -57804.572 52685.428 -57984.177 52685.428 -57624.967 52609.879 -57460.855 52201.734 -57327.263 51773.534 -57360.03 51530.121 -57460.855 51454.572 -57624.967 52070 -58240.395 52685.428 -57624.967 52685.428 -57984.177 52249.605 -58420 52263.747 -58434.142 52084.142 -58613.747 52070 -58599.605 51890.395 -58779.21 51890.395 -58420 51274.967 -57804.572 51110.855 -57880.121 50977.263 -58288.266 51010.03 -58716.466 51110.855 -58959.879 51274.967 -59035.428 51890.395 -58420 51890.395 -58779.21 51454.572 -59215.033 51530.121 -59379.145 51938.266 -59512.737 52286.689 -59486.074 52146.198 -59626.565 51805.914 -59626.269 51315.62 -59828.854 51073.051 -60071 50622.737 -60071 50622.737 -54741.734 50589.97 -54313.534 50489.145 -54070.121 50325.033 -53994.572 50145.428 -54174.177 50145.428 -53814.967 50069.879 -53650.855 49661.734 -53517.263 49233.534 -53550.03 48990.121 -53650.855 48914.572 -53814.967 49530 -54430.395 50145.428 -53814.967 50145.428 -54174.177 49709.605 -54610 50325.033 -55225.428 50489.145 -55149.879 50622.737 -54741.734 50622.737 -60071 50125.521 -60071 50181.603 -59789.06 50145.428 -59607.195 50145.428 -55405.033 49530 -54789.605 49350.395 -54969.21 49350.395 -54610 48734.967 -53994.572 48570.855 -54070.121 48437.263 -54478.266 48470.03 -54906.466 48570.855 -55149.879 48734.967 -55225.428 49350.395 -54610 49350.395 -54969.21 48914.572 -55405.033 48990.121 -55569.145 49398.266 -55702.737 49826.466 -55669.97 50069.879 -55569.145 50145.428 -55405.033 50145.428 -59607.195 50057.185 -59163.568 49702.872 -58633.301 49172.605 -58278.988 48547.113 -58154.57 47972.887 -58154.57 47347.395 -58278.988 46817.128 -58633.301 46462.815 -59163.568 46338.397 -59789.06 46462.815 -60414.552 46817.128 -60944.819 47347.395 -61299.132 47972.887 -61423.55 48547.113 -61423.55 48704.923 -61392.159 48901.382 -61588.618 49189.794 -61781.329 49189.795 -61781.329 49530 -61849 51073.239 -61849 51313.647 -62089.827 51803.587 -62293.268 52019.307 -62293.456 51441.382 -62871.382 51248.671 -63159.794 51181 -63500 51181 -65043.239 51073.051 -65151 50086.113 -65151 50181.603 -64670.94 50057.185 -64045.448 49702.872 -63515.181 49172.605 -63160.868 48547.113 -63036.45 47972.887 -63036.45 47347.395 -63160.868 46817.128 -63515.181 46462.815 -64045.448 46338.397 -64670.94 46462.815 -65296.432 46817.128 -65826.699 47347.395 -66181.012 47972.887 -66305.43 48538.194 -66305.43 48901.382 -66668.618 49189.794 -66861.329 49189.795 -66861.329 49530 -66929 51073.239 -66929 51313.647 -67169.827 51803.587 -67373.268 52334.086 -67373.731 52824.38 -67171.146 53199.827 -66796.353 53403.268 -66306.413 53403.731 -65775.914 53201.146 -65285.62 52959 -65043.051 52959 -63868.236 54978.236 -61849 62025.742 -61849 62103.778 -61965.789 62499.198 -62230 62103.778 -62494.211 62025.742 -62611 57238.453 -62611 57124.415 -62440.33 56638.234 -62115.474 56064.745 -62001.4 55695.255 -62001.4 55121.766 -62115.474 54635.585 -62440.33 54310.729 -62926.511 54196.655 -63500 54310.729 -64073.489 54635.585 -64559.67 54950.365 -64770 54635.585 -64980.33 54310.729 -65466.511 54196.655 -66040 54310.729 -66613.489 54635.585 -67099.67 54950.365 -67310 54635.585 -67520.33 54310.729 -68006.511 54196.655 -68580 54310.729 -69153.489 54635.585 -69639.67 54950.365 -69850 54635.585 -70060.33 54310.729 -70546.511 54196.655 -71120 54310.729 -71693.489 54635.585 -72179.67 55121.766 -72504.526 55695.255 -72618.6 56064.745 -72618.6 56638.234 -72504.526 57124.415 -72179.67 57238.453 -72009 62025.742 -72009 62103.778 -72125.789 62565.238 -72434.126 63109.567 -72542.4 63890.433 -72542.4 64434.762 -72434.126 64896.222 -72125.789 65204.559 -71664.329 65312.833 -71120 65312.833 -74499 53162.737 -74499 53162.737 -68711.734 53129.97 -68283.534 53029.145 -68040.121 52865.033 -67964.572 52685.428 -68144.177 52685.428 -67784.967 52609.879 -67620.855 52201.734 -67487.263 51773.534 -67520.03 51530.121 -67620.855 51454.572 -67784.967 52070 -68400.395 52685.428 -67784.967 52685.428 -68144.177 52249.605 -68580 52865.033 -69195.428 53029.145 -69119.879 53162.737 -68711.734 53162.737 -74499 52685.428 -74499 52685.428 -69375.033 52070 -68759.605 51890.395 -68939.21 51890.395 -68580 51274.967 -67964.572 51110.855 -68040.121 50977.263 -68448.266 51010.03 -68876.466 51110.855 -69119.879 51274.967 -69195.428 51890.395 -68580 51890.395 -68939.21 51454.572 -69375.033 51530.121 -69539.145 51938.266 -69672.737 52366.466 -69639.97 52609.879 -69539.145 52685.428 -69375.033 52685.428 -74499 51003.455 -74499 51003.455 -70828.248 50779.647 -70286.589 50365.591 -69871.81 49824.323 -69647.056 49238.248 -69646.545 48696.589 -69870.353 48281.81 -70284.409 48260.224 -70336.391 48239.647 -70286.589 47825.591 -69871.81 47284.323 -69647.056 46698.248 -69646.545 46156.589 -69870.353 46084.41 -69942.405 46084.774 -69526.306 45842.709 -68940.463 45842.709 -59893.751 45814.667 -59345.275 45658.723 -58968.791 45463.372 -58856.233 45283.767 -59035.838 45283.767 -58676.628 45171.209 -58481.277 44653.751 -58297.291 44105.275 -58325.333 43728.791 -58481.277 43616.233 -58676.628 44450 -59510.395 45283.767 -58676.628 45283.767 -59035.838 44629.605 -59690 45463.372 -60523.767 45658.723 -60411.209 45842.709 -59893.751 45842.709 -68940.463 45836.462 -68925.345 45377.073 -68465.154 45283.767 -68426.409 45283.767 -60703.372 44450 -59869.605 44270.395 -60049.21 44270.395 -59690 43436.628 -58856.233 43241.277 -58968.791 43057.291 -59486.249 43085.333 -60034.725 43241.277 -60411.209 43436.628 -60523.767 44270.395 -59690 44270.395 -60049.21 43616.233 -60703.372 43728.791 -60898.723 44246.249 -61082.709 44794.725 -61054.667 45171.209 -60898.723 45283.767 -60703.372 45283.767 -68426.409 44776.547 -68215.794 44126.306 -68215.226 43525.345 -68463.538 43065.154 -68922.927 43002.737 -69073.243 43002.737 -54741.734 42969.97 -54313.534 42869.145 -54070.121 42705.033 -53994.572 42525.428 -54174.177 42525.428 -53814.967 42449.879 -53650.855 42041.734 -53517.263 41613.534 -53550.03 41370.121 -53650.855 41294.572 -53814.967 41910 -54430.395 42525.428 -53814.967 42525.428 -54174.177 42089.605 -54610 42705.033 -55225.428 42869.145 -55149.879 43002.737 -54741.734 43002.737 -69073.243 42815.794 -69523.453 42815.226 -70173.694 43063.538 -70774.655 43522.927 -71234.846 44123.453 -71484.206 44773.694 -71484.774 44811.794 -71469.03 45091.382 -71748.618 45379.794 -71941.329 45379.795 -71941.329 45720 -72009 45795.845 -72009 46154.409 -72368.19 46695.677 -72592.944 47281.752 -72593.455 47823.411 -72369.647 48238.19 -71955.591 48259.775 -71903.608 48280.353 -71953.411 48694.409 -72368.19 49235.677 -72592.944 49821.752 -72593.455 50363.411 -72369.647 50778.19 -71955.591 51002.944 -71414.323 51003.455 -70828.248 51003.455 -74499 42525.428 -74499 42525.428 -55405.033 41910 -54789.605 41730.395 -54969.21 41730.395 -54610 41114.967 -53994.572 40950.855 -54070.121 40817.263 -54478.266 40850.03 -54906.466 40950.855 -55149.879 41114.967 -55225.428 41730.395 -54610 41730.395 -54969.21 41294.572 -55405.033 41370.121 -55569.145 41778.266 -55702.737 42206.466 -55669.97 42449.879 -55569.145 42525.428 -55405.033 42525.428 -74499 36046.635 -74499 36767.8 -74201.02 37368.909 -73600.959 37694.628 -72816.541 37695.37 -71967.185 37397.196 -71245.551 37915.255 -71348.6 38284.745 -71348.6 38858.234 -71234.526 39344.415 -70909.67 39370 -70871.379 39395.585 -70909.67 39881.766 -71234.526 40455.255 -71348.6 40824.745 -71348.6 41398.234 -71234.526 41884.415 -70909.67 42209.271 -70423.489 42323.345 -69850 42209.271 -69276.511 41884.415 -68790.33 41569.634 -68580 41884.415 -68369.67 42209.271 -67883.489 42323.345 -67310 42209.271 -66736.511 41884.415 -66250.33 41569.634 -66040 41884.415 -65829.67 42209.271 -65343.489 42323.345 -64770 42209.271 -64196.511 41884.415 -63710.33 41569.634 -63500 41884.415 -63289.67 42209.271 -62803.489 42323.345 -62230 42209.271 -61656.511 41884.415 -61170.33 41569.634 -60960 41884.415 -60749.67 42209.271 -60263.489 42323.345 -59690 42209.271 -59116.511 41884.415 -58630.33 41398.234 -58305.474 40824.745 -58191.4 40455.255 -58191.4 39881.766 -58305.474 39455.393 -58590.367 39455.393 -51119.118 39455.393 -50480.882 39455.393 -48579.118 39394.712 -48387 38227 -48387 38227 -49410.643 38422.213 -49494.527 38881.72 -49335.57 39245.419 -49012.867 39455.393 -48579.118 39455.393 -50480.882 39245.419 -50047.133 38881.72 -49724.43 38422.213 -49565.473 38227 -49649.357 38227 -50673 39394.712 -50673 39455.393 -50480.882 39455.393 -51119.118 39394.712 -50927 38227 -50927 38227 -51950.643 38422.213 -52034.527 38881.72 -51875.57 39245.419 -51552.867 39455.393 -51119.118 39455.393 -58590.367 39395.585 -58630.33 39370 -58668.62 39344.415 -58630.33 38858.234 -58305.474 38284.745 -58191.4 37973 -58191.4 37973 -51950.643 37973 -50927 37973 -50673 37973 -49649.357 37973 -49410.643 37973 -48387 36805.288 -48387 36744.607 -48579.118 36954.581 -49012.867 37318.28 -49335.57 37777.787 -49494.527 37973 -49410.643 37973 -49649.357 37777.787 -49565.473 37318.28 -49724.43 36954.581 -50047.133 36744.607 -50480.882 36805.288 -50673 37973 -50673 37973 -50927 36805.288 -50927 36744.607 -51119.118 36954.581 -51552.867 37318.28 -51875.57 37777.787 -52034.527 37973 -51950.643 37973 -58191.4 37915.255 -58191.4 37341.766 -58305.474 36855.585 -58630.33 36530.729 -59116.511 36416.655 -59690 36530.729 -60263.489 36855.585 -60749.67 37170.365 -60960 36855.585 -61170.33 36530.729 -61656.511 36416.655 -62230 36530.729 -62803.489 36855.585 -63289.67 37170.365 -63500 36855.585 -63710.33 36530.729 -64196.511 36416.655 -64770 36530.729 -65343.489 36855.585 -65829.67 37170.365 -66040 36855.585 -66250.33 36530.729 -66736.511 36416.655 -67310 36530.729 -67883.489 36855.585 -68369.67 37170.365 -68580 36855.585 -68790.33 36530.729 -69276.511 36416.655 -69850 36530.729 -70423.489 36584.225 -70503.552 35986.541 -70255.372 35137.185 -70254.63 34352.2 -70578.98 33751.091 -71179.041 33451 -71901.739 33451 -24561 80849 -24561 80849 -26683.364 80551.02 -25962.2 79950.959 -25361.091 79166.541 -25035.372 78317.185 -25034.63 77532.2 -25358.98 76931.091 -25959.041 76605.372 -26743.459 76604.63 -27592.815 76928.98 -28377.8 77529.041 -28978.909 77843.905 -29109.652 77540.222 -29312.567 77182.33 -29848.19 77056.655 -30480 77182.33 -31111.81 77540.222 -31647.433 77912.756 -31896.353 77904.801 -31900.142 77539.826 -32305.003 77385.78 -32676.93 77444.46 -32893 78613 -32893 78613 -32873 78867 -32873 78867 -32893 80035.54 -32893 80094.22 -32676.93 79940.174 -32305.003 79575.199 -31900.142 79567.243 -31896.353 79939.778 -31647.433 80297.67 -31111.81 80423.345 -30480 80297.67 -29848.19 79939.778 -29312.567 79636.244 -29109.752 79947.8 -28981.02 80548.909 -28380.959 80849 -27658.26 80849 -74499 80849 -74499"/><path d="M 80849 -74499 80423.345 -74499 80423.345 -71120 80309.271 -70546.511 79984.415 -70060.33 79669.634 -69850 79984.415 -69639.67 80309.271 -69153.489 80423.345 -68580 80309.271 -68006.511 79984.415 -67520.33 79669.634 -67310 79984.415 -67099.67 80309.271 -66613.489 80423.345 -66040 80309.271 -65466.511 79984.415 -64980.33 79669.634 -64770 79984.415 -64559.67 80309.271 -64073.489 80423.345 -63500 80309.271 -62926.511 79984.415 -62440.33 79669.634 -62230 79984.415 -62019.67 80309.271 -61533.489 80423.345 -60960 80309.271 -60386.511 79984.415 -59900.33 79669.634 -59690 79984.415 -59479.67 80309.271 -58993.489 80423.345 -58420 80309.271 -57846.511 79984.415 -57360.33 79669.634 -57150 79984.415 -56939.67 80309.271 -56453.489 80423.345 -55880 80423.345 -50800 80309.271 -50226.511 79984.415 -49740.33 79669.634 -49530 79984.415 -49319.67 80309.271 -48833.489 80423.345 -48260 80309.271 -47686.511 79984.415 -47200.33 79669.634 -46990 79984.415 -46779.67 80309.271 -46293.489 80423.345 -45720 80309.271 -45146.511 79984.415 -44660.33 79669.634 -44450 79984.415 -44239.67 80309.271 -43753.489 80423.345 -43180 80309.271 -42606.511 79984.415 -42120.33 79669.634 -41910 79984.415 -41699.67 80309.271 -41213.489 80423.345 -40640 80309.271 -40066.511 79984.415 -39580.33 79669.634 -39370 79984.415 -39159.67 80309.271 -38673.489 80423.345 -38100 80309.271 -37526.511 80094.22 -37204.664 80094.22 -33363.07 80035.54 -33147 78867 -33147 78867 -34315.976 79083.072 -34374.231 79575.199 -34139.858 79940.174 -33734.997 80094.22 -33363.07 80094.22 -37204.664 79984.415 -37040.33 79498.234 -36715.474 78924.745 -36601.4 78613 -36601.4 78613 -34315.976 78613 -33147 77444.46 -33147 77385.78 -33363.07 77539.826 -33734.997 77904.801 -34139.858 78396.928 -34374.231 78613 -34315.976 78613 -36601.4 78555.255 -36601.4 77981.766 -36715.474 77495.585 -37040.33 77381.546 -37211 74024.774 -37211 74024.774 -33966.306 73776.462 -33365.345 73317.073 -32905.154 72716.547 -32655.794 72066.306 -32655.226 71465.345 -32903.538 71147.44 -33220.888 71147.44 -31130 71147.44 -29830 71100.463 -29587.877 70960.673 -29375.073 70894.314 -29330.279 70894.314 -28100.11 70860.784 -27691.326 70768.856 -27469.392 70609.768 -27399.837 70430.163 -27579.442 70430.163 -27220.232 70360.608 -27061.144 69970.11 -26935.686 69561.326 -26969.216 69339.392 -27061.144 69269.837 -27220.232 69850 -27800.395 70430.163 -27220.232 70430.163 -27579.442 70029.605 -27980 70609.768 -28560.163 70768.856 -28490.608 70894.314 -28100.11 70894.314 -29330.279 70749.64 -29232.623 70500 -29182.56 70430.163 -29182.56 70430.163 -28739.768 69850 -28159.605 69670.395 -28339.21 69670.395 -27980 69090.232 -27399.837 68931.144 -27469.392 68805.686 -27859.89 68839.216 -28268.674 68931.144 -28490.608 69090.232 -28560.163 69670.395 -27980 69670.395 -28339.21 69269.837 -28739.768 69339.392 -28898.856 69729.89 -29024.314 70138.674 -28990.784 70360.608 -28898.856 70430.163 -28739.768 70430.163 -29182.56 69200 -29182.56 68957.877 -29229.537 68745.073 -29369.327 68602.623 -29580.36 68552.56 -29830 68552.56 -31130 68599.537 -31372.123 68739.327 -31584.927 68950.36 -31727.377 69200 -31777.44 70500 -31777.44 70742.123 -31730.463 70954.927 -31590.673 71097.377 -31379.64 71147.44 -31130 71147.44 -33220.888 71005.154 -33362.927 70755.794 -33963.453 70755.226 -34613.694 71003.538 -35214.655 71462.927 -35674.846 72063.453 -35924.206 72713.694 -35924.774 73314.655 -35676.462 73774.846 -35217.073 74024.206 -34616.547 74024.774 -33966.306 74024.774 -37211 72594.257 -37211 72516.222 -37094.211 72054.762 -36785.874 71510.433 -36677.6 70729.567 -36677.6 70185.238 -36785.874 69723.778 -37094.211 69415.441 -37555.671 69307.167 -38100 69415.441 -38644.329 69723.778 -39105.789 70119.198 -39370 69723.778 -39634.211 69415.441 -40095.671 69307.167 -40640 69415.441 -41184.329 69723.778 -41645.789 70119.198 -41910 69723.778 -42174.211 69415.441 -42635.671 69307.167 -43180 69415.441 -43724.329 69723.778 -44185.789 70119.198 -44450 69723.778 -44714.211 69415.441 -45175.671 69307.167 -45720 69415.441 -46264.329 69723.778 -46725.789 70119.198 -46990 69723.778 -47254.211 69415.441 -47715.671 69307.167 -48260 69415.441 -48804.329 69723.778 -49265.789 70119.198 -49530 69723.778 -49794.211 69415.441 -50255.671 69307.167 -50800 69415.441 -51344.329 69723.778 -51805.789 70185.238 -52114.126 70574.151 -52191.485 70199.94 -52309.14 69848.414 -52603.619 69637.09 -53032.869 69698.791 -53213 70993 -53213 70993 -53193 71247 -53193 71247 -53213 72541.209 -53213 72602.91 -53032.869 72391.586 -52603.619 72040.06 -52309.14 71665.848 -52191.485 72054.762 -52114.126 72516.222 -51805.789 72594.257 -51689 77381.546 -51689 77495.585 -51859.67 77981.766 -52184.526 78113.509 -52210.731 77958.28 -52264.43 77594.581 -52587.133 77384.607 -53020.882 77445.288 -53213 78613 -53213 78613 -53193 78867 -53193 78867 -53213 80034.712 -53213 80095.393 -53020.882 79885.419 -52587.133 79521.72 -52264.43 79366.49 -52210.731 79498.234 -52184.526 79984.415 -51859.67 80309.271 -51373.489 80423.345 -50800 80423.345 -55880 80309.271 -55306.511 79984.415 -54820.33 79498.234 -54495.474 79366.49 -54469.268 79521.72 -54415.57 79885.419 -54092.867 80095.393 -53659.118 80034.712 -53467 78867 -53467 78867 -53487 78613 -53487 78613 -53467 77445.288 -53467 77384.607 -53659.118 77594.581 -54092.867 77958.28 -54415.57 78113.509 -54469.268 77981.766 -54495.474 77495.585 -54820.33 77381.546 -54991 72594.257 -54991 72516.222 -54874.211 72054.762 -54565.874 71665.848 -54488.514 72040.06 -54370.86 72391.586 -54076.381 72602.91 -53647.131 72541.209 -53467 71247 -53467 71247 -53487 70993 -53487 70993 -53467 69698.791 -53467 69637.09 -53647.131 69848.414 -54076.381 70199.94 -54370.86 70574.151 -54488.514 70185.238 -54565.874 69723.778 -54874.211 69415.441 -55335.671 69307.167 -55880 69415.441 -56424.329 69723.778 -56885.789 70119.198 -57150 69723.778 -57414.211 69415.441 -57875.671 69307.167 -58420 69415.441 -58964.329 69723.778 -59425.789 70119.198 -59690 69723.778 -59954.211 69415.441 -60415.671 69307.167 -60960 69415.441 -61504.329 69723.778 -61965.789 70119.198 -62230 69723.778 -62494.211 69415.441 -62955.671 69307.167 -63500 69415.441 -64044.329 69723.778 -64505.789 70119.198 -64770 69723.778 -65034.211 69415.441 -65495.671 69307.167 -66040 69415.441 -66584.329 69723.778 -67045.789 70119.198 -67310 69723.778 -67574.211 69415.441 -68035.671 69307.167 -68580 69415.441 -69124.329 69723.778 -69585.789 70119.198 -69850 69723.778 -70114.211 69415.441 -70575.671 69307.167 -71120 69415.441 -71664.329 69723.778 -72125.789 70185.238 -72434.126 70729.567 -72542.4 71510.433 -72542.4 72054.762 -72434.126 72516.222 -72125.789 72594.257 -72009 77381.546 -72009 77495.585 -72179.67 77981.766 -72504.526 78555.255 -72618.6 78924.745 -72618.6 79498.234 -72504.526 79984.415 -72179.67 80309.271 -71693.489 80423.345 -71120 80423.345 -74499 65312.833 -74499 65312.833 -71120 65204.559 -70575.671 64896.222 -70114.211 64500.801 -69850 64896.222 -69585.789 65204.559 -69124.329 65312.833 -68580 65204.559 -68035.671 64896.222 -67574.211 64500.801 -67310 64896.222 -67045.789 65204.559 -66584.329 65312.833 -66040 65204.559 -65495.671 64896.222 -65034.211 64500.801 -64770 64896.222 -64505.789 65204.559 -64044.329 65312.833 -63500 65204.559 -62955.671 64896.222 -62494.211 64500.801 -62230 64896.222 -61965.789 65204.559 -61504.329 65312.833 -60960 65204.559 -60415.671 64896.222 -59954.211 64500.801 -59690 64896.222 -59425.789 65204.559 -58964.329 65312.833 -58420 65312.833 -53340 65204.559 -52795.671 64896.222 -52334.211 64500.801 -52070 64896.222 -51805.789 65204.559 -51344.329 65312.833 -50800 65204.559 -50255.671 64896.222 -49794.211 64500.801 -49530 64896.222 -49265.789 65204.559 -48804.329 65312.833 -48260 65204.559 -47715.671 64896.222 -47254.211 64500.801 -46990 64896.222 -46725.789 65204.559 -46264.329 65312.833 -45720 65204.559 -45175.671 64896.222 -44714.211 64500.801 -44450 64896.222 -44185.789 65204.559 -43724.329 65312.833 -43180 65204.559 -42635.671 64896.222 -42174.211 64500.801 -41910 64896.222 -41645.789 65204.559 -41184.329 65312.833 -40640 65204.559 -40095.671 64896.222 -39634.211 64723.986 -39519.126 64885.123 -39487.863 65097.927 -39348.073 65240.377 -39137.04 65290.44 -38887.4 65290.44 -37312.6 65243.463 -37070.477 65103.673 -36857.673 64892.64 -36715.223 64643 -36665.16 63876.93 -36665.16 63876.93 -35289.49 63876.93 -33290.51 63829.953 -33048.387 63690.163 -32835.583 63479.13 -32693.133 63229.49 -32643.07 62257.44 -32643.07 62257.44 -28590 62257.44 -27290 62210.463 -27047.877 62070.673 -26835.073 61859.64 -26692.623 61610 -26642.56 60310 -26642.56 60067.877 -26689.537 59855.073 -26829.327 59712.623 -27040.36 59662.56 -27290 59662.56 -28590 59709.537 -28832.123 59849.327 -29044.927 60060.36 -29187.377 60310 -29237.44 61610 -29237.44 61852.123 -29190.463 62064.927 -29050.673 62207.377 -28839.64 62257.44 -28590 62257.44 -32643.07 62004.314 -32643.07 62004.314 -30560.11 61970.784 -30151.326 61878.856 -29929.392 61719.768 -29859.837 61540.163 -30039.442 61540.163 -29680.232 61470.608 -29521.144 61080.11 -29395.686 60671.326 -29429.216 60449.392 -29521.144 60379.837 -29680.232 60960 -30260.395 61540.163 -29680.232 61540.163 -30039.442 61139.605 -30440 61719.768 -31020.163 61878.856 -30950.608 62004.314 -30560.11 62004.314 -32643.07 61540.163 -32643.07 61540.163 -31199.768 60960 -30619.605 60780.395 -30799.21 60780.395 -30440 60200.232 -29859.837 60041.144 -29929.392 59915.686 -30319.89 59949.216 -30728.674 60041.144 -30950.608 60200.232 -31020.163 60780.395 -30440 60780.395 -30799.21 60379.837 -31199.768 60449.392 -31358.856 60839.89 -31484.314 61248.674 -31450.784 61470.608 -31358.856 61540.163 -31199.768 61540.163 -32643.07 61230.51 -32643.07 60988.387 -32690.047 60775.583 -32829.837 60633.133 -33040.87 60583.07 -33290.51 60583.07 -35289.49 60630.047 -35531.613 60769.837 -35744.417 60980.87 -35886.867 61230.51 -35936.93 63229.49 -35936.93 63471.613 -35889.953 63684.417 -35750.163 63826.867 -35539.13 63876.93 -35289.49 63876.93 -36665.16 62357 -36665.16 62114.877 -36712.137 61902.073 -36851.927 61759.623 -37062.96 61729.934 -37211 57538.511 -37211 57496.463 -36994.277 57404.264 -36853.921 57404.264 -32718.188 57404.264 -27638.188 57172.738 -27077.851 56744.404 -26648.769 56184.472 -26416.265 55578.188 -26415.736 55017.851 -26647.262 54588.769 -27075.596 54356.265 -27635.528 54355.736 -28241.812 54587.262 -28802.149 54994.402 -29210 54915.214 -29210 54775.18 -29268.004 54668.004 -29375.181 54610 -29515.215 54610 -29666.786 54610 -30257.75 54705.25 -30353 55753 -30353 55753 -30333 56007 -30333 56007 -30353 57054.75 -30353 57150 -30257.75 57150 -29666.786 57150 -29515.215 57091.996 -29375.181 56984.82 -29268.004 56844.786 -29210 56764.926 -29210 57171.231 -28804.404 57403.735 -28244.472 57404.264 -27638.188 57404.264 -32718.188 57172.738 -32157.851 56765.597 -31750 56844.786 -31750 56984.82 -31691.996 57091.996 -31584.819 57150 -31444.785 57150 -31293.214 57150 -30702.25 57054.75 -30607 56007 -30607 56007 -30627 55753 -30627 55753 -30607 54705.25 -30607 54610 -30702.25 54610 -31293.214 54610 -31444.785 54668.004 -31584.819 54775.18 -31691.996 54915.214 -31750 54995.073 -31750 54588.769 -32155.596 54356.265 -32715.528 54355.736 -33321.812 54587.262 -33882.149 55015.596 -34311.231 55575.528 -34543.735 56181.812 -34544.264 56742.149 -34312.738 57171.231 -33884.404 57403.735 -33324.472 57404.264 -32718.188 57404.264 -36853.921 57356.673 -36781.473 57145.64 -36639.023 56896 -36588.96 54864 -36588.96 54621.877 -36635.937 54409.073 -36775.727 54266.623 -36986.76 54221.653 -37211 53471.194 -37211 53456.462 -37175.345 52997.073 -36715.154 52396.547 -36465.794 51746.306 -36465.226 51145.345 -36713.538 50685.154 -37172.927 50669.344 -37211 47986.76 -37211 47746.353 -36970.173 47256.413 -36766.732 46725.914 -36766.269 46235.62 -36968.854 45860.173 -37343.647 45656.732 -37833.587 45656.269 -38364.086 45858.854 -38854.38 46233.647 -39229.827 46723.587 -39433.268 47254.086 -39433.731 47744.38 -39231.146 47986.948 -38989 50668.805 -38989 50683.538 -39024.655 51142.927 -39484.846 51743.453 -39734.206 52393.694 -39734.774 52994.655 -39486.462 53454.846 -39027.073 53470.655 -38989 54221.488 -38989 54263.537 -39205.723 54403.327 -39418.527 54614.36 -39560.977 54652.962 -39568.718 54635.585 -39580.33 54521.546 -39751 45087.863 -39751 45062.286 -39725.378 44665.668 -39560.687 44462.44 -39560.51 44462.44 -34925 44462.44 -26035 44415.463 -25792.877 44275.673 -25580.073 44064.64 -25437.623 43815 -25387.56 34925 -25387.56 34682.877 -25434.537 34470.073 -25574.327 34327.623 -25785.36 34277.56 -26035 34277.56 -34925 34324.537 -35167.123 34464.327 -35379.927 34675.36 -35522.377 34925 -35572.44 43815 -35572.44 44057.123 -35525.463 44269.927 -35385.673 44412.377 -35174.64 44462.44 -34925 44462.44 -39560.51 44236.216 -39560.313 43839.311 -39724.311 43535.378 -40027.714 43370.687 -40424.332 43370.322 -40843.086 42538.618 -40011.382 42250.206 -39818.671 41910 -39751 39458.453 -39751 39344.415 -39580.33 39328.632 -39569.784 39358.123 -39564.063 39570.927 -39424.273 39713.377 -39213.24 39758.346 -38989 40913.239 -38989 41153.647 -39229.827 41643.587 -39433.268 42174.086 -39433.731 42664.38 -39231.146 43039.827 -38856.353 43243.268 -38366.413 43243.731 -37835.914 43041.146 -37345.62 42666.353 -36970.173 42176.413 -36766.732 41645.914 -36766.269 41155.62 -36968.854 40913.051 -37211 39758.511 -37211 39716.463 -36994.277 39576.673 -36781.473 39365.64 -36639.023 39116 -36588.96 37084 -36588.96 36841.877 -36635.937 36629.073 -36775.727 36486.623 -36986.76 36436.56 -37236.4 36436.56 -38963.6 36483.537 -39205.723 36623.327 -39418.527 36834.36 -39560.977 36872.962 -39568.718 36855.585 -39580.33 36530.729 -40066.511 36416.655 -40640 36530.729 -41213.489 36855.585 -41699.67 37170.365 -41910 36855.585 -42120.33 36530.729 -42606.511 36416.655 -43180 36530.729 -43753.489 36855.585 -44239.67 37170.365 -44450 36855.585 -44660.33 36530.729 -45146.511 36416.655 -45720 36530.729 -46293.489 36855.585 -46779.67 37341.766 -47104.526 37473.509 -47130.731 37318.28 -47184.43 36954.581 -47507.133 36744.607 -47940.882 36805.288 -48133 37973 -48133 37973 -48113 38227 -48113 38227 -48133 39394.712 -48133 39455.393 -47940.882 39245.419 -47507.133 38881.72 -47184.43 38726.49 -47130.731 38858.234 -47104.526 39344.415 -46779.67 39669.271 -46293.489 39783.345 -45720 39669.271 -45146.511 39344.415 -44660.33 39029.634 -44450 39344.415 -44239.67 39669.271 -43753.489 39783.345 -43180 39669.271 -42606.511 39344.415 -42120.33 39029.634 -41910 39344.415 -41699.67 39458.453 -41529 41541.764 -41529 43821.382 -43808.618 44109.794 -44001.329 44450 -44069 54521.546 -44069 54635.585 -44239.67 54950.365 -44450 54635.585 -44660.33 54310.729 -45146.511 54196.655 -45720 54310.729 -46293.489 54635.585 -46779.67 54950.365 -46990 54635.585 -47200.33 54310.729 -47686.511 54196.655 -48260 54310.729 -48833.489 54635.585 -49319.67 54950.365 -49530 54635.585 -49740.33 54310.729 -50226.511 54196.655 -50800 54310.729 -51373.489 54635.585 -51859.67 54950.365 -52070 54635.585 -52280.33 54310.729 -52766.511 54196.655 -53340 54310.729 -53913.489 54635.585 -54399.67 55121.766 -54724.526 55253.509 -54750.731 55098.28 -54804.43 54734.581 -55127.133 54524.607 -55560.882 54585.288 -55753 55753 -55753 55753 -55733 56007 -55733 56007 -55753 57174.712 -55753 57235.393 -55560.882 57025.419 -55127.133 56661.72 -54804.43 56506.49 -54750.731 56638.234 -54724.526 57124.415 -54399.67 57449.271 -53913.489 57563.345 -53340 57449.271 -52766.511 57124.415 -52280.33 56809.634 -52070 57124.415 -51859.67 57238.453 -51689 62025.742 -51689 62103.778 -51805.789 62499.198 -52070 62103.778 -52334.211 61795.441 -52795.671 61687.167 -53340 61795.441 -53884.329 62103.778 -54345.789 62565.238 -54654.126 62954.151 -54731.485 62579.94 -54849.14 62228.414 -55143.619 62017.09 -55572.869 62078.791 -55753 63373 -55753 63373 -55733 63627 -55733 63627 -55753 64921.209 -55753 64982.91 -55572.869 64771.586 -55143.619 64420.06 -54849.14 64045.848 -54731.485 64434.762 -54654.126 64896.222 -54345.789 65204.559 -53884.329 65312.833 -53340 65312.833 -58420 65204.559 -57875.671 64896.222 -57414.211 64434.762 -57105.874 64045.848 -57028.514 64420.06 -56910.86 64771.586 -56616.381 64982.91 -56187.131 64921.209 -56007 63627 -56007 63627 -56027 63373 -56027 63373 -56007 62078.791 -56007 62017.09 -56187.131 62228.414 -56616.381 62579.94 -56910.86 62954.151 -57028.514 62565.238 -57105.874 62103.778 -57414.211 62025.742 -57531 57235.393 -57531 57235.393 -56199.118 57174.712 -56007 56007 -56007 56007 -57030.643 56202.213 -57114.527 56661.72 -56955.57 57025.419 -56632.867 57235.393 -56199.118 57235.393 -57531 55753 -57531 55753 -57030.643 55753 -56007 54585.288 -56007 54524.607 -56199.118 54734.581 -56632.867 55098.28 -56955.57 55557.787 -57114.527 55753 -57030.643 55753 -57531 54610 -57531 54269.794 -57598.671 53981.382 -57791.382 53704.774 -58067.989 53704.774 -47936.306 53456.462 -47335.345 52997.073 -46875.154 52396.547 -46625.794 51746.306 -46625.226 51145.345 -46873.538 50685.154 -47332.927 50435.794 -47933.453 50435.256 -48549.335 50286.353 -48400.173 49796.413 -48196.732 49265.914 -48196.269 48775.62 -48398.854 48533.051 -48641 42906.76 -48641 42666.353 -48400.173 42176.413 -48196.732 41645.914 -48196.269 41155.62 -48398.854 40780.173 -48773.647 40576.732 -49263.587 40576.269 -49794.086 40778.854 -50284.38 41153.647 -50659.827 41643.587 -50863.268 42174.086 -50863.731 42664.38 -50661.146 42906.948 -50419 48533.239 -50419 48773.647 -50659.827 49263.587 -50863.268 49794.086 -50863.731 50284.38 -50661.146 50659.827 -50286.353 50863.268 -49796.413 50863.644 -49365.075 51142.927 -49644.846 51743.453 -49894.206 52393.694 -49894.774 52994.655 -49646.462 53454.846 -49187.073 53704.206 -48586.547 53704.774 -47936.306 53704.774 -58067.989 53134.372 -58638.391 53162.737 -58551.734 53129.97 -58123.534 53029.145 -57880.121 52865.033 -57804.572 52685.428 -57984.177 52685.428 -57624.967 52609.879 -57460.855 52201.734 -57327.263 51773.534 -57360.03 51530.121 -57460.855 51454.572 -57624.967 52070 -58240.395 52685.428 -57624.967 52685.428 -57984.177 52249.605 -58420 52263.747 -58434.142 52084.142 -58613.747 52070 -58599.605 51890.395 -58779.21 51890.395 -58420 51274.967 -57804.572 51110.855 -57880.121 50977.263 -58288.266 51010.03 -58716.466 51110.855 -58959.879 51274.967 -59035.428 51890.395 -58420 51890.395 -58779.21 51454.572 -59215.033 51530.121 -59379.145 51938.266 -59512.737 52286.689 -59486.074 52146.198 -59626.565 51805.914 -59626.269 51315.62 -59828.854 51073.051 -60071 50622.737 -60071 50622.737 -54741.734 50589.97 -54313.534 50489.145 -54070.121 50325.033 -53994.572 50145.428 -54174.177 50145.428 -53814.967 50069.879 -53650.855 49661.734 -53517.263 49233.534 -53550.03 48990.121 -53650.855 48914.572 -53814.967 49530 -54430.395 50145.428 -53814.967 50145.428 -54174.177 49709.605 -54610 50325.033 -55225.428 50489.145 -55149.879 50622.737 -54741.734 50622.737 -60071 50125.521 -60071 50181.603 -59789.06 50145.428 -59607.195 50145.428 -55405.033 49530 -54789.605 49350.395 -54969.21 49350.395 -54610 48734.967 -53994.572 48570.855 -54070.121 48437.263 -54478.266 48470.03 -54906.466 48570.855 -55149.879 48734.967 -55225.428 49350.395 -54610 49350.395 -54969.21 48914.572 -55405.033 48990.121 -55569.145 49398.266 -55702.737 49826.466 -55669.97 50069.879 -55569.145 50145.428 -55405.033 50145.428 -59607.195 50057.185 -59163.568 49702.872 -58633.301 49172.605 -58278.988 48547.113 -58154.57 47972.887 -58154.57 47347.395 -58278.988 46817.128 -58633.301 46462.815 -59163.568 46338.397 -59789.06 46462.815 -60414.552 46817.128 -60944.819 47347.395 -61299.132 47972.887 -61423.55 48547.113 -61423.55 48704.923 -61392.159 48901.382 -61588.618 49189.794 -61781.329 49189.795 -61781.329 49530 -61849 51073.239 -61849 51313.647 -62089.827 51803.587 -62293.268 52019.307 -62293.456 51441.382 -62871.382 51248.671 -63159.794 51181 -63500 51181 -65043.239 51073.051 -65151 50086.113 -65151 50181.603 -64670.94 50057.185 -64045.448 49702.872 -63515.181 49172.605 -63160.868 48547.113 -63036.45 47972.887 -63036.45 47347.395 -63160.868 46817.128 -63515.181 46462.815 -64045.448 46338.397 -64670.94 46462.815 -65296.432 46817.128 -65826.699 47347.395 -66181.012 47972.887 -66305.43 48538.194 -66305.43 48901.382 -66668.618 49189.794 -66861.329 49189.795 -66861.329 49530 -66929 51073.239 -66929 51313.647 -67169.827 51803.587 -67373.268 52334.086 -67373.731 52824.38 -67171.146 53199.827 -66796.353 53403.268 -66306.413 53403.731 -65775.914 53201.146 -65285.62 52959 -65043.051 52959 -63868.236 54978.236 -61849 62025.742 -61849 62103.778 -61965.789 62499.198 -62230 62103.778 -62494.211 62025.742 -62611 57238.453 -62611 57124.415 -62440.33 56638.234 -62115.474 56064.745 -62001.4 55695.255 -62001.4 55121.766 -62115.474 54635.585 -62440.33 54310.729 -62926.511 54196.655 -63500 54310.729 -64073.489 54635.585 -64559.67 54950.365 -64770 54635.585 -64980.33 54310.729 -65466.511 54196.655 -66040 54310.729 -66613.489 54635.585 -67099.67 54950.365 -67310 54635.585 -67520.33 54310.729 -68006.511 54196.655 -68580 54310.729 -69153.489 54635.585 -69639.67 54950.365 -69850 54635.585 -70060.33 54310.729 -70546.511 54196.655 -71120 54310.729 -71693.489 54635.585 -72179.67 55121.766 -72504.526 55695.255 -72618.6 56064.745 -72618.6 56638.234 -72504.526 57124.415 -72179.67 57238.453 -72009 62025.742 -72009 62103.778 -72125.789 62565.238 -72434.126 63109.567 -72542.4 63890.433 -72542.4 64434.762 -72434.126 64896.222 -72125.789 65204.559 -71664.329 65312.833 -71120 65312.833 -74499 53162.737 -74499 53162.737 -68711.734 53129.97 -68283.534 53029.145 -68040.121 52865.033 -67964.572 52685.428 -68144.177 52685.428 -67784.967 52609.879 -67620.855 52201.734 -67487.263 51773.534 -67520.03 51530.121 -67620.855 51454.572 -67784.967 52070 -68400.395 52685.428 -67784.967 52685.428 -68144.177 52249.605 -68580 52865.033 -69195.428 53029.145 -69119.879 53162.737 -68711.734 53162.737 -74499 52685.428 -74499 52685.428 -69375.033 52070 -68759.605 51890.395 -68939.21 51890.395 -68580 51274.967 -67964.572 51110.855 -68040.121 50977.263 -68448.266 51010.03 -68876.466 51110.855 -69119.879 51274.967 -69195.428 51890.395 -68580 51890.395 -68939.21 51454.572 -69375.033 51530.121 -69539.145 51938.266 -69672.737 52366.466 -69639.97 52609.879 -69539.145 52685.428 -69375.033 52685.428 -74499 51003.455 -74499 51003.455 -70828.248 50779.647 -70286.589 50365.591 -69871.81 49824.323 -69647.056 49238.248 -69646.545 48696.589 -69870.353 48281.81 -70284.409 48260.224 -70336.391 48239.647 -70286.589 47825.591 -69871.81 47284.323 -69647.056 46698.248 -69646.545 46156.589 -69870.353 46084.41 -69942.405 46084.774 -69526.306 45842.709 -68940.463 45842.709 -59893.751 45814.667 -59345.275 45658.723 -58968.791 45463.372 -58856.233 45283.767 -59035.838 45283.767 -58676.628 45171.209 -58481.277 44653.751 -58297.291 44105.275 -58325.333 43728.791 -58481.277 43616.233 -58676.628 44450 -59510.395 45283.767 -58676.628 45283.767 -59035.838 44629.605 -59690 45463.372 -60523.767 45658.723 -60411.209 45842.709 -59893.751 45842.709 -68940.463 45836.462 -68925.345 45377.073 -68465.154 45283.767 -68426.409 45283.767 -60703.372 44450 -59869.605 44270.395 -60049.21 44270.395 -59690 43436.628 -58856.233 43241.277 -58968.791 43057.291 -59486.249 43085.333 -60034.725 43241.277 -60411.209 43436.628 -60523.767 44270.395 -59690 44270.395 -60049.21 43616.233 -60703.372 43728.791 -60898.723 44246.249 -61082.709 44794.725 -61054.667 45171.209 -60898.723 45283.767 -60703.372 45283.767 -68426.409 44776.547 -68215.794 44126.306 -68215.226 43525.345 -68463.538 43065.154 -68922.927 43002.737 -69073.243 43002.737 -54741.734 42969.97 -54313.534 42869.145 -54070.121 42705.033 -53994.572 42525.428 -54174.177 42525.428 -53814.967 42449.879 -53650.855 42041.734 -53517.263 41613.534 -53550.03 41370.121 -53650.855 41294.572 -53814.967 41910 -54430.395 42525.428 -53814.967 42525.428 -54174.177 42089.605 -54610 42705.033 -55225.428 42869.145 -55149.879 43002.737 -54741.734 43002.737 -69073.243 42815.794 -69523.453 42815.226 -70173.694 43063.538 -70774.655 43522.927 -71234.846 44123.453 -71484.206 44773.694 -71484.774 44811.794 -71469.03 45091.382 -71748.618 45379.794 -71941.329 45379.795 -71941.329 45720 -72009 45795.845 -72009 46154.409 -72368.19 46695.677 -72592.944 47281.752 -72593.455 47823.411 -72369.647 48238.19 -71955.591 48259.775 -71903.608 48280.353 -71953.411 48694.409 -72368.19 49235.677 -72592.944 49821.752 -72593.455 50363.411 -72369.647 50778.19 -71955.591 51002.944 -71414.323 51003.455 -70828.248 51003.455 -74499 42525.428 -74499 42525.428 -55405.033 41910 -54789.605 41730.395 -54969.21 41730.395 -54610 41114.967 -53994.572 40950.855 -54070.121 40817.263 -54478.266 40850.03 -54906.466 40950.855 -55149.879 41114.967 -55225.428 41730.395 -54610 41730.395 -54969.21 41294.572 -55405.033 41370.121 -55569.145 41778.266 -55702.737 42206.466 -55669.97 42449.879 -55569.145 42525.428 -55405.033 42525.428 -74499 36046.635 -74499 36767.8 -74201.02 37368.909 -73600.959 37694.628 -72816.541 37695.37 -71967.185 37397.196 -71245.551 37915.255 -71348.6 38284.745 -71348.6 38858.234 -71234.526 39344.415 -70909.67 39370 -70871.379 39395.585 -70909.67 39881.766 -71234.526 40455.255 -71348.6 40824.745 -71348.6 41398.234 -71234.526 41884.415 -70909.67 42209.271 -70423.489 42323.345 -69850 42209.271 -69276.511 41884.415 -68790.33 41569.634 -68580 41884.415 -68369.67 42209.271 -67883.489 42323.345 -67310 42209.271 -66736.511 41884.415 -66250.33 41569.634 -66040 41884.415 -65829.67 42209.271 -65343.489 42323.345 -64770 42209.271 -64196.511 41884.415 -63710.33 41569.634 -63500 41884.415 -63289.67 42209.271 -62803.489 42323.345 -62230 42209.271 -61656.511 41884.415 -61170.33 41569.634 -60960 41884.415 -60749.67 42209.271 -60263.489 42323.345 -59690 42209.271 -59116.511 41884.415 -58630.33 41398.234 -58305.474 40824.745 -58191.4 40455.255 -58191.4 39881.766 -58305.474 39455.393 -58590.367 39455.393 -51119.118 39455.393 -50480.882 39455.393 -48579.118 39394.712 -48387 38227 -48387 38227 -49410.643 38422.213 -49494.527 38881.72 -49335.57 39245.419 -49012.867 39455.393 -48579.118 39455.393 -50480.882 39245.419 -50047.133 38881.72 -49724.43 38422.213 -49565.473 38227 -49649.357 38227 -50673 39394.712 -50673 39455.393 -50480.882 39455.393 -51119.118 39394.712 -50927 38227 -50927 38227 -51950.643 38422.213 -52034.527 38881.72 -51875.57 39245.419 -51552.867 39455.393 -51119.118 39455.393 -58590.367 39395.585 -58630.33 39370 -58668.62 39344.415 -58630.33 38858.234 -58305.474 38284.745 -58191.4 37973 -58191.4 37973 -51950.643 37973 -50927 37973 -50673 37973 -49649.357 37973 -49410.643 37973 -48387 36805.288 -48387 36744.607 -48579.118 36954.581 -49012.867 37318.28 -49335.57 37777.787 -49494.527 37973 -49410.643 37973 -49649.357 37777.787 -49565.473 37318.28 -49724.43 36954.581 -50047.133 36744.607 -50480.882 36805.288 -50673 37973 -50673 37973 -50927 36805.288 -50927 36744.607 -51119.118 36954.581 -51552.867 37318.28 -51875.57 37777.787 -52034.527 37973 -51950.643 37973 -58191.4 37915.255 -58191.4 37341.766 -58305.474 36855.585 -58630.33 36530.729 -59116.511 36416.655 -59690 36530.729 -60263.489 36855.585 -60749.67 37170.365 -60960 36855.585 -61170.33 36530.729 -61656.511 36416.655 -62230 36530.729 -62803.489 36855.585 -63289.67 37170.365 -63500 36855.585 -63710.33 36530.729 -64196.511 36416.655 -64770 36530.729 -65343.489 36855.585 -65829.67 37170.365 -66040 36855.585 -66250.33 36530.729 -66736.511 36416.655 -67310 36530.729 -67883.489 36855.585 -68369.67 37170.365 -68580 36855.585 -68790.33 36530.729 -69276.511 36416.655 -69850 36530.729 -70423.489 36584.225 -70503.552 35986.541 -70255.372 35137.185 -70254.63 34352.2 -70578.98 33751.091 -71179.041 33451 -71901.739 33451 -24561 80849 -24561 80849 -26683.364 80551.02 -25962.2 79950.959 -25361.091 79166.541 -25035.372 78317.185 -25034.63 77532.2 -25358.98 76931.091 -25959.041 76605.372 -26743.459 76604.63 -27592.815 76928.98 -28377.8 77529.041 -28978.909 77843.905 -29109.652 77540.222 -29312.567 77182.33 -29848.19 77056.655 -30480 77182.33 -31111.81 77540.222 -31647.433 77912.756 -31896.353 77904.801 -31900.142 77539.826 -32305.003 77385.78 -32676.93 77444.46 -32893 78613 -32893 78613 -32873 78867 -32873 78867 -32893 80035.54 -32893 80094.22 -32676.93 79940.174 -32305.003 79575.199 -31900.142 79567.243 -31896.353 79939.778 -31647.433 80297.67 -31111.81 80423.345 -30480 80297.67 -29848.19 79939.778 -29312.567 79636.244 -29109.752 79947.8 -28981.02 80548.909 -28380.959 80849 -27658.26 80849 -74499" fill="none" stroke-width="254"/></g><g id="pcb-stackup_bottom_sm"><use xlink:href="#YZq9WjjjX_dT_pad-11" x="63500" y="-40640"/><use xlink:href="#YZq9WjjjX_dT_pad-11" x="63500" y="-43180"/><use xlink:href="#YZq9WjjjX_dT_pad-11" x="63500" y="-45720"/><use xlink:href="#YZq9WjjjX_dT_pad-11" x="63500" y="-48260"/><use xlink:href="#YZq9WjjjX_dT_pad-11" x="63500" y="-50800"/><use xlink:href="#YZq9WjjjX_dT_pad-11" x="63500" y="-53340"/><use xlink:href="#YZq9WjjjX_dT_pad-11" x="63500" y="-55880"/><use xlink:href="#YZq9WjjjX_dT_pad-11" x="63500" y="-58420"/><use xlink:href="#YZq9WjjjX_dT_pad-11" x="63500" y="-60960"/><use xlink:href="#YZq9WjjjX_dT_pad-11" x="63500" y="-63500"/><use xlink:href="#YZq9WjjjX_dT_pad-11" x="63500" y="-66040"/><use xlink:href="#YZq9WjjjX_dT_pad-11" x="63500" y="-68580"/><use xlink:href="#YZq9WjjjX_dT_pad-11" x="63500" y="-71120"/><use xlink:href="#YZq9WjjjX_dT_pad-12" x="63500" y="-38100"/><use xlink:href="#YZq9WjjjX_dT_pad-11" x="71120" y="-71120"/><use xlink:href="#YZq9WjjjX_dT_pad-11" x="71120" y="-68580"/><use xlink:href="#YZq9WjjjX_dT_pad-11" x="71120" y="-66040"/><use xlink:href="#YZq9WjjjX_dT_pad-11" x="71120" y="-63500"/><use xlink:href="#YZq9WjjjX_dT_pad-11" x="71120" y="-60960"/><use xlink:href="#YZq9WjjjX_dT_pad-11" x="71120" y="-58420"/><use xlink:href="#YZq9WjjjX_dT_pad-11" x="71120" y="-55880"/><use xlink:href="#YZq9WjjjX_dT_pad-11" x="71120" y="-53340"/><use xlink:href="#YZq9WjjjX_dT_pad-11" x="71120" y="-50800"/><use xlink:href="#YZq9WjjjX_dT_pad-11" x="71120" y="-48260"/><use xlink:href="#YZq9WjjjX_dT_pad-11" x="71120" y="-45720"/><use xlink:href="#YZq9WjjjX_dT_pad-11" x="71120" y="-43180"/><use xlink:href="#YZq9WjjjX_dT_pad-11" x="71120" y="-40640"/><use xlink:href="#YZq9WjjjX_dT_pad-11" x="71120" y="-38100"/><use xlink:href="#YZq9WjjjX_dT_pad-13" x="52070" y="-60960"/><use xlink:href="#YZq9WjjjX_dT_pad-13" x="52070" y="-58420"/><use xlink:href="#YZq9WjjjX_dT_pad-13" x="52070" y="-66040"/><use xlink:href="#YZq9WjjjX_dT_pad-13" x="52070" y="-68580"/><use xlink:href="#YZq9WjjjX_dT_pad-13" x="46990" y="-38100"/><use xlink:href="#YZq9WjjjX_dT_pad-13" x="41910" y="-38100"/><use xlink:href="#YZq9WjjjX_dT_pad-14" x="72390" y="-34290"/><use xlink:href="#YZq9WjjjX_dT_pad-15" x="62230" y="-34290"/><use xlink:href="#YZq9WjjjX_dT_pad-13" x="49530" y="-49530"/><use xlink:href="#YZq9WjjjX_dT_pad-13" x="49530" y="-54610"/><use xlink:href="#YZq9WjjjX_dT_pad-13" x="41910" y="-49530"/><use xlink:href="#YZq9WjjjX_dT_pad-13" x="41910" y="-54610"/><use xlink:href="#YZq9WjjjX_dT_pad-16" x="48260" y="-64670.94"/><use xlink:href="#YZq9WjjjX_dT_pad-16" x="48260" y="-59789.06"/><use xlink:href="#YZq9WjjjX_dT_pad-17" x="40640" y="-59690"/><use xlink:href="#YZq9WjjjX_dT_pad-17" x="40640" y="-62230"/><use xlink:href="#YZq9WjjjX_dT_pad-17" x="40640" y="-64770"/><use xlink:href="#YZq9WjjjX_dT_pad-17" x="40640" y="-67310"/><use xlink:href="#YZq9WjjjX_dT_pad-17" x="40640" y="-69850"/><use xlink:href="#YZq9WjjjX_dT_pad-17" x="38100" y="-59690"/><use xlink:href="#YZq9WjjjX_dT_pad-17" x="38100" y="-62230"/><use xlink:href="#YZq9WjjjX_dT_pad-17" x="38100" y="-64770"/><use xlink:href="#YZq9WjjjX_dT_pad-17" x="38100" y="-67310"/><use xlink:href="#YZq9WjjjX_dT_pad-17" x="38100" y="-69850"/><use xlink:href="#YZq9WjjjX_dT_pad-18" x="38100" y="-38100"/><use xlink:href="#YZq9WjjjX_dT_pad-17" x="38100" y="-40640"/><use xlink:href="#YZq9WjjjX_dT_pad-17" x="38100" y="-43180"/><use xlink:href="#YZq9WjjjX_dT_pad-17" x="38100" y="-45720"/><use xlink:href="#YZq9WjjjX_dT_pad-17" x="38100" y="-48260"/><use xlink:href="#YZq9WjjjX_dT_pad-17" x="38100" y="-50800"/><use xlink:href="#YZq9WjjjX_dT_pad-18" x="55880" y="-38100"/><use xlink:href="#YZq9WjjjX_dT_pad-17" x="55880" y="-40640"/><use xlink:href="#YZq9WjjjX_dT_pad-17" x="55880" y="-43180"/><use xlink:href="#YZq9WjjjX_dT_pad-17" x="55880" y="-45720"/><use xlink:href="#YZq9WjjjX_dT_pad-17" x="55880" y="-48260"/><use xlink:href="#YZq9WjjjX_dT_pad-17" x="55880" y="-50800"/><use xlink:href="#YZq9WjjjX_dT_pad-17" x="55880" y="-53340"/><use xlink:href="#YZq9WjjjX_dT_pad-17" x="55880" y="-55880"/><use xlink:href="#YZq9WjjjX_dT_pad-19" x="78740" y="-30480"/><use xlink:href="#YZq9WjjjX_dT_pad-19" x="78740" y="-33020"/><use xlink:href="#YZq9WjjjX_dT_pad-17" x="55880" y="-63500"/><use xlink:href="#YZq9WjjjX_dT_pad-17" x="55880" y="-66040"/><use xlink:href="#YZq9WjjjX_dT_pad-17" x="55880" y="-68580"/><use xlink:href="#YZq9WjjjX_dT_pad-17" x="55880" y="-71120"/><use xlink:href="#YZq9WjjjX_dT_pad-17" x="78740" y="-71120"/><use xlink:href="#YZq9WjjjX_dT_pad-17" x="78740" y="-68580"/><use xlink:href="#YZq9WjjjX_dT_pad-17" x="78740" y="-66040"/><use xlink:href="#YZq9WjjjX_dT_pad-17" x="78740" y="-63500"/><use xlink:href="#YZq9WjjjX_dT_pad-17" x="78740" y="-60960"/><use xlink:href="#YZq9WjjjX_dT_pad-17" x="78740" y="-58420"/><use xlink:href="#YZq9WjjjX_dT_pad-17" x="78740" y="-55880"/><use xlink:href="#YZq9WjjjX_dT_pad-17" x="78740" y="-53340"/><use xlink:href="#YZq9WjjjX_dT_pad-17" x="78740" y="-50800"/><use xlink:href="#YZq9WjjjX_dT_pad-17" x="78740" y="-48260"/><use xlink:href="#YZq9WjjjX_dT_pad-17" x="78740" y="-45720"/><use xlink:href="#YZq9WjjjX_dT_pad-17" x="78740" y="-43180"/><use xlink:href="#YZq9WjjjX_dT_pad-17" x="78740" y="-40640"/><use xlink:href="#YZq9WjjjX_dT_pad-17" x="78740" y="-38100"/><use xlink:href="#YZq9WjjjX_dT_pad-20" x="69850" y="-27980"/><use xlink:href="#YZq9WjjjX_dT_pad-21" x="69850" y="-30480"/><use xlink:href="#YZq9WjjjX_dT_pad-20" x="60960" y="-30440"/><use xlink:href="#YZq9WjjjX_dT_pad-21" x="60960" y="-27940"/><use xlink:href="#YZq9WjjjX_dT_pad-22" x="49530" y="-71120"/><use xlink:href="#YZq9WjjjX_dT_pad-22" x="46990" y="-71120"/><use xlink:href="#YZq9WjjjX_dT_pad-14" x="44450" y="-69850"/><use xlink:href="#YZq9WjjjX_dT_pad-14" x="44450" y="-59690"/><use xlink:href="#YZq9WjjjX_dT_pad-14" x="52070" y="-48260"/><use xlink:href="#YZq9WjjjX_dT_pad-14" x="52070" y="-38100"/><use xlink:href="#YZq9WjjjX_dT_pad-23" x="39370" y="-30480"/><use xlink:href="#YZq9WjjjX_dT_pad-24" x="55880" y="-33020"/><use xlink:href="#YZq9WjjjX_dT_pad-25" x="55880" y="-30480"/><use xlink:href="#YZq9WjjjX_dT_pad-24" x="55880" y="-27940"/></g><g id="pcb-stackup_bottom_drl1" transform="scale(25.4,25.4)"><use xlink:href="#KCtHjQTAktVh_pad-1" x="1750" y="-1600"/><use xlink:href="#KCtHjQTAktVh_pad-1" x="2800" y="-2300"/><use xlink:href="#KCtHjQTAktVh_pad-2" x="2400" y="-1100"/><use xlink:href="#KCtHjQTAktVh_pad-2" x="2400" y="-1198.4"/><use xlink:href="#KCtHjQTAktVh_pad-2" x="2750" y="-1101.6"/><use xlink:href="#KCtHjQTAktVh_pad-2" x="2750" y="-1200"/><use xlink:href="#KCtHjQTAktVh_pad-3" x="1650" y="-1500"/><use xlink:href="#KCtHjQTAktVh_pad-3" x="1650" y="-1950"/><use xlink:href="#KCtHjQTAktVh_pad-3" x="1650" y="-2150"/><use xlink:href="#KCtHjQTAktVh_pad-3" x="1850" y="-1500"/><use xlink:href="#KCtHjQTAktVh_pad-3" x="1850" y="-2800"/><use xlink:href="#KCtHjQTAktVh_pad-3" x="1950" y="-1950"/><use xlink:href="#KCtHjQTAktVh_pad-3" x="1950" y="-2150"/><use xlink:href="#KCtHjQTAktVh_pad-3" x="1950" y="-2800"/><use xlink:href="#KCtHjQTAktVh_pad-3" x="2050" y="-2300"/><use xlink:href="#KCtHjQTAktVh_pad-3" x="2050" y="-2400"/><use xlink:href="#KCtHjQTAktVh_pad-3" x="2050" y="-2600"/><use xlink:href="#KCtHjQTAktVh_pad-3" x="2050" y="-2700"/><use xlink:href="#KCtHjQTAktVh_pad-3" x="2500" y="-1500"/><use xlink:href="#KCtHjQTAktVh_pad-3" x="2500" y="-1600"/><use xlink:href="#KCtHjQTAktVh_pad-3" x="2500" y="-1700"/><use xlink:href="#KCtHjQTAktVh_pad-3" x="2500" y="-1800"/><use xlink:href="#KCtHjQTAktVh_pad-3" x="2500" y="-1900"/><use xlink:href="#KCtHjQTAktVh_pad-3" x="2500" y="-2000"/><use xlink:href="#KCtHjQTAktVh_pad-3" x="2500" y="-2100"/><use xlink:href="#KCtHjQTAktVh_pad-3" x="2500" y="-2200"/><use xlink:href="#KCtHjQTAktVh_pad-3" x="2500" y="-2300"/><use xlink:href="#KCtHjQTAktVh_pad-3" x="2500" y="-2400"/><use xlink:href="#KCtHjQTAktVh_pad-3" x="2500" y="-2500"/><use xlink:href="#KCtHjQTAktVh_pad-3" x="2500" y="-2600"/><use xlink:href="#KCtHjQTAktVh_pad-3" x="2500" y="-2700"/><use xlink:href="#KCtHjQTAktVh_pad-3" x="2500" y="-2800"/><use xlink:href="#KCtHjQTAktVh_pad-3" x="2800" y="-1500"/><use xlink:href="#KCtHjQTAktVh_pad-3" x="2800" y="-1600"/><use xlink:href="#KCtHjQTAktVh_pad-3" x="2800" y="-1700"/><use xlink:href="#KCtHjQTAktVh_pad-3" x="2800" y="-1800"/><use xlink:href="#KCtHjQTAktVh_pad-3" x="2800" y="-1900"/><use xlink:href="#KCtHjQTAktVh_pad-3" x="2800" y="-2000"/><use xlink:href="#KCtHjQTAktVh_pad-3" x="2800" y="-2100"/><use xlink:href="#KCtHjQTAktVh_pad-3" x="2800" y="-2200"/><use xlink:href="#KCtHjQTAktVh_pad-3" x="2800" y="-2300"/><use xlink:href="#KCtHjQTAktVh_pad-3" x="2800" y="-2400"/><use xlink:href="#KCtHjQTAktVh_pad-3" x="2800" y="-2500"/><use xlink:href="#KCtHjQTAktVh_pad-3" x="2800" y="-2600"/><use xlink:href="#KCtHjQTAktVh_pad-3" x="2800" y="-2700"/><use xlink:href="#KCtHjQTAktVh_pad-3" x="2800" y="-2800"/><use xlink:href="#KCtHjQTAktVh_pad-4" x="1750" y="-2350"/><use xlink:href="#KCtHjQTAktVh_pad-4" x="1750" y="-2750"/><use xlink:href="#KCtHjQTAktVh_pad-4" x="2050" y="-1500"/><use xlink:href="#KCtHjQTAktVh_pad-4" x="2050" y="-1900"/><use xlink:href="#KCtHjQTAktVh_pad-4" x="2450" y="-1350"/><use xlink:href="#KCtHjQTAktVh_pad-5" x="1500" y="-1500"/><use xlink:href="#KCtHjQTAktVh_pad-5" x="1500" y="-1600"/><use xlink:href="#KCtHjQTAktVh_pad-5" x="1500" y="-1700"/><use xlink:href="#KCtHjQTAktVh_pad-5" x="1500" y="-1800"/><use xlink:href="#KCtHjQTAktVh_pad-5" x="1500" y="-1900"/><use xlink:href="#KCtHjQTAktVh_pad-5" x="1500" y="-2000"/><use xlink:href="#KCtHjQTAktVh_pad-5" x="1500" y="-2350"/><use xlink:href="#KCtHjQTAktVh_pad-5" x="1500" y="-2450"/><use xlink:href="#KCtHjQTAktVh_pad-5" x="1500" y="-2550"/><use xlink:href="#KCtHjQTAktVh_pad-5" x="1500" y="-2650"/><use xlink:href="#KCtHjQTAktVh_pad-5" x="1500" y="-2750"/><use xlink:href="#KCtHjQTAktVh_pad-5" x="1600" y="-2350"/><use xlink:href="#KCtHjQTAktVh_pad-5" x="1600" y="-2450"/><use xlink:href="#KCtHjQTAktVh_pad-5" x="1600" y="-2550"/><use xlink:href="#KCtHjQTAktVh_pad-5" x="1600" y="-2650"/><use xlink:href="#KCtHjQTAktVh_pad-5" x="1600" y="-2750"/><use xlink:href="#KCtHjQTAktVh_pad-5" x="2200" y="-1500"/><use xlink:href="#KCtHjQTAktVh_pad-5" x="2200" y="-1600"/><use xlink:href="#KCtHjQTAktVh_pad-5" x="2200" y="-1700"/><use xlink:href="#KCtHjQTAktVh_pad-5" x="2200" y="-1800"/><use xlink:href="#KCtHjQTAktVh_pad-5" x="2200" y="-1900"/><use xlink:href="#KCtHjQTAktVh_pad-5" x="2200" y="-2000"/><use xlink:href="#KCtHjQTAktVh_pad-5" x="2200" y="-2100"/><use xlink:href="#KCtHjQTAktVh_pad-5" x="2200" y="-2200"/><use xlink:href="#KCtHjQTAktVh_pad-5" x="2200" y="-2500"/><use xlink:href="#KCtHjQTAktVh_pad-5" x="2200" y="-2600"/><use xlink:href="#KCtHjQTAktVh_pad-5" x="2200" y="-2700"/><use xlink:href="#KCtHjQTAktVh_pad-5" x="2200" y="-2800"/><use xlink:href="#KCtHjQTAktVh_pad-5" x="3100" y="-1200"/><use xlink:href="#KCtHjQTAktVh_pad-5" x="3100" y="-1300"/><use xlink:href="#KCtHjQTAktVh_pad-5" x="3100" y="-1500"/><use xlink:href="#KCtHjQTAktVh_pad-5" x="3100" y="-1600"/><use xlink:href="#KCtHjQTAktVh_pad-5" x="3100" y="-1700"/><use xlink:href="#KCtHjQTAktVh_pad-5" x="3100" y="-1800"/><use xlink:href="#KCtHjQTAktVh_pad-5" x="3100" y="-1900"/><use xlink:href="#KCtHjQTAktVh_pad-5" x="3100" y="-2000"/><use xlink:href="#KCtHjQTAktVh_pad-5" x="3100" y="-2100"/><use xlink:href="#KCtHjQTAktVh_pad-5" x="3100" y="-2200"/><use xlink:href="#KCtHjQTAktVh_pad-5" x="3100" y="-2300"/><use xlink:href="#KCtHjQTAktVh_pad-5" x="3100" y="-2400"/><use xlink:href="#KCtHjQTAktVh_pad-5" x="3100" y="-2500"/><use xlink:href="#KCtHjQTAktVh_pad-5" x="3100" y="-2600"/><use xlink:href="#KCtHjQTAktVh_pad-5" x="3100" y="-2700"/><use xlink:href="#KCtHjQTAktVh_pad-5" x="3100" y="-2800"/><use xlink:href="#KCtHjQTAktVh_pad-6" x="2200" y="-1100"/><use xlink:href="#KCtHjQTAktVh_pad-6" x="2200" y="-1200"/><use xlink:href="#KCtHjQTAktVh_pad-6" x="2200" y="-1300"/><use xlink:href="#KCtHjQTAktVh_pad-7" x="1900" y="-2353.9"/><use xlink:href="#KCtHjQTAktVh_pad-7" x="1900" y="-2546.1"/><use xlink:href="#KCtHjQTAktVh_pad-8" x="2850" y="-1350"/><use xlink:href="#KCtHjQTAktVh_pad-9" x="1400" y="-2850"/><use xlink:href="#KCtHjQTAktVh_pad-9" x="3100" y="-1069.7"/><use xlink:href="#KCtHjQTAktVh_pad-10" x="1550" y="-1200"/></g><clipPath id="pcb-stackup_bottom_out"><path d="M 33020 -74930 33020 -24130 81280 -24130 81280 -74930 33020 -74930" fill="none" stroke-width="100"/></clipPath><mask id="pcb-stackup_bottom_mech-mask"><g fill="#000" stroke="#000"><rect x="33020" y="-74930" width="48260" height="50800" fill="#fff"/><use xlink:href="#pcb-stackup_bottom_drl1"/></g></mask><mask id="pcb-stackup_bottom_cf-mask"><g fill="#fff" stroke="#fff"><use xlink:href="#pcb-stackup_bottom_sm"/></g></mask><mask id="pcb-stackup_bottom_sm-mask"><g fill="#000" stroke="#000"><rect x="33020" y="-74930" width="48260" height="50800" fill="#fff"/><use xlink:href="#pcb-stackup_bottom_sm"/></g></mask></defs><g transform="translate(0,-99060) scale(1,-1)"><g mask="url(#pcb-stackup_bottom_mech-mask)" clip-path="url(#pcb-stackup_bottom_out)" transform="translate(114300,0) scale(-1,1)"><rect x="33020" y="-74930" width="48260" height="50800" fill="currentColor" class="pcb-stackup_fr4"/><use xlink:href="#pcb-stackup_bottom_cu" fill="currentColor" stroke="currentColor" class="pcb-stackup_cu"/><use xlink:href="#pcb-stackup_bottom_cu" fill="currentColor" stroke="currentColor" class="pcb-stackup_cf" mask="url(#pcb-stackup_bottom_cf-mask)"/><g mask="url(#pcb-stackup_bottom_sm-mask)"><rect x="33020" y="-74930" width="48260" height="50800" fill="currentColor" class="pcb-stackup_sm"/></g></g></g></svg>