<svg id="pcb-stackup_top" version="1.1" xmlns:xlink="http://www.w3.org/1999/xlink" stroke-linecap="round" stroke-linejoin="round" stroke-width="0" fill-rule="evenodd" clip-rule="evenodd" viewBox="0 -50000 50000 50000" width="50mm" height="50mm" xmlns="http://www.w3.org/2000/svg"><defs><style>.pcb-stackup_fr4 {color: #4D542C;}
.pcb-stackup_cu {color: lightgrey;}
.pcb-stackup_cf {color: goldenrod;}
.pcb-stackup_sm {color: #FFFFFF; opacity: 0.9;}
.pcb-stackup_ss {color: black;}
.pcb-stackup_sp {color: #000000; opacity: 0;}
.pcb-stackup_out {color: black;}</style><rect x="-863.6" y="-863.6" width="1727.2" height="1727.2" id="o3ewtNCSRej1_pad-11"/><rect x="-863.6" y="-863.6" width="1727.2" height="1727.2" rx="863.6" ry="863.6" id="o3ewtNCSRej1_pad-12"/><rect x="-1016" y="-863.6" width="2032" height="1727.2" id="o3ewtNCSRej1_pad-13"/><rect x="-1016" y="-863.6" width="2032" height="1727.2" rx="863.6" ry="863.6" id="o3ewtNCSRej1_pad-14"/><rect x="-650" y="-650" width="1300" height="1300" id="o3ewtNCSRej1_pad-15"/><circle cx="0" cy="0" r="650" id="o3ewtNCSRej1_pad-16"/><circle cx="0" cy="0" r="999.49" id="o3ewtNCSRej1_pad-17"/><rect x="-999.49" y="-999.49" width="1998.98" height="1998.98" id="o3ewtNCSRej1_pad-18"/><rect x="-1270" y="-1270" width="2540" height="2540" id="o3ewtNCSRej1_pad-19"/><circle cx="0" cy="0" r="1270" id="o3ewtNCSRej1_pad-20"/><rect x="-1249.68" y="-750.57" width="2499.36" height="1501.14" rx="750.57" ry="750.57" id="o3ewtNCSRej1_pad-21"/><rect x="-863.6" y="-1016" width="1727.2" height="2032" rx="863.6" ry="863.6" id="o3ewtNCSRej1_pad-22"/><rect x="-863.6" y="-1016" width="1727.2" height="2032" id="o3ewtNCSRej1_pad-23"/><circle cx="0" cy="0" r="698.5" id="o3ewtNCSRej1_pad-24"/><circle cx="0" cy="0" r="1000" id="o3ewtNCSRej1_pad-25"/><circle cx="0" cy="0" r="342.9" id="o3ewtNCSRej1_pad-26"/><rect x="-863.6" y="-863.6" width="1727.2" height="1727.2" id="o3ewtNCSRej1_pad-11"/><rect x="-863.6" y="-863.6" width="1727.2" height="1727.2" rx="863.6" ry="863.6" id="o3ewtNCSRej1_pad-12"/><rect x="-1016" y="-863.6" width="2032" height="1727.2" id="o3ewtNCSRej1_pad-13"/><rect x="-1016" y="-863.6" width="2032" height="1727.2" rx="863.6" ry="863.6" id="o3ewtNCSRej1_pad-14"/><rect x="-650" y="-650" width="1300" height="1300" id="o3ewtNCSRej1_pad-15"/><circle cx="0" cy="0" r="650" id="o3ewtNCSRej1_pad-16"/><circle cx="0" cy="0" r="999.49" id="o3ewtNCSRej1_pad-17"/><rect x="-999.49" y="-999.49" width="1998.98" height="1998.98" id="o3ewtNCSRej1_pad-18"/><rect x="-1270" y="-1270" width="2540" height="2540" id="o3ewtNCSRej1_pad-19"/><circle cx="0" cy="0" r="1270" id="o3ewtNCSRej1_pad-20"/><rect x="-1249.68" y="-750.57" width="2499.36" height="1501.14" rx="750.57" ry="750.57" id="o3ewtNCSRej1_pad-21"/><rect x="-863.6" y="-1016" width="1727.2" height="2032" rx="863.6" ry="863.6" id="o3ewtNCSRej1_pad-22"/><rect x="-863.6" y="-1016" width="1727.2" height="2032" id="o3ewtNCSRej1_pad-23"/><circle cx="0" cy="0" r="698.5" id="o3ewtNCSRej1_pad-24"/><circle cx="0" cy="0" r="1000" id="o3ewtNCSRej1_pad-25"/><circle cx="0" cy="0" r="342.9" id="o3ewtNCSRej1_pad-26"/><rect x="-1063.6" y="-1063.6" width="2127.2" height="2127.2" id="XpyLSWEy7z2Q_pad-11"/><rect x="-1063.6" y="-1063.6" width="2127.2" height="2127.2" rx="1063.6" ry="1063.6" id="XpyLSWEy7z2Q_pad-12"/><rect x="-1216" y="-1063.6" width="2432" height="2127.2" id="XpyLSWEy7z2Q_pad-13"/><rect x="-1216" y="-1063.6" width="2432" height="2127.2" rx="1063.6" ry="1063.6" id="XpyLSWEy7z2Q_pad-14"/><circle cx="0" cy="0" r="1800" id="XpyLSWEy7z2Q_pad-15"/><rect x="-850" y="-850" width="1700" height="1700" id="XpyLSWEy7z2Q_pad-16"/><circle cx="0" cy="0" r="850" id="XpyLSWEy7z2Q_pad-17"/><circle cx="0" cy="0" r="1199.49" id="XpyLSWEy7z2Q_pad-18"/><rect x="-1199.49" y="-1199.49" width="2398.98" height="2398.98" id="XpyLSWEy7z2Q_pad-19"/><rect x="-1470" y="-1470" width="2940" height="2940" id="XpyLSWEy7z2Q_pad-20"/><circle cx="0" cy="0" r="1470" id="XpyLSWEy7z2Q_pad-21"/><rect x="-1449.68" y="-950.57" width="2899.36" height="1901.14" rx="950.57" ry="950.57" id="XpyLSWEy7z2Q_pad-22"/><rect x="-1063.6" y="-1216" width="2127.2" height="2432" rx="1063.6" ry="1063.6" id="XpyLSWEy7z2Q_pad-23"/><rect x="-1063.6" y="-1216" width="2127.2" height="2432" id="XpyLSWEy7z2Q_pad-24"/><circle cx="0" cy="0" r="898.5" id="XpyLSWEy7z2Q_pad-25"/><circle cx="0" cy="0" r="1200" id="XpyLSWEy7z2Q_pad-26"/><rect x="-863.6" y="-863.6" width="1727.2" height="1727.2" id="o3ewtNCSRej1_pad-11"/><rect x="-863.6" y="-863.6" width="1727.2" height="1727.2" rx="863.6" ry="863.6" id="o3ewtNCSRej1_pad-12"/><rect x="-1016" y="-863.6" width="2032" height="1727.2" id="o3ewtNCSRej1_pad-13"/><rect x="-1016" y="-863.6" width="2032" height="1727.2" rx="863.6" ry="863.6" id="o3ewtNCSRej1_pad-14"/><rect x="-650" y="-650" width="1300" height="1300" id="o3ewtNCSRej1_pad-15"/><circle cx="0" cy="0" r="650" id="o3ewtNCSRej1_pad-16"/><circle cx="0" cy="0" r="999.49" id="o3ewtNCSRej1_pad-17"/><rect x="-999.49" y="-999.49" width="1998.98" height="1998.98" id="o3ewtNCSRej1_pad-18"/><rect x="-1270" y="-1270" width="2540" height="2540" id="o3ewtNCSRej1_pad-19"/><circle cx="0" cy="0" r="1270" id="o3ewtNCSRej1_pad-20"/><rect x="-1249.68" y="-750.57" width="2499.36" height="1501.14" rx="750.57" ry="750.57" id="o3ewtNCSRej1_pad-21"/><rect x="-863.6" y="-1016" width="1727.2" height="2032" rx="863.6" ry="863.6" id="o3ewtNCSRej1_pad-22"/><rect x="-863.6" y="-1016" width="1727.2" height="2032" id="o3ewtNCSRej1_pad-23"/><circle cx="0" cy="0" r="698.5" id="o3ewtNCSRej1_pad-24"/><circle cx="0" cy="0" r="1000" id="o3ewtNCSRej1_pad-25"/><circle cx="0" cy="0" r="342.9" id="o3ewtNCSRej1_pad-26"/><rect x="-863.6" y="-863.6" width="1727.2" height="1727.2" id="o3ewtNCSRej1_pad-11"/><rect x="-863.6" y="-863.6" width="1727.2" height="1727.2" rx="863.6" ry="863.6" id="o3ewtNCSRej1_pad-12"/><rect x="-1016" y="-863.6" width="2032" height="1727.2" id="o3ewtNCSRej1_pad-13"/><rect x="-1016" y="-863.6" width="2032" height="1727.2" rx="863.6" ry="863.6" id="o3ewtNCSRej1_pad-14"/><rect x="-650" y="-650" width="1300" height="1300" id="o3ewtNCSRej1_pad-15"/><circle cx="0" cy="0" r="650" id="o3ewtNCSRej1_pad-16"/><circle cx="0" cy="0" r="999.49" id="o3ewtNCSRej1_pad-17"/><rect x="-999.49" y="-999.49" width="1998.98" height="1998.98" id="o3ewtNCSRej1_pad-18"/><rect x="-1270" y="-1270" width="2540" height="2540" id="o3ewtNCSRej1_pad-19"/><circle cx="0" cy="0" r="1270" id="o3ewtNCSRej1_pad-20"/><rect x="-1249.68" y="-750.57" width="2499.36" height="1501.14" rx="750.57" ry="750.57" id="o3ewtNCSRej1_pad-21"/><rect x="-863.6" y="-1016" width="1727.2" height="2032" rx="863.6" ry="863.6" id="o3ewtNCSRej1_pad-22"/><rect x="-863.6" y="-1016" width="1727.2" height="2032" id="o3ewtNCSRej1_pad-23"/><circle cx="0" cy="0" r="698.5" id="o3ewtNCSRej1_pad-24"/><circle cx="0" cy="0" r="1000" id="o3ewtNCSRej1_pad-25"/><circle cx="0" cy="0" r="342.9" id="o3ewtNCSRej1_pad-26"/><rect x="-1063.6" y="-1063.6" width="2127.2" height="2127.2" id="XpyLSWEy7z2Q_pad-11"/><rect x="-1063.6" y="-1063.6" width="2127.2" height="2127.2" rx="1063.6" ry="1063.6" id="XpyLSWEy7z2Q_pad-12"/><rect x="-1216" y="-1063.6" width="2432" height="2127.2" id="XpyLSWEy7z2Q_pad-13"/><rect x="-1216" y="-1063.6" width="2432" height="2127.2" rx="1063.6" ry="1063.6" id="XpyLSWEy7z2Q_pad-14"/><circle cx="0" cy="0" r="1800" id="XpyLSWEy7z2Q_pad-15"/><rect x="-850" y="-850" width="1700" height="1700" id="XpyLSWEy7z2Q_pad-16"/><circle cx="0" cy="0" r="850" id="XpyLSWEy7z2Q_pad-17"/><circle cx="0" cy="0" r="1199.49" id="XpyLSWEy7z2Q_pad-18"/><rect x="-1199.49" y="-1199.49" width="2398.98" height="2398.98" id="XpyLSWEy7z2Q_pad-19"/><rect x="-1470" y="-1470" width="2940" height="2940" id="XpyLSWEy7z2Q_pad-20"/><circle cx="0" cy="0" r="1470" id="XpyLSWEy7z2Q_pad-21"/><rect x="-1449.68" y="-950.57" width="2899.36" height="1901.14" rx="950.57" ry="950.57" id="XpyLSWEy7z2Q_pad-22"/><rect x="-1063.6" y="-1216" width="2127.2" height="2432" rx="1063.6" ry="1063.6" id="XpyLSWEy7z2Q_pad-23"/><rect x="-1063.6" y="-1216" width="2127.2" height="2432" id="XpyLSWEy7z2Q_pad-24"/><circle cx="0" cy="0" r="898.5" id="XpyLSWEy7z2Q_pad-25"/><circle cx="0" cy="0" r="1200" id="XpyLSWEy7z2Q_pad-26"/><rect x="-863.6" y="-863.6" width="1727.2" height="1727.2" id="o3ewtNCSRej1_pad-11"/><rect x="-863.6" y="-863.6" width="1727.2" height="1727.2" rx="863.6" ry="863.6" id="o3ewtNCSRej1_pad-12"/><rect x="-1016" y="-863.6" width="2032" height="1727.2" id="o3ewtNCSRej1_pad-13"/><rect x="-1016" y="-863.6" width="2032" height="1727.2" rx="863.6" ry="863.6" id="o3ewtNCSRej1_pad-14"/><rect x="-650" y="-650" width="1300" height="1300" id="o3ewtNCSRej1_pad-15"/><circle cx="0" cy="0" r="650" id="o3ewtNCSRej1_pad-16"/><circle cx="0" cy="0" r="999.49" id="o3ewtNCSRej1_pad-17"/><rect x="-999.49" y="-999.49" width="1998.98" height="1998.98" id="o3ewtNCSRej1_pad-18"/><rect x="-1270" y="-1270" width="2540" height="2540" id="o3ewtNCSRej1_pad-19"/><circle cx="0" cy="0" r="1270" id="o3ewtNCSRej1_pad-20"/><rect x="-1249.68" y="-750.57" width="2499.36" height="1501.14" rx="750.57" ry="750.57" id="o3ewtNCSRej1_pad-21"/><rect x="-863.6" y="-1016" width="1727.2" height="2032" rx="863.6" ry="863.6" id="o3ewtNCSRej1_pad-22"/><rect x="-863.6" y="-1016" width="1727.2" height="2032" id="o3ewtNCSRej1_pad-23"/><circle cx="0" cy="0" r="698.5" id="o3ewtNCSRej1_pad-24"/><circle cx="0" cy="0" r="1000" id="o3ewtNCSRej1_pad-25"/><circle cx="0" cy="0" r="342.9" id="o3ewtNCSRej1_pad-26"/><rect x="-863.6" y="-863.6" width="1727.2" height="1727.2" id="o3ewtNCSRej1_pad-11"/><rect x="-863.6" y="-863.6" width="1727.2" height="1727.2" rx="863.6" ry="863.6" id="o3ewtNCSRej1_pad-12"/><rect x="-1016" y="-863.6" width="2032" height="1727.2" id="o3ewtNCSRej1_pad-13"/><rect x="-1016" y="-863.6" width="2032" height="1727.2" rx="863.6" ry="863.6" id="o3ewtNCSRej1_pad-14"/><rect x="-650" y="-650" width="1300" height="1300" id="o3ewtNCSRej1_pad-15"/><circle cx="0" cy="0" r="650" id="o3ewtNCSRej1_pad-16"/><circle cx="0" cy="0" r="999.49" id="o3ewtNCSRej1_pad-17"/><rect x="-999.49" y="-999.49" width="1998.98" height="1998.98" id="o3ewtNCSRej1_pad-18"/><rect x="-1270" y="-1270" width="2540" height="2540" id="o3ewtNCSRej1_pad-19"/><circle cx="0" cy="0" r="1270" id="o3ewtNCSRej1_pad-20"/><rect x="-1249.68" y="-750.57" width="2499.36" height="1501.14" rx="750.57" ry="750.57" id="o3ewtNCSRej1_pad-21"/><rect x="-863.6" y="-1016" width="1727.2" height="2032" rx="863.6" ry="863.6" id="o3ewtNCSRej1_pad-22"/><rect x="-863.6" y="-1016" width="1727.2" height="2032" id="o3ewtNCSRej1_pad-23"/><circle cx="0" cy="0" r="698.5" id="o3ewtNCSRej1_pad-24"/><circle cx="0" cy="0" r="1000" id="o3ewtNCSRej1_pad-25"/><circle cx="0" cy="0" r="342.9" id="o3ewtNCSRej1_pad-26"/><rect x="-1063.6" y="-1063.6" width="2127.2" height="2127.2" id="XpyLSWEy7z2Q_pad-11"/><rect x="-1063.6" y="-1063.6" width="2127.2" height="2127.2" rx="1063.6" ry="1063.6" id="XpyLSWEy7z2Q_pad-12"/><rect x="-1216" y="-1063.6" width="2432" height="2127.2" id="XpyLSWEy7z2Q_pad-13"/><rect x="-1216" y="-1063.6" width="2432" height="2127.2" rx="1063.6" ry="1063.6" id="XpyLSWEy7z2Q_pad-14"/><circle cx="0" cy="0" r="1800" id="XpyLSWEy7z2Q_pad-15"/><rect x="-850" y="-850" width="1700" height="1700" id="XpyLSWEy7z2Q_pad-16"/><circle cx="0" cy="0" r="850" id="XpyLSWEy7z2Q_pad-17"/><circle cx="0" cy="0" r="1199.49" id="XpyLSWEy7z2Q_pad-18"/><rect x="-1199.49" y="-1199.49" width="2398.98" height="2398.98" id="XpyLSWEy7z2Q_pad-19"/><rect x="-1470" y="-1470" width="2940" height="2940" id="XpyLSWEy7z2Q_pad-20"/><circle cx="0" cy="0" r="1470" id="XpyLSWEy7z2Q_pad-21"/><rect x="-1449.68" y="-950.57" width="2899.36" height="1901.14" rx="950.57" ry="950.57" id="XpyLSWEy7z2Q_pad-22"/><rect x="-1063.6" y="-1216" width="2127.2" height="2432" rx="1063.6" ry="1063.6" id="XpyLSWEy7z2Q_pad-23"/><rect x="-1063.6" y="-1216" width="2127.2" height="2432" id="XpyLSWEy7z2Q_pad-24"/><circle cx="0" cy="0" r="898.5" id="XpyLSWEy7z2Q_pad-25"/><circle cx="0" cy="0" r="1200" id="XpyLSWEy7z2Q_pad-26"/><rect x="-863.6" y="-863.6" width="1727.2" height="1727.2" id="o3ewtNCSRej1_pad-11"/><rect x="-863.6" y="-863.6" width="1727.2" height="1727.2" rx="863.6" ry="863.6" id="o3ewtNCSRej1_pad-12"/><rect x="-1016" y="-863.6" width="2032" height="1727.2" id="o3ewtNCSRej1_pad-13"/><rect x="-1016" y="-863.6" width="2032" height="1727.2" rx="863.6" ry="863.6" id="o3ewtNCSRej1_pad-14"/><rect x="-650" y="-650" width="1300" height="1300" id="o3ewtNCSRej1_pad-15"/><circle cx="0" cy="0" r="650" id="o3ewtNCSRej1_pad-16"/><circle cx="0" cy="0" r="999.49" id="o3ewtNCSRej1_pad-17"/><rect x="-999.49" y="-999.49" width="1998.98" height="1998.98" id="o3ewtNCSRej1_pad-18"/><rect x="-1270" y="-1270" width="2540" height="2540" id="o3ewtNCSRej1_pad-19"/><circle cx="0" cy="0" r="1270" id="o3ewtNCSRej1_pad-20"/><rect x="-1249.68" y="-750.57" width="2499.36" height="1501.14" rx="750.57" ry="750.57" id="o3ewtNCSRej1_pad-21"/><rect x="-863.6" y="-1016" width="1727.2" height="2032" rx="863.6" ry="863.6" id="o3ewtNCSRej1_pad-22"/><rect x="-863.6" y="-1016" width="1727.2" height="2032" id="o3ewtNCSRej1_pad-23"/><circle cx="0" cy="0" r="698.5" id="o3ewtNCSRej1_pad-24"/><circle cx="0" cy="0" r="1000" id="o3ewtNCSRej1_pad-25"/><circle cx="0" cy="0" r="342.9" id="o3ewtNCSRej1_pad-26"/><rect x="-863.6" y="-863.6" width="1727.2" height="1727.2" id="o3ewtNCSRej1_pad-11"/><rect x="-863.6" y="-863.6" width="1727.2" height="1727.2" rx="863.6" ry="863.6" id="o3ewtNCSRej1_pad-12"/><rect x="-1016" y="-863.6" width="2032" height="1727.2" id="o3ewtNCSRej1_pad-13"/><rect x="-1016" y="-863.6" width="2032" height="1727.2" rx="863.6" ry="863.6" id="o3ewtNCSRej1_pad-14"/><rect x="-650" y="-650" width="1300" height="1300" id="o3ewtNCSRej1_pad-15"/><circle cx="0" cy="0" r="650" id="o3ewtNCSRej1_pad-16"/><circle cx="0" cy="0" r="999.49" id="o3ewtNCSRej1_pad-17"/><rect x="-999.49" y="-999.49" width="1998.98" height="1998.98" id="o3ewtNCSRej1_pad-18"/><rect x="-1270" y="-1270" width="2540" height="2540" id="o3ewtNCSRej1_pad-19"/><circle cx="0" cy="0" r="1270" id="o3ewtNCSRej1_pad-20"/><rect x="-1249.68" y="-750.57" width="2499.36" height="1501.14" rx="750.57" ry="750.57" id="o3ewtNCSRej1_pad-21"/><rect x="-863.6" y="-1016" width="1727.2" height="2032" rx="863.6" ry="863.6" id="o3ewtNCSRej1_pad-22"/><rect x="-863.6" y="-1016" width="1727.2" height="2032" id="o3ewtNCSRej1_pad-23"/><circle cx="0" cy="0" r="698.5" id="o3ewtNCSRej1_pad-24"/><circle cx="0" cy="0" r="1000" id="o3ewtNCSRej1_pad-25"/><circle cx="0" cy="0" r="342.9" id="o3ewtNCSRej1_pad-26"/><rect x="-1063.6" y="-1063.6" width="2127.2" height="2127.2" id="XpyLSWEy7z2Q_pad-11"/><rect x="-1063.6" y="-1063.6" width="2127.2" height="2127.2" rx="1063.6" ry="1063.6" id="XpyLSWEy7z2Q_pad-12"/><rect x="-1216" y="-1063.6" width="2432" height="2127.2" id="XpyLSWEy7z2Q_pad-13"/><rect x="-1216" y="-1063.6" width="2432" height="2127.2" rx="1063.6" ry="1063.6" id="XpyLSWEy7z2Q_pad-14"/><circle cx="0" cy="0" r="1800" id="XpyLSWEy7z2Q_pad-15"/><rect x="-850" y="-850" width="1700" height="1700" id="XpyLSWEy7z2Q_pad-16"/><circle cx="0" cy="0" r="850" id="XpyLSWEy7z2Q_pad-17"/><circle cx="0" cy="0" r="1199.49" id="XpyLSWEy7z2Q_pad-18"/><rect x="-1199.49" y="-1199.49" width="2398.98" height="2398.98" id="XpyLSWEy7z2Q_pad-19"/><rect x="-1470" y="-1470" width="2940" height="2940" id="XpyLSWEy7z2Q_pad-20"/><circle cx="0" cy="0" r="1470" id="XpyLSWEy7z2Q_pad-21"/><rect x="-1449.68" y="-950.57" width="2899.36" height="1901.14" rx="950.57" ry="950.57" id="XpyLSWEy7z2Q_pad-22"/><rect x="-1063.6" y="-1216" width="2127.2" height="2432" rx="1063.6" ry="1063.6" id="XpyLSWEy7z2Q_pad-23"/><rect x="-1063.6" y="-1216" width="2127.2" height="2432" id="XpyLSWEy7z2Q_pad-24"/><circle cx="0" cy="0" r="898.5" id="XpyLSWEy7z2Q_pad-25"/><circle cx="0" cy="0" r="1200" id="XpyLSWEy7z2Q_pad-26"/><circle cx="0" cy="0" r="165" id="AarEUQSL.zqg_pad-1"/><circle cx="0" cy="0" r="400" id="AarEUQSL.zqg_pad-2"/><circle cx="0" cy="0" r="400" id="AarEUQSL.zqg_pad-3"/><circle cx="0" cy="0" r="406.5" id="AarEUQSL.zqg_pad-4"/><circle cx="0" cy="0" r="500.5" id="AarEUQSL.zqg_pad-5"/><circle cx="0" cy="0" r="508" id="AarEUQSL.zqg_pad-6"/><circle cx="0" cy="0" r="550" id="AarEUQSL.zqg_pad-7"/><circle cx="0" cy="0" r="635" id="AarEUQSL.zqg_pad-8"/><circle cx="0" cy="0" r="762" id="AarEUQSL.zqg_pad-9"/><circle cx="0" cy="0" r="1600" id="AarEUQSL.zqg_pad-10"/><rect x="-863.6" y="-863.6" width="1727.2" height="1727.2" id="o3ewtNCSRej1_pad-11"/><rect x="-863.6" y="-863.6" width="1727.2" height="1727.2" rx="863.6" ry="863.6" id="o3ewtNCSRej1_pad-12"/><rect x="-1016" y="-863.6" width="2032" height="1727.2" id="o3ewtNCSRej1_pad-13"/><rect x="-1016" y="-863.6" width="2032" height="1727.2" rx="863.6" ry="863.6" id="o3ewtNCSRej1_pad-14"/><rect x="-650" y="-650" width="1300" height="1300" id="o3ewtNCSRej1_pad-15"/><circle cx="0" cy="0" r="650" id="o3ewtNCSRej1_pad-16"/><circle cx="0" cy="0" r="999.49" id="o3ewtNCSRej1_pad-17"/><rect x="-999.49" y="-999.49" width="1998.98" height="1998.98" id="o3ewtNCSRej1_pad-18"/><rect x="-1270" y="-1270" width="2540" height="2540" id="o3ewtNCSRej1_pad-19"/><circle cx="0" cy="0" r="1270" id="o3ewtNCSRej1_pad-20"/><rect x="-1249.68" y="-750.57" width="2499.36" height="1501.14" rx="750.57" ry="750.57" id="o3ewtNCSRej1_pad-21"/><rect x="-863.6" y="-1016" width="1727.2" height="2032" rx="863.6" ry="863.6" id="o3ewtNCSRej1_pad-22"/><rect x="-863.6" y="-1016" width="1727.2" height="2032" id="o3ewtNCSRej1_pad-23"/><circle cx="0" cy="0" r="698.5" id="o3ewtNCSRej1_pad-24"/><circle cx="0" cy="0" r="1000" id="o3ewtNCSRej1_pad-25"/><circle cx="0" cy="0" r="342.9" id="o3ewtNCSRej1_pad-26"/><rect x="-863.6" y="-863.6" width="1727.2" height="1727.2" id="o3ewtNCSRej1_pad-11"/><rect x="-863.6" y="-863.6" width="1727.2" height="1727.2" rx="863.6" ry="863.6" id="o3ewtNCSRej1_pad-12"/><rect x="-1016" y="-863.6" width="2032" height="1727.2" id="o3ewtNCSRej1_pad-13"/><rect x="-1016" y="-863.6" width="2032" height="1727.2" rx="863.6" ry="863.6" id="o3ewtNCSRej1_pad-14"/><rect x="-650" y="-650" width="1300" height="1300" id="o3ewtNCSRej1_pad-15"/><circle cx="0" cy="0" r="650" id="o3ewtNCSRej1_pad-16"/><circle cx="0" cy="0" r="999.49" id="o3ewtNCSRej1_pad-17"/><rect x="-999.49" y="-999.49" width="1998.98" height="1998.98" id="o3ewtNCSRej1_pad-18"/><rect x="-1270" y="-1270" width="2540" height="2540" id="o3ewtNCSRej1_pad-19"/><circle cx="0" cy="0" r="1270" id="o3ewtNCSRej1_pad-20"/><rect x="-1249.68" y="-750.57" width="2499.36" height="1501.14" rx="750.57" ry="750.57" id="o3ewtNCSRej1_pad-21"/><rect x="-863.6" y="-1016" width="1727.2" height="2032" rx="863.6" ry="863.6" id="o3ewtNCSRej1_pad-22"/><rect x="-863.6" y="-1016" width="1727.2" height="2032" id="o3ewtNCSRej1_pad-23"/><circle cx="0" cy="0" r="698.5" id="o3ewtNCSRej1_pad-24"/><circle cx="0" cy="0" r="1000" id="o3ewtNCSRej1_pad-25"/><circle cx="0" cy="0" r="342.9" id="o3ewtNCSRej1_pad-26"/><rect x="-1063.6" y="-1063.6" width="2127.2" height="2127.2" id="XpyLSWEy7z2Q_pad-11"/><rect x="-1063.6" y="-1063.6" width="2127.2" height="2127.2" rx="1063.6" ry="1063.6" id="XpyLSWEy7z2Q_pad-12"/><rect x="-1216" y="-1063.6" width="2432" height="2127.2" id="XpyLSWEy7z2Q_pad-13"/><rect x="-1216" y="-1063.6" width="2432" height="2127.2" rx="1063.6" ry="1063.6" id="XpyLSWEy7z2Q_pad-14"/><circle cx="0" cy="0" r="1800" id="XpyLSWEy7z2Q_pad-15"/><rect x="-850" y="-850" width="1700" height="1700" id="XpyLSWEy7z2Q_pad-16"/><circle cx="0" cy="0" r="850" id="XpyLSWEy7z2Q_pad-17"/><circle cx="0" cy="0" r="1199.49" id="XpyLSWEy7z2Q_pad-18"/><rect x="-1199.49" y="-1199.49" width="2398.98" height="2398.98" id="XpyLSWEy7z2Q_pad-19"/><rect x="-1470" y="-1470" width="2940" height="2940" id="XpyLSWEy7z2Q_pad-20"/><circle cx="0" cy="0" r="1470" id="XpyLSWEy7z2Q_pad-21"/><rect x="-1449.68" y="-950.57" width="2899.36" height="1901.14" rx="950.57" ry="950.57" id="XpyLSWEy7z2Q_pad-22"/><rect x="-1063.6" y="-1216" width="2127.2" height="2432" rx="1063.6" ry="1063.6" id="XpyLSWEy7z2Q_pad-23"/><rect x="-1063.6" y="-1216" width="2127.2" height="2432" id="XpyLSWEy7z2Q_pad-24"/><circle cx="0" cy="0" r="898.5" id="XpyLSWEy7z2Q_pad-25"/><circle cx="0" cy="0" r="1200" id="XpyLSWEy7z2Q_pad-26"/><rect x="-863.6" y="-863.6" width="1727.2" height="1727.2" id="o3ewtNCSRej1_pad-11"/><rect x="-863.6" y="-863.6" width="1727.2" height="1727.2" rx="863.6" ry="863.6" id="o3ewtNCSRej1_pad-12"/><rect x="-1016" y="-863.6" width="2032" height="1727.2" id="o3ewtNCSRej1_pad-13"/><rect x="-1016" y="-863.6" width="2032" height="1727.2" rx="863.6" ry="863.6" id="o3ewtNCSRej1_pad-14"/><rect x="-650" y="-650" width="1300" height="1300" id="o3ewtNCSRej1_pad-15"/><circle cx="0" cy="0" r="650" id="o3ewtNCSRej1_pad-16"/><circle cx="0" cy="0" r="999.49" id="o3ewtNCSRej1_pad-17"/><rect x="-999.49" y="-999.49" width="1998.98" height="1998.98" id="o3ewtNCSRej1_pad-18"/><rect x="-1270" y="-1270" width="2540" height="2540" id="o3ewtNCSRej1_pad-19"/><circle cx="0" cy="0" r="1270" id="o3ewtNCSRej1_pad-20"/><rect x="-1249.68" y="-750.57" width="2499.36" height="1501.14" rx="750.57" ry="750.57" id="o3ewtNCSRej1_pad-21"/><rect x="-863.6" y="-1016" width="1727.2" height="2032" rx="863.6" ry="863.6" id="o3ewtNCSRej1_pad-22"/><rect x="-863.6" y="-1016" width="1727.2" height="2032" id="o3ewtNCSRej1_pad-23"/><circle cx="0" cy="0" r="698.5" id="o3ewtNCSRej1_pad-24"/><circle cx="0" cy="0" r="1000" id="o3ewtNCSRej1_pad-25"/><circle cx="0" cy="0" r="342.9" id="o3ewtNCSRej1_pad-26"/><rect x="-863.6" y="-863.6" width="1727.2" height="1727.2" id="o3ewtNCSRej1_pad-11"/><rect x="-863.6" y="-863.6" width="1727.2" height="1727.2" rx="863.6" ry="863.6" id="o3ewtNCSRej1_pad-12"/><rect x="-1016" y="-863.6" width="2032" height="1727.2" id="o3ewtNCSRej1_pad-13"/><rect x="-1016" y="-863.6" width="2032" height="1727.2" rx="863.6" ry="863.6" id="o3ewtNCSRej1_pad-14"/><rect x="-650" y="-650" width="1300" height="1300" id="o3ewtNCSRej1_pad-15"/><circle cx="0" cy="0" r="650" id="o3ewtNCSRej1_pad-16"/><circle cx="0" cy="0" r="999.49" id="o3ewtNCSRej1_pad-17"/><rect x="-999.49" y="-999.49" width="1998.98" height="1998.98" id="o3ewtNCSRej1_pad-18"/><rect x="-1270" y="-1270" width="2540" height="2540" id="o3ewtNCSRej1_pad-19"/><circle cx="0" cy="0" r="1270" id="o3ewtNCSRej1_pad-20"/><rect x="-1249.68" y="-750.57" width="2499.36" height="1501.14" rx="750.57" ry="750.57" id="o3ewtNCSRej1_pad-21"/><rect x="-863.6" y="-1016" width="1727.2" height="2032" rx="863.6" ry="863.6" id="o3ewtNCSRej1_pad-22"/><rect x="-863.6" y="-1016" width="1727.2" height="2032" id="o3ewtNCSRej1_pad-23"/><circle cx="0" cy="0" r="698.5" id="o3ewtNCSRej1_pad-24"/><circle cx="0" cy="0" r="1000" id="o3ewtNCSRej1_pad-25"/><circle cx="0" cy="0" r="342.9" id="o3ewtNCSRej1_pad-26"/><rect x="-1063.6" y="-1063.6" width="2127.2" height="2127.2" id="XpyLSWEy7z2Q_pad-11"/><rect x="-1063.6" y="-1063.6" width="2127.2" height="2127.2" rx="1063.6" ry="1063.6" id="XpyLSWEy7z2Q_pad-12"/><rect x="-1216" y="-1063.6" width="2432" height="2127.2" id="XpyLSWEy7z2Q_pad-13"/><rect x="-1216" y="-1063.6" width="2432" height="2127.2" rx="1063.6" ry="1063.6" id="XpyLSWEy7z2Q_pad-14"/><circle cx="0" cy="0" r="1800" id="XpyLSWEy7z2Q_pad-15"/><rect x="-850" y="-850" width="1700" height="1700" id="XpyLSWEy7z2Q_pad-16"/><circle cx="0" cy="0" r="850" id="XpyLSWEy7z2Q_pad-17"/><circle cx="0" cy="0" r="1199.49" id="XpyLSWEy7z2Q_pad-18"/><rect x="-1199.49" y="-1199.49" width="2398.98" height="2398.98" id="XpyLSWEy7z2Q_pad-19"/><rect x="-1470" y="-1470" width="2940" height="2940" id="XpyLSWEy7z2Q_pad-20"/><circle cx="0" cy="0" r="1470" id="XpyLSWEy7z2Q_pad-21"/><rect x="-1449.68" y="-950.57" width="2899.36" height="1901.14" rx="950.57" ry="950.57" id="XpyLSWEy7z2Q_pad-22"/><rect x="-1063.6" y="-1216" width="2127.2" height="2432" rx="1063.6" ry="1063.6" id="XpyLSWEy7z2Q_pad-23"/><rect x="-1063.6" y="-1216" width="2127.2" height="2432" id="XpyLSWEy7z2Q_pad-24"/><circle cx="0" cy="0" r="898.5" id="XpyLSWEy7z2Q_pad-25"/><circle cx="0" cy="0" r="1200" id="XpyLSWEy7z2Q_pad-26"/><rect x="-863.6" y="-863.6" width="1727.2" height="1727.2" id="o3ewtNCSRej1_pad-11"/><rect x="-863.6" y="-863.6" width="1727.2" height="1727.2" rx="863.6" ry="863.6" id="o3ewtNCSRej1_pad-12"/><rect x="-1016" y="-863.6" width="2032" height="1727.2" id="o3ewtNCSRej1_pad-13"/><rect x="-1016" y="-863.6" width="2032" height="1727.2" rx="863.6" ry="863.6" id="o3ewtNCSRej1_pad-14"/><rect x="-650" y="-650" width="1300" height="1300" id="o3ewtNCSRej1_pad-15"/><circle cx="0" cy="0" r="650" id="o3ewtNCSRej1_pad-16"/><circle cx="0" cy="0" r="999.49" id="o3ewtNCSRej1_pad-17"/><rect x="-999.49" y="-999.49" width="1998.98" height="1998.98" id="o3ewtNCSRej1_pad-18"/><rect x="-1270" y="-1270" width="2540" height="2540" id="o3ewtNCSRej1_pad-19"/><circle cx="0" cy="0" r="1270" id="o3ewtNCSRej1_pad-20"/><rect x="-1249.68" y="-750.57" width="2499.36" height="1501.14" rx="750.57" ry="750.57" id="o3ewtNCSRej1_pad-21"/><rect x="-863.6" y="-1016" width="1727.2" height="2032" rx="863.6" ry="863.6" id="o3ewtNCSRej1_pad-22"/><rect x="-863.6" y="-1016" width="1727.2" height="2032" id="o3ewtNCSRej1_pad-23"/><circle cx="0" cy="0" r="698.5" id="o3ewtNCSRej1_pad-24"/><circle cx="0" cy="0" r="1000" id="o3ewtNCSRej1_pad-25"/><circle cx="0" cy="0" r="342.9" id="o3ewtNCSRej1_pad-26"/><rect x="-863.6" y="-863.6" width="1727.2" height="1727.2" id="o3ewtNCSRej1_pad-11"/><rect x="-863.6" y="-863.6" width="1727.2" height="1727.2" rx="863.6" ry="863.6" id="o3ewtNCSRej1_pad-12"/><rect x="-1016" y="-863.6" width="2032" height="1727.2" id="o3ewtNCSRej1_pad-13"/><rect x="-1016" y="-863.6" width="2032" height="1727.2" rx="863.6" ry="863.6" id="o3ewtNCSRej1_pad-14"/><rect x="-650" y="-650" width="1300" height="1300" id="o3ewtNCSRej1_pad-15"/><circle cx="0" cy="0" r="650" id="o3ewtNCSRej1_pad-16"/><circle cx="0" cy="0" r="999.49" id="o3ewtNCSRej1_pad-17"/><rect x="-999.49" y="-999.49" width="1998.98" height="1998.98" id="o3ewtNCSRej1_pad-18"/><rect x="-1270" y="-1270" width="2540" height="2540" id="o3ewtNCSRej1_pad-19"/><circle cx="0" cy="0" r="1270" id="o3ewtNCSRej1_pad-20"/><rect x="-1249.68" y="-750.57" width="2499.36" height="1501.14" rx="750.57" ry="750.57" id="o3ewtNCSRej1_pad-21"/><rect x="-863.6" y="-1016" width="1727.2" height="2032" rx="863.6" ry="863.6" id="o3ewtNCSRej1_pad-22"/><rect x="-863.6" y="-1016" width="1727.2" height="2032" id="o3ewtNCSRej1_pad-23"/><circle cx="0" cy="0" r="698.5" id="o3ewtNCSRej1_pad-24"/><circle cx="0" cy="0" r="1000" id="o3ewtNCSRej1_pad-25"/><circle cx="0" cy="0" r="342.9" id="o3ewtNCSRej1_pad-26"/><rect x="-1063.6" y="-1063.6" width="2127.2" height="2127.2" id="XpyLSWEy7z2Q_pad-11"/><rect x="-1063.6" y="-1063.6" width="2127.2" height="2127.2" rx="1063.6" ry="1063.6" id="XpyLSWEy7z2Q_pad-12"/><rect x="-1216" y="-1063.6" width="2432" height="2127.2" id="XpyLSWEy7z2Q_pad-13"/><rect x="-1216" y="-1063.6" width="2432" height="2127.2" rx="1063.6" ry="1063.6" id="XpyLSWEy7z2Q_pad-14"/><circle cx="0" cy="0" r="1800" id="XpyLSWEy7z2Q_pad-15"/><rect x="-850" y="-850" width="1700" height="1700" id="XpyLSWEy7z2Q_pad-16"/><circle cx="0" cy="0" r="850" id="XpyLSWEy7z2Q_pad-17"/><circle cx="0" cy="0" r="1199.49" id="XpyLSWEy7z2Q_pad-18"/><rect x="-1199.49" y="-1199.49" width="2398.98" height="2398.98" id="XpyLSWEy7z2Q_pad-19"/><rect x="-1470" y="-1470" width="2940" height="2940" id="XpyLSWEy7z2Q_pad-20"/><circle cx="0" cy="0" r="1470" id="XpyLSWEy7z2Q_pad-21"/><rect x="-1449.68" y="-950.57" width="2899.36" height="1901.14" rx="950.57" ry="950.57" id="XpyLSWEy7z2Q_pad-22"/><rect x="-1063.6" y="-1216" width="2127.2" height="2432" rx="1063.6" ry="1063.6" id="XpyLSWEy7z2Q_pad-23"/><rect x="-1063.6" y="-1216" width="2127.2" height="2432" id="XpyLSWEy7z2Q_pad-24"/><circle cx="0" cy="0" r="898.5" id="XpyLSWEy7z2Q_pad-25"/><circle cx="0" cy="0" r="1200" id="XpyLSWEy7z2Q_pad-26"/><rect x="-863.6" y="-863.6" width="1727.2" height="1727.2" id="o3ewtNCSRej1_pad-11"/><rect x="-863.6" y="-863.6" width="1727.2" height="1727.2" rx="863.6" ry="863.6" id="o3ewtNCSRej1_pad-12"/><rect x="-1016" y="-863.6" width="2032" height="1727.2" id="o3ewtNCSRej1_pad-13"/><rect x="-1016" y="-863.6" width="2032" height="1727.2" rx="863.6" ry="863.6" id="o3ewtNCSRej1_pad-14"/><rect x="-650" y="-650" width="1300" height="1300" id="o3ewtNCSRej1_pad-15"/><circle cx="0" cy="0" r="650" id="o3ewtNCSRej1_pad-16"/><circle cx="0" cy="0" r="999.49" id="o3ewtNCSRej1_pad-17"/><rect x="-999.49" y="-999.49" width="1998.98" height="1998.98" id="o3ewtNCSRej1_pad-18"/><rect x="-1270" y="-1270" width="2540" height="2540" id="o3ewtNCSRej1_pad-19"/><circle cx="0" cy="0" r="1270" id="o3ewtNCSRej1_pad-20"/><rect x="-1249.68" y="-750.57" width="2499.36" height="1501.14" rx="750.57" ry="750.57" id="o3ewtNCSRej1_pad-21"/><rect x="-863.6" y="-1016" width="1727.2" height="2032" rx="863.6" ry="863.6" id="o3ewtNCSRej1_pad-22"/><rect x="-863.6" y="-1016" width="1727.2" height="2032" id="o3ewtNCSRej1_pad-23"/><circle cx="0" cy="0" r="698.5" id="o3ewtNCSRej1_pad-24"/><circle cx="0" cy="0" r="1000" id="o3ewtNCSRej1_pad-25"/><circle cx="0" cy="0" r="342.9" id="o3ewtNCSRej1_pad-26"/><rect x="-863.6" y="-863.6" width="1727.2" height="1727.2" id="o3ewtNCSRej1_pad-11"/><rect x="-863.6" y="-863.6" width="1727.2" height="1727.2" rx="863.6" ry="863.6" id="o3ewtNCSRej1_pad-12"/><rect x="-1016" y="-863.6" width="2032" height="1727.2" id="o3ewtNCSRej1_pad-13"/><rect x="-1016" y="-863.6" width="2032" height="1727.2" rx="863.6" ry="863.6" id="o3ewtNCSRej1_pad-14"/><rect x="-650" y="-650" width="1300" height="1300" id="o3ewtNCSRej1_pad-15"/><circle cx="0" cy="0" r="650" id="o3ewtNCSRej1_pad-16"/><circle cx="0" cy="0" r="999.49" id="o3ewtNCSRej1_pad-17"/><rect x="-999.49" y="-999.49" width="1998.98" height="1998.98" id="o3ewtNCSRej1_pad-18"/><rect x="-1270" y="-1270" width="2540" height="2540" id="o3ewtNCSRej1_pad-19"/><circle cx="0" cy="0" r="1270" id="o3ewtNCSRej1_pad-20"/><rect x="-1249.68" y="-750.57" width="2499.36" height="1501.14" rx="750.57" ry="750.57" id="o3ewtNCSRej1_pad-21"/><rect x="-863.6" y="-1016" width="1727.2" height="2032" rx="863.6" ry="863.6" id="o3ewtNCSRej1_pad-22"/><rect x="-863.6" y="-1016" width="1727.2" height="2032" id="o3ewtNCSRej1_pad-23"/><circle cx="0" cy="0" r="698.5" id="o3ewtNCSRej1_pad-24"/><circle cx="0" cy="0" r="1000" id="o3ewtNCSRej1_pad-25"/><circle cx="0" cy="0" r="342.9" id="o3ewtNCSRej1_pad-26"/><rect x="-1063.6" y="-1063.6" width="2127.2" height="2127.2" id="XpyLSWEy7z2Q_pad-11"/><rect x="-1063.6" y="-1063.6" width="2127.2" height="2127.2" rx="1063.6" ry="1063.6" id="XpyLSWEy7z2Q_pad-12"/><rect x="-1216" y="-1063.6" width="2432" height="2127.2" id="XpyLSWEy7z2Q_pad-13"/><rect x="-1216" y="-1063.6" width="2432" height="2127.2" rx="1063.6" ry="1063.6" id="XpyLSWEy7z2Q_pad-14"/><circle cx="0" cy="0" r="1800" id="XpyLSWEy7z2Q_pad-15"/><rect x="-850" y="-850" width="1700" height="1700" id="XpyLSWEy7z2Q_pad-16"/><circle cx="0" cy="0" r="850" id="XpyLSWEy7z2Q_pad-17"/><circle cx="0" cy="0" r="1199.49" id="XpyLSWEy7z2Q_pad-18"/><rect x="-1199.49" y="-1199.49" width="2398.98" height="2398.98" id="XpyLSWEy7z2Q_pad-19"/><rect x="-1470" y="-1470" width="2940" height="2940" id="XpyLSWEy7z2Q_pad-20"/><circle cx="0" cy="0" r="1470" id="XpyLSWEy7z2Q_pad-21"/><rect x="-1449.68" y="-950.57" width="2899.36" height="1901.14" rx="950.57" ry="950.57" id="XpyLSWEy7z2Q_pad-22"/><rect x="-1063.6" y="-1216" width="2127.2" height="2432" rx="1063.6" ry="1063.6" id="XpyLSWEy7z2Q_pad-23"/><rect x="-1063.6" y="-1216" width="2127.2" height="2432" id="XpyLSWEy7z2Q_pad-24"/><circle cx="0" cy="0" r="898.5" id="XpyLSWEy7z2Q_pad-25"/><circle cx="0" cy="0" r="1200" id="XpyLSWEy7z2Q_pad-26"/><circle cx="0" cy="0" r="165" id="AarEUQSL.zqg_pad-1"/><circle cx="0" cy="0" r="400" id="AarEUQSL.zqg_pad-2"/><circle cx="0" cy="0" r="400" id="AarEUQSL.zqg_pad-3"/><circle cx="0" cy="0" r="406.5" id="AarEUQSL.zqg_pad-4"/><circle cx="0" cy="0" r="500.5" id="AarEUQSL.zqg_pad-5"/><circle cx="0" cy="0" r="508" id="AarEUQSL.zqg_pad-6"/><circle cx="0" cy="0" r="550" id="AarEUQSL.zqg_pad-7"/><circle cx="0" cy="0" r="635" id="AarEUQSL.zqg_pad-8"/><circle cx="0" cy="0" r="762" id="AarEUQSL.zqg_pad-9"/><circle cx="0" cy="0" r="1600" id="AarEUQSL.zqg_pad-10"/><g id="pcb-stackup_top_cu"><use xlink:href="#o3ewtNCSRej1_pad-11" x="26670" y="-42888"/><use xlink:href="#o3ewtNCSRej1_pad-12" x="26670" y="-45428"/><use xlink:href="#o3ewtNCSRej1_pad-12" x="29210" y="-42888"/><use xlink:href="#o3ewtNCSRej1_pad-12" x="29210" y="-45428"/><use xlink:href="#o3ewtNCSRej1_pad-12" x="31750" y="-42888"/><use xlink:href="#o3ewtNCSRej1_pad-12" x="31750" y="-45428"/><use xlink:href="#o3ewtNCSRej1_pad-12" x="34290" y="-42888"/><use xlink:href="#o3ewtNCSRej1_pad-12" x="34290" y="-45428"/><use xlink:href="#o3ewtNCSRej1_pad-13" x="15240" y="-19520"/><use xlink:href="#o3ewtNCSRej1_pad-14" x="15240" y="-22060"/><use xlink:href="#o3ewtNCSRej1_pad-14" x="15240" y="-24600"/><use xlink:href="#o3ewtNCSRej1_pad-14" x="15240" y="-27140"/><use xlink:href="#o3ewtNCSRej1_pad-14" x="15240" y="-29680"/><use xlink:href="#o3ewtNCSRej1_pad-14" x="15240" y="-32220"/><use xlink:href="#o3ewtNCSRej1_pad-14" x="15240" y="-34760"/><use xlink:href="#o3ewtNCSRej1_pad-14" x="15240" y="-37300"/><use xlink:href="#o3ewtNCSRej1_pad-14" x="15240" y="-39840"/><use xlink:href="#o3ewtNCSRej1_pad-14" x="15240" y="-42380"/><use xlink:href="#o3ewtNCSRej1_pad-14" x="15240" y="-44920"/><use xlink:href="#o3ewtNCSRej1_pad-14" x="15240" y="-47460"/><use xlink:href="#o3ewtNCSRej1_pad-13" x="12700" y="-19520"/><use xlink:href="#o3ewtNCSRej1_pad-14" x="12700" y="-22060"/><use xlink:href="#o3ewtNCSRej1_pad-14" x="12700" y="-24600"/><use xlink:href="#o3ewtNCSRej1_pad-14" x="12700" y="-27140"/><use xlink:href="#o3ewtNCSRej1_pad-14" x="12700" y="-29680"/><use xlink:href="#o3ewtNCSRej1_pad-14" x="12700" y="-32220"/><use xlink:href="#o3ewtNCSRej1_pad-14" x="12700" y="-34760"/><use xlink:href="#o3ewtNCSRej1_pad-14" x="12700" y="-37300"/><use xlink:href="#o3ewtNCSRej1_pad-14" x="12700" y="-39840"/><use xlink:href="#o3ewtNCSRej1_pad-14" x="12700" y="-42380"/><use xlink:href="#o3ewtNCSRej1_pad-14" x="12700" y="-44920"/><use xlink:href="#o3ewtNCSRej1_pad-14" x="12700" y="-47460"/><use xlink:href="#o3ewtNCSRej1_pad-13" x="10160" y="-19520"/><use xlink:href="#o3ewtNCSRej1_pad-14" x="10160" y="-22060"/><use xlink:href="#o3ewtNCSRej1_pad-14" x="10160" y="-24600"/><use xlink:href="#o3ewtNCSRej1_pad-14" x="10160" y="-27140"/><use xlink:href="#o3ewtNCSRej1_pad-14" x="10160" y="-29680"/><use xlink:href="#o3ewtNCSRej1_pad-14" x="10160" y="-32220"/><use xlink:href="#o3ewtNCSRej1_pad-14" x="10160" y="-34760"/><use xlink:href="#o3ewtNCSRej1_pad-14" x="10160" y="-37300"/><use xlink:href="#o3ewtNCSRej1_pad-14" x="10160" y="-39840"/><use xlink:href="#o3ewtNCSRej1_pad-14" x="10160" y="-42380"/><use xlink:href="#o3ewtNCSRej1_pad-14" x="10160" y="-44920"/><use xlink:href="#o3ewtNCSRej1_pad-14" x="10160" y="-47460"/><use xlink:href="#o3ewtNCSRej1_pad-13" x="7620" y="-19520"/><use xlink:href="#o3ewtNCSRej1_pad-14" x="7620" y="-22060"/><use xlink:href="#o3ewtNCSRej1_pad-14" x="7620" y="-24600"/><use xlink:href="#o3ewtNCSRej1_pad-14" x="7620" y="-27140"/><use xlink:href="#o3ewtNCSRej1_pad-14" x="7620" y="-29680"/><use xlink:href="#o3ewtNCSRej1_pad-14" x="7620" y="-32220"/><use xlink:href="#o3ewtNCSRej1_pad-14" x="7620" y="-34760"/><use xlink:href="#o3ewtNCSRej1_pad-14" x="7620" y="-37300"/><use xlink:href="#o3ewtNCSRej1_pad-14" x="7620" y="-39840"/><use xlink:href="#o3ewtNCSRej1_pad-14" x="7620" y="-42380"/><use xlink:href="#o3ewtNCSRej1_pad-14" x="7620" y="-44920"/><use xlink:href="#o3ewtNCSRej1_pad-14" x="7620" y="-47460"/><use xlink:href="#o3ewtNCSRej1_pad-13" x="5080" y="-19520"/><use xlink:href="#o3ewtNCSRej1_pad-14" x="5080" y="-22060"/><use xlink:href="#o3ewtNCSRej1_pad-14" x="5080" y="-24600"/><use xlink:href="#o3ewtNCSRej1_pad-14" x="5080" y="-27140"/><use xlink:href="#o3ewtNCSRej1_pad-14" x="5080" y="-29680"/><use xlink:href="#o3ewtNCSRej1_pad-14" x="5080" y="-32220"/><use xlink:href="#o3ewtNCSRej1_pad-14" x="5080" y="-34760"/><use xlink:href="#o3ewtNCSRej1_pad-14" x="5080" y="-37300"/><use xlink:href="#o3ewtNCSRej1_pad-14" x="5080" y="-39840"/><use xlink:href="#o3ewtNCSRej1_pad-14" x="5080" y="-42380"/><use xlink:href="#o3ewtNCSRej1_pad-14" x="17780" y="-47460"/><use xlink:href="#o3ewtNCSRej1_pad-14" x="17780" y="-44920"/><use xlink:href="#o3ewtNCSRej1_pad-14" x="17780" y="-42380"/><use xlink:href="#o3ewtNCSRej1_pad-14" x="17780" y="-39840"/><use xlink:href="#o3ewtNCSRej1_pad-14" x="17780" y="-37300"/><use xlink:href="#o3ewtNCSRej1_pad-14" x="17780" y="-34760"/><use xlink:href="#o3ewtNCSRej1_pad-14" x="17780" y="-32220"/><use xlink:href="#o3ewtNCSRej1_pad-14" x="17780" y="-29680"/><use xlink:href="#o3ewtNCSRej1_pad-14" x="17780" y="-27140"/><use xlink:href="#o3ewtNCSRej1_pad-14" x="17780" y="-24600"/><use xlink:href="#o3ewtNCSRej1_pad-14" x="17780" y="-22060"/><use xlink:href="#o3ewtNCSRej1_pad-13" x="17780" y="-19520"/><use xlink:href="#o3ewtNCSRej1_pad-14" x="2540" y="-42380"/><use xlink:href="#o3ewtNCSRej1_pad-14" x="2540" y="-39840"/><use xlink:href="#o3ewtNCSRej1_pad-14" x="2540" y="-37300"/><use xlink:href="#o3ewtNCSRej1_pad-14" x="2540" y="-34760"/><use xlink:href="#o3ewtNCSRej1_pad-14" x="2540" y="-32220"/><use xlink:href="#o3ewtNCSRej1_pad-14" x="2540" y="-29680"/><use xlink:href="#o3ewtNCSRej1_pad-14" x="2540" y="-27140"/><use xlink:href="#o3ewtNCSRej1_pad-14" x="2540" y="-24600"/><use xlink:href="#o3ewtNCSRej1_pad-14" x="2540" y="-22060"/><use xlink:href="#o3ewtNCSRej1_pad-13" x="2540" y="-19520"/><use xlink:href="#o3ewtNCSRej1_pad-15" x="43942" y="-40308"/><use xlink:href="#o3ewtNCSRej1_pad-16" x="43942" y="-37808"/><use xlink:href="#o3ewtNCSRej1_pad-17" x="27178" y="-1486"/><use xlink:href="#o3ewtNCSRej1_pad-18" x="27178" y="-11646"/><use xlink:href="#o3ewtNCSRej1_pad-19" x="11176" y="-4280"/><use xlink:href="#o3ewtNCSRej1_pad-20" x="16256" y="-4280"/><use xlink:href="#o3ewtNCSRej1_pad-20" x="21336" y="-4280"/><use xlink:href="#o3ewtNCSRej1_pad-13" x="2540" y="-10376"/><use xlink:href="#o3ewtNCSRej1_pad-14" x="2540" y="-12916"/><use xlink:href="#o3ewtNCSRej1_pad-14" x="2540" y="-15456"/><use xlink:href="#o3ewtNCSRej1_pad-21" x="45720" y="-11900"/><use xlink:href="#o3ewtNCSRej1_pad-21" x="45720" y="-9360"/><use xlink:href="#o3ewtNCSRej1_pad-21" x="45720" y="-14440"/><use xlink:href="#o3ewtNCSRej1_pad-16" x="37592" y="-11392"/><use xlink:href="#o3ewtNCSRej1_pad-15" x="37592" y="-14892"/><use xlink:href="#o3ewtNCSRej1_pad-22" x="22098" y="-10884"/><use xlink:href="#o3ewtNCSRej1_pad-22" x="19558" y="-10884"/><use xlink:href="#o3ewtNCSRej1_pad-23" x="17018" y="-10884"/><use xlink:href="#o3ewtNCSRej1_pad-23" x="17018" y="-15456"/><use xlink:href="#o3ewtNCSRej1_pad-22" x="19558" y="-15456"/><use xlink:href="#o3ewtNCSRej1_pad-22" x="22098" y="-15456"/><use xlink:href="#o3ewtNCSRej1_pad-22" x="12192" y="-10884"/><use xlink:href="#o3ewtNCSRej1_pad-22" x="9652" y="-10884"/><use xlink:href="#o3ewtNCSRej1_pad-23" x="7112" y="-10884"/><use xlink:href="#o3ewtNCSRej1_pad-23" x="7112" y="-15456"/><use xlink:href="#o3ewtNCSRej1_pad-22" x="9652" y="-15456"/><use xlink:href="#o3ewtNCSRej1_pad-22" x="12192" y="-15456"/><use xlink:href="#o3ewtNCSRej1_pad-24" x="33020" y="-32728"/><use xlink:href="#o3ewtNCSRej1_pad-24" x="33020" y="-35268"/><use xlink:href="#o3ewtNCSRej1_pad-25" x="40744" y="-33236"/><use xlink:href="#o3ewtNCSRej1_pad-25" x="40744" y="-28736"/><use xlink:href="#o3ewtNCSRej1_pad-25" x="47244" y="-33236"/><use xlink:href="#o3ewtNCSRej1_pad-25" x="47244" y="-28736"/><use xlink:href="#o3ewtNCSRej1_pad-25" x="40665.4" y="-24600"/><use xlink:href="#o3ewtNCSRej1_pad-25" x="40665.4" y="-20100"/><use xlink:href="#o3ewtNCSRej1_pad-25" x="47165.4" y="-24600"/><use xlink:href="#o3ewtNCSRej1_pad-25" x="47165.4" y="-20100"/><use xlink:href="#o3ewtNCSRej1_pad-20" x="38608" y="-4280"/><use xlink:href="#o3ewtNCSRej1_pad-19" x="33528" y="-4280"/><use xlink:href="#o3ewtNCSRej1_pad-17" x="26924" y="-25108"/><use xlink:href="#o3ewtNCSRej1_pad-17" x="26924" y="-14948"/><use xlink:href="#o3ewtNCSRej1_pad-17" x="29972" y="-14948"/><use xlink:href="#o3ewtNCSRej1_pad-17" x="29972" y="-25108"/><use xlink:href="#o3ewtNCSRej1_pad-17" x="34036" y="-17996"/><use xlink:href="#o3ewtNCSRej1_pad-17" x="34036" y="-28156"/><use xlink:href="#o3ewtNCSRej1_pad-15" x="38360" y="-45300"/><use xlink:href="#o3ewtNCSRej1_pad-16" x="40860" y="-45300"/><use xlink:href="#o3ewtNCSRej1_pad-26" x="20154.899" y="-20447.101"/><use xlink:href="#o3ewtNCSRej1_pad-26" x="19812" y="-23330"/><use xlink:href="#o3ewtNCSRej1_pad-26" x="27432" y="-40856"/><use xlink:href="#o3ewtNCSRej1_pad-26" x="26416" y="-29172"/><use xlink:href="#o3ewtNCSRej1_pad-26" x="27686" y="-27902"/><use xlink:href="#o3ewtNCSRej1_pad-26" x="33274" y="-46698"/><use xlink:href="#o3ewtNCSRej1_pad-26" x="35306" y="-37046"/><use xlink:href="#o3ewtNCSRej1_pad-26" x="37338" y="-35014"/><path d="M 26924 -39840 27178 -39840" fill="none" stroke-width="254"/><path d="M 38360 -45300 37202 -45300 36466.401 -44564.401 36444.799 -44564.401" fill="none" stroke-width="508"/><path d="M 35245.041 -6108.801 41036.24 -11900 45720 -11900 M 34290 -45428 35153.599 -44564.401 36444.799 -44564.401 40701.2 -40308 M 35594.291 -35201.091 40701.2 -40308 43942 -40308 M 33020 -35268 34007.828 -35268 34074.737 -35201.091 35594.291 -35201.091 M 15240 -19520 17780 -19520 M 12700 -19520 15240 -19520 M 34036 -17996 35594.291 -19554.291 35594.291 -35201.091 M 29972 -14948 30988 -14948 34036 -17996 M 26924 -14948 29972 -14948 M 22352 -6108.801 21640.799 -6108.801 M 35245.041 -6108.801 22352 -6108.801 M 25924.511 -13948.511 26924 -14948 M 22352 -6108.801 23520.41 -7277.211 23520.41 -11544.41 25924.511 -13948.511 M 17018 -10884 17018 -15456 M 7112 -10884 7112 -15456 M 15087.601 -6108.801 11734.799 -6108.801 7112 -10731.6 7112 -10884 M 21640.799 -6108.801 15087.601 -6108.801 13258.8 -4280 11176 -4280 M 21640.799 -6108.801 17018 -10731.6 17018 -10884 M 33528 -4280 33528 -2197.2 32816.8 -1486 28591.492 -1486 27178 -1486" fill="none" stroke-width="812.8"/><path d="M 2540 -12916 1270 -12916 1244.59 -12941.41 1244.59 -46026.104 3821.496 -48603.01 23494.99 -48603.01 25806.401 -46291.599 26670 -45428 M 2540 -15456 3810 -15456 M 28828.999 -44284.999 32893.001 -44284.999 M 3810 -15456 6730.999 -18376.999 19019.521 -18376.999 M 28066.999 -43522.999 28828.999 -44284.999 M 19019.521 -18376.999 19075.401 -18432.879 19075.401 -20607.121 28066.999 -29598.719 28066.999 -43522.999 M 32893.001 -44284.999 33426.401 -43751.599 34290 -42888" fill="none" stroke-width="254"/><path d="M 37592 -14892 45268 -14892 45720 -14440 45720 -14250.852 M 37592 -14892 37592 -13429.2 M 27178 -11646 35808.8 -11646 37592 -13429.2" fill="none" stroke-width="812.8"/><path d="M 20154.899 -20447.101 20154.899 -17754.701 20929.6 -16980 M 19710.4 -43142 19710.4 -23431.6 19812 -23330 M 17932.4 -44920 19710.4 -43142 M 17780 -44920 17932.4 -44920 M 16256 -4280 14706.599 -2730.599 M 5968.999 -6439.001 5968.999 -16695.521 M 14706.599 -2730.599 9677.401 -2730.599 5968.999 -6439.001 M 5968.999 -16695.521 6024.879 -16751.401 8508.999 -16751.401 9652 -15608.4 9652 -15456 9652 -14186 9652 -10884 M 19558 -15456 19558 -15608.4 M 18414.99 -16751.41 10795.01 -16751.41 M 19558 -15608.4 18414.99 -16751.41 M 10795.01 -16751.41 9652 -15608.4 M 19558 -15456 19558 -10884 M 31127.24 -16980 20929.6 -16980 19558 -15608.4 M 34036 -28156 34036 -19888.76 31127.24 -16980 M 29210 -42888 29210 -32982 34036 -28156 M 26416 -29172 27584.41 -30340.41 27584.41 -40703.59 27432 -40856 M 29972 -25108 27686 -27394 27686 -27902 M 17780 -47460 20955.001 -44284.999 27218.641 -44284.999 27813.001 -44879.359 M 28448 -46698 33274 -46698 M 27813.001 -44879.359 27813.001 -46063.001 28448 -46698 M 35306 -37046 34821.067 -37046 M 31750 -41666.686 31750 -42888 M 34821.067 -37046 31750 -40117.067 31750 -41666.686 M 40744 -33236 39116 -33236 37338 -35014" fill="none" stroke-width="254"/><path d="M 47244 -33236 40744 -33236 M 47165.4 -24600 40665.4 -24600" fill="none" stroke-width="812.8"/></g><g id="pcb-stackup_top_sm"><use xlink:href="#XpyLSWEy7z2Q_pad-11" x="26670" y="-42888"/><use xlink:href="#XpyLSWEy7z2Q_pad-12" x="26670" y="-45428"/><use xlink:href="#XpyLSWEy7z2Q_pad-12" x="29210" y="-42888"/><use xlink:href="#XpyLSWEy7z2Q_pad-12" x="29210" y="-45428"/><use xlink:href="#XpyLSWEy7z2Q_pad-12" x="31750" y="-42888"/><use xlink:href="#XpyLSWEy7z2Q_pad-12" x="31750" y="-45428"/><use xlink:href="#XpyLSWEy7z2Q_pad-12" x="34290" y="-42888"/><use xlink:href="#XpyLSWEy7z2Q_pad-12" x="34290" y="-45428"/><use xlink:href="#XpyLSWEy7z2Q_pad-13" x="15240" y="-19520"/><use xlink:href="#XpyLSWEy7z2Q_pad-14" x="15240" y="-22060"/><use xlink:href="#XpyLSWEy7z2Q_pad-14" x="15240" y="-24600"/><use xlink:href="#XpyLSWEy7z2Q_pad-14" x="15240" y="-27140"/><use xlink:href="#XpyLSWEy7z2Q_pad-14" x="15240" y="-29680"/><use xlink:href="#XpyLSWEy7z2Q_pad-14" x="15240" y="-32220"/><use xlink:href="#XpyLSWEy7z2Q_pad-14" x="15240" y="-34760"/><use xlink:href="#XpyLSWEy7z2Q_pad-14" x="15240" y="-37300"/><use xlink:href="#XpyLSWEy7z2Q_pad-14" x="15240" y="-39840"/><use xlink:href="#XpyLSWEy7z2Q_pad-14" x="15240" y="-42380"/><use xlink:href="#XpyLSWEy7z2Q_pad-14" x="15240" y="-44920"/><use xlink:href="#XpyLSWEy7z2Q_pad-14" x="15240" y="-47460"/><use xlink:href="#XpyLSWEy7z2Q_pad-13" x="12700" y="-19520"/><use xlink:href="#XpyLSWEy7z2Q_pad-14" x="12700" y="-22060"/><use xlink:href="#XpyLSWEy7z2Q_pad-14" x="12700" y="-24600"/><use xlink:href="#XpyLSWEy7z2Q_pad-14" x="12700" y="-27140"/><use xlink:href="#XpyLSWEy7z2Q_pad-14" x="12700" y="-29680"/><use xlink:href="#XpyLSWEy7z2Q_pad-14" x="12700" y="-32220"/><use xlink:href="#XpyLSWEy7z2Q_pad-14" x="12700" y="-34760"/><use xlink:href="#XpyLSWEy7z2Q_pad-14" x="12700" y="-37300"/><use xlink:href="#XpyLSWEy7z2Q_pad-14" x="12700" y="-39840"/><use xlink:href="#XpyLSWEy7z2Q_pad-14" x="12700" y="-42380"/><use xlink:href="#XpyLSWEy7z2Q_pad-14" x="12700" y="-44920"/><use xlink:href="#XpyLSWEy7z2Q_pad-14" x="12700" y="-47460"/><use xlink:href="#XpyLSWEy7z2Q_pad-13" x="10160" y="-19520"/><use xlink:href="#XpyLSWEy7z2Q_pad-14" x="10160" y="-22060"/><use xlink:href="#XpyLSWEy7z2Q_pad-14" x="10160" y="-24600"/><use xlink:href="#XpyLSWEy7z2Q_pad-14" x="10160" y="-27140"/><use xlink:href="#XpyLSWEy7z2Q_pad-14" x="10160" y="-29680"/><use xlink:href="#XpyLSWEy7z2Q_pad-14" x="10160" y="-32220"/><use xlink:href="#XpyLSWEy7z2Q_pad-14" x="10160" y="-34760"/><use xlink:href="#XpyLSWEy7z2Q_pad-14" x="10160" y="-37300"/><use xlink:href="#XpyLSWEy7z2Q_pad-14" x="10160" y="-39840"/><use xlink:href="#XpyLSWEy7z2Q_pad-14" x="10160" y="-42380"/><use xlink:href="#XpyLSWEy7z2Q_pad-14" x="10160" y="-44920"/><use xlink:href="#XpyLSWEy7z2Q_pad-14" x="10160" y="-47460"/><use xlink:href="#XpyLSWEy7z2Q_pad-13" x="7620" y="-19520"/><use xlink:href="#XpyLSWEy7z2Q_pad-14" x="7620" y="-22060"/><use xlink:href="#XpyLSWEy7z2Q_pad-14" x="7620" y="-24600"/><use xlink:href="#XpyLSWEy7z2Q_pad-14" x="7620" y="-27140"/><use xlink:href="#XpyLSWEy7z2Q_pad-14" x="7620" y="-29680"/><use xlink:href="#XpyLSWEy7z2Q_pad-14" x="7620" y="-32220"/><use xlink:href="#XpyLSWEy7z2Q_pad-14" x="7620" y="-34760"/><use xlink:href="#XpyLSWEy7z2Q_pad-14" x="7620" y="-37300"/><use xlink:href="#XpyLSWEy7z2Q_pad-14" x="7620" y="-39840"/><use xlink:href="#XpyLSWEy7z2Q_pad-14" x="7620" y="-42380"/><use xlink:href="#XpyLSWEy7z2Q_pad-14" x="7620" y="-44920"/><use xlink:href="#XpyLSWEy7z2Q_pad-14" x="7620" y="-47460"/><use xlink:href="#XpyLSWEy7z2Q_pad-13" x="5080" y="-19520"/><use xlink:href="#XpyLSWEy7z2Q_pad-14" x="5080" y="-22060"/><use xlink:href="#XpyLSWEy7z2Q_pad-14" x="5080" y="-24600"/><use xlink:href="#XpyLSWEy7z2Q_pad-14" x="5080" y="-27140"/><use xlink:href="#XpyLSWEy7z2Q_pad-14" x="5080" y="-29680"/><use xlink:href="#XpyLSWEy7z2Q_pad-14" x="5080" y="-32220"/><use xlink:href="#XpyLSWEy7z2Q_pad-14" x="5080" y="-34760"/><use xlink:href="#XpyLSWEy7z2Q_pad-14" x="5080" y="-37300"/><use xlink:href="#XpyLSWEy7z2Q_pad-14" x="5080" y="-39840"/><use xlink:href="#XpyLSWEy7z2Q_pad-14" x="5080" y="-42380"/><use xlink:href="#XpyLSWEy7z2Q_pad-14" x="17780" y="-47460"/><use xlink:href="#XpyLSWEy7z2Q_pad-14" x="17780" y="-44920"/><use xlink:href="#XpyLSWEy7z2Q_pad-14" x="17780" y="-42380"/><use xlink:href="#XpyLSWEy7z2Q_pad-14" x="17780" y="-39840"/><use xlink:href="#XpyLSWEy7z2Q_pad-14" x="17780" y="-37300"/><use xlink:href="#XpyLSWEy7z2Q_pad-14" x="17780" y="-34760"/><use xlink:href="#XpyLSWEy7z2Q_pad-14" x="17780" y="-32220"/><use xlink:href="#XpyLSWEy7z2Q_pad-14" x="17780" y="-29680"/><use xlink:href="#XpyLSWEy7z2Q_pad-14" x="17780" y="-27140"/><use xlink:href="#XpyLSWEy7z2Q_pad-14" x="17780" y="-24600"/><use xlink:href="#XpyLSWEy7z2Q_pad-14" x="17780" y="-22060"/><use xlink:href="#XpyLSWEy7z2Q_pad-13" x="17780" y="-19520"/><use xlink:href="#XpyLSWEy7z2Q_pad-14" x="2540" y="-42380"/><use xlink:href="#XpyLSWEy7z2Q_pad-14" x="2540" y="-39840"/><use xlink:href="#XpyLSWEy7z2Q_pad-14" x="2540" y="-37300"/><use xlink:href="#XpyLSWEy7z2Q_pad-14" x="2540" y="-34760"/><use xlink:href="#XpyLSWEy7z2Q_pad-14" x="2540" y="-32220"/><use xlink:href="#XpyLSWEy7z2Q_pad-14" x="2540" y="-29680"/><use xlink:href="#XpyLSWEy7z2Q_pad-14" x="2540" y="-27140"/><use xlink:href="#XpyLSWEy7z2Q_pad-14" x="2540" y="-24600"/><use xlink:href="#XpyLSWEy7z2Q_pad-14" x="2540" y="-22060"/><use xlink:href="#XpyLSWEy7z2Q_pad-13" x="2540" y="-19520"/><use xlink:href="#XpyLSWEy7z2Q_pad-15" x="46000" y="-4000"/><use xlink:href="#XpyLSWEy7z2Q_pad-15" x="4000" y="-4000"/><use xlink:href="#XpyLSWEy7z2Q_pad-15" x="4000" y="-46000"/><use xlink:href="#XpyLSWEy7z2Q_pad-16" x="43942" y="-40308"/><use xlink:href="#XpyLSWEy7z2Q_pad-17" x="43942" y="-37808"/><use xlink:href="#XpyLSWEy7z2Q_pad-18" x="27178" y="-1486"/><use xlink:href="#XpyLSWEy7z2Q_pad-19" x="27178" y="-11646"/><use xlink:href="#XpyLSWEy7z2Q_pad-20" x="11176" y="-4280"/><use xlink:href="#XpyLSWEy7z2Q_pad-21" x="16256" y="-4280"/><use xlink:href="#XpyLSWEy7z2Q_pad-21" x="21336" y="-4280"/><use xlink:href="#XpyLSWEy7z2Q_pad-13" x="2540" y="-10376"/><use xlink:href="#XpyLSWEy7z2Q_pad-14" x="2540" y="-12916"/><use xlink:href="#XpyLSWEy7z2Q_pad-14" x="2540" y="-15456"/><use xlink:href="#XpyLSWEy7z2Q_pad-22" x="45720" y="-11900"/><use xlink:href="#XpyLSWEy7z2Q_pad-22" x="45720" y="-9360"/><use xlink:href="#XpyLSWEy7z2Q_pad-22" x="45720" y="-14440"/><use xlink:href="#XpyLSWEy7z2Q_pad-15" x="46000" y="-46000"/><use xlink:href="#XpyLSWEy7z2Q_pad-17" x="37592" y="-11392"/><use xlink:href="#XpyLSWEy7z2Q_pad-16" x="37592" y="-14892"/><use xlink:href="#XpyLSWEy7z2Q_pad-23" x="22098" y="-10884"/><use xlink:href="#XpyLSWEy7z2Q_pad-23" x="19558" y="-10884"/><use xlink:href="#XpyLSWEy7z2Q_pad-24" x="17018" y="-10884"/><use xlink:href="#XpyLSWEy7z2Q_pad-24" x="17018" y="-15456"/><use xlink:href="#XpyLSWEy7z2Q_pad-23" x="19558" y="-15456"/><use xlink:href="#XpyLSWEy7z2Q_pad-23" x="22098" y="-15456"/><use xlink:href="#XpyLSWEy7z2Q_pad-23" x="12192" y="-10884"/><use xlink:href="#XpyLSWEy7z2Q_pad-23" x="9652" y="-10884"/><use xlink:href="#XpyLSWEy7z2Q_pad-24" x="7112" y="-10884"/><use xlink:href="#XpyLSWEy7z2Q_pad-24" x="7112" y="-15456"/><use xlink:href="#XpyLSWEy7z2Q_pad-23" x="9652" y="-15456"/><use xlink:href="#XpyLSWEy7z2Q_pad-23" x="12192" y="-15456"/><use xlink:href="#XpyLSWEy7z2Q_pad-25" x="33020" y="-32728"/><use xlink:href="#XpyLSWEy7z2Q_pad-25" x="33020" y="-35268"/><use xlink:href="#XpyLSWEy7z2Q_pad-26" x="40744" y="-33236"/><use xlink:href="#XpyLSWEy7z2Q_pad-26" x="40744" y="-28736"/><use xlink:href="#XpyLSWEy7z2Q_pad-26" x="47244" y="-33236"/><use xlink:href="#XpyLSWEy7z2Q_pad-26" x="47244" y="-28736"/><use xlink:href="#XpyLSWEy7z2Q_pad-26" x="40665.4" y="-24600"/><use xlink:href="#XpyLSWEy7z2Q_pad-26" x="40665.4" y="-20100"/><use xlink:href="#XpyLSWEy7z2Q_pad-26" x="47165.4" y="-24600"/><use xlink:href="#XpyLSWEy7z2Q_pad-26" x="47165.4" y="-20100"/><use xlink:href="#XpyLSWEy7z2Q_pad-21" x="38608" y="-4280"/><use xlink:href="#XpyLSWEy7z2Q_pad-20" x="33528" y="-4280"/><use xlink:href="#XpyLSWEy7z2Q_pad-18" x="26924" y="-25108"/><use xlink:href="#XpyLSWEy7z2Q_pad-18" x="26924" y="-14948"/><use xlink:href="#XpyLSWEy7z2Q_pad-18" x="29972" y="-14948"/><use xlink:href="#XpyLSWEy7z2Q_pad-18" x="29972" y="-25108"/><use xlink:href="#XpyLSWEy7z2Q_pad-18" x="34036" y="-17996"/><use xlink:href="#XpyLSWEy7z2Q_pad-18" x="34036" y="-28156"/><use xlink:href="#XpyLSWEy7z2Q_pad-16" x="38360" y="-45300"/><use xlink:href="#XpyLSWEy7z2Q_pad-17" x="40860" y="-45300"/></g><g id="pcb-stackup_top_ss"><path d="M 17399.047 -18321.428 18160.952 -18321.428 M 17780 -18702.38 17780 -17940.476 M 14859.047 -18321.428 15620.952 -18321.428 M 15240 -18702.38 15240 -17940.476 M 12319.047 -18321.428 13080.952 -18321.428 M 12700 -18702.38 12700 -17940.476 M 7239.047 -18321.428 8000.952 -18321.428 M 4699.047 -18321.428 5460.952 -18321.428 M 2159.047 -18321.428 2920.952 -18321.428 M 7473.428 -9141.714 7854.38 -9141.714 M 7663.904 -9332.19 7663.904 -8951.238 M 9235.333 -9332.19 9235.333 -8832.19 9354.38 -8832.19 9425.809 -8856 9473.428 -8903.619 9497.238 -8951.238 9521.047 -9046.476 9521.047 -9117.904 9497.238 -9213.142 9473.428 -9260.761 9425.809 -9308.38 9354.38 -9332.19 9235.333 -9332.19 M 9687.714 -8832.19 9806.761 -9332.19 9902 -8975.047 9997.238 -9332.19 10116.285 -8832.19 M 11449.619 -9141.714 11830.571 -9141.714 M 7473.428 -13713.714 7854.38 -13713.714 M 7663.904 -13904.19 7663.904 -13523.238 M 9235.333 -13904.19 9235.333 -13404.19 9354.38 -13404.19 9425.809 -13428 9473.428 -13475.619 9497.238 -13523.238 9521.047 -13618.476 9521.047 -13689.904 9497.238 -13785.142 9473.428 -13832.761 9425.809 -13880.38 9354.38 -13904.19 9235.333 -13904.19 M 9687.714 -13404.19 9806.761 -13904.19 9902 -13547.047 9997.238 -13904.19 10116.285 -13404.19 M 11449.619 -13713.714 11830.571 -13713.714 M 17379.428 -13713.714 17760.38 -13713.714 M 17569.904 -13904.19 17569.904 -13523.238 M 19141.333 -13904.19 19141.333 -13404.19 19260.38 -13404.19 19331.809 -13428 19379.428 -13475.619 19403.238 -13523.238 19427.047 -13618.476 19427.047 -13689.904 19403.238 -13785.142 19379.428 -13832.761 19331.809 -13880.38 19260.38 -13904.19 19141.333 -13904.19 M 19593.714 -13404.19 19712.761 -13904.19 19808 -13547.047 19903.238 -13904.19 20022.285 -13404.19 M 21355.619 -13713.714 21736.571 -13713.714 M 17379.428 -9141.714 17760.38 -9141.714 M 17569.904 -9332.19 17569.904 -8951.238 M 19141.333 -9332.19 19141.333 -8832.19 19260.38 -8832.19 19331.809 -8856 19379.428 -8903.619 19403.238 -8951.238 19427.047 -9046.476 19427.047 -9117.904 19403.238 -9213.142 19379.428 -9260.761 19331.809 -9308.38 19260.38 -9332.19 19141.333 -9332.19 M 19593.714 -8832.19 19712.761 -9332.19 19808 -8975.047 19903.238 -9332.19 20022.285 -8832.19 M 21355.619 -9141.714 21736.571 -9141.714 M 2159.047 -8161.428 2920.952 -8161.428" fill="none" stroke-width="100"/><path d="M 10604.571 -831.142 11747.428 -831.142 M 11176 -1402.571 11176 -259.714 M 15006 -1656.571 15006 -156.571 15363.142 -156.571 15577.428 -228 15720.285 -370.857 15791.714 -513.714 15863.142 -799.428 15863.142 -1013.714 15791.714 -1299.428 15720.285 -1442.285 15577.428 -1585.142 15363.142 -1656.571 15006 -1656.571 M 16363.142 -156.571 16720.285 -1656.571 17006 -585.142 17291.714 -1656.571 17648.857 -156.571 M 20764.571 -1085.142 21907.428 -1085.142 M 32702.571 -831.142 33845.428 -831.142 M 33274 -1402.571 33274 -259.714 M 38544.571 -1085.142 39687.428 -1085.142 M 4576 -16388.571 4076 -15674.285 M 3718.857 -16388.571 3718.857 -14888.571 4290.285 -14888.571 4433.142 -14960 4504.571 -15031.428 4576 -15174.285 4576 -15388.571 4504.571 -15531.428 4433.142 -15602.857 4290.285 -15674.285 3718.857 -15674.285 M 5076 -14888.571 6076 -16388.571 M 6076 -14888.571 5076 -16388.571 M 3429.142 -12094.571 4286.285 -12094.571 M 3857.714 -13594.571 3857.714 -12094.571 M 4643.428 -12094.571 5643.428 -13594.571 M 5643.428 -12094.571 4643.428 -13594.571" fill="none" stroke-width="300"/><path d="M 22834 -23424 22834 -48424 M 37834 -23424 22834 -23424 M 37834 -48424 37834 -23424 M 22834 -48424 37834 -48424 M 23214 -48124 37514 -48124" fill="none" stroke-width="200"/><path d="M 27940 -41618 35560 -41618 35560 -46698 25400 -46698 25400 -44158 M 26670 -41338 25120 -41338 M 25400 -44158 27940 -44158 27940 -41618 M 25120 -41338 25120 -42888 M 16510 -20790 16510 -48730 13970 -48730 13970 -20790 M 16790 -17970 16790 -19520 M 16510 -20790 13970 -20790 M 13690 -19520 13690 -17970 16790 -17970 M 13970 -20790 13970 -48730 11430 -48730 11430 -20790 M 14250 -17970 14250 -19520 M 13970 -20790 11430 -20790 M 11150 -19520 11150 -17970 14250 -17970 M 11430 -20790 11430 -48730 8890 -48730 8890 -20790 M 11710 -17970 11710 -19520 M 11430 -20790 8890 -20790 M 8610 -19520 8610 -17970 11710 -17970 M 8890 -20790 8890 -48730 6350 -48730 6350 -20790 M 9170 -17970 9170 -19520 M 8890 -20790 6350 -20790 M 6070 -19520 6070 -17970 9170 -17970 M 6350 -20790 6350 -43650 3810 -43650 3810 -20790 M 6630 -17970 6630 -19520 M 6350 -20790 3810 -20790 M 3530 -19520 3530 -17970 6630 -17970 M 16230 -17970 19330 -17970 M 16230 -19520 16230 -17970 M 19050 -20790 16510 -20790 M 19330 -17970 19330 -19520 M 16510 -48730 16510 -20790 M 19050 -48730 16510 -48730 M 19050 -20790 19050 -48730 M 990 -17970 4090 -17970 M 990 -19520 990 -17970 M 3810 -20790 1270 -20790 M 4090 -17970 4090 -19520 M 1270 -43650 1270 -20790 M 3810 -43650 1270 -43650 M 3810 -20790 3810 -43650 M 41443 -38983 46441 -38983 M 41451 -38843 46433 -38843 M 41467 -38703 43847 -38703 M 44037 -38703 46417 -38703 M 41491 -38563 43452 -38563 M 44432 -38563 46393 -38563 M 41524 -38423 43285 -38423 M 44599 -38423 46360 -38423 M 41565 -38283 43178 -38283 M 44706 -38283 46319 -38283 M 41615 -38143 43107 -38143 M 44777 -38143 46269 -38143 M 41676 -38003 43063 -38003 M 44821 -38003 46208 -38003 M 41746 -37863 43044 -37863 M 44840 -37863 46138 -37863 M 41828 -37723 43046 -37723 M 44838 -37723 46056 -37723 M 41923 -37583 43071 -37583 M 44813 -37583 45961 -37583 M 42034 -37443 43119 -37443 M 44765 -37443 45850 -37443 M 42162 -37303 43197 -37303 M 44687 -37303 45722 -37303 M 42311 -37163 43314 -37163 M 44570 -37163 45573 -37163 M 42490 -37023 43502 -37023 M 44382 -37023 45394 -37023 M 42709 -36883 45175 -36883 M 42998 -36743 44886 -36743 M 43470 -36603 44414 -36603 M 44842 -37808 A 900 900 0 0 1 43042 -37808 900 900 0 0 1 44842 -37808 M 46479.5 -39058 A 2537.5 2537.5 0 0 1 41404.5 -39058 2537.5 2537.5 0 0 1 46479.5 -39058 M 27178 -4026 27178 -3010 M 27178 -8852 27178 -10122 M 25908 -8598 28448 -8598 M 25908 -8344 28448 -8344 M 25908 -8090 28448 -8090 M 25908 -8852 28448 -8852 M 25908 -7836 28448 -9106 M 25908 -9106 28448 -7836 M 25908 -7836 28448 -7836 M 25908 -8471 28448 -8471 M 28448 -9106 25908 -9106 25908 -4026 28448 -4026 28448 -9106 M 8636 -8090 8636 -470 M 23876 -8090 23876 -470 M 8636 -6820 23876 -6820 M 8636 -470 23876 -470 M 8636 -8090 23876 -8090 M 1270 -11646 1270 -16726 3810 -16726 3810 -11646 M 4090 -8826 4090 -10376 M 3810 -11646 1270 -11646 M 990 -10376 990 -8826 4090 -8826 M 48768 -10376 47625 -10376 M 48768 -13424 47625 -13424 M 47625 -17234 43942 -17234 43942 -6566 47625 -6566 M 48768 -17234 47625 -17234 47625 -6566 48768 -6566 M 48768 -11900 48768 -6566 M 48768 -11900 48768 -17234 M 33593 -13067 41591 -13067 M 33598 -12927 41586 -12927 M 33608 -12787 41576 -12787 M 33623 -12647 41561 -12647 M 33643 -12507 41541 -12507 M 33668 -12367 37370 -12367 M 37814 -12367 41516 -12367 M 33698 -12227 37042 -12227 M 38142 -12227 41486 -12227 M 33734 -12087 36873 -12087 M 38311 -12087 41450 -12087 M 33775 -11947 36760 -11947 M 38424 -11947 41409 -11947 M 33821 -11807 36682 -11807 M 38502 -11807 41363 -11807 M 33874 -11667 36631 -11667 M 38553 -11667 41310 -11667 M 33933 -11527 36601 -11527 M 38583 -11527 41251 -11527 M 33998 -11387 36592 -11387 M 38592 -11387 41186 -11387 M 34069 -11247 36603 -11247 M 38581 -11247 41115 -11247 M 34148 -11107 36633 -11107 M 38551 -11107 41036 -11107 M 34235 -10967 36687 -10967 M 38497 -10967 40949 -10967 M 34330 -10827 36767 -10827 M 38417 -10827 40854 -10827 M 34434 -10687 36883 -10687 M 38301 -10687 40750 -10687 M 34548 -10547 37057 -10547 M 38127 -10547 40636 -10547 M 34673 -10407 37419 -10407 M 37765 -10407 40511 -10407 M 34811 -10267 40373 -10267 M 34963 -10127 40221 -10127 M 35133 -9987 40051 -9987 M 35324 -9847 39860 -9847 M 35542 -9707 39642 -9707 M 35798 -9567 39386 -9567 M 36109 -9427 39075 -9427 M 36525 -9287 38659 -9287 M 37392 -9147 37792 -9147 M 38592 -11392 A 1000 1000 0 0 1 36592 -11392 1000 1000 0 0 1 38592 -11392 M 41629.5 -13142 A 4037.5 4037.5 0 0 1 33554.5 -13142 4037.5 4037.5 0 0 1 41629.5 -13142 M 18288 -12154 18288 -9614 M 23368 -12154 18288 -12154 M 23368 -9614 23368 -12154 M 18288 -9614 23368 -9614 M 15468 -12434 17018 -12434 M 15468 -9334 15468 -12434 M 17018 -9334 15468 -9334 M 17018 -13906 15468 -13906 15468 -17006 17018 -17006 M 18288 -14186 23368 -14186 23368 -16726 18288 -16726 18288 -14186 M 8382 -12154 8382 -9614 M 13462 -12154 8382 -12154 M 13462 -9614 13462 -12154 M 8382 -9614 13462 -9614 M 5562 -12434 7112 -12434 M 5562 -9334 5562 -12434 M 7112 -9334 5562 -9334 M 7112 -13906 5562 -13906 5562 -17006 7112 -17006 M 8382 -14186 13462 -14186 13462 -16726 8382 -16726 8382 -14186 M 32004 -35268 32004 -32728 M 34036 -35268 34036 -32728 M 32004 -35268 A 1016 1016 0 0 1 33020 -36284 1016 1016 0 0 1 34036 -35268 M 33020 -31712 A 1016 1016 0 0 1 32004 -32728 M 34036 -32728 A 1016 1016 0 0 1 33020 -31712 M 40494 -30236 40494 -31736 M 41744 -34236 46244 -34236 M 47494 -31736 47494 -30236 M 46244 -27736 41744 -27736 M 46009.564 -30986 A 2015.564 2015.564 0 0 1 41978.436 -30986 2015.564 2015.564 0 0 1 46009.564 -30986 M 45930.964 -22350 A 2015.564 2015.564 0 0 1 41899.836 -22350 2015.564 2015.564 0 0 1 45930.964 -22350 M 41665.4 -25600 46165.4 -25600 M 40415.4 -21600 40415.4 -23100 M 46165.4 -19100 41665.4 -19100 M 47415.4 -23100 47415.4 -21600 M 30988 -8090 41148 -8090 M 30988 -470 30988 -8090 M 41148 -470 30988 -470 M 41148 -8090 41148 -470 M 41148 -6820 30988 -6820 M 25654 -22568 25654 -17488 28194 -17488 28194 -22568 25654 -22568 M 26924 -22568 26924 -23838 M 26924 -17488 26924 -16218 M 29972 -17488 29972 -16218 M 29972 -22568 29972 -23838 M 31242 -22568 28702 -22568 M 31242 -17488 31242 -22568 M 28702 -17488 31242 -17488 M 28702 -22568 28702 -17488 M 35306 -20536 35306 -25616 32766 -25616 32766 -20536 35306 -20536 M 34036 -20536 34036 -19266 M 34036 -25616 34036 -26886 M 38110 -44050 41110 -44050 M 41110 -46550 38110 -46550 M 25169.904 -40292.38 25169.904 -39292.38 25550.857 -39292.38 25646.095 -39340 25693.714 -39387.619 25741.333 -39482.857 25741.333 -39625.714 25693.714 -39720.952 25646.095 -39768.571 25550.857 -39816.19 25169.904 -39816.19 M 26693.714 -40292.38 26122.285 -40292.38 M 26408 -40292.38 26408 -39292.38 26312.761 -39435.238 26217.523 -39530.476 26122.285 -39578.095 M 47855.142 -39224.666 47902.761 -39272.285 47950.38 -39415.142 47950.38 -39510.38 47902.761 -39653.238 47807.523 -39748.476 47712.285 -39796.095 47521.809 -39843.714 47378.952 -39843.714 47188.476 -39796.095 47093.238 -39748.476 46998 -39653.238 46950.38 -39510.38 46950.38 -39415.142 46998 -39272.285 47045.619 -39224.666 M 47950.38 -38272.285 47950.38 -38843.714 M 47950.38 -38558 46950.38 -38558 47093.238 -38653.238 47188.476 -38748.476 47236.095 -38843.714 M 29916.38 -6542.095 28916.38 -6542.095 28916.38 -6304 28964 -6161.142 29059.238 -6065.904 29154.476 -6018.285 29344.952 -5970.666 29487.809 -5970.666 29678.285 -6018.285 29773.523 -6065.904 29868.761 -6161.142 29916.38 -6304 29916.38 -6542.095 M 29916.38 -5018.285 29916.38 -5589.714 M 29916.38 -5304 28916.38 -5304 29059.238 -5399.238 29154.476 -5494.476 29202.095 -5589.714 M 13382.666 -3732.38 13382.666 -4446.666 13335.047 -4589.523 13239.809 -4684.761 13096.952 -4732.38 13001.714 -4732.38 M 13811.238 -3827.619 13858.857 -3780 13954.095 -3732.38 14192.19 -3732.38 14287.428 -3780 14335.047 -3827.619 14382.666 -3922.857 14382.666 -4018.095 14335.047 -4160.952 13763.619 -4732.38 14382.666 -4732.38 M 1801.904 -17432.38 1801.904 -16432.38 2182.857 -16432.38 2278.095 -16480 2325.714 -16527.619 2373.333 -16622.857 2373.333 -16765.714 2325.714 -16860.952 2278.095 -16908.571 2182.857 -16956.19 1801.904 -16956.19 M 2754.285 -16527.619 2801.904 -16480 2897.142 -16432.38 3135.238 -16432.38 3230.476 -16480 3278.095 -16527.619 3325.714 -16622.857 3325.714 -16718.095 3278.095 -16860.952 2706.666 -17432.38 3325.714 -17432.38 M 42632.38 -12661.904 43441.904 -12661.904 43537.142 -12614.285 43584.761 -12566.666 43632.38 -12471.428 43632.38 -12280.952 43584.761 -12185.714 43537.142 -12138.095 43441.904 -12090.476 42632.38 -12090.476 M 43632.38 -11090.476 43632.38 -11661.904 M 43632.38 -11376.19 42632.38 -11376.19 42775.238 -11471.428 42870.476 -11566.666 42918.095 -11661.904 M 32649.142 -13308.666 32696.761 -13356.285 32744.38 -13499.142 32744.38 -13594.38 32696.761 -13737.238 32601.523 -13832.476 32506.285 -13880.095 32315.809 -13927.714 32172.952 -13927.714 31982.476 -13880.095 31887.238 -13832.476 31792 -13737.238 31744.38 -13594.38 31744.38 -13499.142 31792 -13356.285 31839.619 -13308.666 M 31839.619 -12927.714 31792 -12880.095 31744.38 -12784.857 31744.38 -12546.761 31792 -12451.523 31839.619 -12403.904 31934.857 -12356.285 32030.095 -12356.285 32172.952 -12403.904 32744.38 -12975.333 32744.38 -12356.285 M 15517.904 -9304.38 15517.904 -8304.38 15898.857 -8304.38 15994.095 -8352 16041.714 -8399.619 16089.333 -8494.857 16089.333 -8637.714 16041.714 -8732.952 15994.095 -8780.571 15898.857 -8828.19 15517.904 -8828.19 M 16422.666 -8304.38 17041.714 -8304.38 16708.38 -8685.333 16851.238 -8685.333 16946.476 -8732.952 16994.095 -8780.571 17041.714 -8875.809 17041.714 -9113.904 16994.095 -9209.142 16946.476 -9256.761 16851.238 -9304.38 16565.523 -9304.38 16470.285 -9256.761 16422.666 -9209.142 M 15517.904 -13876.38 15517.904 -12876.38 15898.857 -12876.38 15994.095 -12924 16041.714 -12971.619 16089.333 -13066.857 16089.333 -13209.714 16041.714 -13304.952 15994.095 -13352.571 15898.857 -13400.19 15517.904 -13400.19 M 16946.476 -13209.714 16946.476 -13876.38 M 16708.38 -12828.761 16470.285 -13543.047 17089.333 -13543.047 M 5357.904 -9304.38 5357.904 -8304.38 5738.857 -8304.38 5834.095 -8352 5881.714 -8399.619 5929.333 -8494.857 5929.333 -8637.714 5881.714 -8732.952 5834.095 -8780.571 5738.857 -8828.19 5357.904 -8828.19 M 6834.095 -8304.38 6357.904 -8304.38 6310.285 -8780.571 6357.904 -8732.952 6453.142 -8685.333 6691.238 -8685.333 6786.476 -8732.952 6834.095 -8780.571 6881.714 -8875.809 6881.714 -9113.904 6834.095 -9209.142 6786.476 -9256.761 6691.238 -9304.38 6453.142 -9304.38 6357.904 -9256.761 6310.285 -9209.142 M 5357.904 -13876.38 5357.904 -12876.38 5738.857 -12876.38 5834.095 -12924 5881.714 -12971.619 5929.333 -13066.857 5929.333 -13209.714 5881.714 -13304.952 5834.095 -13352.571 5738.857 -13400.19 5357.904 -13400.19 M 6786.476 -12876.38 6596 -12876.38 6500.761 -12924 6453.142 -12971.619 6357.904 -13114.476 6310.285 -13304.952 6310.285 -13685.904 6357.904 -13781.142 6405.523 -13828.761 6500.761 -13876.38 6691.238 -13876.38 6786.476 -13828.761 6834.095 -13781.142 6881.714 -13685.904 6881.714 -13447.809 6834.095 -13352.571 6786.476 -13304.952 6691.238 -13257.333 6500.761 -13257.333 6405.523 -13304.952 6357.904 -13352.571 6310.285 -13447.809 M 34392.62 -34861.813 35106.906 -34861.813 35249.763 -34909.432 35345.001 -35004.67 35392.62 -35147.527 35392.62 -35242.765 M 35392.62 -34385.622 34392.62 -34385.622 34392.62 -34004.67 34440.24 -33909.432 34487.859 -33861.813 34583.097 -33814.194 34725.954 -33814.194 34821.192 -33861.813 34868.811 -33909.432 34916.43 -34004.67 34916.43 -34385.622 M 35392.62 -32861.813 35392.62 -33433.241 M 35392.62 -33147.527 34392.62 -33147.527 34535.478 -33242.765 34630.716 -33338.003 34678.335 -33433.241 M 41732.095 -35688.38 41732.095 -34688.38 42113.047 -34688.38 42208.285 -34736 42255.904 -34783.619 42303.523 -34878.857 42303.523 -35021.714 42255.904 -35116.952 42208.285 -35164.571 42113.047 -35212.19 41732.095 -35212.19 M 43303.523 -35688.38 42970.19 -35212.19 M 42732.095 -35688.38 42732.095 -34688.38 43113.047 -34688.38 43208.285 -34736 43255.904 -34783.619 43303.523 -34878.857 43303.523 -35021.714 43255.904 -35116.952 43208.285 -35164.571 43113.047 -35212.19 42732.095 -35212.19 M 43922.571 -34688.38 44113.047 -34688.38 44208.285 -34736 44303.523 -34831.238 44351.142 -35021.714 44351.142 -35355.047 44303.523 -35545.523 44208.285 -35640.761 44113.047 -35688.38 43922.571 -35688.38 43827.333 -35640.761 43732.095 -35545.523 43684.476 -35355.047 43684.476 -35021.714 43732.095 -34831.238 43827.333 -34736 43922.571 -34688.38 M 45303.523 -34736 45208.285 -34688.38 45065.428 -34688.38 44922.571 -34736 44827.333 -34831.238 44779.714 -34926.476 44732.095 -35116.952 44732.095 -35259.809 44779.714 -35450.285 44827.333 -35545.523 44922.571 -35640.761 45065.428 -35688.38 45160.666 -35688.38 45303.523 -35640.761 45351.142 -35593.142 45351.142 -35259.809 45160.666 -35259.809 M 46303.523 -35688.38 45732.095 -35688.38 M 46017.809 -35688.38 46017.809 -34688.38 45922.571 -34831.238 45827.333 -34926.476 45732.095 -34974.095 M 41986.828 -18552.38 41653.495 -18076.19 M 41415.4 -18552.38 41415.4 -17552.38 41796.352 -17552.38 41891.59 -17600 41939.209 -17647.619 41986.828 -17742.857 41986.828 -17885.714 41939.209 -17980.952 41891.59 -18028.571 41796.352 -18076.19 41415.4 -18076.19 M 42415.4 -18028.571 42748.733 -18028.571 M 42891.59 -18552.38 42415.4 -18552.38 42415.4 -17552.38 42891.59 -17552.38 M 43272.542 -18504.761 43415.4 -18552.38 43653.495 -18552.38 43748.733 -18504.761 43796.352 -18457.142 43843.971 -18361.904 43843.971 -18266.666 43796.352 -18171.428 43748.733 -18123.809 43653.495 -18076.19 43463.019 -18028.571 43367.78 -17980.952 43320.161 -17933.333 43272.542 -17838.095 43272.542 -17742.857 43320.161 -17647.619 43367.78 -17600 43463.019 -17552.38 43701.114 -17552.38 43843.971 -17600 M 44272.542 -18028.571 44605.876 -18028.571 M 44748.733 -18552.38 44272.542 -18552.38 44272.542 -17552.38 44748.733 -17552.38 M 45034.447 -17552.38 45605.876 -17552.38 M 45320.161 -18552.38 45320.161 -17552.38 M 46463.019 -18552.38 45891.59 -18552.38 M 46177.304 -18552.38 46177.304 -17552.38 46082.066 -17695.238 45986.828 -17790.476 45891.59 -17838.095 M 35734.666 -722.38 35734.666 -1436.666 35687.047 -1579.523 35591.809 -1674.761 35448.952 -1722.38 35353.714 -1722.38 M 36734.666 -1722.38 36163.238 -1722.38 M 36448.952 -1722.38 36448.952 -722.38 36353.714 -865.238 36258.476 -960.476 36163.238 -1008.095 M 25344.38 -19940.666 24868.19 -20274 M 25344.38 -20512.095 24344.38 -20512.095 24344.38 -20131.142 24392 -20035.904 24439.619 -19988.285 24534.857 -19940.666 24677.714 -19940.666 24772.952 -19988.285 24820.571 -20035.904 24868.19 -20131.142 24868.19 -20512.095 M 25344.38 -18988.285 25344.38 -19559.714 M 25344.38 -19274 24344.38 -19274 24487.238 -19369.238 24582.476 -19464.476 24630.095 -19559.714 M 28392.38 -20194.666 27916.19 -20528 M 28392.38 -20766.095 27392.38 -20766.095 27392.38 -20385.142 27440 -20289.904 27487.619 -20242.285 27582.857 -20194.666 27725.714 -20194.666 27820.952 -20242.285 27868.571 -20289.904 27916.19 -20385.142 27916.19 -20766.095 M 27487.619 -19813.714 27440 -19766.095 27392.38 -19670.857 27392.38 -19432.761 27440 -19337.523 27487.619 -19289.904 27582.857 -19242.285 27678.095 -19242.285 27820.952 -19289.904 28392.38 -19861.333 28392.38 -19242.285 M 32456.38 -23242.666 31980.19 -23576 M 32456.38 -23814.095 31456.38 -23814.095 31456.38 -23433.142 31504 -23337.904 31551.619 -23290.285 31646.857 -23242.666 31789.714 -23242.666 31884.952 -23290.285 31932.571 -23337.904 31980.19 -23433.142 31980.19 -23814.095 M 31456.38 -22909.333 31456.38 -22290.285 31837.333 -22623.619 31837.333 -22480.761 31884.952 -22385.523 31932.571 -22337.904 32027.809 -22290.285 32265.904 -22290.285 32361.142 -22337.904 32408.761 -22385.523 32456.38 -22480.761 32456.38 -22766.476 32408.761 -22861.714 32361.142 -22909.333 M 39443.333 -43157.142 39395.714 -43204.761 39252.857 -43252.38 39157.619 -43252.38 39014.761 -43204.761 38919.523 -43109.523 38871.904 -43014.285 38824.285 -42823.809 38824.285 -42680.952 38871.904 -42490.476 38919.523 -42395.238 39014.761 -42300 39157.619 -42252.38 39252.857 -42252.38 39395.714 -42300 39443.333 -42347.619 M 39776.666 -42252.38 40395.714 -42252.38 40062.38 -42633.333 40205.238 -42633.333 40300.476 -42680.952 40348.095 -42728.571 40395.714 -42823.809 40395.714 -43061.904 40348.095 -43157.142 40300.476 -43204.761 40205.238 -43252.38 39919.523 -43252.38 39824.285 -43204.761 39776.666 -43157.142" fill="none" stroke-width="150"/></g><g id="pcb-stackup_top_drl1"><use xlink:href="#AarEUQSL.zqg_pad-1" x="19812" y="-23330"/><use xlink:href="#AarEUQSL.zqg_pad-1" x="20155" y="-20447"/><use xlink:href="#AarEUQSL.zqg_pad-1" x="26416" y="-29172"/><use xlink:href="#AarEUQSL.zqg_pad-1" x="27432" y="-40856"/><use xlink:href="#AarEUQSL.zqg_pad-1" x="27686" y="-27902"/><use xlink:href="#AarEUQSL.zqg_pad-1" x="33274" y="-46698"/><use xlink:href="#AarEUQSL.zqg_pad-1" x="35306" y="-37046"/><use xlink:href="#AarEUQSL.zqg_pad-1" x="37338" y="-35014"/><use xlink:href="#AarEUQSL.zqg_pad-2" x="37592" y="-11392"/><use xlink:href="#AarEUQSL.zqg_pad-2" x="37592" y="-14892"/><use xlink:href="#AarEUQSL.zqg_pad-2" x="38360" y="-45300"/><use xlink:href="#AarEUQSL.zqg_pad-2" x="43942" y="-37808"/><use xlink:href="#AarEUQSL.zqg_pad-2" x="43942" y="-40308"/><use xlink:href="#AarEUQSL.zqg_pad-3" x="40860" y="-45300"/><use xlink:href="#AarEUQSL.zqg_pad-4" x="33020" y="-32728"/><use xlink:href="#AarEUQSL.zqg_pad-4" x="33020" y="-35268"/><use xlink:href="#AarEUQSL.zqg_pad-5" x="26924" y="-14948"/><use xlink:href="#AarEUQSL.zqg_pad-5" x="26924" y="-25108"/><use xlink:href="#AarEUQSL.zqg_pad-5" x="27178" y="-11646"/><use xlink:href="#AarEUQSL.zqg_pad-5" x="29972" y="-14948"/><use xlink:href="#AarEUQSL.zqg_pad-5" x="29972" y="-25108"/><use xlink:href="#AarEUQSL.zqg_pad-5" x="34036" y="-17996"/><use xlink:href="#AarEUQSL.zqg_pad-5" x="34036" y="-28156"/><use xlink:href="#AarEUQSL.zqg_pad-5" x="45720" y="-9360"/><use xlink:href="#AarEUQSL.zqg_pad-5" x="45720" y="-11900"/><use xlink:href="#AarEUQSL.zqg_pad-5" x="45720" y="-14440"/><use xlink:href="#AarEUQSL.zqg_pad-6" x="2540" y="-10376"/><use xlink:href="#AarEUQSL.zqg_pad-6" x="2540" y="-12916"/><use xlink:href="#AarEUQSL.zqg_pad-6" x="2540" y="-15456"/><use xlink:href="#AarEUQSL.zqg_pad-6" x="2540" y="-19520"/><use xlink:href="#AarEUQSL.zqg_pad-6" x="2540" y="-22060"/><use xlink:href="#AarEUQSL.zqg_pad-6" x="2540" y="-24600"/><use xlink:href="#AarEUQSL.zqg_pad-6" x="2540" y="-27140"/><use xlink:href="#AarEUQSL.zqg_pad-6" x="2540" y="-29680"/><use xlink:href="#AarEUQSL.zqg_pad-6" x="2540" y="-32220"/><use xlink:href="#AarEUQSL.zqg_pad-6" x="2540" y="-34760"/><use xlink:href="#AarEUQSL.zqg_pad-6" x="2540" y="-37300"/><use xlink:href="#AarEUQSL.zqg_pad-6" x="2540" y="-39840"/><use xlink:href="#AarEUQSL.zqg_pad-6" x="2540" y="-42380"/><use xlink:href="#AarEUQSL.zqg_pad-6" x="5080" y="-19520"/><use xlink:href="#AarEUQSL.zqg_pad-6" x="5080" y="-22060"/><use xlink:href="#AarEUQSL.zqg_pad-6" x="5080" y="-24600"/><use xlink:href="#AarEUQSL.zqg_pad-6" x="5080" y="-27140"/><use xlink:href="#AarEUQSL.zqg_pad-6" x="5080" y="-29680"/><use xlink:href="#AarEUQSL.zqg_pad-6" x="5080" y="-32220"/><use xlink:href="#AarEUQSL.zqg_pad-6" x="5080" y="-34760"/><use xlink:href="#AarEUQSL.zqg_pad-6" x="5080" y="-37300"/><use xlink:href="#AarEUQSL.zqg_pad-6" x="5080" y="-39840"/><use xlink:href="#AarEUQSL.zqg_pad-6" x="5080" y="-42380"/><use xlink:href="#AarEUQSL.zqg_pad-6" x="7112" y="-10884"/><use xlink:href="#AarEUQSL.zqg_pad-6" x="7112" y="-15456"/><use xlink:href="#AarEUQSL.zqg_pad-6" x="7620" y="-19520"/><use xlink:href="#AarEUQSL.zqg_pad-6" x="7620" y="-22060"/><use xlink:href="#AarEUQSL.zqg_pad-6" x="7620" y="-24600"/><use xlink:href="#AarEUQSL.zqg_pad-6" x="7620" y="-27140"/><use xlink:href="#AarEUQSL.zqg_pad-6" x="7620" y="-29680"/><use xlink:href="#AarEUQSL.zqg_pad-6" x="7620" y="-32220"/><use xlink:href="#AarEUQSL.zqg_pad-6" x="7620" y="-34760"/><use xlink:href="#AarEUQSL.zqg_pad-6" x="7620" y="-37300"/><use xlink:href="#AarEUQSL.zqg_pad-6" x="7620" y="-39840"/><use xlink:href="#AarEUQSL.zqg_pad-6" x="7620" y="-42380"/><use xlink:href="#AarEUQSL.zqg_pad-6" x="7620" y="-44920"/><use xlink:href="#AarEUQSL.zqg_pad-6" x="7620" y="-47460"/><use xlink:href="#AarEUQSL.zqg_pad-6" x="9652" y="-10884"/><use xlink:href="#AarEUQSL.zqg_pad-6" x="9652" y="-15456"/><use xlink:href="#AarEUQSL.zqg_pad-6" x="10160" y="-19520"/><use xlink:href="#AarEUQSL.zqg_pad-6" x="10160" y="-22060"/><use xlink:href="#AarEUQSL.zqg_pad-6" x="10160" y="-24600"/><use xlink:href="#AarEUQSL.zqg_pad-6" x="10160" y="-27140"/><use xlink:href="#AarEUQSL.zqg_pad-6" x="10160" y="-29680"/><use xlink:href="#AarEUQSL.zqg_pad-6" x="10160" y="-32220"/><use xlink:href="#AarEUQSL.zqg_pad-6" x="10160" y="-34760"/><use xlink:href="#AarEUQSL.zqg_pad-6" x="10160" y="-37300"/><use xlink:href="#AarEUQSL.zqg_pad-6" x="10160" y="-39840"/><use xlink:href="#AarEUQSL.zqg_pad-6" x="10160" y="-42380"/><use xlink:href="#AarEUQSL.zqg_pad-6" x="10160" y="-44920"/><use xlink:href="#AarEUQSL.zqg_pad-6" x="10160" y="-47460"/><use xlink:href="#AarEUQSL.zqg_pad-6" x="12192" y="-10884"/><use xlink:href="#AarEUQSL.zqg_pad-6" x="12192" y="-15456"/><use xlink:href="#AarEUQSL.zqg_pad-6" x="12700" y="-19520"/><use xlink:href="#AarEUQSL.zqg_pad-6" x="12700" y="-22060"/><use xlink:href="#AarEUQSL.zqg_pad-6" x="12700" y="-24600"/><use xlink:href="#AarEUQSL.zqg_pad-6" x="12700" y="-27140"/><use xlink:href="#AarEUQSL.zqg_pad-6" x="12700" y="-29680"/><use xlink:href="#AarEUQSL.zqg_pad-6" x="12700" y="-32220"/><use xlink:href="#AarEUQSL.zqg_pad-6" x="12700" y="-34760"/><use xlink:href="#AarEUQSL.zqg_pad-6" x="12700" y="-37300"/><use xlink:href="#AarEUQSL.zqg_pad-6" x="12700" y="-39840"/><use xlink:href="#AarEUQSL.zqg_pad-6" x="12700" y="-42380"/><use xlink:href="#AarEUQSL.zqg_pad-6" x="12700" y="-44920"/><use xlink:href="#AarEUQSL.zqg_pad-6" x="12700" y="-47460"/><use xlink:href="#AarEUQSL.zqg_pad-6" x="15240" y="-19520"/><use xlink:href="#AarEUQSL.zqg_pad-6" x="15240" y="-22060"/><use xlink:href="#AarEUQSL.zqg_pad-6" x="15240" y="-24600"/><use xlink:href="#AarEUQSL.zqg_pad-6" x="15240" y="-27140"/><use xlink:href="#AarEUQSL.zqg_pad-6" x="15240" y="-29680"/><use xlink:href="#AarEUQSL.zqg_pad-6" x="15240" y="-32220"/><use xlink:href="#AarEUQSL.zqg_pad-6" x="15240" y="-34760"/><use xlink:href="#AarEUQSL.zqg_pad-6" x="15240" y="-37300"/><use xlink:href="#AarEUQSL.zqg_pad-6" x="15240" y="-39840"/><use xlink:href="#AarEUQSL.zqg_pad-6" x="15240" y="-42380"/><use xlink:href="#AarEUQSL.zqg_pad-6" x="15240" y="-44920"/><use xlink:href="#AarEUQSL.zqg_pad-6" x="15240" y="-47460"/><use xlink:href="#AarEUQSL.zqg_pad-6" x="17018" y="-10884"/><use xlink:href="#AarEUQSL.zqg_pad-6" x="17018" y="-15456"/><use xlink:href="#AarEUQSL.zqg_pad-6" x="17780" y="-19520"/><use xlink:href="#AarEUQSL.zqg_pad-6" x="17780" y="-22060"/><use xlink:href="#AarEUQSL.zqg_pad-6" x="17780" y="-24600"/><use xlink:href="#AarEUQSL.zqg_pad-6" x="17780" y="-27140"/><use xlink:href="#AarEUQSL.zqg_pad-6" x="17780" y="-29680"/><use xlink:href="#AarEUQSL.zqg_pad-6" x="17780" y="-32220"/><use xlink:href="#AarEUQSL.zqg_pad-6" x="17780" y="-34760"/><use xlink:href="#AarEUQSL.zqg_pad-6" x="17780" y="-37300"/><use xlink:href="#AarEUQSL.zqg_pad-6" x="17780" y="-39840"/><use xlink:href="#AarEUQSL.zqg_pad-6" x="17780" y="-42380"/><use xlink:href="#AarEUQSL.zqg_pad-6" x="17780" y="-44920"/><use xlink:href="#AarEUQSL.zqg_pad-6" x="17780" y="-47460"/><use xlink:href="#AarEUQSL.zqg_pad-6" x="19558" y="-10884"/><use xlink:href="#AarEUQSL.zqg_pad-6" x="19558" y="-15456"/><use xlink:href="#AarEUQSL.zqg_pad-6" x="22098" y="-10884"/><use xlink:href="#AarEUQSL.zqg_pad-6" x="22098" y="-15456"/><use xlink:href="#AarEUQSL.zqg_pad-6" x="26670" y="-42888"/><use xlink:href="#AarEUQSL.zqg_pad-6" x="26670" y="-45428"/><use xlink:href="#AarEUQSL.zqg_pad-6" x="29210" y="-42888"/><use xlink:href="#AarEUQSL.zqg_pad-6" x="29210" y="-45428"/><use xlink:href="#AarEUQSL.zqg_pad-6" x="31750" y="-42888"/><use xlink:href="#AarEUQSL.zqg_pad-6" x="31750" y="-45428"/><use xlink:href="#AarEUQSL.zqg_pad-6" x="34290" y="-42888"/><use xlink:href="#AarEUQSL.zqg_pad-6" x="34290" y="-45428"/><use xlink:href="#AarEUQSL.zqg_pad-7" x="40665" y="-20100"/><use xlink:href="#AarEUQSL.zqg_pad-7" x="40665" y="-24600"/><use xlink:href="#AarEUQSL.zqg_pad-7" x="40744" y="-28736"/><use xlink:href="#AarEUQSL.zqg_pad-7" x="40744" y="-33236"/><use xlink:href="#AarEUQSL.zqg_pad-7" x="47165" y="-20100"/><use xlink:href="#AarEUQSL.zqg_pad-7" x="47165" y="-24600"/><use xlink:href="#AarEUQSL.zqg_pad-7" x="47244" y="-28736"/><use xlink:href="#AarEUQSL.zqg_pad-7" x="47244" y="-33236"/><use xlink:href="#AarEUQSL.zqg_pad-8" x="27178" y="-1486"/><use xlink:href="#AarEUQSL.zqg_pad-9" x="11176" y="-4280"/><use xlink:href="#AarEUQSL.zqg_pad-9" x="16256" y="-4280"/><use xlink:href="#AarEUQSL.zqg_pad-9" x="21336" y="-4280"/><use xlink:href="#AarEUQSL.zqg_pad-9" x="33528" y="-4280"/><use xlink:href="#AarEUQSL.zqg_pad-9" x="38608" y="-4280"/><use xlink:href="#AarEUQSL.zqg_pad-10" x="4000" y="-4000"/><use xlink:href="#AarEUQSL.zqg_pad-10" x="4000" y="-46000"/><use xlink:href="#AarEUQSL.zqg_pad-10" x="46000" y="-4000"/><use xlink:href="#AarEUQSL.zqg_pad-10" x="46000" y="-46000"/></g><clipPath id="pcb-stackup_top_out"><path d="M 0 0 0 -50000 50000 -50000 50000 0 0 0" fill="none" stroke-width="150"/></clipPath><mask id="pcb-stackup_top_mech-mask"><g fill="#000" stroke="#000"><rect x="0" y="-50000" width="50000" height="50000" fill="#fff"/><use xlink:href="#pcb-stackup_top_drl1"/></g></mask><mask id="pcb-stackup_top_cf-mask"><g fill="#fff" stroke="#fff"><use xlink:href="#pcb-stackup_top_sm"/></g></mask><mask id="pcb-stackup_top_sm-mask"><g fill="#000" stroke="#000"><rect x="0" y="-50000" width="50000" height="50000" fill="#fff"/><use xlink:href="#pcb-stackup_top_sm"/></g></mask></defs><g transform="translate(0,-50000) scale(1,-1)"><g mask="url(#pcb-stackup_top_mech-mask)" clip-path="url(#pcb-stackup_top_out)"><rect x="0" y="-50000" width="50000" height="50000" fill="currentColor" class="pcb-stackup_fr4"/><use xlink:href="#pcb-stackup_top_cu" fill="currentColor" stroke="currentColor" class="pcb-stackup_cu"/><use xlink:href="#pcb-stackup_top_cu" fill="currentColor" stroke="currentColor" class="pcb-stackup_cf" mask="url(#pcb-stackup_top_cf-mask)"/><g mask="url(#pcb-stackup_top_sm-mask)"><rect x="0" y="-50000" width="50000" height="50000" fill="currentColor" class="pcb-stackup_sm"/><use xlink:href="#pcb-stackup_top_ss" fill="currentColor" stroke="currentColor" class="pcb-stackup_ss"/></g></g></g></svg>