<svg id="pcb-stackup_bottom" version="1.1" xmlns:xlink="http://www.w3.org/1999/xlink" stroke-linecap="round" stroke-linejoin="round" stroke-width="0" fill-rule="evenodd" clip-rule="evenodd" viewBox="17000 -29000 13000 11000" width="13mm" height="11mm" xmlns="http://www.w3.org/2000/svg"><defs><style>.pcb-stackup_fr4 {color: #4D542C;}
.pcb-stackup_cu {color: lightgrey;}
.pcb-stackup_cf {color: goldenrod;}
.pcb-stackup_sm {color: #004400; opacity: 0.9;}
.pcb-stackup_ss {color: white;}
.pcb-stackup_sp {color: #000000; opacity: 0;}
.pcb-stackup_out {color: black;}</style><rect x="-863.6" y="-1016" width="1727.2" height="2032" id="ITo3otfDbo79_pad-11"/><rect x="-863.6" y="-863.6" width="1727.2" height="1727.2" rx="863.6" ry="863.6" id="ITo3otfDbo79_pad-12"/><rect x="-300" y="-200" width="600" height="400" id="ITo3otfDbo79_pad-13"/><rect x="-300" y="-250" width="600" height="500" id="ITo3otfDbo79_pad-14"/><rect x="-200" y="-300" width="400" height="600" id="ITo3otfDbo79_pad-15"/><rect x="-375" y="-150" width="750" height="300" id="ITo3otfDbo79_pad-16"/><rect x="-150" y="-375" width="300" height="750" id="ITo3otfDbo79_pad-17"/><rect x="-800" y="-800" width="1600" height="1600" id="ITo3otfDbo79_pad-18"/><circle cx="0" cy="0" r="300" id="ITo3otfDbo79_pad-19"/><rect x="-863.6" y="-1016" width="1727.2" height="2032" id="ITo3otfDbo79_pad-11"/><rect x="-863.6" y="-863.6" width="1727.2" height="1727.2" rx="863.6" ry="863.6" id="ITo3otfDbo79_pad-12"/><rect x="-300" y="-200" width="600" height="400" id="ITo3otfDbo79_pad-13"/><rect x="-300" y="-250" width="600" height="500" id="ITo3otfDbo79_pad-14"/><rect x="-200" y="-300" width="400" height="600" id="ITo3otfDbo79_pad-15"/><rect x="-375" y="-150" width="750" height="300" id="ITo3otfDbo79_pad-16"/><rect x="-150" y="-375" width="300" height="750" id="ITo3otfDbo79_pad-17"/><rect x="-800" y="-800" width="1600" height="1600" id="ITo3otfDbo79_pad-18"/><circle cx="0" cy="0" r="300" id="ITo3otfDbo79_pad-19"/><rect x="-863.6" y="-1016" width="1727.2" height="2032" id="ITo3otfDbo79_pad-11"/><rect x="-863.6" y="-863.6" width="1727.2" height="1727.2" rx="863.6" ry="863.6" id="ITo3otfDbo79_pad-12"/><rect x="-300" y="-200" width="600" height="400" id="ITo3otfDbo79_pad-13"/><rect x="-300" y="-250" width="600" height="500" id="ITo3otfDbo79_pad-14"/><rect x="-200" y="-300" width="400" height="600" id="ITo3otfDbo79_pad-15"/><rect x="-375" y="-150" width="750" height="300" id="ITo3otfDbo79_pad-16"/><rect x="-150" y="-375" width="300" height="750" id="ITo3otfDbo79_pad-17"/><rect x="-800" y="-800" width="1600" height="1600" id="ITo3otfDbo79_pad-18"/><circle cx="0" cy="0" r="300" id="ITo3otfDbo79_pad-19"/><rect x="-863.6" y="-1016" width="1727.2" height="2032" id="ITo3otfDbo79_pad-11"/><rect x="-863.6" y="-863.6" width="1727.2" height="1727.2" rx="863.6" ry="863.6" id="ITo3otfDbo79_pad-12"/><rect x="-300" y="-200" width="600" height="400" id="ITo3otfDbo79_pad-13"/><rect x="-300" y="-250" width="600" height="500" id="ITo3otfDbo79_pad-14"/><rect x="-200" y="-300" width="400" height="600" id="ITo3otfDbo79_pad-15"/><rect x="-375" y="-150" width="750" height="300" id="ITo3otfDbo79_pad-16"/><rect x="-150" y="-375" width="300" height="750" id="ITo3otfDbo79_pad-17"/><rect x="-800" y="-800" width="1600" height="1600" id="ITo3otfDbo79_pad-18"/><circle cx="0" cy="0" r="300" id="ITo3otfDbo79_pad-19"/><rect x="-863.6" y="-1016" width="1727.2" height="2032" id="uleRozOwc.OW_pad-11"/><rect x="-863.6" y="-863.6" width="1727.2" height="1727.2" rx="863.6" ry="863.6" id="uleRozOwc.OW_pad-12"/><rect x="-300" y="-200" width="600" height="400" id="uleRozOwc.OW_pad-13"/><rect x="-300" y="-250" width="600" height="500" id="uleRozOwc.OW_pad-14"/><rect x="-200" y="-300" width="400" height="600" id="uleRozOwc.OW_pad-15"/><rect x="-375" y="-150" width="750" height="300" id="uleRozOwc.OW_pad-16"/><rect x="-150" y="-375" width="300" height="750" id="uleRozOwc.OW_pad-17"/><rect x="-480" y="-480" width="960" height="960" id="uleRozOwc.OW_pad-18"/><rect x="-863.6" y="-1016" width="1727.2" height="2032" id="ITo3otfDbo79_pad-11"/><rect x="-863.6" y="-863.6" width="1727.2" height="1727.2" rx="863.6" ry="863.6" id="ITo3otfDbo79_pad-12"/><rect x="-300" y="-200" width="600" height="400" id="ITo3otfDbo79_pad-13"/><rect x="-300" y="-250" width="600" height="500" id="ITo3otfDbo79_pad-14"/><rect x="-200" y="-300" width="400" height="600" id="ITo3otfDbo79_pad-15"/><rect x="-375" y="-150" width="750" height="300" id="ITo3otfDbo79_pad-16"/><rect x="-150" y="-375" width="300" height="750" id="ITo3otfDbo79_pad-17"/><rect x="-800" y="-800" width="1600" height="1600" id="ITo3otfDbo79_pad-18"/><circle cx="0" cy="0" r="300" id="ITo3otfDbo79_pad-19"/><rect x="-863.6" y="-1016" width="1727.2" height="2032" id="ITo3otfDbo79_pad-11"/><rect x="-863.6" y="-863.6" width="1727.2" height="1727.2" rx="863.6" ry="863.6" id="ITo3otfDbo79_pad-12"/><rect x="-300" y="-200" width="600" height="400" id="ITo3otfDbo79_pad-13"/><rect x="-300" y="-250" width="600" height="500" id="ITo3otfDbo79_pad-14"/><rect x="-200" y="-300" width="400" height="600" id="ITo3otfDbo79_pad-15"/><rect x="-375" y="-150" width="750" height="300" id="ITo3otfDbo79_pad-16"/><rect x="-150" y="-375" width="300" height="750" id="ITo3otfDbo79_pad-17"/><rect x="-800" y="-800" width="1600" height="1600" id="ITo3otfDbo79_pad-18"/><circle cx="0" cy="0" r="300" id="ITo3otfDbo79_pad-19"/><rect x="-863.6" y="-1016" width="1727.2" height="2032" id="ITo3otfDbo79_pad-11"/><rect x="-863.6" y="-863.6" width="1727.2" height="1727.2" rx="863.6" ry="863.6" id="ITo3otfDbo79_pad-12"/><rect x="-300" y="-200" width="600" height="400" id="ITo3otfDbo79_pad-13"/><rect x="-300" y="-250" width="600" height="500" id="ITo3otfDbo79_pad-14"/><rect x="-200" y="-300" width="400" height="600" id="ITo3otfDbo79_pad-15"/><rect x="-375" y="-150" width="750" height="300" id="ITo3otfDbo79_pad-16"/><rect x="-150" y="-375" width="300" height="750" id="ITo3otfDbo79_pad-17"/><rect x="-800" y="-800" width="1600" height="1600" id="ITo3otfDbo79_pad-18"/><circle cx="0" cy="0" r="300" id="ITo3otfDbo79_pad-19"/><rect x="-863.6" y="-1016" width="1727.2" height="2032" id="ITo3otfDbo79_pad-11"/><rect x="-863.6" y="-863.6" width="1727.2" height="1727.2" rx="863.6" ry="863.6" id="ITo3otfDbo79_pad-12"/><rect x="-300" y="-200" width="600" height="400" id="ITo3otfDbo79_pad-13"/><rect x="-300" y="-250" width="600" height="500" id="ITo3otfDbo79_pad-14"/><rect x="-200" y="-300" width="400" height="600" id="ITo3otfDbo79_pad-15"/><rect x="-375" y="-150" width="750" height="300" id="ITo3otfDbo79_pad-16"/><rect x="-150" y="-375" width="300" height="750" id="ITo3otfDbo79_pad-17"/><rect x="-800" y="-800" width="1600" height="1600" id="ITo3otfDbo79_pad-18"/><circle cx="0" cy="0" r="300" id="ITo3otfDbo79_pad-19"/><rect x="-863.6" y="-1016" width="1727.2" height="2032" id="uleRozOwc.OW_pad-11"/><rect x="-863.6" y="-863.6" width="1727.2" height="1727.2" rx="863.6" ry="863.6" id="uleRozOwc.OW_pad-12"/><rect x="-300" y="-200" width="600" height="400" id="uleRozOwc.OW_pad-13"/><rect x="-300" y="-250" width="600" height="500" id="uleRozOwc.OW_pad-14"/><rect x="-200" y="-300" width="400" height="600" id="uleRozOwc.OW_pad-15"/><rect x="-375" y="-150" width="750" height="300" id="uleRozOwc.OW_pad-16"/><rect x="-150" y="-375" width="300" height="750" id="uleRozOwc.OW_pad-17"/><rect x="-480" y="-480" width="960" height="960" id="uleRozOwc.OW_pad-18"/><rect x="-863.6" y="-1016" width="1727.2" height="2032" id="ITo3otfDbo79_pad-11"/><rect x="-863.6" y="-863.6" width="1727.2" height="1727.2" rx="863.6" ry="863.6" id="ITo3otfDbo79_pad-12"/><rect x="-300" y="-200" width="600" height="400" id="ITo3otfDbo79_pad-13"/><rect x="-300" y="-250" width="600" height="500" id="ITo3otfDbo79_pad-14"/><rect x="-200" y="-300" width="400" height="600" id="ITo3otfDbo79_pad-15"/><rect x="-375" y="-150" width="750" height="300" id="ITo3otfDbo79_pad-16"/><rect x="-150" y="-375" width="300" height="750" id="ITo3otfDbo79_pad-17"/><rect x="-800" y="-800" width="1600" height="1600" id="ITo3otfDbo79_pad-18"/><circle cx="0" cy="0" r="300" id="ITo3otfDbo79_pad-19"/><rect x="-863.6" y="-1016" width="1727.2" height="2032" id="ITo3otfDbo79_pad-11"/><rect x="-863.6" y="-863.6" width="1727.2" height="1727.2" rx="863.6" ry="863.6" id="ITo3otfDbo79_pad-12"/><rect x="-300" y="-200" width="600" height="400" id="ITo3otfDbo79_pad-13"/><rect x="-300" y="-250" width="600" height="500" id="ITo3otfDbo79_pad-14"/><rect x="-200" y="-300" width="400" height="600" id="ITo3otfDbo79_pad-15"/><rect x="-375" y="-150" width="750" height="300" id="ITo3otfDbo79_pad-16"/><rect x="-150" y="-375" width="300" height="750" id="ITo3otfDbo79_pad-17"/><rect x="-800" y="-800" width="1600" height="1600" id="ITo3otfDbo79_pad-18"/><circle cx="0" cy="0" r="300" id="ITo3otfDbo79_pad-19"/><rect x="-863.6" y="-1016" width="1727.2" height="2032" id="ITo3otfDbo79_pad-11"/><rect x="-863.6" y="-863.6" width="1727.2" height="1727.2" rx="863.6" ry="863.6" id="ITo3otfDbo79_pad-12"/><rect x="-300" y="-200" width="600" height="400" id="ITo3otfDbo79_pad-13"/><rect x="-300" y="-250" width="600" height="500" id="ITo3otfDbo79_pad-14"/><rect x="-200" y="-300" width="400" height="600" id="ITo3otfDbo79_pad-15"/><rect x="-375" y="-150" width="750" height="300" id="ITo3otfDbo79_pad-16"/><rect x="-150" y="-375" width="300" height="750" id="ITo3otfDbo79_pad-17"/><rect x="-800" y="-800" width="1600" height="1600" id="ITo3otfDbo79_pad-18"/><circle cx="0" cy="0" r="300" id="ITo3otfDbo79_pad-19"/><rect x="-863.6" y="-1016" width="1727.2" height="2032" id="ITo3otfDbo79_pad-11"/><rect x="-863.6" y="-863.6" width="1727.2" height="1727.2" rx="863.6" ry="863.6" id="ITo3otfDbo79_pad-12"/><rect x="-300" y="-200" width="600" height="400" id="ITo3otfDbo79_pad-13"/><rect x="-300" y="-250" width="600" height="500" id="ITo3otfDbo79_pad-14"/><rect x="-200" y="-300" width="400" height="600" id="ITo3otfDbo79_pad-15"/><rect x="-375" y="-150" width="750" height="300" id="ITo3otfDbo79_pad-16"/><rect x="-150" y="-375" width="300" height="750" id="ITo3otfDbo79_pad-17"/><rect x="-800" y="-800" width="1600" height="1600" id="ITo3otfDbo79_pad-18"/><circle cx="0" cy="0" r="300" id="ITo3otfDbo79_pad-19"/><rect x="-863.6" y="-1016" width="1727.2" height="2032" id="uleRozOwc.OW_pad-11"/><rect x="-863.6" y="-863.6" width="1727.2" height="1727.2" rx="863.6" ry="863.6" id="uleRozOwc.OW_pad-12"/><rect x="-300" y="-200" width="600" height="400" id="uleRozOwc.OW_pad-13"/><rect x="-300" y="-250" width="600" height="500" id="uleRozOwc.OW_pad-14"/><rect x="-200" y="-300" width="400" height="600" id="uleRozOwc.OW_pad-15"/><rect x="-375" y="-150" width="750" height="300" id="uleRozOwc.OW_pad-16"/><rect x="-150" y="-375" width="300" height="750" id="uleRozOwc.OW_pad-17"/><rect x="-480" y="-480" width="960" height="960" id="uleRozOwc.OW_pad-18"/><rect x="-863.6" y="-1016" width="1727.2" height="2032" id="ITo3otfDbo79_pad-11"/><rect x="-863.6" y="-863.6" width="1727.2" height="1727.2" rx="863.6" ry="863.6" id="ITo3otfDbo79_pad-12"/><rect x="-300" y="-200" width="600" height="400" id="ITo3otfDbo79_pad-13"/><rect x="-300" y="-250" width="600" height="500" id="ITo3otfDbo79_pad-14"/><rect x="-200" y="-300" width="400" height="600" id="ITo3otfDbo79_pad-15"/><rect x="-375" y="-150" width="750" height="300" id="ITo3otfDbo79_pad-16"/><rect x="-150" y="-375" width="300" height="750" id="ITo3otfDbo79_pad-17"/><rect x="-800" y="-800" width="1600" height="1600" id="ITo3otfDbo79_pad-18"/><circle cx="0" cy="0" r="300" id="ITo3otfDbo79_pad-19"/><rect x="-863.6" y="-1016" width="1727.2" height="2032" id="ITo3otfDbo79_pad-11"/><rect x="-863.6" y="-863.6" width="1727.2" height="1727.2" rx="863.6" ry="863.6" id="ITo3otfDbo79_pad-12"/><rect x="-300" y="-200" width="600" height="400" id="ITo3otfDbo79_pad-13"/><rect x="-300" y="-250" width="600" height="500" id="ITo3otfDbo79_pad-14"/><rect x="-200" y="-300" width="400" height="600" id="ITo3otfDbo79_pad-15"/><rect x="-375" y="-150" width="750" height="300" id="ITo3otfDbo79_pad-16"/><rect x="-150" y="-375" width="300" height="750" id="ITo3otfDbo79_pad-17"/><rect x="-800" y="-800" width="1600" height="1600" id="ITo3otfDbo79_pad-18"/><circle cx="0" cy="0" r="300" id="ITo3otfDbo79_pad-19"/><rect x="-863.6" y="-1016" width="1727.2" height="2032" id="ITo3otfDbo79_pad-11"/><rect x="-863.6" y="-863.6" width="1727.2" height="1727.2" rx="863.6" ry="863.6" id="ITo3otfDbo79_pad-12"/><rect x="-300" y="-200" width="600" height="400" id="ITo3otfDbo79_pad-13"/><rect x="-300" y="-250" width="600" height="500" id="ITo3otfDbo79_pad-14"/><rect x="-200" y="-300" width="400" height="600" id="ITo3otfDbo79_pad-15"/><rect x="-375" y="-150" width="750" height="300" id="ITo3otfDbo79_pad-16"/><rect x="-150" y="-375" width="300" height="750" id="ITo3otfDbo79_pad-17"/><rect x="-800" y="-800" width="1600" height="1600" id="ITo3otfDbo79_pad-18"/><circle cx="0" cy="0" r="300" id="ITo3otfDbo79_pad-19"/><rect x="-863.6" y="-1016" width="1727.2" height="2032" id="ITo3otfDbo79_pad-11"/><rect x="-863.6" y="-863.6" width="1727.2" height="1727.2" rx="863.6" ry="863.6" id="ITo3otfDbo79_pad-12"/><rect x="-300" y="-200" width="600" height="400" id="ITo3otfDbo79_pad-13"/><rect x="-300" y="-250" width="600" height="500" id="ITo3otfDbo79_pad-14"/><rect x="-200" y="-300" width="400" height="600" id="ITo3otfDbo79_pad-15"/><rect x="-375" y="-150" width="750" height="300" id="ITo3otfDbo79_pad-16"/><rect x="-150" y="-375" width="300" height="750" id="ITo3otfDbo79_pad-17"/><rect x="-800" y="-800" width="1600" height="1600" id="ITo3otfDbo79_pad-18"/><circle cx="0" cy="0" r="300" id="ITo3otfDbo79_pad-19"/><rect x="-863.6" y="-1016" width="1727.2" height="2032" id="uleRozOwc.OW_pad-11"/><rect x="-863.6" y="-863.6" width="1727.2" height="1727.2" rx="863.6" ry="863.6" id="uleRozOwc.OW_pad-12"/><rect x="-300" y="-200" width="600" height="400" id="uleRozOwc.OW_pad-13"/><rect x="-300" y="-250" width="600" height="500" id="uleRozOwc.OW_pad-14"/><rect x="-200" y="-300" width="400" height="600" id="uleRozOwc.OW_pad-15"/><rect x="-375" y="-150" width="750" height="300" id="uleRozOwc.OW_pad-16"/><rect x="-150" y="-375" width="300" height="750" id="uleRozOwc.OW_pad-17"/><rect x="-480" y="-480" width="960" height="960" id="uleRozOwc.OW_pad-18"/><circle cx="0" cy="0" r="6" id="sZDWE2_g_25G_pad-1"/><rect x="-863.6" y="-1016" width="1727.2" height="2032" id="ITo3otfDbo79_pad-11"/><rect x="-863.6" y="-863.6" width="1727.2" height="1727.2" rx="863.6" ry="863.6" id="ITo3otfDbo79_pad-12"/><rect x="-300" y="-200" width="600" height="400" id="ITo3otfDbo79_pad-13"/><rect x="-300" y="-250" width="600" height="500" id="ITo3otfDbo79_pad-14"/><rect x="-200" y="-300" width="400" height="600" id="ITo3otfDbo79_pad-15"/><rect x="-375" y="-150" width="750" height="300" id="ITo3otfDbo79_pad-16"/><rect x="-150" y="-375" width="300" height="750" id="ITo3otfDbo79_pad-17"/><rect x="-800" y="-800" width="1600" height="1600" id="ITo3otfDbo79_pad-18"/><circle cx="0" cy="0" r="300" id="ITo3otfDbo79_pad-19"/><rect x="-863.6" y="-1016" width="1727.2" height="2032" id="ITo3otfDbo79_pad-11"/><rect x="-863.6" y="-863.6" width="1727.2" height="1727.2" rx="863.6" ry="863.6" id="ITo3otfDbo79_pad-12"/><rect x="-300" y="-200" width="600" height="400" id="ITo3otfDbo79_pad-13"/><rect x="-300" y="-250" width="600" height="500" id="ITo3otfDbo79_pad-14"/><rect x="-200" y="-300" width="400" height="600" id="ITo3otfDbo79_pad-15"/><rect x="-375" y="-150" width="750" height="300" id="ITo3otfDbo79_pad-16"/><rect x="-150" y="-375" width="300" height="750" id="ITo3otfDbo79_pad-17"/><rect x="-800" y="-800" width="1600" height="1600" id="ITo3otfDbo79_pad-18"/><circle cx="0" cy="0" r="300" id="ITo3otfDbo79_pad-19"/><rect x="-863.6" y="-1016" width="1727.2" height="2032" id="ITo3otfDbo79_pad-11"/><rect x="-863.6" y="-863.6" width="1727.2" height="1727.2" rx="863.6" ry="863.6" id="ITo3otfDbo79_pad-12"/><rect x="-300" y="-200" width="600" height="400" id="ITo3otfDbo79_pad-13"/><rect x="-300" y="-250" width="600" height="500" id="ITo3otfDbo79_pad-14"/><rect x="-200" y="-300" width="400" height="600" id="ITo3otfDbo79_pad-15"/><rect x="-375" y="-150" width="750" height="300" id="ITo3otfDbo79_pad-16"/><rect x="-150" y="-375" width="300" height="750" id="ITo3otfDbo79_pad-17"/><rect x="-800" y="-800" width="1600" height="1600" id="ITo3otfDbo79_pad-18"/><circle cx="0" cy="0" r="300" id="ITo3otfDbo79_pad-19"/><rect x="-863.6" y="-1016" width="1727.2" height="2032" id="ITo3otfDbo79_pad-11"/><rect x="-863.6" y="-863.6" width="1727.2" height="1727.2" rx="863.6" ry="863.6" id="ITo3otfDbo79_pad-12"/><rect x="-300" y="-200" width="600" height="400" id="ITo3otfDbo79_pad-13"/><rect x="-300" y="-250" width="600" height="500" id="ITo3otfDbo79_pad-14"/><rect x="-200" y="-300" width="400" height="600" id="ITo3otfDbo79_pad-15"/><rect x="-375" y="-150" width="750" height="300" id="ITo3otfDbo79_pad-16"/><rect x="-150" y="-375" width="300" height="750" id="ITo3otfDbo79_pad-17"/><rect x="-800" y="-800" width="1600" height="1600" id="ITo3otfDbo79_pad-18"/><circle cx="0" cy="0" r="300" id="ITo3otfDbo79_pad-19"/><rect x="-863.6" y="-1016" width="1727.2" height="2032" id="uleRozOwc.OW_pad-11"/><rect x="-863.6" y="-863.6" width="1727.2" height="1727.2" rx="863.6" ry="863.6" id="uleRozOwc.OW_pad-12"/><rect x="-300" y="-200" width="600" height="400" id="uleRozOwc.OW_pad-13"/><rect x="-300" y="-250" width="600" height="500" id="uleRozOwc.OW_pad-14"/><rect x="-200" y="-300" width="400" height="600" id="uleRozOwc.OW_pad-15"/><rect x="-375" y="-150" width="750" height="300" id="uleRozOwc.OW_pad-16"/><rect x="-150" y="-375" width="300" height="750" id="uleRozOwc.OW_pad-17"/><rect x="-480" y="-480" width="960" height="960" id="uleRozOwc.OW_pad-18"/><rect x="-863.6" y="-1016" width="1727.2" height="2032" id="ITo3otfDbo79_pad-11"/><rect x="-863.6" y="-863.6" width="1727.2" height="1727.2" rx="863.6" ry="863.6" id="ITo3otfDbo79_pad-12"/><rect x="-300" y="-200" width="600" height="400" id="ITo3otfDbo79_pad-13"/><rect x="-300" y="-250" width="600" height="500" id="ITo3otfDbo79_pad-14"/><rect x="-200" y="-300" width="400" height="600" id="ITo3otfDbo79_pad-15"/><rect x="-375" y="-150" width="750" height="300" id="ITo3otfDbo79_pad-16"/><rect x="-150" y="-375" width="300" height="750" id="ITo3otfDbo79_pad-17"/><rect x="-800" y="-800" width="1600" height="1600" id="ITo3otfDbo79_pad-18"/><circle cx="0" cy="0" r="300" id="ITo3otfDbo79_pad-19"/><rect x="-863.6" y="-1016" width="1727.2" height="2032" id="ITo3otfDbo79_pad-11"/><rect x="-863.6" y="-863.6" width="1727.2" height="1727.2" rx="863.6" ry="863.6" id="ITo3otfDbo79_pad-12"/><rect x="-300" y="-200" width="600" height="400" id="ITo3otfDbo79_pad-13"/><rect x="-300" y="-250" width="600" height="500" id="ITo3otfDbo79_pad-14"/><rect x="-200" y="-300" width="400" height="600" id="ITo3otfDbo79_pad-15"/><rect x="-375" y="-150" width="750" height="300" id="ITo3otfDbo79_pad-16"/><rect x="-150" y="-375" width="300" height="750" id="ITo3otfDbo79_pad-17"/><rect x="-800" y="-800" width="1600" height="1600" id="ITo3otfDbo79_pad-18"/><circle cx="0" cy="0" r="300" id="ITo3otfDbo79_pad-19"/><rect x="-863.6" y="-1016" width="1727.2" height="2032" id="ITo3otfDbo79_pad-11"/><rect x="-863.6" y="-863.6" width="1727.2" height="1727.2" rx="863.6" ry="863.6" id="ITo3otfDbo79_pad-12"/><rect x="-300" y="-200" width="600" height="400" id="ITo3otfDbo79_pad-13"/><rect x="-300" y="-250" width="600" height="500" id="ITo3otfDbo79_pad-14"/><rect x="-200" y="-300" width="400" height="600" id="ITo3otfDbo79_pad-15"/><rect x="-375" y="-150" width="750" height="300" id="ITo3otfDbo79_pad-16"/><rect x="-150" y="-375" width="300" height="750" id="ITo3otfDbo79_pad-17"/><rect x="-800" y="-800" width="1600" height="1600" id="ITo3otfDbo79_pad-18"/><circle cx="0" cy="0" r="300" id="ITo3otfDbo79_pad-19"/><rect x="-863.6" y="-1016" width="1727.2" height="2032" id="ITo3otfDbo79_pad-11"/><rect x="-863.6" y="-863.6" width="1727.2" height="1727.2" rx="863.6" ry="863.6" id="ITo3otfDbo79_pad-12"/><rect x="-300" y="-200" width="600" height="400" id="ITo3otfDbo79_pad-13"/><rect x="-300" y="-250" width="600" height="500" id="ITo3otfDbo79_pad-14"/><rect x="-200" y="-300" width="400" height="600" id="ITo3otfDbo79_pad-15"/><rect x="-375" y="-150" width="750" height="300" id="ITo3otfDbo79_pad-16"/><rect x="-150" y="-375" width="300" height="750" id="ITo3otfDbo79_pad-17"/><rect x="-800" y="-800" width="1600" height="1600" id="ITo3otfDbo79_pad-18"/><circle cx="0" cy="0" r="300" id="ITo3otfDbo79_pad-19"/><rect x="-863.6" y="-1016" width="1727.2" height="2032" id="uleRozOwc.OW_pad-11"/><rect x="-863.6" y="-863.6" width="1727.2" height="1727.2" rx="863.6" ry="863.6" id="uleRozOwc.OW_pad-12"/><rect x="-300" y="-200" width="600" height="400" id="uleRozOwc.OW_pad-13"/><rect x="-300" y="-250" width="600" height="500" id="uleRozOwc.OW_pad-14"/><rect x="-200" y="-300" width="400" height="600" id="uleRozOwc.OW_pad-15"/><rect x="-375" y="-150" width="750" height="300" id="uleRozOwc.OW_pad-16"/><rect x="-150" y="-375" width="300" height="750" id="uleRozOwc.OW_pad-17"/><rect x="-480" y="-480" width="960" height="960" id="uleRozOwc.OW_pad-18"/><rect x="-863.6" y="-1016" width="1727.2" height="2032" id="ITo3otfDbo79_pad-11"/><rect x="-863.6" y="-863.6" width="1727.2" height="1727.2" rx="863.6" ry="863.6" id="ITo3otfDbo79_pad-12"/><rect x="-300" y="-200" width="600" height="400" id="ITo3otfDbo79_pad-13"/><rect x="-300" y="-250" width="600" height="500" id="ITo3otfDbo79_pad-14"/><rect x="-200" y="-300" width="400" height="600" id="ITo3otfDbo79_pad-15"/><rect x="-375" y="-150" width="750" height="300" id="ITo3otfDbo79_pad-16"/><rect x="-150" y="-375" width="300" height="750" id="ITo3otfDbo79_pad-17"/><rect x="-800" y="-800" width="1600" height="1600" id="ITo3otfDbo79_pad-18"/><circle cx="0" cy="0" r="300" id="ITo3otfDbo79_pad-19"/><rect x="-863.6" y="-1016" width="1727.2" height="2032" id="ITo3otfDbo79_pad-11"/><rect x="-863.6" y="-863.6" width="1727.2" height="1727.2" rx="863.6" ry="863.6" id="ITo3otfDbo79_pad-12"/><rect x="-300" y="-200" width="600" height="400" id="ITo3otfDbo79_pad-13"/><rect x="-300" y="-250" width="600" height="500" id="ITo3otfDbo79_pad-14"/><rect x="-200" y="-300" width="400" height="600" id="ITo3otfDbo79_pad-15"/><rect x="-375" y="-150" width="750" height="300" id="ITo3otfDbo79_pad-16"/><rect x="-150" y="-375" width="300" height="750" id="ITo3otfDbo79_pad-17"/><rect x="-800" y="-800" width="1600" height="1600" id="ITo3otfDbo79_pad-18"/><circle cx="0" cy="0" r="300" id="ITo3otfDbo79_pad-19"/><rect x="-863.6" y="-1016" width="1727.2" height="2032" id="ITo3otfDbo79_pad-11"/><rect x="-863.6" y="-863.6" width="1727.2" height="1727.2" rx="863.6" ry="863.6" id="ITo3otfDbo79_pad-12"/><rect x="-300" y="-200" width="600" height="400" id="ITo3otfDbo79_pad-13"/><rect x="-300" y="-250" width="600" height="500" id="ITo3otfDbo79_pad-14"/><rect x="-200" y="-300" width="400" height="600" id="ITo3otfDbo79_pad-15"/><rect x="-375" y="-150" width="750" height="300" id="ITo3otfDbo79_pad-16"/><rect x="-150" y="-375" width="300" height="750" id="ITo3otfDbo79_pad-17"/><rect x="-800" y="-800" width="1600" height="1600" id="ITo3otfDbo79_pad-18"/><circle cx="0" cy="0" r="300" id="ITo3otfDbo79_pad-19"/><rect x="-863.6" y="-1016" width="1727.2" height="2032" id="ITo3otfDbo79_pad-11"/><rect x="-863.6" y="-863.6" width="1727.2" height="1727.2" rx="863.6" ry="863.6" id="ITo3otfDbo79_pad-12"/><rect x="-300" y="-200" width="600" height="400" id="ITo3otfDbo79_pad-13"/><rect x="-300" y="-250" width="600" height="500" id="ITo3otfDbo79_pad-14"/><rect x="-200" y="-300" width="400" height="600" id="ITo3otfDbo79_pad-15"/><rect x="-375" y="-150" width="750" height="300" id="ITo3otfDbo79_pad-16"/><rect x="-150" y="-375" width="300" height="750" id="ITo3otfDbo79_pad-17"/><rect x="-800" y="-800" width="1600" height="1600" id="ITo3otfDbo79_pad-18"/><circle cx="0" cy="0" r="300" id="ITo3otfDbo79_pad-19"/><rect x="-863.6" y="-1016" width="1727.2" height="2032" id="uleRozOwc.OW_pad-11"/><rect x="-863.6" y="-863.6" width="1727.2" height="1727.2" rx="863.6" ry="863.6" id="uleRozOwc.OW_pad-12"/><rect x="-300" y="-200" width="600" height="400" id="uleRozOwc.OW_pad-13"/><rect x="-300" y="-250" width="600" height="500" id="uleRozOwc.OW_pad-14"/><rect x="-200" y="-300" width="400" height="600" id="uleRozOwc.OW_pad-15"/><rect x="-375" y="-150" width="750" height="300" id="uleRozOwc.OW_pad-16"/><rect x="-150" y="-375" width="300" height="750" id="uleRozOwc.OW_pad-17"/><rect x="-480" y="-480" width="960" height="960" id="uleRozOwc.OW_pad-18"/><rect x="-863.6" y="-1016" width="1727.2" height="2032" id="ITo3otfDbo79_pad-11"/><rect x="-863.6" y="-863.6" width="1727.2" height="1727.2" rx="863.6" ry="863.6" id="ITo3otfDbo79_pad-12"/><rect x="-300" y="-200" width="600" height="400" id="ITo3otfDbo79_pad-13"/><rect x="-300" y="-250" width="600" height="500" id="ITo3otfDbo79_pad-14"/><rect x="-200" y="-300" width="400" height="600" id="ITo3otfDbo79_pad-15"/><rect x="-375" y="-150" width="750" height="300" id="ITo3otfDbo79_pad-16"/><rect x="-150" y="-375" width="300" height="750" id="ITo3otfDbo79_pad-17"/><rect x="-800" y="-800" width="1600" height="1600" id="ITo3otfDbo79_pad-18"/><circle cx="0" cy="0" r="300" id="ITo3otfDbo79_pad-19"/><rect x="-863.6" y="-1016" width="1727.2" height="2032" id="ITo3otfDbo79_pad-11"/><rect x="-863.6" y="-863.6" width="1727.2" height="1727.2" rx="863.6" ry="863.6" id="ITo3otfDbo79_pad-12"/><rect x="-300" y="-200" width="600" height="400" id="ITo3otfDbo79_pad-13"/><rect x="-300" y="-250" width="600" height="500" id="ITo3otfDbo79_pad-14"/><rect x="-200" y="-300" width="400" height="600" id="ITo3otfDbo79_pad-15"/><rect x="-375" y="-150" width="750" height="300" id="ITo3otfDbo79_pad-16"/><rect x="-150" y="-375" width="300" height="750" id="ITo3otfDbo79_pad-17"/><rect x="-800" y="-800" width="1600" height="1600" id="ITo3otfDbo79_pad-18"/><circle cx="0" cy="0" r="300" id="ITo3otfDbo79_pad-19"/><rect x="-863.6" y="-1016" width="1727.2" height="2032" id="ITo3otfDbo79_pad-11"/><rect x="-863.6" y="-863.6" width="1727.2" height="1727.2" rx="863.6" ry="863.6" id="ITo3otfDbo79_pad-12"/><rect x="-300" y="-200" width="600" height="400" id="ITo3otfDbo79_pad-13"/><rect x="-300" y="-250" width="600" height="500" id="ITo3otfDbo79_pad-14"/><rect x="-200" y="-300" width="400" height="600" id="ITo3otfDbo79_pad-15"/><rect x="-375" y="-150" width="750" height="300" id="ITo3otfDbo79_pad-16"/><rect x="-150" y="-375" width="300" height="750" id="ITo3otfDbo79_pad-17"/><rect x="-800" y="-800" width="1600" height="1600" id="ITo3otfDbo79_pad-18"/><circle cx="0" cy="0" r="300" id="ITo3otfDbo79_pad-19"/><rect x="-863.6" y="-1016" width="1727.2" height="2032" id="ITo3otfDbo79_pad-11"/><rect x="-863.6" y="-863.6" width="1727.2" height="1727.2" rx="863.6" ry="863.6" id="ITo3otfDbo79_pad-12"/><rect x="-300" y="-200" width="600" height="400" id="ITo3otfDbo79_pad-13"/><rect x="-300" y="-250" width="600" height="500" id="ITo3otfDbo79_pad-14"/><rect x="-200" y="-300" width="400" height="600" id="ITo3otfDbo79_pad-15"/><rect x="-375" y="-150" width="750" height="300" id="ITo3otfDbo79_pad-16"/><rect x="-150" y="-375" width="300" height="750" id="ITo3otfDbo79_pad-17"/><rect x="-800" y="-800" width="1600" height="1600" id="ITo3otfDbo79_pad-18"/><circle cx="0" cy="0" r="300" id="ITo3otfDbo79_pad-19"/><rect x="-863.6" y="-1016" width="1727.2" height="2032" id="uleRozOwc.OW_pad-11"/><rect x="-863.6" y="-863.6" width="1727.2" height="1727.2" rx="863.6" ry="863.6" id="uleRozOwc.OW_pad-12"/><rect x="-300" y="-200" width="600" height="400" id="uleRozOwc.OW_pad-13"/><rect x="-300" y="-250" width="600" height="500" id="uleRozOwc.OW_pad-14"/><rect x="-200" y="-300" width="400" height="600" id="uleRozOwc.OW_pad-15"/><rect x="-375" y="-150" width="750" height="300" id="uleRozOwc.OW_pad-16"/><rect x="-150" y="-375" width="300" height="750" id="uleRozOwc.OW_pad-17"/><rect x="-480" y="-480" width="960" height="960" id="uleRozOwc.OW_pad-18"/><circle cx="0" cy="0" r="6" id="sZDWE2_g_25G_pad-1"/><g id="pcb-stackup_bottom_cu"><use xlink:href="#ITo3otfDbo79_pad-11" x="18060" y="-27650"/><use xlink:href="#ITo3otfDbo79_pad-12" x="20600" y="-27650"/><use xlink:href="#ITo3otfDbo79_pad-12" x="23140" y="-27650"/><use xlink:href="#ITo3otfDbo79_pad-12" x="25680" y="-27650"/><use xlink:href="#ITo3otfDbo79_pad-13" x="27300" y="-25450"/><use xlink:href="#ITo3otfDbo79_pad-13" x="27300" y="-24550"/><use xlink:href="#ITo3otfDbo79_pad-13" x="27300" y="-20410"/><use xlink:href="#ITo3otfDbo79_pad-13" x="27300" y="-19510"/><use xlink:href="#ITo3otfDbo79_pad-14" x="18775" y="-25950"/><use xlink:href="#ITo3otfDbo79_pad-14" x="19875" y="-25950"/><use xlink:href="#ITo3otfDbo79_pad-14" x="19875" y="-23550"/><use xlink:href="#ITo3otfDbo79_pad-14" x="18775" y="-23550"/><use xlink:href="#ITo3otfDbo79_pad-14" x="19875" y="-24750"/><use xlink:href="#ITo3otfDbo79_pad-14" x="18775" y="-24750"/><use xlink:href="#ITo3otfDbo79_pad-13" x="27300" y="-26450"/><use xlink:href="#ITo3otfDbo79_pad-13" x="27300" y="-27350"/><use xlink:href="#ITo3otfDbo79_pad-13" x="27300" y="-22100"/><use xlink:href="#ITo3otfDbo79_pad-13" x="27300" y="-21200"/><use xlink:href="#ITo3otfDbo79_pad-15" x="19050" y="-22300"/><use xlink:href="#ITo3otfDbo79_pad-15" x="19950" y="-22300"/><use xlink:href="#ITo3otfDbo79_pad-15" x="19050" y="-21000"/><use xlink:href="#ITo3otfDbo79_pad-15" x="19950" y="-21000"/><use xlink:href="#ITo3otfDbo79_pad-11" x="18070" y="-19350"/><use xlink:href="#ITo3otfDbo79_pad-12" x="20610" y="-19350"/><use xlink:href="#ITo3otfDbo79_pad-12" x="23150" y="-19350"/><use xlink:href="#ITo3otfDbo79_pad-12" x="25690" y="-19350"/><use xlink:href="#ITo3otfDbo79_pad-13" x="28500" y="-20550"/><use xlink:href="#ITo3otfDbo79_pad-13" x="28500" y="-21450"/><use xlink:href="#ITo3otfDbo79_pad-13" x="28500" y="-25300"/><use xlink:href="#ITo3otfDbo79_pad-13" x="28500" y="-26200"/><use xlink:href="#ITo3otfDbo79_pad-16" x="25900" y="-21825"/><use xlink:href="#ITo3otfDbo79_pad-16" x="25900" y="-22475"/><use xlink:href="#ITo3otfDbo79_pad-16" x="25900" y="-23125"/><use xlink:href="#ITo3otfDbo79_pad-16" x="25900" y="-23775"/><use xlink:href="#ITo3otfDbo79_pad-16" x="25900" y="-24425"/><use xlink:href="#ITo3otfDbo79_pad-16" x="25900" y="-25075"/><use xlink:href="#ITo3otfDbo79_pad-17" x="25200" y="-25775"/><use xlink:href="#ITo3otfDbo79_pad-17" x="24550" y="-25775"/><use xlink:href="#ITo3otfDbo79_pad-17" x="23900" y="-25775"/><use xlink:href="#ITo3otfDbo79_pad-17" x="23250" y="-25775"/><use xlink:href="#ITo3otfDbo79_pad-17" x="22600" y="-25775"/><use xlink:href="#ITo3otfDbo79_pad-17" x="21950" y="-25775"/><use xlink:href="#ITo3otfDbo79_pad-16" x="21250" y="-25075"/><use xlink:href="#ITo3otfDbo79_pad-16" x="21250" y="-24425"/><use xlink:href="#ITo3otfDbo79_pad-16" x="21250" y="-23775"/><use xlink:href="#ITo3otfDbo79_pad-16" x="21250" y="-23125"/><use xlink:href="#ITo3otfDbo79_pad-16" x="21250" y="-22475"/><use xlink:href="#ITo3otfDbo79_pad-16" x="21250" y="-21825"/><use xlink:href="#ITo3otfDbo79_pad-17" x="21950" y="-21125"/><use xlink:href="#ITo3otfDbo79_pad-17" x="22600" y="-21125"/><use xlink:href="#ITo3otfDbo79_pad-17" x="23250" y="-21125"/><use xlink:href="#ITo3otfDbo79_pad-17" x="23900" y="-21125"/><use xlink:href="#ITo3otfDbo79_pad-17" x="24550" y="-21125"/><use xlink:href="#ITo3otfDbo79_pad-17" x="25200" y="-21125"/><use xlink:href="#ITo3otfDbo79_pad-18" x="22775" y="-24250"/><use xlink:href="#ITo3otfDbo79_pad-18" x="22775" y="-22650"/><use xlink:href="#ITo3otfDbo79_pad-18" x="24375" y="-24250"/><use xlink:href="#ITo3otfDbo79_pad-18" x="24375" y="-22650"/><use xlink:href="#ITo3otfDbo79_pad-19" x="24490" y="-18770"/><use xlink:href="#ITo3otfDbo79_pad-19" x="17750.01" y="-21000"/><use xlink:href="#ITo3otfDbo79_pad-19" x="26202.402" y="-18600"/><use xlink:href="#ITo3otfDbo79_pad-19" x="26797.68" y="-22704.641"/><use xlink:href="#ITo3otfDbo79_pad-19" x="26202.402" y="-25900"/><use xlink:href="#ITo3otfDbo79_pad-19" x="17750" y="-26000"/><use xlink:href="#ITo3otfDbo79_pad-19" x="17900" y="-21925"/><use xlink:href="#ITo3otfDbo79_pad-19" x="17900" y="-23925"/><use xlink:href="#ITo3otfDbo79_pad-19" x="27730" y="-23220"/><use xlink:href="#ITo3otfDbo79_pad-19" x="28500" y="-21790"/><use xlink:href="#ITo3otfDbo79_pad-19" x="28300" y="-26500"/><use xlink:href="#ITo3otfDbo79_pad-19" x="28300" y="-20450"/><use xlink:href="#ITo3otfDbo79_pad-19" x="28500" y="-25230"/><path d="M 23250 -21125 23250 -22175 22775 -22650 M 24375 -24250 22775 -24250 M 22775 -22650 24375 -22650" fill="none" stroke-width="152.4"/><path d="M 24490 -18770 24490 -19710 23790 -20410 23640 -20410 23250 -20800 23250 -21125" fill="none" stroke-width="300"/><path d="M 18700 -23550 18700 -24750 17400 -24750 17220 -24930 17220 -26370 17400 -26550 17400 -28500 M 17260 -24900 17300 -24860 17300 -21450.01 17450.011 -21299.999 17750.01 -21000 M 24375 -22650 24375 -24250 M 23230 -22195 22775 -22650 M 17960 -27650 17960 -27497.6 M 18700 -25950 18700 -27160 17960 -27900 M 26202.402 -18600 26202.402 -18837.598 25690 -19350 M 26525 -22475 26740 -22690 26783.039 -22690 26797.68 -22704.641 M 26202.402 -25900 25680 -26422.402 25680 -27650 M 26600 -19000 26040 -19000 25690 -19350 M 19875 -23550 19510 -23185 19510 -20010 19170 -19670 19170 -18240 M 19370 -27140 20000 -26510 20850 -26510 M 21270 -26090 21270 -25770 M 19140 -28750 19370 -28520 19370 -27140 M 20850 -26510 21270 -26090 M 23900 -21125 23900 -20850 25400 -19350 25690 -19350 M 27050 -28200 26100 -28200 23900 -26000 M 27300 -28370 27300 -27350 M 21270 -25770 21270 -25095 21250 -25075 M 21945 -25770 21950 -25775 M 21270 -25770 21945 -25770 M 20675 -23125 21250 -23125 M 25900 -22475 26525 -22475 M 19800 -23550 20250 -23550 20675 -23125 M 23900 -25898.4 23900 -25775 M 21250 -23775 20975 -23775 20000 -24750 19800 -24750 M 18049.999 -25700.001 17750 -26000 M 19150 -25350 18400 -25350 M 19750 -24750 19150 -25350 M 19800 -24750 19750 -24750 M 18400 -25350 18049.999 -25700.001 M 19900 -24900 19850 -24900 M 27300 -20410 27300 -21200 M 27300 -25450 27300 -26450 M 22600 -21125 22600 -19725 23075 -19250 M 20535 -19250 20650 -19250 21950 -20550 21950 -20648.4 21950 -21125 M 18225 -21925 17900 -21925 M 19050 -21100 18225 -21925 M 19050 -21000 19050 -21100 M 19050 -22300 18725 -22300 17900 -23125 17900 -23925 M 17900 -23123 17900 -23925 M 21250 -24425 20825 -24425 20500 -24750 20500 -25250 19800 -25950 M 26870 -22100 26595 -21825 25900 -21825 M 27300 -22100 26870 -22100 M 26125 -21825 25900 -21825 M 25900 -24425 27175 -24425 27300 -24550 M 21250 -21825 20675 -21825 19950 -21100 19950 -21000 M 21250 -21825 20925 -21825 M 21250 -22475 20125 -22475 19950 -22300 M 26033.243 -23233.243 25900 -23100 M 27292.493 -23233.243 26033.243 -23233.243 M 27305.736 -23220 27292.493 -23233.243 M 27730 -23220 27305.736 -23220 M 28500 -21790 28500 -21500 M 25900 -23775 27350 -23775 27850 -24275 27850 -26050 28000.001 -26200.001 28300 -26500 M 28750 -26500 28724.264 -26500 28300 -26500 M 29000 -26250 28750 -26500 M 24550 -21125 24550 -20900 24940 -20510 26215 -20510 26765 -19960 27810 -19960 28300 -20450 M 28125 -20300 28275 -20450 28300 -20450 M 28425 -20575 28300 -20450 M 28649.264 -20575 28425 -20575 M 29150 -20500 29075 -20575 28649.264 -20575 M 29150 -20600 29125 -20575 28649.264 -20575 M 26675 -21125 25200 -21125 M 28500 -25230 28320 -25050 28320 -22730 27830 -22240 27830 -21740 27740 -21650 26900 -21650 26750 -21500 26750 -21200 26675 -21125 M 28500 -25230 28520 -25250 29050 -25250 29150 -25350 M 22600 -25775 22600 -26251.6 22319.2 -26532.4 21465.2 -26532.4 20500 -27497.6 20500 -27650 M 20500 -27802.4 20500 -27650 M 20500 -27747.6 20500 -27900 M 23250 -25775 23250 -27440 23040 -27650" fill="none" stroke-width="152.4"/><path d="M 18775.05 -25949.95 18795.05 -25949.95 18795.05 -25950.05 18775.05 -25950.05 18775.05 -26371.45 18821.4 -26417.8 18821.4 -28746.4 17524.977 -28746.4 17407.608 -28723.054 17329.283 -28670.718 17276.945 -28592.391 17253.6 -28475.024 17253.6 -26182.837 17301.613 -26299.037 17450.181 -26447.864 17644.394 -26528.508 17854.684 -26528.692 18049.037 -26448.387 18197.864 -26299.819 18246.4 -26182.931 18246.4 -26245.472 18281.203 -26329.492 18345.509 -26393.798 18429.529 -26428.6 18717.8 -26428.6 18774.95 -26371.45 18774.95 -25950.05 18754.95 -25950.05 18754.95 -25949.95 18774.95 -25949.95 18774.95 -25929.95 18775.05 -25929.95 18775.05 -25949.95 18775.05 -25949.95"/><path d="M 18775.05 -25949.95 18795.05 -25949.95 18795.05 -25950.05 18775.05 -25950.05 18775.05 -26371.45 18821.4 -26417.8 18821.4 -28746.4 17524.977 -28746.4 17407.608 -28723.054 17329.283 -28670.718 17276.945 -28592.391 17253.6 -28475.024 17253.6 -26182.837 17301.613 -26299.037 17450.181 -26447.864 17644.394 -26528.508 17854.684 -26528.692 18049.037 -26448.387 18197.864 -26299.819 18246.4 -26182.931 18246.4 -26245.472 18281.203 -26329.492 18345.509 -26393.798 18429.529 -26428.6 18717.8 -26428.6 18774.95 -26371.45 18774.95 -25950.05 18754.95 -25950.05 18754.95 -25949.95 18774.95 -25949.95 18774.95 -25929.95 18775.05 -25929.95 18775.05 -25949.95" fill="none" stroke-width="152.4"/><path d="M 18821.4 -20472.303 18765.286 -20482.862 18687.482 -20532.928 18635.285 -20609.32 18616.922 -20700 18616.922 -21102.026 18220.797 -21498.151 18199.819 -21477.136 18005.606 -21396.492 17795.316 -21396.308 17600.963 -21476.613 17452.136 -21625.181 17371.492 -21819.394 17371.308 -22029.684 17451.613 -22224.037 17600.181 -22372.864 17794.394 -22453.508 18004.684 -22453.692 18199.037 -22373.387 18347.864 -22224.819 18360.724 -22193.848 18440.526 -22140.526 18626.03 -21955.022 18616.922 -22000 18616.922 -22016.698 18608.358 -22018.402 18509.474 -22084.474 17690.501 -22903.447 17684.474 -22907.474 17618.402 -23006.358 17595.2 -23123 17595.2 -23482.366 17452.136 -23625.181 17371.492 -23819.394 17371.308 -24029.684 17451.613 -24224.037 17600.181 -24372.864 17794.394 -24453.508 18004.684 -24453.692 18199.037 -24373.387 18347.864 -24224.819 18428.508 -24030.606 18428.51 -24028.178 18429.529 -24028.6 18717.8 -24028.6 18774.95 -23971.45 18774.95 -23550.05 18754.95 -23550.05 18754.95 -23549.95 18774.95 -23549.95 18774.95 -23128.55 18717.8 -23071.4 18429.529 -23071.4 18352.92 -23103.132 18689.229 -22766.823 18759.32 -22814.715 18821.4 -22827.286 18821.4 -23082.2 18775.05 -23128.55 18775.05 -23549.95 18795.05 -23549.95 18795.05 -23550.05 18775.05 -23550.05 18775.05 -23971.45 18821.4 -24017.8 18821.4 -24282.2 18775.05 -24328.55 18775.05 -24749.95 18795.05 -24749.95 18795.05 -24750.05 18775.05 -24750.05 18775.05 -24770.05 18774.95 -24770.05 18774.95 -24750.05 18303.55 -24750.05 18246.4 -24807.2 18246.4 -25045.472 18261.851 -25082.773 18184.474 -25134.474 17847.463 -25471.485 17645.316 -25471.308 17450.963 -25551.613 17302.136 -25700.181 17253.6 -25817.069 17253.6 -24454.528 18246.4 -24454.528 18246.4 -24692.8 18303.55 -24749.95 18774.95 -24749.95 18774.95 -24328.55 18717.8 -24271.4 18429.529 -24271.4 18345.509 -24306.202 18281.203 -24370.508 18246.4 -24454.528 17253.6 -24454.528 17253.6 -18524.976 17276.945 -18407.609 17329.283 -18329.282 17407.608 -18276.946 17524.977 -18253.6 18821.4 -18253.6 18821.4 -20472.303 18821.4 -20472.303"/><path d="M 18821.4 -20472.303 18765.286 -20482.862 18687.482 -20532.928 18635.285 -20609.32 18616.922 -20700 18616.922 -21102.026 18220.797 -21498.151 18199.819 -21477.136 18005.606 -21396.492 17795.316 -21396.308 17600.963 -21476.613 17452.136 -21625.181 17371.492 -21819.394 17371.308 -22029.684 17451.613 -22224.037 17600.181 -22372.864 17794.394 -22453.508 18004.684 -22453.692 18199.037 -22373.387 18347.864 -22224.819 18360.724 -22193.848 18440.526 -22140.526 18626.03 -21955.022 18616.922 -22000 18616.922 -22016.698 18608.358 -22018.402 18509.474 -22084.474 17690.501 -22903.447 17684.474 -22907.474 17618.402 -23006.358 17595.2 -23123 17595.2 -23482.366 17452.136 -23625.181 17371.492 -23819.394 17371.308 -24029.684 17451.613 -24224.037 17600.181 -24372.864 17794.394 -24453.508 18004.684 -24453.692 18199.037 -24373.387 18347.864 -24224.819 18428.508 -24030.606 18428.51 -24028.178 18429.529 -24028.6 18717.8 -24028.6 18774.95 -23971.45 18774.95 -23550.05 18754.95 -23550.05 18754.95 -23549.95 18774.95 -23549.95 18774.95 -23128.55 18717.8 -23071.4 18429.529 -23071.4 18352.92 -23103.132 18689.229 -22766.823 18759.32 -22814.715 18821.4 -22827.286 18821.4 -23082.2 18775.05 -23128.55 18775.05 -23549.95 18795.05 -23549.95 18795.05 -23550.05 18775.05 -23550.05 18775.05 -23971.45 18821.4 -24017.8 18821.4 -24282.2 18775.05 -24328.55 18775.05 -24749.95 18795.05 -24749.95 18795.05 -24750.05 18775.05 -24750.05 18775.05 -24770.05 18774.95 -24770.05 18774.95 -24750.05 18303.55 -24750.05 18246.4 -24807.2 18246.4 -25045.472 18261.851 -25082.773 18184.474 -25134.474 17847.463 -25471.485 17645.316 -25471.308 17450.963 -25551.613 17302.136 -25700.181 17253.6 -25817.069 17253.6 -24454.528 18246.4 -24454.528 18246.4 -24692.8 18303.55 -24749.95 18774.95 -24749.95 18774.95 -24328.55 18717.8 -24271.4 18429.529 -24271.4 18345.509 -24306.202 18281.203 -24370.508 18246.4 -24454.528 17253.6 -24454.528 17253.6 -18524.976 17276.945 -18407.609 17329.283 -18329.282 17407.608 -18276.946 17524.977 -18253.6 18821.4 -18253.6 18821.4 -20472.303" fill="none" stroke-width="152.4"/><path d="M 29206.339 -18395.118 29218.872 -18426.451 29238.872 -18476.452 29245.538 -18486.697 29249.661 -18498.203 29271.076 -18533.896 29285.8 -18578.067 29344.754 -18754.929 29383.848 -18891.758 29386.677 -18897.264 29387.678 -18903.371 29415.528 -18977.637 29433.154 -19039.329 29452.538 -19116.865 29470.059 -19186.951 29478.93 -19266.786 29481.435 -19274.687 29481.62 -19282.973 29501.619 -19372.973 29502.439 -19374.834 29502.538 -19376.865 29521.663 -19453.365 29540.952 -19549.809 29541.583 -19551.329 29541.62 -19552.973 29559.655 -19634.134 29568.754 -19725.125 29570.944 -19732.306 29570.952 -19739.81 29590.952 -19839.809 29590.952 -19839.81 29609.493 -19932.513 29618.754 -20025.125 29620.554 -20031.026 29620.452 -20037.191 29639.36 -20141.183 29648.754 -20235.125 29650.554 -20241.026 29650.452 -20247.191 29669.238 -20350.511 29678.575 -20453.223 29688.525 -20572.623 29690.574 -20579.764 29690.452 -20587.191 29709.136 -20689.95 29718.525 -20802.623 29724.39 -20873 28127 -20873 28127 -18377 29192.75 -18377 29206.339 -18395.118 29206.339 -18395.118"/><path d="M 29206.339 -18395.118 29218.872 -18426.451 29238.872 -18476.452 29245.538 -18486.697 29249.661 -18498.203 29271.076 -18533.896 29285.8 -18578.067 29344.754 -18754.929 29383.848 -18891.758 29386.677 -18897.264 29387.678 -18903.371 29415.528 -18977.637 29433.154 -19039.329 29452.538 -19116.865 29470.059 -19186.951 29478.93 -19266.786 29481.435 -19274.687 29481.62 -19282.973 29501.619 -19372.973 29502.439 -19374.834 29502.538 -19376.865 29521.663 -19453.365 29540.952 -19549.809 29541.583 -19551.329 29541.62 -19552.973 29559.655 -19634.134 29568.754 -19725.125 29570.944 -19732.306 29570.952 -19739.81 29590.952 -19839.809 29590.952 -19839.81 29609.493 -19932.513 29618.754 -20025.125 29620.554 -20031.026 29620.452 -20037.191 29639.36 -20141.183 29648.754 -20235.125 29650.554 -20241.026 29650.452 -20247.191 29669.238 -20350.511 29678.575 -20453.223 29688.525 -20572.623 29690.574 -20579.764 29690.452 -20587.191 29709.136 -20689.95 29718.525 -20802.623 29724.39 -20873 28127 -20873 28127 -18377 29192.75 -18377 29206.339 -18395.118" fill="none" stroke-width="254"/><path d="M 29768.448 -21411.658 29768.581 -21412.132 29768.525 -21412.623 29778.489 -21532.191 29788.448 -21661.658 29788.581 -21662.132 29788.525 -21662.623 29798.489 -21782.191 29808 -21905.834 29808 -22030 29809.152 -22035.794 29808.448 -22041.658 29828 -22295.834 29828 -22430 29829.152 -22435.794 29828.448 -22441.658 29838 -22565.834 29838 -22830 29839.152 -22835.794 29838.448 -22841.658 29848 -22965.834 29848 -23123 29602 -23123 29602 -22650 29598.119 -22630.488 29598.119 -22610.592 29567.671 -22457.519 29537.509 -22384.702 29537.507 -22384.7 29450.8 -22254.932 29450.8 -22254.931 29422.934 -22227.066 29395.069 -22199.2 29395.066 -22199.199 29265.298 -22112.491 29192.481 -22082.329 29039.408 -22051.881 28960.592 -22051.881 28807.519 -22082.329 28734.702 -22112.491 28734.7 -22112.493 28604.934 -22199.199 28604.931 -22199.2 28577.066 -22227.066 28549.2 -22254.931 28549.2 -22254.932 28468.541 -22375.647 28185.6 -22092.706 28185.6 -21740 28170.209 -21662.623 28158.532 -21603.917 28127 -21556.727 28127 -21377 29765.782 -21377 29768.448 -21411.658 29768.448 -21411.658"/><path d="M 29768.448 -21411.658 29768.581 -21412.132 29768.525 -21412.623 29778.489 -21532.191 29788.448 -21661.658 29788.581 -21662.132 29788.525 -21662.623 29798.489 -21782.191 29808 -21905.834 29808 -22030 29809.152 -22035.794 29808.448 -22041.658 29828 -22295.834 29828 -22430 29829.152 -22435.794 29828.448 -22441.658 29838 -22565.834 29838 -22830 29839.152 -22835.794 29838.448 -22841.658 29848 -22965.834 29848 -23123 29602 -23123 29602 -22650 29598.119 -22630.488 29598.119 -22610.592 29567.671 -22457.519 29537.509 -22384.702 29537.507 -22384.7 29450.8 -22254.932 29450.8 -22254.931 29422.934 -22227.066 29395.069 -22199.2 29395.066 -22199.199 29265.298 -22112.491 29192.481 -22082.329 29039.408 -22051.881 28960.592 -22051.881 28807.519 -22082.329 28734.702 -22112.491 28734.7 -22112.493 28604.934 -22199.199 28604.931 -22199.2 28577.066 -22227.066 28549.2 -22254.931 28549.2 -22254.932 28468.541 -22375.647 28185.6 -22092.706 28185.6 -21740 28170.209 -21662.623 28158.532 -21603.917 28127 -21556.727 28127 -21377 29765.782 -21377 29768.448 -21411.658" fill="none" stroke-width="254"/><path d="M 28398 -24350 28401.881 -24369.512 28401.881 -24389.408 28432.329 -24542.481 28462.491 -24615.298 28549.199 -24745.066 28549.2 -24745.069 28577.066 -24772.934 28604.931 -24800.8 28604.934 -24800.801 28734.7 -24887.507 28734.702 -24887.509 28807.519 -24917.671 28960.592 -24948.119 29039.408 -24948.119 29192.481 -24917.671 29265.298 -24887.509 29395.066 -24800.801 29395.069 -24800.8 29422.934 -24772.934 29450.8 -24745.069 29450.801 -24745.066 29537.508 -24615.299 29537.509 -24615.298 29567.671 -24542.481 29598.119 -24389.408 29598.119 -24369.512 29602 -24350 29602 -23877 29848 -23877 29848 -24034.166 29838.448 -24158.342 29839.152 -24164.206 29838 -24170 29838 -24434.166 29828.448 -24558.342 29829.152 -24564.206 29828 -24570 29828 -24704.166 29808.448 -24958.342 29809.152 -24964.206 29808 -24970 29808 -25094.166 29798.489 -25217.809 29788.525 -25337.377 29788.581 -25337.868 29788.448 -25338.342 29778.489 -25467.809 29768.525 -25587.377 29768.581 -25587.868 29768.448 -25588.342 29765.782 -25623 28205.6 -25623 28205.6 -24275 28187.11 -24182.043 28178.532 -24138.917 28127 -24061.795 28127 -23877 28398 -23877 28398 -24350 28398 -24350"/><path d="M 28398 -24350 28401.881 -24369.512 28401.881 -24389.408 28432.329 -24542.481 28462.491 -24615.298 28549.199 -24745.066 28549.2 -24745.069 28577.066 -24772.934 28604.931 -24800.8 28604.934 -24800.801 28734.7 -24887.507 28734.702 -24887.509 28807.519 -24917.671 28960.592 -24948.119 29039.408 -24948.119 29192.481 -24917.671 29265.298 -24887.509 29395.066 -24800.801 29395.069 -24800.8 29422.934 -24772.934 29450.8 -24745.069 29450.801 -24745.066 29537.508 -24615.299 29537.509 -24615.298 29567.671 -24542.481 29598.119 -24389.408 29598.119 -24369.512 29602 -24350 29602 -23877 29848 -23877 29848 -24034.166 29838.448 -24158.342 29839.152 -24164.206 29838 -24170 29838 -24434.166 29828.448 -24558.342 29829.152 -24564.206 29828 -24570 29828 -24704.166 29808.448 -24958.342 29809.152 -24964.206 29808 -24970 29808 -25094.166 29798.489 -25217.809 29788.525 -25337.377 29788.581 -25337.868 29788.448 -25338.342 29778.489 -25467.809 29768.525 -25587.377 29768.581 -25587.868 29768.448 -25588.342 29765.782 -25623 28205.6 -25623 28205.6 -24275 28187.11 -24182.043 28178.532 -24138.917 28127 -24061.795 28127 -23877 28398 -23877 28398 -24350" fill="none" stroke-width="254"/><path d="M 29718.525 -26197.377 29709.136 -26310.05 29690.452 -26412.809 29690.574 -26420.236 29688.525 -26427.377 29678.575 -26546.777 29669.238 -26649.489 29650.452 -26752.809 29650.554 -26758.974 29648.754 -26764.875 29639.36 -26858.817 29620.452 -26962.809 29620.554 -26968.974 29618.754 -26974.875 29609.493 -27067.487 29590.952 -27160.19 29590.952 -27160.191 29570.952 -27260.19 29570.944 -27267.694 29568.754 -27274.875 29559.655 -27365.866 29541.62 -27447.027 29541.583 -27448.671 29540.952 -27450.191 29521.663 -27546.635 29502.538 -27623.135 29502.439 -27625.166 29501.619 -27627.027 29481.62 -27717.027 29481.435 -27725.313 29478.93 -27733.214 29470.059 -27813.049 29452.538 -27883.135 29433.154 -27960.671 29415.528 -28022.363 29387.678 -28096.629 29386.677 -28102.736 29383.848 -28108.242 29344.754 -28245.071 29285.8 -28421.933 29271.076 -28466.104 29249.661 -28501.797 29245.538 -28513.303 29238.872 -28523.548 29218.873 -28573.546 29218.872 -28573.548 29206.339 -28604.882 29192.75 -28623 28127 -28623 28127 -26127 29724.39 -26127 29718.525 -26197.377 29718.525 -26197.377"/><path d="M 29718.525 -26197.377 29709.136 -26310.05 29690.452 -26412.809 29690.574 -26420.236 29688.525 -26427.377 29678.575 -26546.777 29669.238 -26649.489 29650.452 -26752.809 29650.554 -26758.974 29648.754 -26764.875 29639.36 -26858.817 29620.452 -26962.809 29620.554 -26968.974 29618.754 -26974.875 29609.493 -27067.487 29590.952 -27160.19 29590.952 -27160.191 29570.952 -27260.19 29570.944 -27267.694 29568.754 -27274.875 29559.655 -27365.866 29541.62 -27447.027 29541.583 -27448.671 29540.952 -27450.191 29521.663 -27546.635 29502.538 -27623.135 29502.439 -27625.166 29501.619 -27627.027 29481.62 -27717.027 29481.435 -27725.313 29478.93 -27733.214 29470.059 -27813.049 29452.538 -27883.135 29433.154 -27960.671 29415.528 -28022.363 29387.678 -28096.629 29386.677 -28102.736 29383.848 -28108.242 29344.754 -28245.071 29285.8 -28421.933 29271.076 -28466.104 29249.661 -28501.797 29245.538 -28513.303 29238.872 -28523.548 29218.873 -28573.546 29218.872 -28573.548 29206.339 -28604.882 29192.75 -28623 28127 -28623 28127 -26127 29724.39 -26127 29718.525 -26197.377" fill="none" stroke-width="254"/><path d="M 26766.922 -24750 26782.862 -24834.714 26832.928 -24912.518 26909.32 -24964.715 27000 -24983.078 27545.2 -24983.078 27545.2 -25016.922 27000 -25016.922 26915.286 -25032.862 26837.482 -25082.928 26785.285 -25159.32 26766.922 -25250 26766.922 -25650 26782.862 -25734.714 26832.928 -25812.518 26909.32 -25864.715 26995.2 -25882.106 26995.2 -26017.825 26915.286 -26032.862 26837.482 -26082.928 26785.285 -26159.32 26766.922 -26250 26766.922 -26650 26782.862 -26734.714 26832.928 -26812.518 26909.32 -26864.715 27000 -26883.078 27600 -26883.078 27684.714 -26867.138 27762.518 -26817.072 27793.8 -26771.29 27793.8 -27020.514 27793.798 -27020.509 27729.492 -26956.203 27645.472 -26921.4 27357.2 -26921.4 27300.05 -26978.55 27300.05 -27349.95 27320.05 -27349.95 27320.05 -27350.05 27300.05 -27350.05 27300.05 -27721.45 27357.2 -27778.6 27645.472 -27778.6 27729.492 -27743.797 27793.798 -27679.491 27793.8 -27679.486 27793.8 -28750 27797.337 -28768.8 27489.742 -28768.8 27481.086 -28725.285 27471.143 -28701.28 27446.564 -28641.942 27316.5 -28447.288 27252.712 -28383.5 27252.708 -28383.498 27058.058 -28253.436 26992.989 -28226.484 26974.714 -28218.914 26745.105 -28173.242 26700 -28173.243 26654.895 -28173.242 26425.285 -28218.914 26341.942 -28253.436 26147.288 -28383.5 26083.5 -28447.288 26083.498 -28447.292 25953.436 -28641.942 25944.871 -28662.62 25918.914 -28725.286 25910.259 -28768.8 19130.034 -28768.8 19138.315 -28756.68 19156.678 -28666 19156.678 -26634 19140.738 -26549.286 19126.2 -26526.694 19126.2 -26423.444 19159.714 -26417.138 19237.518 -26367.072 19289.715 -26290.68 19308.078 -26200 19308.078 -25700 19292.138 -25615.286 19291.812 -25614.78 19365.526 -25565.526 19697.974 -25233.078 20085.87 -25233.078 19852.026 -25466.922 19575 -25466.922 19490.286 -25482.862 19412.482 -25532.928 19360.285 -25609.32 19341.922 -25700 19341.922 -26200 19357.862 -26284.714 19407.928 -26362.518 19484.32 -26414.715 19575 -26433.078 20175 -26433.078 20259.714 -26417.138 20337.518 -26367.072 20389.715 -26290.68 20408.078 -26200 20408.078 -25772.974 20715.526 -25465.526 20746.48 -25419.2 20829.529 -25453.6 21192.8 -25453.6 21249.95 -25396.45 21249.95 -25075.05 21229.95 -25075.05 21229.95 -25074.95 21249.95 -25074.95 21249.95 -25054.95 21250.05 -25054.95 21250.05 -25074.95 21270.05 -25074.95 21270.05 -25075.05 21250.05 -25075.05 21250.05 -25396.45 21307.2 -25453.6 21571.4 -25453.6 21571.4 -25717.8 21628.55 -25774.95 21949.95 -25774.95 21949.95 -25754.95 21950.05 -25754.95 21950.05 -25774.95 21970.05 -25774.95 21970.05 -25775.05 21950.05 -25775.05 21950.05 -25795.05 21949.95 -25795.05 21949.95 -25775.05 21628.55 -25775.05 21571.4 -25832.2 21571.4 -26195.471 21584.708 -26227.6 21465.2 -26227.6 21348.558 -26250.802 21281.639 -26295.516 21249.674 -26316.874 20958.779 -26607.769 20600 -26536.403 20182.033 -26619.542 19827.698 -26856.301 19590.939 -27210.636 19507.8 -27628.603 19507.8 -27671.397 19590.939 -28089.364 19827.698 -28443.699 20182.033 -28680.458 20600 -28763.597 21017.967 -28680.458 21372.302 -28443.699 21609.061 -28089.364 21692.2 -27671.397 21692.2 -27628.603 21609.061 -27210.636 21452.43 -26976.222 21591.452 -26837.2 22319.2 -26837.2 22428.96 -26815.367 22367.698 -26856.301 22130.939 -27210.636 22047.8 -27628.603 22047.8 -27671.397 22130.939 -28089.364 22367.698 -28443.699 22722.033 -28680.458 23140 -28763.597 23557.967 -28680.458 23912.302 -28443.699 24149.061 -28089.364 24232.2 -27671.397 24232.2 -27628.603 24188.161 -27407.2 26771.4 -27407.2 26771.4 -27595.471 26806.202 -27679.491 26870.508 -27743.797 26954.528 -27778.6 27242.8 -27778.6 27299.95 -27721.45 27299.95 -27350.05 26828.55 -27350.05 26771.4 -27407.2 24188.161 -27407.2 24149.061 -27210.636 24078.163 -27104.529 26771.4 -27104.529 26771.4 -27292.8 26828.55 -27349.95 27299.95 -27349.95 27299.95 -26978.55 27242.8 -26921.4 26954.528 -26921.4 26870.508 -26956.203 26806.202 -27020.509 26771.4 -27104.529 24078.163 -27104.529 23912.302 -26856.301 23557.967 -26619.542 23554.8 -26618.912 23554.8 -26322.038 23562.518 -26317.072 23575.209 -26298.498 23620.508 -26343.797 23704.528 -26378.6 23842.8 -26378.6 23899.95 -26321.45 23899.95 -25775.05 23879.95 -25775.05 23879.95 -25774.95 23899.95 -25774.95 23899.95 -25754.95 23900.05 -25754.95 23900.05 -25774.95 23920.05 -25774.95 23920.05 -25775.05 23900.05 -25775.05 23900.05 -26321.45 23957.2 -26378.6 24095.472 -26378.6 24179.492 -26343.797 24224.253 -26299.036 24232.928 -26312.518 24309.32 -26364.715 24400 -26383.078 24700 -26383.078 24784.714 -26367.138 24862.518 -26317.072 24874.538 -26299.48 24882.928 -26312.518 24959.32 -26364.715 25050 -26383.078 25350 -26383.078 25434.714 -26367.138 25512.518 -26317.072 25564.715 -26240.68 25583.078 -26150 25583.078 -25458.078 26275 -25458.078 26359.714 -25442.138 26437.518 -25392.072 26489.715 -25315.68 26508.078 -25225 26508.078 -24925 26492.138 -24840.286 26442.072 -24762.482 26424.48 -24750.462 26437.518 -24742.072 26445.903 -24729.8 26766.922 -24729.8 26766.922 -24750 26766.922 -24750"/><path d="M 26766.922 -24750 26782.862 -24834.714 26832.928 -24912.518 26909.32 -24964.715 27000 -24983.078 27545.2 -24983.078 27545.2 -25016.922 27000 -25016.922 26915.286 -25032.862 26837.482 -25082.928 26785.285 -25159.32 26766.922 -25250 26766.922 -25650 26782.862 -25734.714 26832.928 -25812.518 26909.32 -25864.715 26995.2 -25882.106 26995.2 -26017.825 26915.286 -26032.862 26837.482 -26082.928 26785.285 -26159.32 26766.922 -26250 26766.922 -26650 26782.862 -26734.714 26832.928 -26812.518 26909.32 -26864.715 27000 -26883.078 27600 -26883.078 27684.714 -26867.138 27762.518 -26817.072 27793.8 -26771.29 27793.8 -27020.514 27793.798 -27020.509 27729.492 -26956.203 27645.472 -26921.4 27357.2 -26921.4 27300.05 -26978.55 27300.05 -27349.95 27320.05 -27349.95 27320.05 -27350.05 27300.05 -27350.05 27300.05 -27721.45 27357.2 -27778.6 27645.472 -27778.6 27729.492 -27743.797 27793.798 -27679.491 27793.8 -27679.486 27793.8 -28750 27797.337 -28768.8 27489.742 -28768.8 27481.086 -28725.285 27471.143 -28701.28 27446.564 -28641.942 27316.5 -28447.288 27252.712 -28383.5 27252.708 -28383.498 27058.058 -28253.436 26992.989 -28226.484 26974.714 -28218.914 26745.105 -28173.242 26700 -28173.243 26654.895 -28173.242 26425.285 -28218.914 26341.942 -28253.436 26147.288 -28383.5 26083.5 -28447.288 26083.498 -28447.292 25953.436 -28641.942 25944.871 -28662.62 25918.914 -28725.286 25910.259 -28768.8 19130.034 -28768.8 19138.315 -28756.68 19156.678 -28666 19156.678 -26634 19140.738 -26549.286 19126.2 -26526.694 19126.2 -26423.444 19159.714 -26417.138 19237.518 -26367.072 19289.715 -26290.68 19308.078 -26200 19308.078 -25700 19292.138 -25615.286 19291.812 -25614.78 19365.526 -25565.526 19697.974 -25233.078 20085.87 -25233.078 19852.026 -25466.922 19575 -25466.922 19490.286 -25482.862 19412.482 -25532.928 19360.285 -25609.32 19341.922 -25700 19341.922 -26200 19357.862 -26284.714 19407.928 -26362.518 19484.32 -26414.715 19575 -26433.078 20175 -26433.078 20259.714 -26417.138 20337.518 -26367.072 20389.715 -26290.68 20408.078 -26200 20408.078 -25772.974 20715.526 -25465.526 20746.48 -25419.2 20829.529 -25453.6 21192.8 -25453.6 21249.95 -25396.45 21249.95 -25075.05 21229.95 -25075.05 21229.95 -25074.95 21249.95 -25074.95 21249.95 -25054.95 21250.05 -25054.95 21250.05 -25074.95 21270.05 -25074.95 21270.05 -25075.05 21250.05 -25075.05 21250.05 -25396.45 21307.2 -25453.6 21571.4 -25453.6 21571.4 -25717.8 21628.55 -25774.95 21949.95 -25774.95 21949.95 -25754.95 21950.05 -25754.95 21950.05 -25774.95 21970.05 -25774.95 21970.05 -25775.05 21950.05 -25775.05 21950.05 -25795.05 21949.95 -25795.05 21949.95 -25775.05 21628.55 -25775.05 21571.4 -25832.2 21571.4 -26195.471 21584.708 -26227.6 21465.2 -26227.6 21348.558 -26250.802 21281.639 -26295.516 21249.674 -26316.874 20958.779 -26607.769 20600 -26536.403 20182.033 -26619.542 19827.698 -26856.301 19590.939 -27210.636 19507.8 -27628.603 19507.8 -27671.397 19590.939 -28089.364 19827.698 -28443.699 20182.033 -28680.458 20600 -28763.597 21017.967 -28680.458 21372.302 -28443.699 21609.061 -28089.364 21692.2 -27671.397 21692.2 -27628.603 21609.061 -27210.636 21452.43 -26976.222 21591.452 -26837.2 22319.2 -26837.2 22428.96 -26815.367 22367.698 -26856.301 22130.939 -27210.636 22047.8 -27628.603 22047.8 -27671.397 22130.939 -28089.364 22367.698 -28443.699 22722.033 -28680.458 23140 -28763.597 23557.967 -28680.458 23912.302 -28443.699 24149.061 -28089.364 24232.2 -27671.397 24232.2 -27628.603 24188.161 -27407.2 26771.4 -27407.2 26771.4 -27595.471 26806.202 -27679.491 26870.508 -27743.797 26954.528 -27778.6 27242.8 -27778.6 27299.95 -27721.45 27299.95 -27350.05 26828.55 -27350.05 26771.4 -27407.2 24188.161 -27407.2 24149.061 -27210.636 24078.163 -27104.529 26771.4 -27104.529 26771.4 -27292.8 26828.55 -27349.95 27299.95 -27349.95 27299.95 -26978.55 27242.8 -26921.4 26954.528 -26921.4 26870.508 -26956.203 26806.202 -27020.509 26771.4 -27104.529 24078.163 -27104.529 23912.302 -26856.301 23557.967 -26619.542 23554.8 -26618.912 23554.8 -26322.038 23562.518 -26317.072 23575.209 -26298.498 23620.508 -26343.797 23704.528 -26378.6 23842.8 -26378.6 23899.95 -26321.45 23899.95 -25775.05 23879.95 -25775.05 23879.95 -25774.95 23899.95 -25774.95 23899.95 -25754.95 23900.05 -25754.95 23900.05 -25774.95 23920.05 -25774.95 23920.05 -25775.05 23900.05 -25775.05 23900.05 -26321.45 23957.2 -26378.6 24095.472 -26378.6 24179.492 -26343.797 24224.253 -26299.036 24232.928 -26312.518 24309.32 -26364.715 24400 -26383.078 24700 -26383.078 24784.714 -26367.138 24862.518 -26317.072 24874.538 -26299.48 24882.928 -26312.518 24959.32 -26364.715 25050 -26383.078 25350 -26383.078 25434.714 -26367.138 25512.518 -26317.072 25564.715 -26240.68 25583.078 -26150 25583.078 -25458.078 26275 -25458.078 26359.714 -25442.138 26437.518 -25392.072 26489.715 -25315.68 26508.078 -25225 26508.078 -24925 26492.138 -24840.286 26442.072 -24762.482 26424.48 -24750.462 26437.518 -24742.072 26445.903 -24729.8 26766.922 -24729.8 26766.922 -24750" fill="none" stroke-width="152.4"/><path d="M 26218.914 -18274.714 26220.659 -18278.926 26253.436 -18358.058 26383.498 -18552.708 26383.5 -18552.712 26447.288 -18616.5 26641.942 -18746.564 26725.285 -18781.086 26954.895 -18826.758 27000 -18826.757 27045.105 -18826.758 27274.714 -18781.086 27274.716 -18781.085 27287.71 -18775.703 27314.365 -18764.662 27358.058 -18746.564 27552.708 -18616.502 27552.712 -18616.5 27616.5 -18552.712 27746.564 -18358.058 27781.086 -18274.715 27781.086 -18274.714 27789.742 -18231.2 27797.607 -18231.2 27793.8 -18250 27793.8 -19180.514 27793.798 -19180.509 27729.492 -19116.203 27645.472 -19081.4 27357.2 -19081.4 27300.05 -19138.55 27300.05 -19509.95 27320.05 -19509.95 27320.05 -19510.05 27300.05 -19510.05 27300.05 -19530.05 27299.95 -19530.05 27299.95 -19510.05 26828.55 -19510.05 26771.4 -19567.2 26771.4 -19655.2 26765 -19655.2 26648.358 -19678.402 26549.474 -19744.474 26088.748 -20205.2 24940 -20205.2 24823.358 -20228.402 24724.474 -20294.474 24502.026 -20516.922 24400 -20516.922 24315.286 -20532.862 24237.482 -20582.928 24224.791 -20601.502 24179.492 -20556.203 24179.299 -20556.123 24757.708 -19977.713 24757.711 -19977.711 24839.781 -19854.884 24868.6 -19710 24868.6 -19264.529 26771.4 -19264.529 26771.4 -19452.8 26828.55 -19509.95 27299.95 -19509.95 27299.95 -19138.55 27242.8 -19081.4 26954.528 -19081.4 26870.508 -19116.203 26806.202 -19180.509 26771.4 -19264.529 24868.6 -19264.529 24868.6 -19138.962 24937.864 -19069.819 25018.508 -18875.606 25018.692 -18665.316 24938.387 -18470.963 24789.819 -18322.136 24595.606 -18241.492 24385.316 -18241.308 24190.963 -18321.613 24042.136 -18470.181 23974.153 -18633.902 23922.302 -18556.301 23567.967 -18319.542 23150 -18236.403 22732.033 -18319.542 22377.698 -18556.301 22140.939 -18910.636 22057.8 -19328.603 22057.8 -19371.397 22140.939 -19789.364 22295.2 -20020.232 22295.2 -20577.962 22287.482 -20582.928 22275.462 -20600.52 22267.072 -20587.482 22254.8 -20579.097 22254.8 -20550 22231.598 -20433.358 22165.526 -20334.474 21619.286 -19788.234 21702.2 -19371.397 21702.2 -19328.603 21619.061 -18910.636 21382.302 -18556.301 21027.967 -18319.542 20610 -18236.403 20192.033 -18319.542 19837.698 -18556.301 19600.939 -18910.636 19517.8 -19328.603 19517.8 -19371.397 19600.939 -19789.364 19837.698 -20143.699 20192.033 -20380.458 20610 -20463.597 21027.967 -20380.458 21220.656 -20251.708 21602.733 -20633.785 21585.285 -20659.32 21566.922 -20750 21566.922 -21441.922 20875 -21441.922 20790.286 -21457.862 20759.028 -21477.976 20383.078 -21102.026 20383.078 -20700 20367.138 -20615.286 20317.072 -20537.482 20240.68 -20485.285 20150 -20466.922 19750 -20466.922 19665.286 -20482.862 19587.482 -20532.928 19535.285 -20609.32 19516.922 -20700 19516.922 -21300 19532.862 -21384.714 19582.928 -21462.518 19659.32 -21514.715 19750 -21533.078 19952.026 -21533.078 20194.978 -21776.03 20150 -21766.922 19750 -21766.922 19665.286 -21782.862 19587.482 -21832.928 19535.285 -21909.32 19516.922 -22000 19516.922 -22600 19532.862 -22684.714 19582.928 -22762.518 19659.32 -22814.715 19750 -22833.078 20150 -22833.078 20234.714 -22817.138 20292.738 -22779.8 20702.962 -22779.8 20707.928 -22787.518 20726.502 -22800.209 20681.203 -22845.508 20646.4 -22929.528 20646.4 -23067.8 20703.55 -23124.95 21249.95 -23124.95 21249.95 -23104.95 21250.05 -23104.95 21250.05 -23124.95 21270.05 -23124.95 21270.05 -23125.05 21250.05 -23125.05 21250.05 -23145.05 21249.95 -23145.05 21249.95 -23125.05 20703.55 -23125.05 20646.4 -23182.2 20646.4 -23320.472 20681.203 -23404.492 20725.964 -23449.253 20712.482 -23457.928 20660.285 -23534.32 20641.922 -23625 20641.922 -23677.026 20052.026 -24266.922 19575 -24266.922 19490.286 -24282.862 19412.482 -24332.928 19360.285 -24409.32 19341.922 -24500 19341.922 -24727.026 19308.078 -24760.87 19308.078 -24500 19292.138 -24415.286 19242.072 -24337.482 19165.68 -24285.285 19126.2 -24277.29 19126.2 -24023.444 19159.714 -24017.138 19237.518 -23967.072 19289.715 -23890.68 19308.078 -23800 19308.078 -23607.2 19346.4 -23607.2 19346.4 -23845.472 19381.203 -23929.492 19445.509 -23993.798 19529.529 -24028.6 19817.8 -24028.6 19874.95 -23971.45 19874.95 -23550.05 19875.05 -23550.05 19875.05 -23971.45 19932.2 -24028.6 20220.471 -24028.6 20304.491 -23993.798 20368.797 -23929.492 20403.6 -23845.472 20403.6 -23607.2 20346.45 -23550.05 19875.05 -23550.05 19874.95 -23550.05 19403.55 -23550.05 19346.4 -23607.2 19308.078 -23607.2 19308.078 -23300 19299.522 -23254.528 19346.4 -23254.528 19346.4 -23492.8 19403.55 -23549.95 19874.95 -23549.95 19874.95 -23128.55 19875.05 -23128.55 19875.05 -23549.95 20346.45 -23549.95 20403.6 -23492.8 20403.6 -23254.528 20368.797 -23170.508 20304.491 -23106.202 20220.471 -23071.4 19932.2 -23071.4 19875.05 -23128.55 19874.95 -23128.55 19817.8 -23071.4 19529.529 -23071.4 19445.509 -23106.202 19381.203 -23170.508 19346.4 -23254.528 19299.522 -23254.528 19292.138 -23215.286 19242.072 -23137.482 19165.68 -23085.285 19126.2 -23077.29 19126.2 -22833.078 19250 -22833.078 19334.714 -22817.138 19412.518 -22767.072 19464.715 -22690.68 19483.078 -22600 19483.078 -22000 19467.138 -21915.286 19417.072 -21837.482 19340.68 -21785.285 19250 -21766.922 19126.2 -21766.922 19126.2 -21533.078 19250 -21533.078 19334.714 -21517.138 19412.518 -21467.072 19464.715 -21390.68 19483.078 -21300 19483.078 -20700 19467.138 -20615.286 19417.072 -20537.482 19340.68 -20485.285 19250 -20466.922 19141.317 -20466.922 19148.315 -20456.68 19166.678 -20366 19166.678 -18334 19150.738 -18249.286 19139.1 -18231.2 26210.259 -18231.2 26218.914 -18274.714 26218.914 -18274.714"/><path d="M 26218.914 -18274.714 26220.659 -18278.926 26253.436 -18358.058 26383.498 -18552.708 26383.5 -18552.712 26447.288 -18616.5 26641.942 -18746.564 26725.285 -18781.086 26954.895 -18826.758 27000 -18826.757 27045.105 -18826.758 27274.714 -18781.086 27274.716 -18781.085 27287.71 -18775.703 27314.365 -18764.662 27358.058 -18746.564 27552.708 -18616.502 27552.712 -18616.5 27616.5 -18552.712 27746.564 -18358.058 27781.086 -18274.715 27781.086 -18274.714 27789.742 -18231.2 27797.607 -18231.2 27793.8 -18250 27793.8 -19180.514 27793.798 -19180.509 27729.492 -19116.203 27645.472 -19081.4 27357.2 -19081.4 27300.05 -19138.55 27300.05 -19509.95 27320.05 -19509.95 27320.05 -19510.05 27300.05 -19510.05 27300.05 -19530.05 27299.95 -19530.05 27299.95 -19510.05 26828.55 -19510.05 26771.4 -19567.2 26771.4 -19655.2 26765 -19655.2 26648.358 -19678.402 26549.474 -19744.474 26088.748 -20205.2 24940 -20205.2 24823.358 -20228.402 24724.474 -20294.474 24502.026 -20516.922 24400 -20516.922 24315.286 -20532.862 24237.482 -20582.928 24224.791 -20601.502 24179.492 -20556.203 24179.299 -20556.123 24757.708 -19977.713 24757.711 -19977.711 24839.781 -19854.884 24868.6 -19710 24868.6 -19264.529 26771.4 -19264.529 26771.4 -19452.8 26828.55 -19509.95 27299.95 -19509.95 27299.95 -19138.55 27242.8 -19081.4 26954.528 -19081.4 26870.508 -19116.203 26806.202 -19180.509 26771.4 -19264.529 24868.6 -19264.529 24868.6 -19138.962 24937.864 -19069.819 25018.508 -18875.606 25018.692 -18665.316 24938.387 -18470.963 24789.819 -18322.136 24595.606 -18241.492 24385.316 -18241.308 24190.963 -18321.613 24042.136 -18470.181 23974.153 -18633.902 23922.302 -18556.301 23567.967 -18319.542 23150 -18236.403 22732.033 -18319.542 22377.698 -18556.301 22140.939 -18910.636 22057.8 -19328.603 22057.8 -19371.397 22140.939 -19789.364 22295.2 -20020.232 22295.2 -20577.962 22287.482 -20582.928 22275.462 -20600.52 22267.072 -20587.482 22254.8 -20579.097 22254.8 -20550 22231.598 -20433.358 22165.526 -20334.474 21619.286 -19788.234 21702.2 -19371.397 21702.2 -19328.603 21619.061 -18910.636 21382.302 -18556.301 21027.967 -18319.542 20610 -18236.403 20192.033 -18319.542 19837.698 -18556.301 19600.939 -18910.636 19517.8 -19328.603 19517.8 -19371.397 19600.939 -19789.364 19837.698 -20143.699 20192.033 -20380.458 20610 -20463.597 21027.967 -20380.458 21220.656 -20251.708 21602.733 -20633.785 21585.285 -20659.32 21566.922 -20750 21566.922 -21441.922 20875 -21441.922 20790.286 -21457.862 20759.028 -21477.976 20383.078 -21102.026 20383.078 -20700 20367.138 -20615.286 20317.072 -20537.482 20240.68 -20485.285 20150 -20466.922 19750 -20466.922 19665.286 -20482.862 19587.482 -20532.928 19535.285 -20609.32 19516.922 -20700 19516.922 -21300 19532.862 -21384.714 19582.928 -21462.518 19659.32 -21514.715 19750 -21533.078 19952.026 -21533.078 20194.978 -21776.03 20150 -21766.922 19750 -21766.922 19665.286 -21782.862 19587.482 -21832.928 19535.285 -21909.32 19516.922 -22000 19516.922 -22600 19532.862 -22684.714 19582.928 -22762.518 19659.32 -22814.715 19750 -22833.078 20150 -22833.078 20234.714 -22817.138 20292.738 -22779.8 20702.962 -22779.8 20707.928 -22787.518 20726.502 -22800.209 20681.203 -22845.508 20646.4 -22929.528 20646.4 -23067.8 20703.55 -23124.95 21249.95 -23124.95 21249.95 -23104.95 21250.05 -23104.95 21250.05 -23124.95 21270.05 -23124.95 21270.05 -23125.05 21250.05 -23125.05 21250.05 -23145.05 21249.95 -23145.05 21249.95 -23125.05 20703.55 -23125.05 20646.4 -23182.2 20646.4 -23320.472 20681.203 -23404.492 20725.964 -23449.253 20712.482 -23457.928 20660.285 -23534.32 20641.922 -23625 20641.922 -23677.026 20052.026 -24266.922 19575 -24266.922 19490.286 -24282.862 19412.482 -24332.928 19360.285 -24409.32 19341.922 -24500 19341.922 -24727.026 19308.078 -24760.87 19308.078 -24500 19292.138 -24415.286 19242.072 -24337.482 19165.68 -24285.285 19126.2 -24277.29 19126.2 -24023.444 19159.714 -24017.138 19237.518 -23967.072 19289.715 -23890.68 19308.078 -23800 19308.078 -23607.2 19346.4 -23607.2 19346.4 -23845.472 19381.203 -23929.492 19445.509 -23993.798 19529.529 -24028.6 19817.8 -24028.6 19874.95 -23971.45 19874.95 -23550.05 19875.05 -23550.05 19875.05 -23971.45 19932.2 -24028.6 20220.471 -24028.6 20304.491 -23993.798 20368.797 -23929.492 20403.6 -23845.472 20403.6 -23607.2 20346.45 -23550.05 19875.05 -23550.05 19874.95 -23550.05 19403.55 -23550.05 19346.4 -23607.2 19308.078 -23607.2 19308.078 -23300 19299.522 -23254.528 19346.4 -23254.528 19346.4 -23492.8 19403.55 -23549.95 19874.95 -23549.95 19874.95 -23128.55 19875.05 -23128.55 19875.05 -23549.95 20346.45 -23549.95 20403.6 -23492.8 20403.6 -23254.528 20368.797 -23170.508 20304.491 -23106.202 20220.471 -23071.4 19932.2 -23071.4 19875.05 -23128.55 19874.95 -23128.55 19817.8 -23071.4 19529.529 -23071.4 19445.509 -23106.202 19381.203 -23170.508 19346.4 -23254.528 19299.522 -23254.528 19292.138 -23215.286 19242.072 -23137.482 19165.68 -23085.285 19126.2 -23077.29 19126.2 -22833.078 19250 -22833.078 19334.714 -22817.138 19412.518 -22767.072 19464.715 -22690.68 19483.078 -22600 19483.078 -22000 19467.138 -21915.286 19417.072 -21837.482 19340.68 -21785.285 19250 -21766.922 19126.2 -21766.922 19126.2 -21533.078 19250 -21533.078 19334.714 -21517.138 19412.518 -21467.072 19464.715 -21390.68 19483.078 -21300 19483.078 -20700 19467.138 -20615.286 19417.072 -20537.482 19340.68 -20485.285 19250 -20466.922 19141.317 -20466.922 19148.315 -20456.68 19166.678 -20366 19166.678 -18334 19150.738 -18249.286 19139.1 -18231.2 26210.259 -18231.2 26218.914 -18274.714" fill="none" stroke-width="152.4"/><path d="M 26654.474 -22315.526 26753.358 -22381.598 26784.893 -22387.871 26832.928 -22462.518 26909.32 -22514.715 27000 -22533.078 27600 -22533.078 27677.452 -22518.504 27793.8 -22634.852 27793.8 -22691.455 27625.316 -22691.308 27430.963 -22771.613 27282.495 -22919.823 27239.16 -22928.443 26499.318 -22928.443 26492.138 -22890.286 26442.072 -22812.482 26423.498 -22799.791 26468.797 -22754.492 26503.6 -22670.472 26503.6 -22532.2 26446.45 -22475.05 25900.05 -22475.05 25900.05 -22495.05 25899.95 -22495.05 25899.95 -22475.05 25879.95 -22475.05 25879.95 -22474.95 25899.95 -22474.95 25899.95 -22454.95 25900.05 -22454.95 25900.05 -22474.95 26446.45 -22474.95 26503.6 -22417.8 26503.6 -22279.528 26468.797 -22195.508 26424.036 -22150.747 26437.518 -22142.072 26445.903 -22129.8 26468.748 -22129.8 26654.474 -22315.526 26654.474 -22315.526"/><path d="M 26654.474 -22315.526 26753.358 -22381.598 26784.893 -22387.871 26832.928 -22462.518 26909.32 -22514.715 27000 -22533.078 27600 -22533.078 27677.452 -22518.504 27793.8 -22634.852 27793.8 -22691.455 27625.316 -22691.308 27430.963 -22771.613 27282.495 -22919.823 27239.16 -22928.443 26499.318 -22928.443 26492.138 -22890.286 26442.072 -22812.482 26423.498 -22799.791 26468.797 -22754.492 26503.6 -22670.472 26503.6 -22532.2 26446.45 -22475.05 25900.05 -22475.05 25900.05 -22495.05 25899.95 -22495.05 25899.95 -22475.05 25879.95 -22475.05 25879.95 -22474.95 25899.95 -22474.95 25899.95 -22454.95 25900.05 -22454.95 25900.05 -22474.95 26446.45 -22474.95 26503.6 -22417.8 26503.6 -22279.528 26468.797 -22195.508 26424.036 -22150.747 26437.518 -22142.072 26445.903 -22129.8 26468.748 -22129.8 26654.474 -22315.526" fill="none" stroke-width="152.4"/><path d="M 23900.05 -21124.95 23920.05 -21124.95 23920.05 -21125.05 23900.05 -21125.05 23900.05 -21145.05 23899.95 -21145.05 23899.95 -21125.05 23879.95 -21125.05 23879.95 -21124.95 23899.95 -21124.95 23899.95 -21104.95 23900.05 -21104.95 23900.05 -21124.95 23900.05 -21124.95"/><path d="M 23900.05 -21124.95 23920.05 -21124.95 23920.05 -21125.05 23900.05 -21125.05 23900.05 -21145.05 23899.95 -21145.05 23899.95 -21125.05 23879.95 -21125.05 23879.95 -21124.95 23899.95 -21124.95 23899.95 -21104.95 23900.05 -21104.95 23900.05 -21124.95" fill="none" stroke-width="152.4"/></g><g id="pcb-stackup_bottom_sm"><path d="M 28500 -22750 30250 -22750 30250 -18500 28500 -18500 28500 -22750 28500 -22750"/><path d="M 28500 -22750 30250 -22750 30250 -18500 28500 -18500 28500 -22750" fill="none" stroke-width="100"/><path d="M 28500 -28500 28500 -24000 30250 -24000 30250 -28500 28500 -28500 28500 -28500"/><path d="M 28500 -28500 28500 -24000 30250 -24000 30250 -28500 28500 -28500" fill="none" stroke-width="100"/><path d="M 18673.6 -28416 17446.4 -28416 17446.4 -26884 18673.6 -26884 18673.6 -28416 18673.6 -28416"/><path d="M 20723.333 -27045.957 20723.343 -27045.96 20723.381 -27045.964 20837.78 -27081.376 20943.121 -27138.334 21035.393 -27214.667 21111.08 -27307.47 21167.301 -27413.206 21201.914 -27527.849 21213.6 -27647.031 21213.6 -27652.969 21213.54 -27661.536 21200.191 -27780.544 21163.981 -27894.692 21106.29 -27999.633 21029.313 -28091.369 20935.985 -28166.408 20829.859 -28221.889 20714.977 -28255.7 20714.948 -28255.703 20714.93 -28255.708 20595.719 -28266.557 20476.667 -28254.043 20476.657 -28254.04 20476.619 -28254.036 20362.22 -28218.624 20256.879 -28161.666 20164.607 -28085.333 20088.92 -27992.53 20032.699 -27886.794 19998.086 -27772.151 19986.4 -27652.969 19986.4 -27647.031 19986.46 -27638.464 19999.809 -27519.456 20036.019 -27405.308 20093.71 -27300.367 20170.687 -27208.631 20264.015 -27133.592 20370.141 -27078.111 20485.023 -27044.3 20485.052 -27044.297 20485.07 -27044.292 20604.281 -27033.443 20723.333 -27045.957 20723.333 -27045.957"/><path d="M 25803.333 -27045.957 25803.343 -27045.96 25803.381 -27045.964 25917.78 -27081.376 26023.121 -27138.334 26115.393 -27214.667 26191.08 -27307.47 26247.301 -27413.206 26281.914 -27527.849 26293.6 -27647.031 26293.6 -27652.969 26293.54 -27661.536 26280.191 -27780.544 26243.981 -27894.692 26186.29 -27999.633 26109.313 -28091.369 26015.985 -28166.408 25909.859 -28221.889 25794.977 -28255.7 25794.948 -28255.703 25794.93 -28255.708 25675.719 -28266.557 25556.667 -28254.043 25556.657 -28254.04 25556.619 -28254.036 25442.22 -28218.624 25336.879 -28161.666 25244.607 -28085.333 25168.92 -27992.53 25112.699 -27886.794 25078.086 -27772.151 25066.4 -27652.969 25066.4 -27647.031 25066.46 -27638.464 25079.809 -27519.456 25116.019 -27405.308 25173.71 -27300.367 25250.687 -27208.631 25344.015 -27133.592 25450.141 -27078.111 25565.023 -27044.3 25565.052 -27044.297 25565.07 -27044.292 25684.281 -27033.443 25803.333 -27045.957 25803.333 -27045.957"/><path d="M 23263.333 -27045.957 23263.343 -27045.96 23263.381 -27045.964 23377.78 -27081.376 23483.121 -27138.334 23575.393 -27214.667 23651.08 -27307.47 23707.301 -27413.206 23741.914 -27527.849 23753.6 -27647.031 23753.6 -27652.969 23753.54 -27661.536 23740.191 -27780.544 23703.981 -27894.692 23646.29 -27999.633 23569.313 -28091.369 23475.985 -28166.408 23369.859 -28221.889 23254.977 -28255.7 23254.948 -28255.703 23254.93 -28255.708 23135.719 -28266.557 23016.667 -28254.043 23016.657 -28254.04 23016.619 -28254.036 22902.22 -28218.624 22796.879 -28161.666 22704.607 -28085.333 22628.92 -27992.53 22572.699 -27886.794 22538.086 -27772.151 22526.4 -27652.969 22526.4 -27647.031 22526.46 -27638.464 22539.809 -27519.456 22576.019 -27405.308 22633.71 -27300.367 22710.687 -27208.631 22804.015 -27133.592 22910.141 -27078.111 23025.023 -27044.3 23025.052 -27044.297 23025.07 -27044.292 23144.281 -27033.443 23263.333 -27045.957 23263.333 -27045.957"/><path d="M 27700 -27650 26900 -27650 26900 -27050 27700 -27050 27700 -27650 27700 -27650"/><path d="M 27700 -26750 26900 -26750 26900 -26150 27700 -26150 27700 -26750 27700 -26750"/><path d="M 19175 -26300 18375 -26300 18375 -25600 19175 -25600 19175 -26300 19175 -26300"/><path d="M 20275 -26300 19475 -26300 19475 -25600 20275 -25600 20275 -26300 20275 -26300"/><path d="M 21725 -25250 21726.98 -25263.93 21732.761 -25276.756 21741.888 -25287.464 21753.636 -25295.206 21767.076 -25299.368 21775 -25300 22200 -25300 22200 -26250 21700 -26250 21700 -25375 21698.02 -25361.07 21692.239 -25348.244 21683.112 -25337.536 21671.364 -25329.794 21657.924 -25325.632 21650 -25325 20775 -25325 20775 -24825 21725 -24825 21725 -25250 21725 -25250"/><path d="M 22850 -26250 22350 -26250 22350 -25300 22850 -25300 22850 -26250 22850 -26250"/><path d="M 23500 -26250 23000 -26250 23000 -25300 23500 -25300 23500 -26250 23500 -26250"/><path d="M 24150 -26250 23650 -26250 23650 -25300 24150 -25300 24150 -26250 24150 -26250"/><path d="M 26375 -25325 25500 -25325 25486.07 -25326.98 25473.244 -25332.761 25462.536 -25341.888 25454.794 -25353.636 25450.632 -25367.076 25450 -25375 25450 -26250 24950 -26250 24950 -25300 25375 -25300 25388.93 -25298.02 25401.756 -25292.239 25412.464 -25283.112 25420.206 -25271.364 25424.368 -25257.924 25425 -25250 25425 -24825 26375 -24825 26375 -25325 26375 -25325"/><path d="M 24800 -26250 24300 -26250 24300 -25300 24800 -25300 24800 -26250 24800 -26250"/><path d="M 27700 -25750 26900 -25750 26900 -25150 27700 -25150 27700 -25750 27700 -25750"/><path d="M 25275 -25150 21875 -25150 21875 -21750 25275 -21750 25275 -25150 25275 -25150"/><path d="M 19175 -25100 18375 -25100 18375 -24400 19175 -24400 19175 -25100 19175 -25100"/><path d="M 20275 -25100 19475 -25100 19475 -24400 20275 -24400 20275 -25100 20275 -25100"/><path d="M 27700 -24850 26900 -24850 26900 -24250 27700 -24250 27700 -24850 27700 -24850"/><path d="M 21725 -24675 20775 -24675 20775 -24175 21725 -24175 21725 -24675 21725 -24675"/><path d="M 26375 -24675 25425 -24675 25425 -24175 26375 -24175 26375 -24675 26375 -24675"/><path d="M 21725 -24025 20775 -24025 20775 -23525 21725 -23525 21725 -24025 21725 -24025"/><path d="M 26375 -24025 25425 -24025 25425 -23525 26375 -23525 26375 -24025 26375 -24025"/><path d="M 20275 -23900 19475 -23900 19475 -23200 20275 -23200 20275 -23900 20275 -23900"/><path d="M 19175 -23900 18375 -23900 18375 -23200 19175 -23200 19175 -23900 19175 -23900"/><path d="M 26375 -23375 25425 -23375 25425 -22875 26375 -22875 26375 -23375 26375 -23375"/><path d="M 21725 -23375 20775 -23375 20775 -22875 21725 -22875 21725 -23375 21725 -23375"/><path d="M 26375 -22725 25425 -22725 25425 -22225 26375 -22225 26375 -22725 26375 -22725"/><path d="M 21725 -22725 20775 -22725 20775 -22225 21725 -22225 21725 -22725 21725 -22725"/><path d="M 19350 -22700 18750 -22700 18750 -21900 19350 -21900 19350 -22700 19350 -22700"/><path d="M 20250 -22700 19650 -22700 19650 -21900 20250 -21900 20250 -22700 20250 -22700"/><path d="M 27700 -22400 26900 -22400 26900 -21800 27700 -21800 27700 -22400 27700 -22400"/><path d="M 25450 -21525 25451.98 -21538.93 25457.761 -21551.756 25466.888 -21562.464 25478.636 -21570.206 25492.076 -21574.368 25500 -21575 26375 -21575 26375 -22075 25425 -22075 25425 -21650 25423.02 -21636.07 25417.239 -21623.244 25408.112 -21612.536 25396.364 -21604.794 25382.924 -21600.632 25375 -21600 24950 -21600 24950 -20650 25450 -20650 25450 -21525 25450 -21525"/><path d="M 22200 -21600 21775 -21600 21761.07 -21601.98 21748.244 -21607.761 21737.536 -21616.888 21729.794 -21628.636 21725.632 -21642.076 21725 -21650 21725 -22075 20775 -22075 20775 -21575 21650 -21575 21663.93 -21573.02 21676.756 -21567.239 21687.464 -21558.112 21695.206 -21546.364 21699.368 -21532.924 21700 -21525 21700 -20650 22200 -20650 22200 -21600 22200 -21600"/><path d="M 23500 -21600 23000 -21600 23000 -20650 23500 -20650 23500 -21600 23500 -21600"/><path d="M 24800 -21600 24300 -21600 24300 -20650 24800 -20650 24800 -21600 24800 -21600"/><path d="M 24150 -21600 23650 -21600 23650 -20650 24150 -20650 24150 -21600 24150 -21600"/><path d="M 22850 -21600 22350 -21600 22350 -20650 22850 -20650 22850 -21600 22850 -21600"/><path d="M 27700 -21500 26900 -21500 26900 -20900 27700 -20900 27700 -21500 27700 -21500"/><path d="M 20250 -21400 19650 -21400 19650 -20600 20250 -20600 20250 -21400 20250 -21400"/><path d="M 19350 -21400 18750 -21400 18750 -20600 19350 -20600 19350 -21400 19350 -21400"/><path d="M 27700 -20710 26900 -20710 26900 -20110 27700 -20110 27700 -20710 27700 -20710"/><path d="M 18683.6 -20116 17456.4 -20116 17456.4 -18584 18683.6 -18584 18683.6 -20116 18683.6 -20116"/><path d="M 20733.333 -18745.957 20733.343 -18745.96 20733.381 -18745.964 20847.78 -18781.376 20953.121 -18838.334 21045.393 -18914.667 21121.08 -19007.47 21177.301 -19113.206 21211.914 -19227.849 21223.6 -19347.031 21223.6 -19352.969 21223.54 -19361.536 21210.191 -19480.544 21173.981 -19594.692 21116.29 -19699.633 21039.313 -19791.369 20945.985 -19866.408 20839.859 -19921.889 20724.977 -19955.7 20724.948 -19955.703 20724.93 -19955.708 20605.719 -19966.557 20486.667 -19954.043 20486.657 -19954.04 20486.619 -19954.036 20372.22 -19918.624 20266.879 -19861.666 20174.607 -19785.333 20098.92 -19692.53 20042.699 -19586.794 20008.086 -19472.151 19996.4 -19352.969 19996.4 -19347.031 19996.46 -19338.464 20009.809 -19219.456 20046.019 -19105.308 20103.71 -19000.367 20180.687 -18908.631 20274.015 -18833.592 20380.141 -18778.111 20495.023 -18744.3 20495.052 -18744.297 20495.07 -18744.292 20614.281 -18733.443 20733.333 -18745.957 20733.333 -18745.957"/><path d="M 23273.333 -18745.957 23273.343 -18745.96 23273.381 -18745.964 23387.78 -18781.376 23493.121 -18838.334 23585.393 -18914.667 23661.08 -19007.47 23717.301 -19113.206 23751.914 -19227.849 23763.6 -19347.031 23763.6 -19352.969 23763.54 -19361.536 23750.191 -19480.544 23713.981 -19594.692 23656.29 -19699.633 23579.313 -19791.369 23485.985 -19866.408 23379.859 -19921.889 23264.977 -19955.7 23264.948 -19955.703 23264.93 -19955.708 23145.719 -19966.557 23026.667 -19954.043 23026.657 -19954.04 23026.619 -19954.036 22912.22 -19918.624 22806.879 -19861.666 22714.607 -19785.333 22638.92 -19692.53 22582.699 -19586.794 22548.086 -19472.151 22536.4 -19352.969 22536.4 -19347.031 22536.46 -19338.464 22549.809 -19219.456 22586.019 -19105.308 22643.71 -19000.367 22720.687 -18908.631 22814.015 -18833.592 22920.141 -18778.111 23035.023 -18744.3 23035.052 -18744.297 23035.07 -18744.292 23154.281 -18733.443 23273.333 -18745.957 23273.333 -18745.957"/><path d="M 25813.333 -18745.957 25813.343 -18745.96 25813.381 -18745.964 25927.78 -18781.376 26033.121 -18838.334 26125.393 -18914.667 26201.08 -19007.47 26257.301 -19113.206 26291.914 -19227.849 26303.6 -19347.031 26303.6 -19352.969 26303.54 -19361.536 26290.191 -19480.544 26253.981 -19594.692 26196.29 -19699.633 26119.313 -19791.369 26025.985 -19866.408 25919.859 -19921.889 25804.977 -19955.7 25804.948 -19955.703 25804.93 -19955.708 25685.719 -19966.557 25566.667 -19954.043 25566.657 -19954.04 25566.619 -19954.036 25452.22 -19918.624 25346.879 -19861.666 25254.607 -19785.333 25178.92 -19692.53 25122.699 -19586.794 25088.086 -19472.151 25076.4 -19352.969 25076.4 -19347.031 25076.46 -19338.464 25089.809 -19219.456 25126.019 -19105.308 25183.71 -19000.367 25260.687 -18908.631 25354.015 -18833.592 25460.141 -18778.111 25575.023 -18744.3 25575.052 -18744.297 25575.07 -18744.292 25694.281 -18733.443 25813.333 -18745.957 25813.333 -18745.957"/><path d="M 27700 -19810 26900 -19810 26900 -19210 27700 -19210 27700 -19810 27700 -19810"/></g><g id="pcb-stackup_bottom_sp"><use xlink:href="#uleRozOwc.OW_pad-11" x="18060" y="-27650"/><use xlink:href="#uleRozOwc.OW_pad-12" x="20600" y="-27650"/><use xlink:href="#uleRozOwc.OW_pad-12" x="23140" y="-27650"/><use xlink:href="#uleRozOwc.OW_pad-12" x="25680" y="-27650"/><use xlink:href="#uleRozOwc.OW_pad-13" x="27300" y="-25450"/><use xlink:href="#uleRozOwc.OW_pad-13" x="27300" y="-24550"/><use xlink:href="#uleRozOwc.OW_pad-13" x="27300" y="-20410"/><use xlink:href="#uleRozOwc.OW_pad-13" x="27300" y="-19510"/><use xlink:href="#uleRozOwc.OW_pad-14" x="18775" y="-25950"/><use xlink:href="#uleRozOwc.OW_pad-14" x="19875" y="-25950"/><use xlink:href="#uleRozOwc.OW_pad-14" x="19875" y="-23550"/><use xlink:href="#uleRozOwc.OW_pad-14" x="18775" y="-23550"/><use xlink:href="#uleRozOwc.OW_pad-14" x="19875" y="-24750"/><use xlink:href="#uleRozOwc.OW_pad-14" x="18775" y="-24750"/><use xlink:href="#uleRozOwc.OW_pad-13" x="27300" y="-26450"/><use xlink:href="#uleRozOwc.OW_pad-13" x="27300" y="-27350"/><use xlink:href="#uleRozOwc.OW_pad-13" x="27300" y="-22100"/><use xlink:href="#uleRozOwc.OW_pad-13" x="27300" y="-21200"/><use xlink:href="#uleRozOwc.OW_pad-15" x="19050" y="-22300"/><use xlink:href="#uleRozOwc.OW_pad-15" x="19950" y="-22300"/><use xlink:href="#uleRozOwc.OW_pad-15" x="19050" y="-21000"/><use xlink:href="#uleRozOwc.OW_pad-15" x="19950" y="-21000"/><use xlink:href="#uleRozOwc.OW_pad-11" x="18070" y="-19350"/><use xlink:href="#uleRozOwc.OW_pad-12" x="20610" y="-19350"/><use xlink:href="#uleRozOwc.OW_pad-12" x="23150" y="-19350"/><use xlink:href="#uleRozOwc.OW_pad-12" x="25690" y="-19350"/><use xlink:href="#uleRozOwc.OW_pad-16" x="25900" y="-21825"/><use xlink:href="#uleRozOwc.OW_pad-16" x="25900" y="-22475"/><use xlink:href="#uleRozOwc.OW_pad-16" x="25900" y="-23125"/><use xlink:href="#uleRozOwc.OW_pad-16" x="25900" y="-23775"/><use xlink:href="#uleRozOwc.OW_pad-16" x="25900" y="-24425"/><use xlink:href="#uleRozOwc.OW_pad-16" x="25900" y="-25075"/><use xlink:href="#uleRozOwc.OW_pad-17" x="25200" y="-25775"/><use xlink:href="#uleRozOwc.OW_pad-17" x="24550" y="-25775"/><use xlink:href="#uleRozOwc.OW_pad-17" x="23900" y="-25775"/><use xlink:href="#uleRozOwc.OW_pad-17" x="23250" y="-25775"/><use xlink:href="#uleRozOwc.OW_pad-17" x="22600" y="-25775"/><use xlink:href="#uleRozOwc.OW_pad-17" x="21950" y="-25775"/><use xlink:href="#uleRozOwc.OW_pad-16" x="21250" y="-25075"/><use xlink:href="#uleRozOwc.OW_pad-16" x="21250" y="-24425"/><use xlink:href="#uleRozOwc.OW_pad-16" x="21250" y="-23775"/><use xlink:href="#uleRozOwc.OW_pad-16" x="21250" y="-23125"/><use xlink:href="#uleRozOwc.OW_pad-16" x="21250" y="-22475"/><use xlink:href="#uleRozOwc.OW_pad-16" x="21250" y="-21825"/><use xlink:href="#uleRozOwc.OW_pad-17" x="21950" y="-21125"/><use xlink:href="#uleRozOwc.OW_pad-17" x="22600" y="-21125"/><use xlink:href="#uleRozOwc.OW_pad-17" x="23250" y="-21125"/><use xlink:href="#uleRozOwc.OW_pad-17" x="23900" y="-21125"/><use xlink:href="#uleRozOwc.OW_pad-17" x="24550" y="-21125"/><use xlink:href="#uleRozOwc.OW_pad-17" x="25200" y="-21125"/><use xlink:href="#uleRozOwc.OW_pad-18" x="22775" y="-24250"/><use xlink:href="#uleRozOwc.OW_pad-18" x="22775" y="-22650"/><use xlink:href="#uleRozOwc.OW_pad-18" x="24375" y="-24250"/><use xlink:href="#uleRozOwc.OW_pad-18" x="24375" y="-22650"/></g><g id="pcb-stackup_bottom_ss"><path d="M 22161.905 -19827.381 22161.905 -18827.381 21923.81 -18827.381 21780.952 -18875 21685.714 -18970.238 21638.095 -19065.476 21590.476 -19255.952 21590.476 -19398.81 21638.095 -19589.286 21685.714 -19684.524 21780.952 -19779.762 21923.81 -19827.381 22161.905 -19827.381 M 19040.476 -19732.143 19088.095 -19779.762 19230.952 -19827.381 19326.19 -19827.381 19469.048 -19779.762 19564.286 -19684.524 19611.905 -19589.286 19659.524 -19398.81 19659.524 -19255.952 19611.905 -19065.476 19564.286 -18970.238 19469.048 -18875 19326.19 -18827.381 19230.952 -18827.381 19088.095 -18875 19040.476 -18922.619 M 22185.714 -27177.381 21614.285 -27177.381 M 21900 -28177.381 21900 -27177.381 M 19040.476 -28177.381 19373.81 -27701.19 M 19611.905 -28177.381 19611.905 -27177.381 19230.952 -27177.381 19135.714 -27225 19088.095 -27272.619 19040.476 -27367.857 19040.476 -27510.714 19088.095 -27605.952 19135.714 -27653.571 19230.952 -27701.19 19611.905 -27701.19" fill="none" stroke-width="250"/><path d="M 27825 -24750 27825 -25250 M 26775 -25250 26775 -24750 M 27300 -20060 27050 -19860 M 27550 -19860 27300 -20060 M 27825 -19710 27825 -20760 M 26775 -19710 26775 -20760 M 19575 -26425 19075 -26425 M 19075 -25475 19575 -25475 M 19075 -23075 19575 -23075 M 19575 -24025 19075 -24025 M 19075 -24275 19575 -24275 M 19575 -25225 19075 -25225 M 27300 -26800 27550 -27000 M 27050 -27000 27300 -26800 M 26775 -27150 26775 -26100 M 27825 -27150 27825 -26100 M 27825 -21400 27825 -21900 M 26775 -21900 26775 -21400 M 19750 -22825 19250 -22825 M 19250 -21775 19750 -21775 M 19750 -21525 19250 -21525 M 19250 -20475 19750 -20475 M 20950 -20825 20950 -21450 M 26200 -26075 26200 -25450 M 20950 -26075 20950 -25450 M 26200 -20825 25575 -20825 M 26200 -26075 25575 -26075 M 20950 -26075 21575 -26075 M 20950 -20825 21575 -20825 M 17700 -26164.286 17728.571 -26192.857 17814.285 -26221.429 17871.428 -26221.429 17957.143 -26192.857 18014.285 -26135.714 18042.857 -26078.571 18071.428 -25964.286 18071.428 -25878.571 18042.857 -25764.286 18014.285 -25707.143 17957.143 -25650 17871.428 -25621.429 17814.285 -25621.429 17728.571 -25650 17700 -25678.571 M 17128.571 -26221.429 17471.428 -26221.429 M 17300 -26221.429 17300 -25621.429 17357.143 -25707.143 17414.285 -25764.286 17471.428 -25792.857 M 17825 -23764.286 17853.571 -23792.857 17939.285 -23821.429 17996.428 -23821.429 18082.143 -23792.857 18139.285 -23735.714 18167.857 -23678.571 18196.428 -23564.286 18196.428 -23478.571 18167.857 -23364.286 18139.285 -23307.143 18082.143 -23250 17996.428 -23221.429 17939.285 -23221.429 17853.571 -23250 17825 -23278.571 M 17596.428 -23278.571 17567.857 -23250 17510.714 -23221.429 17367.857 -23221.429 17310.714 -23250 17282.143 -23278.571 17253.571 -23335.714 17253.571 -23392.857 17282.143 -23478.571 17625 -23821.429 17253.571 -23821.429 M 17825 -24964.286 17853.571 -24992.857 17939.285 -25021.429 17996.428 -25021.429 18082.143 -24992.857 18139.285 -24935.714 18167.857 -24878.571 18196.428 -24764.286 18196.428 -24678.571 18167.857 -24564.286 18139.285 -24507.143 18082.143 -24450 17996.428 -24421.429 17939.285 -24421.429 17853.571 -24450 17825 -24478.571 M 17625 -24421.429 17253.571 -24421.429 17453.571 -24650 17367.857 -24650 17310.714 -24678.571 17282.143 -24707.143 17253.571 -24764.286 17253.571 -24907.143 17282.143 -24964.286 17310.714 -24992.857 17367.857 -25021.429 17539.285 -25021.429 17596.428 -24992.857 17625 -24964.286 M 18200 -22571.429 18400 -22285.714 M 18542.857 -22571.429 18542.857 -21971.429 18314.285 -21971.429 18257.143 -22000 18228.571 -22028.571 18200 -22085.714 18200 -22171.429 18228.571 -22228.571 18257.143 -22257.143 18314.285 -22285.714 18542.857 -22285.714 M 18000 -21971.429 17628.571 -21971.429 17828.571 -22200 17742.857 -22200 17685.714 -22228.571 17657.143 -22257.143 17628.571 -22314.286 17628.571 -22457.143 17657.143 -22514.286 17685.714 -22542.857 17742.857 -22571.429 17914.285 -22571.429 17971.428 -22542.857 18000 -22514.286 M 18200 -21271.429 18400 -20985.714 M 18542.857 -21271.429 18542.857 -20671.429 18314.285 -20671.429 18257.143 -20700 18228.571 -20728.571 18200 -20785.714 18200 -20871.429 18228.571 -20928.571 18257.143 -20957.143 18314.285 -20985.714 18542.857 -20985.714 M 17685.714 -20871.429 17685.714 -21271.429 M 17828.571 -20642.857 17971.428 -21071.429 17600 -21071.429 M 24336.905 -19202.381 24336.905 -20011.905 24289.286 -20107.143 24241.667 -20154.762 24146.429 -20202.381 23955.952 -20202.381 23860.714 -20154.762 23813.095 -20107.143 23765.476 -20011.905 23765.476 -19202.381 M 22765.476 -20202.381 23336.905 -20202.381 M 23051.191 -20202.381 23051.191 -19202.381 23146.429 -19345.238 23241.667 -19440.476 23336.905 -19488.095" fill="none" stroke-width="150"/></g><g id="pcb-stackup_bottom_drl1" transform="scale(25.4,25.4)"><use xlink:href="#sZDWE2_g_25G_pad-1" x="698.8" y="-1023.6"/><use xlink:href="#sZDWE2_g_25G_pad-1" x="698.8" y="-826.8"/><use xlink:href="#sZDWE2_g_25G_pad-1" x="704.7" y="-863.2"/><use xlink:href="#sZDWE2_g_25G_pad-1" x="704.7" y="-941.9"/><use xlink:href="#sZDWE2_g_25G_pad-1" x="964.2" y="-739"/><use xlink:href="#sZDWE2_g_25G_pad-1" x="1031.6" y="-732.3"/><use xlink:href="#sZDWE2_g_25G_pad-1" x="1031.6" y="-1019.7"/><use xlink:href="#sZDWE2_g_25G_pad-1" x="1055" y="-893.9"/><use xlink:href="#sZDWE2_g_25G_pad-1" x="1091.7" y="-914.2"/><use xlink:href="#sZDWE2_g_25G_pad-1" x="1114.2" y="-805.1"/><use xlink:href="#sZDWE2_g_25G_pad-1" x="1114.2" y="-1043.3"/><use xlink:href="#sZDWE2_g_25G_pad-1" x="1122" y="-857.9"/><use xlink:href="#sZDWE2_g_25G_pad-1" x="1122" y="-993.3"/></g><clipPath id="pcb-stackup_bottom_out"><path d="M 26100 -29000 A 600 600 0 0 0 27300 -29000 L 29000 -29000 29020 -29000 29050 -28990 29070 -28990 29100 -28970 29120 -28960 29150 -28940 29170 -28920 29200 -28890 29220 -28870 29240 -28840 29270 -28800 29290 -28760 29310 -28720 29340 -28680 29360 -28630 29380 -28580 29410 -28530 29430 -28470 29450 -28410 29470 -28350 29490 -28290 29510 -28220 29530 -28150 29560 -28070 29580 -28000 29600 -27920 29620 -27840 29630 -27750 29650 -27660 29670 -27580 29690 -27480 29710 -27390 29720 -27290 29740 -27190 29760 -27090 29770 -26990 29790 -26880 29800 -26780 29820 -26670 29830 -26560 29840 -26440 29860 -26330 29870 -26210 29880 -26090 29890 -25970 29900 -25850 29910 -25730 29920 -25600 29930 -25480 29940 -25350 29950 -25230 29960 -25100 29960 -24970 29970 -24840 29980 -24710 29980 -24570 29990 -24440 29990 -24310 29990 -24170 30000 -24040 30000 -23900 30000 -23770 30000 -23630 30000 -23500 30000 -23370 30000 -23230 30000 -23100 30000 -22960 29990 -22830 29990 -22690 29990 -22560 29980 -22430 29980 -22290 29970 -22160 29960 -22030 29960 -21900 29950 -21770 29940 -21650 29930 -21520 29920 -21400 29910 -21270 29900 -21150 29890 -21030 29880 -20910 29870 -20790 29860 -20670 29840 -20560 29830 -20440 29820 -20330 29800 -20220 29790 -20120 29770 -20010 29760 -19910 29740 -19810 29720 -19710 29710 -19610 29690 -19520 29670 -19420 29650 -19340 29630 -19250 29620 -19160 29600 -19080 29580 -19000 29560 -18930 29530 -18850 29510 -18780 29490 -18710 29470 -18650 29450 -18590 29430 -18530 29410 -18470 29380 -18420 29360 -18370 29340 -18320 29310 -18280 29290 -18240 29270 -18200 29240 -18160 29220 -18130 29200 -18110 29170 -18080 29150 -18060 29120 -18040 29100 -18030 29070 -18010 29050 -18010 29020 -18000 29000 -18000 27600 -18000 A 600 600 0 0 0 26400 -18000 L 17500 -18000 A 500 500 0 0 1 17000 -18500 L 17000 -28500 A 500 500 0 0 1 17500 -29000 L 26100 -29000 M 29400 -22650 29400 -24350 A 400 400 0 0 0 28600 -24350 L 28600 -22650 A 400 400 0 0 0 29400 -22650" fill="none" stroke-width="50"/></clipPath><mask id="pcb-stackup_bottom_mech-mask"><g fill="#000" stroke="#000"><rect x="17000" y="-29000" width="13000" height="11000" fill="#fff"/><use xlink:href="#pcb-stackup_bottom_drl1"/></g></mask><mask id="pcb-stackup_bottom_cf-mask"><g fill="#fff" stroke="#fff"><use xlink:href="#pcb-stackup_bottom_sm"/></g></mask><mask id="pcb-stackup_bottom_sm-mask"><g fill="#000" stroke="#000"><rect x="17000" y="-29000" width="13000" height="11000" fill="#fff"/><use xlink:href="#pcb-stackup_bottom_sm"/></g></mask></defs><g transform="translate(0,-47000) scale(1,-1)"><g mask="url(#pcb-stackup_bottom_mech-mask)" clip-path="url(#pcb-stackup_bottom_out)" transform="translate(47000,0) scale(-1,1)"><rect x="17000" y="-29000" width="13000" height="11000" fill="currentColor" class="pcb-stackup_fr4"/><use xlink:href="#pcb-stackup_bottom_cu" fill="currentColor" stroke="currentColor" class="pcb-stackup_cu"/><use xlink:href="#pcb-stackup_bottom_cu" fill="currentColor" stroke="currentColor" class="pcb-stackup_cf" mask="url(#pcb-stackup_bottom_cf-mask)"/><g mask="url(#pcb-stackup_bottom_sm-mask)"><rect x="17000" y="-29000" width="13000" height="11000" fill="currentColor" class="pcb-stackup_sm"/><use xlink:href="#pcb-stackup_bottom_ss" fill="currentColor" stroke="currentColor" class="pcb-stackup_ss"/></g><use xlink:href="#pcb-stackup_bottom_sp" fill="currentColor" stroke="currentColor" class="pcb-stackup_sp"/></g></g></svg>