<svg id="pcb-stackup_top" version="1.1" xmlns:xlink="http://www.w3.org/1999/xlink" stroke-linecap="round" stroke-linejoin="round" stroke-width="0" fill-rule="evenodd" clip-rule="evenodd" viewBox="17000 -29000 13000 11000" width="13mm" height="11mm" xmlns="http://www.w3.org/2000/svg"><defs><style>.pcb-stackup_fr4 {color: #4D542C;}
.pcb-stackup_cu {color: lightgrey;}
.pcb-stackup_cf {color: goldenrod;}
.pcb-stackup_sm {color: #004400; opacity: 0.9;}
.pcb-stackup_ss {color: white;}
.pcb-stackup_sp {color: #000000; opacity: 0;}
.pcb-stackup_out {color: black;}</style><rect x="-3750" y="-1562.5" width="7500" height="3125" id="iylAdJo6.RlA_pad-11"/><rect x="-3750" y="-875" width="7500" height="1750" id="iylAdJo6.RlA_pad-12"/><rect x="-500" y="-500" width="1000" height="1000" id="iylAdJo6.RlA_pad-13"/><circle cx="0" cy="0" r="300" id="iylAdJo6.RlA_pad-14"/><rect x="-3750" y="-1562.5" width="7500" height="3125" id="iylAdJo6.RlA_pad-11"/><rect x="-3750" y="-875" width="7500" height="1750" id="iylAdJo6.RlA_pad-12"/><rect x="-500" y="-500" width="1000" height="1000" id="iylAdJo6.RlA_pad-13"/><circle cx="0" cy="0" r="300" id="iylAdJo6.RlA_pad-14"/><rect x="-3750" y="-1562.5" width="7500" height="3125" id="iylAdJo6.RlA_pad-11"/><rect x="-3750" y="-875" width="7500" height="1750" id="iylAdJo6.RlA_pad-12"/><rect x="-500" y="-500" width="1000" height="1000" id="iylAdJo6.RlA_pad-13"/><circle cx="0" cy="0" r="300" id="iylAdJo6.RlA_pad-14"/><rect x="-3750" y="-1562.5" width="7500" height="3125" id="iylAdJo6.RlA_pad-11"/><rect x="-3750" y="-875" width="7500" height="1750" id="iylAdJo6.RlA_pad-12"/><rect x="-500" y="-500" width="1000" height="1000" id="iylAdJo6.RlA_pad-13"/><circle cx="0" cy="0" r="300" id="iylAdJo6.RlA_pad-14"/><rect x="-3750" y="-1562.5" width="7500" height="3125" id="iylAdJo6.RlA_pad-11"/><rect x="-3750" y="-875" width="7500" height="1750" id="iylAdJo6.RlA_pad-12"/><rect x="-500" y="-500" width="1000" height="1000" id="iylAdJo6.RlA_pad-13"/><circle cx="0" cy="0" r="300" id="iylAdJo6.RlA_pad-14"/><rect x="-3750" y="-1562.5" width="7500" height="3125" id="iylAdJo6.RlA_pad-11"/><rect x="-3750" y="-875" width="7500" height="1750" id="iylAdJo6.RlA_pad-12"/><rect x="-500" y="-500" width="1000" height="1000" id="iylAdJo6.RlA_pad-13"/><circle cx="0" cy="0" r="300" id="iylAdJo6.RlA_pad-14"/><rect x="-3750" y="-1562.5" width="7500" height="3125" id="iylAdJo6.RlA_pad-11"/><rect x="-3750" y="-875" width="7500" height="1750" id="iylAdJo6.RlA_pad-12"/><rect x="-500" y="-500" width="1000" height="1000" id="iylAdJo6.RlA_pad-13"/><circle cx="0" cy="0" r="300" id="iylAdJo6.RlA_pad-14"/><rect x="-3750" y="-1562.5" width="7500" height="3125" id="iylAdJo6.RlA_pad-11"/><rect x="-3750" y="-875" width="7500" height="1750" id="iylAdJo6.RlA_pad-12"/><rect x="-500" y="-500" width="1000" height="1000" id="iylAdJo6.RlA_pad-13"/><circle cx="0" cy="0" r="300" id="iylAdJo6.RlA_pad-14"/><rect x="-3750" y="-1562.5" width="7500" height="3125" id="iylAdJo6.RlA_pad-11"/><rect x="-3750" y="-875" width="7500" height="1750" id="iylAdJo6.RlA_pad-12"/><rect x="-500" y="-500" width="1000" height="1000" id="iylAdJo6.RlA_pad-13"/><circle cx="0" cy="0" r="300" id="iylAdJo6.RlA_pad-14"/><rect x="-3750" y="-1562.5" width="7500" height="3125" id="iylAdJo6.RlA_pad-11"/><rect x="-3750" y="-875" width="7500" height="1750" id="iylAdJo6.RlA_pad-12"/><rect x="-500" y="-500" width="1000" height="1000" id="iylAdJo6.RlA_pad-13"/><circle cx="0" cy="0" r="300" id="iylAdJo6.RlA_pad-14"/><rect x="-3750" y="-1562.5" width="7500" height="3125" id="iylAdJo6.RlA_pad-11"/><rect x="-3750" y="-875" width="7500" height="1750" id="iylAdJo6.RlA_pad-12"/><rect x="-500" y="-500" width="1000" height="1000" id="iylAdJo6.RlA_pad-13"/><circle cx="0" cy="0" r="300" id="iylAdJo6.RlA_pad-14"/><rect x="-3750" y="-1562.5" width="7500" height="3125" id="iylAdJo6.RlA_pad-11"/><rect x="-3750" y="-875" width="7500" height="1750" id="iylAdJo6.RlA_pad-12"/><rect x="-500" y="-500" width="1000" height="1000" id="iylAdJo6.RlA_pad-13"/><circle cx="0" cy="0" r="300" id="iylAdJo6.RlA_pad-14"/><rect x="-3750" y="-1562.5" width="7500" height="3125" id="iylAdJo6.RlA_pad-11"/><rect x="-3750" y="-875" width="7500" height="1750" id="iylAdJo6.RlA_pad-12"/><rect x="-500" y="-500" width="1000" height="1000" id="iylAdJo6.RlA_pad-13"/><circle cx="0" cy="0" r="300" id="iylAdJo6.RlA_pad-14"/><rect x="-3750" y="-1562.5" width="7500" height="3125" id="iylAdJo6.RlA_pad-11"/><rect x="-3750" y="-875" width="7500" height="1750" id="iylAdJo6.RlA_pad-12"/><rect x="-500" y="-500" width="1000" height="1000" id="iylAdJo6.RlA_pad-13"/><circle cx="0" cy="0" r="300" id="iylAdJo6.RlA_pad-14"/><rect x="-3750" y="-1562.5" width="7500" height="3125" id="iylAdJo6.RlA_pad-11"/><rect x="-3750" y="-875" width="7500" height="1750" id="iylAdJo6.RlA_pad-12"/><rect x="-500" y="-500" width="1000" height="1000" id="iylAdJo6.RlA_pad-13"/><circle cx="0" cy="0" r="300" id="iylAdJo6.RlA_pad-14"/><rect x="-3750" y="-1562.5" width="7500" height="3125" id="iylAdJo6.RlA_pad-11"/><rect x="-3750" y="-875" width="7500" height="1750" id="iylAdJo6.RlA_pad-12"/><rect x="-500" y="-500" width="1000" height="1000" id="iylAdJo6.RlA_pad-13"/><circle cx="0" cy="0" r="300" id="iylAdJo6.RlA_pad-14"/><circle cx="0" cy="0" r="6" id="sZDWE2_g_25G_pad-1"/><rect x="-3750" y="-1562.5" width="7500" height="3125" id="iylAdJo6.RlA_pad-11"/><rect x="-3750" y="-875" width="7500" height="1750" id="iylAdJo6.RlA_pad-12"/><rect x="-500" y="-500" width="1000" height="1000" id="iylAdJo6.RlA_pad-13"/><circle cx="0" cy="0" r="300" id="iylAdJo6.RlA_pad-14"/><rect x="-3750" y="-1562.5" width="7500" height="3125" id="iylAdJo6.RlA_pad-11"/><rect x="-3750" y="-875" width="7500" height="1750" id="iylAdJo6.RlA_pad-12"/><rect x="-500" y="-500" width="1000" height="1000" id="iylAdJo6.RlA_pad-13"/><circle cx="0" cy="0" r="300" id="iylAdJo6.RlA_pad-14"/><rect x="-3750" y="-1562.5" width="7500" height="3125" id="iylAdJo6.RlA_pad-11"/><rect x="-3750" y="-875" width="7500" height="1750" id="iylAdJo6.RlA_pad-12"/><rect x="-500" y="-500" width="1000" height="1000" id="iylAdJo6.RlA_pad-13"/><circle cx="0" cy="0" r="300" id="iylAdJo6.RlA_pad-14"/><rect x="-3750" y="-1562.5" width="7500" height="3125" id="iylAdJo6.RlA_pad-11"/><rect x="-3750" y="-875" width="7500" height="1750" id="iylAdJo6.RlA_pad-12"/><rect x="-500" y="-500" width="1000" height="1000" id="iylAdJo6.RlA_pad-13"/><circle cx="0" cy="0" r="300" id="iylAdJo6.RlA_pad-14"/><rect x="-3750" y="-1562.5" width="7500" height="3125" id="iylAdJo6.RlA_pad-11"/><rect x="-3750" y="-875" width="7500" height="1750" id="iylAdJo6.RlA_pad-12"/><rect x="-500" y="-500" width="1000" height="1000" id="iylAdJo6.RlA_pad-13"/><circle cx="0" cy="0" r="300" id="iylAdJo6.RlA_pad-14"/><rect x="-3750" y="-1562.5" width="7500" height="3125" id="iylAdJo6.RlA_pad-11"/><rect x="-3750" y="-875" width="7500" height="1750" id="iylAdJo6.RlA_pad-12"/><rect x="-500" y="-500" width="1000" height="1000" id="iylAdJo6.RlA_pad-13"/><circle cx="0" cy="0" r="300" id="iylAdJo6.RlA_pad-14"/><rect x="-3750" y="-1562.5" width="7500" height="3125" id="iylAdJo6.RlA_pad-11"/><rect x="-3750" y="-875" width="7500" height="1750" id="iylAdJo6.RlA_pad-12"/><rect x="-500" y="-500" width="1000" height="1000" id="iylAdJo6.RlA_pad-13"/><circle cx="0" cy="0" r="300" id="iylAdJo6.RlA_pad-14"/><rect x="-3750" y="-1562.5" width="7500" height="3125" id="iylAdJo6.RlA_pad-11"/><rect x="-3750" y="-875" width="7500" height="1750" id="iylAdJo6.RlA_pad-12"/><rect x="-500" y="-500" width="1000" height="1000" id="iylAdJo6.RlA_pad-13"/><circle cx="0" cy="0" r="300" id="iylAdJo6.RlA_pad-14"/><rect x="-3750" y="-1562.5" width="7500" height="3125" id="iylAdJo6.RlA_pad-11"/><rect x="-3750" y="-875" width="7500" height="1750" id="iylAdJo6.RlA_pad-12"/><rect x="-500" y="-500" width="1000" height="1000" id="iylAdJo6.RlA_pad-13"/><circle cx="0" cy="0" r="300" id="iylAdJo6.RlA_pad-14"/><rect x="-3750" y="-1562.5" width="7500" height="3125" id="iylAdJo6.RlA_pad-11"/><rect x="-3750" y="-875" width="7500" height="1750" id="iylAdJo6.RlA_pad-12"/><rect x="-500" y="-500" width="1000" height="1000" id="iylAdJo6.RlA_pad-13"/><circle cx="0" cy="0" r="300" id="iylAdJo6.RlA_pad-14"/><rect x="-3750" y="-1562.5" width="7500" height="3125" id="iylAdJo6.RlA_pad-11"/><rect x="-3750" y="-875" width="7500" height="1750" id="iylAdJo6.RlA_pad-12"/><rect x="-500" y="-500" width="1000" height="1000" id="iylAdJo6.RlA_pad-13"/><circle cx="0" cy="0" r="300" id="iylAdJo6.RlA_pad-14"/><rect x="-3750" y="-1562.5" width="7500" height="3125" id="iylAdJo6.RlA_pad-11"/><rect x="-3750" y="-875" width="7500" height="1750" id="iylAdJo6.RlA_pad-12"/><rect x="-500" y="-500" width="1000" height="1000" id="iylAdJo6.RlA_pad-13"/><circle cx="0" cy="0" r="300" id="iylAdJo6.RlA_pad-14"/><rect x="-3750" y="-1562.5" width="7500" height="3125" id="iylAdJo6.RlA_pad-11"/><rect x="-3750" y="-875" width="7500" height="1750" id="iylAdJo6.RlA_pad-12"/><rect x="-500" y="-500" width="1000" height="1000" id="iylAdJo6.RlA_pad-13"/><circle cx="0" cy="0" r="300" id="iylAdJo6.RlA_pad-14"/><rect x="-3750" y="-1562.5" width="7500" height="3125" id="iylAdJo6.RlA_pad-11"/><rect x="-3750" y="-875" width="7500" height="1750" id="iylAdJo6.RlA_pad-12"/><rect x="-500" y="-500" width="1000" height="1000" id="iylAdJo6.RlA_pad-13"/><circle cx="0" cy="0" r="300" id="iylAdJo6.RlA_pad-14"/><rect x="-3750" y="-1562.5" width="7500" height="3125" id="iylAdJo6.RlA_pad-11"/><rect x="-3750" y="-875" width="7500" height="1750" id="iylAdJo6.RlA_pad-12"/><rect x="-500" y="-500" width="1000" height="1000" id="iylAdJo6.RlA_pad-13"/><circle cx="0" cy="0" r="300" id="iylAdJo6.RlA_pad-14"/><rect x="-3750" y="-1562.5" width="7500" height="3125" id="iylAdJo6.RlA_pad-11"/><rect x="-3750" y="-875" width="7500" height="1750" id="iylAdJo6.RlA_pad-12"/><rect x="-500" y="-500" width="1000" height="1000" id="iylAdJo6.RlA_pad-13"/><circle cx="0" cy="0" r="300" id="iylAdJo6.RlA_pad-14"/><circle cx="0" cy="0" r="6" id="sZDWE2_g_25G_pad-1"/><g id="pcb-stackup_top_cu"><path d="M 26750 -28020 26750 -27700 M 26516.667 -27900 27116.667 -27900 27183.333 -27860 27216.667 -27780 27216.667 -27700 M 27216.667 -27300 27183.333 -27380 27150 -27420 27083.333 -27460 26883.333 -27460 26816.667 -27420 26783.333 -27380 26750 -27300 26750 -27180 26783.333 -27100 26816.667 -27060 26883.333 -27020 27083.333 -27020 27150 -27060 27183.333 -27100 27216.667 -27180 27216.667 -27300 M 27216.667 -26660 26750 -26660 M 26816.667 -26660 26783.333 -26620 26750 -26540 26750 -26420 26783.333 -26340 26850 -26300 27216.667 -26300 M 26850 -26300 26783.333 -26260 26750 -26180 26750 -26060 26783.333 -25980 26850 -25940 27216.667 -25940 M 26750 -25180 27216.667 -25180 M 26750 -25540 27116.667 -25540 27183.333 -25500 27216.667 -25420 27216.667 -25300 27183.333 -25220 27150 -25180 M 27150 -24780 27183.333 -24740 27216.667 -24780 27183.333 -24820 27150 -24780 27216.667 -24780 M 27216.667 -24380 26750 -24380 M 26516.667 -24380 26550 -24420 26583.333 -24380 26550 -24340 26516.667 -24380 26583.333 -24380 M 27216.667 -23980 26750 -23980 M 26816.667 -23980 26783.333 -23940 26750 -23860 26750 -23740 26783.333 -23660 26850 -23620 27216.667 -23620 M 26850 -23620 26783.333 -23580 26750 -23500 26750 -23380 26783.333 -23300 26850 -23260 27216.667 -23260 M 26750 -21660 27216.667 -21460 26750 -21260 M 26516.667 -20780 26516.667 -20700 26550 -20620 26583.333 -20580 26650 -20540 26783.333 -20500 26950 -20500 27083.333 -20540 27150 -20580 27183.333 -20620 27216.667 -20700 27216.667 -20780 27183.333 -20860 27150 -20900 27083.333 -20940 26950 -20980 26783.333 -20980 26650 -20940 26583.333 -20900 26550 -20860 26516.667 -20780 M 27150 -20140 27183.333 -20100 27216.667 -20140 27183.333 -20180 27150 -20140 27216.667 -20140 M 26516.667 -19820 26516.667 -19300 26783.333 -19580 26783.333 -19460 26816.667 -19380 26850 -19340 26916.667 -19300 27083.333 -19300 27150 -19340 27183.333 -19380 27216.667 -19460 27216.667 -19700 27183.333 -19780 27150 -19820" fill="none" stroke-width="100"/><use xlink:href="#iylAdJo6.RlA_pad-11" x="22000" y="-27187.5"/><use xlink:href="#iylAdJo6.RlA_pad-11" x="22000" y="-19812.5"/><use xlink:href="#iylAdJo6.RlA_pad-12" x="22000" y="-24500"/><use xlink:href="#iylAdJo6.RlA_pad-12" x="22000" y="-22500"/><path d="M 18250 -25625 18250 -28750 17250 -27750 17250 -26625 18250 -25625 18250 -25625"/><path d="M 18250 -18262.5 18250 -21387.5 17250 -20387.5 17250 -19262.5 18250 -18262.5 18250 -18262.5"/><use xlink:href="#iylAdJo6.RlA_pad-13" x="17750" y="-26125"/><use xlink:href="#iylAdJo6.RlA_pad-13" x="17750" y="-20875"/><use xlink:href="#iylAdJo6.RlA_pad-14" x="24490" y="-18770"/><use xlink:href="#iylAdJo6.RlA_pad-14" x="17750.01" y="-21000"/><use xlink:href="#iylAdJo6.RlA_pad-14" x="26202.402" y="-18600"/><use xlink:href="#iylAdJo6.RlA_pad-14" x="26797.68" y="-22704.641"/><use xlink:href="#iylAdJo6.RlA_pad-14" x="26202.402" y="-25900"/><use xlink:href="#iylAdJo6.RlA_pad-14" x="17750" y="-26000"/><use xlink:href="#iylAdJo6.RlA_pad-14" x="17900" y="-21925"/><use xlink:href="#iylAdJo6.RlA_pad-14" x="17900" y="-23925"/><use xlink:href="#iylAdJo6.RlA_pad-14" x="27730" y="-23220"/><use xlink:href="#iylAdJo6.RlA_pad-14" x="28500" y="-21790"/><use xlink:href="#iylAdJo6.RlA_pad-14" x="28300" y="-26500"/><use xlink:href="#iylAdJo6.RlA_pad-14" x="28300" y="-20450"/><use xlink:href="#iylAdJo6.RlA_pad-14" x="28500" y="-25230"/><path d="M 22000 -19812.5 23447.5 -19812.5 24490 -18770 M 17750 -19825 21987.5 -19825 22000 -19812.5 M 17750.01 -21000 17750.01 -19825.01 17750 -19825" fill="none" stroke-width="600"/><path d="M 17762.5 -19812.5 17750 -19825 M 26200 -19000 26200 -18602.402 26202.402 -18600 M 26202.402 -22700 26202.402 -20802.402 26200 -20800 26200 -19000 M 26202.402 -25900 26202.402 -22700 M 26368.775 -22700 26202.402 -22700 M 26797.68 -22704.641 26373.416 -22704.641 26368.775 -22700 M 22000 -27187.5 18097.6 -27187.5 17750 -26839.9 M 17750 -26424.264 17750 -26000 M 17750 -26839.9 17750 -26424.264" fill="none" stroke-width="152.4"/><path d="M 17750 -27187.5 17750 -26000 M 17900 -21925 21425 -21925 22000 -22500 M 17900 -23925 21425 -23925 22000 -24500 M 18324.264 -23925 17900 -23925 M 19105.38 -24000 19030.38 -23925 18324.264 -23925" fill="none" stroke-width="600"/><path d="M 27730 -23220 27730 -22560 28500 -21790" fill="none" stroke-width="152.4"/><path d="M 29206.339 -18395.118 29218.872 -18426.451 29238.872 -18476.452 29245.538 -18486.697 29249.661 -18498.203 29271.076 -18533.896 29285.8 -18578.067 29344.754 -18754.929 29383.848 -18891.758 29386.677 -18897.264 29387.678 -18903.371 29415.528 -18977.637 29433.154 -19039.329 29452.538 -19116.865 29470.059 -19186.951 29478.93 -19266.786 29481.435 -19274.687 29481.62 -19282.973 29501.619 -19372.973 29502.439 -19374.834 29502.538 -19376.865 29521.663 -19453.365 29540.952 -19549.809 29541.583 -19551.329 29541.62 -19552.973 29559.655 -19634.134 29568.754 -19725.125 29570.944 -19732.306 29570.952 -19739.81 29590.952 -19839.809 29590.952 -19839.81 29609.493 -19932.513 29618.754 -20025.125 29620.554 -20031.026 29620.452 -20037.191 29639.36 -20141.183 29648.754 -20235.125 29650.554 -20241.026 29650.452 -20247.191 29669.238 -20350.511 29678.575 -20453.223 29688.525 -20572.623 29690.574 -20579.764 29690.452 -20587.191 29709.136 -20689.95 29718.525 -20802.623 29724.39 -20873 27637 -20873 27637 -19013 27377 -19013 27377 -18638.654 27508.707 -18550.65 27508.711 -18550.648 27550.647 -18508.711 27638.654 -18377 29192.75 -18377 29206.339 -18395.118 29206.339 -18395.118"/><path d="M 29206.339 -18395.118 29218.872 -18426.451 29238.872 -18476.452 29245.538 -18486.697 29249.661 -18498.203 29271.076 -18533.896 29285.8 -18578.067 29344.754 -18754.929 29383.848 -18891.758 29386.677 -18897.264 29387.678 -18903.371 29415.528 -18977.637 29433.154 -19039.329 29452.538 -19116.865 29470.059 -19186.951 29478.93 -19266.786 29481.435 -19274.687 29481.62 -19282.973 29501.619 -19372.973 29502.439 -19374.834 29502.538 -19376.865 29521.663 -19453.365 29540.952 -19549.809 29541.583 -19551.329 29541.62 -19552.973 29559.655 -19634.134 29568.754 -19725.125 29570.944 -19732.306 29570.952 -19739.81 29590.952 -19839.809 29590.952 -19839.81 29609.493 -19932.513 29618.754 -20025.125 29620.554 -20031.026 29620.452 -20037.191 29639.36 -20141.183 29648.754 -20235.125 29650.554 -20241.026 29650.452 -20247.191 29669.238 -20350.511 29678.575 -20453.223 29688.525 -20572.623 29690.574 -20579.764 29690.452 -20587.191 29709.136 -20689.95 29718.525 -20802.623 29724.39 -20873 27637 -20873 27637 -19013 27377 -19013 27377 -18638.654 27508.707 -18550.65 27508.711 -18550.648 27550.647 -18508.711 27638.654 -18377 29192.75 -18377 29206.339 -18395.118" fill="none" stroke-width="254"/><path d="M 29768.448 -21411.658 29768.581 -21412.132 29768.525 -21412.623 29778.489 -21532.191 29788.448 -21661.658 29788.581 -21662.132 29788.525 -21662.623 29798.489 -21782.191 29808 -21905.834 29808 -22030 29809.152 -22035.794 29808.448 -22041.658 29828 -22295.834 29828 -22430 29829.152 -22435.794 29828.448 -22441.658 29838 -22565.834 29838 -22830 29839.152 -22835.794 29838.448 -22841.658 29848 -22965.834 29848 -23123 29602 -23123 29602 -22650 29598.119 -22630.488 29598.119 -22610.592 29567.671 -22457.519 29537.509 -22384.702 29537.507 -22384.7 29450.8 -22254.932 29450.8 -22254.931 29422.934 -22227.066 29395.069 -22199.2 29395.066 -22199.199 29265.298 -22112.491 29192.481 -22082.329 29039.408 -22051.881 28960.592 -22051.881 28807.519 -22082.329 28734.702 -22112.491 28734.7 -22112.493 28604.934 -22199.199 28604.931 -22199.2 28577.066 -22227.066 28549.2 -22254.931 28549.2 -22254.932 28462.492 -22384.701 28462.491 -22384.702 28432.329 -22457.519 28401.881 -22610.592 28401.881 -22630.488 28398 -22650 28398 -23123 27637 -23123 27637 -21377 29765.782 -21377 29768.448 -21411.658 29768.448 -21411.658"/><path d="M 29768.448 -21411.658 29768.581 -21412.132 29768.525 -21412.623 29778.489 -21532.191 29788.448 -21661.658 29788.581 -21662.132 29788.525 -21662.623 29798.489 -21782.191 29808 -21905.834 29808 -22030 29809.152 -22035.794 29808.448 -22041.658 29828 -22295.834 29828 -22430 29829.152 -22435.794 29828.448 -22441.658 29838 -22565.834 29838 -22830 29839.152 -22835.794 29838.448 -22841.658 29848 -22965.834 29848 -23123 29602 -23123 29602 -22650 29598.119 -22630.488 29598.119 -22610.592 29567.671 -22457.519 29537.509 -22384.702 29537.507 -22384.7 29450.8 -22254.932 29450.8 -22254.931 29422.934 -22227.066 29395.069 -22199.2 29395.066 -22199.199 29265.298 -22112.491 29192.481 -22082.329 29039.408 -22051.881 28960.592 -22051.881 28807.519 -22082.329 28734.702 -22112.491 28734.7 -22112.493 28604.934 -22199.199 28604.931 -22199.2 28577.066 -22227.066 28549.2 -22254.931 28549.2 -22254.932 28462.492 -22384.701 28462.491 -22384.702 28432.329 -22457.519 28401.881 -22610.592 28401.881 -22630.488 28398 -22650 28398 -23123 27637 -23123 27637 -21377 29765.782 -21377 29768.448 -21411.658" fill="none" stroke-width="254"/><path d="M 29718.525 -26197.377 29709.136 -26310.05 29690.452 -26412.809 29690.574 -26420.236 29688.525 -26427.377 29678.575 -26546.777 29669.238 -26649.489 29650.452 -26752.809 29650.554 -26758.974 29648.754 -26764.875 29639.36 -26858.817 29620.452 -26962.809 29620.554 -26968.974 29618.754 -26974.875 29609.493 -27067.487 29590.952 -27160.19 29590.952 -27160.191 29570.952 -27260.19 29570.944 -27267.694 29568.754 -27274.875 29559.655 -27365.866 29541.62 -27447.027 29541.583 -27448.671 29540.952 -27450.191 29521.663 -27546.635 29502.538 -27623.135 29502.439 -27625.166 29501.619 -27627.027 29481.62 -27717.027 29481.435 -27725.313 29478.93 -27733.214 29470.059 -27813.049 29452.538 -27883.135 29433.154 -27960.671 29415.528 -28022.363 29387.678 -28096.629 29386.677 -28102.736 29383.848 -28108.242 29344.754 -28245.071 29285.8 -28421.933 29271.076 -28466.104 29249.661 -28501.797 29245.538 -28513.303 29238.872 -28523.548 29218.873 -28573.546 29218.872 -28573.548 29206.339 -28604.882 29192.75 -28623 27377 -28623 27377 -28227 27637 -28227 27637 -26127 29724.39 -26127 29718.525 -26197.377 29718.525 -26197.377"/><path d="M 29718.525 -26197.377 29709.136 -26310.05 29690.452 -26412.809 29690.574 -26420.236 29688.525 -26427.377 29678.575 -26546.777 29669.238 -26649.489 29650.452 -26752.809 29650.554 -26758.974 29648.754 -26764.875 29639.36 -26858.817 29620.452 -26962.809 29620.554 -26968.974 29618.754 -26974.875 29609.493 -27067.487 29590.952 -27160.19 29590.952 -27160.191 29570.952 -27260.19 29570.944 -27267.694 29568.754 -27274.875 29559.655 -27365.866 29541.62 -27447.027 29541.583 -27448.671 29540.952 -27450.191 29521.663 -27546.635 29502.538 -27623.135 29502.439 -27625.166 29501.619 -27627.027 29481.62 -27717.027 29481.435 -27725.313 29478.93 -27733.214 29470.059 -27813.049 29452.538 -27883.135 29433.154 -27960.671 29415.528 -28022.363 29387.678 -28096.629 29386.677 -28102.736 29383.848 -28108.242 29344.754 -28245.071 29285.8 -28421.933 29271.076 -28466.104 29249.661 -28501.797 29245.538 -28513.303 29238.872 -28523.548 29218.873 -28573.546 29218.872 -28573.548 29206.339 -28604.882 29192.75 -28623 27377 -28623 27377 -28227 27637 -28227 27637 -26127 29724.39 -26127 29718.525 -26197.377" fill="none" stroke-width="254"/><path d="M 28398 -24350 28401.881 -24369.512 28401.881 -24389.408 28432.329 -24542.481 28462.491 -24615.298 28549.199 -24745.066 28549.2 -24745.069 28577.066 -24772.934 28604.931 -24800.8 28604.934 -24800.801 28734.7 -24887.507 28734.702 -24887.509 28807.519 -24917.671 28960.592 -24948.119 29039.408 -24948.119 29192.481 -24917.671 29265.298 -24887.509 29395.066 -24800.801 29395.069 -24800.8 29422.934 -24772.934 29450.8 -24745.069 29450.801 -24745.066 29537.508 -24615.299 29537.509 -24615.298 29567.671 -24542.481 29598.119 -24389.408 29598.119 -24369.512 29602 -24350 29602 -23877 29848 -23877 29848 -24034.166 29838.448 -24158.342 29839.152 -24164.206 29838 -24170 29838 -24434.166 29828.448 -24558.342 29829.152 -24564.206 29828 -24570 29828 -24704.166 29808.448 -24958.342 29809.152 -24964.206 29808 -24970 29808 -25094.166 29798.489 -25217.809 29788.525 -25337.377 29788.581 -25337.868 29788.448 -25338.342 29778.489 -25467.809 29768.525 -25587.377 29768.581 -25587.868 29768.448 -25588.342 29765.782 -25623 27637 -25623 27637 -23877 28398 -23877 28398 -24350 28398 -24350"/><path d="M 28398 -24350 28401.881 -24369.512 28401.881 -24389.408 28432.329 -24542.481 28462.491 -24615.298 28549.199 -24745.066 28549.2 -24745.069 28577.066 -24772.934 28604.931 -24800.8 28604.934 -24800.801 28734.7 -24887.507 28734.702 -24887.509 28807.519 -24917.671 28960.592 -24948.119 29039.408 -24948.119 29192.481 -24917.671 29265.298 -24887.509 29395.066 -24800.801 29395.069 -24800.8 29422.934 -24772.934 29450.8 -24745.069 29450.801 -24745.066 29537.508 -24615.299 29537.509 -24615.298 29567.671 -24542.481 29598.119 -24389.408 29598.119 -24369.512 29602 -24350 29602 -23877 29848 -23877 29848 -24034.166 29838.448 -24158.342 29839.152 -24164.206 29838 -24170 29838 -24434.166 29828.448 -24558.342 29829.152 -24564.206 29828 -24570 29828 -24704.166 29808.448 -24958.342 29809.152 -24964.206 29808 -24970 29808 -25094.166 29798.489 -25217.809 29788.525 -25337.377 29788.581 -25337.868 29788.448 -25338.342 29778.489 -25467.809 29768.525 -25587.377 29768.581 -25587.868 29768.448 -25588.342 29765.782 -25623 27637 -25623 27637 -23877 28398 -23877 28398 -24350" fill="none" stroke-width="254"/></g><g id="pcb-stackup_top_sm"><path d="M 27750 -28500 27750 -24000 30250 -24000 30250 -28500 27750 -28500 27750 -28500"/><path d="M 27750 -28500 27750 -24000 30250 -24000 30250 -28500 27750 -28500" fill="none" stroke-width="100"/><path d="M 30250 -22750 30250 -18500 27750 -18500 27750 -22750 30250 -22750 30250 -22750"/><path d="M 30250 -22750 30250 -18500 27750 -18500 27750 -22750 30250 -22750" fill="none" stroke-width="100"/><path d="M 18500 -25250 25500 -25250 25500 -23750 18500 -23750 18500 -25250 18500 -25250"/><path d="M 18500 -25250 25500 -25250 25500 -23750 18500 -23750 18500 -25250" fill="none" stroke-width="10"/><path d="M 25500 -25750 18500 -25750 17750 -26500 17750 -27500 18500 -28250 25500 -28250 25500 -25750 25500 -25750"/><path d="M 25500 -25750 18500 -25750 17750 -26500 17750 -27500 18500 -28250 25500 -28250 25500 -25750" fill="none" stroke-width="10"/><path d="M 18500 -23250 25500 -23250 25500 -21750 18500 -21750 18500 -23250 18500 -23250"/><path d="M 18500 -23250 25500 -23250 25500 -21750 18500 -21750 18500 -23250" fill="none" stroke-width="10"/><path d="M 25500 -18750 25500 -21250 18500 -21250 17750 -20500 17750 -19500 18500 -18750 25500 -18750 25500 -18750"/><path d="M 25500 -18750 25500 -21250 18500 -21250 17750 -20500 17750 -19500 18500 -18750 25500 -18750" fill="none" stroke-width="10"/></g><g id="pcb-stackup_top_sp" transform="scale(25.4,25.4)"/><g id="pcb-stackup_top_ss" transform="scale(25.4,25.4)"/><g id="pcb-stackup_top_drl1" transform="scale(25.4,25.4)"><use xlink:href="#sZDWE2_g_25G_pad-1" x="698.8" y="-1023.6"/><use xlink:href="#sZDWE2_g_25G_pad-1" x="698.8" y="-826.8"/><use xlink:href="#sZDWE2_g_25G_pad-1" x="704.7" y="-863.2"/><use xlink:href="#sZDWE2_g_25G_pad-1" x="704.7" y="-941.9"/><use xlink:href="#sZDWE2_g_25G_pad-1" x="964.2" y="-739"/><use xlink:href="#sZDWE2_g_25G_pad-1" x="1031.6" y="-732.3"/><use xlink:href="#sZDWE2_g_25G_pad-1" x="1031.6" y="-1019.7"/><use xlink:href="#sZDWE2_g_25G_pad-1" x="1055" y="-893.9"/><use xlink:href="#sZDWE2_g_25G_pad-1" x="1091.7" y="-914.2"/><use xlink:href="#sZDWE2_g_25G_pad-1" x="1114.2" y="-805.1"/><use xlink:href="#sZDWE2_g_25G_pad-1" x="1114.2" y="-1043.3"/><use xlink:href="#sZDWE2_g_25G_pad-1" x="1122" y="-857.9"/><use xlink:href="#sZDWE2_g_25G_pad-1" x="1122" y="-993.3"/></g><clipPath id="pcb-stackup_top_out"><path d="M 26100 -29000 A 600 600 0 0 0 27300 -29000 L 29000 -29000 29020 -29000 29050 -28990 29070 -28990 29100 -28970 29120 -28960 29150 -28940 29170 -28920 29200 -28890 29220 -28870 29240 -28840 29270 -28800 29290 -28760 29310 -28720 29340 -28680 29360 -28630 29380 -28580 29410 -28530 29430 -28470 29450 -28410 29470 -28350 29490 -28290 29510 -28220 29530 -28150 29560 -28070 29580 -28000 29600 -27920 29620 -27840 29630 -27750 29650 -27660 29670 -27580 29690 -27480 29710 -27390 29720 -27290 29740 -27190 29760 -27090 29770 -26990 29790 -26880 29800 -26780 29820 -26670 29830 -26560 29840 -26440 29860 -26330 29870 -26210 29880 -26090 29890 -25970 29900 -25850 29910 -25730 29920 -25600 29930 -25480 29940 -25350 29950 -25230 29960 -25100 29960 -24970 29970 -24840 29980 -24710 29980 -24570 29990 -24440 29990 -24310 29990 -24170 30000 -24040 30000 -23900 30000 -23770 30000 -23630 30000 -23500 30000 -23370 30000 -23230 30000 -23100 30000 -22960 29990 -22830 29990 -22690 29990 -22560 29980 -22430 29980 -22290 29970 -22160 29960 -22030 29960 -21900 29950 -21770 29940 -21650 29930 -21520 29920 -21400 29910 -21270 29900 -21150 29890 -21030 29880 -20910 29870 -20790 29860 -20670 29840 -20560 29830 -20440 29820 -20330 29800 -20220 29790 -20120 29770 -20010 29760 -19910 29740 -19810 29720 -19710 29710 -19610 29690 -19520 29670 -19420 29650 -19340 29630 -19250 29620 -19160 29600 -19080 29580 -19000 29560 -18930 29530 -18850 29510 -18780 29490 -18710 29470 -18650 29450 -18590 29430 -18530 29410 -18470 29380 -18420 29360 -18370 29340 -18320 29310 -18280 29290 -18240 29270 -18200 29240 -18160 29220 -18130 29200 -18110 29170 -18080 29150 -18060 29120 -18040 29100 -18030 29070 -18010 29050 -18010 29020 -18000 29000 -18000 27600 -18000 A 600 600 0 0 0 26400 -18000 L 17500 -18000 A 500 500 0 0 1 17000 -18500 L 17000 -28500 A 500 500 0 0 1 17500 -29000 L 26100 -29000 M 29400 -22650 29400 -24350 A 400 400 0 0 0 28600 -24350 L 28600 -22650 A 400 400 0 0 0 29400 -22650" fill="none" stroke-width="50"/></clipPath><mask id="pcb-stackup_top_mech-mask"><g fill="#000" stroke="#000"><rect x="17000" y="-29000" width="13000" height="11000" fill="#fff"/><use xlink:href="#pcb-stackup_top_drl1"/></g></mask><mask id="pcb-stackup_top_cf-mask"><g fill="#fff" stroke="#fff"><use xlink:href="#pcb-stackup_top_sm"/></g></mask><mask id="pcb-stackup_top_sm-mask"><g fill="#000" stroke="#000"><rect x="17000" y="-29000" width="13000" height="11000" fill="#fff"/><use xlink:href="#pcb-stackup_top_sm"/></g></mask></defs><g transform="translate(0,-47000) scale(1,-1)"><g mask="url(#pcb-stackup_top_mech-mask)" clip-path="url(#pcb-stackup_top_out)"><rect x="17000" y="-29000" width="13000" height="11000" fill="currentColor" class="pcb-stackup_fr4"/><use xlink:href="#pcb-stackup_top_cu" fill="currentColor" stroke="currentColor" class="pcb-stackup_cu"/><use xlink:href="#pcb-stackup_top_cu" fill="currentColor" stroke="currentColor" class="pcb-stackup_cf" mask="url(#pcb-stackup_top_cf-mask)"/><g mask="url(#pcb-stackup_top_sm-mask)"><rect x="17000" y="-29000" width="13000" height="11000" fill="currentColor" class="pcb-stackup_sm"/><use xlink:href="#pcb-stackup_top_ss" fill="currentColor" stroke="currentColor" class="pcb-stackup_ss"/></g><use xlink:href="#pcb-stackup_top_sp" fill="currentColor" stroke="currentColor" class="pcb-stackup_sp"/></g></g></svg>