<svg id="pcb-stackup_bottom" version="1.1" xmlns:xlink="http://www.w3.org/1999/xlink" stroke-linecap="round" stroke-linejoin="round" stroke-width="0" fill-rule="evenodd" clip-rule="evenodd" viewBox="0 0 4770 1510" width="4.77in" height="1.51in" xmlns="http://www.w3.org/2000/svg"><defs><style>.pcb-stackup_fr4 {color: #4D542C;}
.pcb-stackup_cu {color: lightgrey;}
.pcb-stackup_cf {color: goldenrod;}
.pcb-stackup_sm {color: #2E0051; opacity: 0.9;}
.pcb-stackup_ss {color: white;}
.pcb-stackup_sp {color: #000000; opacity: 0;}
.pcb-stackup_out {color: black;}</style><circle cx="0" cy="0" r="37" id="A9uRqR_foPKZ_pad-11"/><circle cx="0" cy="0" r="32.5" id="A9uRqR_foPKZ_pad-13"/><circle cx="0" cy="0" r="23.6" id="A9uRqR_foPKZ_pad-15"/><circle cx="0" cy="0" r="23.5" id="A9uRqR_foPKZ_pad-17"/><circle cx="0" cy="0" r="27.5" id="A9uRqR_foPKZ_pad-20"/><circle cx="0" cy="0" r="30" id="A9uRqR_foPKZ_pad-22"/><circle cx="0" cy="0" r="37" id="A9uRqR_foPKZ_pad-11"/><circle cx="0" cy="0" r="32.5" id="A9uRqR_foPKZ_pad-13"/><circle cx="0" cy="0" r="23.6" id="A9uRqR_foPKZ_pad-15"/><circle cx="0" cy="0" r="23.5" id="A9uRqR_foPKZ_pad-17"/><circle cx="0" cy="0" r="27.5" id="A9uRqR_foPKZ_pad-20"/><circle cx="0" cy="0" r="30" id="A9uRqR_foPKZ_pad-22"/><circle cx="0" cy="0" r="41" id="bLxiR9kaZJQ7_pad-11"/><circle cx="0" cy="0" r="36.5" id="bLxiR9kaZJQ7_pad-13"/><circle cx="0" cy="0" r="27.6" id="bLxiR9kaZJQ7_pad-15"/><circle cx="0" cy="0" r="27.5" id="bLxiR9kaZJQ7_pad-17"/><circle cx="0" cy="0" r="31.5" id="bLxiR9kaZJQ7_pad-20"/><circle cx="0" cy="0" r="34" id="bLxiR9kaZJQ7_pad-22"/><circle cx="0" cy="0" r="37" id="A9uRqR_foPKZ_pad-11"/><circle cx="0" cy="0" r="32.5" id="A9uRqR_foPKZ_pad-13"/><circle cx="0" cy="0" r="23.6" id="A9uRqR_foPKZ_pad-15"/><circle cx="0" cy="0" r="23.5" id="A9uRqR_foPKZ_pad-17"/><circle cx="0" cy="0" r="27.5" id="A9uRqR_foPKZ_pad-20"/><circle cx="0" cy="0" r="30" id="A9uRqR_foPKZ_pad-22"/><circle cx="0" cy="0" r="37" id="A9uRqR_foPKZ_pad-11"/><circle cx="0" cy="0" r="32.5" id="A9uRqR_foPKZ_pad-13"/><circle cx="0" cy="0" r="23.6" id="A9uRqR_foPKZ_pad-15"/><circle cx="0" cy="0" r="23.5" id="A9uRqR_foPKZ_pad-17"/><circle cx="0" cy="0" r="27.5" id="A9uRqR_foPKZ_pad-20"/><circle cx="0" cy="0" r="30" id="A9uRqR_foPKZ_pad-22"/><circle cx="0" cy="0" r="41" id="bLxiR9kaZJQ7_pad-11"/><circle cx="0" cy="0" r="36.5" id="bLxiR9kaZJQ7_pad-13"/><circle cx="0" cy="0" r="27.6" id="bLxiR9kaZJQ7_pad-15"/><circle cx="0" cy="0" r="27.5" id="bLxiR9kaZJQ7_pad-17"/><circle cx="0" cy="0" r="31.5" id="bLxiR9kaZJQ7_pad-20"/><circle cx="0" cy="0" r="34" id="bLxiR9kaZJQ7_pad-22"/><circle cx="0" cy="0" r="20" id="bljB75o75eFv_pad-1"/><circle cx="0" cy="0" r="17.5" id="bljB75o75eFv_pad-2"/><circle cx="0" cy="0" r="19" id="bljB75o75eFv_pad-3"/><circle cx="0" cy="0" r="16" id="bljB75o75eFv_pad-4"/><circle cx="0" cy="0" r="14" id="bljB75o75eFv_pad-5"/><circle cx="0" cy="0" r="18" id="bljB75o75eFv_pad-6"/><circle cx="0" cy="0" r="37" id="A9uRqR_foPKZ_pad-11"/><circle cx="0" cy="0" r="32.5" id="A9uRqR_foPKZ_pad-13"/><circle cx="0" cy="0" r="23.6" id="A9uRqR_foPKZ_pad-15"/><circle cx="0" cy="0" r="23.5" id="A9uRqR_foPKZ_pad-17"/><circle cx="0" cy="0" r="27.5" id="A9uRqR_foPKZ_pad-20"/><circle cx="0" cy="0" r="30" id="A9uRqR_foPKZ_pad-22"/><circle cx="0" cy="0" r="37" id="A9uRqR_foPKZ_pad-11"/><circle cx="0" cy="0" r="32.5" id="A9uRqR_foPKZ_pad-13"/><circle cx="0" cy="0" r="23.6" id="A9uRqR_foPKZ_pad-15"/><circle cx="0" cy="0" r="23.5" id="A9uRqR_foPKZ_pad-17"/><circle cx="0" cy="0" r="27.5" id="A9uRqR_foPKZ_pad-20"/><circle cx="0" cy="0" r="30" id="A9uRqR_foPKZ_pad-22"/><circle cx="0" cy="0" r="41" id="bLxiR9kaZJQ7_pad-11"/><circle cx="0" cy="0" r="36.5" id="bLxiR9kaZJQ7_pad-13"/><circle cx="0" cy="0" r="27.6" id="bLxiR9kaZJQ7_pad-15"/><circle cx="0" cy="0" r="27.5" id="bLxiR9kaZJQ7_pad-17"/><circle cx="0" cy="0" r="31.5" id="bLxiR9kaZJQ7_pad-20"/><circle cx="0" cy="0" r="34" id="bLxiR9kaZJQ7_pad-22"/><circle cx="0" cy="0" r="37" id="A9uRqR_foPKZ_pad-11"/><circle cx="0" cy="0" r="32.5" id="A9uRqR_foPKZ_pad-13"/><circle cx="0" cy="0" r="23.6" id="A9uRqR_foPKZ_pad-15"/><circle cx="0" cy="0" r="23.5" id="A9uRqR_foPKZ_pad-17"/><circle cx="0" cy="0" r="27.5" id="A9uRqR_foPKZ_pad-20"/><circle cx="0" cy="0" r="30" id="A9uRqR_foPKZ_pad-22"/><circle cx="0" cy="0" r="37" id="A9uRqR_foPKZ_pad-11"/><circle cx="0" cy="0" r="32.5" id="A9uRqR_foPKZ_pad-13"/><circle cx="0" cy="0" r="23.6" id="A9uRqR_foPKZ_pad-15"/><circle cx="0" cy="0" r="23.5" id="A9uRqR_foPKZ_pad-17"/><circle cx="0" cy="0" r="27.5" id="A9uRqR_foPKZ_pad-20"/><circle cx="0" cy="0" r="30" id="A9uRqR_foPKZ_pad-22"/><circle cx="0" cy="0" r="41" id="bLxiR9kaZJQ7_pad-11"/><circle cx="0" cy="0" r="36.5" id="bLxiR9kaZJQ7_pad-13"/><circle cx="0" cy="0" r="27.6" id="bLxiR9kaZJQ7_pad-15"/><circle cx="0" cy="0" r="27.5" id="bLxiR9kaZJQ7_pad-17"/><circle cx="0" cy="0" r="31.5" id="bLxiR9kaZJQ7_pad-20"/><circle cx="0" cy="0" r="34" id="bLxiR9kaZJQ7_pad-22"/><circle cx="0" cy="0" r="20" id="bljB75o75eFv_pad-1"/><circle cx="0" cy="0" r="17.5" id="bljB75o75eFv_pad-2"/><circle cx="0" cy="0" r="19" id="bljB75o75eFv_pad-3"/><circle cx="0" cy="0" r="16" id="bljB75o75eFv_pad-4"/><circle cx="0" cy="0" r="14" id="bljB75o75eFv_pad-5"/><circle cx="0" cy="0" r="18" id="bljB75o75eFv_pad-6"/><g id="pcb-stackup_bottom_cu"><use xlink:href="#A9uRqR_foPKZ_pad-11" x="1875.1" y="536.5"/><use xlink:href="#A9uRqR_foPKZ_pad-11" x="1775.1" y="536.5"/><use xlink:href="#A9uRqR_foPKZ_pad-11" x="2182.2" y="893.4"/><use xlink:href="#A9uRqR_foPKZ_pad-11" x="2363.2" y="712.3"/><use xlink:href="#A9uRqR_foPKZ_pad-13" x="820.9" y="822.6"/><use xlink:href="#A9uRqR_foPKZ_pad-13" x="750.1" y="751.9"/><use xlink:href="#A9uRqR_foPKZ_pad-11" x="1012.3" y="793.2"/><use xlink:href="#A9uRqR_foPKZ_pad-11" x="1224.4" y="581.1"/><use xlink:href="#A9uRqR_foPKZ_pad-15" x="2786.4" y="860.5"/><use xlink:href="#A9uRqR_foPKZ_pad-15" x="2645" y="719"/><use xlink:href="#A9uRqR_foPKZ_pad-15" x="2636.5" y="869"/><use xlink:href="#A9uRqR_foPKZ_pad-17" x="1302.7" y="501.5"/><use xlink:href="#A9uRqR_foPKZ_pad-17" x="1373.5" y="430.9"/><use xlink:href="#A9uRqR_foPKZ_pad-17" x="1301.7" y="789.2"/><use xlink:href="#A9uRqR_foPKZ_pad-17" x="1230.6" y="860"/><path d="M 1479.4 877.3 1518.2 838.4 1479.4 799.6 1440.5 838.4 1479.4 877.3"/><use xlink:href="#A9uRqR_foPKZ_pad-20" x="1550" y="767.3"/><use xlink:href="#A9uRqR_foPKZ_pad-20" x="1620.7" y="696.5"/><use xlink:href="#A9uRqR_foPKZ_pad-20" x="1691.5" y="625.9"/><use xlink:href="#A9uRqR_foPKZ_pad-20" x="1903.6" y="838"/><use xlink:href="#A9uRqR_foPKZ_pad-20" x="1832.8" y="908.8"/><use xlink:href="#A9uRqR_foPKZ_pad-20" x="1762.2" y="979.4"/><use xlink:href="#A9uRqR_foPKZ_pad-20" x="1691.5" y="1050.1"/><use xlink:href="#A9uRqR_foPKZ_pad-22" x="2437.3" y="640.9"/><use xlink:href="#A9uRqR_foPKZ_pad-22" x="2102.7" y="970.3"/><use xlink:href="#A9uRqR_foPKZ_pad-11" x="3154.6" y="710.1"/><use xlink:href="#A9uRqR_foPKZ_pad-11" x="2942.3" y="922.3"/><use xlink:href="#A9uRqR_foPKZ_pad-11" x="1875.1" y="536.5"/><use xlink:href="#A9uRqR_foPKZ_pad-11" x="1775.1" y="536.5"/><use xlink:href="#A9uRqR_foPKZ_pad-11" x="2182.2" y="893.4"/><use xlink:href="#A9uRqR_foPKZ_pad-11" x="2363.2" y="712.3"/><use xlink:href="#A9uRqR_foPKZ_pad-13" x="820.9" y="822.6"/><use xlink:href="#A9uRqR_foPKZ_pad-13" x="750.1" y="751.9"/><use xlink:href="#A9uRqR_foPKZ_pad-11" x="1012.3" y="793.2"/><use xlink:href="#A9uRqR_foPKZ_pad-11" x="1224.4" y="581.1"/><use xlink:href="#A9uRqR_foPKZ_pad-15" x="2786.4" y="860.5"/><use xlink:href="#A9uRqR_foPKZ_pad-15" x="2645" y="719"/><use xlink:href="#A9uRqR_foPKZ_pad-15" x="2636.5" y="869"/><use xlink:href="#A9uRqR_foPKZ_pad-17" x="1302.7" y="501.5"/><use xlink:href="#A9uRqR_foPKZ_pad-17" x="1373.5" y="430.9"/><use xlink:href="#A9uRqR_foPKZ_pad-17" x="1301.7" y="789.2"/><use xlink:href="#A9uRqR_foPKZ_pad-17" x="1230.6" y="860"/><path d="M 1479.4 877.3 1518.2 838.4 1479.4 799.6 1440.5 838.4 1479.4 877.3"/><use xlink:href="#A9uRqR_foPKZ_pad-20" x="1550" y="767.3"/><use xlink:href="#A9uRqR_foPKZ_pad-20" x="1620.7" y="696.5"/><use xlink:href="#A9uRqR_foPKZ_pad-20" x="1691.5" y="625.9"/><use xlink:href="#A9uRqR_foPKZ_pad-20" x="1903.6" y="838"/><use xlink:href="#A9uRqR_foPKZ_pad-20" x="1832.8" y="908.8"/><use xlink:href="#A9uRqR_foPKZ_pad-20" x="1762.2" y="979.4"/><use xlink:href="#A9uRqR_foPKZ_pad-20" x="1691.5" y="1050.1"/><use xlink:href="#A9uRqR_foPKZ_pad-22" x="2437.3" y="640.9"/><use xlink:href="#A9uRqR_foPKZ_pad-22" x="2102.7" y="970.3"/><use xlink:href="#A9uRqR_foPKZ_pad-11" x="3154.6" y="710.1"/><use xlink:href="#A9uRqR_foPKZ_pad-11" x="2942.3" y="922.3"/></g><g id="pcb-stackup_bottom_sm"><use xlink:href="#bLxiR9kaZJQ7_pad-11" x="1875.1" y="536.5"/><use xlink:href="#bLxiR9kaZJQ7_pad-11" x="1775.1" y="536.5"/><use xlink:href="#bLxiR9kaZJQ7_pad-11" x="2182.2" y="893.4"/><use xlink:href="#bLxiR9kaZJQ7_pad-11" x="2363.2" y="712.3"/><use xlink:href="#bLxiR9kaZJQ7_pad-13" x="820.9" y="822.6"/><use xlink:href="#bLxiR9kaZJQ7_pad-13" x="750.1" y="751.9"/><use xlink:href="#bLxiR9kaZJQ7_pad-11" x="1012.3" y="793.2"/><use xlink:href="#bLxiR9kaZJQ7_pad-11" x="1224.4" y="581.1"/><use xlink:href="#bLxiR9kaZJQ7_pad-15" x="2786.4" y="860.5"/><use xlink:href="#bLxiR9kaZJQ7_pad-15" x="2645" y="719"/><use xlink:href="#bLxiR9kaZJQ7_pad-15" x="2636.5" y="869"/><use xlink:href="#bLxiR9kaZJQ7_pad-17" x="1302.7" y="501.5"/><use xlink:href="#bLxiR9kaZJQ7_pad-17" x="1373.5" y="430.9"/><use xlink:href="#bLxiR9kaZJQ7_pad-17" x="1301.7" y="789.2"/><use xlink:href="#bLxiR9kaZJQ7_pad-17" x="1230.6" y="860"/><path d="M 1479.4 877.3 1518.2 838.4 1479.4 799.6 1440.5 838.4 1479.4 877.3"/><use xlink:href="#bLxiR9kaZJQ7_pad-20" x="1550" y="767.3"/><use xlink:href="#bLxiR9kaZJQ7_pad-20" x="1620.7" y="696.5"/><use xlink:href="#bLxiR9kaZJQ7_pad-20" x="1691.5" y="625.9"/><use xlink:href="#bLxiR9kaZJQ7_pad-20" x="1903.6" y="838"/><use xlink:href="#bLxiR9kaZJQ7_pad-20" x="1832.8" y="908.8"/><use xlink:href="#bLxiR9kaZJQ7_pad-20" x="1762.2" y="979.4"/><use xlink:href="#bLxiR9kaZJQ7_pad-20" x="1691.5" y="1050.1"/><use xlink:href="#bLxiR9kaZJQ7_pad-22" x="2437.3" y="640.9"/><use xlink:href="#bLxiR9kaZJQ7_pad-22" x="2102.7" y="970.3"/><use xlink:href="#bLxiR9kaZJQ7_pad-11" x="3154.6" y="710.1"/><use xlink:href="#bLxiR9kaZJQ7_pad-11" x="2942.3" y="922.3"/></g><g id="pcb-stackup_bottom_drl1"><use xlink:href="#bljB75o75eFv_pad-1" x="1875.1" y="536.5"/><use xlink:href="#bljB75o75eFv_pad-1" x="1775.1" y="536.5"/><use xlink:href="#bljB75o75eFv_pad-2" x="2182.2" y="893.4"/><use xlink:href="#bljB75o75eFv_pad-2" x="2363.2" y="712.3"/><use xlink:href="#bljB75o75eFv_pad-2" x="1012.3" y="793.2"/><use xlink:href="#bljB75o75eFv_pad-2" x="1224.4" y="581.1"/><use xlink:href="#bljB75o75eFv_pad-2" x="3154.6" y="710.1"/><use xlink:href="#bljB75o75eFv_pad-2" x="2942.3" y="922.3"/><use xlink:href="#bljB75o75eFv_pad-3" x="820.9" y="822.6"/><use xlink:href="#bljB75o75eFv_pad-3" x="750.1" y="751.9"/><use xlink:href="#bljB75o75eFv_pad-4" x="2786.4" y="860.5"/><use xlink:href="#bljB75o75eFv_pad-4" x="2645" y="719"/><use xlink:href="#bljB75o75eFv_pad-4" x="2636.5" y="869"/><use xlink:href="#bljB75o75eFv_pad-5" x="1302.7" y="501.5"/><use xlink:href="#bljB75o75eFv_pad-5" x="1373.5" y="430.9"/><use xlink:href="#bljB75o75eFv_pad-5" x="1301.7" y="789.2"/><use xlink:href="#bljB75o75eFv_pad-5" x="1230.6" y="860"/><use xlink:href="#bljB75o75eFv_pad-5" x="1479.3" y="838.4"/><use xlink:href="#bljB75o75eFv_pad-5" x="1550" y="767.3"/><use xlink:href="#bljB75o75eFv_pad-5" x="1620.7" y="696.5"/><use xlink:href="#bljB75o75eFv_pad-5" x="1691.5" y="625.9"/><use xlink:href="#bljB75o75eFv_pad-5" x="1903.6" y="838"/><use xlink:href="#bljB75o75eFv_pad-5" x="1832.8" y="908.8"/><use xlink:href="#bljB75o75eFv_pad-5" x="1762.2" y="979.4"/><use xlink:href="#bljB75o75eFv_pad-5" x="1691.5" y="1050.1"/><use xlink:href="#bljB75o75eFv_pad-6" x="2437.3" y="640.9"/><use xlink:href="#bljB75o75eFv_pad-6" x="2102.7" y="970.3"/></g><clipPath id="pcb-stackup_bottom_out"><path d="M 50 800 10 850 0 870 110 930 430 1010 1090 1110 1560 1150 1720 1270 1880 1390 2000 1460 2060 1490 2110 1500 2160 1510 2210 1490 2240 1460 2250 1420 2240 1350 2230 1220 2240 1170 2260 1140 2290 1130 3090 1040 3250 1120 3320 1150 3350 1150 3380 1140 3430 1100 3530 1000 3570 980 3650 980 3740 1000 3780 1030 4340 1150 4420 1130 4760 1150 4770 1130 4740 1040 4610 910 4560 900 4520 900 4170 690 4170 650 4240 520 4260 460 4250 410 4230 400 4160 390 4010 450 3690 440 3670 390 3650 370 3630 370 3620 310 3590 290 2880 290 2880 250 2870 200 2840 150 2780 120 1730 120 1710 50 1680 20 1630 0 1580 0 1400 70 1220 230 1110 390 1090 440 1050 460 730 500 530 540 420 600 330 640 310 640 50 800 50 800" fill="none" stroke-width="10"/></clipPath><mask id="pcb-stackup_bottom_mech-mask"><g fill="#000" stroke="#000"><rect x="0" y="0" width="4770" height="1510" fill="#fff"/><use xlink:href="#pcb-stackup_bottom_drl1"/></g></mask><mask id="pcb-stackup_bottom_cf-mask"><g fill="#fff" stroke="#fff"><use xlink:href="#pcb-stackup_bottom_sm"/></g></mask><mask id="pcb-stackup_bottom_sm-mask"><g fill="#000" stroke="#000"><rect x="0" y="0" width="4770" height="1510" fill="#fff"/><use xlink:href="#pcb-stackup_bottom_sm"/></g></mask></defs><g transform="translate(0,1510) scale(1,-1)"><g mask="url(#pcb-stackup_bottom_mech-mask)" clip-path="url(#pcb-stackup_bottom_out)" transform="translate(4770,0) scale(-1,1)"><rect x="0" y="0" width="4770" height="1510" fill="currentColor" class="pcb-stackup_fr4"/><use xlink:href="#pcb-stackup_bottom_cu" fill="currentColor" stroke="currentColor" class="pcb-stackup_cu"/><use xlink:href="#pcb-stackup_bottom_cu" fill="currentColor" stroke="currentColor" class="pcb-stackup_cf" mask="url(#pcb-stackup_bottom_cf-mask)"/><g mask="url(#pcb-stackup_bottom_sm-mask)"><rect x="0" y="0" width="4770" height="1510" fill="currentColor" class="pcb-stackup_sm"/></g></g></g></svg>