<svg id="pcb-stackup_bottom" version="1.1" xmlns:xlink="http://www.w3.org/1999/xlink" stroke-linecap="round" stroke-linejoin="round" stroke-width="0" fill-rule="evenodd" clip-rule="evenodd" viewBox="10 10.51 1000 570" width="1in" height="0.57in" xmlns="http://www.w3.org/2000/svg"><defs><style>.pcb-stackup_fr4 {color: #4D542C;}
.pcb-stackup_cu {color: lightgrey;}
.pcb-stackup_cf {color: goldenrod;}
.pcb-stackup_sm {color: #2E0051; opacity: 0.9;}
.pcb-stackup_ss {color: white;}
.pcb-stackup_sp {color: #000000; opacity: 0;}
.pcb-stackup_out {color: black;}</style><polygon points="49.9999,20.71064 20.71064,49.9999 -20.71064,49.9999 -49.9999,20.71064 -49.9999,-20.71064 -20.71064,-49.9999 20.71064,-49.9999 49.9999,-20.71064" id="X3TFASgm8tKG_pad-10"/><circle cx="0" cy="0" r="19.685" id="X3TFASgm8tKG_pad-11"/><polygon points="42.49991,17.60404 17.60404,42.49991 -17.60404,42.49991 -42.49991,17.60404 -42.49991,-17.60404 -17.60404,-42.49991 17.60404,-42.49991 42.49991,-17.60404" id="X3TFASgm8tKG_pad-12"/><circle cx="0" cy="0" r="14.5" id="X3TFASgm8tKG_pad-14"/><polygon points="49.9999,20.71064 20.71064,49.9999 -20.71064,49.9999 -49.9999,20.71064 -49.9999,-20.71064 -20.71064,-49.9999 20.71064,-49.9999 49.9999,-20.71064" id="X3TFASgm8tKG_pad-10"/><circle cx="0" cy="0" r="19.685" id="X3TFASgm8tKG_pad-11"/><polygon points="42.49991,17.60404 17.60404,42.49991 -17.60404,42.49991 -42.49991,17.60404 -42.49991,-17.60404 -17.60404,-42.49991 17.60404,-42.49991 42.49991,-17.60404" id="X3TFASgm8tKG_pad-12"/><circle cx="0" cy="0" r="14.5" id="X3TFASgm8tKG_pad-14"/><polygon points="52.99989,21.95327 21.95327,52.99989 -21.95327,52.99989 -52.99989,21.95327 -52.99989,-21.95327 -21.95327,-52.99989 21.95327,-52.99989 52.99989,-21.95327" id="PW-lWSkhO4xp_pad-10"/><circle cx="0" cy="0" r="22.685" id="PW-lWSkhO4xp_pad-11"/><polygon points="45.49991,18.84668 18.84668,45.49991 -18.84668,45.49991 -45.49991,18.84668 -45.49991,-18.84668 -18.84668,-45.49991 18.84668,-45.49991 45.49991,-18.84668" id="PW-lWSkhO4xp_pad-12"/><circle cx="0" cy="0" r="17.5" id="PW-lWSkhO4xp_pad-13"/><polygon points="49.9999,20.71064 20.71064,49.9999 -20.71064,49.9999 -49.9999,20.71064 -49.9999,-20.71064 -20.71064,-49.9999 20.71064,-49.9999 49.9999,-20.71064" id="X3TFASgm8tKG_pad-10"/><circle cx="0" cy="0" r="19.685" id="X3TFASgm8tKG_pad-11"/><polygon points="42.49991,17.60404 17.60404,42.49991 -17.60404,42.49991 -42.49991,17.60404 -42.49991,-17.60404 -17.60404,-42.49991 17.60404,-42.49991 42.49991,-17.60404" id="X3TFASgm8tKG_pad-12"/><circle cx="0" cy="0" r="14.5" id="X3TFASgm8tKG_pad-14"/><polygon points="49.9999,20.71064 20.71064,49.9999 -20.71064,49.9999 -49.9999,20.71064 -49.9999,-20.71064 -20.71064,-49.9999 20.71064,-49.9999 49.9999,-20.71064" id="X3TFASgm8tKG_pad-10"/><circle cx="0" cy="0" r="19.685" id="X3TFASgm8tKG_pad-11"/><polygon points="42.49991,17.60404 17.60404,42.49991 -17.60404,42.49991 -42.49991,17.60404 -42.49991,-17.60404 -17.60404,-42.49991 17.60404,-42.49991 42.49991,-17.60404" id="X3TFASgm8tKG_pad-12"/><circle cx="0" cy="0" r="14.5" id="X3TFASgm8tKG_pad-14"/><polygon points="52.99989,21.95327 21.95327,52.99989 -21.95327,52.99989 -52.99989,21.95327 -52.99989,-21.95327 -21.95327,-52.99989 21.95327,-52.99989 52.99989,-21.95327" id="PW-lWSkhO4xp_pad-10"/><circle cx="0" cy="0" r="22.685" id="PW-lWSkhO4xp_pad-11"/><polygon points="45.49991,18.84668 18.84668,45.49991 -18.84668,45.49991 -45.49991,18.84668 -45.49991,-18.84668 -18.84668,-45.49991 18.84668,-45.49991 45.49991,-18.84668" id="PW-lWSkhO4xp_pad-12"/><circle cx="0" cy="0" r="17.5" id="PW-lWSkhO4xp_pad-13"/><circle cx="0" cy="0" r="7.5" id="sVaKaUHxHIp6_pad-1"/><circle cx="0" cy="0" r="11.81" id="sVaKaUHxHIp6_pad-2"/><circle cx="0" cy="0" r="26" id="sVaKaUHxHIp6_pad-3"/><polygon points="49.9999,20.71064 20.71064,49.9999 -20.71064,49.9999 -49.9999,20.71064 -49.9999,-20.71064 -20.71064,-49.9999 20.71064,-49.9999 49.9999,-20.71064" id="X3TFASgm8tKG_pad-10"/><circle cx="0" cy="0" r="19.685" id="X3TFASgm8tKG_pad-11"/><polygon points="42.49991,17.60404 17.60404,42.49991 -17.60404,42.49991 -42.49991,17.60404 -42.49991,-17.60404 -17.60404,-42.49991 17.60404,-42.49991 42.49991,-17.60404" id="X3TFASgm8tKG_pad-12"/><circle cx="0" cy="0" r="14.5" id="X3TFASgm8tKG_pad-14"/><polygon points="49.9999,20.71064 20.71064,49.9999 -20.71064,49.9999 -49.9999,20.71064 -49.9999,-20.71064 -20.71064,-49.9999 20.71064,-49.9999 49.9999,-20.71064" id="X3TFASgm8tKG_pad-10"/><circle cx="0" cy="0" r="19.685" id="X3TFASgm8tKG_pad-11"/><polygon points="42.49991,17.60404 17.60404,42.49991 -17.60404,42.49991 -42.49991,17.60404 -42.49991,-17.60404 -17.60404,-42.49991 17.60404,-42.49991 42.49991,-17.60404" id="X3TFASgm8tKG_pad-12"/><circle cx="0" cy="0" r="14.5" id="X3TFASgm8tKG_pad-14"/><polygon points="52.99989,21.95327 21.95327,52.99989 -21.95327,52.99989 -52.99989,21.95327 -52.99989,-21.95327 -21.95327,-52.99989 21.95327,-52.99989 52.99989,-21.95327" id="PW-lWSkhO4xp_pad-10"/><circle cx="0" cy="0" r="22.685" id="PW-lWSkhO4xp_pad-11"/><polygon points="45.49991,18.84668 18.84668,45.49991 -18.84668,45.49991 -45.49991,18.84668 -45.49991,-18.84668 -18.84668,-45.49991 18.84668,-45.49991 45.49991,-18.84668" id="PW-lWSkhO4xp_pad-12"/><circle cx="0" cy="0" r="17.5" id="PW-lWSkhO4xp_pad-13"/><polygon points="49.9999,20.71064 20.71064,49.9999 -20.71064,49.9999 -49.9999,20.71064 -49.9999,-20.71064 -20.71064,-49.9999 20.71064,-49.9999 49.9999,-20.71064" id="X3TFASgm8tKG_pad-10"/><circle cx="0" cy="0" r="19.685" id="X3TFASgm8tKG_pad-11"/><polygon points="42.49991,17.60404 17.60404,42.49991 -17.60404,42.49991 -42.49991,17.60404 -42.49991,-17.60404 -17.60404,-42.49991 17.60404,-42.49991 42.49991,-17.60404" id="X3TFASgm8tKG_pad-12"/><circle cx="0" cy="0" r="14.5" id="X3TFASgm8tKG_pad-14"/><polygon points="49.9999,20.71064 20.71064,49.9999 -20.71064,49.9999 -49.9999,20.71064 -49.9999,-20.71064 -20.71064,-49.9999 20.71064,-49.9999 49.9999,-20.71064" id="X3TFASgm8tKG_pad-10"/><circle cx="0" cy="0" r="19.685" id="X3TFASgm8tKG_pad-11"/><polygon points="42.49991,17.60404 17.60404,42.49991 -17.60404,42.49991 -42.49991,17.60404 -42.49991,-17.60404 -17.60404,-42.49991 17.60404,-42.49991 42.49991,-17.60404" id="X3TFASgm8tKG_pad-12"/><circle cx="0" cy="0" r="14.5" id="X3TFASgm8tKG_pad-14"/><polygon points="52.99989,21.95327 21.95327,52.99989 -21.95327,52.99989 -52.99989,21.95327 -52.99989,-21.95327 -21.95327,-52.99989 21.95327,-52.99989 52.99989,-21.95327" id="PW-lWSkhO4xp_pad-10"/><circle cx="0" cy="0" r="22.685" id="PW-lWSkhO4xp_pad-11"/><polygon points="45.49991,18.84668 18.84668,45.49991 -18.84668,45.49991 -45.49991,18.84668 -45.49991,-18.84668 -18.84668,-45.49991 18.84668,-45.49991 45.49991,-18.84668" id="PW-lWSkhO4xp_pad-12"/><circle cx="0" cy="0" r="17.5" id="PW-lWSkhO4xp_pad-13"/><circle cx="0" cy="0" r="7.5" id="sVaKaUHxHIp6_pad-1"/><circle cx="0" cy="0" r="11.81" id="sVaKaUHxHIp6_pad-2"/><circle cx="0" cy="0" r="26" id="sVaKaUHxHIp6_pad-3"/><g id="pcb-stackup_bottom_ss"><path d="M 10 10.51 10 580.51 1010 580.51 1010 10.51 10 10.51" fill="none" stroke-width="0"/></g><g id="pcb-stackup_bottom_cu"><use xlink:href="#X3TFASgm8tKG_pad-10" x="910" y="175.51"/><use xlink:href="#X3TFASgm8tKG_pad-11" x="184.37" y="213.11"/><use xlink:href="#X3TFASgm8tKG_pad-11" x="184.37" y="287.91"/><use xlink:href="#X3TFASgm8tKG_pad-12" x="535" y="485.51"/><use xlink:href="#X3TFASgm8tKG_pad-12" x="815" y="490.51"/><use xlink:href="#X3TFASgm8tKG_pad-12" x="675" y="120.51"/><path d="M 31 31.51 31 559.51 989 559.51 989 31.51 31 31.51 M 31 34.48 989 34.48 M 989 46.47 31 46.47 M 31 58.45 989 58.45 M 989 70.44 707.66 70.44 M 699.23 62.01 733.5 96.28 733.5 144.74 699.23 179.01 650.77 179.01 616.5 144.74 616.5 96.28 650.77 62.01 699.23 62.01 M 719.64 82.42 989 82.42 M 989 94.41 731.63 94.41 M 733.5 106.39 989 106.39 M 989 118.38 946.2 118.38 M 937.34 109.51 976 148.17 976 202.85 937.34 241.51 882.66 241.51 844 202.85 844 148.17 882.66 109.51 937.34 109.51 M 958.19 130.36 989 130.36 M 989 142.35 970.17 142.35 M 976 154.33 989 154.33 M 989 166.32 976 166.32 M 976 178.3 989 178.3 M 989 190.29 976 190.29 M 976 202.27 989 202.27 M 989 214.26 964.59 214.26 M 952.61 226.24 989 226.24 M 989 238.23 940.62 238.23 M 989 250.21 31 250.21 M 31 238.23 159.02 238.23 M 156.65 235.86 161.62 240.83 167.47 244.73 173.96 247.42 180.86 248.8 184.37 248.8 184.37 213.11 184.37 177.43 184.37 213.11 184.37 213.11 148.69 213.11 148.69 209.6 150.06 202.7 152.75 196.21 156.65 190.36 161.62 185.39 167.47 181.49 173.96 178.8 180.86 177.43 184.37 177.43 187.88 177.43 194.78 178.8 201.27 181.49 207.12 185.39 212.09 190.36 215.99 196.21 218.68 202.7 220.05 209.6 220.05 213.11 220.05 216.62 218.68 223.52 215.99 230.01 212.09 235.86 207.12 240.83 201.27 244.73 194.78 247.42 187.88 248.8 184.37 248.8 184.37 213.11 184.37 213.11 184.37 213.11 220.05 213.11 184.37 213.11 148.68 213.11 148.69 216.62 150.06 223.52 152.75 230.01 156.65 235.86 M 151.19 226.24 31 226.24 M 31 214.26 148.69 214.26 M 150.23 202.27 31 202.27 M 31 190.29 156.73 190.29 M 176.44 178.3 31 178.3 M 31 166.32 638.08 166.32 M 650.06 178.3 192.3 178.3 M 184.37 178.3 184.37 178.3 M 184.37 190.29 184.37 190.29 M 184.37 202.27 184.37 202.27 M 184.37 213.11 184.37 213.11 M 184.37 214.26 184.37 214.26 M 184.37 226.24 184.37 226.24 M 184.37 238.23 184.37 238.23 M 177.27 252.23 191.47 252.23 204.58 257.66 214.62 267.7 220.05 280.82 220.05 295.01 214.62 308.13 204.58 318.17 191.47 323.6 177.27 323.6 164.16 318.17 154.12 308.13 148.69 295.01 148.69 280.82 154.12 267.7 164.16 257.66 177.27 252.23 M 159.62 262.2 31 262.2 M 31 274.18 151.43 274.18 M 148.69 286.17 31 286.17 M 31 298.15 149.99 298.15 M 156.13 310.14 31 310.14 M 31 322.12 173.71 322.12 M 195.03 322.12 989 322.12 M 989 310.14 212.61 310.14 M 218.75 298.15 989 298.15 M 989 286.17 220.05 286.17 M 217.31 274.18 989 274.18 M 989 262.2 209.12 262.2 M 209.72 238.23 879.38 238.23 M 867.39 226.24 217.56 226.24 M 220.05 214.26 855.41 214.26 M 844 202.27 218.51 202.27 M 212.01 190.29 844 190.29 M 844 178.3 699.94 178.3 M 711.92 166.32 844 166.32 M 844 154.33 723.91 154.33 M 733.5 142.35 849.83 142.35 M 861.81 130.36 733.5 130.36 M 733.5 118.38 873.8 118.38 M 642.34 70.44 31 70.44 M 31 82.42 630.36 82.42 M 618.37 94.41 31 94.41 M 31 106.39 616.5 106.39 M 616.5 118.38 31 118.38 M 31 130.36 616.5 130.36 M 616.5 142.35 31 142.35 M 31 154.33 626.09 154.33 M 989 334.11 31 334.11 M 31 346.09 989 346.09 M 989 358.08 31 358.08 M 31 370.07 989 370.07 M 989 382.05 31 382.05 M 31 394.04 989 394.04 M 989 406.02 31 406.02 M 31 418.01 989 418.01 M 989 429.99 562.21 429.99 M 559.23 427.01 593.5 461.28 593.5 479.51 541 479.51 541 427.01 559.23 427.01 M 541 429.99 529 429.99 M 529 427.01 529 479.51 541 479.51 541 491.51 593.5 491.51 593.5 509.74 559.23 544.01 541 544.01 541 491.51 529 491.51 529 479.51 476.5 479.51 476.5 461.28 510.77 427.01 529 427.01 M 529 441.98 541 441.98 M 541 453.96 529 453.96 M 529 465.95 541 465.95 M 541 477.93 529 477.93 M 529 489.92 31 489.92 M 31 501.9 476.5 501.9 M 476.5 509.74 476.5 491.51 529 491.51 529 544.01 510.77 544.01 476.5 509.74 M 480.64 513.89 31 513.89 M 31 525.87 492.63 525.87 M 504.61 537.86 31 537.86 M 31 549.84 989 549.84 M 989 537.86 850.39 537.86 M 839.23 549.01 790.77 549.01 756.5 514.74 756.5 466.28 790.77 432.01 839.23 432.01 873.5 466.28 873.5 514.74 839.23 549.01 M 862.37 525.87 989 525.87 M 989 513.89 873.5 513.89 M 873.5 501.9 989 501.9 M 989 489.92 873.5 489.92 M 873.5 477.93 989 477.93 M 989 465.95 873.17 465.95 M 861.18 453.96 989 453.96 M 989 441.98 849.2 441.98 M 780.8 441.98 574.2 441.98 M 586.18 453.96 768.82 453.96 M 756.83 465.95 593.5 465.95 M 593.5 477.93 756.5 477.93 M 756.5 489.92 541 489.92 M 541 501.9 529 501.9 M 529 513.89 541 513.89 M 541 525.87 529 525.87 M 529 537.86 541 537.86 M 565.39 537.86 779.61 537.86 M 767.63 525.87 577.37 525.87 M 589.36 513.89 756.5 513.89 M 756.5 501.9 593.5 501.9 M 495.8 441.98 31 441.98 M 31 453.96 483.82 453.96 M 476.5 465.95 31 465.95 M 31 477.93 476.5 477.93 M 507.79 429.99 31 429.99" fill="none" stroke-width="12"/><use xlink:href="#X3TFASgm8tKG_pad-14" x="250" y="150.51"/><use xlink:href="#X3TFASgm8tKG_pad-14" x="560" y="210.51"/><use xlink:href="#X3TFASgm8tKG_pad-14" x="580" y="260.51"/></g><g id="pcb-stackup_bottom_sm"><use xlink:href="#PW-lWSkhO4xp_pad-10" x="910" y="175.51"/><use xlink:href="#PW-lWSkhO4xp_pad-11" x="184.37" y="213.11"/><use xlink:href="#PW-lWSkhO4xp_pad-11" x="184.37" y="287.91"/><use xlink:href="#PW-lWSkhO4xp_pad-12" x="535" y="485.51"/><use xlink:href="#PW-lWSkhO4xp_pad-12" x="815" y="490.51"/><use xlink:href="#PW-lWSkhO4xp_pad-12" x="675" y="120.51"/><use xlink:href="#PW-lWSkhO4xp_pad-13" x="250" y="150.51"/><use xlink:href="#PW-lWSkhO4xp_pad-13" x="560" y="210.51"/><use xlink:href="#PW-lWSkhO4xp_pad-13" x="580" y="260.51"/></g><g id="pcb-stackup_bottom_drl1"><use xlink:href="#sVaKaUHxHIp6_pad-1" x="250" y="150.51"/><use xlink:href="#sVaKaUHxHIp6_pad-1" x="560" y="210.51"/><use xlink:href="#sVaKaUHxHIp6_pad-1" x="580" y="260.51"/><use xlink:href="#sVaKaUHxHIp6_pad-2" x="184.37" y="287.91"/><use xlink:href="#sVaKaUHxHIp6_pad-2" x="184.37" y="213.11"/><use xlink:href="#sVaKaUHxHIp6_pad-3" x="535" y="485.51"/><use xlink:href="#sVaKaUHxHIp6_pad-3" x="815" y="490.51"/><use xlink:href="#sVaKaUHxHIp6_pad-3" x="910" y="175.51"/><use xlink:href="#sVaKaUHxHIp6_pad-3" x="675" y="120.51"/></g><clipPath id="pcb-stackup_bottom_out"><path d="M 10 10.51 10 580.51 1010 580.51 1010 10.51 10 10.51" fill="none" stroke-width="0"/></clipPath><mask id="pcb-stackup_bottom_mech-mask"><g fill="#000" stroke="#000"><rect x="10" y="10.51" width="1000" height="570" fill="#fff"/><use xlink:href="#pcb-stackup_bottom_drl1"/></g></mask><mask id="pcb-stackup_bottom_cf-mask"><g fill="#fff" stroke="#fff"><use xlink:href="#pcb-stackup_bottom_sm"/></g></mask><mask id="pcb-stackup_bottom_sm-mask"><g fill="#000" stroke="#000"><rect x="10" y="10.51" width="1000" height="570" fill="#fff"/><use xlink:href="#pcb-stackup_bottom_sm"/></g></mask></defs><g transform="translate(0,591.02) scale(1,-1)"><g mask="url(#pcb-stackup_bottom_mech-mask)" clip-path="url(#pcb-stackup_bottom_out)" transform="translate(1020,0) scale(-1,1)"><rect x="10" y="10.51" width="1000" height="570" fill="currentColor" class="pcb-stackup_fr4"/><use xlink:href="#pcb-stackup_bottom_cu" fill="currentColor" stroke="currentColor" class="pcb-stackup_cu"/><use xlink:href="#pcb-stackup_bottom_cu" fill="currentColor" stroke="currentColor" class="pcb-stackup_cf" mask="url(#pcb-stackup_bottom_cf-mask)"/><g mask="url(#pcb-stackup_bottom_sm-mask)"><rect x="10" y="10.51" width="1000" height="570" fill="currentColor" class="pcb-stackup_sm"/><use xlink:href="#pcb-stackup_bottom_ss" fill="currentColor" stroke="currentColor" class="pcb-stackup_ss"/></g></g></g></svg>