<svg id="pcb-stackup_top" version="1.1" xmlns:xlink="http://www.w3.org/1999/xlink" stroke-linecap="round" stroke-linejoin="round" stroke-width="0" fill-rule="evenodd" clip-rule="evenodd" viewBox="10 10.51 1000 570" width="1in" height="0.57in" xmlns="http://www.w3.org/2000/svg"><defs><style>.pcb-stackup_fr4 {color: #4D542C;}
.pcb-stackup_cu {color: lightgrey;}
.pcb-stackup_cf {color: goldenrod;}
.pcb-stackup_sm {color: #2E0051; opacity: 0.9;}
.pcb-stackup_ss {color: white;}
.pcb-stackup_sp {color: #000000; opacity: 0;}
.pcb-stackup_out {color: black;}</style><rect x="-17.715" y="-11.81" width="35.43" height="23.62" id="_Gm37iCL8qG6_pad-10"/><rect x="-23.62" y="-19.685" width="47.24" height="39.37" id="_Gm37iCL8qG6_pad-11"/><rect x="-19.685" y="-23.62" width="39.37" height="47.24" id="_Gm37iCL8qG6_pad-12"/><polygon points="49.9999,20.71064 20.71064,49.9999 -20.71064,49.9999 -49.9999,20.71064 -49.9999,-20.71064 -20.71064,-49.9999 20.71064,-49.9999 49.9999,-20.71064" id="_Gm37iCL8qG6_pad-13"/><circle cx="0" cy="0" r="19.685" id="_Gm37iCL8qG6_pad-14"/><polygon points="42.49991,17.60404 17.60404,42.49991 -17.60404,42.49991 -42.49991,17.60404 -42.49991,-17.60404 -17.60404,-42.49991 17.60404,-42.49991 42.49991,-17.60404" id="_Gm37iCL8qG6_pad-15"/><rect x="-19.685" y="-27.56" width="39.37" height="55.12" id="_Gm37iCL8qG6_pad-16"/><rect x="-37.4" y="-20" width="74.8" height="40" id="_Gm37iCL8qG6_pad-17"/><circle cx="0" cy="0" r="14.5" id="_Gm37iCL8qG6_pad-21"/><rect x="-17.715" y="-11.81" width="35.43" height="23.62" id="_Gm37iCL8qG6_pad-10"/><rect x="-23.62" y="-19.685" width="47.24" height="39.37" id="_Gm37iCL8qG6_pad-11"/><rect x="-19.685" y="-23.62" width="39.37" height="47.24" id="_Gm37iCL8qG6_pad-12"/><polygon points="49.9999,20.71064 20.71064,49.9999 -20.71064,49.9999 -49.9999,20.71064 -49.9999,-20.71064 -20.71064,-49.9999 20.71064,-49.9999 49.9999,-20.71064" id="_Gm37iCL8qG6_pad-13"/><circle cx="0" cy="0" r="19.685" id="_Gm37iCL8qG6_pad-14"/><polygon points="42.49991,17.60404 17.60404,42.49991 -17.60404,42.49991 -42.49991,17.60404 -42.49991,-17.60404 -17.60404,-42.49991 17.60404,-42.49991 42.49991,-17.60404" id="_Gm37iCL8qG6_pad-15"/><rect x="-19.685" y="-27.56" width="39.37" height="55.12" id="_Gm37iCL8qG6_pad-16"/><rect x="-37.4" y="-20" width="74.8" height="40" id="_Gm37iCL8qG6_pad-17"/><circle cx="0" cy="0" r="14.5" id="_Gm37iCL8qG6_pad-21"/><circle cx="0" cy="0" r="3.935" id="urLg-zR.8UiA_pad-14"/><rect x="-17.715" y="-11.81" width="35.43" height="23.62" id="_Gm37iCL8qG6_pad-10"/><rect x="-23.62" y="-19.685" width="47.24" height="39.37" id="_Gm37iCL8qG6_pad-11"/><rect x="-19.685" y="-23.62" width="39.37" height="47.24" id="_Gm37iCL8qG6_pad-12"/><polygon points="49.9999,20.71064 20.71064,49.9999 -20.71064,49.9999 -49.9999,20.71064 -49.9999,-20.71064 -20.71064,-49.9999 20.71064,-49.9999 49.9999,-20.71064" id="_Gm37iCL8qG6_pad-13"/><circle cx="0" cy="0" r="19.685" id="_Gm37iCL8qG6_pad-14"/><polygon points="42.49991,17.60404 17.60404,42.49991 -17.60404,42.49991 -42.49991,17.60404 -42.49991,-17.60404 -17.60404,-42.49991 17.60404,-42.49991 42.49991,-17.60404" id="_Gm37iCL8qG6_pad-15"/><rect x="-19.685" y="-27.56" width="39.37" height="55.12" id="_Gm37iCL8qG6_pad-16"/><rect x="-37.4" y="-20" width="74.8" height="40" id="_Gm37iCL8qG6_pad-17"/><circle cx="0" cy="0" r="14.5" id="_Gm37iCL8qG6_pad-21"/><rect x="-17.715" y="-11.81" width="35.43" height="23.62" id="_Gm37iCL8qG6_pad-10"/><rect x="-23.62" y="-19.685" width="47.24" height="39.37" id="_Gm37iCL8qG6_pad-11"/><rect x="-19.685" y="-23.62" width="39.37" height="47.24" id="_Gm37iCL8qG6_pad-12"/><polygon points="49.9999,20.71064 20.71064,49.9999 -20.71064,49.9999 -49.9999,20.71064 -49.9999,-20.71064 -20.71064,-49.9999 20.71064,-49.9999 49.9999,-20.71064" id="_Gm37iCL8qG6_pad-13"/><circle cx="0" cy="0" r="19.685" id="_Gm37iCL8qG6_pad-14"/><polygon points="42.49991,17.60404 17.60404,42.49991 -17.60404,42.49991 -42.49991,17.60404 -42.49991,-17.60404 -17.60404,-42.49991 17.60404,-42.49991 42.49991,-17.60404" id="_Gm37iCL8qG6_pad-15"/><rect x="-19.685" y="-27.56" width="39.37" height="55.12" id="_Gm37iCL8qG6_pad-16"/><rect x="-37.4" y="-20" width="74.8" height="40" id="_Gm37iCL8qG6_pad-17"/><circle cx="0" cy="0" r="14.5" id="_Gm37iCL8qG6_pad-21"/><circle cx="0" cy="0" r="3.935" id="urLg-zR.8UiA_pad-14"/><rect x="-20.715" y="-14.81" width="41.43" height="29.62" id="Qforv254-ovL_pad-10"/><rect x="-26.62" y="-22.685" width="53.24" height="45.37" id="Qforv254-ovL_pad-11"/><rect x="-22.685" y="-26.62" width="45.37" height="53.24" id="Qforv254-ovL_pad-12"/><polygon points="52.99989,21.95327 21.95327,52.99989 -21.95327,52.99989 -52.99989,21.95327 -52.99989,-21.95327 -21.95327,-52.99989 21.95327,-52.99989 52.99989,-21.95327" id="Qforv254-ovL_pad-13"/><circle cx="0" cy="0" r="22.685" id="Qforv254-ovL_pad-14"/><polygon points="45.49991,18.84668 18.84668,45.49991 -18.84668,45.49991 -45.49991,18.84668 -45.49991,-18.84668 -18.84668,-45.49991 18.84668,-45.49991 45.49991,-18.84668" id="Qforv254-ovL_pad-15"/><rect x="-22.685" y="-30.56" width="45.37" height="61.12" id="Qforv254-ovL_pad-16"/><rect x="-40.4" y="-23" width="80.8" height="46" id="Qforv254-ovL_pad-17"/><circle cx="0" cy="0" r="17.5" id="Qforv254-ovL_pad-18"/><rect x="-17.715" y="-11.81" width="35.43" height="23.62" id="_Gm37iCL8qG6_pad-10"/><rect x="-23.62" y="-19.685" width="47.24" height="39.37" id="_Gm37iCL8qG6_pad-11"/><rect x="-19.685" y="-23.62" width="39.37" height="47.24" id="_Gm37iCL8qG6_pad-12"/><polygon points="49.9999,20.71064 20.71064,49.9999 -20.71064,49.9999 -49.9999,20.71064 -49.9999,-20.71064 -20.71064,-49.9999 20.71064,-49.9999 49.9999,-20.71064" id="_Gm37iCL8qG6_pad-13"/><circle cx="0" cy="0" r="19.685" id="_Gm37iCL8qG6_pad-14"/><polygon points="42.49991,17.60404 17.60404,42.49991 -17.60404,42.49991 -42.49991,17.60404 -42.49991,-17.60404 -17.60404,-42.49991 17.60404,-42.49991 42.49991,-17.60404" id="_Gm37iCL8qG6_pad-15"/><rect x="-19.685" y="-27.56" width="39.37" height="55.12" id="_Gm37iCL8qG6_pad-16"/><rect x="-37.4" y="-20" width="74.8" height="40" id="_Gm37iCL8qG6_pad-17"/><circle cx="0" cy="0" r="14.5" id="_Gm37iCL8qG6_pad-21"/><rect x="-17.715" y="-11.81" width="35.43" height="23.62" id="_Gm37iCL8qG6_pad-10"/><rect x="-23.62" y="-19.685" width="47.24" height="39.37" id="_Gm37iCL8qG6_pad-11"/><rect x="-19.685" y="-23.62" width="39.37" height="47.24" id="_Gm37iCL8qG6_pad-12"/><polygon points="49.9999,20.71064 20.71064,49.9999 -20.71064,49.9999 -49.9999,20.71064 -49.9999,-20.71064 -20.71064,-49.9999 20.71064,-49.9999 49.9999,-20.71064" id="_Gm37iCL8qG6_pad-13"/><circle cx="0" cy="0" r="19.685" id="_Gm37iCL8qG6_pad-14"/><polygon points="42.49991,17.60404 17.60404,42.49991 -17.60404,42.49991 -42.49991,17.60404 -42.49991,-17.60404 -17.60404,-42.49991 17.60404,-42.49991 42.49991,-17.60404" id="_Gm37iCL8qG6_pad-15"/><rect x="-19.685" y="-27.56" width="39.37" height="55.12" id="_Gm37iCL8qG6_pad-16"/><rect x="-37.4" y="-20" width="74.8" height="40" id="_Gm37iCL8qG6_pad-17"/><circle cx="0" cy="0" r="14.5" id="_Gm37iCL8qG6_pad-21"/><circle cx="0" cy="0" r="3.935" id="urLg-zR.8UiA_pad-14"/><rect x="-17.715" y="-11.81" width="35.43" height="23.62" id="_Gm37iCL8qG6_pad-10"/><rect x="-23.62" y="-19.685" width="47.24" height="39.37" id="_Gm37iCL8qG6_pad-11"/><rect x="-19.685" y="-23.62" width="39.37" height="47.24" id="_Gm37iCL8qG6_pad-12"/><polygon points="49.9999,20.71064 20.71064,49.9999 -20.71064,49.9999 -49.9999,20.71064 -49.9999,-20.71064 -20.71064,-49.9999 20.71064,-49.9999 49.9999,-20.71064" id="_Gm37iCL8qG6_pad-13"/><circle cx="0" cy="0" r="19.685" id="_Gm37iCL8qG6_pad-14"/><polygon points="42.49991,17.60404 17.60404,42.49991 -17.60404,42.49991 -42.49991,17.60404 -42.49991,-17.60404 -17.60404,-42.49991 17.60404,-42.49991 42.49991,-17.60404" id="_Gm37iCL8qG6_pad-15"/><rect x="-19.685" y="-27.56" width="39.37" height="55.12" id="_Gm37iCL8qG6_pad-16"/><rect x="-37.4" y="-20" width="74.8" height="40" id="_Gm37iCL8qG6_pad-17"/><circle cx="0" cy="0" r="14.5" id="_Gm37iCL8qG6_pad-21"/><rect x="-17.715" y="-11.81" width="35.43" height="23.62" id="_Gm37iCL8qG6_pad-10"/><rect x="-23.62" y="-19.685" width="47.24" height="39.37" id="_Gm37iCL8qG6_pad-11"/><rect x="-19.685" y="-23.62" width="39.37" height="47.24" id="_Gm37iCL8qG6_pad-12"/><polygon points="49.9999,20.71064 20.71064,49.9999 -20.71064,49.9999 -49.9999,20.71064 -49.9999,-20.71064 -20.71064,-49.9999 20.71064,-49.9999 49.9999,-20.71064" id="_Gm37iCL8qG6_pad-13"/><circle cx="0" cy="0" r="19.685" id="_Gm37iCL8qG6_pad-14"/><polygon points="42.49991,17.60404 17.60404,42.49991 -17.60404,42.49991 -42.49991,17.60404 -42.49991,-17.60404 -17.60404,-42.49991 17.60404,-42.49991 42.49991,-17.60404" id="_Gm37iCL8qG6_pad-15"/><rect x="-19.685" y="-27.56" width="39.37" height="55.12" id="_Gm37iCL8qG6_pad-16"/><rect x="-37.4" y="-20" width="74.8" height="40" id="_Gm37iCL8qG6_pad-17"/><circle cx="0" cy="0" r="14.5" id="_Gm37iCL8qG6_pad-21"/><circle cx="0" cy="0" r="3.935" id="urLg-zR.8UiA_pad-14"/><rect x="-20.715" y="-14.81" width="41.43" height="29.62" id="Qforv254-ovL_pad-10"/><rect x="-26.62" y="-22.685" width="53.24" height="45.37" id="Qforv254-ovL_pad-11"/><rect x="-22.685" y="-26.62" width="45.37" height="53.24" id="Qforv254-ovL_pad-12"/><polygon points="52.99989,21.95327 21.95327,52.99989 -21.95327,52.99989 -52.99989,21.95327 -52.99989,-21.95327 -21.95327,-52.99989 21.95327,-52.99989 52.99989,-21.95327" id="Qforv254-ovL_pad-13"/><circle cx="0" cy="0" r="22.685" id="Qforv254-ovL_pad-14"/><polygon points="45.49991,18.84668 18.84668,45.49991 -18.84668,45.49991 -45.49991,18.84668 -45.49991,-18.84668 -18.84668,-45.49991 18.84668,-45.49991 45.49991,-18.84668" id="Qforv254-ovL_pad-15"/><rect x="-22.685" y="-30.56" width="45.37" height="61.12" id="Qforv254-ovL_pad-16"/><rect x="-40.4" y="-23" width="80.8" height="46" id="Qforv254-ovL_pad-17"/><circle cx="0" cy="0" r="17.5" id="Qforv254-ovL_pad-18"/><circle cx="0" cy="0" r="7.5" id="sVaKaUHxHIp6_pad-1"/><circle cx="0" cy="0" r="11.81" id="sVaKaUHxHIp6_pad-2"/><circle cx="0" cy="0" r="26" id="sVaKaUHxHIp6_pad-3"/><rect x="-17.715" y="-11.81" width="35.43" height="23.62" id="_Gm37iCL8qG6_pad-10"/><rect x="-23.62" y="-19.685" width="47.24" height="39.37" id="_Gm37iCL8qG6_pad-11"/><rect x="-19.685" y="-23.62" width="39.37" height="47.24" id="_Gm37iCL8qG6_pad-12"/><polygon points="49.9999,20.71064 20.71064,49.9999 -20.71064,49.9999 -49.9999,20.71064 -49.9999,-20.71064 -20.71064,-49.9999 20.71064,-49.9999 49.9999,-20.71064" id="_Gm37iCL8qG6_pad-13"/><circle cx="0" cy="0" r="19.685" id="_Gm37iCL8qG6_pad-14"/><polygon points="42.49991,17.60404 17.60404,42.49991 -17.60404,42.49991 -42.49991,17.60404 -42.49991,-17.60404 -17.60404,-42.49991 17.60404,-42.49991 42.49991,-17.60404" id="_Gm37iCL8qG6_pad-15"/><rect x="-19.685" y="-27.56" width="39.37" height="55.12" id="_Gm37iCL8qG6_pad-16"/><rect x="-37.4" y="-20" width="74.8" height="40" id="_Gm37iCL8qG6_pad-17"/><circle cx="0" cy="0" r="14.5" id="_Gm37iCL8qG6_pad-21"/><rect x="-17.715" y="-11.81" width="35.43" height="23.62" id="_Gm37iCL8qG6_pad-10"/><rect x="-23.62" y="-19.685" width="47.24" height="39.37" id="_Gm37iCL8qG6_pad-11"/><rect x="-19.685" y="-23.62" width="39.37" height="47.24" id="_Gm37iCL8qG6_pad-12"/><polygon points="49.9999,20.71064 20.71064,49.9999 -20.71064,49.9999 -49.9999,20.71064 -49.9999,-20.71064 -20.71064,-49.9999 20.71064,-49.9999 49.9999,-20.71064" id="_Gm37iCL8qG6_pad-13"/><circle cx="0" cy="0" r="19.685" id="_Gm37iCL8qG6_pad-14"/><polygon points="42.49991,17.60404 17.60404,42.49991 -17.60404,42.49991 -42.49991,17.60404 -42.49991,-17.60404 -17.60404,-42.49991 17.60404,-42.49991 42.49991,-17.60404" id="_Gm37iCL8qG6_pad-15"/><rect x="-19.685" y="-27.56" width="39.37" height="55.12" id="_Gm37iCL8qG6_pad-16"/><rect x="-37.4" y="-20" width="74.8" height="40" id="_Gm37iCL8qG6_pad-17"/><circle cx="0" cy="0" r="14.5" id="_Gm37iCL8qG6_pad-21"/><circle cx="0" cy="0" r="3.935" id="urLg-zR.8UiA_pad-14"/><rect x="-17.715" y="-11.81" width="35.43" height="23.62" id="_Gm37iCL8qG6_pad-10"/><rect x="-23.62" y="-19.685" width="47.24" height="39.37" id="_Gm37iCL8qG6_pad-11"/><rect x="-19.685" y="-23.62" width="39.37" height="47.24" id="_Gm37iCL8qG6_pad-12"/><polygon points="49.9999,20.71064 20.71064,49.9999 -20.71064,49.9999 -49.9999,20.71064 -49.9999,-20.71064 -20.71064,-49.9999 20.71064,-49.9999 49.9999,-20.71064" id="_Gm37iCL8qG6_pad-13"/><circle cx="0" cy="0" r="19.685" id="_Gm37iCL8qG6_pad-14"/><polygon points="42.49991,17.60404 17.60404,42.49991 -17.60404,42.49991 -42.49991,17.60404 -42.49991,-17.60404 -17.60404,-42.49991 17.60404,-42.49991 42.49991,-17.60404" id="_Gm37iCL8qG6_pad-15"/><rect x="-19.685" y="-27.56" width="39.37" height="55.12" id="_Gm37iCL8qG6_pad-16"/><rect x="-37.4" y="-20" width="74.8" height="40" id="_Gm37iCL8qG6_pad-17"/><circle cx="0" cy="0" r="14.5" id="_Gm37iCL8qG6_pad-21"/><rect x="-17.715" y="-11.81" width="35.43" height="23.62" id="_Gm37iCL8qG6_pad-10"/><rect x="-23.62" y="-19.685" width="47.24" height="39.37" id="_Gm37iCL8qG6_pad-11"/><rect x="-19.685" y="-23.62" width="39.37" height="47.24" id="_Gm37iCL8qG6_pad-12"/><polygon points="49.9999,20.71064 20.71064,49.9999 -20.71064,49.9999 -49.9999,20.71064 -49.9999,-20.71064 -20.71064,-49.9999 20.71064,-49.9999 49.9999,-20.71064" id="_Gm37iCL8qG6_pad-13"/><circle cx="0" cy="0" r="19.685" id="_Gm37iCL8qG6_pad-14"/><polygon points="42.49991,17.60404 17.60404,42.49991 -17.60404,42.49991 -42.49991,17.60404 -42.49991,-17.60404 -17.60404,-42.49991 17.60404,-42.49991 42.49991,-17.60404" id="_Gm37iCL8qG6_pad-15"/><rect x="-19.685" y="-27.56" width="39.37" height="55.12" id="_Gm37iCL8qG6_pad-16"/><rect x="-37.4" y="-20" width="74.8" height="40" id="_Gm37iCL8qG6_pad-17"/><circle cx="0" cy="0" r="14.5" id="_Gm37iCL8qG6_pad-21"/><circle cx="0" cy="0" r="3.935" id="urLg-zR.8UiA_pad-14"/><rect x="-20.715" y="-14.81" width="41.43" height="29.62" id="Qforv254-ovL_pad-10"/><rect x="-26.62" y="-22.685" width="53.24" height="45.37" id="Qforv254-ovL_pad-11"/><rect x="-22.685" y="-26.62" width="45.37" height="53.24" id="Qforv254-ovL_pad-12"/><polygon points="52.99989,21.95327 21.95327,52.99989 -21.95327,52.99989 -52.99989,21.95327 -52.99989,-21.95327 -21.95327,-52.99989 21.95327,-52.99989 52.99989,-21.95327" id="Qforv254-ovL_pad-13"/><circle cx="0" cy="0" r="22.685" id="Qforv254-ovL_pad-14"/><polygon points="45.49991,18.84668 18.84668,45.49991 -18.84668,45.49991 -45.49991,18.84668 -45.49991,-18.84668 -18.84668,-45.49991 18.84668,-45.49991 45.49991,-18.84668" id="Qforv254-ovL_pad-15"/><rect x="-22.685" y="-30.56" width="45.37" height="61.12" id="Qforv254-ovL_pad-16"/><rect x="-40.4" y="-23" width="80.8" height="46" id="Qforv254-ovL_pad-17"/><circle cx="0" cy="0" r="17.5" id="Qforv254-ovL_pad-18"/><rect x="-17.715" y="-11.81" width="35.43" height="23.62" id="_Gm37iCL8qG6_pad-10"/><rect x="-23.62" y="-19.685" width="47.24" height="39.37" id="_Gm37iCL8qG6_pad-11"/><rect x="-19.685" y="-23.62" width="39.37" height="47.24" id="_Gm37iCL8qG6_pad-12"/><polygon points="49.9999,20.71064 20.71064,49.9999 -20.71064,49.9999 -49.9999,20.71064 -49.9999,-20.71064 -20.71064,-49.9999 20.71064,-49.9999 49.9999,-20.71064" id="_Gm37iCL8qG6_pad-13"/><circle cx="0" cy="0" r="19.685" id="_Gm37iCL8qG6_pad-14"/><polygon points="42.49991,17.60404 17.60404,42.49991 -17.60404,42.49991 -42.49991,17.60404 -42.49991,-17.60404 -17.60404,-42.49991 17.60404,-42.49991 42.49991,-17.60404" id="_Gm37iCL8qG6_pad-15"/><rect x="-19.685" y="-27.56" width="39.37" height="55.12" id="_Gm37iCL8qG6_pad-16"/><rect x="-37.4" y="-20" width="74.8" height="40" id="_Gm37iCL8qG6_pad-17"/><circle cx="0" cy="0" r="14.5" id="_Gm37iCL8qG6_pad-21"/><rect x="-17.715" y="-11.81" width="35.43" height="23.62" id="_Gm37iCL8qG6_pad-10"/><rect x="-23.62" y="-19.685" width="47.24" height="39.37" id="_Gm37iCL8qG6_pad-11"/><rect x="-19.685" y="-23.62" width="39.37" height="47.24" id="_Gm37iCL8qG6_pad-12"/><polygon points="49.9999,20.71064 20.71064,49.9999 -20.71064,49.9999 -49.9999,20.71064 -49.9999,-20.71064 -20.71064,-49.9999 20.71064,-49.9999 49.9999,-20.71064" id="_Gm37iCL8qG6_pad-13"/><circle cx="0" cy="0" r="19.685" id="_Gm37iCL8qG6_pad-14"/><polygon points="42.49991,17.60404 17.60404,42.49991 -17.60404,42.49991 -42.49991,17.60404 -42.49991,-17.60404 -17.60404,-42.49991 17.60404,-42.49991 42.49991,-17.60404" id="_Gm37iCL8qG6_pad-15"/><rect x="-19.685" y="-27.56" width="39.37" height="55.12" id="_Gm37iCL8qG6_pad-16"/><rect x="-37.4" y="-20" width="74.8" height="40" id="_Gm37iCL8qG6_pad-17"/><circle cx="0" cy="0" r="14.5" id="_Gm37iCL8qG6_pad-21"/><circle cx="0" cy="0" r="3.935" id="urLg-zR.8UiA_pad-14"/><rect x="-17.715" y="-11.81" width="35.43" height="23.62" id="_Gm37iCL8qG6_pad-10"/><rect x="-23.62" y="-19.685" width="47.24" height="39.37" id="_Gm37iCL8qG6_pad-11"/><rect x="-19.685" y="-23.62" width="39.37" height="47.24" id="_Gm37iCL8qG6_pad-12"/><polygon points="49.9999,20.71064 20.71064,49.9999 -20.71064,49.9999 -49.9999,20.71064 -49.9999,-20.71064 -20.71064,-49.9999 20.71064,-49.9999 49.9999,-20.71064" id="_Gm37iCL8qG6_pad-13"/><circle cx="0" cy="0" r="19.685" id="_Gm37iCL8qG6_pad-14"/><polygon points="42.49991,17.60404 17.60404,42.49991 -17.60404,42.49991 -42.49991,17.60404 -42.49991,-17.60404 -17.60404,-42.49991 17.60404,-42.49991 42.49991,-17.60404" id="_Gm37iCL8qG6_pad-15"/><rect x="-19.685" y="-27.56" width="39.37" height="55.12" id="_Gm37iCL8qG6_pad-16"/><rect x="-37.4" y="-20" width="74.8" height="40" id="_Gm37iCL8qG6_pad-17"/><circle cx="0" cy="0" r="14.5" id="_Gm37iCL8qG6_pad-21"/><rect x="-17.715" y="-11.81" width="35.43" height="23.62" id="_Gm37iCL8qG6_pad-10"/><rect x="-23.62" y="-19.685" width="47.24" height="39.37" id="_Gm37iCL8qG6_pad-11"/><rect x="-19.685" y="-23.62" width="39.37" height="47.24" id="_Gm37iCL8qG6_pad-12"/><polygon points="49.9999,20.71064 20.71064,49.9999 -20.71064,49.9999 -49.9999,20.71064 -49.9999,-20.71064 -20.71064,-49.9999 20.71064,-49.9999 49.9999,-20.71064" id="_Gm37iCL8qG6_pad-13"/><circle cx="0" cy="0" r="19.685" id="_Gm37iCL8qG6_pad-14"/><polygon points="42.49991,17.60404 17.60404,42.49991 -17.60404,42.49991 -42.49991,17.60404 -42.49991,-17.60404 -17.60404,-42.49991 17.60404,-42.49991 42.49991,-17.60404" id="_Gm37iCL8qG6_pad-15"/><rect x="-19.685" y="-27.56" width="39.37" height="55.12" id="_Gm37iCL8qG6_pad-16"/><rect x="-37.4" y="-20" width="74.8" height="40" id="_Gm37iCL8qG6_pad-17"/><circle cx="0" cy="0" r="14.5" id="_Gm37iCL8qG6_pad-21"/><circle cx="0" cy="0" r="3.935" id="urLg-zR.8UiA_pad-14"/><rect x="-20.715" y="-14.81" width="41.43" height="29.62" id="Qforv254-ovL_pad-10"/><rect x="-26.62" y="-22.685" width="53.24" height="45.37" id="Qforv254-ovL_pad-11"/><rect x="-22.685" y="-26.62" width="45.37" height="53.24" id="Qforv254-ovL_pad-12"/><polygon points="52.99989,21.95327 21.95327,52.99989 -21.95327,52.99989 -52.99989,21.95327 -52.99989,-21.95327 -21.95327,-52.99989 21.95327,-52.99989 52.99989,-21.95327" id="Qforv254-ovL_pad-13"/><circle cx="0" cy="0" r="22.685" id="Qforv254-ovL_pad-14"/><polygon points="45.49991,18.84668 18.84668,45.49991 -18.84668,45.49991 -45.49991,18.84668 -45.49991,-18.84668 -18.84668,-45.49991 18.84668,-45.49991 45.49991,-18.84668" id="Qforv254-ovL_pad-15"/><rect x="-22.685" y="-30.56" width="45.37" height="61.12" id="Qforv254-ovL_pad-16"/><rect x="-40.4" y="-23" width="80.8" height="46" id="Qforv254-ovL_pad-17"/><circle cx="0" cy="0" r="17.5" id="Qforv254-ovL_pad-18"/><circle cx="0" cy="0" r="7.5" id="sVaKaUHxHIp6_pad-1"/><circle cx="0" cy="0" r="11.81" id="sVaKaUHxHIp6_pad-2"/><circle cx="0" cy="0" r="26" id="sVaKaUHxHIp6_pad-3"/><g id="pcb-stackup_top_cu"><use xlink:href="#_Gm37iCL8qG6_pad-10" x="624.72" y="223.11"/><use xlink:href="#_Gm37iCL8qG6_pad-10" x="624.72" y="260.51"/><use xlink:href="#_Gm37iCL8qG6_pad-10" x="624.72" y="297.91"/><use xlink:href="#_Gm37iCL8qG6_pad-10" x="715.28" y="297.91"/><use xlink:href="#_Gm37iCL8qG6_pad-10" x="715.28" y="260.51"/><use xlink:href="#_Gm37iCL8qG6_pad-10" x="715.28" y="223.11"/><use xlink:href="#_Gm37iCL8qG6_pad-11" x="800" y="219.88"/><use xlink:href="#_Gm37iCL8qG6_pad-11" x="800" y="296.14"/><use xlink:href="#_Gm37iCL8qG6_pad-11" x="910" y="296.14"/><use xlink:href="#_Gm37iCL8qG6_pad-11" x="910" y="374.88"/><use xlink:href="#_Gm37iCL8qG6_pad-11" x="800" y="374.88"/><use xlink:href="#_Gm37iCL8qG6_pad-11" x="530" y="349.88"/><use xlink:href="#_Gm37iCL8qG6_pad-11" x="530" y="271.14"/><use xlink:href="#_Gm37iCL8qG6_pad-11" x="560" y="169.88"/><use xlink:href="#_Gm37iCL8qG6_pad-11" x="560" y="91.14"/><use xlink:href="#_Gm37iCL8qG6_pad-11" x="800" y="141.14"/><use xlink:href="#_Gm37iCL8qG6_pad-12" x="434.37" y="285.51"/><use xlink:href="#_Gm37iCL8qG6_pad-12" x="355.63" y="285.51"/><use xlink:href="#_Gm37iCL8qG6_pad-12" x="355.63" y="380.51"/><use xlink:href="#_Gm37iCL8qG6_pad-12" x="434.37" y="380.51"/><use xlink:href="#_Gm37iCL8qG6_pad-12" x="630.63" y="375.51"/><use xlink:href="#_Gm37iCL8qG6_pad-12" x="709.37" y="375.51"/><use xlink:href="#_Gm37iCL8qG6_pad-13" x="910" y="175.51"/><use xlink:href="#_Gm37iCL8qG6_pad-14" x="184.37" y="213.11"/><use xlink:href="#_Gm37iCL8qG6_pad-14" x="184.37" y="287.91"/><use xlink:href="#_Gm37iCL8qG6_pad-15" x="535" y="485.51"/><use xlink:href="#_Gm37iCL8qG6_pad-15" x="815" y="490.51"/><use xlink:href="#_Gm37iCL8qG6_pad-15" x="675" y="120.51"/><use xlink:href="#_Gm37iCL8qG6_pad-16" x="707.4" y="442.2"/><use xlink:href="#_Gm37iCL8qG6_pad-16" x="632.6" y="442.2"/><use xlink:href="#_Gm37iCL8qG6_pad-16" x="670" y="528.82"/><use xlink:href="#_Gm37iCL8qG6_pad-17" x="309.61" y="185.51"/><use xlink:href="#_Gm37iCL8qG6_pad-17" x="470.39" y="135.51"/><use xlink:href="#_Gm37iCL8qG6_pad-17" x="309.61" y="85.51"/><path d="M 250 150.51 295 185.51 309.61 185.51 M 530 271.14 540.63 260.51 580 260.51 624.72 260.51 M 624.72 297.91 582.6 297.91 560 320.51 559.37 320.51 530 349.88 M 723.03 303.54 723.03 297.91 M 723.03 303.54 780 360.51 785.63 360.51 800 374.88 910 374.88 M 910 296.14 910 175.51 M 800 219.88 759.37 260.51 764.37 260.51 800 296.14 M 759.37 260.51 715.28 260.51" fill="none" stroke-width="12"/><path d="M 715.28 297.91 723.03 297.91" fill="none" stroke-width="16"/><path d="M 670 265.51 670 330.51 595 330.51 580 345.51 580 380.51 570 390.51 444.37 390.51 434.37 380.51 410 380.51 395 365.51 395 140.51 340 85.51 309.61 85.51 M 434.37 156.14 450 140.51 465.39 140.51 470.39 135.51 495 135.51 530 100.51 550.63 100.51 560 91.14 580.63 91.14 625 135.51 625 222.83 624.72 223.11 M 670 265.51 675 260.51 715.28 260.51 M 715.28 223.11 715.28 185.24 760 140.51 799.37 140.51 800 141.14 M 675 120.51 670 120.51 625 135.51 M 560 169.88 560 210.51 M 434.37 156.14 434.37 285.51 M 355.63 285.51 355.63 380.51 M 353.23 287.91 184.37 287.91 M 353.23 287.91 355.63 285.51 M 470.39 135.51 465.39 130.51 M 670 330.51 670 336.14 709.37 375.51 707.4 377.48 707.4 442.2 M 632.6 442.2 632.6 430.51 577.6 485.51 535 485.51 M 632.6 430.51 632.6 377.48 630.63 375.51 631 375.88 M 707 377.88 709.37 375.51 M 815 490.51 766.69 528.82 670 528.82" fill="none" stroke-width="10"/><use xlink:href="#_Gm37iCL8qG6_pad-21" x="250" y="150.51"/><use xlink:href="#_Gm37iCL8qG6_pad-21" x="560" y="210.51"/><use xlink:href="#_Gm37iCL8qG6_pad-21" x="580" y="260.51"/></g><g id="pcb-stackup_top_ss"><path d="M 10 10.51 10 580.51 1010 580.51 1010 10.51 10 10.51" fill="none" stroke-width="0"/><path d="M 125.75 106.51 125.75 124.53 131.76 118.52 137.76 124.53 137.76 106.51 M 144.17 106.51 144.17 124.53 M 144.17 112.52 156.18 124.53 M 162.58 118.52 168.59 124.53 168.59 106.51 M 174.59 106.51 162.58 106.51 M 156.18 106.51 147.17 115.52 M 239.15 54.02 239.15 38.67 246.82 31 254.5 38.67 254.5 54.02 M 262.17 54.02 273.68 54.02 277.52 50.18 277.52 42.51 273.68 38.67 262.17 38.67 M 262.17 31 262.17 54.02 M 285.19 46.35 292.86 54.02 292.86 31 M 285.19 31 300.54 31 M 277.52 31 269.84 38.67 M 548.38 37.45 551.38 34.45 557.39 34.45 560.39 37.45 M 566.79 43.46 578.8 43.46 M 575.8 52.46 566.79 43.46 M 560.39 49.46 557.39 52.46 551.38 52.46 548.38 49.46 548.38 37.45 M 575.8 34.45 575.8 52.46 M 612.09 69.53 624.1 69.53 M 618.09 69.53 618.09 51.51 M 630.51 54.51 633.51 51.51 639.51 51.51 642.52 54.51 642.52 69.53 M 648.92 69.53 660.93 51.51 660.93 69.53 M 667.34 69.53 667.34 51.51 679.35 51.51 M 685.75 51.51 685.75 69.53 694.76 69.53 697.76 66.52 697.76 60.52 694.76 57.52 685.75 57.52 M 673.34 60.52 667.34 60.52 M 667.34 69.53 679.35 69.53 M 704.17 63.52 704.17 51.51 M 716.18 51.51 716.18 63.52 710.17 69.53 704.17 63.52 M 704.17 60.52 716.18 60.52 M 722.58 69.53 731.59 69.53 734.59 66.52 734.59 54.51 731.59 51.51 722.58 51.51 722.58 69.53 M 788.38 84.45 788.38 102.46 797.39 102.46 800.39 99.46 800.39 93.46 797.39 90.45 788.38 90.45 M 794.38 90.45 800.39 84.45 M 806.79 84.45 818.8 96.46 818.8 99.46 815.8 102.46 809.8 102.46 806.79 99.46 M 806.79 84.45 818.8 84.45 M 881 96.51 881 108.52 887.01 114.53 893.01 108.52 893.01 96.51 M 899.42 96.51 899.42 114.53 911.43 96.51 911.43 114.53 M 917.83 114.53 929.84 114.53 M 923.84 114.53 923.84 96.51 M 936.25 96.51 948.26 96.51 M 942.25 96.51 942.25 114.53 936.25 108.52 M 893.01 105.52 881 105.52 M 678.43 176.51 666.42 176.51 678.43 188.52 678.43 191.52 675.43 194.53 669.43 194.53 666.42 191.52 M 660.02 194.53 660.02 179.51 657.02 176.51 651.01 176.51 648.01 179.51 648.01 194.53 M 648.92 69.53 648.92 51.51 M 630.51 54.51 630.51 69.53 M 449.53 319.13 443.52 319.13 440.52 322.14 M 434.12 322.14 431.11 319.13 425.11 319.13 422.11 322.14 422.11 334.15 425.11 337.15 431.11 337.15 434.12 334.15 M 440.52 334.15 443.52 337.15 449.53 337.15 452.53 334.15 452.53 331.14 449.53 328.14 452.53 325.14 452.53 322.14 449.53 319.13 M 449.53 328.14 446.53 328.14 M 513.62 388.57 525.63 388.57 M 532.04 388.57 544.05 388.57 M 538.04 388.57 538.04 406.59 532.04 400.59 M 513.62 406.59 513.62 388.57 M 568.06 386.89 571.07 383.89 577.07 383.89 580.07 386.89 M 586.48 383.89 598.49 383.89 M 592.48 383.89 592.48 401.91 586.48 395.9 M 580.07 398.9 577.07 401.91 571.07 401.91 568.06 398.9 568.06 386.89 M 452.53 417.14 449.53 414.13 443.52 414.13 440.52 417.14 M 434.12 414.13 428.11 420.14 M 431.11 420.14 422.11 420.14 M 422.11 414.13 422.11 432.15 431.11 432.15 434.12 429.15 434.12 423.14 431.11 420.14 M 440.52 429.15 443.52 432.15 449.53 432.15 452.53 429.15 452.53 426.14 449.53 423.14 452.53 420.14 452.53 417.14 M 449.53 423.14 446.53 423.14 M 606 529.51 609 526.51 615.01 526.51 618.01 529.51 618.01 544.53 M 624.42 538.52 630.42 544.53 630.42 526.51 M 624.42 526.51 636.43 526.51 M 606 529.51 606 544.53 M 585.09 539.51 582.09 536.51 573.08 536.51 573.08 554.53 582.09 554.53 585.09 551.52 585.09 539.51 M 566.67 536.51 566.67 548.52 560.67 554.53 554.66 548.52 554.66 536.51 M 548.26 545.52 545.25 542.52 536.25 542.52 M 536.25 536.51 536.25 554.53 545.25 554.53 548.26 551.52 548.26 545.52 M 554.66 545.52 566.67 545.52 M 529.84 539.51 529.84 551.52 526.84 554.53 517.83 554.53 517.83 536.51 526.84 536.51 529.84 539.51 M 511.43 536.51 511.43 554.53 M 499.42 554.53 511.43 536.51 M 499.42 536.51 499.42 554.53 M 493.01 551.52 490.01 554.53 484 554.53 481 551.52 481 539.51 484 536.51 490.01 536.51 493.01 539.51 493.01 545.52 487.01 545.52 M 365.26 543.52 361.26 539.52 349.25 539.52 M 357.25 539.52 365.26 531.51 M 349.25 531.51 349.25 555.53 361.26 555.53 365.26 551.53 365.26 543.52 M 341.32 531.51 325.31 531.51 325.31 555.53 341.32 555.53 M 333.31 543.52 325.31 543.52 M 317.38 555.53 301.36 555.53 M 293.44 555.53 277.42 555.53 M 269.47 555.53 261.46 555.53 M 265.47 555.53 265.47 531.51 M 269.47 531.51 261.46 531.51 M 253.54 531.51 253.54 555.53 245.53 547.53 237.52 555.53 237.52 531.51 M 229.6 535.52 229.6 539.52 225.59 543.52 217.59 543.52 213.58 547.53 213.58 551.53 217.59 555.53 225.59 555.53 229.6 551.53 M 205.66 555.53 205.66 531.51 189.64 555.53 189.64 531.51 M 181.72 531.51 181.72 547.53 173.71 555.53 165.7 547.53 165.7 531.51 M 157.78 531.51 149.77 539.52 M 153.77 539.52 157.78 543.52 157.78 551.53 153.77 555.53 141.76 555.53 141.76 531.51 M 141.76 539.52 153.77 539.52 M 165.7 543.52 181.72 543.52 M 213.58 535.52 217.59 531.51 225.59 531.51 229.6 535.52 M 285.43 531.51 285.43 555.53 M 309.37 555.53 309.37 531.51 M 133.84 555.53 117.82 555.53 M 125.83 555.53 125.83 531.51 M 85.95 531.51 85.95 555.53 77.95 547.53 69.94 555.53 69.94 531.51 M 54.01 543.52 46 543.52 M 46 531.51 46 555.53 62.01 555.53 M 766 559.53 766 547.52 772.01 541.51 778.01 547.52 778.01 559.53 M 784.42 556.52 784.42 544.51 787.42 541.51 793.42 541.51 796.43 544.51 M 802.83 544.51 805.83 541.51 811.84 541.51 814.84 544.51 M 821.25 541.51 821.25 559.53 830.25 559.53 833.26 556.52 833.26 550.52 830.25 547.52 821.25 547.52 M 814.84 556.52 811.84 559.53 805.83 559.53 802.83 556.52 802.83 544.51 M 796.43 556.52 793.42 559.53 787.42 559.53 784.42 556.52 M 839.66 553.52 839.66 541.51 M 851.67 541.51 851.67 553.52 845.67 559.53 839.66 553.52 M 839.66 550.52 851.67 550.52 M 858.08 559.53 867.09 559.53 870.09 556.52 870.09 544.51 867.09 541.51 858.08 541.51 858.08 559.53 M 901.38 427.46 898.38 424.46 898.38 412.45 901.38 409.45 907.39 409.45 910.39 412.45 M 916.79 412.45 919.8 409.45 925.8 409.45 928.8 412.45 928.8 418.46 925.8 421.46 922.8 421.46 916.79 418.46 916.79 427.46 928.8 427.46 M 910.39 424.46 907.39 427.46 901.38 427.46 M 818.8 409.45 806.79 409.45 M 812.8 409.45 812.8 427.46 806.79 421.46 M 800.39 424.46 800.39 418.46 797.39 415.45 788.38 415.45 M 788.38 409.45 788.38 427.46 797.39 427.46 800.39 424.46 M 794.38 415.45 800.39 409.45" fill="none" stroke-width="2"/><path d="M 464.96 236.06 464.96 182.76 M 464.96 226.06 464.96 44.96 M 464.96 34.96 464.96 88.27 M 401.79 68.27 401.81 69.2 401.87 70.12 401.97 71.04 402.11 71.96 402.28 72.87 402.5 73.77 402.75 74.66 403.04 75.54 403.37 76.4 403.74 77.25 404.14 78.09 404.58 78.9 405.05 79.7 405.56 80.48 406.09 81.23 406.66 81.96 407.26 82.67 407.89 83.35 408.55 84 409.24 84.62 409.95 85.21 410.69 85.77 411.44 86.3 412.23 86.8 413.03 87.26 413.85 87.69 414.69 88.09 415.54 88.44 416.41 88.76 417.29 89.04 418.19 89.29 419.09 89.49 420 89.66 420.92 89.79 421.84 89.88 422.77 89.93 423.69 89.94 424.62 89.91 425.54 89.84 426.46 89.73 427.37 89.58 428.28 89.4 429.18 89.17 430.07 88.91 430.94 88.61 431.81 88.27 432.65 87.89 433.48 87.48 434.29 87.04 435.09 86.56 435.86 86.04 436.61 85.5 437.33 84.92 438.03 84.31 438.7 83.67 439.35 83.01 439.96 82.32 440.55 81.6 441.1 80.86 441.62 80.09 442.11 79.3 442.56 78.5 442.98 77.67 443.37 76.83 443.72 75.97 444.03 75.1 444.3 74.21 444.53 73.32 444.73 72.41 444.89 71.5 445.01 70.58 445.09 69.66 445.13 68.73 445.13 67.81 445.09 66.88 445.01 65.96 444.89 65.04 444.73 64.13 444.53 63.22 444.3 62.33 444.03 61.44 443.72 60.57 443.37 59.71 442.98 58.87 442.56 58.04 442.11 57.24 441.62 56.45 441.1 55.68 440.55 54.94 439.96 54.22 439.35 53.53 438.7 52.87 438.03 52.23 437.33 51.62 436.61 51.04 435.86 50.5 435.09 49.98 434.3 49.5 433.48 49.06 432.65 48.65 431.81 48.27 430.94 47.93 430.07 47.63 429.18 47.37 428.28 47.14 427.37 46.96 426.46 46.81 425.54 46.7 424.62 46.63 423.69 46.6 422.77 46.61 421.84 46.66 420.92 46.75 420 46.88 419.09 47.05 418.19 47.25 417.29 47.5 416.41 47.78 415.54 48.1 414.69 48.45 413.85 48.85 413.03 49.28 412.23 49.74 411.44 50.24 410.69 50.77 409.95 51.33 409.24 51.92 408.55 52.54 407.89 53.19 407.26 53.87 406.66 54.58 406.09 55.31 405.56 56.06 405.05 56.84 404.58 57.64 404.14 58.45 403.74 59.29 403.37 60.14 403.04 61 402.75 61.88 402.5 62.77 402.28 63.67 402.11 64.58 401.97 65.5 401.87 66.42 401.81 67.34 401.79 68.27 M 410.67 81.06 436.26 55.47 M 464.96 34.96 316.02 34.96 316.02 236.06 464.96 236.06 M 240 375.51 180 395.51 M 160 395.51 145 385.51 130 395.51 M 110 395.51 50 375.51 M 90 385.51 80 435.51 80 475.51 100 505.51 120 475.51 170 475.51 190 505.51 210 475.51 210 435.51 200 385.51 170 365.51 120 365.51 90 385.51 M 110 410.51 50 425.51 M 110 435.51 110 445.51 M 140 415.51 150 415.51 M 180 410.51 240 425.51 M 180 435.51 180 445.51 M 30.83 250.51 30.86 253.31 30.97 256.11 31.14 258.91 31.38 261.7 31.69 264.49 32.07 267.26 32.51 270.03 33.02 272.78 33.6 275.52 34.25 278.25 34.97 280.96 35.75 283.65 36.59 286.32 37.5 288.97 38.48 291.6 39.52 294.2 40.62 296.78 41.79 299.32 43.02 301.84 44.31 304.33 45.66 306.78 47.07 309.21 48.54 311.59 50.07 313.94 51.66 316.25 53.3 318.52 54.99 320.75 56.75 322.94 58.55 325.08 60.41 327.18 62.31 329.23 64.27 331.24 66.28 333.2 68.33 335.1 70.43 336.96 72.57 338.76 74.76 340.52 76.99 342.21 79.26 343.85 81.57 345.44 83.92 346.97 86.3 348.44 88.73 349.85 91.18 351.2 93.67 352.49 96.19 353.72 98.73 354.89 101.31 355.99 103.91 357.03 106.54 358.01 109.19 358.92 111.86 359.76 114.55 360.54 117.26 361.26 119.99 361.91 122.73 362.49 125.48 363 128.25 363.44 131.02 363.82 133.81 364.13 136.6 364.37 139.4 364.54 142.2 364.65 145 364.68 147.8 364.65 150.6 364.54 153.4 364.37 156.19 364.13 158.98 363.82 161.75 363.44 164.52 363 167.27 362.49 170.01 361.91 172.74 361.26 175.45 360.54 178.14 359.76 180.81 358.92 183.46 358.01 186.09 357.03 188.69 355.99 191.27 354.89 193.81 353.72 196.33 352.49 198.82 351.2 201.27 349.85 203.7 348.44 206.08 346.97 208.43 345.44 210.74 343.85 213.01 342.21 215.24 340.52 217.43 338.76 219.57 336.96 221.67 335.1 223.72 333.2 225.73 331.24 227.69 329.23 229.59 327.18 231.45 325.08 233.25 322.94 235.01 320.75 236.7 318.52 238.34 316.25 239.93 313.94 241.46 311.59 242.93 309.21 244.34 306.78 245.69 304.33 246.98 301.84 248.21 299.32 249.38 296.78 250.48 294.2 251.52 291.6 252.5 288.97 253.41 286.32 254.25 283.65 255.03 280.96 255.75 278.25 256.4 275.52 256.98 272.78 257.49 270.03 257.93 267.26 258.31 264.49 258.62 261.7 258.86 258.91 259.03 256.11 259.14 253.31 259.17 250.51 259.14 247.71 259.03 244.91 258.86 242.11 258.62 239.32 258.31 236.53 257.93 233.76 257.49 230.99 256.98 228.24 256.4 225.5 255.75 222.77 255.03 220.06 254.25 217.37 253.41 214.7 252.5 212.05 251.52 209.42 250.48 206.82 249.38 204.24 248.21 201.7 246.98 199.18 245.69 196.69 244.34 194.24 242.93 191.81 241.46 189.43 239.93 187.08 238.34 184.77 236.7 182.5 235.01 180.27 233.25 178.08 231.45 175.94 229.59 173.84 227.69 171.79 225.73 169.78 223.72 167.82 221.67 165.92 219.57 164.06 217.43 162.26 215.24 160.5 213.01 158.81 210.74 157.17 208.43 155.58 206.08 154.05 203.7 152.58 201.27 151.17 198.82 149.82 196.33 148.53 193.81 147.3 191.27 146.13 188.69 145.03 186.09 143.99 183.46 143.01 180.81 142.1 178.14 141.26 175.45 140.48 172.74 139.76 170.01 139.11 167.27 138.53 164.52 138.02 161.75 137.58 158.98 137.2 156.19 136.89 153.4 136.65 150.6 136.48 147.8 136.37 145 136.34 142.2 136.37 139.4 136.48 136.6 136.65 133.81 136.89 131.02 137.2 128.25 137.58 125.48 138.02 122.73 138.53 119.99 139.11 117.26 139.76 114.55 140.48 111.86 141.26 109.19 142.1 106.54 143.01 103.91 143.99 101.31 145.03 98.73 146.13 96.19 147.3 93.67 148.53 91.18 149.82 88.73 151.17 86.3 152.58 83.92 154.05 81.57 155.58 79.26 157.17 76.99 158.81 74.76 160.5 72.57 162.26 70.43 164.06 68.33 165.92 66.28 167.82 64.27 169.78 62.31 171.79 60.41 173.84 58.55 175.94 56.75 178.08 54.99 180.27 53.3 182.5 51.66 184.77 50.07 187.08 48.54 189.43 47.07 191.81 45.66 194.24 44.31 196.69 43.02 199.18 41.79 201.7 40.62 204.24 39.52 206.82 38.48 209.42 37.5 212.05 36.59 214.7 35.75 217.37 34.97 220.06 34.25 222.77 33.6 225.5 33.02 228.24 32.51 230.99 32.07 233.76 31.69 236.53 31.38 239.32 31.14 242.11 30.97 244.91 30.86 247.71 30.83 250.51" fill="none" stroke-width="8"/><path d="M 614 459.51 614 511.51 726 511.51 726 459.51 614 459.51 M 639.25 316.54 700.75 316.54 M 700.75 204.53 639.25 204.53" fill="none" stroke-width="6"/><use xlink:href="#urLg-zR.8UiA_pad-14" x="650.31" y="305.79"/><path d="M 605.04 345.98 605.04 405.04 734.96 405.04 734.96 345.98 605.04 345.98 M 559.53 375.47 500.47 375.47 500.47 245.55 559.53 245.55 559.53 375.47 M 459.96 350.98 459.96 410.04 330.04 410.04 330.04 350.98 459.96 350.98 M 459.96 315.04 459.96 255.98 330.04 255.98 330.04 315.04 459.96 315.04 M 530.47 195.47 589.53 195.47 589.53 65.55 530.47 65.55 530.47 195.47 M 770.47 245.47 770.47 115.55 829.53 115.55 829.53 245.47 770.47 245.47 M 770.47 270.55 829.53 270.55 829.53 400.47 770.47 400.47 770.47 270.55 M 880.47 270.55 939.53 270.55 939.53 400.47 880.47 400.47 880.47 270.55" fill="none" stroke-width="2.36"/></g><g id="pcb-stackup_top_sm"><use xlink:href="#Qforv254-ovL_pad-10" x="624.72" y="223.11"/><use xlink:href="#Qforv254-ovL_pad-10" x="624.72" y="260.51"/><use xlink:href="#Qforv254-ovL_pad-10" x="624.72" y="297.91"/><use xlink:href="#Qforv254-ovL_pad-10" x="715.28" y="297.91"/><use xlink:href="#Qforv254-ovL_pad-10" x="715.28" y="260.51"/><use xlink:href="#Qforv254-ovL_pad-10" x="715.28" y="223.11"/><use xlink:href="#Qforv254-ovL_pad-11" x="800" y="219.88"/><use xlink:href="#Qforv254-ovL_pad-11" x="800" y="296.14"/><use xlink:href="#Qforv254-ovL_pad-11" x="910" y="296.14"/><use xlink:href="#Qforv254-ovL_pad-11" x="910" y="374.88"/><use xlink:href="#Qforv254-ovL_pad-11" x="800" y="374.88"/><use xlink:href="#Qforv254-ovL_pad-11" x="530" y="349.88"/><use xlink:href="#Qforv254-ovL_pad-11" x="530" y="271.14"/><use xlink:href="#Qforv254-ovL_pad-11" x="560" y="169.88"/><use xlink:href="#Qforv254-ovL_pad-11" x="560" y="91.14"/><use xlink:href="#Qforv254-ovL_pad-11" x="800" y="141.14"/><use xlink:href="#Qforv254-ovL_pad-12" x="434.37" y="285.51"/><use xlink:href="#Qforv254-ovL_pad-12" x="355.63" y="285.51"/><use xlink:href="#Qforv254-ovL_pad-12" x="355.63" y="380.51"/><use xlink:href="#Qforv254-ovL_pad-12" x="434.37" y="380.51"/><use xlink:href="#Qforv254-ovL_pad-12" x="630.63" y="375.51"/><use xlink:href="#Qforv254-ovL_pad-12" x="709.37" y="375.51"/><use xlink:href="#Qforv254-ovL_pad-13" x="910" y="175.51"/><use xlink:href="#Qforv254-ovL_pad-14" x="184.37" y="213.11"/><use xlink:href="#Qforv254-ovL_pad-14" x="184.37" y="287.91"/><use xlink:href="#Qforv254-ovL_pad-15" x="535" y="485.51"/><use xlink:href="#Qforv254-ovL_pad-15" x="815" y="490.51"/><use xlink:href="#Qforv254-ovL_pad-15" x="675" y="120.51"/><use xlink:href="#Qforv254-ovL_pad-16" x="707.4" y="442.2"/><use xlink:href="#Qforv254-ovL_pad-16" x="632.6" y="442.2"/><use xlink:href="#Qforv254-ovL_pad-16" x="670" y="528.82"/><use xlink:href="#Qforv254-ovL_pad-17" x="309.61" y="185.51"/><use xlink:href="#Qforv254-ovL_pad-17" x="470.39" y="135.51"/><use xlink:href="#Qforv254-ovL_pad-17" x="309.61" y="85.51"/><use xlink:href="#Qforv254-ovL_pad-18" x="250" y="150.51"/><use xlink:href="#Qforv254-ovL_pad-18" x="560" y="210.51"/><use xlink:href="#Qforv254-ovL_pad-18" x="580" y="260.51"/></g><g id="pcb-stackup_top_drl1"><use xlink:href="#sVaKaUHxHIp6_pad-1" x="250" y="150.51"/><use xlink:href="#sVaKaUHxHIp6_pad-1" x="560" y="210.51"/><use xlink:href="#sVaKaUHxHIp6_pad-1" x="580" y="260.51"/><use xlink:href="#sVaKaUHxHIp6_pad-2" x="184.37" y="287.91"/><use xlink:href="#sVaKaUHxHIp6_pad-2" x="184.37" y="213.11"/><use xlink:href="#sVaKaUHxHIp6_pad-3" x="535" y="485.51"/><use xlink:href="#sVaKaUHxHIp6_pad-3" x="815" y="490.51"/><use xlink:href="#sVaKaUHxHIp6_pad-3" x="910" y="175.51"/><use xlink:href="#sVaKaUHxHIp6_pad-3" x="675" y="120.51"/></g><clipPath id="pcb-stackup_top_out"><path d="M 10 10.51 10 580.51 1010 580.51 1010 10.51 10 10.51" fill="none" stroke-width="0"/></clipPath><mask id="pcb-stackup_top_mech-mask"><g fill="#000" stroke="#000"><rect x="10" y="10.51" width="1000" height="570" fill="#fff"/><use xlink:href="#pcb-stackup_top_drl1"/></g></mask><mask id="pcb-stackup_top_cf-mask"><g fill="#fff" stroke="#fff"><use xlink:href="#pcb-stackup_top_sm"/></g></mask><mask id="pcb-stackup_top_sm-mask"><g fill="#000" stroke="#000"><rect x="10" y="10.51" width="1000" height="570" fill="#fff"/><use xlink:href="#pcb-stackup_top_sm"/></g></mask></defs><g transform="translate(0,591.02) scale(1,-1)"><g mask="url(#pcb-stackup_top_mech-mask)" clip-path="url(#pcb-stackup_top_out)"><rect x="10" y="10.51" width="1000" height="570" fill="currentColor" class="pcb-stackup_fr4"/><use xlink:href="#pcb-stackup_top_cu" fill="currentColor" stroke="currentColor" class="pcb-stackup_cu"/><use xlink:href="#pcb-stackup_top_cu" fill="currentColor" stroke="currentColor" class="pcb-stackup_cf" mask="url(#pcb-stackup_top_cf-mask)"/><g mask="url(#pcb-stackup_top_sm-mask)"><rect x="10" y="10.51" width="1000" height="570" fill="currentColor" class="pcb-stackup_sm"/><use xlink:href="#pcb-stackup_top_ss" fill="currentColor" stroke="currentColor" class="pcb-stackup_ss"/></g></g></g></svg>