<svg id="pcb-stackup_bottom" version="1.1" xmlns:xlink="http://www.w3.org/1999/xlink" stroke-linecap="round" stroke-linejoin="round" stroke-width="0" fill-rule="evenodd" clip-rule="evenodd" viewBox="73 73 3354 979" width="3.354in" height="0.979in" xmlns="http://www.w3.org/2000/svg"><defs><style>.pcb-stackup_fr4 {color: #4D542C;}
.pcb-stackup_cu {color: lightgrey;}
.pcb-stackup_cf {color: goldenrod;}
.pcb-stackup_sm {color: #2E0051; opacity: 0.9;}
.pcb-stackup_ss {color: white;}
.pcb-stackup_sp {color: #000000; opacity: 0;}
.pcb-stackup_out {color: black;}</style><circle cx="0" cy="0" r="35" id="_Rw_3cPg7zBY_pad-11"/><polygon points="34.99993,14.49745 14.49745,34.99993 -14.49745,34.99993 -34.99993,14.49745 -34.99993,-14.49745 -14.49745,-34.99993 14.49745,-34.99993 34.99993,-14.49745" id="_Rw_3cPg7zBY_pad-12"/><circle cx="0" cy="0" r="55" id="_Rw_3cPg7zBY_pad-13"/><circle cx="0" cy="0" r="38" id="_Rw_3cPg7zBY_pad-14"/><circle cx="0" cy="0" r="33" id="_Rw_3cPg7zBY_pad-15"/><polygon points="32.99993,13.66902 13.66902,32.99993 -13.66902,32.99993 -32.99993,13.66902 -32.99993,-13.66902 -13.66902,-32.99993 13.66902,-32.99993 32.99993,-13.66902" id="_Rw_3cPg7zBY_pad-16"/><circle cx="0" cy="0" r="24" id="_Rw_3cPg7zBY_pad-17"/><circle cx="0" cy="0" r="37" id="_Rw_3cPg7zBY_pad-18"/><circle cx="0" cy="0" r="36" id="_Rw_3cPg7zBY_pad-19"/><circle cx="0" cy="0" r="35" id="_Rw_3cPg7zBY_pad-11"/><polygon points="34.99993,14.49745 14.49745,34.99993 -14.49745,34.99993 -34.99993,14.49745 -34.99993,-14.49745 -14.49745,-34.99993 14.49745,-34.99993 34.99993,-14.49745" id="_Rw_3cPg7zBY_pad-12"/><circle cx="0" cy="0" r="55" id="_Rw_3cPg7zBY_pad-13"/><circle cx="0" cy="0" r="38" id="_Rw_3cPg7zBY_pad-14"/><circle cx="0" cy="0" r="33" id="_Rw_3cPg7zBY_pad-15"/><polygon points="32.99993,13.66902 13.66902,32.99993 -13.66902,32.99993 -32.99993,13.66902 -32.99993,-13.66902 -13.66902,-32.99993 13.66902,-32.99993 32.99993,-13.66902" id="_Rw_3cPg7zBY_pad-16"/><circle cx="0" cy="0" r="24" id="_Rw_3cPg7zBY_pad-17"/><circle cx="0" cy="0" r="37" id="_Rw_3cPg7zBY_pad-18"/><circle cx="0" cy="0" r="36" id="_Rw_3cPg7zBY_pad-19"/><circle cx="0" cy="0" r="38" id="vH3lB8Cx77nS_pad-11"/><polygon points="37.99992,15.74008 15.74008,37.99992 -15.74008,37.99992 -37.99992,15.74008 -37.99992,-15.74008 -15.74008,-37.99992 15.74008,-37.99992 37.99992,-15.74008" id="vH3lB8Cx77nS_pad-12"/><circle cx="0" cy="0" r="58" id="vH3lB8Cx77nS_pad-13"/><circle cx="0" cy="0" r="41" id="vH3lB8Cx77nS_pad-14"/><circle cx="0" cy="0" r="36" id="vH3lB8Cx77nS_pad-15"/><polygon points="35.99993,14.91166 14.91166,35.99993 -14.91166,35.99993 -35.99993,14.91166 -35.99993,-14.91166 -14.91166,-35.99993 14.91166,-35.99993 35.99993,-14.91166" id="vH3lB8Cx77nS_pad-16"/><circle cx="0" cy="0" r="27" id="vH3lB8Cx77nS_pad-17"/><circle cx="0" cy="0" r="40" id="vH3lB8Cx77nS_pad-18"/><circle cx="0" cy="0" r="39" id="vH3lB8Cx77nS_pad-19"/><circle cx="0" cy="0" r="35" id="_Rw_3cPg7zBY_pad-11"/><polygon points="34.99993,14.49745 14.49745,34.99993 -14.49745,34.99993 -34.99993,14.49745 -34.99993,-14.49745 -14.49745,-34.99993 14.49745,-34.99993 34.99993,-14.49745" id="_Rw_3cPg7zBY_pad-12"/><circle cx="0" cy="0" r="55" id="_Rw_3cPg7zBY_pad-13"/><circle cx="0" cy="0" r="38" id="_Rw_3cPg7zBY_pad-14"/><circle cx="0" cy="0" r="33" id="_Rw_3cPg7zBY_pad-15"/><polygon points="32.99993,13.66902 13.66902,32.99993 -13.66902,32.99993 -32.99993,13.66902 -32.99993,-13.66902 -13.66902,-32.99993 13.66902,-32.99993 32.99993,-13.66902" id="_Rw_3cPg7zBY_pad-16"/><circle cx="0" cy="0" r="24" id="_Rw_3cPg7zBY_pad-17"/><circle cx="0" cy="0" r="37" id="_Rw_3cPg7zBY_pad-18"/><circle cx="0" cy="0" r="36" id="_Rw_3cPg7zBY_pad-19"/><circle cx="0" cy="0" r="35" id="_Rw_3cPg7zBY_pad-11"/><polygon points="34.99993,14.49745 14.49745,34.99993 -14.49745,34.99993 -34.99993,14.49745 -34.99993,-14.49745 -14.49745,-34.99993 14.49745,-34.99993 34.99993,-14.49745" id="_Rw_3cPg7zBY_pad-12"/><circle cx="0" cy="0" r="55" id="_Rw_3cPg7zBY_pad-13"/><circle cx="0" cy="0" r="38" id="_Rw_3cPg7zBY_pad-14"/><circle cx="0" cy="0" r="33" id="_Rw_3cPg7zBY_pad-15"/><polygon points="32.99993,13.66902 13.66902,32.99993 -13.66902,32.99993 -32.99993,13.66902 -32.99993,-13.66902 -13.66902,-32.99993 13.66902,-32.99993 32.99993,-13.66902" id="_Rw_3cPg7zBY_pad-16"/><circle cx="0" cy="0" r="24" id="_Rw_3cPg7zBY_pad-17"/><circle cx="0" cy="0" r="37" id="_Rw_3cPg7zBY_pad-18"/><circle cx="0" cy="0" r="36" id="_Rw_3cPg7zBY_pad-19"/><circle cx="0" cy="0" r="38" id="vH3lB8Cx77nS_pad-11"/><polygon points="37.99992,15.74008 15.74008,37.99992 -15.74008,37.99992 -37.99992,15.74008 -37.99992,-15.74008 -15.74008,-37.99992 15.74008,-37.99992 37.99992,-15.74008" id="vH3lB8Cx77nS_pad-12"/><circle cx="0" cy="0" r="58" id="vH3lB8Cx77nS_pad-13"/><circle cx="0" cy="0" r="41" id="vH3lB8Cx77nS_pad-14"/><circle cx="0" cy="0" r="36" id="vH3lB8Cx77nS_pad-15"/><polygon points="35.99993,14.91166 14.91166,35.99993 -14.91166,35.99993 -35.99993,14.91166 -35.99993,-14.91166 -14.91166,-35.99993 14.91166,-35.99993 35.99993,-14.91166" id="vH3lB8Cx77nS_pad-16"/><circle cx="0" cy="0" r="27" id="vH3lB8Cx77nS_pad-17"/><circle cx="0" cy="0" r="40" id="vH3lB8Cx77nS_pad-18"/><circle cx="0" cy="0" r="39" id="vH3lB8Cx77nS_pad-19"/><circle cx="0" cy="0" r="16" id="Gxw_BJCi3jKJ_pad-1"/><circle cx="0" cy="0" r="19" id="Gxw_BJCi3jKJ_pad-2"/><circle cx="0" cy="0" r="20" id="Gxw_BJCi3jKJ_pad-3"/><circle cx="0" cy="0" r="22" id="Gxw_BJCi3jKJ_pad-4"/><circle cx="0" cy="0" r="26" id="Gxw_BJCi3jKJ_pad-5"/><g id="pcb-stackup_bottom_cu"><path d="M 2700 195 2700 255 M 2800 255 2800 195 M 2900 195 2900 255" fill="none" stroke-width="60"/><use xlink:href="#_Rw_3cPg7zBY_pad-11" x="2750" y="525"/><use xlink:href="#_Rw_3cPg7zBY_pad-11" x="2750" y="775"/><use xlink:href="#_Rw_3cPg7zBY_pad-12" x="2650" y="775"/><use xlink:href="#_Rw_3cPg7zBY_pad-12" x="2925" y="875"/><use xlink:href="#_Rw_3cPg7zBY_pad-12" x="2925" y="975"/><use xlink:href="#_Rw_3cPg7zBY_pad-12" x="2850" y="525"/><use xlink:href="#_Rw_3cPg7zBY_pad-13" x="3039.96" y="603.74"/><use xlink:href="#_Rw_3cPg7zBY_pad-13" x="3225" y="485.63"/><use xlink:href="#_Rw_3cPg7zBY_pad-13" x="3225" y="721.85"/><use xlink:href="#_Rw_3cPg7zBY_pad-14" x="2525" y="700"/><use xlink:href="#_Rw_3cPg7zBY_pad-14" x="2525" y="300"/><use xlink:href="#_Rw_3cPg7zBY_pad-15" x="1975" y="525"/><use xlink:href="#_Rw_3cPg7zBY_pad-15" x="1875" y="525"/><use xlink:href="#_Rw_3cPg7zBY_pad-15" x="1775" y="525"/><use xlink:href="#_Rw_3cPg7zBY_pad-15" x="1675" y="525"/><use xlink:href="#_Rw_3cPg7zBY_pad-15" x="1575" y="525"/><use xlink:href="#_Rw_3cPg7zBY_pad-15" x="1475" y="525"/><use xlink:href="#_Rw_3cPg7zBY_pad-15" x="1375" y="525"/><use xlink:href="#_Rw_3cPg7zBY_pad-15" x="1275" y="525"/><use xlink:href="#_Rw_3cPg7zBY_pad-15" x="1175" y="525"/><use xlink:href="#_Rw_3cPg7zBY_pad-15" x="1075" y="525"/><use xlink:href="#_Rw_3cPg7zBY_pad-15" x="975" y="525"/><use xlink:href="#_Rw_3cPg7zBY_pad-15" x="875" y="525"/><use xlink:href="#_Rw_3cPg7zBY_pad-15" x="775" y="525"/><use xlink:href="#_Rw_3cPg7zBY_pad-15" x="675" y="525"/><use xlink:href="#_Rw_3cPg7zBY_pad-15" x="675" y="825"/><use xlink:href="#_Rw_3cPg7zBY_pad-15" x="775" y="825"/><use xlink:href="#_Rw_3cPg7zBY_pad-15" x="875" y="825"/><use xlink:href="#_Rw_3cPg7zBY_pad-15" x="975" y="825"/><use xlink:href="#_Rw_3cPg7zBY_pad-15" x="1075" y="825"/><use xlink:href="#_Rw_3cPg7zBY_pad-15" x="1175" y="825"/><use xlink:href="#_Rw_3cPg7zBY_pad-15" x="1275" y="825"/><use xlink:href="#_Rw_3cPg7zBY_pad-15" x="1375" y="825"/><use xlink:href="#_Rw_3cPg7zBY_pad-15" x="1475" y="825"/><use xlink:href="#_Rw_3cPg7zBY_pad-15" x="1575" y="825"/><use xlink:href="#_Rw_3cPg7zBY_pad-15" x="1675" y="825"/><use xlink:href="#_Rw_3cPg7zBY_pad-15" x="1775" y="825"/><use xlink:href="#_Rw_3cPg7zBY_pad-15" x="1875" y="825"/><use xlink:href="#_Rw_3cPg7zBY_pad-15" x="1975" y="825"/><use xlink:href="#_Rw_3cPg7zBY_pad-16" x="2175" y="725"/><use xlink:href="#_Rw_3cPg7zBY_pad-16" x="2350" y="725"/><use xlink:href="#_Rw_3cPg7zBY_pad-16" x="2375" y="900"/><use xlink:href="#_Rw_3cPg7zBY_pad-16" x="2475" y="900"/><use xlink:href="#_Rw_3cPg7zBY_pad-16" x="2650" y="975"/><use xlink:href="#_Rw_3cPg7zBY_pad-16" x="2750" y="975"/><use xlink:href="#_Rw_3cPg7zBY_pad-16" x="2350" y="425"/><use xlink:href="#_Rw_3cPg7zBY_pad-16" x="2175" y="425"/><use xlink:href="#_Rw_3cPg7zBY_pad-16" x="1900" y="400"/><use xlink:href="#_Rw_3cPg7zBY_pad-16" x="1900" y="300"/><use xlink:href="#_Rw_3cPg7zBY_pad-16" x="1700" y="175"/><use xlink:href="#_Rw_3cPg7zBY_pad-16" x="1600" y="175"/><use xlink:href="#_Rw_3cPg7zBY_pad-16" x="2275" y="225"/><use xlink:href="#_Rw_3cPg7zBY_pad-16" x="2375" y="225"/><use xlink:href="#_Rw_3cPg7zBY_pad-16" x="500" y="550"/><use xlink:href="#_Rw_3cPg7zBY_pad-16" x="500" y="850"/><use xlink:href="#_Rw_3cPg7zBY_pad-16" x="375" y="900"/><use xlink:href="#_Rw_3cPg7zBY_pad-16" x="275" y="900"/><use xlink:href="#_Rw_3cPg7zBY_pad-17" x="1430" y="350"/><use xlink:href="#_Rw_3cPg7zBY_pad-17" x="1620" y="350"/><use xlink:href="#_Rw_3cPg7zBY_pad-18" x="1475" y="175"/><use xlink:href="#_Rw_3cPg7zBY_pad-18" x="1375" y="175"/><use xlink:href="#_Rw_3cPg7zBY_pad-18" x="1275" y="175"/><use xlink:href="#_Rw_3cPg7zBY_pad-18" x="1175" y="175"/><use xlink:href="#_Rw_3cPg7zBY_pad-18" x="1075" y="175"/><use xlink:href="#_Rw_3cPg7zBY_pad-18" x="975" y="175"/><use xlink:href="#_Rw_3cPg7zBY_pad-18" x="875" y="175"/><use xlink:href="#_Rw_3cPg7zBY_pad-18" x="775" y="175"/><use xlink:href="#_Rw_3cPg7zBY_pad-18" x="675" y="175"/><use xlink:href="#_Rw_3cPg7zBY_pad-18" x="553" y="236"/><use xlink:href="#_Rw_3cPg7zBY_pad-18" x="297" y="236"/><use xlink:href="#_Rw_3cPg7zBY_pad-18" x="297" y="414"/><use xlink:href="#_Rw_3cPg7zBY_pad-18" x="553" y="414"/><use xlink:href="#_Rw_3cPg7zBY_pad-18" x="675" y="950"/><use xlink:href="#_Rw_3cPg7zBY_pad-18" x="775" y="950"/><use xlink:href="#_Rw_3cPg7zBY_pad-18" x="875" y="950"/><use xlink:href="#_Rw_3cPg7zBY_pad-18" x="975" y="950"/><use xlink:href="#_Rw_3cPg7zBY_pad-18" x="1075" y="950"/><use xlink:href="#_Rw_3cPg7zBY_pad-18" x="1175" y="950"/><use xlink:href="#_Rw_3cPg7zBY_pad-18" x="1275" y="950"/><use xlink:href="#_Rw_3cPg7zBY_pad-18" x="1375" y="950"/><use xlink:href="#_Rw_3cPg7zBY_pad-18" x="1475" y="950"/><use xlink:href="#_Rw_3cPg7zBY_pad-18" x="1575" y="950"/><use xlink:href="#_Rw_3cPg7zBY_pad-18" x="1675" y="950"/><use xlink:href="#_Rw_3cPg7zBY_pad-18" x="1775" y="950"/><use xlink:href="#_Rw_3cPg7zBY_pad-18" x="1875" y="950"/><use xlink:href="#_Rw_3cPg7zBY_pad-18" x="1975" y="950"/><use xlink:href="#_Rw_3cPg7zBY_pad-18" x="2075" y="950"/><use xlink:href="#_Rw_3cPg7zBY_pad-18" x="2175" y="950"/><use xlink:href="#_Rw_3cPg7zBY_pad-19" x="150" y="675"/><use xlink:href="#_Rw_3cPg7zBY_pad-19" x="150" y="575"/><use xlink:href="#_Rw_3cPg7zBY_pad-19" x="150" y="475"/><use xlink:href="#_Rw_3cPg7zBY_pad-19" x="150" y="375"/><use xlink:href="#_Rw_3cPg7zBY_pad-19" x="150" y="275"/><use xlink:href="#_Rw_3cPg7zBY_pad-19" x="150" y="175"/><use xlink:href="#_Rw_3cPg7zBY_pad-19" x="1800" y="175"/><use xlink:href="#_Rw_3cPg7zBY_pad-19" x="1900" y="175"/><use xlink:href="#_Rw_3cPg7zBY_pad-19" x="2000" y="175"/><use xlink:href="#_Rw_3cPg7zBY_pad-19" x="2100" y="175"/><path d="M 81 81 81 1044 3419 1044 3419 81 81 81 M 81 81.97 3419 81.97 M 3419 97.96 81 97.96 M 81 113.94 3419 113.94 M 3419 129.93 2121.84 129.93 M 2128.32 132.61 2142.39 146.68 2150 165.05 2150 184.95 2142.39 203.32 2128.32 217.39 2109.95 225 2090.05 225 2071.68 217.39 2057.61 203.32 2050 184.95 2050 165.05 2057.61 146.68 2071.68 132.61 2090.05 125 2109.95 125 2128.32 132.61 M 2141.62 145.91 3419 145.91 M 3419 161.9 2929.12 161.9 M 2924.92 157.7 2937.3 170.08 2944 186.25 2944 263.75 2937.3 279.92 2924.92 292.3 2908.75 299 2891.25 299 2875.08 292.3 2862.7 279.92 2856 263.75 2856 186.25 2862.7 170.08 2875.08 157.7 2891.25 151 2908.75 151 2924.92 157.7 M 2940.53 177.88 3419 177.88 M 3419 193.87 2944 193.87 M 2944 209.85 3419 209.85 M 3419 225.84 2944 225.84 M 2944 241.82 3419 241.82 M 3419 257.81 2944 257.81 M 2939.84 273.79 3419 273.79 M 3419 289.78 2927.45 289.78 M 2872.55 289.78 2833.11 289.78 M 2831.27 291.61 2825.16 296.05 2818.43 299.48 2811.24 301.82 2803.78 303 2802 303 2802 227 2798 227 2798 303 2796.22 303 2788.76 301.82 2781.57 299.48 2774.84 296.05 2768.73 291.61 2763.39 286.27 2758.95 280.16 2755.52 273.43 2753.18 266.24 2752 258.78 2752 227 2798 227 2798 223 2752 223 2752 191.22 2753.18 183.76 2755.52 176.57 2758.95 169.84 2763.39 163.73 2768.73 158.39 2774.84 153.95 2781.57 150.52 2788.76 148.18 2796.22 147 2798 147 2798 223 2802 223 2802 227 2848 227 2848 258.78 2846.82 266.24 2844.48 273.43 2841.05 280.16 2836.61 286.27 2831.27 291.61 M 2844.3 273.79 2860.16 273.79 M 2856 257.81 2848 257.81 M 2848 241.82 2856 241.82 M 2856 225.84 2802 225.84 M 2802 223 2848 223 2848 191.22 2846.82 183.76 2844.48 176.57 2841.05 169.84 2836.61 163.73 2831.27 158.39 2825.16 153.95 2818.43 150.52 2811.24 148.18 2803.78 147 2802 147 2802 223 M 2798 225.84 2744 225.84 M 2744 209.85 2752 209.85 M 2798 209.85 2802 209.85 M 2802 193.87 2798 193.87 M 2798 177.88 2802 177.88 M 2755.09 177.88 2740.53 177.88 M 2737.3 170.08 2744 186.25 2744 263.75 2737.3 279.92 2724.92 292.3 2722 293.51 2722 465.89 2734.5 478.38 2740.25 476 2759.75 476 2777.76 483.46 2791.54 497.24 2797 510.43 2797 503.05 2828.05 472 2850 472 2871.95 472 2903 503.05 2903 525 2903 546.95 2871.95 578 2850 578 2850 525 2903 525 2850 525 2850 525 2850 525 2850 472 2850 525 2850 525 2850 578 2834.11 578 2872 615.89 2872 859.11 2859.11 872 2809.11 922 2734.11 922 2732.11 924 2750 924 2771.12 924 2801 953.88 2801 975 2801 996.12 2771.12 1026 2750 1026 2750 975 2750 975 2801 975 2750 975 2750 975 2750 975 2699 975 2699 996.12 2728.88 1026 2750 1026 2750 975 2750 924 2750 975 2750 975 2699 975 2699 957.11 2697 959.11 2697 994.47 2669.47 1022 2630.53 1022 2603 994.47 2603 955.53 2630.53 928 2665.89 928 2703 890.89 2715.89 878 2790.89 878 2828 840.89 2828 634.11 2765.5 571.62 2759.75 574 2740.25 574 2722.24 566.54 2708.46 552.76 2701 534.75 2701 515.25 2703.38 509.5 2690.89 497 2690.89 497 2678 484.11 2678 293.51 2675.08 292.3 2662.7 279.92 2656 263.75 2656 186.25 2662.7 170.08 2675.08 157.7 2691.25 151 2708.75 151 2724.92 157.7 2737.3 170.08 M 2729.12 161.9 2765.22 161.9 M 2798 161.9 2802 161.9 M 2834.78 161.9 2870.88 161.9 M 2859.47 177.88 2844.91 177.88 M 2848 193.87 2856 193.87 M 2856 209.85 2848 209.85 M 2802 241.82 2798 241.82 M 2798 257.81 2802 257.81 M 2752 257.81 2744 257.81 M 2744 241.82 2752 241.82 M 2700 225 2700 475 2750 525 2850 625 2850 850 2800 900 2725 900 2650 975 M 2697 977.14 2699 977.14 M 2699 993.12 2697 993.12 M 2682.36 1009.11 2711.98 1009.11 M 2727.97 1025.09 81 1025.09 M 81 1009.11 2617.64 1009.11 M 2603 993.12 2204 993.12 M 2203.89 993.24 2185.14 1001 2164.86 1001 2146.11 993.24 2131.76 978.89 2127.1 967.63 2125.97 971.11 2122.04 978.83 2116.95 985.83 2110.83 991.95 2103.83 997.04 2096.11 1000.97 2087.88 1003.65 2079.33 1005 2077 1005 2077 952 2073 952 2073 1005 2070.67 1005 2062.12 1003.65 2053.89 1000.97 2046.17 997.04 2039.17 991.95 2033.05 985.83 2027.96 978.83 2024.03 971.11 2022.9 967.63 2018.24 978.89 2003.89 993.24 1985.14 1001 1964.86 1001 1946.11 993.24 1931.76 978.89 1925 962.56 1918.24 978.89 1903.89 993.24 1885.14 1001 1864.86 1001 1846.11 993.24 1831.76 978.89 1825 962.56 1818.24 978.89 1803.89 993.24 1785.14 1001 1764.86 1001 1746.11 993.24 1731.76 978.89 1725 962.56 1718.24 978.89 1703.89 993.24 1685.14 1001 1664.86 1001 1646.11 993.24 1631.76 978.89 1625 962.56 1618.24 978.89 1603.89 993.24 1585.14 1001 1564.86 1001 1546.11 993.24 1531.76 978.89 1525 962.56 1518.24 978.89 1503.89 993.24 1485.14 1001 1464.86 1001 1446.11 993.24 1431.76 978.89 1425 962.56 1418.24 978.89 1403.89 993.24 1385.14 1001 1364.86 1001 1346.11 993.24 1331.76 978.89 1327.1 967.63 1325.97 971.11 1322.04 978.83 1316.95 985.83 1310.83 991.95 1303.83 997.04 1296.11 1000.97 1287.88 1003.65 1279.33 1005 1277 1005 1277 952 1273 952 1273 1005 1270.67 1005 1262.12 1003.65 1253.89 1000.97 1246.17 997.04 1239.17 991.95 1233.05 985.83 1227.96 978.83 1224.03 971.11 1222.9 967.63 1218.24 978.89 1203.89 993.24 1185.14 1001 1164.86 1001 1146.11 993.24 1131.76 978.89 1125 962.56 1118.24 978.89 1103.89 993.24 1085.14 1001 1064.86 1001 1046.11 993.24 1031.76 978.89 1025 962.56 1018.24 978.89 1003.89 993.24 985.14 1001 964.86 1001 946.11 993.24 931.76 978.89 925 962.56 918.24 978.89 903.89 993.24 885.14 1001 864.86 1001 846.11 993.24 831.76 978.89 825 962.56 818.24 978.89 803.89 993.24 785.14 1001 764.86 1001 746.11 993.24 731.76 978.89 725 962.56 718.24 978.89 703.89 993.24 685.14 1001 664.86 1001 646.11 993.24 631.76 978.89 624 960.14 624 939.86 631.76 921.11 646.11 906.76 664.86 899 685.14 899 703.89 906.76 718.24 921.11 725 937.44 731.76 921.11 746.11 906.76 764.86 899 785.14 899 803.89 906.76 818.24 921.11 825 937.44 831.76 921.11 846.11 906.76 864.86 899 885.14 899 903.89 906.76 918.24 921.11 925 937.44 931.76 921.11 946.11 906.76 964.86 899 985.14 899 1003.89 906.76 1018.24 921.11 1025 937.44 1031.76 921.11 1046.11 906.76 1064.86 899 1085.14 899 1103.89 906.76 1118.24 921.11 1125 937.44 1131.76 921.11 1146.11 906.76 1164.86 899 1185.14 899 1203.89 906.76 1218.24 921.11 1222.9 932.37 1224.03 928.89 1227.96 921.17 1233.05 914.17 1239.17 908.05 1246.17 902.96 1253.89 899.03 1262.12 896.35 1270.67 895 1273 895 1273 948 1277 948 1277 895 1279.33 895 1287.88 896.35 1296.11 899.03 1303.83 902.96 1310.83 908.05 1316.95 914.17 1322.04 921.17 1325.97 928.89 1327.1 932.37 1331.76 921.11 1346.11 906.76 1364.86 899 1385.14 899 1403.89 906.76 1418.24 921.11 1425 937.44 1431.76 921.11 1446.11 906.76 1464.86 899 1485.14 899 1503.89 906.76 1518.24 921.11 1525 937.44 1531.76 921.11 1546.11 906.76 1564.86 899 1585.14 899 1603.89 906.76 1618.24 921.11 1625 937.44 1631.76 921.11 1646.11 906.76 1664.86 899 1685.14 899 1703.89 906.76 1718.24 921.11 1725 937.44 1731.76 921.11 1746.11 906.76 1764.86 899 1785.14 899 1803.89 906.76 1818.24 921.11 1825 937.44 1831.76 921.11 1846.11 906.76 1864.86 899 1885.14 899 1903.89 906.76 1918.24 921.11 1925 937.44 1931.76 921.11 1946.11 906.76 1964.86 899 1985.14 899 2003.89 906.76 2018.24 921.11 2022.9 932.37 2024.03 928.89 2027.96 921.17 2033.05 914.17 2039.17 908.05 2046.17 902.96 2053.89 899.03 2062.12 896.35 2070.67 895 2073 895 2073 948 2077 948 2077 895 2079.33 895 2087.88 896.35 2096.11 899.03 2103.83 902.96 2110.83 908.05 2116.95 914.17 2122.04 921.17 2125.97 928.89 2127.1 932.37 2131.76 921.11 2146.11 906.76 2164.86 899 2185.14 899 2203.89 906.76 2218.24 921.11 2226 939.86 2226 960.14 2218.24 978.89 2203.89 993.24 M 2218.96 977.14 2603 977.14 M 2603 961.15 2225.58 961.15 M 2226 945.17 2348.04 945.17 M 2353.88 951 2324 921.12 2324 900 2375 900 2426 900 2426 921.12 2396.12 951 2375 951 2375 900 2375 900 2375 900 2426 900 2426 878.88 2396.12 849 2375 849 2375 900 2375 900 2375 900 2375 951 2353.88 951 M 2375 945.17 2375 945.17 M 2375 929.18 2375 929.18 M 2401.96 945.17 2453.7 945.17 M 2455.53 947 2428 919.47 2428 880.53 2455.53 853 2494.47 853 2522 880.53 2522 919.47 2494.47 947 2455.53 947 M 2437.71 929.18 2417.94 929.18 M 2426 913.2 2428 913.2 M 2428 897.21 2426 897.21 M 2375 897.21 2375 897.21 M 2375 900 2375 849 2353.88 849 2324 878.88 2324 900 2375 900 M 2375 913.2 2375 913.2 M 2324 913.2 2210.32 913.2 M 2221.58 929.18 2332.06 929.18 M 2324 897.21 2090.52 897.21 M 2077 897.21 2073 897.21 M 2059.48 897.21 1290.52 897.21 M 1277 897.21 1273 897.21 M 1259.48 897.21 422 897.21 M 422 913.2 639.68 913.2 M 628.42 929.18 412.29 929.18 M 422 919.47 394.47 947 355.53 947 328 919.47 328 880.53 355.53 853 394.47 853 422 880.53 422 919.47 M 396.3 945.17 624 945.17 M 624.42 961.15 81 961.15 M 81 945.17 253.7 945.17 M 255.53 947 228 919.47 228 880.53 255.53 853 294.47 853 322 880.53 322 919.47 294.47 947 255.53 947 M 237.71 929.18 81 929.18 M 81 913.2 228 913.2 M 228 897.21 81 897.21 M 81 881.23 228 881.23 M 243.29 865.24 81 865.24 M 81 849.26 453 849.26 M 453 833.27 81 833.27 M 81 817.29 466.25 817.29 M 453 830.53 480.53 803 519.47 803 547 830.53 547 869.47 519.47 897 480.53 897 453 869.47 453 830.53 M 533.75 817.29 628 817.29 M 628 815.65 635.16 798.38 648.38 785.16 665.65 778 684.35 778 701.62 785.16 714.84 798.38 722 815.65 722 834.35 714.84 851.62 701.62 864.84 684.35 872 665.65 872 648.38 864.84 635.16 851.62 628 834.35 628 815.65 M 633.94 801.3 81 801.3 M 81 785.32 648.22 785.32 M 701.78 785.32 748.22 785.32 M 748.38 785.16 765.65 778 784.35 778 801.62 785.16 814.84 798.38 822 815.65 822 834.35 814.84 851.62 801.62 864.84 784.35 872 765.65 872 748.38 864.84 735.16 851.62 728 834.35 728 815.65 735.16 798.38 748.38 785.16 M 733.94 801.3 716.06 801.3 M 722 817.29 728 817.29 M 728 833.27 722 833.27 M 715.83 849.26 734.17 849.26 M 749.33 865.24 700.67 865.24 M 649.33 865.24 547 865.24 M 535.24 881.23 2324 881.23 M 2337.63 865.24 2000.67 865.24 M 2001.62 864.84 1984.35 872 1965.65 872 1948.38 864.84 1935.16 851.62 1928 834.35 1928 815.65 1935.16 798.38 1948.38 785.16 1965.65 778 1984.35 778 2001.62 785.16 2014.84 798.38 2022 815.65 2022 834.35 2014.84 851.62 2001.62 864.84 M 1949.33 865.24 1900.67 865.24 M 1901.62 864.84 1884.35 872 1865.65 872 1848.38 864.84 1835.16 851.62 1828 834.35 1828 815.65 1835.16 798.38 1848.38 785.16 1865.65 778 1884.35 778 1901.62 785.16 1914.84 798.38 1922 815.65 1922 834.35 1914.84 851.62 1901.62 864.84 M 1849.33 865.24 1800.67 865.24 M 1801.62 864.84 1784.35 872 1765.65 872 1748.38 864.84 1735.16 851.62 1728 834.35 1728 815.65 1735.16 798.38 1748.38 785.16 1765.65 778 1784.35 778 1801.62 785.16 1814.84 798.38 1822 815.65 1822 834.35 1814.84 851.62 1801.62 864.84 M 1749.33 865.24 1700.67 865.24 M 1701.62 864.84 1684.35 872 1665.65 872 1648.38 864.84 1635.16 851.62 1628 834.35 1628 815.65 1635.16 798.38 1648.38 785.16 1665.65 778 1684.35 778 1701.62 785.16 1714.84 798.38 1722 815.65 1722 834.35 1714.84 851.62 1701.62 864.84 M 1715.83 849.26 1734.17 849.26 M 1728 833.27 1722 833.27 M 1722 817.29 1728 817.29 M 1733.94 801.3 1716.06 801.3 M 1701.78 785.32 1748.22 785.32 M 1801.78 785.32 1848.22 785.32 M 1901.78 785.32 1948.22 785.32 M 2001.78 785.32 2597 785.32 M 2597 775 2650 775 2650 775 2650 828 2671.95 828 2703 796.95 2703 789.57 2708.46 802.76 2722.24 816.54 2740.25 824 2759.75 824 2777.76 816.54 2791.54 802.76 2799 784.75 2799 765.25 2791.54 747.24 2777.76 733.46 2759.75 726 2740.25 726 2722.24 733.46 2708.46 747.24 2703 760.43 2703 753.05 2671.95 722 2650 722 2650 775 2650 828 2628.05 828 2597 796.95 2597 775 2597 753.05 2628.05 722 2650 722 2650 775 2650 775 2650 775 2597 775 M 2597 769.33 2372.14 769.33 M 2369.47 772 2330.53 772 2303 744.47 2303 705.53 2330.53 678 2369.47 678 2397 705.53 2397 744.47 2369.47 772 M 2327.86 769.33 2197.14 769.33 M 2194.47 772 2155.53 772 2128 744.47 2128 705.53 2155.53 678 2194.47 678 2222 705.53 2222 744.47 2194.47 772 M 2152.86 769.33 1661.78 769.33 M 1648.22 785.32 1645.8 785.32 M 1599.56 769.33 81 769.33 M 81 753.34 1615.54 753.34 M 1631.53 737.36 818.75 737.36 M 809.11 747 290.89 747 278 734.11 193.68 649.79 200 665.05 200 684.95 192.39 703.32 178.32 717.39 159.95 725 140.05 725 121.68 717.39 107.61 703.32 100 684.95 100 665.05 107.61 646.68 121.68 632.61 140.05 625 121.68 617.39 107.61 603.32 100 584.95 100 565.05 107.61 546.68 121.68 532.61 140.05 525 121.68 517.39 107.61 503.32 100 484.95 100 465.05 107.61 446.68 121.68 432.61 140.05 425 121.68 417.39 107.61 403.32 100 384.95 100 365.05 107.61 346.68 121.68 332.61 140.05 325 121.68 317.39 107.61 303.32 100 284.95 100 265.05 107.61 246.68 121.68 232.61 135.26 226.99 129.27 225.04 121.7 221.18 114.82 216.19 108.81 210.18 103.82 203.3 99.96 195.73 97.33 187.65 96 179.25 96 176.5 148.5 176.5 148.5 173.5 96 173.5 96 170.75 97.33 162.35 99.96 154.27 103.82 146.7 108.81 139.82 114.82 133.81 121.7 128.82 129.27 124.96 137.35 122.33 145.75 121 148.5 121 148.5 173.5 151.5 173.5 151.5 176.5 204 176.5 204 179.25 202.67 187.65 200.04 195.73 196.18 203.3 191.19 210.18 185.18 216.19 178.3 221.18 170.73 225.04 164.74 226.99 178.32 232.61 192.39 246.68 200 265.05 200 284.95 192.39 303.32 178.32 317.39 159.95 325 140.05 325 159.95 325 178.32 332.61 192.39 346.68 200 365.05 200 384.95 192.39 403.32 178.32 417.39 159.95 425 140.05 425 159.95 425 178.32 432.61 192.39 446.68 200 465.05 200 484.95 197.38 491.27 359.11 653 715.89 653 753 615.89 753 566.76 748.38 564.84 735.16 551.62 728 534.35 728 515.65 735.16 498.38 748.38 485.16 765.65 478 784.35 478 801.62 485.16 814.84 498.38 822 515.65 822 534.35 814.84 551.62 801.62 564.84 797 566.76 797 634.11 784.11 647 734.11 697 340.89 697 328 684.11 193.68 549.79 200 565.05 200 584.95 197.38 591.27 309.11 703 790.89 703 853 640.89 853 566.76 848.38 564.84 835.16 551.62 828 534.35 828 515.65 835.16 498.38 848.38 485.16 865.65 478 884.35 478 901.62 485.16 914.84 498.38 922 515.65 922 534.35 914.84 551.62 901.62 564.84 897 566.76 897 659.11 884.11 672 809.11 747 M 800 725 875 650 875 525 M 832.63 545.54 817.37 545.54 M 822 529.55 828 529.55 M 775 525 775 625 725 675 350 675 150 475 M 200 481.6 653 481.6 M 653 483.24 653 403.11 620.11 436 599.09 436 596.24 442.89 581.89 457.24 563.14 465 542.86 465 524.11 457.24 509.76 442.89 502 424.14 502 403.86 509.76 385.11 524.11 370.76 542.86 363 563.14 363 581.89 370.76 596.24 385.11 599.09 392 601.89 392 653 340.89 653 221.09 646.11 218.24 631.76 203.89 624 185.14 624 164.86 631.76 146.11 646.11 131.76 664.86 124 685.14 124 703.89 131.76 718.24 146.11 722.9 157.37 724.03 153.89 727.96 146.17 733.05 139.17 739.17 133.05 746.17 127.96 753.89 124.03 762.12 121.35 770.67 120 773 120 773 173 777 173 777 120 779.33 120 787.88 121.35 796.11 124.03 803.83 127.96 810.83 133.05 816.95 139.17 822.04 146.17 825.97 153.89 827.1 157.37 831.76 146.11 846.11 131.76 864.86 124 885.14 124 903.89 131.76 918.24 146.11 925 162.44 931.76 146.11 946.11 131.76 964.86 124 985.14 124 1003.89 131.76 1018.24 146.11 1025 162.44 1031.76 146.11 1046.11 131.76 1064.86 124 1085.14 124 1103.89 131.76 1118.24 146.11 1125 162.44 1131.76 146.11 1146.11 131.76 1164.86 124 1185.14 124 1203.89 131.76 1218.24 146.11 1225 162.44 1231.76 146.11 1246.11 131.76 1264.86 124 1285.14 124 1303.89 131.76 1318.24 146.11 1325 162.44 1331.76 146.11 1346.11 131.76 1364.86 124 1385.14 124 1403.89 131.76 1418.24 146.11 1425 162.44 1431.76 146.11 1446.11 131.76 1464.86 124 1485.14 124 1503.89 131.76 1518.24 146.11 1526 164.86 1526 185.14 1518.24 203.89 1503.89 218.24 1485.14 226 1464.86 226 1446.11 218.24 1431.76 203.89 1425 187.56 1418.24 203.89 1403.89 218.24 1385.14 226 1364.86 226 1346.11 218.24 1331.76 203.89 1325 187.56 1318.24 203.89 1303.89 218.24 1285.14 226 1264.86 226 1246.11 218.24 1231.76 203.89 1225 187.56 1218.24 203.89 1203.89 218.24 1185.14 226 1164.86 226 1146.11 218.24 1131.76 203.89 1125 187.56 1118.24 203.89 1103.89 218.24 1085.14 226 1064.86 226 1046.11 218.24 1031.76 203.89 1025 187.56 1018.24 203.89 1003.89 218.24 985.14 226 964.86 226 951.64 220.52 1134.11 403 1234.11 403 1284.11 453 1297 465.89 1297 483.24 1301.62 485.16 1314.84 498.38 1322 515.65 1322 534.35 1314.84 551.62 1301.62 564.84 1284.35 572 1265.65 572 1248.38 564.84 1235.16 551.62 1228 534.35 1228 515.65 1235.16 498.38 1248.38 485.16 1252.38 483.5 1215.89 447 1115.89 447 1103 434.11 892.03 223.15 885.14 226 864.86 226 846.11 218.24 831.76 203.89 827.1 192.63 825.97 196.11 822.04 203.83 816.95 210.83 810.83 216.95 803.83 222.04 796.11 225.97 787.88 228.65 779.33 230 777 230 777 177 773 177 773 230 770.67 230 762.12 228.65 753.89 225.97 746.17 222.04 739.17 216.95 733.05 210.83 727.96 203.83 724.03 196.11 722.9 192.63 718.24 203.89 703.89 218.24 697 221.09 697 483.24 701.62 485.16 714.84 498.38 722 515.65 722 534.35 714.84 551.62 701.62 564.84 684.35 572 665.65 572 648.38 564.84 635.16 551.62 628 534.35 628 515.65 635.16 498.38 648.38 485.16 653 483.24 M 635.95 497.58 203.7 497.58 M 219.68 513.57 469.96 513.57 M 480.53 503 519.47 503 547 530.53 547 569.47 519.47 597 480.53 597 453 569.47 453 530.53 480.53 503 M 453.98 529.55 235.67 529.55 M 251.65 545.54 453 545.54 M 453 561.52 267.64 561.52 M 283.62 577.51 461.04 577.51 M 477.03 593.49 299.61 593.49 M 315.59 609.48 753 609.48 M 753 593.49 522.97 593.49 M 538.96 577.51 753 577.51 M 745.06 561.52 704.94 561.52 M 717.37 545.54 732.63 545.54 M 728 529.55 722 529.55 M 675 525 675 350 611 414 553 414 M 502 417.66 348 417.66 M 348 424.14 340.24 442.89 325.89 457.24 307.14 465 286.86 465 268.11 457.24 253.76 442.89 246 424.14 246 403.86 253.76 385.11 268.11 370.76 286.86 363 307.14 363 325.89 370.76 340.24 385.11 348 403.86 348 424.14 M 344.07 433.64 505.93 433.64 M 516.5 449.63 333.5 449.63 M 260.5 449.63 193.61 449.63 M 200 465.61 653 465.61 M 653 449.63 589.5 449.63 M 622.47 433.64 653 433.64 M 653 417.66 638.45 417.66 M 697 417.66 1086.55 417.66 M 1102.53 433.64 697 433.64 M 697 449.63 1218.52 449.63 M 1234.5 465.61 697 465.61 M 697 481.6 756.96 481.6 M 735.95 497.58 714.05 497.58 M 721.14 513.57 728.86 513.57 M 793.04 481.6 856.96 481.6 M 835.95 497.58 814.05 497.58 M 821.14 513.57 828.86 513.57 M 893.04 481.6 956.96 481.6 M 948.38 485.16 965.65 478 984.35 478 1001.62 485.16 1014.84 498.38 1022 515.65 1022 534.35 1014.84 551.62 1001.62 564.84 984.35 572 965.65 572 948.38 564.84 935.16 551.62 928 534.35 928 515.65 935.16 498.38 948.38 485.16 M 935.95 497.58 914.05 497.58 M 921.14 513.57 928.86 513.57 M 928 529.55 922 529.55 M 917.37 545.54 932.63 545.54 M 945.06 561.52 904.94 561.52 M 897 577.51 2166.38 577.51 M 2165.89 578 2303 440.89 2303 405.53 2330.53 378 2369.47 378 2397 405.53 2397 444.47 2369.47 472 2334.11 472 2184.11 622 1809.11 622 1620.08 811.03 1622 815.65 1622 834.35 1614.84 851.62 1601.62 864.84 1584.35 872 1565.65 872 1548.38 864.84 1535.16 851.62 1528 834.35 1528 815.65 1535.16 798.38 1548.38 785.16 1565.65 778 1584.35 778 1588.97 779.92 1778 590.89 1790.89 578 2165.89 578 M 2182.36 561.52 2004.94 561.52 M 2001.62 564.84 1984.35 572 1965.65 572 1948.38 564.84 1935.16 551.62 1928 534.35 1928 515.65 1935.16 498.38 1948.38 485.16 1965.65 478 1984.35 478 2001.62 485.16 2014.84 498.38 2022 515.65 2022 534.35 2014.84 551.62 2001.62 564.84 M 1945.06 561.52 1904.94 561.52 M 1901.62 564.84 1884.35 572 1865.65 572 1848.38 564.84 1835.16 551.62 1828 534.35 1828 515.65 1835.16 498.38 1848.38 485.16 1865.65 478 1884.35 478 1901.62 485.16 1914.84 498.38 1922 515.65 1922 534.35 1914.84 551.62 1901.62 564.84 M 1845.06 561.52 1804.94 561.52 M 1801.62 564.84 1784.35 572 1765.65 572 1748.38 564.84 1735.16 551.62 1728 534.35 1728 515.65 1735.16 498.38 1748.38 485.16 1753 483.24 1753 440.89 1803 390.89 1803 240.89 1825.21 218.68 1809.95 225 1797 225 1797 384.11 1784.11 397 1697.62 483.5 1701.62 485.16 1714.84 498.38 1722 515.65 1722 534.35 1714.84 551.62 1701.62 564.84 1684.35 572 1665.65 572 1648.38 564.84 1635.16 551.62 1628 534.35 1628 515.65 1635.16 498.38 1648.38 485.16 1653 483.24 1653 465.89 1753 365.89 1753 192.19 1751 187.36 1751 196.12 1721.12 226 1700 226 1700 175 1700 200 M 1700 193.87 1700 193.87 M 1700 177.88 1700 177.88 M 1700 175 1700 226 1678.88 226 1649 196.12 1649 175 1700 175 1700 175 1700 124 1721.12 124 1751 153.88 1751 162.64 1757.61 146.68 1771.68 132.61 1790.05 125 1809.95 125 1828.32 132.61 1842.39 146.68 1850 165.05 1857.61 146.68 1871.68 132.61 1890.05 125 1909.95 125 1928.32 132.61 1942.39 146.68 1950 165.05 1957.61 146.68 1971.68 132.61 1990.05 125 2009.95 125 2028.32 132.61 2042.39 146.68 2050 165.05 2050 184.95 2042.39 203.32 2028.32 217.39 2009.95 225 1990.05 225 1971.68 217.39 1957.61 203.32 1950 184.95 1950 165.05 1950 184.95 1942.39 203.32 1928.32 217.39 1909.95 225 1890.05 225 1883.73 222.38 1847 259.11 1847 409.11 1834.11 422 1797 459.11 1797 483.24 1801.62 485.16 1814.84 498.38 1822 515.65 1822 534.35 1814.84 551.62 1801.62 564.84 M 1745.06 561.52 1704.94 561.52 M 1717.37 545.54 1732.63 545.54 M 1728 529.55 1722 529.55 M 1675 525 1675 475 1775 375 1775 200 1800 175 M 1753 193.87 1751 193.87 M 1700 175 1700 175 1700 175 1700 124 1678.88 124 1649 153.88 1649 175 1700 175 M 1700 161.9 1700 161.9 M 1700 145.91 1700 145.91 M 1743.04 145.91 1758.38 145.91 M 1751.31 161.9 1751 161.9 M 1727.05 129.93 1778.16 129.93 M 1821.84 129.93 1878.16 129.93 M 1921.84 129.93 1978.16 129.93 M 2021.84 129.93 2078.16 129.93 M 2058.38 145.91 2041.62 145.91 M 2048.69 161.9 2051.31 161.9 M 2050 177.88 2050 177.88 M 2046.3 193.87 2053.7 193.87 M 2064.14 209.85 2035.86 209.85 M 1964.14 209.85 1935.86 209.85 M 1880.28 225.84 2228 225.84 M 2228 209.85 2135.86 209.85 M 2146.3 193.87 2239.67 193.87 M 2228 205.53 2255.53 178 2294.47 178 2322 205.53 2322 244.47 2294.47 272 2255.53 272 2228 244.47 2228 205.53 M 2310.33 193.87 2334.01 193.87 M 2324 203.88 2353.88 174 2375 174 2396.12 174 2426 203.88 2426 225 2426 246.12 2396.12 276 2375 276 2375 225 2426 225 2375 225 2375 225 2375 225 2375 174 2375 225 2375 225 2375 225 2324 225 2324 246.12 2353.88 276 2375 276 2375 225 2324 225 2324 203.88 M 2324 209.85 2322 209.85 M 2322 225.84 2324 225.84 M 2375 225.84 2375 225.84 M 2375 209.85 2375 209.85 M 2426 209.85 2656 209.85 M 2656 225.84 2426 225.84 M 2426 241.82 2656 241.82 M 2656 257.81 2556.35 257.81 M 2554.46 255.92 2569.08 270.54 2577 289.66 2577 310.34 2569.08 329.46 2554.46 344.08 2535.34 352 2514.66 352 2495.54 344.08 2480.92 329.46 2473 310.34 2473 289.66 2480.92 270.54 2495.54 255.92 2514.66 248 2535.34 248 2554.46 255.92 M 2570.43 273.79 2660.16 273.79 M 2672.55 289.78 2577 289.78 M 2577 305.76 2678 305.76 M 2722 305.76 3419 305.76 M 3419 321.75 2722 321.75 M 2722 337.73 3419 337.73 M 3419 353.72 2722 353.72 M 2722 369.7 3419 369.7 M 3419 385.69 2722 385.69 M 2722 401.67 3419 401.67 M 3419 417.66 3241.21 417.66 M 3238.72 416.63 3264.09 427.13 3283.5 446.54 3294 471.9 3294 499.35 3283.5 524.72 3264.09 544.13 3238.72 554.63 3211.27 554.63 3185.91 544.13 3166.5 524.72 3156 499.35 3156 471.9 3166.5 446.54 3185.91 427.13 3211.27 416.63 3238.72 416.63 M 3208.79 417.66 2722 417.66 M 2722 433.64 3179.41 433.64 M 3165.23 449.63 2722 449.63 M 2722 465.61 3158.61 465.61 M 3156 481.6 2881.55 481.6 M 2897.54 497.58 3156 497.58 M 3161.89 513.57 2903 513.57 M 2850 513.57 2850 513.57 M 2850 497.58 2850 497.58 M 2850 481.6 2850 481.6 M 2818.45 481.6 2773.26 481.6 M 2791.68 497.58 2802.46 497.58 M 2850 529.55 2850 529.55 M 2850 545.54 2850 545.54 M 2903 545.54 2995.89 545.54 M 2999.32 542.91 3007.6 538.13 3016.45 534.47 3025.69 531.99 3034.96 530.77 3034.96 598.74 2966.99 598.74 2968.21 589.47 2970.69 580.22 2974.35 571.38 2979.13 563.1 2984.96 555.5 2991.73 548.74 2999.32 542.91 M 3034.96 545.54 3044.96 545.54 M 3044.96 530.77 3054.23 531.99 3063.48 534.47 3072.32 538.13 3080.6 542.91 3088.2 548.74 3094.96 555.5 3100.79 563.1 3105.57 571.38 3109.23 580.22 3111.71 589.47 3112.93 598.74 3044.96 598.74 3044.96 530.77 M 3084.03 545.54 3189.33 545.54 M 3171.34 529.55 2903 529.55 M 2888.43 561.52 2980.34 561.52 M 2971.81 577.51 2872.44 577.51 M 2850 577.51 2850 577.51 M 2850 561.52 2850 561.52 M 2849.61 593.49 2967.68 593.49 M 2966.99 608.74 3034.96 608.74 3034.96 598.74 3044.96 598.74 3044.96 608.74 3034.96 608.74 3034.96 676.71 3025.69 675.49 3016.45 673.01 3007.6 669.35 2999.32 664.57 2991.73 658.74 2984.96 651.98 2979.13 644.38 2974.35 636.1 2970.69 627.26 2968.21 618.01 2966.99 608.74 M 2967.09 609.48 2865.59 609.48 M 2872 625.46 2970.21 625.46 M 2977.44 641.45 2872 641.45 M 2828 641.45 1789.66 641.45 M 1805.65 625.46 2819.35 625.46 M 2803.37 609.48 2196.63 609.48 M 2212.62 593.49 2787.38 593.49 M 2771.4 577.51 2228.6 577.51 M 2244.59 561.52 2717.23 561.52 M 2705.47 545.54 2260.57 545.54 M 2276.56 529.55 2701 529.55 M 2701.7 513.57 2292.54 513.57 M 2308.53 497.58 2691.47 497.58 M 2678 481.6 2324.51 481.6 M 2278.27 465.61 2200.85 465.61 M 2194.47 472 2155.53 472 2128 444.47 2128 405.53 2155.53 378 2194.47 378 2222 405.53 2222 444.47 2194.47 472 M 2216.84 449.63 2294.26 449.63 M 2303 433.64 2222 433.64 M 2222 417.66 2303 417.66 M 2350 425 2175 600 1800 600 1575 825 M 1622 817.29 1628 817.29 M 1629.81 801.3 1633.94 801.3 M 1628 833.27 1622 833.27 M 1615.83 849.26 1634.17 849.26 M 1649.33 865.24 1600.67 865.24 M 1549.33 865.24 1500.67 865.24 M 1501.62 864.84 1484.35 872 1465.65 872 1448.38 864.84 1435.16 851.62 1428 834.35 1428 815.65 1435.16 798.38 1448.38 785.16 1465.65 778 1484.35 778 1501.62 785.16 1514.84 798.38 1522 815.65 1522 834.35 1514.84 851.62 1501.62 864.84 M 1515.83 849.26 1534.17 849.26 M 1528 833.27 1522 833.27 M 1522 817.29 1528 817.29 M 1533.94 801.3 1516.06 801.3 M 1501.78 785.32 1548.22 785.32 M 1448.22 785.32 1401.78 785.32 M 1401.62 785.16 1414.84 798.38 1422 815.65 1422 834.35 1414.84 851.62 1401.62 864.84 1384.35 872 1365.65 872 1348.38 864.84 1335.16 851.62 1328 834.35 1328 815.65 1335.16 798.38 1348.38 785.16 1365.65 778 1384.35 778 1401.62 785.16 M 1416.06 801.3 1433.94 801.3 M 1428 817.29 1422 817.29 M 1422 833.27 1428 833.27 M 1434.17 849.26 1415.83 849.26 M 1400.67 865.24 1449.33 865.24 M 1349.33 865.24 1306.38 865.24 M 1308.22 863.9 1301.73 868.62 1294.58 872.26 1286.94 874.74 1279.01 876 1275 876 1275 825 1275 825 1326 825 1326 829.01 1324.74 836.94 1322.26 844.58 1318.62 851.73 1313.9 858.22 1308.22 863.9 M 1275 865.24 1275 865.24 M 1275 876 1270.99 876 1263.06 874.74 1255.42 872.26 1248.27 868.62 1241.78 863.9 1236.1 858.22 1231.38 851.73 1227.74 844.58 1225.26 836.94 1224 829.01 1224 825 1275 825 1275 825 1275 825 1275 876 M 1243.62 865.24 1200.67 865.24 M 1201.62 864.84 1184.35 872 1165.65 872 1148.38 864.84 1135.16 851.62 1128 834.35 1128 815.65 1135.16 798.38 1148.38 785.16 1165.65 778 1184.35 778 1201.62 785.16 1214.84 798.38 1222 815.65 1222 834.35 1214.84 851.62 1201.62 864.84 M 1149.33 865.24 1100.67 865.24 M 1101.62 864.84 1084.35 872 1065.65 872 1048.38 864.84 1035.16 851.62 1028 834.35 1028 815.65 1035.16 798.38 1048.38 785.16 1065.65 778 1084.35 778 1101.62 785.16 1114.84 798.38 1122 815.65 1122 834.35 1114.84 851.62 1101.62 864.84 M 1049.33 865.24 1000.67 865.24 M 1001.62 864.84 984.35 872 965.65 872 948.38 864.84 935.16 851.62 928 834.35 928 815.65 935.16 798.38 948.38 785.16 965.65 778 984.35 778 1001.62 785.16 1014.84 798.38 1022 815.65 1022 834.35 1014.84 851.62 1001.62 864.84 M 949.33 865.24 900.67 865.24 M 901.62 864.84 884.35 872 865.65 872 848.38 864.84 835.16 851.62 828 834.35 828 815.65 835.16 798.38 848.38 785.16 865.65 778 884.35 778 901.62 785.16 914.84 798.38 922 815.65 922 834.35 914.84 851.62 901.62 864.84 M 849.33 865.24 800.67 865.24 M 815.83 849.26 834.17 849.26 M 828 833.27 822 833.27 M 822 817.29 828 817.29 M 833.94 801.3 816.06 801.3 M 801.78 785.32 848.22 785.32 M 901.78 785.32 948.22 785.32 M 1001.78 785.32 1048.22 785.32 M 1101.78 785.32 1148.22 785.32 M 1201.78 785.32 1242.85 785.32 M 1241.78 786.1 1248.27 781.38 1255.42 777.74 1263.06 775.26 1270.99 774 1275 774 1279.01 774 1286.94 775.26 1294.58 777.74 1301.73 781.38 1308.22 786.1 1313.9 791.78 1318.62 798.27 1322.26 805.42 1324.74 813.06 1326 820.99 1326 825 1275 825 1275 774 1275 825 1275 825 1224 825 1224 820.99 1225.26 813.06 1227.74 805.42 1231.38 798.27 1236.1 791.78 1241.78 786.1 M 1275 785.32 1275 785.32 M 1307.14 785.32 1348.22 785.32 M 1333.94 801.3 1320.16 801.3 M 1325.41 817.29 1328 817.29 M 1328 833.27 1325.33 833.27 M 1319.88 849.26 1334.17 849.26 M 1275 849.26 1275 849.26 M 1275 833.27 1275 833.27 M 1230.12 849.26 1215.83 849.26 M 1222 833.27 1224.67 833.27 M 1224.59 817.29 1222 817.29 M 1216.06 801.3 1229.84 801.3 M 1275 801.3 1275 801.3 M 1275 817.29 1275 817.29 M 1133.94 801.3 1116.06 801.3 M 1122 817.29 1128 817.29 M 1128 833.27 1122 833.27 M 1115.83 849.26 1134.17 849.26 M 1034.17 849.26 1015.83 849.26 M 1022 833.27 1028 833.27 M 1028 817.29 1022 817.29 M 1016.06 801.3 1033.94 801.3 M 933.94 801.3 916.06 801.3 M 922 817.29 928 817.29 M 928 833.27 922 833.27 M 915.83 849.26 934.17 849.26 M 939.68 913.2 910.32 913.2 M 921.58 929.18 928.42 929.18 M 839.68 913.2 810.32 913.2 M 821.58 929.18 828.42 929.18 M 739.68 913.2 710.32 913.2 M 721.58 929.18 728.42 929.18 M 731.04 977.14 718.96 977.14 M 704 993.12 746 993.12 M 804 993.12 846 993.12 M 831.04 977.14 818.96 977.14 M 904 993.12 946 993.12 M 931.04 977.14 918.96 977.14 M 1004 993.12 1046 993.12 M 1031.04 977.14 1018.96 977.14 M 1104 993.12 1146 993.12 M 1131.04 977.14 1118.96 977.14 M 1204 993.12 1240.78 993.12 M 1227.1 977.14 1218.96 977.14 M 1273 977.14 1277 977.14 M 1277 993.12 1273 993.12 M 1309.22 993.12 1346 993.12 M 1331.04 977.14 1322.9 977.14 M 1277 961.15 1273 961.15 M 1273 945.17 1277 945.17 M 1277 929.18 1273 929.18 M 1223.93 929.18 1221.58 929.18 M 1210.32 913.2 1234.02 913.2 M 1273 913.2 1277 913.2 M 1315.98 913.2 1339.68 913.2 M 1328.42 929.18 1326.07 929.18 M 1410.32 913.2 1439.68 913.2 M 1428.42 929.18 1421.58 929.18 M 1510.32 913.2 1539.68 913.2 M 1528.42 929.18 1521.58 929.18 M 1610.32 913.2 1639.68 913.2 M 1628.42 929.18 1621.58 929.18 M 1710.32 913.2 1739.68 913.2 M 1728.42 929.18 1721.58 929.18 M 1810.32 913.2 1839.68 913.2 M 1828.42 929.18 1821.58 929.18 M 1910.32 913.2 1939.68 913.2 M 1928.42 929.18 1921.58 929.18 M 2010.32 913.2 2034.02 913.2 M 2073 913.2 2077 913.2 M 2077 929.18 2073 929.18 M 2073 945.17 2077 945.17 M 2077 961.15 2073 961.15 M 2073 977.14 2077 977.14 M 2077 993.12 2073 993.12 M 2040.78 993.12 2004 993.12 M 2018.96 977.14 2027.1 977.14 M 1946 993.12 1904 993.12 M 1918.96 977.14 1931.04 977.14 M 1846 993.12 1804 993.12 M 1818.96 977.14 1831.04 977.14 M 1746 993.12 1704 993.12 M 1718.96 977.14 1731.04 977.14 M 1646 993.12 1604 993.12 M 1618.96 977.14 1631.04 977.14 M 1546 993.12 1504 993.12 M 1518.96 977.14 1531.04 977.14 M 1446 993.12 1404 993.12 M 1418.96 977.14 1431.04 977.14 M 1139.68 913.2 1110.32 913.2 M 1121.58 929.18 1128.42 929.18 M 1039.68 913.2 1010.32 913.2 M 1021.58 929.18 1028.42 929.18 M 646 993.12 81 993.12 M 81 977.14 631.04 977.14 M 353.7 945.17 296.3 945.17 M 312.29 929.18 337.71 929.18 M 328 913.2 322 913.2 M 322 897.21 328 897.21 M 328 881.23 322 881.23 M 306.71 865.24 343.29 865.24 M 406.71 865.24 453 865.24 M 464.76 881.23 422 881.23 M 547 849.26 634.17 849.26 M 628 833.27 547 833.27 M 281.25 737.36 81 737.36 M 81 721.37 131.3 721.37 M 109.68 705.39 81 705.39 M 81 689.4 101.85 689.4 M 100 673.42 81 673.42 M 81 657.43 103.16 657.43 M 112.84 641.45 81 641.45 M 81 625.46 138.93 625.46 M 140.05 625 159.95 625 166.27 622.38 175.21 631.32 159.95 625 140.05 625 M 161.07 625.46 169.35 625.46 M 215.59 609.48 253.37 609.48 M 237.38 593.49 199.61 593.49 M 200 577.51 221.4 577.51 M 205.41 561.52 198.54 561.52 M 150 575 300 725 800 725 M 834.74 721.37 1647.51 721.37 M 1663.5 705.39 850.72 705.39 M 866.71 689.4 1679.48 689.4 M 1725.72 705.39 2128.14 705.39 M 2128 721.37 1709.74 721.37 M 1693.75 737.36 2128 737.36 M 2136.88 753.34 1677.77 753.34 M 1741.71 689.4 2144.13 689.4 M 2205.87 689.4 2319.13 689.4 M 2303.14 705.39 2221.86 705.39 M 2222 721.37 2303 721.37 M 2303 737.36 2222 737.36 M 2213.12 753.34 2311.88 753.34 M 2388.12 753.34 2507.96 753.34 M 2511.89 754.62 2503.5 751.9 2495.65 747.9 2488.52 742.71 2482.29 736.48 2477.1 729.35 2473.1 721.5 2470.38 713.11 2469 704.41 2469 703 2522 703 2522 756 2520.59 756 2511.89 754.62 M 2522 753.34 2528 753.34 M 2528 756 2528 703 2522 703 2522 697 2469 697 2469 695.59 2470.38 686.89 2473.1 678.5 2477.1 670.65 2482.29 663.52 2488.52 657.29 2495.65 652.1 2503.5 648.1 2511.89 645.38 2520.59 644 2522 644 2522 697 2528 697 2528 703 2581 703 2581 704.41 2579.62 713.11 2576.9 721.5 2572.9 729.35 2567.71 736.48 2561.48 742.71 2554.35 747.9 2546.5 751.9 2538.11 754.62 2529.41 756 2528 756 M 2542.04 753.34 2597 753.34 M 2612.69 737.36 2566.84 737.36 M 2576.94 721.37 2828 721.37 M 2828 705.39 2580.84 705.39 M 2581 697 2528 697 2528 644 2529.41 644 2538.11 645.38 2546.5 648.1 2554.35 652.1 2561.48 657.29 2567.71 663.52 2572.9 670.65 2576.9 678.5 2579.62 686.89 2581 695.59 2581 697 M 2580.02 689.4 2828 689.4 M 2872 689.4 3159.44 689.4 M 3159.39 689.49 3164.17 681.21 3170 673.61 3176.76 666.85 3184.36 661.02 3192.64 656.24 3201.48 652.58 3210.73 650.1 3220 648.88 3220 716.85 3230 716.85 3230 648.88 3239.27 650.1 3248.52 652.58 3257.36 656.24 3265.64 661.02 3273.24 666.85 3280 673.61 3285.83 681.21 3290.61 689.49 3294.27 698.33 3296.75 707.58 3297.97 716.85 3230 716.85 3230 726.85 3297.97 726.85 3296.75 736.12 3294.27 745.37 3290.61 754.21 3285.83 762.49 3280 770.09 3273.24 776.85 3265.64 782.68 3257.36 787.46 3248.52 791.12 3239.27 793.6 3230 794.82 3230 726.85 3220 726.85 3220 716.85 3152.03 716.85 3153.25 707.58 3155.73 698.33 3159.39 689.49 M 3153.84 705.39 2872 705.39 M 2872 721.37 3220 721.37 M 3220 726.85 3152.03 726.85 3153.25 736.12 3155.73 745.37 3159.39 754.21 3164.17 762.49 3170 770.09 3176.76 776.85 3184.36 782.68 3192.64 787.46 3201.48 791.12 3210.73 793.6 3220 794.82 3220 726.85 M 3220 737.36 3230 737.36 M 3230 753.34 3220 753.34 M 3159.03 753.34 2872 753.34 M 2872 737.36 3153.58 737.36 M 3169.42 769.33 2872 769.33 M 2872 785.32 3188.92 785.32 M 3220 785.32 3230 785.32 M 3230 769.33 3220 769.33 M 3261.08 785.32 3419 785.32 M 3419 769.33 3280.58 769.33 M 3290.97 753.34 3419 753.34 M 3419 737.36 3296.42 737.36 M 3230 721.37 3419 721.37 M 3419 705.39 3296.16 705.39 M 3290.56 689.4 3419 689.4 M 3419 673.42 3279.81 673.42 M 3259.43 657.43 3419 657.43 M 3419 641.45 3102.48 641.45 M 3100.79 644.38 3094.96 651.98 3088.2 658.74 3080.6 664.57 3072.32 669.35 3063.48 673.01 3054.23 675.49 3044.96 676.71 3044.96 608.74 3112.93 608.74 3111.71 618.01 3109.23 627.26 3105.57 636.1 3100.79 644.38 M 3109.71 625.46 3419 625.46 M 3419 609.48 3112.83 609.48 M 3112.24 593.49 3419 593.49 M 3419 577.51 3108.11 577.51 M 3099.58 561.52 3419 561.52 M 3419 545.54 3260.67 545.54 M 3278.66 529.55 3419 529.55 M 3419 513.57 3288.11 513.57 M 3294 497.58 3419 497.58 M 3419 481.6 3294 481.6 M 3291.39 465.61 3419 465.61 M 3419 449.63 3284.77 449.63 M 3270.59 433.64 3419 433.64 M 3044.96 561.52 3034.96 561.52 M 3034.96 577.51 3044.96 577.51 M 3044.96 593.49 3034.96 593.49 M 3034.96 609.48 3044.96 609.48 M 3044.96 625.46 3034.96 625.46 M 3034.96 641.45 3044.96 641.45 M 3044.96 657.43 3034.96 657.43 M 3034.96 673.42 3044.96 673.42 M 3061.96 673.42 3170.19 673.42 M 3190.57 657.43 3089.5 657.43 M 3017.96 673.42 2872 673.42 M 2872 657.43 2990.42 657.43 M 2828 657.43 2561.63 657.43 M 2574.31 673.42 2828 673.42 M 2828 737.36 2781.66 737.36 M 2794.07 753.34 2828 753.34 M 2828 769.33 2799 769.33 M 2798.76 785.32 2828 785.32 M 2828 801.3 2792.14 801.3 M 2775.96 817.29 2828 817.29 M 2872 817.29 3419 817.29 M 3419 801.3 2872 801.3 M 2904.7 826 2945.3 826 2974 854.7 2974 895.3 2947.12 922.17 2978 953.05 2978 973 2927 973 2927 977 2978 977 2978 996.95 2946.95 1028 2927 1028 2927 977 2923 977 2923 1028 2903.05 1028 2872 996.95 2872 977 2923 977 2923 973 2872 973 2872 953.05 2902.88 922.17 2876 895.3 2876 854.7 2904.7 826 M 2897.43 833.27 2872 833.27 M 2872 849.26 2881.45 849.26 M 2876 865.24 2865.87 865.24 M 2876 881.23 2849.89 881.23 M 2833.9 897.21 2877.91 897.21 M 2893.9 913.2 2817.92 913.2 M 2776.31 929.18 2895.87 929.18 M 2879.88 945.17 2792.29 945.17 M 2801 961.15 2872 961.15 M 2872 977.14 2801 977.14 M 2801 993.12 2872 993.12 M 2884.15 1009.11 2788.02 1009.11 M 2772.03 1025.09 2900.14 1025.09 M 2923 1025.09 2927 1025.09 M 2927 1009.11 2923 1009.11 M 2949.86 1025.09 3419 1025.09 M 3419 1009.11 2965.85 1009.11 M 2978 993.12 3419 993.12 M 3419 977.14 2978 977.14 M 2927 977.14 2923 977.14 M 2923 993.12 2927 993.12 M 2978 961.15 3419 961.15 M 3419 945.17 2970.12 945.17 M 2954.13 929.18 3419 929.18 M 3419 913.2 2956.1 913.2 M 2972.09 897.21 3419 897.21 M 3419 881.23 2974 881.23 M 2974 865.24 3419 865.24 M 3419 849.26 2968.55 849.26 M 2952.57 833.27 3419 833.27 M 3230 705.39 3220 705.39 M 3220 689.4 3230 689.4 M 3230 673.42 3220 673.42 M 3220 657.43 3230 657.43 M 2718.34 737.36 2687.31 737.36 M 2703 753.34 2705.93 753.34 M 2650 753.34 2650 753.34 M 2650 737.36 2650 737.36 M 2650 769.33 2650 769.33 M 2650 785.32 2650 785.32 M 2650 801.3 2650 801.3 M 2650 817.29 2650 817.29 M 2682.67 817.29 2724.04 817.29 M 2707.86 801.3 2698.65 801.3 M 2617.33 817.29 2022 817.29 M 2016.06 801.3 2601.35 801.3 M 2528 737.36 2522 737.36 M 2483.16 737.36 2397 737.36 M 2397 721.37 2473.06 721.37 M 2469.16 705.39 2396.86 705.39 M 2380.87 689.4 2469.98 689.4 M 2522 689.4 2528 689.4 M 2528 705.39 2522 705.39 M 2522 721.37 2528 721.37 M 2528 673.42 2522 673.42 M 2522 657.43 2528 657.43 M 2488.37 657.43 1773.68 657.43 M 1757.69 673.42 2475.69 673.42 M 2198.35 545.54 2017.37 545.54 M 2022 529.55 2214.33 529.55 M 2230.32 513.57 2021.14 513.57 M 2014.05 497.58 2246.3 497.58 M 2262.29 481.6 1993.04 481.6 M 1956.96 481.6 1893.04 481.6 M 1914.05 497.58 1935.95 497.58 M 1928.86 513.57 1921.14 513.57 M 1922 529.55 1928 529.55 M 1932.63 545.54 1917.37 545.54 M 1832.63 545.54 1817.37 545.54 M 1822 529.55 1828 529.55 M 1775 525 1775 450 1825 400 1825 250 1900 175 M 1850 177.88 1850 177.88 M 1850 184.95 1850 165.05 1850 184.95 1852.62 191.27 1843.68 200.21 1850 184.95 M 1850.02 193.87 1846.3 193.87 M 1848.69 161.9 1851.31 161.9 M 1858.38 145.91 1841.62 145.91 M 1941.62 145.91 1958.38 145.91 M 1951.31 161.9 1948.69 161.9 M 1950 177.88 1950 177.88 M 1946.3 193.87 1953.7 193.87 M 1818.05 225.84 1797 225.84 M 1753 225.84 1721.29 225.84 M 1700 225.84 1700 225.84 M 1700 209.85 1700 209.85 M 1678.71 225.84 1485.54 225.84 M 1464.46 225.84 1385.54 225.84 M 1364.46 225.84 1285.54 225.84 M 1264.46 225.84 1185.54 225.84 M 1164.46 225.84 1085.54 225.84 M 1064.46 225.84 985.54 225.84 M 964.46 225.84 956.95 225.84 M 972.93 241.82 1753 241.82 M 1753 257.81 988.92 257.81 M 1004.9 273.79 1753 273.79 M 1753 289.78 1020.89 289.78 M 1036.87 305.76 1753 305.76 M 1797 305.76 1803 305.76 M 1803 289.78 1797 289.78 M 1797 273.79 1803 273.79 M 1803 257.81 1797 257.81 M 1797 241.82 1803 241.82 M 1848.31 257.81 1875.73 257.81 M 1880.53 253 1919.47 253 1947 280.53 1947 319.47 1919.47 347 1880.53 347 1853 319.47 1853 280.53 1880.53 253 M 1864.29 241.82 2228 241.82 M 2241.34 257.81 1924.27 257.81 M 1940.26 273.79 2351.67 273.79 M 2375 273.79 2375 273.79 M 2398.33 273.79 2479.57 273.79 M 2473 289.78 1947 289.78 M 1947 305.76 2473 305.76 M 2477.72 321.75 1944.72 321.75 M 1928.74 337.73 2489.19 337.73 M 2560.81 337.73 2678 337.73 M 2678 321.75 2572.28 321.75 M 2678 353.72 1925.84 353.72 M 1921.12 349 1900 349 1900 400 1900 400 1900 451 1921.12 451 1951 421.12 1951 400 1900 400 1900 400 1900 400 1849 400 1849 421.12 1878.88 451 1900 451 1900 400 1951 400 1951 378.88 1921.12 349 M 1900 349 1900 400 1900 400 1849 400 1849 378.88 1878.88 349 1900 349 M 1900 353.72 1900 353.72 M 1900 369.7 1900 369.7 M 1874.16 353.72 1847 353.72 M 1847 369.7 1858.17 369.7 M 1849 385.69 1847 385.69 M 1847 401.67 1849 401.67 M 1900 401.67 1900 401.67 M 1900 385.69 1900 385.69 M 1941.83 369.7 2678 369.7 M 2678 385.69 2377.16 385.69 M 2393.14 401.67 2678 401.67 M 2678 417.66 2397 417.66 M 2397 433.64 2678 433.64 M 2678 449.63 2391.84 449.63 M 2375.85 465.61 2678 465.61 M 2322.84 385.69 2202.16 385.69 M 2218.14 401.67 2306.86 401.67 M 2147.84 385.69 1951 385.69 M 1951 401.67 2131.86 401.67 M 2128 417.66 1951 417.66 M 1938.48 433.64 2128 433.64 M 2133.16 449.63 1922.5 449.63 M 1900 449.63 1900 449.63 M 1877.5 449.63 1806.48 449.63 M 1797 465.61 2149.15 465.61 M 1900 433.64 1900 433.64 M 1900 417.66 1900 417.66 M 1861.52 433.64 1822.47 433.64 M 1838.45 417.66 1849 417.66 M 1792.21 401.67 1779.44 401.67 M 1795.43 385.69 1803 385.69 M 1803 369.7 1797 369.7 M 1797 353.72 1803 353.72 M 1753 353.72 1658 353.72 M 1658 357.56 1652.21 371.53 1641.53 382.21 1627.56 388 1612.44 388 1598.47 382.21 1587.79 371.53 1582 357.56 1582 342.44 1587.79 328.47 1598.47 317.79 1612.44 312 1627.56 312 1641.53 317.79 1652.21 328.47 1658 342.44 1658 357.56 M 1652.97 369.7 1749.18 369.7 M 1733.2 385.69 1633.14 385.69 M 1606.86 385.69 1443.14 385.69 M 1437.56 388 1422.44 388 1408.47 382.21 1397.79 371.53 1392 357.56 1392 342.44 1397.79 328.47 1408.47 317.79 1422.44 312 1437.56 312 1451.53 317.79 1462.21 328.47 1468 342.44 1468 357.56 1462.21 371.53 1451.53 382.21 1437.56 388 M 1416.86 385.69 1116.8 385.69 M 1132.79 401.67 1717.21 401.67 M 1701.23 417.66 1248.77 417.66 M 1264.76 433.64 1685.24 433.64 M 1669.26 449.63 1280.74 449.63 M 1296.73 465.61 1653.27 465.61 M 1653 481.6 1593.04 481.6 M 1601.62 485.16 1584.35 478 1565.65 478 1548.38 485.16 1535.16 498.38 1528 515.65 1528 534.35 1535.16 551.62 1548.38 564.84 1565.65 572 1584.35 572 1601.62 564.84 1614.84 551.62 1622 534.35 1622 515.65 1614.84 498.38 1601.62 485.16 M 1614.05 497.58 1635.95 497.58 M 1628.86 513.57 1621.14 513.57 M 1622 529.55 1628 529.55 M 1632.63 545.54 1617.37 545.54 M 1604.94 561.52 1645.06 561.52 M 1545.06 561.52 1504.94 561.52 M 1501.62 564.84 1484.35 572 1465.65 572 1448.38 564.84 1435.16 551.62 1428 534.35 1428 515.65 1435.16 498.38 1448.38 485.16 1465.65 478 1484.35 478 1501.62 485.16 1514.84 498.38 1522 515.65 1522 534.35 1514.84 551.62 1501.62 564.84 M 1517.37 545.54 1532.63 545.54 M 1528 529.55 1522 529.55 M 1521.14 513.57 1528.86 513.57 M 1535.95 497.58 1514.05 497.58 M 1493.04 481.6 1556.96 481.6 M 1456.96 481.6 1402.03 481.6 M 1401.73 481.38 1408.22 486.1 1413.9 491.78 1418.62 498.27 1422.26 505.42 1424.74 513.06 1426 520.99 1426 525 1426 529.01 1424.74 536.94 1422.26 544.58 1418.62 551.73 1413.9 558.22 1408.22 563.9 1401.73 568.62 1394.58 572.26 1386.94 574.74 1379.01 576 1375 576 1375 525 1375 525 1426 525 1375 525 1375 525 1375 525 1324 525 1324 529.01 1325.26 536.94 1327.74 544.58 1331.38 551.73 1336.1 558.22 1341.78 563.9 1348.27 568.62 1355.42 572.26 1363.06 574.74 1370.99 576 1375 576 1375 525 1375 474 1379.01 474 1386.94 475.26 1394.58 477.74 1401.73 481.38 M 1418.12 497.58 1435.95 497.58 M 1428.86 513.57 1424.82 513.57 M 1425.91 529.55 1428 529.55 M 1432.63 545.54 1421.77 545.54 M 1375 545.54 1375 545.54 M 1375 529.55 1375 529.55 M 1375 525 1324 525 1324 520.99 1325.26 513.06 1327.74 505.42 1331.38 498.27 1336.1 491.78 1341.78 486.1 1348.27 481.38 1355.42 477.74 1363.06 475.26 1370.99 474 1375 474 1375 525 1375 525 M 1328.23 545.54 1317.37 545.54 M 1322 529.55 1324.09 529.55 M 1325.17 513.57 1321.14 513.57 M 1314.05 497.58 1331.88 497.58 M 1347.97 481.6 1297 481.6 M 1275 475 1275 525 M 1232.63 545.54 1217.37 545.54 M 1214.84 551.62 1222 534.35 1222 515.65 1214.84 498.38 1201.62 485.16 1184.35 478 1165.65 478 1148.38 485.16 1135.16 498.38 1128 515.65 1128 534.35 1135.16 551.62 1148.38 564.84 1165.65 572 1184.35 572 1201.62 564.84 1214.84 551.62 M 1204.94 561.52 1245.06 561.52 M 1304.94 561.52 1339.4 561.52 M 1375 561.52 1375 561.52 M 1410.6 561.52 1445.06 561.52 M 1375 513.57 1375 513.57 M 1375 497.58 1375 497.58 M 1375 481.6 1375 481.6 M 1275 475 1225 425 1125 425 875 175 M 827.61 193.87 826.7 193.87 M 777 193.87 773 193.87 M 773 177.88 777 177.88 M 777 161.9 773 161.9 M 773 145.91 777 145.91 M 821.85 145.91 831.96 145.91 M 850.55 129.93 806.53 129.93 M 777 129.93 773 129.93 M 743.47 129.93 699.45 129.93 M 718.04 145.91 728.15 145.91 M 650.55 129.93 179.83 129.93 M 178.3 128.82 185.18 133.81 191.19 139.82 196.18 146.7 200.04 154.27 202.67 162.35 204 170.75 204 173.5 151.5 173.5 151.5 121 154.25 121 162.65 122.33 170.73 124.96 178.3 128.82 M 151.5 129.93 148.5 129.93 M 120.17 129.93 81 129.93 M 81 145.91 104.39 145.91 M 97.48 161.9 81 161.9 M 81 177.88 96 177.88 M 99.35 193.87 81 193.87 M 81 209.85 108.57 209.85 M 131.71 225.84 81 225.84 M 81 241.82 112.47 241.82 M 103 257.81 81 257.81 M 81 273.79 100 273.79 M 102 289.78 81 289.78 M 81 305.76 110.05 305.76 M 132.2 321.75 81 321.75 M 81 337.73 116.56 337.73 M 167.8 321.75 653 321.75 M 653 337.73 183.44 337.73 M 195.3 353.72 640.17 353.72 M 624.18 369.7 579.33 369.7 M 526.67 369.7 323.33 369.7 M 340.47 385.69 509.53 385.69 M 502.9 401.67 347.1 401.67 M 270.67 369.7 200 369.7 M 199.69 385.69 253.53 385.69 M 246.9 401.67 193.07 401.67 M 177.67 417.66 246 417.66 M 249.93 433.64 179.35 433.64 M 120.65 433.64 81 433.64 M 81 417.66 122.33 417.66 M 106.93 401.67 81 401.67 M 81 385.69 100.31 385.69 M 100 369.7 81 369.7 M 81 353.72 104.7 353.72 M 189.95 305.76 653 305.76 M 653 289.78 565.05 289.78 M 565.88 289.65 557.33 291 555 291 555 238 608 238 608 240.33 606.65 248.88 603.97 257.11 600.04 264.83 594.95 271.83 588.83 277.95 581.83 283.04 574.11 286.97 565.88 289.65 M 555 289.78 551 289.78 M 551 291 548.67 291 540.12 289.65 531.89 286.97 524.17 283.04 517.17 277.95 511.05 271.83 505.96 264.83 502.03 257.11 499.35 248.88 498 240.33 498 238 551 238 551 291 M 540.95 289.78 198 289.78 M 200 273.79 262.67 273.79 M 268.11 279.24 253.76 264.89 246 246.14 246 225.86 253.76 207.11 268.11 192.76 286.86 185 307.14 185 325.89 192.76 340.24 207.11 348 225.86 348 246.14 340.24 264.89 325.89 279.24 307.14 287 286.86 287 268.11 279.24 M 250.83 257.81 197 257.81 M 187.53 241.82 246 241.82 M 246.01 225.84 168.29 225.84 M 191.43 209.85 252.63 209.85 M 267.01 193.87 200.65 193.87 M 204 177.88 624 177.88 M 627.61 193.87 588.58 193.87 M 588.83 194.05 594.95 200.17 600.04 207.17 603.97 214.89 606.65 223.12 608 231.67 608 234 555 234 555 238 551 238 551 234 555 234 555 181 557.33 181 565.88 182.35 574.11 185.03 581.83 188.96 588.83 194.05 M 555 193.87 551 193.87 M 551 181 551 234 498 234 498 231.67 499.35 223.12 502.03 214.89 505.96 207.17 511.05 200.17 517.17 194.05 524.17 188.96 531.89 185.03 540.12 182.35 548.67 181 551 181 M 517.42 193.87 326.99 193.87 M 341.37 209.85 504.6 209.85 M 498.92 225.84 347.99 225.84 M 348 241.82 498.24 241.82 M 502.38 257.81 343.17 257.81 M 331.33 273.79 513.01 273.79 M 551 273.79 555 273.79 M 592.99 273.79 653 273.79 M 653 257.81 603.62 257.81 M 607.76 241.82 653 241.82 M 653 225.84 607.08 225.84 M 601.4 209.85 637.73 209.85 M 697 225.84 753.62 225.84 M 773 225.84 777 225.84 M 777 209.85 773 209.85 M 796.38 225.84 864.46 225.84 M 885.54 225.84 894.72 225.84 M 837.73 209.85 817.66 209.85 M 732.34 209.85 712.27 209.85 M 722.39 193.87 723.3 193.87 M 675 175 675 350 M 697 353.72 1022.6 353.72 M 1038.59 369.7 697 369.7 M 697 385.69 1054.57 385.69 M 1070.56 401.67 697 401.67 M 608.2 385.69 596.47 385.69 M 697 337.73 1006.62 337.73 M 990.63 321.75 697 321.75 M 697 305.76 974.65 305.76 M 958.66 289.78 697 289.78 M 697 273.79 942.68 273.79 M 926.69 257.81 697 257.81 M 697 241.82 910.71 241.82 M 1012.27 209.85 1037.73 209.85 M 1027.61 193.87 1022.39 193.87 M 1024.77 161.9 1025.23 161.9 M 1031.96 145.91 1018.04 145.91 M 999.45 129.93 1050.55 129.93 M 1099.45 129.93 1150.55 129.93 M 1199.45 129.93 1250.55 129.93 M 1299.45 129.93 1350.55 129.93 M 1331.96 145.91 1318.04 145.91 M 1324.77 161.9 1325.23 161.9 M 1418.04 145.91 1431.96 145.91 M 1425.23 161.9 1424.77 161.9 M 1518.04 145.91 1562.62 145.91 M 1553 155.53 1580.53 128 1619.47 128 1647 155.53 1647 194.47 1619.47 222 1580.53 222 1553 194.47 1553 155.53 M 1553 161.9 1524.77 161.9 M 1526 177.88 1553 177.88 M 1553 193.87 1522.39 193.87 M 1512.27 209.85 1568.38 209.85 M 1631.62 209.85 1662.73 209.85 M 1649 193.87 1647 193.87 M 1647 177.88 1649 177.88 M 1649 161.9 1647 161.9 M 1637.38 145.91 1656.96 145.91 M 1672.95 129.93 1621.39 129.93 M 1578.61 129.93 1499.45 129.93 M 1450.55 129.93 1399.45 129.93 M 1231.96 145.91 1218.04 145.91 M 1224.77 161.9 1225.23 161.9 M 1227.61 193.87 1222.39 193.87 M 1212.27 209.85 1237.73 209.85 M 1312.27 209.85 1337.73 209.85 M 1327.61 193.87 1322.39 193.87 M 1412.27 209.85 1437.73 209.85 M 1427.61 193.87 1422.39 193.87 M 1700 129.93 1700 129.93 M 1737.27 209.85 1753 209.85 M 1847 273.79 1859.74 273.79 M 1853 289.78 1847 289.78 M 1847 305.76 1853 305.76 M 1855.28 321.75 1847 321.75 M 1847 337.73 1871.26 337.73 M 1803 337.73 1797 337.73 M 1797 321.75 1803 321.75 M 1753 321.75 1645.49 321.75 M 1656.05 337.73 1753 337.73 M 1594.51 321.75 1455.49 321.75 M 1466.05 337.73 1583.95 337.73 M 1582 353.72 1468 353.72 M 1462.97 369.7 1587.03 369.7 M 1763.45 417.66 1776.23 417.66 M 1760.24 433.64 1747.47 433.64 M 1753 449.63 1731.48 449.63 M 1715.5 465.61 1753 465.61 M 1753 481.6 1699.51 481.6 M 1714.05 497.58 1735.95 497.58 M 1728.86 513.57 1721.14 513.57 M 1797 481.6 1856.96 481.6 M 1835.95 497.58 1814.05 497.58 M 1821.14 513.57 1828.86 513.57 M 1775.39 593.49 897 593.49 M 897 609.48 1759.41 609.48 M 1743.42 625.46 897 625.46 M 897 641.45 1727.44 641.45 M 1711.45 657.43 897 657.43 M 882.69 673.42 1695.47 673.42 M 1816.06 801.3 1833.94 801.3 M 1828 817.29 1822 817.29 M 1822 833.27 1828 833.27 M 1834.17 849.26 1815.83 849.26 M 1915.83 849.26 1934.17 849.26 M 1928 833.27 1922 833.27 M 1922 817.29 1928 817.29 M 1933.94 801.3 1916.06 801.3 M 2022 833.27 2828 833.27 M 2819.63 849.26 2396.38 849.26 M 2375 849.26 2375 849.26 M 2353.62 849.26 2015.83 849.26 M 2115.98 913.2 2139.68 913.2 M 2128.42 929.18 2126.07 929.18 M 2023.93 929.18 2021.58 929.18 M 2122.9 977.14 2131.04 977.14 M 2146 993.12 2109.22 993.12 M 2375 881.23 2375 881.23 M 2375 865.24 2375 865.24 M 2412.37 865.24 2443.29 865.24 M 2428 881.23 2426 881.23 M 2506.71 865.24 2803.65 865.24 M 2712.66 881.23 2522 881.23 M 2522 897.21 2696.68 897.21 M 2680.69 913.2 2522 913.2 M 2512.29 929.18 2629.35 929.18 M 2613.37 945.17 2496.3 945.17 M 2697 961.15 2699 961.15 M 2750 961.15 2750 961.15 M 2750 945.17 2750 945.17 M 2750 929.18 2750 929.18 M 2750 977.14 2750 977.14 M 2750 993.12 2750 993.12 M 2750 1009.11 2750 1009.11 M 2750 1025.09 2750 1025.09 M 3419 1041.08 81 1041.08 M 168.7 721.37 265.26 721.37 M 249.28 705.39 190.32 705.39 M 198.15 689.4 233.29 689.4 M 217.31 673.42 200 673.42 M 201.32 657.43 196.84 657.43 M 247.56 641.45 285.34 641.45 M 269.35 625.46 231.58 625.46 M 263.55 657.43 301.32 657.43 M 317.31 673.42 279.53 673.42 M 295.52 689.4 333.29 689.4 M 347.56 641.45 727.44 641.45 M 743.42 625.46 331.58 625.46 M 113.77 609.48 81 609.48 M 81 593.49 103.54 593.49 M 100 577.51 81 577.51 M 81 561.52 101.46 561.52 M 108.75 545.54 81 545.54 M 81 529.55 129.06 529.55 M 140.05 525 159.95 525 166.27 522.38 175.21 531.32 159.95 525 140.05 525 M 170.94 529.55 173.44 529.55 M 117.86 513.57 81 513.57 M 81 497.58 105.23 497.58 M 100 481.6 81 481.6 M 81 465.61 100 465.61 M 106.39 449.63 81 449.63 M 530.04 513.57 628.86 513.57 M 628 529.55 546.02 529.55 M 547 545.54 632.63 545.54 M 645.06 561.52 547 561.52 M 797 577.51 853 577.51 M 845.06 561.52 804.94 561.52 M 797 593.49 853 593.49 M 853 609.48 797 609.48 M 797 625.46 853 625.46 M 852.44 641.45 789.66 641.45 M 773.68 657.43 836.45 657.43 M 820.47 673.42 757.69 673.42 M 741.71 689.4 804.48 689.4 M 1048.38 564.84 1065.65 572 1084.35 572 1101.62 564.84 1114.84 551.62 1122 534.35 1122 515.65 1114.84 498.38 1101.62 485.16 1084.35 478 1065.65 478 1048.38 485.16 1035.16 498.38 1028 515.65 1028 534.35 1035.16 551.62 1048.38 564.84 M 1045.06 561.52 1004.94 561.52 M 1017.37 545.54 1032.63 545.54 M 1028 529.55 1022 529.55 M 1021.14 513.57 1028.86 513.57 M 1035.95 497.58 1014.05 497.58 M 993.04 481.6 1056.96 481.6 M 1093.04 481.6 1156.96 481.6 M 1135.95 497.58 1114.05 497.58 M 1121.14 513.57 1128.86 513.57 M 1128 529.55 1122 529.55 M 1117.37 545.54 1132.63 545.54 M 1145.06 561.52 1104.94 561.52 M 1222 529.55 1228 529.55 M 1228.86 513.57 1221.14 513.57 M 1214.05 497.58 1235.95 497.58 M 1250.49 481.6 1193.04 481.6 M 1100.81 369.7 1397.03 369.7 M 1392 353.72 1084.83 353.72 M 1068.84 337.73 1393.95 337.73 M 1404.51 321.75 1052.86 321.75 M 1112.27 209.85 1137.73 209.85 M 1127.61 193.87 1122.39 193.87 M 1124.77 161.9 1125.23 161.9 M 1131.96 145.91 1118.04 145.91 M 950.55 129.93 899.45 129.93 M 918.04 145.91 931.96 145.91 M 925.23 161.9 924.77 161.9 M 631.96 145.91 195.61 145.91 M 202.52 161.9 625.23 161.9 M 555 209.85 551 209.85 M 551 225.84 555 225.84 M 555 241.82 551 241.82 M 551 257.81 555 257.81 M 151.5 161.9 148.5 161.9 M 148.5 145.91 151.5 145.91 M 2148.69 161.9 2670.88 161.9 M 2659.47 177.88 2400.01 177.88 M 2415.99 193.87 2656 193.87 M 2744 193.87 2752 193.87 M 2755.7 273.79 2739.84 273.79 M 2727.45 289.78 2766.89 289.78 M 2798 289.78 2802 289.78 M 2802 273.79 2798 273.79 M 2493.65 257.81 2414.32 257.81 M 2375 257.81 2375 257.81 M 2375 241.82 2375 241.82 M 2335.68 257.81 2308.66 257.81 M 2322 241.82 2324 241.82 M 2375 193.87 2375 193.87 M 2375 177.88 2375 177.88 M 2349.99 177.88 2150 177.88" fill="none" stroke-width="16"/></g><g id="pcb-stackup_bottom_sm"><path d="M 2700 195 2700 255 M 2800 255 2800 195 M 2900 195 2900 255" fill="none" stroke-width="66"/><use xlink:href="#vH3lB8Cx77nS_pad-11" x="2750" y="525"/><use xlink:href="#vH3lB8Cx77nS_pad-11" x="2750" y="775"/><use xlink:href="#vH3lB8Cx77nS_pad-12" x="2650" y="775"/><use xlink:href="#vH3lB8Cx77nS_pad-12" x="2925" y="875"/><use xlink:href="#vH3lB8Cx77nS_pad-12" x="2925" y="975"/><use xlink:href="#vH3lB8Cx77nS_pad-12" x="2850" y="525"/><use xlink:href="#vH3lB8Cx77nS_pad-13" x="3039.96" y="603.74"/><use xlink:href="#vH3lB8Cx77nS_pad-13" x="3225" y="485.63"/><use xlink:href="#vH3lB8Cx77nS_pad-13" x="3225" y="721.85"/><use xlink:href="#vH3lB8Cx77nS_pad-14" x="2525" y="700"/><use xlink:href="#vH3lB8Cx77nS_pad-14" x="2525" y="300"/><use xlink:href="#vH3lB8Cx77nS_pad-15" x="1975" y="525"/><use xlink:href="#vH3lB8Cx77nS_pad-15" x="1875" y="525"/><use xlink:href="#vH3lB8Cx77nS_pad-15" x="1775" y="525"/><use xlink:href="#vH3lB8Cx77nS_pad-15" x="1675" y="525"/><use xlink:href="#vH3lB8Cx77nS_pad-15" x="1575" y="525"/><use xlink:href="#vH3lB8Cx77nS_pad-15" x="1475" y="525"/><use xlink:href="#vH3lB8Cx77nS_pad-15" x="1375" y="525"/><use xlink:href="#vH3lB8Cx77nS_pad-15" x="1275" y="525"/><use xlink:href="#vH3lB8Cx77nS_pad-15" x="1175" y="525"/><use xlink:href="#vH3lB8Cx77nS_pad-15" x="1075" y="525"/><use xlink:href="#vH3lB8Cx77nS_pad-15" x="975" y="525"/><use xlink:href="#vH3lB8Cx77nS_pad-15" x="875" y="525"/><use xlink:href="#vH3lB8Cx77nS_pad-15" x="775" y="525"/><use xlink:href="#vH3lB8Cx77nS_pad-15" x="675" y="525"/><use xlink:href="#vH3lB8Cx77nS_pad-15" x="675" y="825"/><use xlink:href="#vH3lB8Cx77nS_pad-15" x="775" y="825"/><use xlink:href="#vH3lB8Cx77nS_pad-15" x="875" y="825"/><use xlink:href="#vH3lB8Cx77nS_pad-15" x="975" y="825"/><use xlink:href="#vH3lB8Cx77nS_pad-15" x="1075" y="825"/><use xlink:href="#vH3lB8Cx77nS_pad-15" x="1175" y="825"/><use xlink:href="#vH3lB8Cx77nS_pad-15" x="1275" y="825"/><use xlink:href="#vH3lB8Cx77nS_pad-15" x="1375" y="825"/><use xlink:href="#vH3lB8Cx77nS_pad-15" x="1475" y="825"/><use xlink:href="#vH3lB8Cx77nS_pad-15" x="1575" y="825"/><use xlink:href="#vH3lB8Cx77nS_pad-15" x="1675" y="825"/><use xlink:href="#vH3lB8Cx77nS_pad-15" x="1775" y="825"/><use xlink:href="#vH3lB8Cx77nS_pad-15" x="1875" y="825"/><use xlink:href="#vH3lB8Cx77nS_pad-15" x="1975" y="825"/><use xlink:href="#vH3lB8Cx77nS_pad-16" x="2175" y="725"/><use xlink:href="#vH3lB8Cx77nS_pad-16" x="2350" y="725"/><use xlink:href="#vH3lB8Cx77nS_pad-16" x="2375" y="900"/><use xlink:href="#vH3lB8Cx77nS_pad-16" x="2475" y="900"/><use xlink:href="#vH3lB8Cx77nS_pad-16" x="2650" y="975"/><use xlink:href="#vH3lB8Cx77nS_pad-16" x="2750" y="975"/><use xlink:href="#vH3lB8Cx77nS_pad-16" x="2350" y="425"/><use xlink:href="#vH3lB8Cx77nS_pad-16" x="2175" y="425"/><use xlink:href="#vH3lB8Cx77nS_pad-16" x="1900" y="400"/><use xlink:href="#vH3lB8Cx77nS_pad-16" x="1900" y="300"/><use xlink:href="#vH3lB8Cx77nS_pad-16" x="1700" y="175"/><use xlink:href="#vH3lB8Cx77nS_pad-16" x="1600" y="175"/><use xlink:href="#vH3lB8Cx77nS_pad-16" x="2275" y="225"/><use xlink:href="#vH3lB8Cx77nS_pad-16" x="2375" y="225"/><use xlink:href="#vH3lB8Cx77nS_pad-16" x="500" y="550"/><use xlink:href="#vH3lB8Cx77nS_pad-16" x="500" y="850"/><use xlink:href="#vH3lB8Cx77nS_pad-16" x="375" y="900"/><use xlink:href="#vH3lB8Cx77nS_pad-16" x="275" y="900"/><use xlink:href="#vH3lB8Cx77nS_pad-17" x="1430" y="350"/><use xlink:href="#vH3lB8Cx77nS_pad-17" x="1620" y="350"/><use xlink:href="#vH3lB8Cx77nS_pad-18" x="1475" y="175"/><use xlink:href="#vH3lB8Cx77nS_pad-18" x="1375" y="175"/><use xlink:href="#vH3lB8Cx77nS_pad-18" x="1275" y="175"/><use xlink:href="#vH3lB8Cx77nS_pad-18" x="1175" y="175"/><use xlink:href="#vH3lB8Cx77nS_pad-18" x="1075" y="175"/><use xlink:href="#vH3lB8Cx77nS_pad-18" x="975" y="175"/><use xlink:href="#vH3lB8Cx77nS_pad-18" x="875" y="175"/><use xlink:href="#vH3lB8Cx77nS_pad-18" x="775" y="175"/><use xlink:href="#vH3lB8Cx77nS_pad-18" x="675" y="175"/><use xlink:href="#vH3lB8Cx77nS_pad-18" x="553" y="236"/><use xlink:href="#vH3lB8Cx77nS_pad-18" x="297" y="236"/><use xlink:href="#vH3lB8Cx77nS_pad-18" x="297" y="414"/><use xlink:href="#vH3lB8Cx77nS_pad-18" x="553" y="414"/><use xlink:href="#vH3lB8Cx77nS_pad-18" x="675" y="950"/><use xlink:href="#vH3lB8Cx77nS_pad-18" x="775" y="950"/><use xlink:href="#vH3lB8Cx77nS_pad-18" x="875" y="950"/><use xlink:href="#vH3lB8Cx77nS_pad-18" x="975" y="950"/><use xlink:href="#vH3lB8Cx77nS_pad-18" x="1075" y="950"/><use xlink:href="#vH3lB8Cx77nS_pad-18" x="1175" y="950"/><use xlink:href="#vH3lB8Cx77nS_pad-18" x="1275" y="950"/><use xlink:href="#vH3lB8Cx77nS_pad-18" x="1375" y="950"/><use xlink:href="#vH3lB8Cx77nS_pad-18" x="1475" y="950"/><use xlink:href="#vH3lB8Cx77nS_pad-18" x="1575" y="950"/><use xlink:href="#vH3lB8Cx77nS_pad-18" x="1675" y="950"/><use xlink:href="#vH3lB8Cx77nS_pad-18" x="1775" y="950"/><use xlink:href="#vH3lB8Cx77nS_pad-18" x="1875" y="950"/><use xlink:href="#vH3lB8Cx77nS_pad-18" x="1975" y="950"/><use xlink:href="#vH3lB8Cx77nS_pad-18" x="2075" y="950"/><use xlink:href="#vH3lB8Cx77nS_pad-18" x="2175" y="950"/><use xlink:href="#vH3lB8Cx77nS_pad-19" x="150" y="175"/><use xlink:href="#vH3lB8Cx77nS_pad-19" x="150" y="275"/><use xlink:href="#vH3lB8Cx77nS_pad-19" x="150" y="375"/><use xlink:href="#vH3lB8Cx77nS_pad-19" x="150" y="475"/><use xlink:href="#vH3lB8Cx77nS_pad-19" x="150" y="575"/><use xlink:href="#vH3lB8Cx77nS_pad-19" x="150" y="675"/><use xlink:href="#vH3lB8Cx77nS_pad-19" x="1800" y="175"/><use xlink:href="#vH3lB8Cx77nS_pad-19" x="1900" y="175"/><use xlink:href="#vH3lB8Cx77nS_pad-19" x="2000" y="175"/><use xlink:href="#vH3lB8Cx77nS_pad-19" x="2100" y="175"/></g><g id="pcb-stackup_bottom_drl1"><use xlink:href="#Gxw_BJCi3jKJ_pad-1" x="1430" y="350"/><use xlink:href="#Gxw_BJCi3jKJ_pad-1" x="1620" y="350"/><use xlink:href="#Gxw_BJCi3jKJ_pad-1" x="1900" y="300"/><use xlink:href="#Gxw_BJCi3jKJ_pad-1" x="1900" y="400"/><use xlink:href="#Gxw_BJCi3jKJ_pad-1" x="2175" y="425"/><use xlink:href="#Gxw_BJCi3jKJ_pad-1" x="2350" y="425"/><use xlink:href="#Gxw_BJCi3jKJ_pad-1" x="1975" y="525"/><use xlink:href="#Gxw_BJCi3jKJ_pad-1" x="1875" y="525"/><use xlink:href="#Gxw_BJCi3jKJ_pad-1" x="1775" y="525"/><use xlink:href="#Gxw_BJCi3jKJ_pad-1" x="1675" y="525"/><use xlink:href="#Gxw_BJCi3jKJ_pad-1" x="1575" y="525"/><use xlink:href="#Gxw_BJCi3jKJ_pad-1" x="1475" y="525"/><use xlink:href="#Gxw_BJCi3jKJ_pad-1" x="1375" y="525"/><use xlink:href="#Gxw_BJCi3jKJ_pad-1" x="1275" y="525"/><use xlink:href="#Gxw_BJCi3jKJ_pad-1" x="1175" y="525"/><use xlink:href="#Gxw_BJCi3jKJ_pad-1" x="1075" y="525"/><use xlink:href="#Gxw_BJCi3jKJ_pad-1" x="975" y="525"/><use xlink:href="#Gxw_BJCi3jKJ_pad-1" x="875" y="525"/><use xlink:href="#Gxw_BJCi3jKJ_pad-1" x="775" y="525"/><use xlink:href="#Gxw_BJCi3jKJ_pad-1" x="675" y="525"/><use xlink:href="#Gxw_BJCi3jKJ_pad-1" x="500" y="550"/><use xlink:href="#Gxw_BJCi3jKJ_pad-1" x="675" y="825"/><use xlink:href="#Gxw_BJCi3jKJ_pad-1" x="775" y="825"/><use xlink:href="#Gxw_BJCi3jKJ_pad-1" x="875" y="825"/><use xlink:href="#Gxw_BJCi3jKJ_pad-1" x="975" y="825"/><use xlink:href="#Gxw_BJCi3jKJ_pad-1" x="1075" y="825"/><use xlink:href="#Gxw_BJCi3jKJ_pad-1" x="1175" y="825"/><use xlink:href="#Gxw_BJCi3jKJ_pad-1" x="1275" y="825"/><use xlink:href="#Gxw_BJCi3jKJ_pad-1" x="1375" y="825"/><use xlink:href="#Gxw_BJCi3jKJ_pad-1" x="1475" y="825"/><use xlink:href="#Gxw_BJCi3jKJ_pad-1" x="1575" y="825"/><use xlink:href="#Gxw_BJCi3jKJ_pad-1" x="1675" y="825"/><use xlink:href="#Gxw_BJCi3jKJ_pad-1" x="1775" y="825"/><use xlink:href="#Gxw_BJCi3jKJ_pad-1" x="1875" y="825"/><use xlink:href="#Gxw_BJCi3jKJ_pad-1" x="1975" y="825"/><use xlink:href="#Gxw_BJCi3jKJ_pad-1" x="2175" y="725"/><use xlink:href="#Gxw_BJCi3jKJ_pad-1" x="2350" y="725"/><use xlink:href="#Gxw_BJCi3jKJ_pad-1" x="2650" y="775"/><use xlink:href="#Gxw_BJCi3jKJ_pad-1" x="2750" y="775"/><use xlink:href="#Gxw_BJCi3jKJ_pad-1" x="2475" y="900"/><use xlink:href="#Gxw_BJCi3jKJ_pad-1" x="2375" y="900"/><use xlink:href="#Gxw_BJCi3jKJ_pad-1" x="2650" y="975"/><use xlink:href="#Gxw_BJCi3jKJ_pad-1" x="2750" y="975"/><use xlink:href="#Gxw_BJCi3jKJ_pad-1" x="2750" y="525"/><use xlink:href="#Gxw_BJCi3jKJ_pad-1" x="2850" y="525"/><use xlink:href="#Gxw_BJCi3jKJ_pad-1" x="2375" y="225"/><use xlink:href="#Gxw_BJCi3jKJ_pad-1" x="2275" y="225"/><use xlink:href="#Gxw_BJCi3jKJ_pad-1" x="1700" y="175"/><use xlink:href="#Gxw_BJCi3jKJ_pad-1" x="1600" y="175"/><use xlink:href="#Gxw_BJCi3jKJ_pad-1" x="500" y="850"/><use xlink:href="#Gxw_BJCi3jKJ_pad-1" x="375" y="900"/><use xlink:href="#Gxw_BJCi3jKJ_pad-1" x="275" y="900"/><use xlink:href="#Gxw_BJCi3jKJ_pad-2" x="150" y="175"/><use xlink:href="#Gxw_BJCi3jKJ_pad-2" x="150" y="275"/><use xlink:href="#Gxw_BJCi3jKJ_pad-2" x="150" y="375"/><use xlink:href="#Gxw_BJCi3jKJ_pad-2" x="150" y="475"/><use xlink:href="#Gxw_BJCi3jKJ_pad-2" x="150" y="575"/><use xlink:href="#Gxw_BJCi3jKJ_pad-2" x="150" y="675"/><use xlink:href="#Gxw_BJCi3jKJ_pad-2" x="1800" y="175"/><use xlink:href="#Gxw_BJCi3jKJ_pad-2" x="1900" y="175"/><use xlink:href="#Gxw_BJCi3jKJ_pad-2" x="2000" y="175"/><use xlink:href="#Gxw_BJCi3jKJ_pad-2" x="2100" y="175"/><use xlink:href="#Gxw_BJCi3jKJ_pad-3" x="2700" y="225"/><use xlink:href="#Gxw_BJCi3jKJ_pad-3" x="2800" y="225"/><use xlink:href="#Gxw_BJCi3jKJ_pad-3" x="2900" y="225"/><use xlink:href="#Gxw_BJCi3jKJ_pad-3" x="1475" y="175"/><use xlink:href="#Gxw_BJCi3jKJ_pad-3" x="1375" y="175"/><use xlink:href="#Gxw_BJCi3jKJ_pad-3" x="1275" y="175"/><use xlink:href="#Gxw_BJCi3jKJ_pad-3" x="1175" y="175"/><use xlink:href="#Gxw_BJCi3jKJ_pad-3" x="1075" y="175"/><use xlink:href="#Gxw_BJCi3jKJ_pad-3" x="975" y="175"/><use xlink:href="#Gxw_BJCi3jKJ_pad-3" x="875" y="175"/><use xlink:href="#Gxw_BJCi3jKJ_pad-3" x="775" y="175"/><use xlink:href="#Gxw_BJCi3jKJ_pad-3" x="675" y="175"/><use xlink:href="#Gxw_BJCi3jKJ_pad-3" x="553" y="236"/><use xlink:href="#Gxw_BJCi3jKJ_pad-3" x="297" y="236"/><use xlink:href="#Gxw_BJCi3jKJ_pad-3" x="297" y="414"/><use xlink:href="#Gxw_BJCi3jKJ_pad-3" x="553" y="414"/><use xlink:href="#Gxw_BJCi3jKJ_pad-3" x="675" y="950"/><use xlink:href="#Gxw_BJCi3jKJ_pad-3" x="775" y="950"/><use xlink:href="#Gxw_BJCi3jKJ_pad-3" x="875" y="950"/><use xlink:href="#Gxw_BJCi3jKJ_pad-3" x="975" y="950"/><use xlink:href="#Gxw_BJCi3jKJ_pad-3" x="1075" y="950"/><use xlink:href="#Gxw_BJCi3jKJ_pad-3" x="1175" y="950"/><use xlink:href="#Gxw_BJCi3jKJ_pad-3" x="1275" y="950"/><use xlink:href="#Gxw_BJCi3jKJ_pad-3" x="1375" y="950"/><use xlink:href="#Gxw_BJCi3jKJ_pad-3" x="1475" y="950"/><use xlink:href="#Gxw_BJCi3jKJ_pad-3" x="1575" y="950"/><use xlink:href="#Gxw_BJCi3jKJ_pad-3" x="1675" y="950"/><use xlink:href="#Gxw_BJCi3jKJ_pad-3" x="1775" y="950"/><use xlink:href="#Gxw_BJCi3jKJ_pad-3" x="1875" y="950"/><use xlink:href="#Gxw_BJCi3jKJ_pad-3" x="1975" y="950"/><use xlink:href="#Gxw_BJCi3jKJ_pad-3" x="2075" y="950"/><use xlink:href="#Gxw_BJCi3jKJ_pad-3" x="2175" y="950"/><use xlink:href="#Gxw_BJCi3jKJ_pad-3" x="2925" y="975"/><use xlink:href="#Gxw_BJCi3jKJ_pad-3" x="2925" y="875"/><use xlink:href="#Gxw_BJCi3jKJ_pad-4" x="2525" y="700"/><use xlink:href="#Gxw_BJCi3jKJ_pad-4" x="2525" y="300"/><use xlink:href="#Gxw_BJCi3jKJ_pad-5" x="3225" y="485.6"/><use xlink:href="#Gxw_BJCi3jKJ_pad-5" x="3040" y="603.7"/><use xlink:href="#Gxw_BJCi3jKJ_pad-5" x="3225" y="721.9"/></g><mask id="pcb-stackup_bottom_mech-mask"><g fill="#000" stroke="#000"><rect x="73" y="73" width="3354" height="979" fill="#fff"/><use xlink:href="#pcb-stackup_bottom_drl1"/></g></mask><mask id="pcb-stackup_bottom_cf-mask"><g fill="#fff" stroke="#fff"><use xlink:href="#pcb-stackup_bottom_sm"/></g></mask><mask id="pcb-stackup_bottom_sm-mask"><g fill="#000" stroke="#000"><rect x="73" y="73" width="3354" height="979" fill="#fff"/><use xlink:href="#pcb-stackup_bottom_sm"/></g></mask></defs><g transform="translate(0,1125) scale(1,-1)"><g mask="url(#pcb-stackup_bottom_mech-mask)" transform="translate(3500,0) scale(-1,1)"><rect x="73" y="73" width="3354" height="979" fill="currentColor" class="pcb-stackup_fr4"/><use xlink:href="#pcb-stackup_bottom_cu" fill="currentColor" stroke="currentColor" class="pcb-stackup_cu"/><use xlink:href="#pcb-stackup_bottom_cu" fill="currentColor" stroke="currentColor" class="pcb-stackup_cf" mask="url(#pcb-stackup_bottom_cf-mask)"/><g mask="url(#pcb-stackup_bottom_sm-mask)"><rect x="73" y="73" width="3354" height="979" fill="currentColor" class="pcb-stackup_sm"/></g></g></g></svg>